<!-- by TradingView --><svg width="56" height="56" viewBox="0 0 56 56" xmlns="http://www.w3.org/2000/svg"><path fill="#024519" d="M0 0h56v56H0z"/><path fill-rule="evenodd" d="M27.46 36C23.55 36 19 34 19 29.49c0-3.28 2.58-5.63 5.54-6.6a15.42 15.42 0 0 1-3.2-2.44 26.07 26.07 0 0 0-3.77 7.8c-.31 1.2-.52 1.88-.62 2.05-.23.47-.63.7-1.21.7-.15 0-.3-.01-.43-.04-.62-.14-.93-.52-.93-1.13 0-.4.15-.9.45-1.48.37-.7 1.38-2.15 3.03-4.31.65-.85 1.07-1.47 1.44-2.02.23-.36.45-.68.7-1.02h-4.53c-1.29 0-1.56.4-1.98 1.5H13l.04-3.5h7.24a5 5 0 0 1-.61-2.4c0-4.39 4.22-6.6 8.16-6.6 3.68 0 7.17 1.83 7.17 6 0 .68-.1 1.34-.28 1.95l.1-.21A4.55 4.55 0 0 1 39.18 15c.9 0 1.68.17 2.35.5.85.43 1.27 1 1.27 1.7 0 .14-.02.27-.06.41-.14.57-.52.85-1.11.85-.32 0-.57-.07-.76-.2-.24-.17-.4-.56-.46-1.19a3.61 3.61 0 0 0-.1-.6c-.14-.6-.6-.91-1.35-.91-.32 0-.61.07-.88.2-1.02.53-1.58 2.25-1.67 5.15a4.68 4.68 0 0 1 2.65-.83c2.2 0 3.94 1.55 3.94 3.81 0 2.5-2.11 4.11-4.5 4.11-.62 0-1.16-.12-1.64-.33.1.38.14.78.14 1.2a6.29 6.29 0 0 1-2.13 4.64C33 35.17 30.52 36 27.46 36Zm6.78-12.11a10.34 10.34 0 0 1 .16-5.12 6.93 6.93 0 0 1-3.1 3.21c.98.54 2.02 1.16 2.94 1.9ZM24 15c0 3.04 3.1 4.72 5.5 6.02l.63.34c2.05-1.02 3.87-2.94 3.87-5.35 0-3-2.67-5.01-5.5-5.01-2.28 0-4.5 1.42-4.5 4Zm-4 14.49c0 3.45 3.82 5.51 7 5.51 2.73 0 6-1.3 6-4.5-.07-3.08-3.52-4.93-6.1-6.3l-.94-.52c-2.79.66-5.96 2.67-5.96 5.81Zm18.54-2.05c-1.42-.03-2.53-1.31-2.54-3.44 0-2.2 1.07-3.15 2.42-3.28h.2c1.37.03 2.37 1.15 2.38 3.28-.01 2.3-1.04 3.43-2.46 3.44Z" fill="url(#atffq4isy)"/><path d="M13 43v-5h1v5h-1ZM14.5 43v-5h.87l.63 2.5V38h1.02v5H16l-.5-2.5V43h-1ZM18.45 43l-.94-5h.94l.55 3.5.55-3.5h.95l-.95 5h-1.1ZM21.02 43v-5H23v.68h-1V40h.75v.62H22v1.7h1V43h-1.98ZM26.5 43v-4.29H26V38h2v.71h-.5V43h-1ZM28.5 43v-5h1l.7 2.7.8-2.7h1v5h-1v-3l-.56 3H30l-.5-3v3h-1ZM32.5 43v-5h2v.68h-1v1.34l1-.02v.62l-1 .02v1.68h1V43h-2ZM34.99 43v-5H36l.5 2.5V38h1v5h-1l-.5-2.5V43h-1.01ZM38.5 43v-4.29H38V38h2v.71h-.5V43h-1Z" fill="#F0F3FA"/><path d="M41.58 43c-.41 0-.75-.1-1.02-.33a1.8 1.8 0 0 1-.56-.95l.85-.33c.07.26.16.46.27.6.11.14.26.21.44.21.13 0 .23-.03.3-.1.07-.06.1-.16.1-.27a.57.57 0 0 0-.12-.37 2.33 2.33 0 0 0-.42-.4l-.59-.5a3.2 3.2 0 0 1-.52-.56 1.3 1.3 0 0 1-.2-.73c0-.27.07-.49.18-.67.13-.2.3-.34.5-.44.22-.1.45-.16.71-.16.4 0 .7.12.94.35.25.23.4.53.47.9l-.75.33a1.5 1.5 0 0 0-.13-.37.77.77 0 0 0-.2-.29.44.44 0 0 0-.3-.1.39.39 0 0 0-.28.1.4.4 0 0 0-.1.28c0 .1.04.2.11.3.09.1.2.2.36.34l.6.53.37.36c.12.13.21.28.3.44.07.16.11.34.11.55 0 .28-.06.51-.2.7-.12.2-.29.34-.5.44-.22.1-.46.14-.72.14ZM24.58 43c-.41 0-.75-.1-1.02-.33a1.8 1.8 0 0 1-.56-.95l.85-.33c.07.26.16.46.27.6.11.14.26.21.44.21.13 0 .23-.03.3-.1.07-.06.1-.16.1-.27a.57.57 0 0 0-.12-.37 2.33 2.33 0 0 0-.42-.4l-.59-.5a3.2 3.2 0 0 1-.52-.56 1.3 1.3 0 0 1-.2-.73c0-.27.07-.49.18-.67.13-.2.3-.34.5-.44.22-.1.45-.16.71-.16.4 0 .7.12.94.35.25.23.4.53.47.9l-.75.33a1.5 1.5 0 0 0-.13-.37.77.77 0 0 0-.2-.29.44.44 0 0 0-.3-.1.39.39 0 0 0-.28.1.4.4 0 0 0-.1.28c0 .1.04.2.11.3.09.1.2.2.36.34l.6.53.37.36c.12.13.21.28.3.44.07.16.11.34.11.55 0 .28-.06.51-.2.7-.12.2-.29.34-.5.44-.22.1-.46.14-.72.14Z" fill="#fff"/><defs><linearGradient id="atffq4isy" x1="13" y1="21.28" x2="44.15" y2="21.28" gradientUnits="userSpaceOnUse"><stop stop-color="#A6A05F"/><stop offset=".24" stop-color="#D3E191"/><stop offset=".44" stop-color="#BE9134"/><stop offset=".64" stop-color="#F4E298"/><stop offset=".8" stop-color="#DDB56D"/><stop offset="1" stop-color="#E7DE99"/></linearGradient></defs></svg>