<!-- by TradingView --><svg width="56" height="56" viewBox="0 0 56 56" xmlns="http://www.w3.org/2000/svg"><path fill="#F0F3FA" d="M0 0h56v56H0z"/><path d="M18.94 30.97c.42-.4 4.6-4.9 12.57-13.5a1.13 1.13 0 0 1 .85-.36l3.33.07c3.37.07 6.7-.31 9.98-1.14.39-.1.43 0 .14.27a28.78 28.78 0 0 0-6.08 8.5c-.25.52-.93.88-1.53 1.08-5.34 1.78-11.63 3.88-18.86 6.31a.49.49 0 0 1-.6-.25c-.18-.35-.11-.68.2-.98ZM18.49 29.15c-.24.3-.42.5-.56.58-.75.44-.88.27-.4-.51l7.56-12.26a.9.9 0 0 1 .89-.42c1.34.2 2.54.23 3.58.12.83-.09.94.16.34.75-4.27 4.23-7.9 7.93-10.91 11.1-.06.06-.23.27-.5.64ZM22.15 19.68a4064.09 4064.09 0 0 1-6.62 9.62c-.54.36-.72.22-.53-.41l3.13-10.45a.61.61 0 0 1 .25-.33c1.48-1 2.84-1.09 5.15-1.53a.33.33 0 0 1 .35.15.35.35 0 0 1-.01.38c-.54.83-1.12 1.69-1.72 2.57ZM16.54 19.5c-1.3 3.6-2.71 7.5-3.68 10.6-.11.36-.34.52-.67.49a.2.2 0 0 1-.17-.19 14.3 14.3 0 0 1 4.1-11.13c.05-.05.1-.07.16-.08.07 0 .13 0 .18.04l.07.1c.02.06.02.12 0 .18ZM21.2 33.38a593.5 593.5 0 0 0 16.45-6.12c.88-.35 1.08-.1.59.72a17.39 17.39 0 0 0-1.61 3.83 1.01 1.01 0 0 1-.86.73l-16 2.02c-1.01.13-1.12-.1-.32-.67.15-.1.43-.2.86-.3.5-.11.8-.18.88-.21ZM19.13 36.2c3.53-.48 8.08-1.19 13.67-2.13.62-.1 1.8-.46 2.5-.44.48.02.58.22.28.6L32.3 38.6a1.03 1.03 0 0 1-.97.4l-13.35-2.01c-.17-.03-.26-.13-.27-.3 0-.06 0-.11.04-.16 0 0 .05-.03.16-.06.44-.13.85-.22 1.22-.27ZM16.04 38.5l13.26 1.54c.94.11.98.38.13.8-4.59 2.3-8.98.88-13.13-1.7a.96.96 0 0 1-.4-.45.15.15 0 0 1 .01-.14.14.14 0 0 1 .13-.06Z" fill="#4F8BDA"/></svg>