<!-- by TradingView --><svg width="18" height="18" viewBox="0 0 18 18" xmlns="http://www.w3.org/2000/svg"><path fill="#F0F3FA" d="M0 0h18v18H0z"/><path d="M4 5v7l1.02-1.24L8.5 5.21l2.86 4.73 1.64.82V5H4Z" fill="#F36523"/><path fill-rule="evenodd" d="M4 11.8V13h.82l1.87-2.84c1.27 0 2.69.23 4.15.8L12.18 13H13v-.93c.43.27.87.58 1.3.93l1.7-1.33c-.8-.6-2.53-1.6-4.55-2.2L8.7 5h-.4L5.47 9.47c-1.14.34-2.4.89-3.47 1.75.66-.37 1.7-.75 2.96-.94L4 11.8Zm3.4-2.73a8.08 8.08 0 0 1 2.2.01L8.5 7.4 7.4 9.07Z" fill="#093B82"/></svg>