<!-- by TradingView --><svg width="56" height="56" viewBox="0 0 56 56" xmlns="http://www.w3.org/2000/svg"><path fill="#F0F3FA" d="M0 0h56v56H0z"/><path d="M27.05 12.3 12 41.5 24.43 35c1.44-.75 3.2-.4 4.18.87.92 1.2 1.88 2.43 2.3 2.84 1.72 1.67 4.59 5 9.74 2.22 4.68-2.51 3.44-7.03 2.3-8.88L28.03 12.23a.58.58 0 0 0-.98.08Z" fill="url(#awvvpuhte)"/><path d="m39.71 41.38-5.61-8.86a3 3 0 0 0-4.13-.94l-5.27 3.3a3.32 3.32 0 0 1 3.91 1c.92 1.19 1.88 2.42 2.3 2.83l.32.32c1.64 1.61 4.2 4.15 8.48 2.35Z" fill="url(#bwvvpuhte)"/><defs><linearGradient id="awvvpuhte" x1="19.5" y1="26.5" x2="42.5" y2="39.5" gradientUnits="userSpaceOnUse"><stop stop-color="#951F1D"/><stop offset="1" stop-color="#D62E25"/></linearGradient><linearGradient id="bwvvpuhte" x1="26.53" y1="35.2" x2="37.72" y2="41.88" gradientUnits="userSpaceOnUse"><stop stop-color="#8E211D"/><stop offset=".35" stop-color="#A1211E"/><stop offset=".65" stop-color="#B12522"/><stop offset="1" stop-color="#D72C28"/></linearGradient></defs></svg>