<!-- by TradingView --><svg width="18" height="18" viewBox="0 0 18 18" xmlns="http://www.w3.org/2000/svg"><path fill="#F0F3FA" d="M0 0h18v18H0z"/><path d="m8.06 9.84-.33-.2V8.13h-.11l.03 1.41-.36-.26.15-1.42-.06-.06L7.1 9.1a.9.9 0 0 1-.2-.13l.23-1.18-.06-.04-.2.53c-.06.03-.15-.08-.19-.13l.24-.53-.06-.06c-.08.16-.26.49-.33.49s-.15-.15-.18-.23l.36-.43h-.09l-.3.33-.23-.2.44-.36v-.1l-1.04.66h-.53L3 8.75l.36-.62 2.97-1.19v-.06l-2.8.92.48-.76 2.27-.36V6.6l-2.18.17.21-.46 2.11.06v-.06l-1.96-.23.39-.27 1.57.33.06-.06-1.3-.43.26-.23 1.28.59v-.1l-1.07-.66.33-.26 1.67 1.48.41 3.36Zm1.94.32.12-.13 2.05 2.27c-.03.13-.16.41-.45.46L10 10.16Zm-1.88-.03.15.17L6.63 13c-.1-.06-.33-.2-.35-.34l1.84-2.53Zm.27.23.15.04-1.2 3.12c-.12-.04-.4-.16-.47-.3l1.52-2.86Zm.39.13h-.12l-.99 3.16c.1.1.44.2.6.23l.5-3.39Zm.15 0h.17l.1 3.46c-.07.04-.28.1-.66 0l.39-3.46Zm.41-.03-.12.03.15 3.42c.17.03.45-.05.57-.1l-.6-3.35Zm.12-.03.15-.07 1.16 3.1c-.04.1-.2.32-.56.32l-.75-3.35Zm.42-.2-.17.07 1.3 3.02c.29 0 .5-.22.57-.33l-1.7-2.76Zm.3-3.85L11.52 5h.35v.2l-.71.5.06.09.95-.46.33.13-1.13.46.09.03 1.28-.4.35.24-1.63.36v.1l2.05-.23.27.46-2.26-.1v.1l2.4.2.51.75-2.91-.75-.12.06 3.18 1.02.42.53-.09.16-1.82-.92h-.92l-.77-.52h-.1l.48.4-.14.09-.48-.36-.06.03.56.6-.14.16-.57-.66h-.06l.48.76-.21.23-.48-.99-.06.1.48 1.02.06.5-.12.09-.42-1.45-.09.04.36 1.54-.36.27-.12-1.58h-.08l.08 1.67-.3.27.07-3.36ZM8 5.86c.12-.03.34-.04.36.06.04.16-.14.32-.3.46-.11.1-.21.19-.24.26-.04.16.26 2.18.42 3.16.06.13.3.4.8.43.63.03.9-.33.9-.43l.02-.4c.04-.83.14-2.67.1-2.85-.03-.12-.18-.21-.33-.3-.16-.11-.31-.21-.33-.33v-.11c-.02-.26-.05-.68-.56-.71-.6-.03-.84.62-.84.76Z"/></svg>