<!-- by TradingView --><svg width="18" height="18" viewBox="0 0 18 18" xmlns="http://www.w3.org/2000/svg"><path fill="#F0F3FA" d="M0 0h18v18H0z"/><path fill-rule="evenodd" d="M9 14c3.31 0 6-2.24 6-5 0-.67-.16-1.3-.44-1.88a2.7 2.7 0 0 0-1.83 2.45C12.61 11.45 11.55 13 9 13v-1c.64 0 2.24-.36 2.45-2.5.21-2.22 1.47-3.13 2.44-3.4A6.42 6.42 0 0 0 9 4c-1.6 0-3.07.53-4.14 1.38.41-.22.9-.38 1.47-.38C8.56 5 9.03 7.01 9 8.02V11H8V7.69C8 7 7.59 6 6.3 6c-1.03 0-1.4.67-1.48 1l-1.33.01A4.4 4.4 0 0 0 3 9c0 2.76 2.69 5 6 5ZM7 9V8c-1.08 0-3 .48-3 2.38 0 1.74 2.88 2.65 4 2.62v-1c-.82-.1-3-.56-3-1.56S6.42 9 7 9Z" fill="#074"/></svg>