<!-- by TradingView --><svg width="18" height="18" viewBox="0 0 18 18" fill="none" xmlns="http://www.w3.org/2000/svg">
<rect width="18" height="18" fill="#F0F3FA"/>
<path fill-rule="evenodd" clip-rule="evenodd" d="M4.66816 8.32408L5.10002 9.28571H4.23629L4.66816 8.32408ZM3.94399 7L2 10.9952H3.52463L3.8233 10.2989H5.51286L5.81138 10.9952H6.51111V9.05713L5.41785 7H3.94399ZM8.70828 7.00458L6.66667 7V10.9952L8.70828 10.9906C9.89504 10.9906 10.9178 10.0983 10.9178 8.99761C10.9178 7.89693 9.89504 7.00458 8.70828 7.00458ZM8.37029 9.85714H7.99998V8.14286H8.37029C8.93073 8.14286 9.46667 8.47782 9.46667 8.99761C9.46667 9.51744 8.93074 9.85714 8.37029 9.85714ZM14.5337 7H16L15.9997 10.9954H14.7556V9.15418L13.6788 11H12.9676L12 9.15158V10.9953H10.7111V10.097C10.9413 9.76794 11.0222 9.38679 11.0222 8.99768C11.0222 8.60856 10.9413 8.22741 10.7111 7.8983V7H12.1118L13.3232 9.3273L14.5337 7Z" fill="#190F32"/>
</svg>
