<!-- by TradingView --><svg width="18" height="18" viewBox="0 0 18 18" xmlns="http://www.w3.org/2000/svg"><path fill="#F0F3FA" d="M0 0h18v18H0z"/><path d="M6.86 6.69a5.5 5.5 0 0 0-.65 1.22 5.06 5.06 0 0 0-.58-.37c-.89-.5-1.79.71-1.21 1.64.08.13.22.27.44.42l1.2.78c.24.16.5.19.79.09.4-.2.62-.55.65-1.04.02-.27-.12-.49-.14-.7C7.3 8.1 7.52 7.7 8 7.5a2.84 2.84 0 0 1 0 3.78c-.63.57-1.33.8-2.1.54-.19-.06-.43-.2-.75-.4-.52-.35-1.2-.73-1.56-1.16-1.55-1.89.15-4.97 2.33-4.13.3.12.62.37.93.55Z" fill="url(#ae412rqci)"/><path d="M11.13 11.32c.3-.36.51-.77.65-1.23.3.22.5.36.61.4.92.45 1.8-.83 1.15-1.72-.07-.1-.22-.24-.45-.39-.59-.4-.98-.65-1.19-.78a.82.82 0 0 0-.77-.05c-.54.29-.73.83-.56 1.47.19.68 0 1.18-.57 1.5a2.86 2.86 0 0 1-.68-2.58v-.01l.04-.04c.1-.44.3-.82.6-1.15.65-.63 1.36-.81 2.13-.56.2.06.44.2.73.4.5.32 1.13.67 1.49 1.06 1.7 1.86-.01 5.08-2.26 4.21-.3-.1-.61-.35-.92-.53Z" fill="url(#be412rqci)"/><path d="M9.36 7.89c.1-.44.3-.82.6-1.15-.13-.1-.26-.2-.38-.27-.95-.63-1.85-.56-2.72.22a3 3 0 0 0-.63 1.15l-.02.07c-.2.97 0 1.83.64 2.56.4-.2.62-.55.65-1.04 0-.16-.04-.3-.08-.43a1.3 1.3 0 0 1-.06-.27C7.3 8.1 7.52 7.7 8 7.5c.48-.14.78.06 1.14.3l.16.12c.02 0 .04-.02.05-.04Zm2.42 2.2c.2-.98-.01-1.82-.65-2.54-.54.29-.73.83-.56 1.47.19.68 0 1.18-.57 1.5-.52.13-.8-.07-1.24-.37l-.1-.07c-.11.46-.33.87-.64 1.2l.1.07c.21.16.44.31.66.41.85.4 1.63.25 2.35-.44.3-.36.51-.77.65-1.23Z" fill="url(#ce412rqci)"/><path d="M9.7 11.9c-.65 0-1.23-.34-1.44-.51.2.12.74.37 1.36.37a1.9 1.9 0 0 0 1.52-.8c.22-.28.52-.96.64-1.27 0 .24-.13.55-.22.82-.07.22-.31.56-.42.7-.2.23-.78.7-1.44.7Z" fill="#FAAD81"/><path d="M3.05 8.36c-.06.38.12.96.22 1.2a5.43 5.43 0 0 1-.1-1.04V8.5c.03-.28.11-.99.44-1.4.42-.53.71-.68 1.2-.81.57-.16.95.05 1.25.21l.1.05c.18.1.37.11.49.12h.07c-.29-.15-.9-.5-1.07-.56a1.93 1.93 0 0 0-1.62.36c-.68.5-.9 1.42-.98 1.89Zm4.32 1.73c-.23.4-.68.52-.87.52.9.25 1.17-.78 1.17-1.11 0-.27-.17-.55-.25-.65.12.25.24.74-.05 1.24Zm-1.48 1.65c.25.06.9.09 1.44-.24a3.3 3.3 0 0 0 1.11-1.28l.14-.17c-.01.08-.06.3-.17.53-.14.28-.57.9-1.08 1.12a1.8 1.8 0 0 1-1.44.04Zm3.36-3.38c-.05.38.13.96.23 1.2a5.43 5.43 0 0 1-.11-1.04V8.5c.03-.28.12-.99.45-1.4.42-.53.7-.68 1.19-.81.58-.16.95.05 1.25.21l.1.05c.19.1.38.11.5.12a.8.8 0 0 1 .06 0c-.28-.15-.9-.5-1.07-.56a1.93 1.93 0 0 0-1.61.36c-.68.5-.91 1.42-.99 1.89Zm4.33 1.73c-.23.4-.68.52-.88.52.9.25 1.18-.78 1.18-1.11 0-.27-.17-.55-.25-.65.12.25.23.74-.05 1.24Zm-1.49 1.65c.26.06.9.09 1.45-.24.54-.32.97-.99 1.11-1.28l.14-.17c-.02.08-.07.3-.18.53-.13.28-.56.9-1.07 1.12a1.8 1.8 0 0 1-1.45.04Z" fill="#C8C9CC"/><path d="M8.35 6.13c-.89 0-1.44.56-1.6.84.31-.22.77-.7 1.47-.7.69 0 .83.22 1 .28.14.05.4.1.5.13a2.57 2.57 0 0 0-1.37-.55Z" fill="#FED48E"/><defs><linearGradient id="ae412rqci" x1="3.75" y1="6.66" x2="7.4" y2="10.61" gradientUnits="userSpaceOnUse"><stop stop-color="#D4D6D7"/><stop offset=".34" stop-color="#818285"/></linearGradient><linearGradient id="be412rqci" x1="10.14" y1="6.57" x2="10.83" y2="7.58" gradientUnits="userSpaceOnUse"><stop stop-color="#DBDCDD"/><stop offset="1" stop-color="#818285"/></linearGradient><linearGradient id="ce412rqci" x1="8.12" y1="6.41" x2="10.74" y2="11.19" gradientUnits="userSpaceOnUse"><stop stop-color="#FCAE17"/><stop offset="1" stop-color="#F15D22"/></linearGradient></defs></svg>