<!-- by TradingView --><svg width="56" height="56" viewBox="0 0 56 56" fill="none" xmlns="http://www.w3.org/2000/svg">
<rect width="56" height="56" fill="#F0F3FA"/>
<path d="M27.9703 18.7905C27.968 18.7868 27.9648 18.7837 27.961 18.7815C27.9572 18.7793 27.9528 18.7782 27.9484 18.7782C27.944 18.7782 27.9396 18.7793 27.9358 18.7815C27.9319 18.7837 27.9287 18.7868 27.9265 18.7905L16.2391 39.9513C16.2207 39.9838 16.1926 40 16.155 40H11.1061C11.0889 40 11.072 39.9959 11.0567 39.9881C11.0415 39.9802 11.0284 39.9688 11.0187 39.9549C11.0089 39.941 11.0028 39.9249 11.0007 39.9081C10.9987 39.8914 11.0009 39.8743 11.0071 39.8586C11.0846 39.6639 11.1806 39.4633 11.295 39.2566C16.2729 30.2322 21.2553 21.2105 26.2424 12.1914C26.6317 11.4888 27.2146 10.932 28.0544 11.0067C28.714 11.0656 29.2063 11.3869 29.5311 11.9708C31.9279 16.285 34.3151 20.5961 36.6926 24.9042C36.6971 24.9126 36.6992 24.9221 36.6987 24.9316C36.6982 24.9411 36.6951 24.9503 36.6898 24.9581C36.6845 24.9659 36.6771 24.9721 36.6684 24.976C36.6598 24.9798 36.6502 24.9812 36.6408 24.98C34.4383 24.7379 33.0272 26.7113 32.7127 28.5953C32.7058 28.636 32.6847 28.6454 32.6494 28.6236C30.4492 27.2703 28.1776 28.7084 27.6685 30.9851C27.4373 32.0163 27.5729 33.0101 28.0751 33.9667C29.4551 36.5963 32.8648 36.335 33.943 33.6238C34.0467 33.3613 34.1477 33.0958 34.246 32.8272C34.2621 32.785 34.2886 32.7774 34.3254 32.8046C36.4853 34.3989 39.1094 33.1904 39.8869 30.847C39.8901 30.8376 39.8959 30.8293 39.9038 30.8232C39.9116 30.817 39.9211 30.8132 39.9311 30.8122C39.9412 30.8113 39.9512 30.8132 39.9602 30.8178C39.9691 30.8223 39.9765 30.8294 39.9814 30.838L44.9957 39.9468C44.9987 39.9523 45.0001 39.9585 45 39.9647C44.9998 39.9709 44.998 39.977 44.9948 39.9823C44.9916 39.9877 44.987 39.9921 44.9815 39.9952C44.976 39.9983 44.9698 39.9999 44.9634 40H39.7418C39.7237 40 39.706 39.9952 39.6906 39.9863C39.6751 39.9773 39.6626 39.9644 39.6542 39.9491L37.2571 35.5531C37.2534 35.5463 37.2478 35.5406 37.241 35.5368C37.2342 35.533 37.2264 35.5311 37.2185 35.5315C37.2107 35.5319 37.2031 35.5344 37.1967 35.5388C37.1903 35.5432 37.1852 35.5494 37.1822 35.5565C35.7296 38.8334 32.2117 40.9946 28.6303 39.5338C26.1906 38.5392 24.5779 36.2162 24.0917 33.7143C23.2555 29.4021 25.724 24.214 30.713 23.9209C30.7239 23.9203 30.7345 23.9169 30.7437 23.9113C30.753 23.9056 30.7606 23.8977 30.7659 23.8885C30.7712 23.8792 30.774 23.8688 30.774 23.8582C30.774 23.8477 30.7713 23.8373 30.766 23.8281L27.9703 18.7905Z" fill="#036D15"/>
<path d="M33.9947 28.9914C33.9917 30.6483 35.1086 31.9933 36.4893 31.9957C37.8701 31.9981 38.9917 30.6568 38.9947 29C38.9976 27.3431 37.8807 25.9981 36.5 25.9957C35.1193 25.9933 33.9976 27.3346 33.9947 28.9914Z" fill="#CBE83D"/>
</svg>
