<!-- by TradingView --><svg width="18" height="18" viewBox="0 0 18 18" xmlns="http://www.w3.org/2000/svg"><path fill="#F0F3FA" d="M0 0h18v18H0z"/><path d="M6.62 12.79V14h-.35v-1.21c0-1.82 1.04-2.73 2.07-3.64.83-.73 2.64-2.52 3.45-3.33-.58.4-2 1.4-3.1 2.12-1.1.73-2.07 2.52-2.42 3.33-1.03-2.72 1.04-4.54 3.45-5.45 1.93-.73 2.87-1.52 3.1-1.82.7 3.33-.69 5.45-3.1 6.67-1.93.97-2.87 1.81-3.1 2.12Z" fill="url(#agxcrrowr)"/><defs><linearGradient id="agxcrrowr" x1="12.48" y1="4.61" x2="7.67" y2="13.94" gradientUnits="userSpaceOnUse"><stop stop-color="#97CE18"/><stop offset="1" stop-color="#00782B"/></linearGradient></defs></svg>