<!-- by TradingView --><svg width="18" height="18" viewBox="0 0 18 18" xmlns="http://www.w3.org/2000/svg"><path fill="#F0F3FA" d="M0 0h18v18H0z"/><path d="M5.55 6H7v6H6v-1H3.8l-.59 1H2l3.55-6ZM4.4 10H6V7.3L4.4 10Zm5.1 2c1.38 0 2.5-1.34 2.5-3H9v.5h1.95c-.16.86-.75 1.5-1.45 1.5-.83 0-1.5-.9-1.5-2s.67-2 1.5-2c.56 0 1.04.4 1.3 1h1.06c-.35-1.17-1.27-2-2.36-2C8.12 6 7 7.34 7 9s1.12 3 2.5 3Z" fill="#034DA2"/><path fill-rule="evenodd" d="M12 6v2.5H9V9h3v3h1v-2h1.02c1.1 0 1.98-.8 1.98-1.94S15.11 6 14.02 6H12Zm1 1v2h1c.46 0 1-.33 1-1 0-.68-.54-1-1-1h-1Z" fill="#ED1B24"/></svg>