<!-- by TradingView --><svg width="56" height="56" viewBox="0 0 56 56" xmlns="http://www.w3.org/2000/svg"><path fill="#F0F3FA" d="M0 0h56v56H0z"/><path fill-rule="evenodd" d="M8 26h1.04l.37-1h2.18l.37 1H13l-1.9-5H9.9L8 26Zm3.23-2-.73-2-.73 2h1.46ZM15 34h1.04l.37-1h2.18l.37 1H20l-1.9-5h-1.2L15 34Zm3.23-2-.73-2-.73 2h1.46ZM39 34h1.04l.37-1h2.18l.37 1H44l-1.9-5h-1.2L39 34Zm3.23-2-.73-2-.73 2h1.46ZM37 26h1.04l.37-1h2.18l.37 1H42l-1.9-5h-1.2L37 26Zm3.23-2-.73-2-.73 2h1.46Z"/><path d="M14 26v-5h2.05c.81 0 1.74.35 1.74 1.3 0 .56-.4.94-.94 1.06v.05c.66.03 1.15.58 1.15 1.23 0 1-.98 1.36-1.83 1.36H14Zm1-.76h1.02c.7 0 .98-.28.98-.67 0-.53-.49-.8-.96-.8H15v1.47Zm0-2.11h.93c.43 0 .89-.24.89-.72 0-.38-.3-.66-.87-.66H15v1.38ZM20.64 26H19v-5h1.68c1.46 0 2.32 1.09 2.32 2.5 0 1.42-.88 2.5-2.36 2.5Zm-.64-.78h.47c1.05 0 1.53-.74 1.53-1.72 0-.97-.47-1.72-1.5-1.72H20v3.44ZM27 21h1v3.22c0 1.12-.94 1.78-2 1.78s-2-.66-2-1.78V21h1v3.14c0 .64.38 1.06 1 1.06s1-.42 1-1.06V21Zm2 5v-5h1v4.24h2V26h-3Zm4 0v-5h1v4.24h2V26h-3Zm10 0v-5h1v2h2v-2h1v5h-1v-2h-2v2h-1Zm-33 8v-5h1v2h2v-2h1v5h-1v-2h-2v2h-1Zm11 0v-5h1v2h2v-2h1v5h-1v-2h-2v2h-1ZM8 30.4c-.05-.41-.4-.65-.96-.65-.4 0-1.03.15-1.04.63 0 .96 3 .4 3 2.18C9 33.62 7.91 34 7.02 34c-.96 0-1.97-.42-2.02-1.5h1c.04.55.53.75 1.02.75.42 0 1-.17 1-.7 0-.76-3.02-.44-3.02-2.12 0-1 1.2-1.43 2.05-1.43.85 0 1.93.43 1.95 1.4H8ZM34 34v-5h1v2h2v-2h1v5h-1v-2h-2v2h-1Zm-1.99-3.38c-.2-.57-.84-.83-1.42-.83-.98 0-1.59.77-1.59 1.7 0 .96.62 1.72 1.61 1.72.71 0 1.4-.43 1.4-1.21H31v-.61h2v.58C33 33.3 31.82 34 30.6 34c-1.47 0-2.6-.99-2.6-2.5 0-1.48 1.12-2.5 2.58-2.5 1.02 0 2.23.52 2.42 1.62h-.99ZM45 34v-.56L47.5 30H45v-1h4v.56L46.5 33H49v1h-4Zm6-5v5h-1v-5h1Z"/></svg>