<!-- by TradingView --><svg width="18" height="18" viewBox="0 0 18 18" xmlns="http://www.w3.org/2000/svg"><path fill="#F0F3FA" d="M0 0h18v18H0z"/><path fill="url(#abttalanp)" d="M5 4h8v10H5z"/><path fill-rule="evenodd" d="M6.08 12.05a.91.91 0 0 1-.08-.39c0-.23 1.9-1.93 2.29-1.93.18 0 .21.15.21.3 0 .06-.13.17-.32.34-.32.26-.79.65-1.15 1.2a.17.17 0 0 0-.03.1c0 .05.04.09.12.09.05 0 .25-.2.47-.44.3-.3.65-.67.77-.67.1 0 .1.2.11.44.01.3.03.67.24.67.3 0 .65-.55.8-.82.06-.44.32-1.54.8-2.39C10.9 7.49 11.45 7 11.7 7c.17 0 .29.21.29.45 0 .23-.39 1.74-2.01 3.65l-.05.18c-.1.4-.2.77-.06.77.07 0 .22-.27.4-.57.23-.43.52-.93.7-.93.14 0 .17.2.2.44.04.3.09.65.36.65.16 0 .29-.15.33-.25l.13.47c-.13.18-.47.6-.78.6-.21 0-.46-.54-.56-.78-.19.44-.64 1.32-1 1.32-.28 0-.28-.44-.28-.76 0-.18 0-.33-.05-.33-.06 0-.13.07-.23.16-.17.17-.4.38-.68.38-.43 0-.47-.31-.5-.55 0-.11-.01-.2-.05-.25a.04.04 0 0 0-.04-.01c-.05 0-.14.12-.25.28-.24.32-.59.8-1.03.8-.23 0-.3-.1-.3-.24 0-.18.1-.4.17-.56.05-.11.09-.2.06-.2-.06-.05-.3.2-.4.33ZM10.16 10c.18-.57.68-1.61 1.25-2-.05.36-.66 1.68-1.25 2Z" fill="#5A5F98"/><defs><linearGradient id="abttalanp" x1="9" y1="4" x2="9" y2="14" gradientUnits="userSpaceOnUse"><stop stop-color="#EBE7D5"/><stop offset="1" stop-color="#EAD266"/></linearGradient></defs></svg>