<!-- by TradingView --><svg width="18" height="18" viewBox="0 0 18 18" xmlns="http://www.w3.org/2000/svg"><path fill="#1C468C" d="M0 0h18v18H0z"/><path d="M5.5 8.11a1.09 1.09 0 0 0-.43-.23L6.5 6h4.92l1.44 1.9c-.14.07-.28.22-.33.29L11.2 6.48H6.7L5.5 8.1ZM3 11h3.97l.57-1.09a5.4 5.4 0 0 1-.36-.22l-.46.87H3.8l.62-.87a1.52 1.52 0 0 1-.28-.34L3 11Zm12 0h-3.97l-.39-.78c.1-.05.3-.17.36-.22l.28.56h2.93l-.71-.91c.21-.06.35-.1.39-.2L15 11ZM9.83 7.67H8.1l.52-1h.67s.36.64.54 1Zm-.64-.33h-.45l.13-.28h.18l.14.28Z" fill="#fff"/><path opacity=".7" fill="#fff" d="M4 8h10v1.43H4z"/></svg>