<!-- by TradingView --><svg width="18" height="18" viewBox="0 0 18 18" xmlns="http://www.w3.org/2000/svg"><path fill="#F0F3FA" d="M0 0h18v18H0z"/><path d="M10.57 8.64A1.53 1.53 0 0 0 9.35 8C8.6 8 8 8.53 8 9.19c0 .65.6 1.18 1.35 1.18.12 0 .24-.01.35-.04l.3-.54c-.21.06-.45.07-.65.07-.45 0-.78-.28-.78-.67 0-.4.33-.68.78-.68.4 0 .5.13.99.56.41.44 2.42 2.65 3.66 3.93-.41-.86-2.96-3.73-3.43-4.36Z" fill="#27206A"/><path d="M11.47 7.04A3.14 3.14 0 0 0 9.13 6 3.03 3.03 0 0 0 6 9c0 1.69 1.3 2.97 3 3l.46-1.02-.33.02C8 11 7 10.3 7 9c0-1 1-1.96 2.14-1.96.85 0 1.49.16 2 .84.7.93 3.37 4.41 3.86 5.12-.4-1.15-2.26-4.5-3.53-5.96Z" fill="#27206A"/><path d="M4 9.03c0 2.5 1.77 4.59 4.08 4.97l.46-1A3.86 3.86 0 0 1 5 9.03 3.9 3.9 0 0 1 8.86 5c3.88 0 4.63 4.2 7.14 8-1.09-2.68-2.47-6.2-3.82-7.63A4.74 4.74 0 0 0 8.85 4 4.94 4.94 0 0 0 4 9.03Z" fill="#27206A"/></svg>