<!-- by TradingView --><svg width="18" height="18" viewBox="0 0 18 18" xmlns="http://www.w3.org/2000/svg"><path fill="#F0F3FA" d="M0 0h18v18H0z"/><path d="m9.63 3.32.62-.32v12l-.63-.36V3.32Z" fill="#76767B"/><path d="m10.88 11.53 1.55-2.36h.95l-2.5 3.77v-1.41Zm0-5.06 1.55 2.36h.95l-2.5-3.77v1.41Z" fill="#ACADB1"/><path fill-rule="evenodd" d="M14 9.01 10.25 15V3.02l3.75 6Zm-1.34.5L11 12V9.51h1.66Zm0-1.02L11 6v2.49h1.66Z" fill="#7E7F83"/><path d="M9.32 14h-.9l.87.74.71.26-.68-1Z" fill="url(#a4bidyvf3)"/><path d="M8.42 5h1.26v9H8.42V5Z" fill="url(#b4bidyvf3)"/><path d="M9.38 3.18 10 3 4.8 9H4l5.38-5.82Z" fill="#0067A6"/><path d="M8.2 13.33 4 9h.67l2.3 2.09 1.77 2.24H8.2Z" fill="#0073B6"/><path d="M4.63 9 10 3v12l-1-1V9.67H6.81l1.93 2.13v1.53L4.64 9Zm2.14-.67H9V5.67L6.77 8.33Z" fill="#0088CD"/><defs><linearGradient id="a4bidyvf3" x1="8.44" y1="14" x2="9.7" y2="15.35" gradientUnits="userSpaceOnUse"><stop stop-color="#00A5DF"/><stop offset="1" stop-color="#0068A6"/></linearGradient><linearGradient id="b4bidyvf3" x1="8.97" y1="8.11" x2="8.42" y2="8.11" gradientUnits="userSpaceOnUse"><stop stop-color="#0096D1"/><stop offset="1" stop-color="#0077B5"/></linearGradient></defs></svg>