<!-- by TradingView --><svg width="56" height="56" viewBox="0 0 56 56" fill="none" xmlns="http://www.w3.org/2000/svg">
<rect width="56" height="56" fill="#F0F3FA"/>
<path fill-rule="evenodd" clip-rule="evenodd" d="M18 23V15.3888C18 14.6218 18.6113 14 19.3653 14H36.6347C37.3887 14 38 14.6218 38 15.3888V23H18ZM22 17V20H23.6265L23.8573 19.3127H22.8132V17H22ZM19 18.7829C19 19.8022 19.3451 20.286 19.5177 20.4546C19.5612 20.4546 19.95 20.1879 20.139 20.0545C20.0303 19.9016 19.8324 19.5395 19.7652 19.1399H20.6982V20H21.5009V17.8359H20.6982V18.4149H19.8305C20.0096 17.9943 20.4179 17.8218 20.6492 17.7872H21.6355C21.5221 17.5977 21.4661 17.1973 21.4522 17.0208H20.7438C20.1262 17.0208 19 17.5088 19 18.7829ZM30.1952 18.783C30.1952 19.8023 30.5404 20.286 30.7129 20.4547C30.7565 20.4547 31.1453 20.1879 31.3342 20.0545C31.2256 19.9017 31.0277 19.5395 30.9605 19.14H31.9999V20H32.696V17.8359H31.9999V18.4149H31.0258C31.2048 17.9943 31.6131 17.8218 31.8444 17.7873H32.8307C32.7174 17.5978 32.6613 17.1974 32.6475 17.0209H31.939C31.3214 17.0209 30.1952 17.5088 30.1952 18.783ZM25.8134 17H25V20H25.8134V18.4768L26.577 20H27.5814L26.7264 18.394L27.4735 17H26.577L25.8134 18.3222V17ZM24.6853 18.4182H23.5398V19.1015H24.6853V18.4182ZM27.593 20.1396V17.0192H28.4018V17.998H29.1497V17.0192H30V20.0178H29.1497V18.663H28.4018V20.0178L27.6763 20.5102C27.6406 20.4006 27.6059 20.2174 27.593 20.1396ZM33.9956 17H33.25V20H33.9956V17ZM34.2286 17.732H35.6917C35.8066 17.753 35.9941 17.8482 35.8253 18.061C35.6565 18.2737 35.2813 18.5369 35.1149 18.6419C35.2954 19.0268 35.7887 19.9366 36.3177 20.4965L37 20.0416C36.7585 19.7966 36.2474 19.2017 36.1348 18.7818C36.3576 18.6605 36.8031 18.2807 36.8031 17.732C36.8031 17.2282 36.3154 17.0462 36.0715 17.0182H34.4396L34.2286 17.732ZM35 17.8231H34.25V20H35V17.8231Z" fill="#EC252C"/>
<path fill-rule="evenodd" clip-rule="evenodd" d="M17 22L11.1538 22C8.44893 22 7.00377 25.1068 8.78567 27.091L21.2763 42H34.1216L47.165 27.1446C49.0177 25.1765 47.5859 22 44.8461 22L39 22V24H17V22Z" fill="#284474"/>
<path fill-rule="evenodd" clip-rule="evenodd" d="M10.5703 26H44.7288V27.5H10.5703V26ZM13.0009 28H43.0009V29.5H13.0009V28ZM41.0009 30H15.0009V31.5H41.0009V30ZM17.0009 32H39.0009V33.5H17.0009V32ZM37.0009 34H19.0009V35.5H37.0009V34Z" fill="#EC252C"/>
<path fill-rule="evenodd" clip-rule="evenodd" d="M22.5 26L23.0902 28H25L23.4549 29.0902L24.0451 31L22.5 29.8197L20.9549 31L21.5451 29.0902L20 28H21.9098L22.5 26ZM28.0111 26L28.6039 28H30.5222L28.9703 29.0811L29.5631 30.9064L28.0111 29.7783L26.4592 30.9064L27.052 29.0811L25.5 28H27.4183L28.0111 26ZM34.0902 28L33.5 26L32.9098 28H31L32.5451 29.0902L31.9549 31L33.5 29.8197L35.0451 31L34.4549 29.0902L36 28H34.0902ZM30.7387 30.1994L31.3315 32.0001H33.2498L31.6978 33.1529L32.2906 34.9783L30.7387 33.8501L29.1867 34.9783L29.7795 33.1529L28.2275 32.0001H30.1459L30.7387 30.1994ZM25.5358 32L24.943 30.1994L24.3502 32H22.4319L23.9838 33.1529L23.391 34.9783L24.943 33.8501L26.495 34.9783L25.9022 33.1529L27.4541 32H25.5358Z" fill="#F0F3FA"/>
<path d="M35.5 36H20.5L23.0336 40H32.9664L35.5 36Z" fill="#EC252C"/>
<path fill-rule="evenodd" clip-rule="evenodd" d="M25.022 39C24.9246 38.9018 24.73 38.62 24.73 38.0263C24.73 37.2842 25.3652 37 25.7135 37H26.1131C26.1209 37.1028 26.1525 37.336 26.2165 37.4464H25.6601C25.5297 37.4665 25.2993 37.567 25.1984 37.8121H25.6879V37.4749H26.1406V38.7573H25.6879V38.2344H25.1616C25.1995 38.467 25.3111 38.6779 25.3724 38.7669C25.2658 38.8446 25.0465 39 25.022 39ZM23.8489 37.6959V38.118H24.0281V38.5695C23.8532 38.5343 23.5034 38.3467 23.5034 37.8776C23.4868 37.7545 23.5327 37.5083 23.8489 37.5083H24.5035L24.3715 37.029H23.6221C23.4147 37.0405 23 37.2216 23 37.8537C23 38.6439 23.5231 39.1016 24.5035 39.0196V37.6959H23.8489ZM26.5414 39V37.537H27V38.5617C27.3675 38.5062 27.5454 38.2346 27.5454 37.8457C27.5454 37.5346 27.3529 37.4568 27.2567 37.4568H26.4036L26.5414 37H27.3223C27.9051 37 28.0157 37.4856 27.9982 37.7284C27.9982 38.7839 27.3858 38.9774 27.0795 39H26.5414ZM28.8544 39C28.2976 39 28.0811 38.1797 28.0424 37.7696C28.0247 37.513 28.1623 37 28.8544 37C29.5465 37 29.6873 37.513 29.6712 37.7696C29.6309 38.1797 29.4112 39 28.8544 39ZM28.8557 38.5261C28.656 38.5261 28.5784 38.0945 28.5645 37.8787C28.5581 37.7437 28.6075 37.4738 28.8557 37.4738C29.1039 37.4738 29.1544 37.7437 29.1486 37.8787C29.1342 38.0945 29.0554 38.5261 28.8557 38.5261ZM29.7722 37.7696C29.8109 38.1797 30.0274 39 30.5842 39C31.141 39 31.3607 38.1797 31.401 37.7696C31.4171 37.513 31.2763 37 30.5842 37C29.8921 37 29.7545 37.513 29.7722 37.7696ZM30.2945 37.8787C30.3084 38.0945 30.386 38.5261 30.5857 38.5261C30.7854 38.5261 30.8642 38.0945 30.8786 37.8787C30.8844 37.7437 30.8339 37.4738 30.5857 37.4738C30.3375 37.4738 30.2882 37.7437 30.2945 37.8787ZM31.6068 37V39H32V37.7664L32.5288 38.3342V38.9999H32.9999V37.0012H32.5288V37.6114L32.051 37H31.6068Z" fill="#EEF1F8"/>
</svg>
