<!-- by TradingView --><svg width="56" height="56" viewBox="0 0 56 56" fill="none" xmlns="http://www.w3.org/2000/svg">
<rect width="56" height="56" fill="#F0F3FA"/>
<path d="M12.4963 41H17.3007C16.7824 40.6773 15.7459 39.797 15.7459 39.0345C15.7459 38.2719 16.0311 37.5733 16.1737 37.3193L27.5916 17.1029L25.8715 16.8563L20.7705 20.8318L12.0768 36.2302C11.7312 36.8795 11 37.899 11 38.8273C11 40.3745 11.9975 40.9351 12.4963 41Z" fill="url(#paint0_linear_229_26924)"/>
<path d="M23.2102 16.38L20.4404 21.4379C23.9759 17.9672 26.5841 17.4946 27.4462 17.6921C26.9167 16.2742 25.878 15.2795 24.8394 15.2795C24.0085 15.2795 23.407 16.0132 23.2102 16.38Z" fill="#911E45"/>
<path d="M25.4882 12.1237L23.3665 16.1214C25.2706 14.6189 26.8066 16.4618 27.347 17.6019L35.4036 32H40.1749L29.1169 12.2985C28.9407 11.8657 28.3335 11 27.3146 11C26.2957 11 25.6725 11.7492 25.4882 12.1237Z" fill="url(#paint1_linear_229_26924)"/>
<path d="M42.8652 37H26.2041L26.8141 41H45.0003L42.8652 37Z" fill="url(#paint2_linear_229_26924)"/>
<path d="M26.9068 38.3417C26.2001 37.836 26.3613 36.5256 26.5303 35.9337C26.0958 36.3601 25.2036 37.246 25.1109 37.3785C24.9951 37.544 24.6764 38.8083 24.6909 38.8986C24.7025 38.9708 25.8641 40.3479 26.4434 41H32.3526C30.8318 40.3428 27.6136 38.8474 26.9068 38.3417Z" fill="#471433"/>
<path d="M21.2599 37.4512L27.4214 26.3557L29.7423 30.7341C28.3414 32.809 25.5395 37.2902 25.5395 38.6155C25.5395 39.9408 26.6184 40.7573 27.1578 41H22.8342C21.4332 41 20.8535 39.6697 20.8535 38.9669C20.8535 38.4046 21.1244 37.7222 21.2599 37.4512Z" fill="url(#paint3_linear_229_26924)"/>
<defs>
<linearGradient id="paint0_linear_229_26924" x1="19.2958" y1="16.8563" x2="19.2958" y2="40.9558" gradientUnits="userSpaceOnUse">
<stop stop-color="#D42C4F"/>
<stop offset="1" stop-color="#FF5037"/>
</linearGradient>
<linearGradient id="paint1_linear_229_26924" x1="31.6968" y1="11" x2="31.6968" y2="31.925" gradientUnits="userSpaceOnUse">
<stop stop-color="#E96429"/>
<stop offset="1" stop-color="#E2D227"/>
</linearGradient>
<linearGradient id="paint2_linear_229_26924" x1="28.6823" y1="39" x2="42.2915" y2="38.4804" gradientUnits="userSpaceOnUse">
<stop stop-color="#803379"/>
<stop offset="1" stop-color="#914F8C"/>
</linearGradient>
<linearGradient id="paint3_linear_229_26924" x1="25.2979" y1="26.3557" x2="25.2979" y2="41" gradientUnits="userSpaceOnUse">
<stop stop-color="#9C2368"/>
<stop offset="1" stop-color="#CF0E61"/>
</linearGradient>
</defs>
</svg>
