<!-- by TradingView --><svg width="56" height="56" viewBox="0 0 56 56" xmlns="http://www.w3.org/2000/svg"><path fill="#1C468C" d="M0 0h56v56H0z"/><path fill-rule="evenodd" d="M15.14 24.6a4.01 4.01 0 0 0-1.54-.84L18.8 17h18.03l5.3 6.86a3.7 3.7 0 0 0-1.23 1l-4.82-6.15H19.55l-4.41 5.9Zm-4.1.08v1.2a5.4 5.4 0 0 1 1.78-.4c.81 0 .94.7-.2.88-1.15.18-2 .83-2 2.09 0 1.26 1.2 1.55 1.92 1.55.57 0 1.23-.5 1.49-.76.07.13.35.44.9.66l.76-1.22c-.17-.1-.51-.44-.51-1.05v-1.76c-.04-.62-.52-1.87-2.2-1.87-1.02 0-1.72.45-1.94.68Zm2.6 2.59c.07.41 0 1.23-.72 1.23-.9 0-.56-1.3.72-1.23ZM6 35h14.55l2.1-3.92a19.9 19.9 0 0 1-1.32-.8l-1.68 3.15H8.89l2.26-3.16a5.5 5.5 0 0 1-1.02-1.22L6 35Zm44 0H35.45l-1.43-2.8c.33-.2 1.07-.62 1.33-.81l1 2.04h10.76l-2.61-3.3c.78-.2 1.28-.37 1.43-.71L50 35Zm-28.43-9.13v-1.2c.22-.22.91-.67 1.93-.67 1.68 0 2.17 1.25 2.2 1.87v1.76c0 .61.34.96.51 1.05l-.76 1.22a1.82 1.82 0 0 1-.9-.66c-.25.26-.91.76-1.49.76-.72 0-1.91-.3-1.91-1.55 0-1.26.84-1.91 1.99-2.1 1.14-.17 1.02-.88.2-.88-.64 0-1.45.27-1.77.4Zm2.6 1.4c.06.41 0 1.23-.72 1.23-.91 0-.56-1.3.72-1.23ZM20.65 30v-8h-1.63v2h-.58c-1.49 0-2.7 1.48-2.7 2.98v.3a2.7 2.7 0 0 0 2.7 2.72h2.2Zm-3.17-2.88c0-.7.55-1.25 1.23-1.25H19v2.5h-.29c-.68 0-1.23-.56-1.23-1.25Zm20.01.42h2.94c.07-1.18-.27-3.54-2.27-3.54-2.5 0-2.53 2.97-2.53 3.26 0 .28.38 2.74 2.84 2.74 1.03 0 1.73-.53 1.96-.8v-1.25h-.4c-.19.18-.78.53-1.56.53s-.98-.62-.98-.94Zm-.1-1.43h1.59a.82.82 0 0 0-.8-.6.8.8 0 0 0-.79.6Zm8.19 1.43h-2.93c0 .32.2.94.97.94a2.5 2.5 0 0 0 1.57-.53h.39v1.25c-.22.27-.92.8-1.96.8-2.46 0-2.83-2.46-2.83-2.74 0-.3.02-3.26 2.52-3.26 2 0 2.35 2.36 2.27 3.54Zm-1.45-1.43h-1.58c.04-.2.26-.6.78-.6s.75.4.8.6ZM26.3 24H28v.6c.32-.27.86-.6 1.45-.6.45 0 .72.28.89.65a2.4 2.4 0 0 1 1.5-.65c.94 0 1.16 1.22 1.16 1.98V30h-1.7v-3.7c0-.15-.08-.42-.41-.42a.45.45 0 0 0-.33.15V30H29v-3.7c0-.15-.16-.42-.5-.42-.25 0-.42.23-.5.43V30h-1.7v-6Zm7.3 0h1.79v6.53a2.3 2.3 0 0 1-1.54 1.43l-.9-1.1c.22-.1.64-.46.64-.97V24Zm1.77-2a1 1 0 1 1-2 0 1 1 0 0 1 2 0Zm-4.34 1h-6.32l1.88-3.62h2.47s1.31 2.33 1.97 3.62Zm-2.35-1.18h-1.63l.49-1h.64l.5 1Z" fill="#fff"/></svg>