<!-- by TradingView --><svg width="18" height="18" viewBox="0 0 18 18" xmlns="http://www.w3.org/2000/svg"><path fill="#F0F3FA" d="M0 0h18v18H0z"/><path fill="#2C15F9" d="M3 6.27h12v5.43H3z"/><path fill-rule="evenodd" d="M15 6H3v6h12V6Zm-.3.33H3.3v5.34h11.4V6.33Z" fill="#F60321"/><path fill-rule="evenodd" d="M5 10h.87v-.11H5.5l.25-.4h1.24l.23.4h-.3V10h1.13v-.11H7.7L6.56 8h-.12L5.3 9.89H5V10Zm1.9-.67-.5-.87-.55.87H6.9Zm1.33.67h2.08l.28-.56h-.15c-.07.15-.28.47-.6.47h-.92v-.88h.84c.11 0 .2.08.2.18v.1h.1v-.64h-.1v.05c0 .1-.09.17-.2.17h-.84v-.77h1.01c.1.01.3.1.33.32h.12L10.3 8H8.23v.12h.22c.11 0 .21.08.21.18v1.43c0 .1-.1.18-.21.18h-.22V10Zm2.38-1.89V8h1.07v.11h-.18c-.15 0-.23.11-.23.24v1.36c0 .1.18.18.29.18h.88c.13-.02.4-.15.45-.47H13l-.23.58H10.6v-.1h.2a.2.2 0 0 0 .2-.19V8.35c0-.13-.11-.24-.26-.24h-.14Z" fill="#F8F8FF"/></svg>