<!-- by TradingView --><svg width="18" height="18" viewBox="0 0 18 18" xmlns="http://www.w3.org/2000/svg"><path fill="#F0F3FA" d="M0 0h18v18H0z"/><circle cx="9" cy="9" r="5" fill="url(#ah44rujqu)"/><path d="M13.89 10.05a5 5 0 0 1-9.15-3.66 5 5 0 1 0 9.15 3.66Z" fill="#2F5D2E"/><path d="M9.78 9.78c-1.25 1-1.67 2.92-1.72 3.75.78.05 2.66-.1 3.9-1.1 1.57-1.24 1.41-2.96 1.41-3.12 0-.15.32-.62.32-.78 0-.16-.47.16-.78.16-.32 0-1.57-.16-3.13 1.1Z" fill="url(#bh44rujqu)"/><path d="M8.06 13.53c1.4-1.14 3.97-4.34 2.97-7.97-.26 1.57-1.22 5.35-2.97 7.97Z" fill="#C4DEC1"/><path d="M12.13 5.56c.26 2.03-.16 6.44-3.91 7.82 1.1-.94 3.4-3.82 3.9-7.82Z" fill="url(#ch44rujqu)"/><defs><linearGradient id="ah44rujqu" x1="14" y1="9.47" x2="4.78" y2="11.03" gradientUnits="userSpaceOnUse"><stop stop-color="#ECF3EB"/><stop offset=".25" stop-color="#4B7648"/><stop offset="1" stop-color="#82C13F"/></linearGradient><linearGradient id="bh44rujqu" x1="12.59" y1="8.84" x2="9.16" y2="13.38" gradientUnits="userSpaceOnUse"><stop stop-color="#B0D1A2"/><stop offset=".3" stop-color="#32823B"/><stop offset="1" stop-color="#307E44"/></linearGradient><linearGradient id="ch44rujqu" x1="12.13" y1="6.03" x2="8.53" y2="13.22" gradientUnits="userSpaceOnUse"><stop stop-color="#83C348"/><stop offset="1" stop-color="#71A47B"/></linearGradient></defs></svg>