<!-- by TradingView --><svg width="56" height="56" viewBox="0 0 56 56" xmlns="http://www.w3.org/2000/svg"><path fill="#F0F3FA" d="M0 0h56v56H0z"/><path d="M11 33h3.86c-.25-.24-.77-1-.77-2.15s2.58-7.65 3.86-10.52l8.7 13.14-.13.19C25.46 35.14 23 38.75 23 40.33c0 2.03 1.8 3.67 4 3.67s4-1.64 4-3.67c0-1.58-2.46-5.19-3.52-6.67l-.12-.17 9.14-13.16 5.4 10.52c.27.72.47 2.15-.76 2.15H45c-.52-.24-.93-1-1.55-2.15-.61-1.15-4.89-9.09-6.95-12.68L27 32.57l-9.05-14.4-5.4 12.68c-.26.72-.93 2.15-1.55 2.15Zm19.2 7.33c0 1.62-1.43 2.94-3.2 2.94-1.77 0-3.2-1.32-3.2-2.94 0-.34.18-.92.56-1.7.36-.75.84-1.58 1.33-2.35.47-.75.95-1.44 1.31-1.95.36.51.84 1.2 1.3 1.95.5.77.98 1.6 1.34 2.35.38.78.56 1.36.56 1.7Z" fill="#051D41"/><ellipse cx="27" cy="39.5" rx="1" ry="1.5" fill="#BD3414"/><path d="M19 38h-3l.75-2.13L27.25 11c3.75 8.29 10.23 23.65 10.5 24.16.75 1.42 1.75 2.6 2.25 2.84h-4.5c1.2-1.14 1-1.9.75-2.13L26.5 14.55c-2.75 6.63-8.25 20.18-8.25 21.32 0 1.14.5 1.9.75 2.13Z" fill="#051D41"/></svg>