<!-- by TradingView --><svg width="18" height="18" viewBox="0 0 18 18" fill="none" xmlns="http://www.w3.org/2000/svg">
<rect width="18" height="18" fill="#3449BC"/>
<path fill-rule="evenodd" clip-rule="evenodd" d="M3.12989 7L2 11H2.7L3.02418 9.8H4.47564L4.8 11H5.5L4.37051 7H3.12989ZM4.25939 9H3.24029L3.74969 7.11435L4.25939 9ZM6 7.8V7H9V7.82262L6.90193 10.2H9V11H6V10.1979L8.13335 7.8H6ZM12.5 8.36691C12.3203 8.4431 11.9562 8.59661 11.9377 8.60118C11.8141 8.30851 11.4245 7.8 10.8547 7.8C9.77159 7.8 9.6757 8.67341 9.6757 9C9.6757 9.32659 9.84077 10.2 10.8547 10.2C11.6626 10.2 11.9323 9.99817 12.0765 9.80235H10.6893V9H12.3799V10.3706C12.204 10.5804 11.6371 11 10.7768 11C9.34734 11 9 9.57143 9 9C9 8.29948 9.30726 7 10.7768 7C11.9524 7 12.4154 7.91127 12.5 8.36691ZM13.4743 9.79191L13 10.1515C13.1466 10.4344 13.6355 11 14.4187 11C15.5912 11 16 9.79191 16 9.08494C16 8.37798 15.8655 7 14.4671 7C13.3483 7 13.0507 7.77247 13.0417 8.20748C13.0278 8.6826 13.2517 9.73039 14.2587 9.73039C15.2657 9.73039 15.5003 8.85714 15.4916 8.42051C15.6353 9.74875 14.9606 10.2199 14.3794 10.2199C13.9145 10.2199 13.5823 9.96134 13.4743 9.79191ZM15.3974 8.40865C15.3974 8.74209 15.0001 9.01239 14.51 9.01239C14.02 9.01239 13.6227 8.74209 13.6227 8.40865C13.6227 8.07522 14.02 7.80491 14.51 7.80491C15.0001 7.80491 15.3974 8.07522 15.3974 8.40865Z" fill="#2EF5CF"/>
</svg>
