<!-- by TradingView --><svg width="56" height="56" viewBox="0 0 56 56" xmlns="http://www.w3.org/2000/svg"><path fill="#F0F3FA" d="M0 0h56v56H0z"/><path d="M10 35.84c0-5.1 6.8-8.68 10-9.84-1.62 1.3-5 4.57-5 7.35 0 1.85 1.51 2.61 3 2.65.73.02 1.46-.09 2-.23v2.57A8.87 8.87 0 0 1 15.26 40C12.11 40 10 38.06 10 35.84Z" fill="#00863E"/><path d="M11 23.77v-5.32c1.85-.81 6.6-2.45 10.83-2.45 4.1 0 6.16 1.98 6.87 4.79 2.25-1.91 6.32-4.79 9.2-4.79 4 0 6.1 3.31 6.1 5.44V33.5c0 1 .32 2.5 1.4 2.5a3.3 3.3 0 0 0 1.6-.53v2.94A6.28 6.28 0 0 1 43.25 40c-2.01 0-5.25-.66-5.25-8.09V22c-.04-.66-.8-1.99-3.06-1.99-1.8 0-4.3 1.89-5.94 3.3v13.76a3 3 0 0 1-6 0V25c.05-1.45-.44-4-3.47-4-3.04 0-7.09 1.73-8.53 2.77Z" fill="#251760"/></svg>