<!-- by TradingView --><svg width="18" height="18" viewBox="0 0 18 18" xmlns="http://www.w3.org/2000/svg"><path fill="#F0F3FA" d="M0 0h18v18H0z"/><path d="M9 13c3.31 0 6-1.8 6-4s-2.69-4-6-4-6 1.8-6 4c0 .64.22 1.24.62 1.77-.73-2.47 1.7-4.2 3.28-4.85-2.92 1.69-3.25 3.83-2.89 5.3.52.52 1.21.95 2.02 1.26 1.85.33 5.02.11 7.92-2.56a6.26 6.26 0 0 1-5.5 3.06L9 13Z" fill="#E2EF3F"/><path fill-rule="evenodd" d="M6.3 11.15H4.8c2.1-4.77 5.85-5.23 6.45-5.23.48 0 .7.2.75.31.3 0 .9.06.9.3 0 .25-.2.73-.3.93 0-.24-.2-.3-.3-.3-1.33 0-1.74.6-1.8.98.63.1 1.02.26 1.2.4v.77c-.33-.21-.7-.35-1.07-.45.53 1.5 2.56 2.05 3.62 2.14v.15c-4.1.25-5.16-1.06-5.07-2.43-.63.02-1.23.13-1.7.25-.51.78-.93 1.6-1.18 2.18Zm3.6-4.3a4.4 4.4 0 0 0-.6 1.24c-.39.01-.81.05-1.28.13.59-.74 1.24-1.32 1.88-1.37Zm1.5-.31c.17 0 .3-.07.3-.16 0-.08-.13-.15-.3-.15-.17 0-.3.07-.3.15 0 .09.13.16.3.16Z" fill="#FB2531"/></svg>