<!-- by TradingView --><svg width="56" height="56" viewBox="0 0 56 56" xmlns="http://www.w3.org/2000/svg"><path fill="#3D507B" d="M0 0h56v56H0z"/><path fill-rule="evenodd" d="M6.5 33H4l5-11 5 11h-2.5l-.87-2H7.3l-.8 2ZM9 26l1.19 3H7.8L9 26Zm26.5 7H33l5-11 5 11h-2.5l-.87-2H36.3l-.8 2Zm2.5-7 1.19 3H36.8l1.2-3Z" fill="#fff"/><path d="M15 33h2v-4h2.03l2.26 4H24l-2.83-4.83v-.08c1.25-.45 1.83-1.3 1.83-2.82 0-2.2-1.21-3.27-3.9-3.27H15v11Zm1.98-6v-3h2.06c1.4 0 1.96.31 1.96 1.5 0 1.2-.55 1.5-1.95 1.5h-2.07ZM25 33h2v-4h2.5c2.5 0 3.45-1.75 3.5-3.5.05-1.75-.82-3.5-3.6-3.5H25v11Zm2-6v-3h2.14c1.3 0 1.86.12 1.86 1.5 0 1.27-.52 1.5-1.89 1.5H27Zm17 6h2V22h-2v11Zm8 0h-2.5c-1.2-1.84-2.3-3.73-3.5-5.56 1.2-1.82 2.3-3.63 3.5-5.44l2.3.02-3.3 5.42c1.26 1.93 2.26 3.62 3.5 5.56Z" fill="#fff"/></svg>