<!-- by TradingView --><svg width="18" height="18" viewBox="0 0 18 18" xmlns="http://www.w3.org/2000/svg"><path fill="#F0F3FA" d="M0 0h18v18H0z"/><path d="M7.53 8.57 4.7 5.34c.9-.65 1.62-.72 1.87-.67l1.59 3.57-.63.33Z" fill="url(#aesbqgrao)"/><path d="M13.88 7.88a15.45 15.45 0 0 0-3.12-2.16L10 8.52l1.01.84 2.86-1.48Z" fill="url(#besbqgrao)"/><path d="M3.35 6.46c.14-.04.3.12.4.17l2.83 2.34-.09.42a87.07 87.07 0 0 0-2.91-1.32c-.26-.09-.62-.27-.58-.52.04-.25.22-1.04.35-1.09Z" fill="#95CDEF"/><path d="M7.02 9.42 3.47 7.75c.05-.95.45-1.5.65-1.66l3.14 2.85a.78.78 0 0 0-.24.48Z" fill="url(#cesbqgrao)"/><path d="m8.26 8.78-2.2-4.69c2.51-.48 5.48 1.02 6.73 1.92l-2.7 3.36a2.5 2.5 0 0 0-1.83-.6Z" fill="url(#desbqgrao)"/><path d="m12.28 6.64-1.81 2.27-.46-.38.75-2.8c.35.19.93.52 1.52.91Z" fill="url(#eesbqgrao)"/><path d="M11.6 8.5 9.9 9.96l.45.46 2.66-.2c-.21-.71-.54-1.03-.75-1.33-.16-.24-.5-.37-.66-.4Z" fill="url(#fesbqgrao)"/><path d="m10.95 11.03-.26-.75 3.93-.82c.07.13.25.55.35 1.18.1.64-.12 1.16-.25 1.34l-3.77-.95Z" fill="url(#gesbqgrao)"/><path d="m12.86 9.83-2.17.45.04.12 2.28-.18a3.3 3.3 0 0 0-.15-.4Z" fill="#66A820"/><path d="M12.15 8.77a1.37 1.37 0 0 0-.55-.28l-.79.7.21.17 1.13-.59Z" fill="#6FB8D4"/><path d="m10.15 13.8-.8-2.13.72-.37L12 13.15c-.45.54-1.43.66-1.86.66Z" fill="url(#hesbqgrao)"/><path d="m10.64 11.4-.36.3L12.7 14c.91-.27 1.4-.96 1.52-1.27l-3.58-1.34Z" fill="url(#iesbqgrao)"/><defs><linearGradient id="aesbqgrao" x1="5.84" y1="6.48" x2="6.9" y2="5.99" gradientUnits="userSpaceOnUse"><stop offset=".4" stop-color="#02A4AB"/><stop offset="1" stop-color="#6CC66A"/></linearGradient><linearGradient id="besbqgrao" x1="10.76" y1="8.95" x2="13.51" y2="8.59" gradientUnits="userSpaceOnUse"><stop stop-color="#DFECB8"/><stop offset="1" stop-color="#079FD7"/></linearGradient><linearGradient id="cesbqgrao" x1="4.51" y1="8.12" x2="5.08" y2="7.34" gradientUnits="userSpaceOnUse"><stop stop-color="#1A8FCE"/><stop offset="1" stop-color="#25B6D7"/></linearGradient><linearGradient id="desbqgrao" x1="6.4" y1="5.11" x2="12.11" y2="5.94" gradientUnits="userSpaceOnUse"><stop stop-color="#149E42"/><stop offset="1" stop-color="#D5E532"/></linearGradient><linearGradient id="eesbqgrao" x1="10.28" y1="8.34" x2="12.31" y2="7.48" gradientUnits="userSpaceOnUse"><stop stop-color="#AFC363"/><stop offset="1" stop-color="#128758"/></linearGradient><linearGradient id="fesbqgrao" x1="10.24" y1="9.91" x2="12.45" y2="9.85" gradientUnits="userSpaceOnUse"><stop stop-color="#85DBEC"/><stop offset="1" stop-color="#9DD6E6"/></linearGradient><linearGradient id="gesbqgrao" x1="11.2" y1="10.66" x2="14.82" y2="10.72" gradientUnits="userSpaceOnUse"><stop stop-color="#DFDE14"/><stop offset="1" stop-color="#78A627"/></linearGradient><linearGradient id="hesbqgrao" x1="9.82" y1="12.47" x2="11.96" y2="13.12" gradientUnits="userSpaceOnUse"><stop offset=".36" stop-color="#37A62C"/><stop offset=".92" stop-color="#37A62C" stop-opacity="0"/></linearGradient><linearGradient id="iesbqgrao" x1="10.33" y1="11.76" x2="13.54" y2="11.73" gradientUnits="userSpaceOnUse"><stop stop-color="#BAD00E"/><stop offset="1" stop-color="#279D2F"/></linearGradient></defs></svg>