<!-- by TradingView --><svg width="56" height="56" viewBox="0 0 56 56" fill="none" xmlns="http://www.w3.org/2000/svg">
<rect width="56" height="56" fill="#F0F3FA"/>
<path d="M4.56238 23.7L4 23H51.925L51.4662 23.7H4.56238Z" fill="#E30613"/>
<path fill-rule="evenodd" clip-rule="evenodd" d="M25.1899 29H27.0829V28.6766H26.7196C26.5889 28.6678 26.3735 28.5385 26.5571 28.0909C26.6076 27.9677 26.6965 27.7523 26.8056 27.4887V27.5H28.6492L28.8803 28.0909C28.9887 28.2861 29.1021 28.6766 28.6891 28.6766H28.4979V29H30.7351V28.6766H30.3336C30.2316 28.6037 29.9664 28.3077 29.7217 27.7063C29.4769 27.1049 28.6317 24.9848 28.2398 24H27.9242L26.0981 28.0909C26.0185 28.2861 25.7367 28.6766 25.2472 28.6766H25.1899V29ZM28.4537 27L27.7522 25.2063C27.5694 25.6464 27.268 26.3726 27.008 27H28.4537ZM4 29H5.89304V28.6766H5.52973C5.39906 28.6678 5.18363 28.5385 5.36719 28.0909C5.41992 27.9624 5.51438 27.7337 5.62989 27.4545H7.44159L7.69047 28.0909C7.79883 28.2861 7.91228 28.6766 7.49925 28.6766H7.30804V29H9.54527V28.6766H9.14371C9.04173 28.6037 8.77658 28.3077 8.53182 27.7063C8.28707 27.1049 7.44189 24.9849 7.0499 24H6.73439L4.90827 28.0909C4.8286 28.2861 4.54688 28.6766 4.05736 28.6766H4V29ZM7.26382 27L6.5623 25.2063C6.3795 25.6464 6.0781 26.3726 5.81814 27H7.26382ZM10.2875 24.2991V24H12.7123V24.2991H12.249C12.1194 24.2991 12 24.3969 12 24.5175V28.4055C12 28.5262 12.1194 28.6239 12.249 28.6239H13.2359C13.5053 28.5755 14.0736 28.3111 14.1911 27.641H14.5126L14.1911 29H10.2875V28.7094H10.7968C10.9264 28.7094 11 28.6116 11 28.491V24.5175C11 24.3969 10.9264 24.2991 10.7968 24.2991H10.2875ZM15.4649 27.45L15.0868 27.4832L15.2852 28.6075C15.4088 28.7384 15.8553 29 16.653 29C17.6501 29 18.6383 28.3878 18.6383 27.5636C18.6383 26.8145 17.8584 26.4285 17.2526 26.1287C17.1918 26.0986 17.1328 26.0694 17.0765 26.0408C16.4588 25.7268 16.0529 25.4207 16.0529 25.0518C16.0529 24.6829 16.2823 24.2826 16.9883 24.2826C17.553 24.2826 17.9648 24.9472 18.1001 25.2794L18.356 25.2402L18.2501 24.2826C18.0648 24.1884 17.5706 24 17.0765 24C16.4588 24 15.2235 24.2669 15.2235 25.2402C15.2235 26.2135 16.1853 26.7316 16.9177 26.9984C17.5036 27.2119 17.6795 27.6421 17.6942 27.8305C17.7118 28.1078 17.5371 28.6625 16.6971 28.6625C15.7017 28.6625 15.4609 27.8542 15.4649 27.45ZM19.2126 24.308V24H21.5789V24.308H21.327C21.0677 24.308 21 24.5016 21 24.7404V26H23V24.7404C23 24.5016 22.8807 24.308 22.6215 24.308H22.3316V24H24.6979V24.308H24.446C24.1867 24.308 24 24.5016 24 24.7404V28.2233C24 28.4621 24.1867 28.6557 24.446 28.6557H24.6979V29H22.3316V28.6557H22.6215C22.8807 28.6557 23 28.4621 23 28.2233V26.5H21V28.2233C21 28.4621 21.0677 28.6557 21.327 28.6557H21.5789V29H19.2126V28.6557H19.5025C19.7617 28.6557 20 28.4621 20 28.2233V24.7404C20 24.5016 19.7617 24.308 19.5025 24.308H19.2126ZM31.1884 24V24.308H31.4783C31.7375 24.308 32 24.5016 32 24.7404V28.2233C32 28.4621 31.7375 28.6557 31.4783 28.6557H31.1884V29H33.5547V28.6557H33.3028C33.0435 28.6557 33 28.4621 33 28.2233V26.5H35V28.2233C35 28.4621 34.8565 28.6557 34.5973 28.6557H34.3074V29H36.6738V28.6557H36.4218C36.1626 28.6557 36 28.4621 36 28.2233V24.7404C36 24.5016 36.1626 24.308 36.4218 24.308H36.6738V24H34.3074V24.308H34.5973C34.8565 24.308 35 24.5016 35 24.7404V26H33V24.7404C33 24.5016 33.0436 24.308 33.3028 24.308H33.5547V24H31.1884ZM37.3156 24V24.3308H37.7933C37.9229 24.3308 38 24.4283 38 24.5487V28.4282C38 28.5486 37.9229 28.6462 37.7933 28.6462H37.3156V29H41.3496L41.6312 27.7H41.3082C41.1558 28.3954 40.6593 28.6205 40.4301 28.6462H39.1573C39.0277 28.6462 39 28.5486 39 28.4282V26.607H39.9949C40.2541 26.607 40.4643 26.8021 40.4643 27.0429V27.2472H40.7754V25.6382H40.4643V25.8425C40.4643 26.0832 40.2541 26.2784 39.9949 26.2784H39V24.5487C39 24.4283 39.0277 24.3308 39.1573 24.3308H40.0823C40.6124 24.3308 40.894 24.8949 40.9686 25.1769H41.2253L41.1508 24H37.3156ZM42.3156 24.3308V24H46.1508L46.2253 25.1769H45.9686C45.894 24.8949 45.6124 24.3308 45.0823 24.3308H44.1573C44.0277 24.3308 44 24.4283 44 24.5487V26.2784H44.9949C45.2541 26.2784 45.4643 26.0832 45.4643 25.8425V25.6382H45.7754V27.2472H45.4643V27.0429C45.4643 26.8021 45.2541 26.607 44.9949 26.607H44V28.4282C44 28.5486 44.0277 28.6462 44.1573 28.6462H45.4301C45.6593 28.6205 46.1558 28.3954 46.3082 27.7H46.6312L46.3496 29H42.3156V28.6462H42.7933C42.9229 28.6462 43 28.5486 43 28.4282V24.5487C43 24.4283 42.9229 24.3308 42.7933 24.3308H42.3156ZM47.2774 24.3581V24H49.8596C50.3104 24.0128 51.212 24.2992 51.212 25.3427C51.212 26.0733 50.6902 26.4529 50.1554 26.6454C50.3632 26.7707 50.6563 27.2577 50.9137 27.6854C51.0751 27.9535 51.2224 28.1983 51.326 28.3163C51.5494 28.5708 51.8684 28.7325 52 28.7816V28.9999H51.0805C50.3783 28.7026 49.8634 27.7462 49.628 27.3089L49.6277 27.3083C49.6002 27.2572 49.5765 27.2132 49.5568 27.1782C49.4461 26.9818 49.2428 26.8788 49.0864 26.8325H49.0018V28.2719C49.0018 28.5116 49.1975 28.7059 49.4389 28.7059H49.6522V29H47.2774V28.7059H47.5335C47.7749 28.7059 48 28.5116 48 28.2719V24.6835C48 24.5038 47.8238 24.3581 47.6428 24.3581H47.2774ZM48.9978 26.5176V24.6182C49.0067 24.5296 49.0997 24.3525 49.4 24.3525C49.7753 24.3525 50.3987 24.6049 50.3987 25.4616C50.3987 26.2798 49.7954 26.5065 49.4938 26.5176H48.9978Z" fill="#E30613"/>
<path fill-rule="evenodd" clip-rule="evenodd" d="M21.6751 29.2421V29H23.558V29.7922H23.3984V29.6466C23.3984 29.4232 23.2408 29.2421 23.0464 29.2421H22.4665V30.4428H22.9708C23.1004 30.4428 23.2054 30.322 23.2054 30.1731V30.0731H23.3663V31.0037H23.2054V30.9101C23.2054 30.7611 23.1004 30.6404 22.9708 30.6404H22.4665V31.5323C22.4665 31.6812 22.5716 31.802 22.7012 31.802H22.8303V32H21.6751V31.802H21.7978C21.9274 31.802 22.0002 31.6812 22.0002 31.5323V29.3769C22.0002 29.3024 21.98 29.2421 21.9152 29.2421H21.6751ZM25.0258 32C25.7808 32 26.3928 31.3285 26.3928 30.5C26.3928 29.6716 25.7808 29 25.0258 29C24.2709 29 23.6589 29.6716 23.6589 30.5C23.6589 31.3285 24.2709 32 25.0258 32ZM25.0939 31.7599C25.5633 31.7248 25.9084 31.1269 25.8648 30.4244C25.8212 29.722 25.4053 29.181 24.9359 29.2161C24.4665 29.2512 24.1213 29.8491 24.1649 30.5516C24.2086 31.254 24.6245 31.795 25.0939 31.7599ZM29.5587 30.5C29.5587 31.3285 28.9467 32 28.1918 32C27.4369 32 26.8249 31.3285 26.8249 30.5C26.8249 29.6716 27.4369 29 28.1918 29C28.9467 29 29.5587 29.6716 29.5587 30.5ZM29.0308 30.4244C29.0744 31.1269 28.7292 31.7248 28.2598 31.7599C27.7904 31.795 27.3745 31.254 27.3309 30.5516C27.2873 29.8491 27.6324 29.2512 28.1018 29.2161C28.5712 29.181 28.9871 29.722 29.0308 30.4244ZM29.6357 29.2128V29H31.0405C31.7759 29 32.372 29.6716 32.372 30.5C32.372 31.3284 31.7759 32 31.0405 32H29.6357V31.746H29.7545C29.8841 31.746 30.0002 31.6276 30.0002 31.4816V29.4772C30.0002 29.3312 29.8841 29.2128 29.7545 29.2128H29.6357ZM30.4402 31.6087V29.3775C30.4544 29.3226 30.5267 29.2128 30.7022 29.2128C30.9216 29.2128 31.8296 29.2402 31.8296 30.5583C31.8296 31.4782 31.0374 31.7391 30.7632 31.7391C30.5438 31.7391 30.4564 31.6521 30.4402 31.6087ZM32.8127 31.0917H33.0606C33.1002 31.3335 33.2765 31.8171 33.6649 31.8171C34.1365 31.8171 34.1353 31.4641 34.1349 31.3296L34.1349 31.3184C34.1349 31.1937 34.0729 31.0124 33.763 30.865C33.4531 30.7176 32.9263 30.4513 32.9263 29.8562C32.9263 29.2611 33.4325 29.0401 33.8147 29.0401C34.1204 29.0401 34.3208 29.1459 34.3828 29.1988L34.4499 29.7995H34.3053C34.276 29.6106 34.1266 29.2328 33.763 29.2328C33.3257 29.2328 33.3283 29.6212 33.3291 29.7414L33.3292 29.7542C33.3292 29.8562 33.5358 30.1226 33.9438 30.3096C34.3518 30.4966 34.5739 30.8537 34.5739 31.188C34.5739 31.5224 34.3466 31.9985 33.6649 31.9985C33.1195 31.9985 32.9453 31.7756 32.9263 31.6641L32.8127 31.0917ZM4.58686 31.3L4.08496 32H21.081L20.6078 31.3H4.58686ZM34.5738 32L35.0862 31.3H51.4421L51.9252 32H34.5738Z" fill="black"/>
</svg>
