<!-- by TradingView --><svg width="56" height="56" viewBox="0 0 56 56" fill="none" xmlns="http://www.w3.org/2000/svg">
<rect width="56" height="56" fill="#F0F3FA"/>
<path d="M18.2997 25.0443L27.489 30.847C27.8126 31.0513 28.216 31.051 28.5394 30.8463L37.701 25.0438C38.1002 24.791 38.0995 24.1785 37.6998 23.9266L28.5374 18.1526C28.2151 17.9494 27.8136 17.9492 27.491 18.1519L18.3009 23.9262C17.9002 24.1779 17.8996 24.7916 18.2997 25.0443Z" fill="url(#paint0_linear_229_27332)"/>
<path fill-rule="evenodd" clip-rule="evenodd" d="M10.1217 28.7169C12.9938 31.1345 19.9857 35.3859 28 35.3859V38.996C23.8043 39.089 13.9228 37.6087 7.18638 31.048C6.90367 30.7727 6.95005 30.3121 7.27485 30.0872L9.31498 28.6747C9.56203 28.5036 9.892 28.5235 10.1217 28.7169ZM45.8783 28.7169C43.0062 31.1345 36.0143 35.3859 28 35.3859V38.996C32.1958 39.089 42.0772 37.6087 48.8137 31.048C49.0964 30.7727 49.05 30.3121 48.7252 30.0872L46.6851 28.6747C46.438 28.5036 46.108 28.5235 45.8783 28.7169Z" fill="url(#paint1_linear_229_27332)"/>
<defs>
<linearGradient id="paint0_linear_229_27332" x1="19.3293" y1="24.8226" x2="36.6208" y2="24.5348" gradientUnits="userSpaceOnUse">
<stop stop-color="#0792D1"/>
<stop offset="1" stop-color="#416CAC"/>
</linearGradient>
<linearGradient id="paint1_linear_229_27332" x1="8.26804" y1="30.6296" x2="46.4963" y2="30.0749" gradientUnits="userSpaceOnUse">
<stop stop-color="#0096D5"/>
<stop offset="1" stop-color="#3D4187"/>
</linearGradient>
</defs>
</svg>
