<!-- by TradingView --><svg width="18" height="18" viewBox="0 0 18 18" fill="none" xmlns="http://www.w3.org/2000/svg">
<rect width="18" height="18" fill="#FBB215"/>
<path d="M13.673 9.35718H4.33984C4.45642 9.53212 4.70049 9.88713 4.74421 9.90761C4.78792 9.9281 7.46547 11.9301 8.79878 12.9286L10.9517 12.5958L13.673 9.35718Z" fill="black"/>
<path d="M6.00304 7.28674L5.05078 8.4564L8.99961 10.6679V8.87905L6.00304 7.28674Z" fill="url(#paint0_linear_229_28764)"/>
<path d="M8.9996 7.94115L6.75684 6.55237L8.9996 4V7.94115Z" fill="url(#paint1_linear_229_28764)"/>
<path d="M4.3207 9.35718L3 10.7171L9 14V11.5624L4.3207 9.35718Z" fill="url(#paint2_linear_229_28764)"/>
<path d="M11.997 7.28674L12.9492 8.4564L9.00039 10.6679V8.87905L11.997 7.28674Z" fill="url(#paint3_linear_229_28764)"/>
<path d="M9.0004 7.94115L11.2432 6.55237L9.0004 4V7.94115Z" fill="url(#paint4_linear_229_28764)"/>
<path d="M13.6793 9.35718L15 10.7171L9 14V11.5624L13.6793 9.35718Z" fill="url(#paint5_linear_229_28764)"/>
<defs>
<linearGradient id="paint0_linear_229_28764" x1="5.1032" y1="8.30896" x2="8.89477" y2="8.30896" gradientUnits="userSpaceOnUse">
<stop stop-color="#EAEBEC"/>
<stop offset="1" stop-color="#626366"/>
</linearGradient>
<linearGradient id="paint1_linear_229_28764" x1="7.04048" y1="6.27019" x2="8.87863" y2="6.27019" gradientUnits="userSpaceOnUse">
<stop stop-color="#C7C8CA"/>
<stop offset="1" stop-color="#616265"/>
</linearGradient>
<linearGradient id="paint2_linear_229_28764" x1="3.2274" y1="10.8646" x2="8.79009" y2="10.8646" gradientUnits="userSpaceOnUse">
<stop stop-color="#ECEDED"/>
<stop offset="1" stop-color="#5F6062"/>
</linearGradient>
<linearGradient id="paint3_linear_229_28764" x1="9.00039" y1="7.45063" x2="12.4789" y2="7.45063" gradientUnits="userSpaceOnUse">
<stop stop-color="#EAEBEC"/>
<stop offset="1" stop-color="#626366"/>
<stop offset="1" stop-color="#7B7C7E"/>
</linearGradient>
<linearGradient id="paint4_linear_229_28764" x1="9.05522" y1="5.97058" x2="11.1446" y2="5.97058" gradientUnits="userSpaceOnUse">
<stop stop-color="#C7C8CA"/>
<stop offset="1" stop-color="#616265"/>
</linearGradient>
<linearGradient id="paint5_linear_229_28764" x1="9.41514" y1="9.77127" x2="14.1714" y2="9.77127" gradientUnits="userSpaceOnUse">
<stop stop-color="#ECEDED"/>
<stop offset="1" stop-color="#5F6062"/>
</linearGradient>
</defs>
</svg>
