<!-- by TradingView --><svg width="56" height="56" viewBox="0 0 56 56" xmlns="http://www.w3.org/2000/svg"><path fill="#F0F3FA" d="M0 0h56v56H0z"/><path d="m45.3 39.69-7.13-6.93.26-.26 7.12 6.92-.25.27Zm-1.88.08-7.25-6.82.25-.27 7.25 6.83-.25.26Zm-7.82-9.19-1.46-1.37.25-.27 1.47 1.37-.26.27Zm5.42 9.23-8.14-7.75.25-.27 8.14 7.75-.25.27Zm-2.58-.48-6.81-6.42.25-.27 6.82 6.42-.26.27Zm-8.5-7.93-1.42-1.5.25-.27 1.42 1.5-.25.27Zm6.48 7.96-8.32-7.88.25-.27 8.32 7.88-.25.27Zm-.93-7.02-2.07-1.85.24-.28 2.07 1.85-.24.28Zm-10.72-9.95-7.46-8.03.25-.27 7.46 8.03-.25.27Zm2.04-.06-7.48-7.97.26-.27 7.48 7.98-.26.26Zm-10.99-7.55 6.95 7.6.25-.26-6.95-7.61-.25.27Zm3.67 6.6-4.12-5.07.25-.27 4.13 5.08-.26.26Zm-4.64-3.35 3.44 4.12.25-.27-3.45-4.12-.24.27Z" fill="#1E1916"/><path d="M18.36 21.58c.2-.4.64-.63 1.09-.57l1.86.26c.4.06.69.4.69.79h-.38c0-.21-.15-.4-.37-.42l-1.85-.26a.68.68 0 0 0-.7.36l-3.23 6.57h-.68a.56.56 0 0 0-.53.37l-.68 1.94c-.1.29.06.61.36.7l.21.07-.74 1.89a.5.5 0 0 0 .28.64l1.64.67c.27.1.57-.02.68-.28l1.18-2.99h1.47l.52-1.1.16 3.72c0 .28.23.5.5.5h1.25v.38h-1.24a.88.88 0 0 1-.89-.88l-.02-2.25h-1.5l-1.08 2.75a.9.9 0 0 1-1.17.5l-1.64-.67a.87.87 0 0 1-.49-1.13l.6-1.53a.92.92 0 0 1-.44-1.11l.68-1.94a.94.94 0 0 1 .89-.62h.45l3.12-6.36Z" fill="#1E1916"/><path d="M18.67 28.62h.86V27l-.86 1.62ZM20 25v4h-2l2-4Zm15.53-5.07a1.63 1.63 0 0 1 2-.84l1.37.46a1.6 1.6 0 0 1 1.1 1.67l-1.07 10.85c-.06.53-.5.93-1.04.93h-1.48c-.62 0-1.1-.54-1.03-1.15l.82-6.41-3.27 6.94a1.1 1.1 0 0 1-.99.62h-.97c-.6 0-1.09-.48-1.09-1.08v-6.15l-1.6 6.27c-.15.55-.71.89-1.27.75l-1.23-.31a1.02 1.02 0 0 1-.73-1.3l3.49-11.05a1.63 1.63 0 0 1 2.01-1.05l1 .29c.68.2 1.15.83 1.15 1.54v5l2.83-5.98Zm1.87-.5c-.6-.2-1.26.08-1.53.65l-3.54 7.66v-6.83c0-.55-.36-1.03-.9-1.19l-.99-.3a1.27 1.27 0 0 0-1.55.82L25.4 31.3c-.11.36.1.74.47.83l1.23.31c.36.09.72-.12.81-.48l2.24-8.66.1 8.63c0 .4.33.71.72.71h.97c.28 0 .53-.16.65-.4l4.19-9.07-1.03 8.73c-.05.4.26.74.66.74h1.48c.35 0 .63-.26.67-.6l1.06-10.84c.06-.57-.3-1.1-.84-1.3l-1.38-.46Z" fill="#1E1916"/><path d="M20.65 22.62c.1-.37.45-.62.84-.62H28v.37h-6.5a.49.49 0 0 0-.47.34l-.62 2.35c-.08.28.14.57.45.57h2.71l-2.42 8.74c-.1.37.14.74.53.82l2 .42a.7.7 0 0 0 .8-.45l1.04-3.02.37.1-1.03 3.03a1.1 1.1 0 0 1-1.27.7l-2-.41c-.6-.13-.98-.71-.82-1.29l2.3-8.27h-2.2a.84.84 0 0 1-.84-1.04l.62-2.34ZM26.83 26h-1.59v-.37h1.59V26Z" fill="#1E1916"/><path d="M15.76 14h24.48L46 40H10l5.76-26Zm.38.48-5.55 25.04h34.82l-5.55-25.04H16.14ZM21 12h14v2H21v-2Z" fill="#1E1916"/><path d="M16 42h24l-1.2-3H17.2L16 42Z" fill="#1E1916"/></svg>