<!-- by TradingView --><svg width="18" height="18" viewBox="0 0 18 18" xmlns="http://www.w3.org/2000/svg"><path fill="#F0F3FA" d="M0 0h18v18H0z"/><path d="M11.94 10.77c2.1-1.5 3.13-3.42 2.35-4.6-.83-1.27-3.6-1.2-6.26-.06 2.95-1.38 5.88-1.5 6.73-.2.8 1.2-.44 3.23-2.82 4.86Zm-2.63 1.4c-2.47.95-4.82.86-5.6-.34-.61-.93-.22-2.24.95-3.47-1.42 1.36-2.04 2.8-1.42 3.73.79 1.2 3.35 1.2 6.07.09Z" fill="#CE252B"/><path d="M9 7.74a8.27 8.27 0 0 1-5-1.69c.02.07 1.05 2.6 1.16 2.82.73.31.77.15 1.84.5V12l2-1.47V7.74Zm0 0a8.27 8.27 0 0 0 5-1.69c-.02.07-1.05 2.6-1.16 2.82-.73.31-.77.15-1.84.5V12l-2-1.47V7.74Z" fill="#242578" fill-opacity=".45"/></svg>