<!-- by TradingView --><svg width="18" height="18" viewBox="0 0 18 18" xmlns="http://www.w3.org/2000/svg"><path fill="#F0F3FA" d="M0 0h18v18H0z"/><path fill-rule="evenodd" d="M9 5 2 6.85v4.45L9 13l7-1.7V6.85L9 5Zm0 .74L2.7 7.25v3.65L9 12.4l6.3-1.5V7.25L9 5.75Z" fill="#014F2A"/><path d="M12 7h-1v4h3v-.8h-2V7Zm-4 4V7h1.88C10.5 7 11 7.54 11 8.2a1.2 1.2 0 0 1-.98 1.2c.33.36.76 1.16.98 1.6h-1c-.43-.88-.45-1.13-.81-1.6H9V11H8Zm1-2.4h.88c.2 0 .37-.18.37-.4a.4.4 0 0 0-.38-.4H9v.8ZM4 11l1.58-4h.84L8 11h-.88l-.4-1H5.28l-.4 1H4Zm1.67-2h.66L6 8.17 5.67 9Z" fill="#1E1E1E"/></svg>