<!-- by TradingView --><svg width="18" height="18" viewBox="0 0 18 18" xmlns="http://www.w3.org/2000/svg"><path fill="#F0F3FA" d="M0 0h18v18H0z"/><path d="M8.7 4.1 4 12.84l3.88-1.95c.45-.22 1-.12 1.31.26.29.36.59.73.72.85.54.5 1.43 1.5 3.04.67 1.46-.76 1.08-2.11.72-2.67L9.01 4.07c-.08-.1-.25-.09-.3.02Z" fill="url(#a0jll1uxy)"/><path d="m12.66 12.82-.67-1.02a3 3 0 0 0-4.02-.94c.43-.17.93-.05 1.22.3.29.36.59.73.72.85l.1.1c.51.48 1.31 1.24 2.65.7Z" fill="url(#b0jll1uxy)"/><defs><linearGradient id="a0jll1uxy" x1="6.34" y1="8.35" x2="13.39" y2="12.5" gradientUnits="userSpaceOnUse"><stop stop-color="#951F1D"/><stop offset="1" stop-color="#D62E25"/></linearGradient><linearGradient id="b0jll1uxy" x1="8.54" y1="11.41" x2="11.44" y2="13.72" gradientUnits="userSpaceOnUse"><stop stop-color="#8E211D"/><stop offset=".35" stop-color="#A1211E"/><stop offset=".65" stop-color="#B12522"/><stop offset="1" stop-color="#D72C28"/></linearGradient></defs></svg>