<!-- by TradingView --><svg width="18" height="18" viewBox="0 0 18 18" xmlns="http://www.w3.org/2000/svg"><path fill="#F0F3FA" d="M0 0h18v18H0z"/><path d="M13 11.38v.72h1v-.72c-.03-.06-.17-.18-.48-.18-.32 0-.48.12-.52.18Z" fill="#1B8D47"/><path d="M5 11.38v.72H4v-.72c.03-.06.17-.18.48-.18.32 0 .48.12.52.18Z" fill="#039A4E"/><path d="M13.67 7.03 9 4 4.33 7.03 6.1 12.1H5v.9h8v-.9h-1.1l1.77-5.07Z" fill="url(#a2vvwtcaq)"/><path d="M7.06 7c-.73 0-1 .78-1.03 1.17l1.25 1.3c0-.03.8-.85.92-1.4C8.33 7.55 7.97 7 7.06 7Z" fill="#A45729"/><path d="m9.67 10.22.01.01-.09-.01a.78.78 0 0 1-.18-.11.13.13 0 0 0-.13-.02l-.33.08-.14.03c-.09 0-.17.03-.25.02l-.53-.03c-.06 0-.7.38-.73.48-.06.14-.18.32-.4.3-.04 0-.14.03-.18 0-.09-.05-.66-.25-.63-.33 1.46-.9 2.23-.32 3.23-.62.07-.02.14.09.2.11.05.03.1.08.16.09Z" fill="#0C4019"/><path d="M6.73 7.49c-.09-.02-.16-.1-.25-.14.12-.02.24-.16.36-.2.31-.1.53-.19.02-.08.14-.09.46-.05.6.03.17.1.34.21.19.35-.06.06-.6-.07-.71-.06-.04 0-.09.03-.12.06a.22.22 0 0 1-.09.04Z" fill="#D4882D"/><path d="m6.46 7.34.02.01.08.04c.06.03.1.08.17.1.06.01.06-.03.09-.03l.13-.01c.04 0 .07-.03.12-.03h.01v.01a.11.11 0 0 0-.04.05h-.01c-.07.1-.14.16-.28.15l-.3-.04v-.04a.26.26 0 0 1 .12-.04h.01V7.5l-.08-.05-.02-.01-.12-.03h-.01c0-.02 0-.04.03-.04l.05-.08h.01l.02.05Z" fill="#6E361E"/><path d="M10.41 7.66c0 .01-.01.03-.03.03-.14.04-.32.07-.47.08l-.27.05c-.29-.03-.43-.19-.52-.16-.1.03-.22.02-.3.08-.04.08-.25.5.8.52h1.25c.07 0 .23.07.28.06.11-.03.23.21.22.28-.02.1-.08.2-.2.26h-.03c-.02-.02-.02-.04 0-.05.04-.03.12-.08.11-.12.1-.26-.22-.4-.48-.4-.21 0-.4.02-.6.03h-.62c-.07 0-.52 0-.54-.03-.23-.05-.27-.07-.37-.17l-.05-.04c-.03-.08-.1-.16-.08-.25.12-.14.2-.3.43-.34.07-.01.12-.03.21-.03.07 0 .14-.04.2-.06.12-.04.25-.03.36-.03.28 0 .49.16.7.29Z" fill="#85481E"/><path d="M7.87 7.85c-.02.01-.15-.05-.14-.06 0-.08-.1-.2-.24-.15-.22.06-.28-.19-.4-.17-.03 0-.15.16-.14.2.05.1.14.17.24.24.2.14.4.28.05.72-.1.14-.53.4-.52.46-.36.17.17.46.1.49H6.8c-.42.93 1-.47.42.53-.02.02.2.02.2.02.15-.01.22-.18.27-.32l.08-.15v-.01c.11-.04.26-1.75.1-1.8Z" fill="#C2732C"/><path d="M7.42 8.56c-.04.05-.18.07-.18.15 0 .04 0 .11-.07.12-.05-.34-.1.07-.2.08-.05 0-.08 0-.1-.03.03-.06-.12-.2-.14-.25-.19-.47-.34-.97-.44-.69a.3.3 0 0 0-.06.07c-.02.03-.07.06-.05.1h.01l.13-.07a.02.02 0 0 1 .01 0l.01.01v.04l-.01.02a.38.38 0 0 1-.17.07.16.16 0 0 1 .04-.16V8h-.05l.06-.08.02-.03h-.08l-.01-.01v-.05l.05-.18c.01-.03.18-.14.22-.11.06.04-.16.17-.14.24.07-.04.13-.1.17-.16l.02-.01h.03l.2.02h.06c.14 0 .2-.06.28-.15h.03c.01.04-.05.1-.1.13l-.01.03v.02l.02.01H7l.04.01h.01c.12.02.64.3.48.4 0 .14.03.24-.1.47Z" fill="#D4882D"/><path d="M8.08 7.5c-.03 0-.04.12-.14.13-.15.03-.45-.06-.53-.16l-.01-.01c-.02-.01-.2.05-.19.1.02.05.12.1.17.1l.08-.03c.05-.02.26.02.26.08v.14c.11.03.18.1.25.18 0 .05-.09-.02-.1-.02a.3.3 0 0 0-.1-.05h-.01c-.06.1-.02.17-.04.28-.03.18-.14.48-.32.6 0 0-.19.19-.11.18l.05-.03c.07-.08.16.03.21-.07.19.01.18.3.22.43v.08s0 .04.02.03c.1-.05.17-.21.2-.29l.02-.08c0-.02 0-.05.02-.08-.03-.12 0-.16.08-.25.04-.16.26-.24.13-.4l-.03-.02c-.08-.07-.01-.31-.02-.38l.01-.27a.28.28 0 0 0-.04-.19c-.02-.03-.03.01-.08 0Z" fill="#0C4019"/><path d="M6.78 8.82c.04.03.3-.2.36-.13l.01.05a.2.2 0 0 0 0 .1c0 .04.01.46-.23.25-.1 0-.16-.14-.13.18.01.1-.08.33-.25.3 0-.02-.26-.03-.24-.05-.06-.37-.17-.15-.2-.63l-.07-.4c-.02-.02.06-.23 0-.21.01-.22.09-.13.15-.38.02-.05.19-.09.24-.11.04-.01.11.34.12.37.06.23.07.47.24.66Z" fill="#6E361E"/><path d="M6.59 8.13s-.03-.05-.02-.06c.03-.02.08.08.11.04.02-.02 0-.06.01-.08l.1-.01c.12-.02-.08-.16-.06-.16.02.01.07 0 .09.02.12.08.13.12.15.24 0 .02.01.13-.05.13l-.04-.07c0-.01-.13.02-.16 0-.03 0-.06 0-.1-.02a.6.6 0 0 1-.03-.03Z" fill="#3A1810"/><path d="M6.21 7.93 6.15 8a.3.3 0 0 0-.06.17v.01l.07-.01c.13-.02.3-.22.03-.07-.11-.17.34-.17.08.06a4.82 4.82 0 0 0-.17.59c-.01-.06-.04-.09-.06-.14a.17.17 0 0 0-.02-.03c-.04-.15-.01-.3 0-.45 0-.08.03-.14.1-.2.01-.02.05-.02.1-.01Z" fill="#B86724"/><path d="m8.59 8.08.05.04c.18.19.65.2.9.2.41.02.82-.03 1.23-.03a.7.7 0 0 1 .3.06c.07.03.12.07.16.13l-.19-.08a1.3 1.3 0 0 0-.42-.04c-.39.05-.8.03-1.18.04a1.8 1.8 0 0 1-.7-.17l-.04-.02-.02-.01c-.02-.02-.12-.12-.1-.13 0 0 0 .01 0 0Z" fill="#0C4019"/><path d="M8 8.34c0-.01 0-.03.02-.05-.01.05.06.42.08.4.1.5-.16.18-.24.52-.04.17-.2-.34-.2-.39 0-.2.12.03.13.02 0-.04-.11-.63 0-.54.38.3 0 .36.2.04Z" fill="#C2732C"/><path d="M8.28 8.39a.2.2 0 0 0 .13.04l.1.04c.57.15.78.3 1.44.25.2-.02.4-.08.61-.07.15 0 .29-.02.43.05h-.01c-.03.05.13.14.15.17-.04.01-.13-.05-.17-.07-.2-.12-.62.07-.93-.02-.03.03-.15.02-.2.03-.44.08-.9-.12-1.33-.23h-.09c-.04.02-.1-.11-.1-.12l-.01-.03v-.01c-.02 0-.02-.02-.02-.03Z" fill="#B86724"/><path d="M6.3 9.36c0 .07-.03.15-.13.2-.05-.05-.03-.12-.03-.17-.01-.15-.02-.32.03-.47a.14.14 0 0 0 .03-.05l.07-.21c0-.04.05-.05.09-.03.1.04.06.23.03.3-.02.03 0 .07-.01.1-.02.11-.07.22-.07.33Z" fill="#D4882D"/><path d="M11.64 8.64a.43.43 0 0 0-.06-.21.99.99 0 0 0-.64-.33h-.2c-.48-.03-.96.06-1.44.04v.03c0 .01-.06.05-.08.05.3.04.52.03.71.03.32-.02.64.02.96.02.36 0 .61.37.26.56-.01.03-.12 0-.23-.05-.51-.18-1.04.13-1.56.02-.15-.03-.3-.08-.46-.13-.18-.05-.37-.11-.56-.14-.1-.02-.14.2-.2.31-.09.12-.13.25-.17.38-.17.55-.6.98-1.07 1.3-.07.05-.26.05-.27.14a.3.3 0 0 0 0 .13l.08.07.01.02c.05.03.1.04.34-.1.12-.07.23-.17.34-.27l.3-.24c.2-.13.4-.14.6-.14.11 0 .67.02.76-.06.12-.02.25-.08.38-.13.37-.14.75-.28 1.03.1 0 0-.02.01-.01.03.25.14.69.03.77.37.03.11-.08.1-.17.1h-.07c-.11 0-.18.1-.2.2l.05.08c.09.04.19.08.28.1.1 0 .42 0 .51-.08.1-.1.22-.47.2-.6.06-.05.06-.1.06-.16-.06-.07-.21-.06-.3-.1a.44.44 0 0 1-.12-.18c-.06-.12-.02-.3 0-.43.02-.1.01-.2-.04-.29 0-.02-.02-.04 0-.07.13-.12.2-.2.2-.37Z" fill="#C2732C"/><path d="M10.27 9.81c-.18-.17-.53-.21-.64-.35-.36-.1-.93.14-1.23.31-.12.07-.3.02-.43.04-.1.02-.1-.05-.07-.1.16-.33.25-.72.57-.97.07-.05.2-.06.27-.05.16.03.36.13.52.15.46.05.9-.16 1.32-.06.14.03.51.05.6.13.04.04 0 .03.03.17.05.26.08.6.07.88l-.3.1c-.28.14-.53-.11-.71-.25Z" fill="#EEA329"/><path d="M7.62 8.78c.06.3.14.32.15.5l.02.07c.04.1-.1-.05-.14-.22-.09-.17-.1-.18-.03-.35Z" fill="#85481E"/><path d="M6.76 9.09c.03.1.1.24.14.33.14.32-.12 1.07-.23-.14-.01-.08 0-.19-.04-.25l-.03-.06a.16.16 0 0 1-.03-.1v-.02h.03l.04.08.12.16Z" fill="#F6B036"/><path d="m6.56 9.5-.08.04h-.1c-.03-.03-.04-.05-.03-.08l.01.03v.02h.04V9.5a.22.22 0 0 0 .02-.1c.05-.04.03-.07.05-.11.04-.08.03-.16.03-.24l-.01-.07-.01-.01h-.01c0 .01 0 .02-.02.02v-.03l.02-.03h.01c.01.03.03.04.05.06 0 .04.02.06.05.08 0 .03.02.05.03.07.02.04.05.25 0 .28l-.02.01-.03.06Z" fill="#C2732C"/><path d="M6.45 8.96V9c-.01.12-.07.2-.1.32v.15c-.01.08.04.07.11.08h.02l.08-.05a.18.18 0 0 0-.02.09l-.02.02-.01.01-.03.17a.1.1 0 0 1-.05.04l-.15-.23c-.02-.05-.1-.02-.1-.04.05-.22.18-.36.27-.59Z" fill="#AF5726"/><path d="M6.35 9.46V9.3c.02-.05.05-.1.06-.16 0-.01.04-.2.07-.18l.02.08c0 .08 0 .16-.03.24l-.07.2v.02h-.03l-.01-.02-.01-.03Z" fill="#FCBB2D"/><path d="M6.72 9.43c.1.38.44.22.76.27l.03-.11c0-.05.08-.1.12-.13 0 .09-.04.14-.07.23-.12.2-.17.11-.29.26-.42.52-.15.22-.42.47-.21-.06-.3-.5-.25-.56.04-.07.02-.13.03-.2 0-.12.04-.14.09-.23Z" fill="#85481E"/><path d="m10.4 10.04-.16-.08c-.05-.04-.11-.17-.75 0-.03.01-.01.07 0 .09.1.06.11.12.18.17-.05-.01-.11-.06-.17-.09-.05-.02-.12-.13-.2-.11a2.54 2.54 0 0 1-1.03.13c-.62-.09-.5.34-.22-.23l.12.13c.02.02.08 0 .06-.03-.24-.3.17.05.18.03l.01-.06c.01-.04.52.17.61 0h.1c.14-.04.7-.38.83-.27.1.07.17-.03.35.15l.16.16c0 .03-.02.02-.02.02l-.06-.01Z" fill="#6E361E"/><path d="M11.47 9.8a.2.2 0 0 0 .15.1c.07.04.15.06.25.04l.04.04.02.06v.02a.54.54 0 0 0-.03.09v-.07c-.05-.05-.1-.05-.17-.06h-.02a.36.36 0 0 1-.11-.05c-.06-.03-.1-.11-.13-.17Z" fill="#612801"/><path d="M6.73 9.92c.04.03.06.06.04.1-.07.14-.02.26-.18.36-.08.04-.13.09-.24.1-.03 0-.14.04-.18.03.1-.18.41-.16.49-.45 0 0 0-.19.05-.15l.02.01Z" fill="#F6B036"/><path d="M6.72 9.92c.03 0 .05.02.05.03.05.04.1.08.12.12 0 .08 0 .16-.03.23-.08.22-.14.23-.01.12-.07.08-.16.09-.26.11-.07.01-.14.07-.15.13-.03-.17.02-.03-.2-.08-.03 0-.09-.05-.11.1l-.05-.04c-.03-.02-.04-.04-.04-.06a.41.41 0 0 1 .07-.17c.04-.05.15-.06.24-.06.19 0-.1.23.24.03.16-.1.11-.22.18-.35.02-.05 0-.08-.05-.1Z" fill="#C2732C"/><path d="M10.38 10.47h-.01c-.1.03-.2.14-.3.18-.14.07-.2.19-.36.26-.1.04-.23.05-.42.06a.84.84 0 0 1-.35-.1c.01-.03.03-.13.05-.15h.02c.05.04.1.22.1.04 0-.03-.1-.19.07-.15.14.03.25.06.38 0 .07-.02.17-.05.2-.1.07-.1.14-.19.05-.27-.07-.06 0-.18.1-.23.09-.04.14 0 .2.05.02 0 .03.01.03.03.04.06.3.32.24.38Z" fill="#D4882D"/><path d="M7.3 9.94c-.09.2.52-.07-.17.46-.08.05-.5.17-.5.26a.3.3 0 0 0 0 .13c.04.07-.09.08-.08.05 0-.17.05-.15-.09-.16l-.02-.02c.01-.06.08-.12.15-.13.1-.02.32-.25.39-.33.12-.1.24-.14.27-.28.03-.02.05-.02.05.02Z" fill="#F6B036"/><path d="m10.4 10.04.06.03c.07.04.15.07.23.09l.1.03a3.63 3.63 0 0 0 .34.03l.03.02c0 .01 0 .03-.02.04h-.01c-.13 0-.27-.02-.38-.05a2.23 2.23 0 0 1-.32-.12c0-.03-.07-.05-.04-.07Z" fill="#0C4019"/><path d="M9.86 10.34c-.02.06-.06.11-.1.17-.03.05-.13.08-.2.1-.12.06-.24.03-.38 0-.05-.01-.07.02-.1.05-.03.02.1.18.02.2-.03 0-.09-.15-.1-.14-.03.02-.05.12-.06.14l-.06-.03a.2.2 0 0 1-.03-.04c-.02-.04.02-.13.04-.18.05-.13.2-.2.36-.14l.15.02c.12 0 .24-.1.3-.18v-.02c.16-.05.19-.06.16.05Z" fill="#F6B036"/><path d="M10.35 10.33c.04.02.07.06.07.1 0 .05-.04.08-.1.11-.16.13-.32.17-.5.32a.36.36 0 0 1-.14.1.5.5 0 0 1-.19.02c-.02 0-.05-.02-.08 0-.07 0-.16.03-.24 0a.58.58 0 0 0-.11-.03c-.1-.03-.16-.07-.19-.12l.07.03c.04.03.08.04.12.05.1.04.2.05.28.03l.04-.02c.17 0 .26.04.4-.08l.24-.21c.1-.07.4-.11.33-.27v-.03Z" fill="#04340F"/><path d="M10.12 10.06c-.07-.05-.12-.1-.22-.05s-.16.17-.1.23c.03.03.02.08.01.11-.02.1-.18.18-.27.23-.15.08-.28-.08-.44-.03-.1.02-.08.1-.14.13v.01l-.05.05H8.9c-.03-.03-.01-.05 0-.08a.32.32 0 0 1 .2-.17c.07-.02.11-.01.19 0 .06.02.15.05.21.03.1-.05.17-.09.22-.18 0-.01.02-.06-.02-.05 0-.03 0-.05-.02-.06-.04-.06-.2-.2-.27-.25.08.02.07-.05.15-.07.26-.09.47-.18.64 0 0 0 .19.85-.08.15Z" fill="#B86724"/><path d="M6.55 8.04c-.02.05.08.27.1.27.03 0 .07-.04.1-.03.05 0-.03.3-.02.35.02.05.16.2.14.25a.37.37 0 0 1-.14-.07 1.92 1.92 0 0 1-.24-.9c0-.04-.02-.09 0-.14h.04c.05.08 0 .19.02.27Z" fill="#FCBB2D"/><path d="M7.25 8.02a.2.2 0 0 1 .1.08h.02c0-.03 0-.1.05-.08l.03.02c0 .01 0 .03-.02.04-.02.03-.06.08-.1.09l-.04.01c-.06.02-.16 0-.15.08h-.05l.02-.1c.02 0 .03-.02.04-.04.02-.01.12-.02.08-.05-.07-.01-.12-.05-.08-.1.08-.1.05.02.1.05Zm-.15.52a.1.1 0 0 1 .06-.1h-.04c-.02.03-.06.03-.1.02 0 0-.1 0-.06.02.08.05 0 .08-.04.12-.01.01.07.04.07.04.05.01.2-.02.24-.04.03-.01 0-.06-.02-.06H7.1Z" fill="#3A1810"/><path d="M8.9 6c.45 0 1.21.19 1.54.28l-.12.23a2.96 2.96 0 0 0-1.27-.18c-.8 0-1.56.45-1.84.67l.38-.49-.59.1A3.22 3.22 0 0 1 8.9 6Z" fill="url(#b2vvwtcaq)"/><path d="m10.58 6.37.06-.23a.08.08 0 0 0-.05-.09.08.08 0 0 0-.1.04l-.23.52a.1.1 0 0 0 .06.14.1.1 0 0 0 .14-.07l.04-.11.36.14a.1.1 0 0 0 .14-.06.1.1 0 0 0-.06-.12l-.36-.16Z" fill="url(#c2vvwtcaq)"/><path d="M7.57 6.52c.07-.05 1.2-.47 2.51-.23-1.11-.27-2.23 0-2.51.23Z"/><path d="m6.5 11 .12.38H7l-.3.24.1.38-.3-.24-.3.24.1-.38-.3-.24h.38L6.5 11Z" fill="url(#d2vvwtcaq)"/><path d="m7.5 11 .12.38H8l-.3.24.1.38-.3-.24-.3.24.1-.38-.3-.24h.38L7.5 11Z" fill="url(#e2vvwtcaq)"/><path d="m9 11 .24.38H10l-.62.24.24.38-.62-.24-.62.24.24-.38-.62-.24h.76L9 11Z" fill="url(#f2vvwtcaq)"/><path d="m10.5 11 .12.38H11l-.3.24.1.38-.3-.24-.3.24.1-.38-.3-.24h.38l.12-.38Z" fill="url(#g2vvwtcaq)"/><path d="m11.5 11 .12.38H12l-.3.24.1.38-.3-.24-.3.24.1-.38-.3-.24h.38l.12-.38Z" fill="url(#h2vvwtcaq)"/><path d="M5 12.1H3l.5.47L3 13h2v-.9Z" fill="#018E49"/><path d="M13 12.1h2l-.5.47.5.43h-2v-.9Z" fill="#02632E"/><defs><linearGradient id="a2vvwtcaq" x1="6.48" y1="5.71" x2="12.01" y2="13.36" gradientUnits="userSpaceOnUse"><stop stop-color="#01AD50"/><stop offset="1" stop-color="#00642E"/></linearGradient><linearGradient id="b2vvwtcaq" x1="7.5" y1="6.37" x2="10.43" y2="6.47" gradientUnits="userSpaceOnUse"><stop stop-color="#F9A83E"/><stop offset=".73" stop-color="#754F2A"/></linearGradient><linearGradient id="c2vvwtcaq" x1="10.63" y1="6.05" x2="10.63" y2="6.75" gradientUnits="userSpaceOnUse"><stop stop-color="#FEAC49"/><stop offset=".76" stop-color="#9A530C"/></linearGradient><linearGradient id="d2vvwtcaq" x1="6.2" y1="11.28" x2="6.71" y2="11.88" gradientUnits="userSpaceOnUse"><stop stop-color="#E5B523"/><stop offset="1" stop-color="#DE742D"/></linearGradient><linearGradient id="e2vvwtcaq" x1="7.2" y1="11.28" x2="7.71" y2="11.88" gradientUnits="userSpaceOnUse"><stop stop-color="#E5B523"/><stop offset="1" stop-color="#DE742D"/></linearGradient><linearGradient id="f2vvwtcaq" x1="8.4" y1="11.28" x2="8.77" y2="12.15" gradientUnits="userSpaceOnUse"><stop stop-color="#E5B523"/><stop offset="1" stop-color="#DE742D"/></linearGradient><linearGradient id="g2vvwtcaq" x1="10.2" y1="11.28" x2="10.71" y2="11.88" gradientUnits="userSpaceOnUse"><stop stop-color="#E5B523"/><stop offset="1" stop-color="#DE742D"/></linearGradient><linearGradient id="h2vvwtcaq" x1="11.2" y1="11.28" x2="11.71" y2="11.88" gradientUnits="userSpaceOnUse"><stop stop-color="#E5B523"/><stop offset="1" stop-color="#DE742D"/></linearGradient></defs></svg>