<!-- by TradingView --><svg width="56" height="56" viewBox="0 0 56 56" xmlns="http://www.w3.org/2000/svg"><path fill="#F0F3FA" d="M0 0h56v56H0z"/><path d="M26.84 19.88c.03.01.04.04.04.07-.01.03-.04.05-.06.05h-1.75a.07.07 0 0 1-.07-.05c0-.04.01-.07.04-.09.38-.21.66-.54.82-.99l2.09-5.8a.11.11 0 0 1 .1-.07c.04 0 .08.03.1.07l2.24 6.2c.1.26.4.48.6.65v.05c0 .02-.02.03-.03.03h-2.57c-.03 0-.07-.05-.08-.07 0-.03.02-.06.04-.07.18-.05.57-.08.6-.35 0-.03 0-.06-.02-.1l-.43-1.3a.16.16 0 0 0-.06-.08.14.14 0 0 0-.08-.03h-1.7c-.02 0-.05 0-.07.02a.16.16 0 0 0-.06.06c-.1.5-.26.83-.35 1.39 0 .07.03.12.09.14l.57.27Zm-.1-2.35v.03c0 .03.03.05.06.05h1.43c.03 0 .05-.02.05-.05v-.03l-.72-2.05a.06.06 0 0 0-.06-.04.06.06 0 0 0-.05.04l-.7 2.05ZM41 26.4v1.7c0 .37.32.69.62.69.1 0 .16.05.16.13 0 .06-.1.08-.15.08h-2.34c-.06 0-.12 0-.12-.1 0-.04.05-.07.1-.07.47 0 .72-.22.73-.64v-4.71a.1.1 0 0 0-.08-.1l-.67-.18c-.03 0-.06-.04-.05-.07 0-.04.04-.06.08-.06 1.54-.04 3.88-.45 4.25 1.31.03.14.04.26.04.37 0 1.2-1.19 1.61-2.44 1.56-.08 0-.12.02-.13.09Zm0-2.83v2.24c0 .1.11.14.2.14.15 0 .26-.03.4-.08.42-.17.92-.55.92-.95v-.48c0-.53-.7-1.02-1.33-1.01h-.03c-.08 0-.16.06-.16.14Zm-23.44 5.28c.8.15 1.43.7 1.44 1.49v.17c-.1 1.09-1.28 1.48-2.31 1.48-.28 0-2.65.05-2.67-.1-.01-.05.01-.07.07-.07.45.01.9-.22.92-.7a196 196 0 0 0-.01-4.2c-.01-.51-.37-.7-.92-.75a.08.08 0 0 1-.08-.08c0-.05.04-.08.08-.08 1.01-.02 2-.01 3 .01 1.01.03 1.4.77 1.42 1.48.02.56-.11 1.1-.94 1.24a.05.05 0 0 0-.05.05c0 .03.02.05.05.06Zm-1.57-2.3L16 28.5c0 .15.14.18.26.18.58 0 1.11-.46 1.11-1.03v-.24c0-.56-.54-1.03-1.12-1.02-.12 0-.26.03-.26.18Zm.01 2.8v2.02c0 .22.27.25.45.25a1.13 1.13 0 0 0 1.1-1.15l-.01-.29a1.13 1.13 0 0 0-1.15-1.1c-.18 0-.4.05-.39.27Z" fill="#00994E"/><path d="M24.91 31.5c.05-.37 1.47-1.47 1.8-1.75a.1.1 0 0 0 .04-.07.1.1 0 0 0-.02-.07l-.12-.15c-.04-.05-.1-.06-.15-.01l-1.84 1.6c-.04.03-.05.08 0 .12a.6.6 0 0 1 .15.3c-.65.36.12.82-.56.97a.1.1 0 0 0-.08.06.11.11 0 0 0 0 .1l.12.27c.02.05.02.1-.02.13l-.49.43c-.05.05-.05.1 0 .15l.31.35a.27.27 0 0 1 .08.2.28.28 0 0 1-.1.2l-6.27 5.5a.98.98 0 0 0-.24.46.37.37 0 0 1-.1.17l-2.07 1.8c-.04.03-.08.04-.13 0l-.21-.11a.1.1 0 0 0-.13.01c-.45.44-.95.2-1.1-.34a.15.15 0 0 0-.1-.1.14.14 0 0 0-.15.05c-.27.3-1.01.85-1.4.45-.55-.58.46-1.4.88-1.77 3.12-2.67 6.24-5.34 9.35-8.03.18-.15.3-.09.38.11 0 .1-.03.16-.08.2-1.02.89-10.25 8.7-10.25 9.03a.21.21 0 0 0 .12.19.2.2 0 0 0 .22-.03l10.18-8.86a.27.27 0 0 1 .2-.06c.08.06.12.13.14.2.02.07 0 .13-.05.18L16.84 39a.24.24 0 0 0-.07.1c-.08.27.07.37.24.22l6.53-5.75c.05-.05.05-.1 0-.14l-.12-.09a.1.1 0 0 1 0-.15l.52-.48a.19.19 0 0 0 .03-.23.17.17 0 0 0-.22-.07c-.2.09-.4.25-.58.48-.27-.07-.37-.19-.29-.35l.52-.46a.1.1 0 0 1 .08-.03.1.1 0 0 1 .07.05c.22.35.53-.06.72-.21.06-.05.06-.09 0-.13l-.19-.13c-.05-.04-.06-.08 0-.12l.39-.33c.06-.05.05-.1 0-.14l-.19-.14c-.06-.05-.12-.03-.16.04-.53.95-1.44-1.38-1.51-1.66l-.01-.01a.03.03 0 0 0-.04 0l-.01.01c-.25.9-.07 1.7.52 2.4.04.06.04.1-.01.16l-.4.4c-.06.04-.1.04-.15-.02a4 4 0 0 1-.67-4.18c.29-.74-.07-2.2-.22-2.98a.27.27 0 0 0-.09-.14c-1.35-1.29-1.96-2.09-3.9-2.3a.14.14 0 0 1-.13-.1l-.14-.44c-.02-.07-.07-.09-.13-.06l-.54.2a.22.22 0 0 1-.16 0l-1.07-.45a.43.43 0 0 0-.2-.03c-.73.07-1.31-.2-1.76-.79a.25.25 0 0 0-.12-.09c-.61-.2-1.3-.29-1.74-.86-1.31-1.67-.42-2.88 1-3.94.24-.18.48-.27.74-.28 1.57-.05 2.02.78 2.24 2.2 0 .08.05.1.11.08.83-.36 1.32-.51 1.88.38.07.12.17.15.3.08.84-.4 1.29.4 1.18 1.15-.01.07.02.12.09.13.39.1.67.33.84.7.03.05.07.09.12.1.4.18.7.47.88.88.02.06.06.1.12.14.57.3 1.01.74 1.35 1.3.03.05.08.1.14.14l1.76 1.17a.1.1 0 0 0 .12 0c2.38-1.6 4.21-.73 6.19.92.05.05.1.04.16 0a127678.88 127678.88 0 0 1 11.69-10c.8-.43 1.34.2 2.17.2.05 0 .1.03.14.07.2.2.18.4-.03.6L33.48 26c-.41.36-.66.7-.75.98a1.8 1.8 0 0 0 .5 1.74c.72.72 1.51.64 2.4-.22.08-.08.16-.09.25-.02l3.08 2.17c.21.15.45.55.71 1.2 1.54 3.77.07 7.4-3 9.73-1.63 1.24-3.97 2.12-5.75.67A9.5 9.5 0 0 1 29.86 41c-.67-.9-1.43-1.73-2.27-2.47a.15.15 0 0 1-.05-.15c.13-.83.31-1.41-.09-2.3-.3-.65-1.21-1.29-1.9-.72a.19.19 0 0 1-.26-.02l-1-1.1a.1.1 0 0 1 0-.16l.5-.5c.05-.04.05-.09.01-.14l-.4-.47c-.05-.06-.05-.12.01-.17l.4-.35a.12.12 0 0 1 .1-.02.12.12 0 0 1 .08.04c.15.2.29.34.4.42a.28.28 0 0 0 .37-.06.3.3 0 0 0 0-.4l-.3-.33a.1.1 0 0 0-.14-.02l-.41.28a.18.18 0 0 1-.24-.05.19.19 0 0 1 .02-.24l.3-.28c.04-.04.05-.09.01-.14l-.09-.16Zm17.33-15.27c.4.2.6.38.53.87l.01.05c0 .02.02.03.03.04a.08.08 0 0 0 .1-.01c.41-.33.79-.71 1.12-1.14a.27.27 0 0 0 .04-.26.26.26 0 0 0-.2-.17 1.95 1.95 0 0 0-1.65.5c-.06.05-.05.1.02.12Zm-29.27.46c.55.18 1.02.4 1.4.66.08.06.1.05.03-.03a2.15 2.15 0 0 0-1.23-.87c-.07-.02-.13 0-.15.08l-.06.13a.02.02 0 0 0 .01.03Zm28.4.06a.14.14 0 0 0-.1-.05.14.14 0 0 0-.1.03l-10.04 8.7a.15.15 0 0 0-.05.16c0 .02.02.03.03.05l.02.03a.14.14 0 0 0 .15.04c.02 0 .04-.01.05-.03l10.04-8.7a.14.14 0 0 0 .05-.1.15.15 0 0 0-.03-.1l-.02-.03Zm-9.88 9.2c-.18-.16-.44-.06-.77.3-.03.04-.03.07 0 .1l.16.13c.06.04.06.08 0 .13-.38.36-.78.7-1.19 1.04-.14.11-.13.22.02.34.05.04.06.08.03.14a.28.28 0 0 1-.12.12.36.36 0 0 1-.24-.1c-.06-.05-.06-.11-.02-.18l.08-.12c.04-.06.03-.11-.03-.15l-.08-.06a.14.14 0 0 0-.11-.01l-.3.08c-.13.04-.19-.01-.17-.15a.2.2 0 0 1 .09-.15.08.08 0 0 0 0-.12c-.12-.12-.17-.23-.14-.32l1.37-1.14c.09 0 .17.06.24.17.03.05.03.1-.02.13l-1.26 1.08c-.06.06-.06.12 0 .18l.1.1c.07.05.13.05.19 0l1.22-1.1a.14.14 0 0 0 .02-.17l-.06-.12c-.04-.06-.03-.12.02-.17l.35-.32c.05-.05.05-.1.01-.17l-.06-.1c-.04-.06-.1-.06-.15-.01l-.63.5c-.94-1.24-2.65-2.03-4.08-1.1-.05.03-.05.06 0 .1l2.6 2.17c.05.02 0 .08-.12.2-.05.04-.05.1 0 .15l.16.17c.05.05.05.1-.01.13l-.29.17a.23.23 0 0 0-.1.13.24.24 0 0 0 0 .16c.02.06.06.1.1.11.05.02.1.01.15-.01.15-.08.26-.2.35-.34a.1.1 0 0 1 .06-.05.1.1 0 0 1 .07 0l.22.12c.06.04.08.09.03.15-.2.32-.44.4-.71.25a.14.14 0 0 0-.17.02l-.8.66-.3-.19c.27-.32.59-.59.95-.82.06-.04.06-.08-.01-.1l-.23-.12a.1.1 0 0 0-.11.02l-.8.62a.15.15 0 0 1-.09.04.14.14 0 0 1-.1-.04l-8.5-7.99a.16.16 0 0 0-.2-.01.16.16 0 0 0-.06.19l.13.13c2.8 2.6 5.57 5.23 8.34 7.86.1.1.14.16.1.2l-.24.23a.18.18 0 0 0 0 .24.18.18 0 0 0 .22.04c.14-.1.4-.35.15-.5-.01-.13.01-.22.07-.27.05-.04.1-.04.15 0 .1.07.17.17.17.3a.85.85 0 0 0-.11.08.23.23 0 0 0 .02.27.22.22 0 0 0 .25.05c.08-.03.14-.1.19-.21.2.14.28.26.23.36-.11.1-.26.09-.45-.06-.06-.04-.12-.04-.16.02l-.18.23c-.05.05-.04.1 0 .16l.13.12a.09.09 0 0 1 .02.07.1.1 0 0 1-.03.07l-1.86 1.62c-.06.06-.07.11 0 .17l.1.1c.05.04.1.04.15 0l1.82-1.6c.06-.05.12-.05.18 0l.48.4a.12.12 0 0 1 .05.1.12.12 0 0 1-.04.09l-1.9 1.66c-.03.03-.04.07-.01.11.16.22.3.34.42.36 1.63.23 3.02 1.1 3.06 2.95v.8c0 .06.02.11.06.16a18.9 18.9 0 0 0 2.36 2.68c1.51 1.35 3.16.24 4.75-.66a.15.15 0 0 0 .07-.12l.03-.7c0-.04 0-.07-.02-.1a.18.18 0 0 0-.05-.06l-2.1-1.48a.27.27 0 0 1-.12-.16l-.25-1.1a.1.1 0 0 0-.04-.06.09.09 0 0 0-.06-.01l-1.7.18a.2.2 0 0 1-.16-.04.25.25 0 0 1-.1-.14l-.54-2.26a.31.31 0 0 0-.1-.16l-2.18-1.79a.2.2 0 0 0-.19-.03c-.2.06-.4.15-.6.28a.38.38 0 0 1-.12.05.42.42 0 0 1-.39-.11.32.32 0 0 1-.07-.11.28.28 0 0 1 .12-.34l.29-.21a.1.1 0 0 1 .1 0l.22.15c.09.06.14.04.16-.07.03-.11 0-.2-.09-.26a.13.13 0 0 1-.05-.1.13.13 0 0 1 .04-.1l.8-.69a.13.13 0 0 1 .18 0l.59.53c.04.04.1.04.14 0l.4-.36a.1.1 0 0 0 .04-.07.1.1 0 0 0-.03-.08l-.57-.5c-.05-.05-.1-.05-.16 0l-.4.33a.13.13 0 0 1-.15.02c-.2-.1-.38-.27-.53-.47.1-.24.27-.41.53-.5.25.34.53.47.84.4a.19.19 0 0 1 .16.04l.66.54c.06.04.12.07.19.06.87 0 1.15.25 1.86.67a.2.2 0 0 1 .1.15c.03.24.17.33.43.29.05 0 .1 0 .15.02.21.11.33.29.36.53a.34.34 0 0 1-.06.24.35.35 0 0 1-.2.15c-.9.27-1.2-.09-1.94-.48a.16.16 0 0 1-.09-.14l-.03-.34a.07.07 0 0 0-.03-.05.07.07 0 0 0-.07 0l-.43.16a.19.19 0 0 1-.18-.02c-.1-.07-.2-.13-.31-.18a.1.1 0 0 0-.15.05.11.11 0 0 0 0 .08c0 .03.03.05.05.06.17.1.27.22.31.4.02.06.06.1.12.13.44.14.82.38 1.13.73a.2.2 0 0 0 .17.06c.64-.08 1.2.08 1.67.49.05.04.1.07.17.08l.8.18c.06.02.1.05.13.1.28.46.2.8-.22 1.03a.1.1 0 0 1-.1 0 .1.1 0 0 1-.04-.09l-.02-.47a.13.13 0 0 0-.03-.08.12.12 0 0 0-.08-.04l-.74-.09a.21.21 0 0 0-.2.11.22.22 0 0 0 0 .24c.36.5.77.93 1.25 1.31.05.04.1.06.17.07.54.01.85.07 1.2.53l1.49 1.95c.04.05.08.05.12 0 2.63-3.35.65-6.12-2.46-7.65a.17.17 0 0 0-.15 0c-1.79.81-3.69.17-3.76-2.06 0-.06.02-.1.06-.14l.78-.65a.1.1 0 0 0 .03-.1.1.1 0 0 0-.07-.09l-.64-.21c0-.1-.02-.13.05-.2 3.34-2.95 6.7-5.9 10.05-8.83a.45.45 0 0 0 .14-.16.2.2 0 0 0-.07-.22.18.18 0 0 0-.23.01c-3.22 2.82-6.45 5.67-9.69 8.54-.25.22-.5.4-.77.53Zm-17.02-7.36c-.16-.36-.25-.8-.53-1.07a1.87 1.87 0 0 0-1.55-.48.1.1 0 0 0-.03.12c.05.07.12.11.22.11 1.23-.02 1.37.84 1.67 1.8.02.05.05.08.1.08h.92a.17.17 0 0 1 .15.08c.17.26.4.33.7.2a.1.1 0 0 0 .06-.05.1.1 0 0 0 0-.08.51.51 0 0 0-.53-.33c-.03 0-.05 0-.08-.02a.15.15 0 0 1-.06-.07l-.3-.61a.1.1 0 0 0-.06-.06.1.1 0 0 0-.09.02l-.45.39c-.06.05-.1.04-.14-.03Zm-2.1-.9c-.71-.14-1.1.4-.91 1.05.32 1.13.8 1.7 2.05 1.63.04 0 .07-.03.07-.08v-.05c0-.04-.02-.06-.06-.07l-1.09-.25a.24.24 0 0 1-.14-.1c-.37-.5-1-1.82.07-2.03l.04-.02a.05.05 0 0 0 0-.07.05.05 0 0 0-.04-.02Zm4.7.63v-.07a.18.18 0 0 0-.03-.07.28.28 0 0 0-.06-.07.36.36 0 0 0-.17-.07h-.09a.17.17 0 0 0-.06.03.12.12 0 0 0-.05.05v.07c0 .02.01.05.03.07l.06.06a.35.35 0 0 0 .17.08h.08c.03 0 .05-.02.07-.03a.12.12 0 0 0 .04-.05Zm-4.18-.07c-.1-.12-.24-.16-.4-.11a.06.06 0 0 0-.03.1l.03.01.5.2a.05.05 0 0 0 .06-.02.05.05 0 0 0 0-.06.3.3 0 0 0-.16-.12Zm.77 1.12a.59.59 0 0 0-.6-.31.17.17 0 0 1-.14-.07.57.57 0 0 0-.49-.23c-.07 0-.1.04-.08.1.19.61.6.85 1.22.72.12-.03.15-.1.1-.2Zm4.67-.49-.13.18a.04.04 0 0 0-.01.03v.01l.01.01.04.03a2.4 2.4 0 0 0 .35.23l.12.05c.04 0 .06 0 .07-.02l.02-.02v-.07a.52.52 0 0 0-.08-.11 1.52 1.52 0 0 0-.3-.3l-.04-.02v-.01h-.02a.04.04 0 0 0-.03.01Zm-.22.7a.58.58 0 0 0-.34-.24h-.04a.07.07 0 0 0-.03.02.07.07 0 0 0 0 .08c.1.16.26.26.45.3.07.02.1 0 .07-.08-.02-.05-.06-.08-.11-.08Zm-1.24.45V20a.1.1 0 0 0 0-.04.21.21 0 0 0-.04-.05.3.3 0 0 0-.1-.07.2.2 0 0 0-.05-.01.1.1 0 0 0-.04 0c-.01 0-.02 0-.02.02l-.01.03.01.04.03.04a.3.3 0 0 0 .1.07.2.2 0 0 0 .05.02.1.1 0 0 0 .04 0l.03-.02Zm-1.66.44.25.3c.03.04.06.06.1.05.4-.03.75-.2 1.03-.47a.1.1 0 0 0 .03-.08.1.1 0 0 0-.06-.07l-.74-.34c-.07-.03-.12-.01-.13.07l-.08.34c-.02.07-.06.1-.13.06l-.38-.17a.11.11 0 0 0-.14.05c-.15.28-.38.35-.7.21a.2.2 0 0 0-.25.07.22.22 0 0 0 0 .27c.26.34.6.51 1.03.5a.17.17 0 0 0 .12-.06.18.18 0 0 0 .04-.14l-.07-.55c-.01-.1.01-.12.08-.04ZM17.94 22l.4-.44a.04.04 0 0 0 0-.03.04.04 0 0 0 0-.03l-.56-.51a.44.44 0 0 0-.12-.09.39.39 0 0 0-.14-.03c-.05 0-.1 0-.14.02a.3.3 0 0 0-.17.2.35.35 0 0 0 0 .13c0 .05.01.1.03.14a.4.4 0 0 0 .1.12l.55.52.01.01a.04.04 0 0 0 .03 0l.01-.01Zm-1.4-1.02-.51.17a.13.13 0 0 0-.08.06.14.14 0 0 0 0 .1v.06l.1.2c.04.06.09.12.14.16.05.04.1.07.15.08h.15l.04-.02c.05-.01.1-.04.13-.08l.08-.16a.67.67 0 0 0 .02-.2.85.85 0 0 0-.03-.23l-.02-.05a.14.14 0 0 0-.07-.08.13.13 0 0 0-.1-.01Zm3.04 1.64c-.27-.36-.81-1.22-1.29-.5a.13.13 0 0 0 .02.16c.01.02.03.03.05.03l1.15.4a.06.06 0 0 0 .07-.09Zm8.37 5.1.34-.41a.04.04 0 0 0 .01-.03v-.02h-.01l-.03-.03a77.78 77.78 0 0 0-2.09-1.74c-.28-.22-.5-.39-.67-.5-.16-.1-.25-.15-.26-.13l-.17.2c-.02.02.04.1.18.24a47.05 47.05 0 0 0 2.63 2.41l.01.02.02.01a.04.04 0 0 0 .04-.01Zm-4.9-.98c.46-.55-.38-1.2-.77-1.47h-.05v.05c.34.48.35.98.03 1.48a.15.15 0 0 0 0 .17l.18.32c.04.06.08.07.13.01l.48-.56Zm3.05 2.25-2.14-2.07c-.04-.04-.08-.04-.12 0-1.02 1.2-.64 2.75.31 3.76.08.08.16.09.24.02l1.7-1.46c.1-.08.1-.16 0-.25Zm7.23 3.62.59.24h.02a.03.03 0 0 0 .01-.01l.01-.02a.23.23 0 0 0 .02-.1.27.27 0 0 0-.04-.12.34.34 0 0 0-.07-.09.39.39 0 0 0-.1-.07l-.05-.01a.36.36 0 0 0-.24-.02.24.24 0 0 0-.16.14v.02a.03.03 0 0 0 0 .02.03.03 0 0 0 0 .02Zm-7.92.51-.4.33a.1.1 0 0 0-.02.14l.26.34c.1.13.22.25.33.32.1.08.18.1.22.07l.26-.21c.04-.03.03-.12-.01-.24a1.67 1.67 0 0 0-.24-.4l-.26-.33a.1.1 0 0 0-.14-.02Zm7.18.53h-.23a.05.05 0 0 0-.04.02.05.05 0 0 0-.01.04v.02c0 .2.03.4.06.53.03.14.07.22.11.21h.05c.02 0 .03-.02.05-.06a2.25 2.25 0 0 0 .06-.7v-.01l-.01-.04a.05.05 0 0 0-.04-.01Zm-3.98 3.22c.98-1.1-.64-3.3-1.85-2.67a.17.17 0 0 0-.06.24l.07.06a2.92 2.92 0 0 1 1.74 2.37l.03.02a.07.07 0 0 0 .07-.02Zm4.73-2.26a.1.1 0 0 0 0-.05.14.14 0 0 0-.04-.05.22.22 0 0 0-.06-.04.28.28 0 0 0-.2 0 .14.14 0 0 0-.06.03.1.1 0 0 0-.02.05.1.1 0 0 0 0 .05l.04.05.06.03a.28.28 0 0 0 .15.03c.02 0 .04 0 .06-.02.02 0 .04-.02.05-.03a.1.1 0 0 0 .02-.05Zm2.67.5a.22.22 0 0 0-.29.02l-.83.75-.02.03a.08.08 0 0 0 .03.1c.95.68 1.8 1.5 2.58 2.46.06.07.11.16.16.26.04.08.06.07.06-.01a4.03 4.03 0 0 0-1.7-3.6Zm-2.15 5.8c-1.8.5-2.92-1.3-4.09-2.45a.18.18 0 0 1-.04-.18l.07-.25c.02-.09 0-.13-.1-.11a.75.75 0 0 1-.54-.13.18.18 0 0 0-.17-.01l-.56.24c-.06.02-.08.07-.07.13.06.37.26.58.6.63.06.01.1.05.14.1 1.12 1.91 3.03 3.76 5.4 2.88a7.92 7.92 0 0 0 3.34-2.4.19.19 0 0 0 0-.24.17.17 0 0 0-.23-.02c-1.1.83-2.36 1.43-3.75 1.81Zm-17.08-1-.5.09c-.06 0-.1-.01-.14-.06-.32-.43-1.89.9-1.07 1.54.51.4 1.59-.84 1.9-1.2a.23.23 0 0 0-.05-.35.21.21 0 0 0-.14-.02Zm-2.33 2.18c.04 0 .08 0 .13-.03a.35.35 0 0 0 .1-.1.47.47 0 0 0 .08-.14.56.56 0 0 0 .03-.16.51.51 0 0 0-.1-.31.3.3 0 0 0-.23-.14.27.27 0 0 0-.13.04.35.35 0 0 0-.11.1.47.47 0 0 0-.08.13.55.55 0 0 0 .07.48.3.3 0 0 0 .24.13Z" fill="#00994E"/><path d="m23.63 31.33-.34.3a.17.17 0 0 0-.02.23l.06.08c.06.07.16.08.23.02l.34-.3a.17.17 0 0 0 .02-.23l-.06-.08a.16.16 0 0 0-.23-.02Zm7.87-5.32c.18.04.3.13.34.26-.15.15-.62.73-.82.38-.03-.05-.03-.1.02-.15l.46-.49ZM29 28.76c-.15.17-.77.94-1.16.62.23-.32.51-.59.85-.8.05-.03.1-.03.15 0 .07.05.12.11.16.18Z" fill="#00994E"/><path d="m31.23 26.8-1.35 1.22a.05.05 0 0 0 0 .06l.5.6c.02.02.05.02.07 0l1.35-1.22a.05.05 0 0 0 0-.06l-.5-.6a.04.04 0 0 0-.07 0Zm-3.76 2.79-.29.26a.12.12 0 0 0 0 .16l.12.15a.1.1 0 0 0 .16 0l.28-.26a.12.12 0 0 0 .01-.16l-.13-.14a.1.1 0 0 0-.15-.01Zm.69.55c.2.18.42.25.48.17.07-.08-.04-.28-.24-.45-.2-.17-.42-.25-.48-.17-.07.08.04.28.24.45Zm1.67 2.48a.36.36 0 0 0 .12.28.34.34 0 0 0 .27.08c.95-.12 1.28 1.34 1.18 2.04 0 .07-.04.1-.1.12-.56.1-1.54.24-1.2-.78 0-.06 0-.1-.04-.15-.32-.31-1.94-2.77-.25-2.44.04 0 .08.03.12.06a.28.28 0 0 1 .1.25.26.26 0 0 1-.06.13.7.7 0 0 0-.14.41Zm.8 1.24a.11.11 0 0 0 .01-.07.26.26 0 0 0-.03-.1.51.51 0 0 0-.07-.1.72.72 0 0 0-.23-.17.5.5 0 0 0-.12-.04h-.1a.1.1 0 0 0-.07.04.11.11 0 0 0-.01.08l.03.1.07.1a.73.73 0 0 0 .23.16.5.5 0 0 0 .12.04h.1a.1.1 0 0 0 .07-.04Z" fill="#00994E"/></svg>