<!-- by TradingView --><svg width="18" height="18" xmlns="http://www.w3.org/2000/svg"><path fill="#E20613" d="M0 0h18v18H0z"/><path d="M13.465 10.999s.485-2.095-1.052-2.57c.431-.11.74-.245.934-.375.754-.562.701-1.213.586-1.604-.151-.508-.885-1.048-1.852-1.285-2.569-.576-4.312.508-5.088.932-.826.449-1.882 1.344-2.119 1.548-.023.02-.032.052-.006.08.135.133.513.51.536.534.026.027.05.037.085 0 .385-.325.777-.617 1.273-.944l-1.52 3.594c-.519 1.211-1.25.615-1.25.615s-.213-.125-.558-.546c-.036-.047-.083-.026-.096.01-.006.018-.309.684-.322.718-.013.033-.03.062.003.102.431.555.83.756 1.24.967.602.304 2.112.417 3.086-.432.493-.448.592-.65.917-1.4l1.753-4.152c.234-.508.635-1.015 1.119-.898.418.103.368.762.368.762-.066.679-.418 1.137-1.085 1.308-.142.037-.352.034-.46.034-.057.004-.076.012-.1.068-.022.054-.193.486-.213.546-.02.06.006.148.092.148.076 0 .168-.011.243-.011.244 0 .625.16.704.5.056.241.106.493-.128 1.172-.224.652-.454.952-.734 1.126-.371.231-.763.228-1.26-.193-.042-.043-.075-.012-.082.011-.003.01-.256.609-.273.649-.02.04-.036.088.004.125.68.669 1.296.853 2.246.853.652 0 1.135-.112 1.563-.273 1.01-.371 1.32-1.162 1.446-1.72z" fill="#fff"/></svg>