<!-- by TradingView --><svg width="56" height="56" viewBox="0 0 56 56" xmlns="http://www.w3.org/2000/svg"><path fill="#F0F3FA" d="M0 0h56v56H0z"/><path d="M14.5 12H11v15.5c.5-2 1.5-3 3-4 1.2-.8 1.5-2.33 1.5-3-.17.17-.7.4-1.5 0s0-2.17.5-3h-2l2-1.5c-.33-.17-1-.7-1-1.5s.67-1 1-1V12Z" fill="#BC2455"/><path fill-rule="evenodd" d="M15 15.5c0-.8 1.33-2.67 2-3.5h2c1.67 0 5 .8 5 4v4c0 .83-.5 2.5-2.5 2.5.83.17 2.5.9 2.5 2.5v6c0 .67-.4 2-2 2h-9c-1.5 0-2-1-2-2s0-2.5 2.5-5 2.5-5 2.5-6c0-.5-.25-1.38-.5-2.25-.25-.88-.5-1.75-.5-2.25Zm2 5.5v-5h1c.8 0 1 .67 1 1v3c0 .8-.67 1-1 1h-1Zm0 9v-6h1c.8 0 1 .67 1 1v4c0 .8-.67 1-1 1h-1Zm-.5-14a.5.5 0 1 0 0-1 .5.5 0 0 0 0 1Z" fill="#BC2455"/><path fill="#BC2455" d="M25 12h6v21h-6zM45 22h-7v3h2v3.5c0 1-.7 1.5-1.5 1.5s-1.5-.5-1.5-1.5V18c0-1 .5-2 1.5-2s1.5 1 1.5 2v2h5v-4c0-.5-1-4-7-4-4.8 0-6 2.67-6 4v13c0 3 3 4 6 4 2.4 0 3-1 3-1.5l.5 1.5H45V22Z"/><path fill="#1F2353" d="M21 34h3v10h-3z"/><path fill-rule="evenodd" d="M13 34h-2v10h6c2 0 3-1 3-3.5 0-2-1-2.5-1.5-2.5.5 0 1.5-.4 1.5-2s-2-2-3-2h-4Zm1 2v2h2c.5 0 1-.5 1-1s-.2-1-1-1h-2Zm0 4v2h2c.33 0 1-.2 1-1s-.67-1-1-1h-2ZM38 34h-2v10h5c2.8 0 4-1.5 4-3v-4c0-2.8-2.5-3-4-3h-3Zm1 2v6h1.5c.5 0 1.5-.4 1.5-2v-3c0-.5-.7-1-1.5-1H39ZM27.5 34H25v10h3v-4h1c1.2 0 2.5 2.67 3 4h3c-.33-.5-1.1-1.8-1.5-3a3.55 3.55 0 0 0-1.5-2 25 25 0 0 1 .11-.06c.7-.34 1.89-.93 1.89-2.44 0-1.6-1-2.5-2-2.5h-4.5Zm.5 2v2h2c.5 0 1-.2 1-1s-.5-1-1-1h-2Z" fill="#1F2353"/></svg>