<!-- by TradingView --><svg width="18" height="18" viewBox="0 0 18 18" xmlns="http://www.w3.org/2000/svg"><path fill="#F0F3FA" d="M0 0h18v18H0z"/><path d="M2.67 11V6h4v5h-4Z" fill="#D3D3D3"/><path d="M3.08 6c-.13.22-.09.46 0 .56l.14.11c.11.09.23.18.23.34v2.35l1 .05.07-.36.06-.4v-.03c0-.16 0-.4.25-.37.27.04.3.35.27.53a2 2 0 0 1-.33.58v.1H3.08l.15.35h1.6c.3.13.94.37 1.13.3.24-.08.61-.57.48-1.02l-.03-.11c-.11-.37-.16-.54-.1-.83.04-.2.22-.71.36-1.06V6h-2.2l.05.1c.04.07.12.15.2.24.14.15.3.32.33.48.04.21-.2.64-.33.83l-.14-.13-.01-.29a2.88 2.88 0 0 1 0-.67c.1-.27-.02-.43-.17-.56H3.08Z" fill="#474747"/><path d="M3.06 9.75v-.27c.07 0 .25-.03.4-.1.17-.06.26-.44.28-.62L3.7 6.24l-.36-.14V6h2.2c.14.06.43.3.43.86 0 .55-.4.8-.59.86.26.14.77.53.77 1.03 0 .49-.64 1-1.05 1H3.06Zm1.27-3.53v1.47c1 0 1-.67 1-.86 0-.17-.05-.57-.33-.61a2.79 2.79 0 0 0-.67 0Zm0 1.71v1.44c.07.04.32.11.55.11.23 0 .53-.57.64-.85-.05-.2-.2-.63-.34-.7a2.58 2.58 0 0 0-.85 0Z" fill="#fff"/><path d="M3.66 9.06c0 .29-.38.4-.56.41.44 0 .7-.18.78-.26V6.56c0-.48-.42-.57-.62-.56v.18c.28 0 .38.17.4.26v2.62Zm1.18-3a.98.98 0 0 0-.44.17c.6-.05.87.18.87.62 0 .36-.13.58-.2.64.16-.02.47-.19.47-.64a.8.8 0 0 0-.7-.79Zm-.5 1.88c.14-.07.46-.21.65-.21.24 0 .65.46.65 1 0 .43-.43.66-.65.72.13-.14.39-.52.39-.84 0-.41-.3-.67-.63-.67h-.4Z" fill="#888"/><path d="m2.67 11-.67.99V7.12l.67-1.08V11Z" fill="url(#az43wji4h)"/><path d="M6 12H2l.67-1h4L6 12Z" fill="url(#bz43wji4h)"/><path d="M12 6h4v5h-4V6Z" fill="#D9D9D9"/><path fill-rule="evenodd" d="M16 8.93V6h-4.04c.14.27.49.97.49 1.58v.26c0 .66 0 1.39-.14 1.54-.16.18 0 .68.18.94.17.25 1.1.15 1.44 0 .2-.1.44-.02.68.06.17.06.35.11.52.12.43.01.47-.34.48-.55 0-.1.08-.28.18-.5l.21-.52Zm-1.6-2.26c-.5.05-.47 1.22-.47 1.37v.01c.05.17.18.52.37.62.24.13.75-.54 1-.89.18-.26.09-.38 0-.48-.02-.03-.05-.06-.06-.1-.08-.15-.32-.59-.84-.53Z" fill="#474747"/><path d="M12.36 6.02h1.73v.33c-.37 0-.62.3-.7.46a40.9 40.9 0 0 0-.09 2.57c.04.07.64.1 1.09.07.45-.04.52-.4.61-.47.08-.07.23-.44.3-.62l-.06.7a7.9 7.9 0 0 0-.1.39l.16.34h-2.83l-.1-.2.35-.2V6.8c0-.35-.24-.5-.36-.53v-.26Z"/><path d="M12.67 6v.17c.19 0 .25.22.26.33v2.52c0 .21-.3.34-.46.37v.21h2.8l.31-1.35h-.24c-.1.2-.37.63-.5.84a.68.68 0 0 1-.41.3h-.33c-.3 0-.4-.2-.42-.3V6.5c0-.28.28-.33.42-.32V6h-1.43Z" fill="#fff"/><path d="M12.67 6h.03c.16.05.45.2.45.46V9a.84.84 0 0 1-.42.3c.1-.07.2-.16.2-.28V6.5c0-.11-.07-.33-.26-.33v-.16Zm2.6 3.6h-2.8v-.13c.05 0 .1 0 .16-.02l.17-.07a.94.94 0 0 1 .43-.12c.1 0 .19.05.29.1.14.08.3.17.58.17.31 0 .48-.1.6-.18.07-.04.12-.07.17-.07.12 0 .27.17.33.25l.08.06Z" fill="#6B6B6B"/><path d="m12 11-.67 1V7.1L12 6v5Z" fill="url(#cz43wji4h)"/><path d="M15.48 12h-4.13l.65-1h4l-.52 1Z" fill="url(#dz43wji4h)"/><path d="M7.33 6h4v5h-4V6Z" fill="#D9D9D9"/><path d="M8.27 6c-.3.18-.67.44-.78.68-.18.42-.17 2-.03 2.62.14.62.87 1.04 1.55 1.08.55.03 1.04-.22 1.21-.36.1.07.33.2.4.2.08 0 .18-.09.23-.13a9.83 9.83 0 0 0-.17-1.88 1.46 1.46 0 0 0-.46 0l-.06.2c-.02.37-.2 1.13-.77 1.13-.7 0-.7-1.65-.7-1.93v-.02c0-.21.24-.86.73-.86.39 0 .84.65 1.01.97l.25.13c.06.03.17.08.17.04 0-.03.19-.5.29-.72l.2-.57V6h-1.02c-.17.12-.33.22-.42.2l-.16-.01c-.25-.03-.66-.09-.73-.08a.21.21 0 0 1-.12-.04l-.03-.01A.3.3 0 0 1 8.78 6h-.5Z" fill="#474747"/><path d="M8.69 7.28c.2-.53.83-.8 1.11-.88.09 0 .5.27.7.4l-.34-.55-.97-.12c-.46.06-1.38.5-1.38 1.86 0 1.68 1.13 2.03 1.47 2.12.35.09.57-.04.74-.09.17-.04.3.05.6.2.25.12.25-.12.23-.25l-.35-.79-.38.2c-.03.02-.76.53-1.18.07-.42-.46-.5-1.51-.25-2.17Z"/><path d="M9.4 9.82c-1.37 0-1.61-1.38-1.56-2.08C7.84 6.81 8.52 6 9.4 6c.7 0 .97.3 1.02.45l.16-.29h.17v1.48h-.29c-.1-.64-.5-1.36-1.06-1.36-.57 0-.88.83-.88 1.52 0 .69.21 1.82.88 1.82.53 0 .83-.48.92-.72v-.72h.43v1.77h-.33l-.14-.38c-.1.08-.41.25-.88.25Z" fill="#fff"/><path d="M8.03 7.96c0-.82.38-1.46.86-1.9-.36.1-1.08.62-1.08 1.9 0 1.28.8 1.8 1.3 1.83-.35-.28-1.08-1.02-1.08-1.83Z" fill="url(#ez43wji4h)"/><path d="M9.46 6.08c-.34 0-.51.3-.56.46.08-.08.28-.26.5-.26.63 0 .96.87 1.06 1.36h.16c-.08-1.14-.73-1.56-1.16-1.56Z" fill="#6B6B6B"/><path d="M10.3 9.42a5.2 5.2 0 0 1-.44.33c.15 0 .33-.1.4-.16l.16.36h.26c-.08-.22-.26-.64-.38-.53Zm.22-.76a.58.58 0 0 0-.21-.46v.65c0 .14-.11.3-.16.36.12-.08.37-.3.37-.55Z" fill="#666"/><path d="m7.33 11-.66 1V7.1L7.33 6v5Z" fill="#464646"/><path d="M10.67 12h-4l.66-1h4l-.66 1Z" fill="url(#fz43wji4h)"/><defs><linearGradient id="az43wji4h" x1="1.82" y1="9.11" x2="2.27" y2="9.1" gradientUnits="userSpaceOnUse"><stop stop-color="#B4B4B4"/><stop offset="1" stop-color="#464646"/></linearGradient><linearGradient id="bz43wji4h" x1="2.55" y1="12.2" x2="3.48" y2="10.4" gradientUnits="userSpaceOnUse"><stop stop-color="#FBFBFB"/><stop offset="1" stop-color="#444"/></linearGradient><linearGradient id="cz43wji4h" x1="11.15" y1="9.1" x2="11.61" y2="9.09" gradientUnits="userSpaceOnUse"><stop stop-color="#B4B4B4"/><stop offset="1" stop-color="#464646"/></linearGradient><linearGradient id="dz43wji4h" x1="11.89" y1="12.2" x2="12.82" y2="10.4" gradientUnits="userSpaceOnUse"><stop stop-color="#FBFBFB"/><stop offset="1" stop-color="#444"/></linearGradient><linearGradient id="ez43wji4h" x1="8.46" y1="9.51" x2="8.51" y2="6.73" gradientUnits="userSpaceOnUse"><stop stop-color="#686868"/><stop offset="1" stop-color="#BABABA"/></linearGradient><linearGradient id="fz43wji4h" x1="7.22" y1="12.2" x2="8.15" y2="10.4" gradientUnits="userSpaceOnUse"><stop stop-color="#FBFBFB"/><stop offset="1" stop-color="#444"/></linearGradient></defs></svg>