<!-- by TradingView --><svg width="56" height="56" viewBox="0 0 56 56" xmlns="http://www.w3.org/2000/svg"><path fill="#F0F3FA" d="M0 0h56v56H0z"/><path fill-rule="evenodd" d="m44 19-16-9-16 9v17.99l16 9 16-9v-18Zm-2 1.25L28 12.5l-14 7.75v15.5l14 7.75 14-7.75v-15.5Z" fill="#3F403B"/><path d="M16 21.53v4.53l2 1.41v1.85l-2 1.76v3.7l11.91 6.95L40 34.78v-3.7l-2-1.23v-2.38l2-1.4v-4.54L27.91 14 16 21.53Z" fill="url(#acqva5stg)"/><path d="M27.46 17.2c-9.52 0-10.2 4.49-10.2 5 .25.59 1.55 2.15 5.21 2.88a6.15 6.15 0 0 1 4.99 5.3V46h1.18V31c0-2.79 2.99-4.88 5.35-5.92 2.35-1.05 3.94-2 3.94-3.4 0-1.39-.95-4.48-10.47-4.48Z" fill="#D4403E"/><path d="m38.1 29.9-6.6 3.4.32 2.65L40 30.98l-1.9-1.08ZM16 31.07l8 4.62v-2.26l-6.1-3.88-1.9 1.44v.08Z" fill="#A2A89A"/><defs><linearGradient id="acqva5stg" x1="28" y1="14" x2="28" y2="41.73" gradientUnits="userSpaceOnUse"><stop stop-color="#857F71"/><stop offset="1" stop-color="#403E36"/></linearGradient></defs></svg>