<!-- by TradingView --><svg width="56" height="56" viewBox="0 0 56 56" xmlns="http://www.w3.org/2000/svg"><path fill="#F0F3FA" d="M0 0h56v56H0z"/><path fill-rule="evenodd" d="M41.41 12.95 37.5 11l-19.66 3.09L14 16.63l2.61 1.56-2.55 2.03 2.62 1.57-2.5 2.49 1.9 1.43a7.9 7.9 0 0 0-2.07 3.5l-.01.05V43h6c1 0 2-1 2-3 0-1.6-1-2.33-1.5-2.5.5-.17 1.5-.9 1.5-2.5s-1.67-2-2.5-2H15v-3.65c.14-.8 1.3-2.8 2.12-3.1l21.25-3.03A4.29 4.29 0 0 1 41 27.27V42h-5v-9h-2v10h8V27.27c0-2.5-1.44-4-2.62-4.68l2.54-2.02-2.99-1.49 2.97-1.97-3.12-2.07 2.63-2.09ZM15.85 20.1l1.87-1.49 20.08-3 2.26 1.5-2.33 1.55-20.11 2.5-1.77-1.06Zm23.68-6.95L37.7 14.6l-20.1 3-1.7-1.02 2.3-1.52 19.12-3 2.2 1.09Zm-21.79 9.02 20.09-2.5 2.2 1.1-1.81 1.45-21.09 3-1.4-1.05 2.01-2ZM18.5 42H16v-4h2.5c1 0 1.5.8 1.5 2s-.5 2-1.5 2Zm0-5H16v-3h3c.33 0 1 .3 1 1.5S19 37 18.5 37Zm6.5 6h-2l4-10h2l4 10h-2l-1.13-3h-3.75L25 43Zm3-8 1.5 4h-3l1.5-4Z"/></svg>