<!-- by TradingView --><svg width="18" height="18" viewBox="0 0 18 18" xmlns="http://www.w3.org/2000/svg"><path fill="#F0F3FA" d="M0 0h18v18H0z"/><path d="M12 9.52c-.2 3.9-4.09 5.28-6 5.48 2.22-.71 2.6-1.55 2.6-2.62 0-1.3-1.69-2.02-1.69-2.86 0-.6.13-1.07.92-1.07 1.17 0 1.3.95 1.3 1.55 0 .6.13 1.07.52 1.07.4 0 .52.24.52-1.3 0-1.56-2.74-2.39-2.74-3.34 0-.95.53-1.43 1.3-1.43 1.57 0 1.31 1.67 1.31 2.62 0 .76.44 1.27.66 1.43.08-.16.33-.48.65-.48.39 0 .65.36.65.95Z" fill="#A11C1F"/><path d="M6.4 11c.64 0 .64 1.33.56 2-.32-1-.96-1.13-.96-1.5 0-.38.08-.5.4-.5Z" fill="#E87DA1"/><circle cx="6.5" cy="6.5" r=".5" fill="#0E83C7"/><circle cx="12.5" cy="7.5" r=".5" fill="#F7B900"/><circle cx="11" cy="4" r="1" fill="#039452"/></svg>