<!-- by TradingView --><svg width="56" height="56" viewBox="0 0 56 56" xmlns="http://www.w3.org/2000/svg"><path fill="#F0F3FA" d="M0 0h56v56H0z"/><path fill-rule="evenodd" d="M8 24h7c.39 0 .98.08 1.49.36.53.29 1.01.8 1.01 1.64a2.5 2.5 0 0 1-.63 1.79c.59.3 1.13.84 1.13 1.71 0 .7-.13 1.38-.67 1.86-.51.47-1.3.64-2.33.64H8v-8Zm7.42 3.46c-.17 0-.32.02-.47.04H9V25h6c.28 0 .69.07 1.01.24.3.16.49.4.49.76 0 .63-.2.98-.45 1.18a1.4 1.4 0 0 1-.63.28ZM9 28.5h6c.16 0 .33-.01.5-.04.27.01.58.07.86.2.41.17.64.45.64.84 0 .61-.12.93-.33 1.12-.24.2-.7.38-1.67.38H9v-2.5Z" fill="#934397"/><path d="M40 24h8v1h-7v2.5h7v1h-7V32h-1v-8ZM22 20.5c0-1.2 2-2.17 3-2.5-1.5 0-4 1-4 2.5s1.5 3 5.5 4.5 4 1.5 4.5 2.5c.4.8-.17 2-.5 2.5.5-.33 1.5-1.3 1.5-2.5 0-1.5-3-2.5-5-3.5-1.84-.92-5-2-5-3.5ZM27 33l-1-1c-5.6 3.2-14.5 3-18 3l5 .5A42.4 42.4 0 0 0 27 33Z" fill="#007EC4"/><path d="m29 24.5-1-.5c7.2-2.8 13.67-3.83 16-4-5.2.8-12.17 3.33-15 4.5ZM27.5 26 26 25c-1.6.8-2 2.33-2 3 0 3.5 11 5.5 11 7.5 0 1.6-2.67 2.33-4 2.5 3.5 0 5-1 5-2.5S33 33 30.5 32s-5-2-5-4c0-1.6 1.33-2 2-2Z" fill="#934397"/><path d="M27 27v-.5h2.5v.5H27ZM27 30v-.5h2.5v.5H27ZM26 28v-.5h4.5v.5H26ZM26 29v-.5h4.5v.5H26Z" fill="#7D7F81"/></svg>