<!-- by TradingView --><svg width="56" height="56" viewBox="0 0 56 56" xmlns="http://www.w3.org/2000/svg"><path fill="#126A96" d="M0 0h56v56H0z"/><path d="M20.28 27c1.62 0 3.68-.57 3.68-2.5 0-1.9-2.08-2.5-3.68-2.5H13v5h7.28Zm-.5 8c1.79 0 4.18-.38 4.18-2.5 0-2.1-2.42-2.5-4.17-2.5H13v5h6.79Zm-.7-16c4.96 0 8.42 1.15 8.42 5.23 0 2.1-1.52 3.18-3.46 3.87v.07c2.34.72 3.96 2.37 3.96 4.77 0 3.58-3.75 5.06-7 5.06H8v-.65c.66 0 1-.22 1-.65V20.3c0-.43-.34-.65-1-.65V19h11.08Zm28.26 4c0-.7-.85-1-1.39-1H34v5h6.8c.6 0 1.54-.2 1.54-1H43v5h-.66c0-.99-.61-1-1.53-1H34v6.7c0 .56.56.65 1 .65V38h-6v-.65c.63 0 1-.22 1-.66V20.31c0-.44-.37-.66-1-.66V19h16.95c.6 0 1.4-.25 1.4-1H48v5h-.66Z" fill="#fff"/></svg>