<!-- by TradingView --><svg width="18" height="18" viewBox="0 0 18 18" xmlns="http://www.w3.org/2000/svg"><path fill="#F0F3FA" d="M0 0h18v18H0z"/><path d="M13.46 11.97c-1.25 2.08-4.26 2.66-6.72 1.3a5.54 5.54 0 0 1-2.03-1.9h.28a5.67 5.67 0 0 0 1.93 1.7c2.3 1.28 5 .9 6.04-.83 1.05-1.74.03-4.17-2.26-5.45-2.3-1.27-5-.9-6.05.84a3.04 3.04 0 0 0-.3 2.37l-.1.4a3.94 3.94 0 0 1 .3-3.37c1.24-2.08 4.25-2.66 6.71-1.3 2.47 1.37 3.45 4.16 2.2 6.24Z" fill="url(#atsbf4pqb)"/><path fill-rule="evenodd" d="M4.27 11.19h1.76c.29-.05.88-.3.88-.97 0-.35-.32-.58-.48-.66.19-.08.55-.35.55-.79A.73.73 0 0 0 6.3 8H4.84l-.57 3.19Zm1.2-2.6-.11.72h.5c.2 0 .46-.1.46-.37a.36.36 0 0 0-.24-.34h-.6Zm-.22 1.24-.14.74h.58c.21 0 .51-.08.51-.39 0-.24-.17-.32-.26-.35h-.69Z" fill="url(#btsbf4pqb)"/><path d="M8.63 11.3c.43 0 1-.25 1.24-.37l.25-1.46H8.96l-.1.54h.52c-.02.56-.37.71-.63.71s-.58-.1-.58-.74.32-1.4.79-1.4c.37 0 .52.3.55.43l.7-.13C10.17 8.58 9.9 8 9.12 8c-.96 0-1.65.7-1.65 1.86 0 1.16.62 1.44 1.16 1.44Z" fill="url(#ctsbf4pqb)"/><path d="M10.48 11.3 11.1 8h.68l-.45 2.57h1.39l-.16.73h-2.07Z" fill="url(#dtsbf4pqb)"/><path d="M8.47 3.68 8.34 3l-.13.68-.66-.23.53.45-.53.45.66-.23.13.68.13-.68.66.23-.53-.45.53-.45-.66.23Zm-1.89.27-.12-.68-.13.68-.67-.23.54.45-.54.45.67-.23.13.68.12-.68.67.23-.54-.45.54-.45-.67.23Zm-1.85.56.12.68.67-.23-.54.45.54.45-.67-.24-.12.68-.13-.68-.67.24.54-.45-.54-.45.67.23.13-.68Zm-.86 2.21-.1-.47-.08.47-.45-.16.36.3-.36.32.45-.16.09.46.09-.46.45.16-.37-.31.37-.3-.45.15ZM14.46 8.3l.09.47.45-.16-.37.3.37.31-.45-.16-.1.47-.08-.47-.45.16.36-.3-.36-.31.45.16.09-.47Zm-.63-1.32-.11-.57-.1.57-.56-.2.44.38-.44.38.55-.2.1.57.12-.56.55.19-.45-.38.45-.37-.55.2Zm-1.59-2.3.13.68.65-.23-.53.44.53.44-.65-.23-.13.67-.12-.67-.66.23.53-.44-.53-.44.66.23.12-.67ZM10.5 4l-.14-.73-.14.73-.71-.25.57.49-.57.48.71-.25.14.73.14-.73.71.25-.57-.48.57-.49-.71.25ZM3.33 7.86l.05.28.27-.1-.22.19.22.19-.27-.1-.05.28-.06-.28-.27.1.22-.19L3 8.04l.27.1.06-.28Zm10.97 2.49-.06-.28-.05.28-.27-.1.22.19-.22.19.27-.1.05.28.06-.28.27.1-.22-.19.22-.19-.27.1Z" fill="#274BA3"/><path d="M11.7 10.37h-.21l.39-2h.21l-.4 2Zm-1.09 1.1v.12h2.15l.2-.68h-.2l-.14.55c0-.01-1.34 0-2.01 0ZM6.66 9.58l.22.17c.12-.12.37-.43.37-.72 0-.3-.15-.46-.23-.5.04.07.1.27.1.44 0 .22-.31.55-.46.61Zm-2.25 2v-.21h1.73c.3-.1.9-.44.9-.97a2 2 0 0 0-.07-.36c.07.06.22.28.22.6 0 .4-.42.94-1.13.94H4.41Zm.96-1.64-.1.53h.17l.07-.36h.54c-.07-.13-.14-.17-.17-.17h-.51Zm.12-.66.08-.45h.44c.02 0 .08.03.14.15H5.7l-.06.3H5.5Zm4.17.07-.04-.2.74-.09-.17-.46c.23.27.3.54.32.63l-.85.12Zm-1.38.54c0 .28.13.46.2.52-.04-.11-.1-.62.18-1.09.24-.38.54-.36.66-.31 0-.06-.1-.17-.33-.17-.46 0-.7.7-.7 1.05Zm1.89-.17h.25l-.3 1.48c-.4.25-1.38.64-2.05.15.38.1 1.3.2 1.9-.33l.2-1.3Z"/><defs><linearGradient id="atsbf4pqb" x1="11.63" y1="6.35" x2="7.81" y2="13.76" gradientUnits="userSpaceOnUse"><stop stop-color="#3B7FCA"/><stop offset="1" stop-color="#283996"/></linearGradient><linearGradient id="btsbf4pqb" x1="5.63" y1="8" x2="5.63" y2="11.19" gradientUnits="userSpaceOnUse"><stop stop-color="#4AA2DF"/><stop offset="1" stop-color="#29439C"/></linearGradient><linearGradient id="ctsbf4pqb" x1="8.84" y1="8" x2="8.84" y2="11.3" gradientUnits="userSpaceOnUse"><stop stop-color="#4AA2DF"/><stop offset="1" stop-color="#2A3E98"/></linearGradient><linearGradient id="dtsbf4pqb" x1="11.6" y1="8" x2="11.6" y2="11.3" gradientUnits="userSpaceOnUse"><stop stop-color="#4AA2DF"/><stop offset="1" stop-color="#2A3E98"/></linearGradient></defs></svg>