<!-- by TradingView --><svg width="18" height="18" viewBox="0 0 18 18" fill="none" xmlns="http://www.w3.org/2000/svg">
<rect width="18" height="18" fill="#F0F3FA"/>
<path fill-rule="evenodd" clip-rule="evenodd" d="M8.37969 3.55957C8.35573 3.58915 8.34247 3.62634 8.34247 3.66492L8.34247 6.42826L6.57398 4.70335C6.54703 4.67752 6.51515 4.66594 6.47833 4.66862L5.88693 4.7127C5.82945 4.71716 5.79847 4.74788 5.79398 4.80488L5.74683 5.40339C5.7451 5.42651 5.74842 5.44978 5.75655 5.47166C5.76468 5.49355 5.77744 5.51354 5.79398 5.53031L7.98982 7.70793C8.03383 7.75157 8.03428 7.79521 7.99117 7.83885L7.69615 8.14612C7.68929 8.15324 7.68106 8.15892 7.67193 8.16284C7.6628 8.16675 7.65295 8.16884 7.64293 8.16896C7.63292 8.16908 7.62295 8.16725 7.61359 8.16356C7.60423 8.15987 7.59566 8.1544 7.58837 8.14746L5.27668 5.85094C5.24255 5.81621 5.20124 5.80196 5.15274 5.80819L4.55326 5.87499C4.50925 5.88033 4.48545 5.90483 4.48186 5.94847L4.42798 6.53228C4.42588 6.55614 4.42901 6.58011 4.43715 6.60249C4.4453 6.62488 4.45826 6.64515 4.47513 6.66187L6.08496 8.25434C6.08691 8.25622 6.08872 8.2582 6.09041 8.26029H3.66492C3.62083 8.26029 3.57855 8.27761 3.54738 8.30844L3.04869 8.80159C2.98377 8.86578 2.98377 8.96987 3.04869 9.03406L3.54738 9.52721C3.57855 9.55804 3.62083 9.57536 3.66492 9.57536H6.2549L4.55461 11.2469C4.52048 11.2807 4.50566 11.3217 4.51015 11.3698L4.56943 11.999C4.57392 12.0453 4.59951 12.0698 4.64621 12.0725L5.25377 12.1072C5.2897 12.109 5.32023 12.0974 5.34538 12.0725L7.57894 9.85482C7.58671 9.84706 7.59594 9.84091 7.60611 9.83671C7.61629 9.83251 7.6272 9.83034 7.63822 9.83034C7.64924 9.83034 7.66015 9.83251 7.67032 9.83671C7.68049 9.84091 7.68973 9.84706 7.69749 9.85482L8.02485 10.1808C8.05898 10.2146 8.05898 10.248 8.02485 10.281L5.74009 12.5481C5.72111 12.5665 5.70645 12.5888 5.69713 12.6135C5.68782 12.6382 5.68409 12.6647 5.68621 12.6911L5.72932 13.2896C5.73088 13.311 5.74018 13.3312 5.75552 13.3464C5.77086 13.3616 5.7912 13.3709 5.81284 13.3724L6.42175 13.4178C6.43919 13.4191 6.45672 13.4166 6.4732 13.4106C6.48969 13.4046 6.50475 13.3953 6.5174 13.3831L8.34247 11.5652V14.3351C8.34247 14.3792 8.35979 14.4214 8.39061 14.4526L8.88376 14.9513C8.94796 15.0162 9.05204 15.0162 9.11624 14.9513L9.60939 14.4526C9.64022 14.4214 9.65753 14.3792 9.65753 14.3351V11.7912L11.1462 13.2789C11.1812 13.3136 11.2234 13.3292 11.2728 13.3256L11.8952 13.2775C11.9392 13.274 11.9625 13.2504 11.9652 13.2067L12.0084 12.6029C12.0119 12.5557 11.9971 12.5156 11.9639 12.4827L9.75727 10.297C9.73883 10.2789 9.72836 10.2542 9.72811 10.2282C9.72786 10.2022 9.73784 10.1771 9.75593 10.1581L10.0725 9.83344C10.0782 9.82737 10.0851 9.82253 10.0927 9.81922C10.1004 9.8159 10.1086 9.81419 10.117 9.81419C10.1253 9.81419 10.1336 9.8159 10.1412 9.81922C10.1489 9.82253 10.1557 9.82737 10.1614 9.83344C10.9194 10.6136 11.6895 11.3827 12.4718 12.1406C12.5032 12.1709 12.5405 12.1847 12.5836 12.1821L13.2167 12.138C13.2347 12.1367 13.2516 12.1293 13.2643 12.117C13.2769 12.1047 13.2845 12.0884 13.2854 12.0712L13.3259 11.4353C13.3294 11.3872 13.3142 11.3462 13.2801 11.3124L11.5234 9.58362C11.5208 9.58106 11.5184 9.57829 11.5162 9.57536H14.3351C14.3792 9.57536 14.4214 9.55804 14.4526 9.52721L14.9513 9.03406C15.0162 8.96987 15.0162 8.86578 14.9513 8.80159L14.4526 8.30844C14.4214 8.27761 14.3792 8.26029 14.3351 8.26029H11.667L13.2033 6.75539C13.2217 6.73709 13.2358 6.71486 13.2444 6.69034C13.2531 6.66583 13.256 6.63966 13.2531 6.61378L13.1844 6.00992C13.1781 5.95915 13.1494 5.93244 13.0982 5.92976L12.4974 5.89102C12.4561 5.88835 12.4206 5.90171 12.3909 5.9311L10.1762 8.15547C10.1349 8.19733 10.0941 8.19689 10.0536 8.15414L9.72764 7.81748C9.7153 7.80499 9.70838 7.7882 9.70838 7.77072C9.70838 7.75323 9.7153 7.73645 9.72764 7.72396C10.4964 6.96246 11.2652 6.20052 12.0339 5.43813C12.0699 5.4025 12.0856 5.35931 12.0811 5.30854L12.0366 4.71003C12.033 4.66639 12.0092 4.64234 11.9652 4.63789L11.3604 4.57644C11.3119 4.57109 11.2706 4.58579 11.2364 4.62052L9.65753 6.20038L9.65754 3.66492C9.65754 3.62083 9.64022 3.57855 9.60939 3.54738L9.11624 3.04869C9.07963 3.01166 9.03004 2.99576 8.98228 3.00096C8.9463 3.00489 8.91135 3.02079 8.88377 3.04869L8.39061 3.54738C8.38676 3.55128 8.38312 3.55535 8.37969 3.55957ZM9.15864 8.94267C9.15885 8.95223 9.15523 8.96149 9.14857 8.96841L8.83586 9.29294C8.83255 9.29636 8.82861 9.29911 8.82423 9.30102C8.81986 9.30293 8.81515 9.30397 8.81038 9.30408C8.8056 9.30419 8.80085 9.30336 8.7964 9.30164C8.79194 9.29993 8.78787 9.29736 8.78442 9.29409L8.46497 8.99134C8.458 8.98473 8.45396 8.97565 8.45375 8.96609C8.45353 8.95652 8.45715 8.94727 8.46381 8.94035L8.77653 8.61582C8.77983 8.61239 8.78378 8.60965 8.78815 8.60774C8.79252 8.60582 8.79723 8.60479 8.802 8.60468C8.80678 8.60457 8.81153 8.6054 8.81598 8.60711C8.82044 8.60883 8.82451 8.6114 8.82796 8.61467L9.14741 8.91741C9.15438 8.92402 9.15842 8.93311 9.15864 8.94267Z" fill="#D2151E"/>
</svg>
