<!-- by TradingView --><svg width="18" height="18" viewBox="0 0 18 18" xmlns="http://www.w3.org/2000/svg"><path fill="#F0F3FA" d="M0 0h18v18H0z"/><path d="M6.46 3.6s3.6-1.74 6.43 1.5c0 0 2.45 2.49.62 6.26 0 0-.92 2-3.29 2.65 0 0-2.4.83-4.96-.89 0 0-2.84-1.72-2.03-5.75 0 0-1.03 3.14 1.28 5.64 0 0 2.05 2.6 5.85 1.86 0 0 3.52-.59 4.5-4.55 0 0 .86-3.28-1.64-5.6 0 0-2.76-2.95-6.76-1.12Z" fill="#B7E858"/><path fill-rule="evenodd" d="M7.44 6.17s.51.41.54.77c0 0-.3-.28-.37-.38 0 0-.18-.22-.18-.36v-.03ZM6.9 5s.44.24.45.63c0 0-.24-.2-.35-.35 0 0-.08-.1-.1-.24V5Zm.38-.98s.77.6 1.04 1.41c0 0 .32.73-.03 1.85 0 0 .61.72.33 1.3 0 0-.04-.26-.15-.46 0 0-.27-.5-.58-.75 0 0-.34-.35-.5-.64 0 0-.12-.43-.07-.66 0 0-.29-.22-.45-.5 0 0-.14-.34-.06-.64l-.12-.1s-.18.25-.37.39c0 0-.22.14-.5.23 0 0-.58.15-.97.33l-.07.02.22-.1s.7-.33.9-.44c0 0 .59-.34.7-.48 0 0-.18-.12-.32-.33 0 0-.1-.24-.22-.29l.07-.43.33.31s.03.04.03.1v.1l.05.04.02-.14s.1.06.2.18c0 0 .04.05.04.16 0 0 .38.28.55.57 0 0 .17.35.07.66 0 0 .4.33.53.59 0 0 .16.2.09.74l.21.22s.12-.65.07-.97c0 0-.1-.57-.35-.97 0 0-.4-.57-.75-.88l.06-.42Zm.12 4.8-.12-.24s.05-.1.3 0l.2.14-.38.1Zm1.54.37-.19.34s-.18.01-.11.08c0 0 .13.08.23.07 0 0 .2-.02.17.1 0 0-.11.3-.48.51 0 0-.12.1-.36.02 0 0-.44-.2-.5-.27 0 0 .25.13.53.13 0 0 .24-.01.47-.12 0 0-.24-.05-.34-.14 0 0-.08-.11 0-.22 0 0 .12-.22.51-.47l.07-.03Zm2.58 2.39.26-.29.36.3s-.17.25-.27.3l-.36-.24-.24.29-.42-.32.3-.33.37.29Zm1.41-.4.36.3-.25.34-.4-.31.3-.33Zm-2.8-3.29s.39-.1.63 0c0 0-.57.26-.74.42 0 0 .26-.12.54-.14 0 0 .04 0 .14-.08 0 0 .3-.23.38-.5 0 0 .04-.07-.06-.1 0 0-.44-.1-.6-.07 0 0-.05-.02-.08.05l-.22.42Zm.22 1.66.4.24-.23.36-.42-.27.25-.33Zm.92.4s.45-.09.6 0c0 0-.5.21-.59.3 0 0 .37-.1.48-.1l.16-.1.27-.37s.05-.1-.06-.1c0 0-.24-.07-.55-.03l-.3.4Zm2.04-.09s.06.24-.02.57c0 0-.1.4-.45.48 0 0-.3.05-.46-.2 0 0-.09-.12-.07-.29 0 0-.43.44-.77.46 0 0-.27.02-.45-.16 0 0-.12-.12-.16-.24 0 0-.21.31-.33.38 0 0-.2.17-.5.05 0 0-.24-.08-.35-.4 0 0-.1-.2-.1-.53l-.08.24s-.07.2-.18.3c0 0-.43.3-.82.45 0 0-.44.18-.8.13 0 0-.42-.05-.6-.36 0 0-.14-.17-.12-.36 0 0-.63.45-1.02.61 0 0-.3.89-.47 1.1 0 0-.03.04-.07.01l.02-.06c.03-.05.3-.63.35-1 0 0-.33.2-.83.06 0 0-.57-.12-.64-.76 0 0-.08-.59.28-1.15 0 0-.5-.31-.87-.83 0 0-.27-.36-.32-.82 0 0-.13-.59.36-.97 0 0 .36-.3.93-.1 0 0 .43.13 1 .67 0 0 .5.52.77.95 0 0 .36.52.34.68 0 0-.29-.46-.46-.68 0 0-.46-.54-.95-.92 0 0-.5-.36-.99-.43 0 0-.64-.08-.78.34 0 0-.05.13.05.42 0 0 .19.65.84 1.12 0 0 .46.34.63.43l-.08.44-.43-.26s-.12.19-.17.51c0 0-.12.44.28.79 0 0 .25.23.66.18 0 0 .23-.01.38-.08 0 0 .03-.22-.15-.6 0 0-.2-.35-.46-.5l.08-.42s.4.24.53.53c0 0 .24.4.2.9 0 0 .4-.13.97-.52 0 0 0-.03-.16-.08-.15-.05-.74-.18-.87-.21 0 0 .04-.17.13-.33 0 0 .01-.06.12-.11 0 0 .37-.25.95-.44 0 0-.14-.17-.14-.37 0 0 .01-.22.23-.39 0 0 .1-.09.3-.02 0 0 .3.1.58.48 0 0 .07.07.03.2l-.09.21s-.04.07-.11.08l-.52.13s-.01.14-.03.17c0 0-.03.03-.05-.03l-.05-.13s-.62.21-.68.26c0 0 .3.06.4.12 0 0 .14.11.14.28l-.03.17s-.04.1-.02.19c0 0 .09.28.4.38 0 0 .35.17.89 0 0 0 .6-.19.97-.48 0 0 .03-.02.04-.1l.06-.6s-.2-.02-.4-.3c0 0-.21-.3-.22-.77 0 0-.07.36-.13.5 0 0-.12.34-.34.5l-.36.18s-.57.28-.62.32c0 0-.02-.02.07-.1 0 0 .63-.49.73-.6 0 0 .36-.37.42-.5 0 0 .1-.15.13-.51 0 0 0-1.34-.03-1.5 0 0-.08-1.6-.12-1.8 0 0-.02 0 0-.05l.15-.33s.02-.05.04.02A8.86 8.86 0 0 0 9 5.59a2367.02 2367.02 0 0 0 .1 2.22l.05.56s.08.47.36.56v-1.3l-.05-1.65s.14-.34.19-.42a7.69 7.69 0 0 0 .15 1.43v.3s.52-.15.88-.45c0 0-.17-.18-.21-.25 0 0-.08-.07-.11-.17 0 0-.04-.07-.07-.09l-.1-.07.06-.41.39.3v.12s0 .03.06.07l.02-.14s.09.06.14.15c0 0 .05.1.05.23l1.28 1.06s.53.38.66.84c0 0 .16.3 0 .86 0 0-.16.43-.23.5 0 0-.06.07-.08.04l.03-.14s.13-.26.15-.59c0 0-.02-.37-.2-.64 0 0-.19-.27-.44-.47 0 0-1.2-.96-1.31-1.12 0 0-.22.26-.54.34 0 0-.32.08-.42.08 0 0 .03 1.5 0 1.65 0 0 .24-.01.38-.18 0 0 .17-.17.23-.26 0 0 .11-.12.14-.08 0 0 .02.03 0 .08l.02.18s.04.19.26.25c0 0 .2.06.42-.15l.2-.3s.05-.12.13-.15c0 0 .02.02-.01.1 0 0-.07.24.09.35 0 0 .22.19.45.04 0 0 0-.06-.05-.13l.17-.36s.06.19.06.34c0 0 0 .36-.2.52 0 0-.12.15-.34.1 0 0-.38-.09-.35-.41 0 0-.1.19-.2.3 0 0-.15.28-.5.18 0 0-.31-.15-.29-.5l-.26.31s-.22.2-.35.2c0 0 .01.44.04.58 0 0 .04.5.5.51 0 0 .3 0 .45-.22.15-.23.2-.29.25-.32l.03.1s.05.32.4.36c0 0 .28.08.74-.3 0 0 .2-.22.26-.19 0 0 .02.02 0 .06 0 0-.07.19.07.36 0 0 .14.17.4.1 0 0 .14-.04.18-.1l-.04-.16.22-.34Z" fill="#0054A6"/></svg>