<!-- by TradingView --><svg width="56" height="56" viewBox="0 0 56 56" fill="none" xmlns="http://www.w3.org/2000/svg">
<rect width="56" height="56" fill="#F0F3FA"/>
<path d="M36.6849 20.3282C36.5902 20.3509 36.5055 20.3339 36.4309 20.2769C36.2902 20.1716 36.2486 20.0364 36.306 19.8713L37.2232 17.254C37.2422 17.197 37.24 17.1353 37.217 17.0803C37.194 17.0254 37.1519 16.9809 37.0983 16.9552C31.0827 14.0006 20.6877 15.4821 20.903 24.1196C21.0193 28.8802 25.2823 30.2252 28.6755 32.2917C29.6918 32.9122 30.3578 33.6494 30.6736 34.5033C30.7511 34.7111 30.6994 34.7496 30.5186 34.6186C25.2565 30.887 18.5605 29.6445 18.9265 22.2153C19.4518 11.4217 32.2453 10.2433 39.8672 13.7999C39.9963 13.8597 40.0308 13.9536 39.9705 14.0817C39.1638 15.8009 38.6284 17.6056 38.3643 19.4956C38.248 20.3581 37.8605 20.6697 36.995 20.3453C36.8945 20.3082 36.7911 20.3026 36.6849 20.3282Z" fill="#D91E2B"/>
<path d="M18.9401 39.1444C23.7458 41.1298 31.2212 41.3262 34.6575 36.6638C35.7943 35.1239 36.2393 33.3562 35.9924 31.3609C35.2302 25.2425 27.449 25.7335 25.6964 21.4767C25.5845 21.2035 25.6548 21.1437 25.9074 21.2974C26.5964 21.7201 27.251 22.3477 27.9012 22.685C31.4494 24.5423 37.1895 27.0102 38.0163 31.3481C40.4707 44.1997 24.3486 46.0057 16.167 42.304C16.0091 42.23 15.9632 42.1133 16.0292 41.9539C16.8043 40.0382 17.3555 38.0599 17.6828 36.0191C17.7115 35.8426 17.8162 35.7544 17.9971 35.7544L19.4698 35.7458C19.6593 35.743 19.7253 35.8312 19.6679 36.0105L18.7679 38.773C18.7105 38.9495 18.7679 39.0733 18.9401 39.1444Z" fill="#0678BF"/>
</svg>
