<!-- by TradingView --><svg width="18" height="18" viewBox="0 0 18 18" xmlns="http://www.w3.org/2000/svg"><path fill="#F0F3FA" d="M0 0h18v18H0z"/><path d="M7 8.85V7.17l.67-.05v1.21c.56 0 .85 0 1.38-.4A5.28 5.28 0 0 1 11 7.17v.62c0 .17-.59.32-.8.32-.21 0-.56.17-.99.42C8.8 8.78 8.2 9 7.72 9c-.38 0-.64-.1-.72-.15Z" fill="#F61A29"/><path d="M7.19 7.33A2.17 2.17 0 0 1 5 5.18 2.2 2.2 0 0 1 7.19 3c.75 0 1.42.4 1.81.98l-.4.4-.1-.12c-.3-.4-.77-.6-1.31-.6-.9 0-1.52.65-1.52 1.52s.63 1.49 1.52 1.49c.2 0 .44-.08.66-.18.15-.07.35-.03.44.12a.4.4 0 0 1 .04.2c0 .1-.04.22-.12.27-.3.18-.69.25-1.02.25Z" fill="#F61A29"/><path d="M13 5.18a2.22 2.22 0 0 1-2.27 2.15 2.3 2.3 0 0 1-.91-.18.3.3 0 0 1-.16-.28c0-.07.02-.14.05-.2.09-.13.27-.17.42-.11.19.07.4.1.6.1.91 0 1.6-.6 1.6-1.48 0-.87-.66-1.51-1.58-1.51-.55 0-.98.17-1.35.55l-.82.87a.34.34 0 0 1-.45.04.31.31 0 0 1-.04-.47l.8-.84A2.5 2.5 0 0 1 10.75 3C12 3 13 4 13 5.18Z" fill="#F61A29"/><path d="M6.49 9.64c0-.2.17-.47.25-.58.12.04.4.12.58.12.18 0 .44-.04.54-.06.14.1.43.36.43.55 0 .4-.26.68-.26 1.08 0 .15.06.43.35.43.43 0 .46-.5.46-.74.37.18.34.61.34.7 0 .1 0 .19.17.19.23 0 .54-.28.72-.28.17 0 .2.07.2.16-.2.8-.83.93-1.1.92-.09.18-.21.46-.7.46s-.56-.25-.7-.46c-.86 0-1.06-.68-1.06-.8s.02-.3.08-.3c.17 0 .27.3.58.3.32 0 .26-.43.26-.7 0-.23.23-.59.35-.74-.05.02-.2.06-.38.06a.94.94 0 0 1-.45-.15c.06-.08.26-.29.26-.39-.31.1-.5.35-.5.48 0 .1.16.2.24.23-.21.18-.63.64-.63 1.06 0 .98 1.14 1.38 1.37 1.47.09.55.66.92 1.2.92.44 0 .8-.25.97-.37l.18.16c-.15.18-.46.64-1.23.64-.78 0-1.18-.5-1.55-1.1C6.4 12.19 6 11.76 6 11.12c0-.52.4-.98.6-1.14a.63.63 0 0 1-.11-.34Zm3.65-.23c-.21 0-.5.27-.61.4.21.06.26.25.37.3.1-.16.5-.25.69-.27-.06-.14-.24-.43-.45-.43Z"/><path d="M11.07 8c-.27.3-.67.34-.9.32.1.15.07.27.07.47-.79.03-1.06.42-1.06.53 0 .12 0 .18.12.18s.2-.32.5-.32.58.11.64.23a.6.6 0 0 1 .2-.2c.1.04.3.28.3.61 0 .42-.14.6-.14.74 0 .15.06.26.2.26.16 0 .07 0 .34-.2.22-.17.49-.25.6-.27.02-.1.06-.4.06-.7 0-.9-.44-1.26-.92-1.64L11.07 8Zm.2 3.89c0 .87-.92.93-1.39.85.18.24.53.55.96.55.43 0 .8-.45.8-1.08 0-.96-.3-1.1-.47-1.01-.18.08.1.45.1.69Z"/><path d="M8.8 14.1a4.1 4.1 0 0 1-1-.1c-.62.07-1.27.19-1.62.27-.13.04-.2.1-.17.18a1 1 0 0 0 .41.47c.1.06.27.08.4.04.54-.15.99-.41 1.18-.52.06.13.36.27.8.27.44 0 .68-.11.8-.27.3.15.67.36 1.06.5.22.1.55.07.71-.04l.57-.4c.11-.08.06-.18-.11-.22-.66-.15-1.57-.25-2.03-.28-.1.03-.48.1-1 .1Z" fill="#007DBC"/></svg>