<!-- by TradingView --><svg width="18" height="18" viewBox="0 0 18 18" xmlns="http://www.w3.org/2000/svg"><path fill="#2B3283" d="M0 0h18v18H0z"/><path fill-rule="evenodd" d="M7.16 12c.56 0 1-.1 1.34-.3v.3h2V9.71L12.4 12H15l-2.75-3.14L14.85 6h-2.47L10.5 8.29V6h-2v.38A2.4 2.4 0 0 0 7.08 6H4v6h3.16ZM6 8.29h.63c.35 0 .58-.16.58-.43 0-.29-.29-.43-.58-.43H6v.86Zm.76 2.28c.35 0 .6-.14.6-.43s-.27-.43-.6-.43H6v.86h.76Zm1.74-.07a1.5 1.5 0 1 0 0-3 1.5 1.5 0 0 0 0 3Z" fill="#fff"/><path d="M9.5 9a1 1 0 1 1-2 0 1 1 0 0 1 2 0Z" fill="#EC6708"/></svg>