<!-- by TradingView --><svg width="18" height="18" viewBox="0 0 18 18" xmlns="http://www.w3.org/2000/svg"><path fill="#F0F3FA" d="M0 0h18v18H0z"/><path fill-rule="evenodd" d="M2 12V6h2.19c.49.05 1.41.45 1.41 1.62 0 .59-.38 1-.6 1.15.33.12 1 .58 1 1.46C6 11.33 4.82 12 4.07 12H2Zm.8-5.25h.89c.61 0 1.11.42 1.11.94s-.5.93-1.11.93H2.8V6.75Zm0 2.62h1.14c.7 0 1.26.41 1.26.91v.06c0 .5-.56.91-1.26.91H2.8V9.37ZM12 12V6h2.07c.75 0 1.93.54 1.93 1.64 0 1.55-.98 1.73-2.23 1.73h-.97V12H12Zm2.29-3.38H12.8V6.75h1.49c.56 0 .91.39.91.89v.06c0 .5-.35.92-.91.92Z" fill="#6F6460"/><path d="M11.99 9.25 12 9a3 3 0 1 0-6 .24h.05a.88.88 0 0 1 .47.15c.12.07.25.13.46.13.21 0 .32-.06.45-.13h.01c.13-.08.27-.15.51-.15s.4.08.54.15c.14.07.25.13.42.13.17 0 .29-.06.44-.13.16-.07.33-.15.58-.15.26 0 .45.07.6.15l.04.02c.14.06.24.1.35.1.11 0 .22-.05.35-.12a.96.96 0 0 1 .72-.14Z" fill="#F26A20"/><path d="m11.96 9.48-.22-.01a.76.76 0 0 0-.36.13.95.95 0 0 1-.46.15c-.17 0-.31-.07-.44-.13l-.05-.02c-.14-.07-.3-.13-.5-.13s-.33.06-.48.13h-.01c-.15.07-.3.15-.53.15-.22 0-.38-.08-.51-.15h-.01a.88.88 0 0 0-.44-.13.7.7 0 0 0-.4.12h-.01c-.14.08-.3.16-.56.16-.26 0-.43-.08-.57-.15l-.03-.02c-.13-.07-.21-.11-.33-.11h-.01l.05.27c.16.01.28.08.4.14 0 0 .02 0 .03.02.12.06.25.12.46.12.21 0 .32-.06.45-.12l.01-.01a.97.97 0 0 1 .51-.15c.24 0 .4.08.54.15.14.08.25.13.42.13.17 0 .29-.05.44-.12a1.2 1.2 0 0 1 1.18-.01l.04.02c.14.07.24.11.35.11.11 0 .22-.05.35-.12a.96.96 0 0 1 .64-.15l.05-.27Z" fill="#F26A20"/><path d="M11.84 9.98h-.1a.76.76 0 0 0-.36.12c-.13.07-.28.16-.46.16-.17 0-.31-.07-.44-.13l-.05-.02c-.14-.07-.3-.13-.5-.13s-.33.06-.48.13h-.01c-.15.07-.3.15-.53.15-.22 0-.38-.08-.51-.15h-.01a.88.88 0 0 0-.44-.13.75.75 0 0 0-.4.12h-.01a1.07 1.07 0 0 1-1.13 0l-.03-.01a1.07 1.07 0 0 0-.21-.1l.12.3a1.49 1.49 0 0 1 .23.11c.12.07.25.13.46.13.21 0 .32-.06.45-.13h.01a.97.97 0 0 1 .51-.15c.24 0 .4.08.54.15.14.07.25.13.42.13.17 0 .29-.06.44-.13.16-.07.33-.15.58-.15.26 0 .45.08.6.15l.04.02c.14.06.24.1.35.1.11 0 .22-.04.35-.12a.97.97 0 0 1 .46-.15l.1-.27Z" fill="#F26A20"/><path d="m11.6 10.5-.22.1v.01a.95.95 0 0 1-.46.15c-.17 0-.31-.07-.44-.13l-.05-.02c-.14-.07-.3-.13-.5-.13s-.33.06-.48.13l-.01.01c-.15.07-.3.14-.53.14-.22 0-.38-.08-.51-.15h-.01a.88.88 0 0 0-.44-.13c-.18 0-.28.06-.4.12h-.01a1.1 1.1 0 0 1-1.04.04c.1.17.22.32.35.46h.13c.21 0 .32-.05.45-.12h.01a.97.97 0 0 1 .51-.16c.24 0 .4.09.54.16s.25.12.42.12c.17 0 .29-.05.44-.12.16-.08.33-.16.58-.16.26 0 .45.08.6.16l.04.02c.14.06.24.1.35.1.1 0 .2-.04.32-.1a3 3 0 0 0 .35-.5Z" fill="#F26A20"/><path d="M10.88 11.34a1.05 1.05 0 0 1-.4-.13l-.05-.02c-.14-.07-.3-.13-.5-.13s-.33.06-.48.13h-.01c-.15.07-.3.15-.53.15-.22 0-.38-.08-.51-.15h-.01a.88.88 0 0 0-.44-.13.7.7 0 0 0-.4.12h-.01a.94.94 0 0 1-.43.15 3 3 0 0 0 .26.19l.06-.04h.01a.97.97 0 0 1 .51-.15c.24 0 .4.08.54.15.14.07.25.13.42.13.17 0 .29-.06.44-.12a1.2 1.2 0 0 1 1.18-.01l.04.02.05.02c.1-.05.18-.12.26-.18Z" fill="#F26A20"/><path d="M10.37 11.67a1.03 1.03 0 0 0-.92.02l-.01.01c-.15.07-.3.15-.53.15-.22 0-.38-.08-.51-.15h-.01a.88.88 0 0 0-.44-.14.68.68 0 0 0-.35.1c.14.07.28.13.43.18.14.01.26.05.36.1a3.01 3.01 0 0 0 .99.04 1.24 1.24 0 0 1 .6-.14c.13-.05.27-.1.4-.17Z" fill="#F26A20"/></svg>