<!-- by TradingView --><svg width="56" height="56" viewBox="0 0 56 56" xmlns="http://www.w3.org/2000/svg"><path fill="#F0F3FA" d="M0 0h56v56H0z"/><path d="M23 36.13c0 4.92 2.37 8.63 3.55 9.87a24.2 24.2 0 0 1-.55-5.5c0-6.67 2.98-10.86 5-12.5v4c.78-.43 2.64-1.61 4-2 0 9.14-3.66 14.06-6 16 10.06-3.79 11-18.55 11-26v-4c-1.03 2.72-2.57 3.78-3 4v-3c-3.71 3.07-14 12.99-14 19.13Z" fill="#EF563F"/><path d="M16 28.17c0-6.14 1.1-14 1.66-17.17 1.79 3.8 3.57 7.8 4.34 9 0-.8.27-3.27 1-4-.33 2.5 1.37 7.17 3.77 10.83C29.17 30.5 31 34.58 31 37.92c0 3.33-1.08 6.41-2.49 9.08.17-11.42-4.89-17.08-6.3-19a11.14 11.14 0 0 0-1.71 5.67c0 6.58 4.01 10 6.5 13.33-7.87-4.33-11-11.17-11-18.83Z" fill="#2C4599"/></svg>