<!-- by TradingView --><svg width="56" height="56" viewBox="0 0 56 56" xmlns="http://www.w3.org/2000/svg"><path fill="#F0F3FA" d="M0 0h56v56H0z"/><path d="m21 28 3.11-3.11 7 7L28 35l-7-7ZM24.89 24.11 28 21l4.67 4.67-3.11 3.1-4.67-4.66ZM30.33 29.56l3.11-3.12L35 28l-3.11 3.11-1.56-1.55ZM35 28l3.11-3.11 7 7L42 35l-7-7ZM38.89 24.11 42 21l4.67 4.67-3.11 3.1-4.67-4.66ZM44.33 29.56l3.11-3.12L49 28l-3.11 3.11-1.56-1.55ZM7 28l3.11-3.11 7 7L14 35l-7-7ZM14.78 28l3.1-3.11L21 28l-3.11 3.11L14.78 28ZM10.89 24.11 14 21l3.11 3.11L14 27.22l-3.11-3.1Z" fill="#0A5E36"/></svg>