<!-- by TradingView --><svg width="18" height="18" viewBox="0 0 18 18" xmlns="http://www.w3.org/2000/svg"><path fill="#F0F3FA" d="M0 0h18v18H0z"/><path d="m4.34 7.28.98-.67a1.54 1.54 0 0 1-.44-1.08c0-.41.44-.64.87-.64h1.07c.06 0 .14.04.03.19-.13.18-1.62 2.35-1.62 3.74 0 1.35 1.98 1.56 4.06.54l-.03.1c-.06.19-.05.55.43.54.48 0 1.71-.3 2.27-.45V9.3l-1.03.05c-.18.04-.5-.07-.36-.8.15-.72.88-3.33 1.23-4.54-.32 0-1.07.04-1.45.1-.47.08-.55.3-.53.37.02.07.12.1.66.1l-1.02 4.1a4.4 4.4 0 0 1-2.1.55c-1.4 0-.95-1.26-.54-2.2C7.15 6.25 8 4.8 8.38 4.15c.02-.05 0-.16-.2-.16a.43.43 0 0 0-.37.2c-.09-.06-.42-.2-1.09-.2-.84 0-3.69 1-2.38 3.28Z" fill="#EC1D25"/><path d="m14 7-1.04 1.1c.01-.46-.22-1.4-1.2-1.4-2.24 0-3.33 2.25-3.33 3.36 0 1.1.47 2.03 1.57 2.03.63 0 1.18-.4 1.54-.75.16-.64.32-1.27.4-1.67H10.1c-.17-.5.66-.66 1.1-.67h2.5a.76.76 0 0 1-.68.67h-.18c-.06.56-.26 1.88-.61 2.72a4.2 4.2 0 0 1-4.5 2.57l.71-.88c1.15.3 2.18 0 2.55-.92.1-.26.23-.67.36-1.13a4 4 0 0 1-2.2.64c-1.37 0-1.77-1.25-1.8-1.88C7.35 7.7 10.3 6 11.94 6c1.62 0 1.9.65 2.06 1Z" fill="#284163"/></svg>