<!-- by TradingView --><svg width="18" height="18" viewBox="0 0 18 18" xmlns="http://www.w3.org/2000/svg"><path fill="#F0F3FA" d="M0 0h18v18H0z"/><path fill-rule="evenodd" d="M9 14A5 5 0 1 0 9 4a5 5 0 0 0 0 10Zm-.65-7.42a2.5 2.5 0 0 1 1.3 0 .17.17 0 1 1-.09.33 2.17 2.17 0 0 0-1.12 0 .17.17 0 1 1-.09-.33Zm-.37.32c.04.08.02.18-.06.22-.33.2-.6.47-.8.8a.17.17 0 1 1-.29-.17c.22-.38.54-.7.92-.92a.17.17 0 0 1 .23.07Zm2.04 0c.05-.08.15-.11.23-.07.38.22.7.54.92.92a.17.17 0 1 1-.3.17c-.18-.33-.46-.6-.79-.8a.17.17 0 0 1-.06-.22ZM6.8 8.23c.09.03.14.12.12.2a2.17 2.17 0 0 0 0 1.13.17.17 0 1 1-.33.09 2.5 2.5 0 0 1 0-1.3.17.17 0 0 1 .2-.12Zm4.42 0c.09-.02.18.03.2.12a2.5 2.5 0 0 1 0 1.3.17.17 0 0 1-.32-.09 2.17 2.17 0 0 0 0-1.12.17.17 0 0 1 .12-.2Zm-4.31 1.8a.17.17 0 0 1 .22.05c.2.33.47.6.8.8a.17.17 0 1 1-.17.29c-.38-.22-.7-.54-.92-.92a.17.17 0 0 1 .07-.23Zm4.2 0c.08.04.11.14.07.22-.22.38-.54.7-.92.92a.17.17 0 1 1-.17-.3c.33-.18.6-.46.8-.79.04-.08.14-.1.22-.06ZM8.23 11.2a.17.17 0 0 1 .2-.12 2.17 2.17 0 0 0 1.13 0 .17.17 0 1 1 .09.33 2.5 2.5 0 0 1-1.3 0 .17.17 0 0 1-.12-.2ZM9 9.94a.94.94 0 1 0 0-1.88.94.94 0 0 0 0 1.88Zm0 .62a1.56 1.56 0 1 0 0-3.12 1.56 1.56 0 0 0 0 3.12Z" fill="#730003"/><path fill-rule="evenodd" d="M9 11.81A2.81 2.81 0 1 0 9 6.2a2.81 2.81 0 0 0 0 5.62Zm0 .31a3.12 3.12 0 1 0 0-6.24 3.12 3.12 0 0 0 0 6.25Z" fill="#A96466"/><path d="M8.93 7.75a1.27 1.27 0 0 1 .14 0 .12.12 0 1 1-.01.25 1.02 1.02 0 0 0-.12 0 .13.13 0 0 1-.01-.25Zm.73.33a.12.12 0 0 1 .17-.01l.1.1a.12.12 0 0 1-.18.16 1 1 0 0 0-.08-.08.12.12 0 0 1-.01-.17Zm-1.32 0c.05.05.05.13 0 .17a1 1 0 0 0-.09.08.12.12 0 0 1-.18-.16l.1-.1a.12.12 0 0 1 .17 0Zm-.46.73c.07 0 .13.06.12.13a1.02 1.02 0 0 0 0 .12.13.13 0 0 1-.25.01 1.27 1.27 0 0 1 0-.14c0-.07.06-.12.13-.12Zm2.24 0c.07 0 .12.05.13.12a1.25 1.25 0 0 1 0 .14.12.12 0 1 1-.25-.01 1.02 1.02 0 0 0 0-.12c0-.07.05-.12.12-.13Zm-.2.85c.05.04.06.12.01.17l-.1.1a.12.12 0 0 1-.16-.18 1 1 0 0 0 .08-.08.12.12 0 0 1 .17-.01Zm-1.84 0a.12.12 0 0 1 .17 0 1 1 0 0 0 .08.09.12.12 0 0 1-.16.18 1.26 1.26 0 0 1-.1-.1.12.12 0 0 1 0-.17Zm.73.46c0-.07.06-.13.13-.12a1.02 1.02 0 0 0 .12 0 .12.12 0 1 1 .01.25 1.25 1.25 0 0 1-.14 0 .12.12 0 0 1-.12-.13Z" fill="#730003"/><path d="M11.87 11a3.5 3.5 0 0 1-5.74 0H4.97a4.5 4.5 0 0 0 8.06 0h-1.16ZM6.13 7a3.5 3.5 0 0 1 5.74 0h1.16a4.5 4.5 0 0 0-8.06 0h1.16Z" fill="#D9D9D9"/></svg>