<!-- by TradingView --><svg width="18" height="18" viewBox="0 0 18 18" xmlns="http://www.w3.org/2000/svg"><path fill="#F0F3FA" d="M0 0h18v18H0z"/><path d="M6.83 6C8.46 6 9.63 7.35 10 8a4.35 4.35 0 0 0-2.33-.72c-1.44 0-3.17 1.46-3.17 3.46 0 2.78 2.1 2.74 3.83 3.23-3.8.37-5.33-2.4-5.33-4.12C3 8.14 4.8 6 6.83 6Z" fill="#1D1D1D"/><path d="M9.14 11a3.87 3.87 0 0 0 2.2-3.48c-.02-1.7-1.38-3.85-3.3-3.82C6.79 3.72 5.97 4.9 5 5.8 6.02 3.66 7.53 2.99 8.9 3c2.46.02 4.12 2.13 4.1 4.52A3.52 3.52 0 0 1 9.14 11Z" fill="#DD3637"/><path d="M7.25 11.75c-.65-1.54.13-3.12.6-3.75a4.8 4.8 0 0 0 .38 2.43c.42 1.01 1.69 1.8 3.1 1.82 1.57.03 3.32-.83 3.34-2.72 0-.82-.31-1.7-.41-2.53.5.91.71 1.76.74 2.53.07 2.23-1.68 4.5-4 4.47-1.49-.02-3.15-.83-3.75-2.25Z" fill="#9C9C9C"/></svg>