<!-- by TradingView --><svg width="18" height="18" viewBox="0 0 18 18" xmlns="http://www.w3.org/2000/svg"><path fill="#F0F3FA" d="M0 0h18v18H0z"/><path d="M2 9.5C2 6.76 7.77 4.7 11.5 4 5.63 5.65 4 7.09 4 9c0 1.91 2.99 1.67 4.21 1.67C3.73 11.5 2 10.63 2 9.49Z" fill="#C5CAD0"/><path d="M16 8.5c0 2.73-6.33 4.8-10 5.5 5.76-1.65 8-3.09 8-5 0-1.91-2.9-1.67-4.1-1.67 4.4-.84 6.1.04 6.1 1.18Z" fill="#C5CAD0"/><circle cx="9" cy="9" r="4" fill="#0F1551"/><circle cx="9.5" cy="7.5" r="1.5" fill="#8384AB"/><circle cx="10.5" cy="6.5" r=".5" fill="#C3C3D9"/><path d="M9 8h.35v2H9V8ZM8 9.43c-.16.34-.58.57-.98.57A1 1 0 0 1 6 9a1 1 0 0 1 1.02-1c.4 0 .82.23.98.57h-.4a.81.81 0 0 0-.6-.32c-.37 0-.67.36-.67.75 0 .4.3.75.67.75.22 0 .48-.15.6-.32H8Zm4 0c-.16.34-.58.57-.98.57A1 1 0 0 1 10 9a1 1 0 0 1 1.02-1c.4 0 .82.23.98.57h-.4a.81.81 0 0 0-.6-.32c-.37 0-.67.36-.67.75 0 .4.3.75.67.75.22 0 .48-.15.6-.32h.4Z" fill="#fff"/></svg>