<!-- by TradingView --><svg width="18" height="18" viewBox="0 0 18 18" xmlns="http://www.w3.org/2000/svg"><path fill="#F0F3FA" d="M0 0h18v18H0z"/><path d="M7.29 6.48h3.42v2.59c0 .6-.22 1.19-.6 1.58L9 11.75l-1.1-1.1c-.39-.4-.61-.97-.61-1.58V6.48ZM9 11.3l.98-1.04c.23-.24.45-.7.45-1.07v-2.4H7.57v2.39c0 .37.13.83.36 1.07L9 11.29Z" fill="#5247B4"/><path d="M8 7h2v2.07c0 .44-.13.85-.36 1.13L9 11l-.64-.8C8.13 9.92 8 9.5 8 9.07V7Zm1 3.67.57-.75c.14-.18.18-.5.18-.77V7.33h-1.5v1.82c0 .27.04.6.18.77l.57.75Zm.29-6.42c0 .05-.05.1-.08.15a.29.29 0 0 1 .1-.02c.15 0 .26.1.26.24 0 .14-.1.25-.26.25a.28.28 0 0 1-.18-.06c0 .16.06.48.41.48.23 0 .36-.12.4-.18.02.04.12.13.28.13.2 0 .3-.13.34-.23a.19.19 0 0 1-.14-.18c0-.1.1-.18.2-.18.07 0 .13.02.17.07.07-.07.16-.1.26-.1.12 0 .2.04.24.06a.98.98 0 0 0-.58.87H7.3c0-.5-.38-.78-.58-.87a.47.47 0 0 1 .24-.06c.1 0 .19.06.26.13a.2.2 0 0 1 .16-.07c.11 0 .2.08.2.18 0 .09-.05.16-.13.18.05.1.14.2.34.2.16 0 .26-.09.29-.13.03.06.16.18.39.18.35 0 .42-.32.4-.48a.28.28 0 0 1-.17.06.25.25 0 0 1-.26-.25c0-.13.1-.24.26-.24l.08.01a.24.24 0 0 1-.06-.14c0-.14.14-.25.29-.25.15 0 .29.11.29.25ZM7.29 6h3.43v.31H7.29z" fill="#5247B4"/><path d="m8.43 8.52.02-.8h.26v.62h.58v-.62h.26l.02.8c0 .3-.02.93-.15 1.07H9.1c.06-.08.2-.44.2-.93h-.6c0 .5.14.85.2.93h-.33c-.13-.14-.15-.77-.15-1.07Z" fill="#5247B4"/><path fill-rule="evenodd" d="M12.93 6.05c.16.06.43.08.55.08-.03 0-.12.12-.16.17l.07.3c.05.22.12.24.14.24h.02c.02 0 .03.01.08-.04-.01.22-.1.25-.15.26-.04.02-.08.03-.08.1 0 .08.06.13.1.13.06 0 .06-.01.12-.07.05.25-.18.35-.25.38h-.01c-.02.08.03.16.11.16s.1-.04.14-.1l.01-.03c.05.29-.1.44-.2.47.07.3.31.54.52.73l.02.02c.2.2.56.35.66.35.11 0 .2-.05.2-.19 0-.1-.1-.22-.14-.27-.01.04-.08.13-.24.13-.16 0-.32-.15-.38-.22l.3-.07c-.26-.03-.71-.16-.71-.54 0-.25.15-.36.27-.44.08-.06.15-.11.15-.2a.51.51 0 0 0-.07-.24c-.03-.09-.14-.18-.14-.31 0-.39.35-.54.5-.55-.06.04-.22.18-.22.23 0 .06.08.13.21.23.16.11.2.28.2.35a.25.25 0 0 1 .17-.06c.19 0 .19.21.16.32 0-.03-.04-.09-.07-.09-.04 0-.05.03-.08.13-.07.27-.33.32-.48.36a2.04 2.04 0 0 0-.09.02c-.13.03-.29.07-.29.27 0 .22.12.24.27.28h.01l.44.1c.07-.14.03-.26-.06-.4.32.04.39.27.39.34 0 .06-.06.18-.12.2.03.03.2.21.2.47s-.25.34-.34.34a1.2 1.2 0 0 1-.27-.05c.01.03.04.1.04.24 0 .35-.39.32-.43.32.06.08.25.07.4.05h.16c.17 0 .28.17.28.25 0 .09-.03.15-.06.2 0-.17-.51.6-.62.69.05-.13 0-.25-.05-.25-.06 0-.13.05-.13.1 0 .08.09.08.13.07-.02.04-.09.12-.16.12l-.16-.03a.6.6 0 0 0-.16-.04c-.08 0-.05.14-.03.21l-.12.16c.12.07.19.19.19.33 0 .54-.64.37-.84.29.39.05.55-.15.55-.29 0-.14-.11-.33-.41-.33-.26 0-.5.15-.64.24l-.04.03c.3.08.35.3.35.39 0 .07-.02.16-.03.2-.04-.08-.13-.21-.24-.21-.14 0-.39.04-.62.4-.22.36-.49.52-.66.52-.16 0-.26-.14-.3-.2-.23.14-.72-.06-.72-.49 0-.27.1-.4.24-.45h-.08c-.51-.03-1.13-.05-1.13.5 0 .15.15.48.4.48s.32-.17.32-.3c0-.13-.1-.26-.22-.26a.26.26 0 0 0-.25.2c-.02-.12.03-.36.35-.36.28 0 .33.26.33.42a.5.5 0 0 1-.5.46c-.34 0-.53-.36-.53-.66 0-.3.21-.6.78-.6h.21c.53.02 1.14.04 1.14-.64 0-.16-.09-.48-.37-.48a.2.2 0 0 0-.2.2c0 .08.07.16.15.16.07 0 .11-.02.13-.04 0 .07-.07.35-.32.35a.51.51 0 0 1-.17-.02c-.04.1-.17.29-.34.29-.18 0-.27-.07-.3-.1.06 0 .18-.07.26-.4.1-.43.4-.6.67-.6.2 0 .4.11.51.3l.07-.2a.13.13 0 0 0-.1-.05c-.04 0-.06.06-.06.1-.01-.02-.05-.06-.05-.15 0-.07.06-.1.1-.14.05-.03.08-.06.08-.09 0-.13-.12-.08-.18-.04.01-.07.07-.23.23-.23s.2.18.21.26c.04.03.17.1.4.1.27 0 .4-.13.4-.33 0-.11-.06-.18-.12-.25-.05-.06-.1-.1-.11-.18-.03-.15-.02-.17 0-.22v-.02c-.08-.05-.14 0-.2.08-.03-.4.3-.41.46-.36.04-.04.18-.13.42-.13.3 0 .8.12.96.16-.09-.09-.3-.14-.48-.17-.08-.02-.15-.03-.18-.05-.36-.17-.39-.17-.58-.19-.2-.01-.28-.08-.3-.15-.08.33-.3.29-.4.22.02 0 .07-.04.07-.1 0-.07-.03-.1-.1-.1s-.2.06-.24.15c-.01.12-.1.12-.15.12-.04 0-.04.04-.04.1v.03c-.18-.11-.1-.29-.04-.36l-.12-.09-.09.09a.38.38 0 0 1-.01-.1c0-.15.13-.2.22-.23 0-.2-.11-.13-.17-.08.03-.19.14-.19.25-.16.1-.02.16.1.16.2.27.1.37.08.54.03l.05-.01c-.07-.1-.07-.27-.07-.35l-.05.11a.5.5 0 0 1-.05-.18c-.04.05-.04.14 0 .23-.2-.13-.2-.32-.2-.45l.01-.06c0-.12-.08-.21-.14-.21a.3.3 0 0 0-.06 0 .53.53 0 0 1-.12.02c-.1 0-.17-.1-.2-.16.03.03.1-.01.1-.08 0-.08-.06-.08-.1-.08-.03.23-.22.15-.24.13-.03.04-.02.13-.02.18-.03-.03-.1-.1-.1-.18 0-.09.06-.15.1-.2l.03-.03a.27.27 0 0 1-.08-.2c-.04 0-.1.02-.15.05.08-.22.16-.19.22-.17h.03c.04 0 .07-.01.07-.07 0-.06-.09-.1-.13-.1.07-.11.16-.08.22-.05l.06.01c.06.01.1.1.1.17 0 .05 0 .08-.02.1l-.02.03c.15.24.55.45.82.45.28 0 .46-.12.46-.22 0-.11-.15-.17-.19-.17l-.06.03-.07.04c-.04 0-.12-.05-.12-.15 0-.08.1-.07.16-.06h.04c.05 0 .09-.04.09-.13 0-.07-.13-.05-.2-.03h-.05c-.04 0-.06-.06-.06-.16 0-.15.13-.17.21-.19l.06-.01c.17-.11.4-.1.6-.03Zm-1.71 4.89.05.03c0-.05 0-.17.06-.2a.2.2 0 0 0 .13-.06l.03-.1c.08-.07.27-.17.35-.03 0 .03 0 .08-.12.06.03.04.1.09.16.09.09 0 .15-.08.2-.14.05-.05.09-.1.12-.1s.1.04.04.17c.05.02.2-.03.23-.18l.01.04a.4.4 0 0 1 .04.14c.06-.05.15-.16.11-.3l.02.03c.02.02.04.03.05.12.04-.03.1-.08.1-.18a.3.3 0 0 0-.04-.18c.04-.02.14-.03.2.1l.02-.04a.27.27 0 0 0 .02-.14c0-.1-.1-.28-.3-.25a.17.17 0 0 0-.06-.1c-.03-.02-.05-.04-.05-.1 0-.12.11-.43 1.14-.4 0 .12-.08.24-.21.36s-.2.3-.15.47l-.02.06a.23.23 0 0 0-.04.12c0 .07.08.33.42.24a.49.49 0 0 1-.16-.14c.15-.02.48-.06.57-.14 0 .12-.05.68-.6.68a.43.43 0 0 1-.17-.03c0-.06-.02-.18-.15-.18-.15 0-.3.2-.22.33l.03-.06c.02-.03.02-.04.06-.04.04 0 .07.04.07.09 0 .02-.02.04-.04.06-.02.02-.05.05-.05.09 0 .05.02.12.04.18H13c-.39 0-.83.28-1.15.6-.31.3-.9.8-1.28.8-.37 0-.4-.3-.4-.42 0-.11.1-.39.34-.39a.2.2 0 0 1 .18.2c0 .13-.17.23-.28.15 0 .08.07.26.27.26.15 0 .22-.1.23-.16.11.04.36 0 .46-.4a.43.43 0 0 1-.27.11c-.06 0-.13-.05-.2-.1a.86.86 0 0 0-.2-.13c.36-.1.53-.4.53-.73l-.02-.16Z" fill="#5247B4"/><path d="M11.87 6.44c.15.02.2.04.22.05-.11-.02-.21.04-.31.04-.08 0-.2-.06-.2-.16s.11-.16.18-.16c-.08.15-.06.21.11.23Z" fill="#5247B4"/><path fill-rule="evenodd" d="M5.07 6.05c-.16.06-.43.08-.55.08.03 0 .12.12.16.17l-.07.3c-.05.22-.12.24-.14.24h-.02c-.02 0-.03.01-.08-.04.01.22.1.25.15.26.04.02.08.03.08.1 0 .08-.06.13-.1.13-.06 0-.06-.01-.12-.07-.05.25.18.35.25.38h.01c.02.08-.03.16-.11.16s-.1-.04-.14-.1l-.01-.03c-.05.29.1.44.2.47-.07.3-.31.54-.52.73l-.02.02c-.2.2-.56.35-.67.35-.1 0-.18-.05-.18-.19 0-.1.08-.22.13-.27.01.04.08.13.24.13.16 0 .32-.15.38-.22a2.03 2.03 0 0 1-.3-.07c.26-.03.71-.16.71-.54 0-.25-.15-.36-.27-.44-.08-.06-.15-.11-.15-.2 0-.09.03-.16.07-.24.03-.09.14-.18.14-.31 0-.39-.35-.54-.5-.55.06.04.22.18.22.23 0 .06-.08.13-.21.23a.5.5 0 0 0-.2.35.25.25 0 0 0-.17-.06c-.19 0-.19.21-.16.32 0-.03.04-.09.07-.09.04 0 .05.03.08.13.07.27.33.32.48.36l.05.01.04.01c.13.03.29.07.29.27 0 .22-.12.24-.27.28h-.01l-.44.1c-.07-.14-.03-.26.06-.4-.32.04-.39.27-.39.34 0 .06.06.18.12.2-.03.03-.2.21-.2.47s.25.34.34.34a1 1 0 0 0 .27-.05.54.54 0 0 0-.04.24c0 .35.39.32.43.32-.06.08-.25.07-.4.05h-.16c-.17 0-.28.17-.28.25 0 .09.03.15.06.2 0-.17.51.6.62.69-.05-.13 0-.25.05-.25.06 0 .13.05.13.1 0 .08-.09.08-.13.07.02.04.09.12.16.12a.6.6 0 0 0 .16-.03.6.6 0 0 1 .16-.04c.08 0 .05.14.03.21l.12.16a.4.4 0 0 0-.19.33c0 .54.64.37.84.29-.39.05-.55-.15-.55-.29 0-.14.11-.33.41-.33.26 0 .5.15.64.24l.04.03c-.3.08-.35.3-.35.39 0 .07.02.16.03.2.04-.08.13-.21.24-.21.14 0 .39.04.62.4.22.36.49.52.66.52.16 0 .26-.14.3-.2.23.14.72-.06.72-.49 0-.27-.1-.4-.24-.45h.08c.51-.03 1.13-.05 1.13.5 0 .15-.15.48-.4.48s-.32-.17-.32-.3c0-.13.1-.26.22-.26s.22.09.25.2c.02-.12-.03-.36-.35-.36-.28 0-.33.26-.33.42 0 .17.18.46.5.46.34 0 .53-.36.53-.66 0-.3-.21-.6-.78-.6h-.21c-.53.02-1.14.04-1.14-.64 0-.16.09-.48.37-.48.12 0 .2.1.2.2 0 .08-.07.16-.15.16-.07 0-.11-.02-.13-.04 0 .07.07.35.32.35.1 0 .15-.01.17-.02.04.1.17.29.34.29.18 0 .27-.07.3-.1-.06 0-.18-.07-.26-.4-.1-.43-.4-.6-.67-.6a.6.6 0 0 0-.51.3l-.07-.2a.13.13 0 0 1 .1-.05c.04 0 .06.06.06.1.01-.02.05-.06.05-.15 0-.07-.06-.1-.1-.14-.05-.03-.08-.06-.08-.09 0-.13.12-.08.18-.04-.01-.07-.07-.23-.23-.23s-.2.18-.21.26a.7.7 0 0 1-.4.1c-.27 0-.4-.13-.4-.33 0-.11.06-.18.12-.25.05-.06.1-.1.11-.18.03-.15.02-.17 0-.22v-.02c.08-.05.14 0 .2.08.03-.4-.3-.41-.46-.36-.04-.04-.18-.13-.42-.13-.3 0-.8.12-.96.16.09-.09.3-.14.48-.17.08-.02.15-.03.18-.05.36-.17.39-.17.58-.19.2-.01.28-.08.3-.15.08.33.3.29.4.22-.02 0-.07-.04-.07-.1 0-.07.03-.1.1-.1s.2.06.24.15c.01.12.1.12.15.12.04 0 .04.04.04.1v.03c.18-.11.1-.29.04-.36l.12-.09.09.09a.38.38 0 0 0 .01-.1c0-.15-.13-.2-.22-.23 0-.2.11-.13.17-.08-.03-.19-.14-.19-.25-.16-.1-.02-.16.1-.16.2a.7.7 0 0 1-.54.03l-.05-.01c.07-.1.07-.27.07-.35l.05.11a.5.5 0 0 0 .05-.18c.04.05.04.14 0 .23.2-.13.2-.32.2-.45l-.01-.06c0-.12.08-.21.14-.21a.3.3 0 0 1 .06 0l.12.02c.1 0 .17-.1.2-.16-.03.03-.1-.01-.1-.08 0-.08.06-.08.1-.08.03.23.22.15.24.13.03.04.02.13.02.18.03-.03.1-.1.1-.18 0-.09-.06-.15-.1-.2l-.03-.03a.27.27 0 0 0 .08-.2c.04 0 .1.02.15.05-.08-.22-.16-.19-.22-.17h-.03c-.04 0-.07-.01-.07-.07 0-.06.09-.1.13-.1-.07-.11-.16-.08-.22-.05a.24.24 0 0 1-.06.01c-.06.01-.1.1-.1.17 0 .05 0 .08.02.1l.02.03c-.15.24-.55.45-.82.45-.28 0-.46-.12-.46-.22 0-.11.15-.17.19-.17l.06.03.07.04c.04 0 .12-.05.12-.15 0-.08-.1-.07-.16-.06h-.04c-.05 0-.09-.04-.09-.13 0-.07.13-.05.2-.03h.05c.04 0 .06-.06.06-.16 0-.15-.13-.17-.21-.19a.2.2 0 0 1-.06-.01c-.17-.11-.4-.1-.6-.03Zm1.71 4.89-.05.03c0-.05 0-.17-.06-.2a.2.2 0 0 1-.13-.06l-.03-.1c-.08-.07-.27-.17-.35-.03 0 .03 0 .08.12.06a.2.2 0 0 1-.16.09c-.09 0-.15-.08-.2-.14-.05-.05-.09-.1-.12-.1s-.1.04-.04.17c-.05.02-.2-.03-.23-.18l-.01.04a.4.4 0 0 0-.04.14c-.06-.05-.15-.16-.11-.3l-.02.03c-.02.02-.04.03-.05.12-.04-.03-.1-.08-.1-.18a.3.3 0 0 1 .04-.18c-.04-.02-.14-.03-.2.1l-.02-.04a.27.27 0 0 1-.02-.14c0-.1.1-.28.3-.25a.17.17 0 0 1 .06-.1c.03-.02.05-.04.05-.1 0-.12-.11-.43-1.14-.4 0 .12.08.24.21.36s.2.3.15.47l.02.06c.03.05.04.07.04.12 0 .07-.08.33-.42.24.06-.02.13-.1.16-.14-.15-.02-.48-.06-.57-.14 0 .12.05.68.6.68.09 0 .15-.02.17-.03 0-.06.02-.18.15-.18.15 0 .3.2.22.33l-.03-.06c-.02-.03-.02-.04-.06-.04-.04 0-.07.04-.07.09 0 .02.02.04.04.06.02.02.05.05.05.09 0 .05-.02.12-.04.18H5c.39 0 .83.28 1.15.6.31.3.9.8 1.28.8.37 0 .4-.3.4-.42 0-.11-.1-.39-.34-.39a.2.2 0 0 0-.18.2c0 .13.17.23.28.15 0 .08-.07.26-.27.26-.15 0-.22-.1-.23-.16-.11.04-.36 0-.46-.4.04.04.15.11.27.11.06 0 .13-.05.2-.1a.8.8 0 0 1 .2-.13c-.36-.1-.53-.4-.53-.73l.02-.16Z" fill="#5247B4"/><path d="M6.13 6.44a.73.73 0 0 0-.22.05c.11-.02.21.04.31.04.08 0 .2-.06.2-.16s-.11-.16-.18-.16c.08.15.06.21-.11.23Z" fill="#5247B4"/></svg>