<!-- by TradingView --><svg width="18" height="18" viewBox="0 0 18 18" xmlns="http://www.w3.org/2000/svg"><path fill="#F0F3FA" d="M0 0h18v18H0z"/><path d="M5 8.64c0-.7 1.97-3.45 3.27-5.1l-1.33 1.2A36.98 36.98 0 0 0 5 7.76c-.15-.5.76-1.8 1.34-2.52L3.57 7.72a1.6 1.6 0 0 0 0 2.45L9 15l3.35-3c-1.13 0-2.34.11-3.35-.46 1.02.3 2.77.12 3.8.07l1.63-1.44a1.6 1.6 0 0 0 0-2.45L11.3 4.95C9.08 7.24 8 9.33 8 10.65c0 1.38 1.89 1.98 2.7 1.98-.55.18-1.16.24-1.58.24-.42 0-1.84-.89-1.84-2.21 0-1.9 2.38-4.7 3.72-5.99l-.37-.32C7.67 7.6 7 9.4 7 10.69c0 1.05 1.08 2.03 1.64 2.31a4.97 4.97 0 0 1-1.41-.4c-.36-.23-.76-1.05-.76-1.91 0-2.02 2.54-5.13 3.93-6.55l-.35-.31c-3.55 4.02-3.9 5.96-3.9 6.83 0 .88.4 1.58.77 1.97a2.04 2.04 0 0 1-1.21-1.97c0-2.29 2.7-5.55 4.16-7l-.27-.23a.58.58 0 0 1-.05.05c-.33.34-4.49 4.67-4.06 7.52-.13-.2-.48-.66-.48-1.15 0-.6 1.3-3.53 4.42-6.57L9.12 3C6.42 5.9 5.28 8.46 5 9.4v-.76Z" fill="url(#app4v0d4b)"/><defs><linearGradient id="app4v0d4b" x1="15" y1="8.83" x2="3" y2="8.83" gradientUnits="userSpaceOnUse"><stop stop-color="#006AB3"/><stop offset="1" stop-color="#8EB6E0"/></linearGradient></defs></svg>