<!-- by TradingView --><svg width="56" height="56" viewBox="0 0 56 56" xmlns="http://www.w3.org/2000/svg"><path fill="#F0F3FA" d="M0 0h56v56H0z"/><path d="M12.55 36.08c-1.2-.75-.17-1.57.5-1.89 1.2-1.13 2.16-.47 2.5 0 .5.32 1.6 1.04 2 1.42.5.47 1.99.95 1.99 1.42s1 .94 2 1.41c1 .48 1.5.48 2 1.42.5.95 1.5.95 2.49 1.89 1 .94 1 .94 2 .94s1 .95 1 1.42-.5.47-1 0-1.5 0-2.5 0-1-1.42-1.5-1.42-1-.47-2.5-1.88c-1.5-1.42-1.5-.48-1.99-.48-.5 0-1.5-1.41-2.5-1.41s-1 0-2-1.42-1-.47-2.49-1.42Z" fill="url(#a)"/><path d="M43.4 30.04c-.4-.4-1.2.5-1.54 1-.35.5-1.14 1.6-1.55 2-.52.5-1.03 1.5-1.55 1.5s-1.03 1.49-1.03 2.48c0 1-1.55 1.5-2.07 1.5-.51 0-1.03 1.5-1.54 2-.52.5-1.55 1.99-2.07 2.49-.51.5-1.03 2-1.03 2.5 0 .49 0 .49 1.03.49s2.58-1.5 2.58-2.5c0-.99 1.03-1.49 1.55-2.49.52-1 1.03-1 2.06-1.5 1.04-.5.52-1.49 1.04-2.49.51-1 1.03-1 1.54-1.5.52-.49.52-.49 1.04-1.99.51-1.5.51-1 1.54-1.5 1.04-.49.52-1.49 0-1.99Z" fill="url(#b)"/><path d="M14.55 17.2c-.8 0 0-.95.5-1.42.8-.76 1.33 0 1.5.47-.34.31-1.2.94-2 .94Z" fill="url(#c)"/><path d="M20.04 14.36c-.5.47-.5 0-1 0-.26-.05 0-.47 0-.94 0-.48 1-.48 2-.95s.5.47.5.95c0 .47-1 .47-1.5.94Z" fill="url(#d)"/><path d="M24.03 13.42c-.4 0-.83-.63-1-.95 0-.38.67-.47 1-.47.5 0 1.6.1 2 .47.5.47 0 .95-.5.95h-1.5Z" fill="url(#e)"/><path d="M28.53 14.36c-.4 0-.84-.31-1-.47-.5-.95.5-.47 1-.47s1-.48 1.5-.48 1 .95 1.49.95c.5 0 1.5.94 2 .94s1.5.95 2 .95.5.94.5 1.41c0 .48-1 0-2 .48-1 .47-1.5-.48-1.5-.95s-1-1.41-2-1.89c-1-.47-1.5-.47-2-.47Z" fill="url(#f)"/><path d="M36.51 20.5c-.8-.38-.66-1.42-.5-1.89 1-1.42 1.5.47 2.5 1.42 1 .94 1 1.41 1.5 2.36.5.94.5 3.3 0 4.25-.5.94 0 .94 0 1.89 0 .94-.5.94-1 1.89-.5.94-1 1.89-1 2.83 0 .94-.5.94-1.5 1.42-1 .47-.5 1.41-2 1.89-1.5.47-2.99.94-3.99 1.41s-1.5.47-3.5.47c-1.99 0-3.49-1.41-4.98-2.36-1.5-.94-.5-.94-1.5-2.36-1-1.41 0-1.89.5-2.83.5-.95 1-.95 1-1.89s1-1.42 3-2.83c1.99-1.42.99 0 2.99 0s2.5 1.89 2.5 2.36.99 1.41.5 1.89c-.5.47-.5.94-1.5 1.41-1 .48-1 .48-1.5.48s-1-.48-.5-1.42c.5-.95 1 0 1.5-.95.5-.94-1-.47-2-.94s-1 .47-1.5.94c-.5.48 0 .95-.5 1.9-.5.94-.5.47 0 1.41s.5 1.42 2 1.89 1.5 0 2.5.47.5-.47 1-1.42c.5-.94.99 0 1.99-.47s.5-.47 2-2.36 2-2.36 2.5-2.83c.49-.47.99-1.9.99-2.84v-3.3c0-1.42-.5-1.42-1.5-1.89Z" fill="url(#g)"/><defs><linearGradient id="a" x1="14.05" y1="34.19" x2="26.48" y2="44.31" gradientUnits="userSpaceOnUse"><stop stop-color="#D20028"/><stop offset="1" stop-color="#AB001A"/></linearGradient><linearGradient id="b" x1="43.4" y1="31.04" x2="32.54" y2="45.86" gradientUnits="userSpaceOnUse"><stop stop-color="#DC002C"/><stop offset="1" stop-color="#AB001A"/></linearGradient><linearGradient id="c" x1="39.01" y1="20.03" x2="20.15" y2="32.3" gradientUnits="userSpaceOnUse"><stop offset=".48" stop-color="#F5CB00"/><stop offset="1" stop-color="#F7E000"/></linearGradient><linearGradient id="d" x1="39.01" y1="20.03" x2="20.15" y2="32.3" gradientUnits="userSpaceOnUse"><stop stop-color="#E8621B"/><stop offset=".48" stop-color="#F5CB00"/><stop offset="1" stop-color="#F7E000"/></linearGradient><linearGradient id="e" x1="39.01" y1="20.03" x2="20.15" y2="32.3" gradientUnits="userSpaceOnUse"><stop stop-color="#E8621B"/><stop offset=".48" stop-color="#F5CB00"/></linearGradient><linearGradient id="f" x1="39.01" y1="20.03" x2="20.15" y2="32.3" gradientUnits="userSpaceOnUse"><stop stop-color="#E8621B"/><stop offset=".48" stop-color="#F5CB00"/></linearGradient><linearGradient id="g" x1="39.01" y1="20.03" x2="20.15" y2="32.3" gradientUnits="userSpaceOnUse"><stop stop-color="#E8621B"/><stop offset=".48" stop-color="#F5CB00"/><stop offset="1" stop-color="#F7E000"/></linearGradient></defs></svg>