<!-- by TradingView --><svg width="56" height="56" viewBox="0 0 56 56" xmlns="http://www.w3.org/2000/svg"><path fill="#F0F3FA" d="M0 0h56v56H0z"/><path fill="#E03121" d="M8 18h40v20H8z"/><path d="M19 33c1.64 0 3.5-1.5 4.5-2.5l8-7c.22-.24.48-.48.75-.7l1.36 1.63L33 25l-8.85 7.74C22.5 34 21.04 35 19 35c-.34 0-.67-.02-1-.07V32.9c.32.07.66.1 1 .1Zm-1.62-.27A5 5 0 1 1 23.9 27h2.03a7 7 0 1 0-9.45 7.53l.9-1.8ZM34.17 24c.34-.24.7-.45 1.08-.62l-.75-1.88c-.6.23-1.17.53-1.68.88L34.17 24Zm.93-2.7.63 1.9c.4-.13.83-.2 1.27-.2a5 5 0 1 1-4.58 7h-2.13A7 7 0 1 0 37 21c-.63 0-1.28.1-1.9.3Z"/></svg>