<!-- by TradingView --><svg width="18" height="18" viewBox="0 0 18 18" xmlns="http://www.w3.org/2000/svg"><path fill="#F0F3FA" d="M0 0h18v18H0z"/><path d="M7.61 4h.3c.76.29 1.1 1.02 1.02 2.19A3 3 0 0 0 9 7.29c.04.16.1.16.14 0 .26-.93-.04-1.82.54-2.7.47-.74 1.4-.56 1.88.02.38.46 1.12 1.05 1.3 1.59.3.95-.38 1.45-1.21 1.58-.67.1-1.4-.06-2.05.14-.04.01-.04.03 0 .05.16.07.3.1.44.09.94-.07 2.84-.33 2.97 1.11-.05.84-.73 1.31-1.2 1.9-1.35 1.68-2.47.02-2.46-1.4 0-.17-.02-.32-.05-.47a.54.54 0 0 0-.02-.33c-.02-.05-.03-.05-.03 0l-.03.3c-.05.7-.11 1.46.09 2.15.28.96.6 1.92.95 2.89l-.2.7c-.03.12-.07.12-.1 0l-1.04-3.2a4.26 4.26 0 0 1-.15-2.3.4.4 0 0 0-.03-.2c-.02-.07-.03-.07-.05 0-.1.55-.12 1-.36 1.6-.27.65-.95 1.01-1.61.7a.98.98 0 0 1-.44-.33c-.41-.68-1.06-1.24-1.27-2-.02-2 2.38-1.1 3.45-1.23l.03-.01a.04.04 0 0 0-.02-.07c-.89-.31-2.57.1-3.1-.97-.28-.54-.02-1.18.43-1.56C6.33 4.9 6.9 4.1 7.61 4Z" fill="#1B9A55"/></svg>