<!-- by TradingView --><svg width="18" height="18" viewBox="0 0 18 18" xmlns="http://www.w3.org/2000/svg"><path fill="#F0F3FA" d="M0 0h18v18H0z"/><path d="m7.96 7.58.7-.7A3.56 3.56 0 0 0 6.26 6C4.7 6 3 7.01 3 9.09 3 11.16 4.74 12 6.34 12c1.28 0 2.08-.4 2.32-.6l4.37-3.87c.26.12.78.6.78 1.59 0 1.55-1.44 1.85-1.86 1.85-.42 0-.55-.04-.8-.04-.2 0-.44.15-.54.23l-.9.84h2.05c1.41 0 3.24-.67 3.24-2.88a2.8 2.8 0 0 0-2.1-2.84c-.05 0-.14.07-.17.1L8.5 10.07c-.58.5-1.29.97-2.17.97-.88 0-2.14-.5-2.14-2.04S5.4 7.06 6.25 7.06c.68 0 1.42.34 1.7.52Z" fill="url(#a15jotdvc)"/><path d="M9 6v2l2-2H9Z" fill="url(#b15jotdvc)"/><defs><linearGradient id="a15jotdvc" x1="3.33" y1="8.73" x2="15" y2="8.73" gradientUnits="userSpaceOnUse"><stop stop-color="#272264"/><stop offset="1" stop-color="#0EB1D2"/></linearGradient><linearGradient id="b15jotdvc" x1="9.32" y1="6.37" x2="10.62" y2="6.77" gradientUnits="userSpaceOnUse"><stop stop-color="#235382"/><stop offset="1" stop-color="#2B678C"/></linearGradient></defs></svg>