<!-- by TradingView --><svg width="56" height="56" viewBox="0 0 56 56" xmlns="http://www.w3.org/2000/svg"><path fill="#F0F3FA" d="M0 0h56v56H0z"/><path d="M27.33 28.14c.36 1.51.55 4.88-1.63 6.24 1.81-.57 4.67-2.6 1.63-6.24Z" fill="#E3823D"/><path d="M25.7 29.84c-.18 1.14-1.74 3.52-6.52 3.97 2.36.95 6.96 1.48 6.52-3.97Z" fill="#E6DFD9"/><path d="M22.99 29.28c-4.78 1.81-7.79-.38-8.7-1.7a3.84 3.84 0 0 0 3.26 3.96A5.33 5.33 0 0 0 23 29.28Z" fill="#FAD48B"/><path d="M14.84 24.74a6.27 6.27 0 0 0 5.97 2.83c-6.04-2.25-6.15-7.3-5.45-9.6-.9 1.13-2.26 4.04-.52 6.77Z" fill="#4E9DD5"/><path d="M20.27 24.17c-3.48-5.9 0-10.78 2.17-12.48-1.8.56-5.43 2.6-5.43 6.24 0 4.54 3.16 6.07 3.26 6.24Z" fill="#352122"/><path d="M25.16 12.25c-4.35 2.73-4.35 7.57-3.8 9.65 3.04-9.08 10.32-9.46 13.58-8.51-1.45-1.52-5.43-3.86-9.78-1.14Z" fill="#640A26"/><path d="M34.94 15.66c-5.22-.91-8.33 2.27-9.24 3.97 8.7-4.54 14.49 1.89 16.3 5.67-.18-2.83-1.85-8.74-7.06-9.64Z" fill="#161817"/><path d="M29.5 20.76c4.17 1.52 11.74 7.38 8.7 18.73 3.62-5.86 6.95-17.82-8.7-18.73Z" fill="#442D7B"/><path d="M25.7 48c10-7.26 8.15-18.16 5.98-22.7 2.71 2.27 5.97 5.11 4.89 13.05-.87 6.36-7.6 9.08-10.87 9.65Z" fill="#036651"/></svg>