<!-- by TradingView --><svg width="56" height="56" viewBox="0 0 56 56" xmlns="http://www.w3.org/2000/svg"><path fill="#F0F3FA" d="M0 0h56v56H0z"/><path d="M27 14.22c-.83-.14-1.69-.22-2.56-.22C16.46 14 10 20.27 10 28s6.46 14 14.44 14c.87 0 1.73-.08 2.56-.22l-11.1-8.09a7 7 0 0 1 0-11.38L27 14.22Z" fill="#258ECF"/><path d="M29 14.22c.83-.14 1.69-.22 2.57-.22C39.54 14 46 20.27 46 28s-6.46 14-14.43 14c-.88 0-1.74-.08-2.57-.22l11.1-8.09a7 7 0 0 0 0-11.38L29 14.22Z" fill="#6BBC46"/><path d="M24 24.62c-.5-.4-1.1-.62-1.74-.62-1.8 0-3.26 1.8-3.26 4s1.46 4 3.26 4c.64 0 1.24-.23 1.74-.62v-.98c-.42.38-.94.6-1.5.6-1.38 0-2.5-1.34-2.5-3s1.12-3 2.5-3c.56 0 1.08.22 1.5.6v-.98Zm2-.62h1v8h-1zm0-3h1v1h-1zm9 3h1v8h-1zm-5.96-4H30v4h2.5v1H30v4.04A3.61 3.61 0 0 0 32.1 31h.9v1h-.5c-1.09 0-3.37-1.19-3.46-2.48V20ZM35 21h1v1h-1z" fill="#5B5B5D"/></svg>