<!-- by TradingView --><svg width="18" height="18" viewBox="0 0 18 18" xmlns="http://www.w3.org/2000/svg"><path fill="#181B1E" d="M0 0h18v18H0z"/><path d="M4 9.13C4 4.7 7.5 3.89 9.24 4 7.76 4.26 4.8 5.56 4.8 8.87c0 4.13 3.41 4.87 4.14 5.11C6.35 13.98 4 12.21 4 9.13Z" fill="#fff"/><path d="M12.92 7.84a4.78 4.78 0 0 0-3.14-3.68c1.41.13 4.15 1.45 4.15 4.54a5.46 5.46 0 0 1-2.01 4.44c-.15.07-.42.15-.24-.12 2.33-2.3 1.3-4.65 1.24-5.18Z" fill="#888788"/><path fill-rule="evenodd" d="M9.37 14C11.93 14 14 11.76 14 9c0-2.75-2.07-4.99-4.63-4.99s-4.64 2.24-4.64 5C4.73 11.75 6.8 14 9.37 14Zm0-.17c2.48 0 4.49-2.16 4.49-4.83 0-2.66-2.01-4.82-4.49-4.82-2.48 0-4.49 2.16-4.49 4.82 0 2.67 2.01 4.83 4.49 4.83Z" fill="#EDECED"/><path d="M12.38 8.84c-.4-2.3-2.02-3.22-2.78-3.4 1.4-.17 3.6 1.6 3.6 4.07 0 2.46-1.57 3.54-1.78 3.54 1.6-1.56 1.05-3.48.96-4.21Z" fill="#888788"/><path d="M5.06 7.82a4.02 4.02 0 0 1 3.96-2.54c-.9.08-3.57 1.27-3.57 4.05 0 2.22 1.04 3.47 1.57 3.82-.03.1-.32.01-1.3-1.19-1.22-1.5-.84-3.65-.66-4.14Z" fill="#fff"/><path fill-rule="evenodd" d="M9.32 14c2.18 0 3.96-1.95 3.96-4.37 0-2.4-1.78-4.36-3.96-4.36-2.2 0-3.96 1.95-3.96 4.36 0 2.42 1.77 4.37 3.96 4.37Zm0-.17c2.1 0 3.8-1.88 3.8-4.2 0-2.31-1.7-4.2-3.8-4.2-2.1 0-3.8 1.89-3.8 4.2 0 2.32 1.7 4.2 3.8 4.2Z" fill="#EDECED"/><path d="M11.92 9.99a3.74 3.74 0 0 0-2.19-3.21c.6 0 2.8.76 2.8 3.3 0 2.53-1.34 3.22-1.57 3.22 1.42-1.54.96-2.74.96-3.31Z" fill="#888788"/><path d="M5.53 9.08c.78-2.14 2.49-2.53 3.25-2.46a3.79 3.79 0 0 0-2.8 3.76c0 1.03.7 2.14.74 2.43a4.5 4.5 0 0 1-1.2-3.73Z" fill="#fff"/><path fill-rule="evenodd" d="M9.27 14c1.86 0 3.37-1.66 3.37-3.71 0-2.06-1.51-3.72-3.37-3.72S5.9 8.23 5.9 10.29C5.9 12.34 7.4 14 9.27 14Zm0-.15c1.76 0 3.2-1.58 3.2-3.54 0-1.95-1.44-3.54-3.2-3.54-1.76 0-3.19 1.59-3.19 3.54 0 1.96 1.43 3.54 3.2 3.54Z" fill="#EDECED"/><path d="M11.39 11.32a3.01 3.01 0 0 0-1.82-3.15c.54-.16 2.37.76 2.37 2.74 0 1.98-1.52 2.74-1.52 2.61.7-.49.8-1.17.97-2.2Z" fill="#888788"/><path d="M6.07 10.22c.54-1.83 2-2.2 2.65-2.17-1.18.32-2.23 1.64-2.23 2.7 0 1.07.36 1.73.63 2.2a2.99 2.99 0 0 1-1.05-2.73Z" fill="#fff"/><path fill-rule="evenodd" d="M9.22 14c1.54 0 2.8-1.34 2.8-3s-1.26-3-2.8-3c-1.54 0-2.8 1.34-2.8 3s1.26 3 2.8 3Zm0-.12c1.46 0 2.65-1.28 2.65-2.86 0-1.58-1.19-2.86-2.65-2.86s-2.64 1.28-2.64 2.86c0 1.58 1.18 2.86 2.64 2.86Z" fill="#EDECED"/><path d="M10.9 11.41a2.5 2.5 0 0 0-1.42-2.23c.5-.1 1.82.74 1.82 2.23 0 1.5-.93 2.26-1.17 2.39-.24.13-.88.17-.72.03.48-.09 1.5-.81 1.5-2.42Z" fill="#888788"/><path d="M6.6 11.3a2.3 2.3 0 0 1 2.15-2.25c-.8.34-1.72 1.16-1.72 2.25 0 1.1.3 1.46.54 1.95a2.62 2.62 0 0 1-.96-1.95Z" fill="#fff"/><path fill-rule="evenodd" d="M9.18 14c1.24 0 2.24-1.12 2.24-2.5S10.42 9 9.18 9c-1.23 0-2.24 1.12-2.24 2.5s1 2.5 2.24 2.5Zm-.02-.13c1.15 0 2.08-1.05 2.08-2.35s-.93-2.35-2.08-2.35-2.08 1.05-2.08 2.35.93 2.35 2.08 2.35Z" fill="#EDECED"/></svg>