<!-- by TradingView --><svg width="56" height="56" viewBox="0 0 56 56" xmlns="http://www.w3.org/2000/svg"><path fill="#F0F3FA" d="M0 0h56v56H0z"/><path d="m26 20.37-1.16 4.25c-.3-.87-1.69-2.62-4.94-2.62-4.07 0-5.9 5.36-5.9 6.87 0 1.5.52 4.13 4 4.13 2.8 0 5.18-2.09 6-3l-.62 4.35C23 34.9 21.32 36 17.72 36 13.22 36 9 34.35 9 29.28S14.96 19 20.33 19c3.26 0 5.14.91 5.67 1.37Z" fill="#231D1D"/><path d="M7 30.1c0-5.46 4.76-9 7.14-10.1-1.9 1.27-5.71 4.94-5.71 9.42 0 8.46 9.86 6.68 12.57 6.68-5.14 2.05-14 .82-14-6Z" fill="#9AC93D"/><path d="m40 20.25-.67 4.29A7.22 7.22 0 0 0 34.5 23c-1.5 0-2.5.53-2.5 1.5s.63 1.15 1.7 1.42c1.08.28 5.3.28 5.3 4.85 0 4.57-4.36 6.23-8.1 6.23-3 0-5.19-1.1-5.9-1.66l.67-3.83c.98.83 3.43 2.49 5.36 2.49 2.4 0 2.97-.75 2.97-2s-1.07-1.92-2.41-2.06c-1.34-.14-4.59-.7-4.59-4.57 0-3.88 4.3-6.37 7.38-6.37 2.46 0 4.77.83 5.62 1.25Z" fill="url(#adyycd33j)"/><path d="M42.1 24H46l-2.1 13H40l2.1-13Z" fill="#231D1D"/><path d="m44.5 19 .59 1.53H47l-1.55.94.6 1.53-1.55-.94-1.55.94.6-1.53-1.55-.94h1.91L44.5 19Z" fill="#9AC93D"/><defs><linearGradient id="adyycd33j" x1="32.5" y1="19" x2="32.5" y2="37" gradientUnits="userSpaceOnUse"><stop stop-color="#9AC93D"/><stop offset="1" stop-color="#231D1D"/></linearGradient></defs></svg>