<!-- by TradingView --><svg width="18" height="18" viewBox="0 0 18 18" xmlns="http://www.w3.org/2000/svg"><path fill="#F0F3FA" d="M0 0h18v18H0z"/><path d="M9 6.8c-.78 0-1.56.13-1.56.13l.62.83h1.88l.62-.83C10.34 6.9 9.94 6.8 9 6.8ZM13.05 9.01l-.46-.42v-1.1c.54.3 1.14.85 1.41 1.1l-.95.42ZM13.06 5H5v1h3.5v.66h1V6h3.56V5ZM9.63 8H8.37v.17l.63.7.63-.7V8ZM9 11l-.5-.6V12h1v-1.6L9 11ZM7 13H6v-1s.53.03 1 .17V13ZM11 12.17V13h1v-1s-.44.05-1 .17Z" fill="#083A6F"/><path d="m7 10.52-1-.55V6.5h1l2 2.64 2-2.64 1 .38V10l-1 .52V8.03l-2 2.49-2-2.49v2.49ZM13.06 9.69C12.44 10.52 10.68 11 10 11v1a5.83 5.83 0 0 0 4-1.76l-.94-.55Z" fill="#083A6F"/><path d="M8 12v-1c-2.16-.12-3-.92-3-1.59 0-.66.36-.87.5-.91v-1A2.01 2.01 0 0 0 4 9.41c0 1.7 2.1 2.47 4 2.59Z" fill="#083A6F"/></svg>