<!-- by TradingView --><svg width="56" height="56" viewBox="0 0 56 56" fill="none" xmlns="http://www.w3.org/2000/svg">
<rect width="56" height="56" fill="#F0F3FA"/>
<path fill-rule="evenodd" clip-rule="evenodd" d="M36.9971 26H18.9971V46H36.9971V26ZM22.0004 29V43H28.9991C32.3135 43 35.0004 40.2631 35.0004 36.887V35.113C35.0004 31.7369 32.3135 29 28.9991 29H22.0004ZM25.0004 32V40H28.4715C30.4204 40 32.0004 38.5477 32.0004 36.7561V35.2439C32.0004 33.4523 30.4204 32 28.4715 32H25.0004Z" fill="black"/>
<path fill-rule="evenodd" clip-rule="evenodd" d="M25 13.4463C25 10.3364 26.9929 7.85299 27.9894 7C28.9929 7.91159 31 10.4771 31 13.4463C31 16.1186 28.9929 16.9299 27.9894 17.0015C26.9929 16.9625 25 16.1967 25 13.4463ZM22.5479 21.7364C20.3846 19.5234 19.9507 16.4661 20.0042 15.2141C21.2898 15.2131 24.3773 15.7395 26.4427 17.8523C28.3016 19.7539 27.5631 21.6305 26.9615 22.3311C26.2875 22.9483 24.4612 23.6936 22.5479 21.7364ZM35.9958 15.2141C36.0493 16.4661 35.6154 19.5234 33.4521 21.7364C31.5388 23.6936 29.7125 22.9483 29.0385 22.3311C28.4368 21.6305 27.6984 19.7539 29.5573 17.8523C31.6227 15.7395 34.7102 15.2131 35.9958 15.2141Z" fill="url(#paint0_linear_229_26947)"/>
<defs>
<linearGradient id="paint0_linear_229_26947" x1="28" y1="7" x2="28" y2="23" gradientUnits="userSpaceOnUse">
<stop offset="0.400436" stop-color="#65C96C"/>
<stop offset="0.899004" stop-color="#009D59"/>
</linearGradient>
</defs>
</svg>
