<!-- by TradingView --><svg width="56" height="56" viewBox="0 0 56 56" xmlns="http://www.w3.org/2000/svg"><path fill="#F0F3FA" d="M0 0h56v56H0z"/><path fill-rule="evenodd" d="M32 13H15v30h17a9 9 0 0 0 9-9V22a9 9 0 0 0-9-9Zm-18-1v32h18a10 10 0 0 0 10-10V22a10 10 0 0 0-10-10H14Z" fill="#688195"/><path fill-rule="evenodd" d="M17 16h9v25h-9V16Zm11 0h5a4 4 0 0 1 4 4v17a4 4 0 0 1-4 4h-5V16Zm-8 23h-2v-9h2.5l1 7 1-7H25v9h-2v-7l-1 7h-1l-1-7v7Zm11 0h-2v-9h2v4h3v-4h2v9h-2v-4h-3v4Z" fill="url(#a)"/><defs><linearGradient id="a" x1="27" y1="16" x2="27" y2="41" gradientUnits="userSpaceOnUse"><stop stop-color="#3C79B8"/><stop offset="1" stop-color="#4D3161"/></linearGradient></defs></svg>