<!-- by TradingView --><svg width="18" height="18" viewBox="0 0 18 18" xmlns="http://www.w3.org/2000/svg"><path fill="#005081" d="M0 0h18v18H0z"/><path d="M9.97 3.61c-.2-.12-.03-.46.07-.6h.01l.01-.01.01.01c.07.22.2.21.41.18h.02c.2-.03.53-.07.39.29a5.96 5.96 0 0 1-.2.4h-.02a.04.04 0 0 1-.02-.05c.01-.07 0-.11-.03-.14-.06-.05-.18-.04-.3-.04-.12.01-.26.02-.35-.04Zm2.88 7.2a.04.04 0 0 0-.03.02.04.04 0 0 0 0 .03c.15.42.5 1.75-.32 1.7-.1 0-.18-.06-.25-.1l-.01-.02-.05.01-.07.13.01.05c.4.47.63 1.22.02 1.6a.7.7 0 0 1-.72.04.03.03 0 0 0-.04.01c-.23.35-.68.63-1.08.4a1.86 1.86 0 0 1-.92-1.37l-.02-.01h-.03a3.4 3.4 0 0 1-.83.74c-.29.18-.7.2-.78-.22l-.02-.24c0-.01-.01-.02-.03-.02h-.12c-.02 0-.04 0-.05.03-.13.4-.43.87-.88.92-.46.06-.81-.26-.87-.72l-.01-.02-.02-.01c-.49-.03-.9-.35-.87-.88.03-.63.3-.95.69-1.38.01-.01 0-.03-.01-.03-.36-.08-1.79-.47-1.32-1.13.05-.08.14-.13.23-.18l.03-.01c.01 0 .02-.02.01-.04L4.43 10c-.01-.02-.03-.03-.05-.02-.32.05-.68.07-.96-.1-.5-.28-.58-1-.08-1.34a.03.03 0 0 0 .01-.04c-.57-1.35.95-1.6 1.8-1.32.03 0 .04 0 .03-.02-.12-.39-.39-1.43.02-1.66.19-.1.37-.08.56.06a.03.03 0 0 0 .04 0l.06-.1V5.4c-.26-.33-.49-.8-.35-1.22.16-.46.62-.62 1.06-.46l.04-.01c.26-.3.5-.52.9-.45.58.1 1 .87 1.1 1.4v.02a.02.02 0 0 0 .03 0h.01c.28-.31 1-1.04 1.46-.8.18.1.2.3.2.53 0 .02 0 .03.03.03h.13l.01-.02c.22-.58.81-1.3 1.46-.76a.8.8 0 0 1 .3.56c0 .02.01.03.03.03.44 0 .91.34.88.85a1.97 1.97 0 0 1-.7 1.4v.03c.45.08 1.32.34 1.4.8.05.25-.1.44-.32.52-.03 0-.03.02-.02.04l.05.1.05.02h.18c.3 0 .57-.01.86.17.47.3.45 1 .02 1.3-.02.02-.02.03-.01.05.17.37.18.8-.13 1.1a.87.87 0 0 1-.33.17l-.1.04a1.7 1.7 0 0 1-1.25-.03Zm-4.12-.83c.33.35.67.65 1.05.88.28.17.59.3.92.38.2.05.39.05.58.04.28 0 .56 0 .82.15.26.14.28.52.2.78 0 .02 0 .03.02.01.34-.22.3-.77.21-1.13-.03-.18-.17-.27-.34-.23-.54.12-.88.19-1.02.2a2.19 2.19 0 0 1-1.6-.62c.63.34 1.33.48 2 .2.33-.15.87-.32 1.14.03l.04.03c.32.12.6.16.86.13.52-.06.73-.63.53-1.07a.08.08 0 0 0-.03-.04.08.08 0 0 0-.04 0l-.7.02a.04.04 0 0 1-.03-.02l-.01-.02v-.02c.03-.04.29-.08.47-.1l.16-.03a.03.03 0 0 0 .03-.02v-.02l-.01-.01c-.2-.16-.42-.24-.67-.24a29.15 29.15 0 0 1-.9.76 2.65 2.65 0 0 1-2.27.49c.07-.02.15-.02.23-.02l.17-.01c.34-.06.66-.16.96-.3.26-.13.48-.31.71-.49.26-.2.52-.4.8-.51.46-.19 1.02-.26 1.44.04.01.01.02 0 .03-.01.11-.52-.35-.87-.8-.97-.01 0-.02 0-.01.02.16.48-.15.61-.51.7-.18.05-.43.09-.56-.09-.27-.36.24-.62.5-.7.01 0 .02-.02 0-.04l-.06-.09H13a.96.96 0 0 1-.33.04l-.01-.01a.03.03 0 0 1 0-.04l.24-.08a.03.03 0 0 0 .02-.02.03.03 0 0 0 0-.02l-.22-.2c-.01-.01-.03 0-.03.01-.14.37-.43 1.01-.76 1.22a4.5 4.5 0 0 1-1.9.78c-.09.01-.17.02-.26 0-.04 0-.04 0 0 0 .82-.21 1.78-.67 2.23-1.44l.05-.1c.2-.35.48-.84.92-.75.17.03.28.08.34.15.11.13.14.12.08-.05-.1-.34-1.06-.97-1.22-.39-.1.39-.27.94-.48 1.24a2.5 2.5 0 0 1-1.17.85 2.54 2.54 0 0 0 1.18-1.75c.07-.4.15-.86.59-.93.01 0 .03 0 .04-.02.43-.36.9-1 .36-1.5a.68.68 0 0 0-.52-.2h-.02v.02a2.84 2.84 0 0 1-.37.65h-.01l-.01-.01v-.02c-.02-.01-.02-.03-.01-.04l.22-.55a.03.03 0 0 0-.02-.04h-.01a.88.88 0 0 0-.54.47v.04c.07.52.13.9.18 1.13a2.76 2.76 0 0 1-.77 2.33c.3-.53.46-1.1.46-1.72 0-.15-.03-.33-.05-.52-.04-.3-.08-.63-.04-.9.06-.52.22-1.16.76-1.38a.03.03 0 0 0 .02-.03v-.01l-.02-.02c-.45-.32-.89-.11-1.24.23-.01.02 0 .03.01.03.3.03.46.24.4.55v.01c-.03.22-.07.46-.24.61-.16.14-.35.12-.45-.08a.88.88 0 0 1-.06-.62c0-.02 0-.03-.02-.03h-.1c-.01 0-.02 0-.02.02a1 1 0 0 1-.14.33.02.02 0 0 1-.03 0v-.02c0-.1 0-.18.04-.27 0-.02 0-.02-.02-.02l-.27.1a17 17 0 0 0 .09.18c.25.35.53.76.55 1.2a4.16 4.16 0 0 1-.45 2.3c.23-.86.36-2.03-.12-2.81-.3-.48-.65-1.28.2-1.46.02 0 .02-.01.03-.02v-.04l-.02-.01a.95.95 0 0 0-.6.07c-.2.1-.77.44-.5.73l.6.68a2.23 2.23 0 0 1 .37 1.88c-.05-.72-.25-1.37-.8-1.84h-.01c-.29-.24-.74-.62-.55-1.07l.01-.04c-.13-.6-.46-1.37-1.22-1.03a.93.93 0 0 0-.3.29c-.02 0-.02.02-.01.03l.38.62a.05.05 0 0 1-.01.07.05.05 0 0 1-.07-.01l-.36-.48a.02.02 0 0 0-.04 0c-.06.27-.02.5.12.73 0 .02.02.03.04.03l.13.05c.48.17.98.35 1.42.6.08.05.2.17.4.36a2.7 2.7 0 0 1 .66 1.22c-.48-.9-1.2-1.3-2.1-1.67-.55-.23-1.24-.93-1.14-1.58a.02.02 0 0 0 0-.01.02.02 0 0 0-.03 0c-.54.13-.59.7-.43 1.18h.02c.25-.26.51-.25.77.01.16.17.53.6.15.78-.25.12-.5-.04-.68-.23-.02-.02-.03-.02-.05 0l-.04.09a.04.04 0 0 0 0 .05l.2.26a.03.03 0 0 1-.01.03l-.02.01h-.01a.57.57 0 0 1-.2-.17.02.02 0 0 0-.01 0h-.01v.01l-.06.27c0 .02 0 .03.02.02h.11c.35-.03 1.04-.09 1.3.08l.45.28.34.2a3.52 3.52 0 0 1 .95 1.06 4.14 4.14 0 0 0-1.98-1.22 2.62 2.62 0 0 0-.52-.04c-.58-.02-1.25-.03-1.03-.9 0-.03 0-.03-.03-.03-.35.07-.25.89-.22 1.1.03.23.18.3.39.25l.8-.16a2.14 2.14 0 0 1 1.8.6 2.8 2.8 0 0 0-1.1-.34c-.31-.03-.62.01-.9.13-.37.14-.87.33-1.16-.05a.07.07 0 0 0-.04-.03c-.24-.07-.48-.1-.72-.1-.62-.01-.93.54-.64 1.08a.07.07 0 0 0 .06.04l.68-.02a.03.03 0 0 1 .03 0 .04.04 0 0 1 .01.04c0 .02-.02.04-.04.05a2.6 2.6 0 0 0-.62.08.02.02 0 0 0 0 .02c.2.18.42.27.69.27.01 0 .03 0 .04-.02l.22-.2c.31-.27.64-.57.93-.74a2.6 2.6 0 0 1 2.1-.26 3 3 0 0 0-1.3.22c-.31.12-.58.33-.85.53-.26.2-.53.4-.83.53-.48.2-1 .32-1.45-.03-.02-.02-.03-.01-.03.01-.1.53.35.87.79.98a.02.02 0 0 0 .02 0 .02.02 0 0 0 0-.03c-.1-.29-.03-.49.22-.6.25-.11.9-.3.9.18.01.3-.32.45-.55.52-.02 0-.03.02-.01.04l.04.06.03.01h.35l.01.02v.02l-.02.01-.22.06c-.02.01-.02.02 0 .04l.2.2c0 .02.02.01.02 0l.01-.02c.15-.35.42-.97.73-1.18a3.87 3.87 0 0 1 2.22-.81c-.8.24-1.44.5-2.03 1.12-.13.14-.22.31-.32.48-.13.23-.25.46-.47.62-.25.18-.58.09-.76-.15a.06.06 0 0 0-.1.02v.04a1.07 1.07 0 0 0 .58.56c.26.13.54.28.67-.11l.3-.89c.22-.6.8-1 1.37-1.2.02 0 .02 0 0 .02-.64.42-1.1.98-1.2 1.78-.04.36-.19.83-.6.9l-.04.01c-.3.29-.75.83-.5 1.3.13.24.35.38.66.4h.03l.02-.03a2.26 2.26 0 0 1 .34-.63.04.04 0 0 1 .06.02l-.12.32a6.5 6.5 0 0 0-.1.3.02.02 0 0 0 .02.01.98.98 0 0 0 .55-.47v-.05l-.19-1.2a2.62 2.62 0 0 1 .78-2.24 3.15 3.15 0 0 0-.46 1.77c0 .17.03.37.05.57.03.25.06.5.05.71-.02.56-.25 1.21-.77 1.46-.02.01-.02.02 0 .04.37.36.92.1 1.2-.24.02 0 .02-.01 0-.01-.26-.05-.4-.18-.4-.42 0-.25.14-.94.53-.83.32.1.28.43.25.7l-.01.1c0 .01 0 .02.02.02h.1c.01 0 .02 0 .02-.02.03-.1.08-.21.14-.3l.01-.02a.03.03 0 0 1 .03.02v.01l-.05.24a.02.02 0 0 0 .01.02h.02l.27-.09c.02 0 .03-.02.01-.03-.2-.28-.61-.88-.64-1.2a4.1 4.1 0 0 1 .44-2.43c-.2.8-.3 1.5-.1 2.31.05.22.16.41.27.6.13.23.25.46.29.71.04.33-.26.56-.53.62l-.02.01a.03.03 0 0 0 .02.05c.44.12.8-.16 1.1-.45a.07.07 0 0 0 .02-.05.4.4 0 0 0-.1-.34l-.56-.69a2.22 2.22 0 0 1-.37-1.83c.05.75.3 1.46.9 1.92.29.22.62.59.47.99v.05c.06.3.17.57.34.82.31.46.9.34 1.17-.08a.04.04 0 0 0 0-.04l-.37-.62a.04.04 0 0 1 0-.03.04.04 0 0 1 .02-.03c.04-.01.07 0 .1.04a3.1 3.1 0 0 0 .35.46h.01v-.01a.92.92 0 0 0-.1-.72.08.08 0 0 0-.04-.03l-.3-.1a5.17 5.17 0 0 1-1.3-.6 2.75 2.75 0 0 1-1.02-1.53c.5.92 1.2 1.26 2.15 1.68.54.24 1.14.92 1.1 1.55v.02h.01l.02.01h.01c.5-.22.53-.7.42-1.18l-.01-.01a.02.02 0 0 0-.03 0c-.2.27-.47.24-.7.03l-.02-.02c-.19-.18-.55-.53-.26-.78.24-.2.55.03.75.19l.03.02c.02.01.03 0 .04-.02l.02-.06v-.04l-.18-.26a.04.04 0 0 1 0-.05.03.03 0 0 1 .05 0l.15.16a.02.02 0 0 0 .03 0 .02.02 0 0 0 .01 0l.06-.3c0-.01 0-.02-.02-.02l-.1.01c-.39.04-.97.1-1.28-.07a4.16 4.16 0 0 1-1.81-1.6v.01ZM5.49 4.87c-.12-.19-.4-.65-.55-.32l-.05.13c-.08.2-.16.41-.4.38a.02.02 0 0 0-.02 0 .02.02 0 0 0 0 .03c.07.19.36.63.57.25a8.1 8.1 0 0 1 .26-.43h.03l.17.04.02-.01a.02.02 0 0 0 0-.02l-.03-.05Zm2-.33c.38.03.72.17.82.58 0 .01 0 .02-.02.01h-.02c-.37-.1-.7-.19-.79-.58l.01-.01Zm4.52.85H12c-.3.39-.22.62-.1 1.04v.02h.03c.3-.3.23-.56.14-.9l-.04-.15-.01-.01H12Zm-3.64.89A2.44 2.44 0 0 1 9.66 8.1a2.37 2.37 0 0 0-1.23-1.3c-.45-.26-.94-.54-1.15-1.04a.02.02 0 0 1 0-.01.01.01 0 0 1 .02 0c.34.2.7.38 1.07.54Zm2.54-.42c0-.02 0-.02-.02 0-.32.39-.3.95-.3 1.46v.3a2.26 2.26 0 0 1-.54 1.54c.6-.4.94-1.23.95-1.93 0-.16-.02-.36-.04-.58a7.13 7.13 0 0 1-.05-.79Zm3.39 1.88c-.05-.11-.1-.22-.18-.32-.3-.45.16-.5.46-.5.02 0 .02.01.01.03a.34.34 0 0 0-.08.24l.02.04.3.45c.01.01.02.04.01.06-.01.08-.07.13-.16.15h-.04c-.13.03-.43.08-.46.02-.01-.01 0-.03.01-.03a.15.15 0 0 0 .1-.08v-.06ZM5.37 7.7a.63.63 0 0 0-.48.01c-.13.06-.24.2-.35.32l-.08.09v.02c.39.13.64-.13.92-.42l-.01-.02Zm3.22.27a.1.1 0 0 1 .03.02c.02.01.01.02 0 .01a.57.57 0 0 0-.19-.04c-.56-.04-.98.1-1.46.37l-.16.1c-.42.26-1 .61-1.42.47v-.02c.26-.13.48-.29.7-.44.4-.3.78-.57 1.33-.63.39-.04.78 0 1.17.16Zm-.63.87c-.6.4-.92 1.14-.95 1.84 0 .19.02.42.04.66.03.27.05.55.05.8 0 .03 0 .03.02.01.32-.37.3-1.02.3-1.53l-.01-.29a2.25 2.25 0 0 1 .55-1.5ZM9.42 10c.31.15.9.02 1.2-.12.28-.13.6-.3.99-.54.28-.18.67-.32 1-.24.03 0 .03.02 0 .03-.28.14-.51.3-.75.48l-.26.19a2.3 2.3 0 0 1-2.18.22L9.41 10Zm1.3 2.22a1.5 1.5 0 0 0-.69-.72l-.1-.06c-.7-.4-1.3-.75-1.6-1.59.05.68.5 1.32 1.02 1.69.2.14.47.27.76.4l.6.3c.01.01.02 0 .01-.02Zm2.81-2.37a.02.02 0 0 1 .02.01.02.02 0 0 1 0 .02c-.25.29-.5.57-.93.42v-.03l.13-.12c.23-.23.39-.38.78-.3Zm-9.82.2c-.17.01-.48.04-.53.17a.14.14 0 0 0 0 .12l.1.13c.13.17.29.38.15.55v.03a.7.7 0 0 0 .49-.09l.03-.03c.06-.18-.06-.37-.17-.54l-.09-.14v-.05l.13-.11v-.04l-.02-.01h-.08ZM6 12.58c-.12-.37-.24-.75.08-1.03h.03v.03c.12.4.2.65-.09 1 0 .02-.01.02-.02 0Zm6.7.49-.09-.01-.06-.03a.04.04 0 0 0-.05.01.04.04 0 0 0 0 .05l.31.43c.02.01.03.03.05.03.2.04.3-.28.38-.48 0-.03.02-.06.03-.08 0-.02.02-.03.03-.03l.22-.02a.03.03 0 0 0 .02-.02.03.03 0 0 0 0-.03c-.1-.21-.35-.6-.59-.21l-.18.33a.12.12 0 0 1-.07.06Zm-2.97-.21c.4.06.7.18.82.6 0 0 0 .02-.01.01-.42-.09-.73-.16-.83-.6l.02-.01ZM7.5 14.33a2.14 2.14 0 0 1-.1 0l-.02-.03a.25.25 0 0 1-.02-.14l-.01-.03-.02-.01a.04.04 0 0 0-.05.02l-.14.4c-.14.35.17.3.41.27h.06c.16-.03.28 0 .33.16 0 .02.02.03.03 0 .1-.12.25-.4.12-.55-.1-.12-.42-.1-.6-.1Z" fill="#fff"/></svg>