<!-- by TradingView --><svg width="56" height="56" viewBox="0 0 56 56" fill="none" xmlns="http://www.w3.org/2000/svg">
<rect width="56" height="56" fill="#F0F3FA"/>
<path d="M42.9268 21.0514V35.8549C42.9268 33.668 41.9471 32.0958 41.1228 31.3811C40.4633 30.8094 32.0749 24.8157 27.9632 21.4639V9C31.4665 11.449 38.9207 16.667 40.7106 17.9477C42.3828 19.0683 42.8848 20.4838 42.9268 21.0514Z" fill="url(#paint0_linear_229_27812)"/>
<path fill-rule="evenodd" clip-rule="evenodd" d="M42.9268 21.182C42.5509 20.5379 41.8123 19.6826 40.4613 18.7017C38.2244 17.0778 31.6625 12.4372 27.9632 9.82728V9C31.4665 11.449 38.9207 16.667 40.7106 17.9477C42.3828 19.0683 42.8848 20.4838 42.9268 21.0514V21.182Z" fill="#FEF7DC"/>
<path fill-rule="evenodd" clip-rule="evenodd" d="M27.9632 20.9514C32.0798 23.9475 39.6986 29.4963 41.1879 30.5962C42.0177 31.209 42.5734 32.0857 42.9268 32.9071V35.855C42.9268 33.668 41.9471 32.0958 41.1228 31.3811C40.899 31.1871 39.7853 30.3689 38.2508 29.2414C35.263 27.046 30.6797 23.6784 27.9632 21.4639V20.9514Z" fill="#E09611"/>
<path d="M13.0088 34.2805V34.2641C13.3549 31.5332 15.9655 27.9444 17.2275 26.4913L27.9095 34.2641V47C24.2857 44.4441 16.5893 39.0014 14.7936 37.6779C13.0086 36.3623 13.0087 35.1971 13.0088 34.2805Z" fill="url(#paint1_linear_229_27812)"/>
<path fill-rule="evenodd" clip-rule="evenodd" d="M27.9102 46.5547C24.187 43.8528 17.0155 38.6532 14.9566 37.179C13.948 36.4569 13.3676 35.7452 13.0527 35.1367C13.1589 35.8843 13.526 36.7432 14.7943 37.678C16.59 39.0015 24.2864 44.4442 27.9102 47.0001V46.5547Z" fill="#F5A927"/>
<path fill-rule="evenodd" clip-rule="evenodd" d="M27.9109 34.652L17.0254 26.7304C17.0964 26.6454 17.1644 26.5656 17.2289 26.4913L27.9109 34.2641V34.652Z" fill="#FDE7C1"/>
<path d="M13 21.0514V35.8549C13 33.668 13.9797 32.0958 14.804 31.3811C15.4634 30.8094 23.8518 24.8157 27.9636 21.4639V9C24.4603 11.449 17.0061 16.667 15.2161 17.9477C13.544 19.0683 13.042 20.4838 13 21.0514Z" fill="url(#paint2_linear_229_27812)"/>
<path fill-rule="evenodd" clip-rule="evenodd" d="M13 21.1821C13.3759 20.538 14.1145 19.6826 15.4655 18.7018C17.7024 17.0778 24.2643 12.4373 27.9636 9.82734V9C24.4603 11.449 17.0061 16.667 15.2161 17.9477C13.544 19.0683 13.042 20.4838 13 21.0514V21.1821Z" fill="#FEF7DC"/>
<path fill-rule="evenodd" clip-rule="evenodd" d="M27.9636 20.9514C23.8469 23.9475 16.2282 29.4963 14.7389 30.5962C13.909 31.2091 13.3534 32.0858 13 32.9071V35.855C13 33.668 13.9797 32.0959 14.804 31.3812C15.0277 31.1872 16.1414 30.3689 17.6759 29.2414C20.6637 27.0461 25.247 23.6784 27.9636 21.464V20.9514Z" fill="#E09611"/>
<path d="M27.918 34.3155V46.9919C30.8563 44.9587 37.3554 40.4528 39.8452 38.6945C42.3351 36.9362 42.9856 35.8929 42.9997 35.591V21.8799C42.9997 23.314 41.3108 24.766 40.4663 25.3127L27.918 34.3155Z" fill="url(#paint3_linear_229_27812)"/>
<path fill-rule="evenodd" clip-rule="evenodd" d="M27.918 34.8831L41.2128 25.5821C41.7577 25.139 42.6687 24.1256 42.9997 22.9087V21.8799C42.9997 23.314 41.3108 24.766 40.4663 25.3127L27.918 34.3155V34.8831Z" fill="#FDE7C1"/>
<path fill-rule="evenodd" clip-rule="evenodd" d="M42.9997 34.8561C42.4047 35.9273 41.377 36.8026 40.8252 37.1703L27.918 46.4239V46.9918C30.8563 44.9587 37.3554 40.4528 39.8452 38.6944C42.3351 36.9361 42.9856 35.8928 42.9997 35.5909V34.8561Z" fill="#F5A927"/>
<defs>
<linearGradient id="paint0_linear_229_27812" x1="42.9268" y1="25.8292" x2="27.9631" y2="25.8292" gradientUnits="userSpaceOnUse">
<stop stop-color="#F7BC4B"/>
<stop offset="0.330595" stop-color="#DCA220"/>
<stop offset="0.560706" stop-color="#FDEFAF"/>
<stop offset="1" stop-color="#F5A927"/>
</linearGradient>
<linearGradient id="paint1_linear_229_27812" x1="14.4421" y1="33.4764" x2="27.1252" y2="33.4764" gradientUnits="userSpaceOnUse">
<stop stop-color="#FEC615"/>
<stop offset="1" stop-color="#FEE1AA"/>
</linearGradient>
<linearGradient id="paint2_linear_229_27812" x1="13" y1="25.8292" x2="27.9636" y2="25.8292" gradientUnits="userSpaceOnUse">
<stop stop-color="#F7BC4B"/>
<stop offset="0.330595" stop-color="#DCA220"/>
<stop offset="0.560706" stop-color="#FDEFAF"/>
<stop offset="1" stop-color="#F5A927"/>
</linearGradient>
<linearGradient id="paint3_linear_229_27812" x1="27.918" y1="36.7522" x2="43.7639" y2="36.7522" gradientUnits="userSpaceOnUse">
<stop stop-color="#FEC615"/>
<stop offset="0.364643" stop-color="#FDCC4D"/>
<stop offset="0.803868" stop-color="#FEE1AA"/>
<stop offset="1" stop-color="#FDCC4D"/>
</linearGradient>
</defs>
</svg>
