<!-- by TradingView --><svg width="56" height="56" viewBox="0 0 56 56" fill="none" xmlns="http://www.w3.org/2000/svg">
<rect width="56" height="56" fill="#F0F3FA"/>
<path d="M9.82367 29.8372C7.92195 29.8372 6.66967 28.9121 6.28125 28.4496L7.91263 28.0385L6.39777 26.1627C7.12801 26.5995 8.8029 27.4732 9.66054 27.4732C12.1309 27.4732 14.0187 26.1627 16.2327 26.1627C18.0039 26.1627 19.41 26.6938 19.8916 26.9593L20.2179 29.3747C19.6586 29.0663 18.1624 28.4496 16.6522 28.4496C14.7644 28.4496 12.2008 29.8372 9.82367 29.8372Z" fill="#186A22"/>
<path fill-rule="evenodd" clip-rule="evenodd" d="M13.0972 26.6322C14.1188 26.3154 15.1358 26 16.2332 26C18.0277 26 19.4563 26.5371 19.9582 26.8137L20.0269 26.8516L20.4063 29.6602L20.1524 29.5203C19.6062 29.2192 18.133 28.6124 16.6527 28.6124C15.7835 28.6124 14.7619 28.9151 13.6541 29.2433C13.5898 29.2623 13.5251 29.2815 13.4602 29.3007C12.2884 29.6469 11.0351 30 9.8242 30C7.88125 30 6.58975 29.056 6.17345 28.5603L6 28.3537L7.63688 27.9412L6.28805 26.271L6.4687 26.0197C6.82972 26.2357 7.42582 26.5605 8.03688 26.8307C8.65476 27.1041 9.26387 27.3105 9.66107 27.3105C10.8735 27.3105 11.9449 26.9892 13.0033 26.6613C13.0346 26.6516 13.0659 26.6419 13.0972 26.6322ZM13.0832 26.9747C12.0266 27.302 10.9191 27.636 9.66107 27.636C9.20062 27.636 8.54347 27.4056 7.92694 27.1329C7.61312 26.9941 7.30359 26.8414 7.02645 26.6958L8.18944 28.1359L6.5868 28.5398C7.09671 29.0006 8.21968 29.6745 9.8242 29.6745C10.9905 29.6745 12.2076 29.3338 13.3838 28.9862C13.4538 28.9655 13.5236 28.9448 13.5934 28.9242C14.6851 28.6005 15.7428 28.2869 16.6527 28.2869C18.0035 28.2869 19.3381 28.7689 20.0321 29.1004L19.7577 27.0687C19.2384 26.804 17.9019 26.3255 16.2332 26.3255C15.1772 26.3255 14.1951 26.63 13.1625 26.9501C13.1361 26.9583 13.1097 26.9665 13.0832 26.9747Z" fill="black"/>
<path d="M46.1763 29.8372C48.0781 29.8372 49.3303 28.9121 49.7188 28.4496L48.0874 28.0385L49.6022 26.1627C48.872 26.5995 47.1971 27.4732 46.3395 27.4732C43.8691 27.4732 41.9813 26.1627 39.7673 26.1627C37.9961 26.1627 36.59 26.6938 36.1084 26.9593L35.7821 29.3747C36.3414 29.0663 37.8376 28.4496 39.3478 28.4496C41.2356 28.4496 43.7992 29.8372 46.1763 29.8372Z" fill="#186A22"/>
<path fill-rule="evenodd" clip-rule="evenodd" d="M42.9028 26.6322C41.8812 26.3154 40.8642 26 39.7668 26C37.9723 26 36.5437 26.5371 36.0418 26.8137L35.9731 26.8516L35.5937 29.6602L35.8476 29.5203C36.3938 29.2192 37.867 28.6124 39.3473 28.6124C40.2165 28.6124 41.2381 28.9151 42.3459 29.2433C42.4102 29.2623 42.4749 29.2815 42.5398 29.3007C43.7116 29.6469 44.9649 30 46.1758 30C48.1187 30 49.4103 29.056 49.8265 28.5603L50 28.3537L48.3631 27.9412L49.712 26.271L49.5313 26.0197C49.1703 26.2357 48.5742 26.5605 47.9631 26.8307C47.3452 27.1041 46.7361 27.3105 46.3389 27.3105C45.1265 27.3105 44.0551 26.9892 42.9967 26.6613C42.9654 26.6516 42.9341 26.6419 42.9028 26.6322ZM42.9168 26.9747C43.9734 27.302 45.0809 27.636 46.3389 27.636C46.7994 27.636 47.4565 27.4056 48.0731 27.1329C48.3869 26.9941 48.6964 26.8414 48.9736 26.6958L47.8106 28.1359L49.4132 28.5398C48.9033 29.0006 47.7803 29.6745 46.1758 29.6745C45.0095 29.6745 43.7924 29.3338 42.6162 28.9862C42.5462 28.9655 42.4764 28.9448 42.4066 28.9242C41.3149 28.6005 40.2572 28.2869 39.3473 28.2869C37.9965 28.2869 36.6619 28.7689 35.9679 29.1004L36.2423 27.0687C36.7616 26.804 38.0981 26.3255 39.7668 26.3255C40.8228 26.3255 41.8049 26.63 42.8375 26.9501C42.8639 26.9583 42.8903 26.9665 42.9168 26.9747Z" fill="black"/>
<rect x="17" y="17" width="22" height="18" fill="black"/>
<path fill-rule="evenodd" clip-rule="evenodd" d="M15 33L27.9513 15L41 33H15ZM21.8173 29L27.8653 20.4755L33.9588 29H21.8173Z" fill="#186A22"/>
<path fill-rule="evenodd" clip-rule="evenodd" d="M19.0527 36V37H21.366C22.1406 37 22.7685 37.7069 22.7685 38.4486V38.7918C22.7685 39.5334 22.1406 40 21.366 40H20.5006V38H19.0527V40.9999H22.097C23.4015 40.9999 24.459 39.9874 24.459 38.7384V38.2615C24.459 37.0125 23.4015 36 22.097 36H19.0527ZM26.0006 37V36H30.5006V37H26.0006ZM27.5006 38H30.5006V39H27.5006V40H30.5006V41H27.5006H26.0006V40V39V38H27.5006ZM33.0006 36V41H33.1488H34.5006H36.9648V40H34.5006V36H33.0006Z" fill="#186A22"/>
<rect x="17" y="41.5" width="22" height="0.5" fill="black"/>
</svg>
