<!-- by TradingView --><svg width="18" height="18" viewBox="0 0 18 18" xmlns="http://www.w3.org/2000/svg"><path fill="#F0F3FA" d="M0 0h18v18H0z"/><path d="M3.67 9.38c.03.02.24.99.17 1.72-.06.55-.32.66-.39.71-.06.06-.19.1-.08.26.11.17.17.27.4.38.21.11.36.25.44.29.08.04.26 0 .32-.14.06-.17.02-.45.03-.55.01-.1.18-.53.48-.83.3-.3.64-.7.9-.58.26.11.4.52.41.74 0 .23-.05.7-.08.81-.03.12-.05.5.27.57.32.07.2-.04.46.02s.25.08.36.02c.1-.05.18-.1.18-.29 0-.18-.14-.84-.04-1.33.04-.2.24-.25.5-.27.26-.03.18 0 .52-.03.34-.02.34.06.36.17a.83.83 0 0 1-.33.7c-.29.23-.35.24-.36.38 0 .14.17.27.3.4.14.14.15.25.48.32.25.05.48-.27.53-.36.05-.09.59-.72.7-.99.03-.1.19.01.24.13.11.28.07.94.16 1.07.1.15.2.3.47.3.26 0 .27-.03.45-.03.19 0 .28.01.34-.09.13-.19-.05-.8-.13-1.13a2.8 2.8 0 0 0-.47-.9c-.17-.24-.32-.36-.35-.62-.05-.3-.05-.54.02-.7.06-.15.32-.5.39-.66.07-.16.37-.55.72-.57.34-.01 1.12.12 1.42.14.3.01.7-.07 1.08-.3.13-.08.22-.16.11-.15-.1 0-.33.13-.56.13-.23 0-.33-.06-.38-.16-.01-.03.04-.09.07-.13.03-.03.18.06.34.02.15-.04.45-.03.68-.37.18-.26.39-.73-.1-1.29-.34-.38-.64-.41-1-.71L13.1 5s-.04.08-.05.3c0 .2.03.32.03.32l.6.44c.16.13.36.25.38.5.02.24.07.48-.06.56-.12.07-.47.02-.84-.28-.35-.28-.38-.32-.45-.47-.06-.15-.5-.87-.98-1.05-.48-.19-1.34-.04-1.56-.02-.2.02-.34.02-.44.13-.06.07-.2.22-.48.37l-.31.14c-.09.03-.19.07-.31.09l-1.04.11a7 7 0 0 0-1.2.26 4.9 4.9 0 0 0-1.36.69c-.26.2-.54.5-.78.78a5.97 5.97 0 0 0-1.08 1.79c-.26.72-.17.51-.13.54.04.04.1-.04.26-.34.23-.43.34-.5.36-.48Z"/></svg>