<!-- by TradingView --><svg width="56" height="56" viewBox="0 0 56 56" fill="none" xmlns="http://www.w3.org/2000/svg">
<rect width="56" height="56" fill="#000067"/>
<path d="M36.8198 15H18.0691C17.6298 15 17.2124 15.1922 16.9259 15.5262L10.3649 23.1772C9.88493 23.7368 9.87769 24.5623 10.3477 25.1303L26.3376 44.4534C26.9285 45.1674 28.0148 45.1845 28.6276 44.4894L45.6216 25.2124C46.1496 24.6134 46.1219 23.7057 45.5583 23.1402L37.8861 15.4431C37.6033 15.1594 37.2197 15 36.8198 15Z" fill="#B2C6E2"/>
<path d="M36.6728 16H18.7082L11.1602 23.9198C10.9552 24.1349 10.9459 24.4641 11.1384 24.6898L27.6077 44L44.8526 24.7071C45.0598 24.4752 45.0471 24.1273 44.8235 23.9103L36.6728 16Z" fill="white"/>
<path fill-rule="evenodd" clip-rule="evenodd" d="M21.6169 17.16L23.8504 18.8966L26.7354 17.16H21.6169ZM20.6322 17.16H19.0514L17.6233 18.718L20.9478 17.4054L20.6322 17.16ZM16.2961 20.1661L12.7821 24H14.8923L16.2961 20.1661ZM12.4219 24.3929L12.4219 24.393L12.4219 24.393V24.3929ZM12.9133 25L15.6338 28.3603L14.953 25H12.9133ZM16.4548 29.3745L20.0791 33.8512L17.5794 25H15.5686L16.4548 29.3745ZM21.042 35.0405L26.7472 42.0876L25.1513 35.6199L18.4816 25.9745L21.042 35.0405ZM28.1017 41.8583L33.3554 35.9304L36.2733 26.0286L29.6411 35.6199L28.1017 41.8583ZM34.2978 34.8671L39.3614 29.1536L40.2029 25H37.2055L34.2978 34.8671ZM40.1593 28.2532L43.0425 25H40.8184L40.1593 28.2532ZM43.1663 24L35.9566 17.16H33.9032L33.5875 17.4054L37.8067 19.0713L41.04 24H43.1663ZM32.9184 17.16H27.7999L30.6849 18.8966L32.9184 17.16ZM27.2872 17.16H27.2482L27.2677 17.1926L27.2872 17.16ZM32.2934 25H36.2504L30.056 33.9582L32.2934 25ZM27.8316 25H31.6716L29.4413 33.9292C29.3147 33.1734 29.1429 32.1941 28.9518 31.125C28.5913 29.109 28.1609 26.7702 27.8316 25ZM23.1208 25H26.9608C26.6314 26.7702 26.2011 29.109 25.8406 31.125C25.6494 32.1941 25.4777 33.1734 25.351 33.9292L23.1208 25ZM18.5419 25H22.4989L24.7364 33.9582L18.5419 25ZM40.3179 24L37.7743 20.1226L37.1038 24H40.3179ZM35.9458 24L30.8552 19.7585L27.8353 24H35.9458ZM27.2677 23.7561L30.363 19.4086L27.2677 17.5454L24.1724 19.4086L27.2677 23.7561ZM23.6802 19.7585L26.7 24H18.5895L23.6802 19.7585ZM16.8232 20.4817L17.4315 24H15.5349L16.8232 20.4817ZM21.5026 17.8368L17.2672 19.509L17.9936 23.7099L23.3337 19.2605L21.5026 17.8368ZM37.2681 19.509L33.0328 17.8368L31.2016 19.2605L36.5418 23.7099L37.2681 19.509ZM27.5691 41.5782L27.5693 41.5771C28.2286 39.0687 28.9369 36.3739 28.8765 34.21C28.7483 33.4367 28.5648 32.3881 28.358 31.2319C28.0529 29.5259 27.6978 27.5881 27.3962 25.9599C27.0946 27.5881 26.7394 29.5259 26.4343 31.2319C26.2276 32.3881 26.044 33.4367 25.9158 34.21C25.8558 36.4118 26.5546 39.055 27.2102 41.535L27.2102 41.535L27.2104 41.5354C27.2728 41.7716 27.3348 42.0063 27.3958 42.239C27.4528 42.0205 27.5107 41.8001 27.5691 41.5782Z" fill="#003CFD"/>
<path fill-rule="evenodd" clip-rule="evenodd" d="M23.8841 18.7685L22.6853 17.2437H23.5416L23.8841 18.7685ZM18.2363 23.4663L18.1287 19.9189L20.8575 18.9395L21.1189 17.9138L22.0797 19.4793L18.5591 22.4561L18.2363 23.4663ZM14.5337 24H13.657L15.8175 21.1025L14.5337 24ZM15.2639 28.0575L13.4688 25H14.4498L15.2639 28.0575ZM16.1516 24H16.9552L16.7883 21.3957L16.1516 24ZM16.8612 29.0732L16.0784 25H16.7359L19.4391 32.9475L16.8612 29.0732ZM19.4506 24L23.249 21.1483L23.4776 19.8957L23.7414 21.1483L26.3616 24H19.4506ZM22.8265 30.3986C21.5721 28.6226 19.0457 25.0564 18.9753 25H21.6307L24.4971 33.7859L22.8265 30.3986ZM23.8839 25H26.3409L25.2519 32.6483L23.8839 25ZM20.6767 31.6506L19.1088 27.6332L21.2798 31.3843L24.8258 36.3455L25.1152 38.088L26.3696 41.3067L24.681 38.3784L21.4486 34.6515L20.6767 31.6506ZM30.913 18.7685L32.1118 17.2437H31.2555L30.913 18.7685ZM36.5608 23.4663L36.6684 19.9189L33.9396 18.9395L33.6782 17.9138L32.7174 19.4793L36.238 22.4561L36.5608 23.4663ZM41.3025 24H42.1792L40.0187 21.1025L41.3025 24ZM40.5265 28.0575L42.3216 25H41.3406L40.5265 28.0575ZM39.6555 24H37.842L38.009 21.3957L39.6555 24ZM37.9361 29.0732L39.5954 25H38.0614L35.3581 32.9475L37.9361 29.0732ZM35.3467 24L31.5482 21.1483L31.3196 19.8957L31.0558 21.1483L28.4356 24H35.3467ZM31.9706 30.3986C33.225 28.6226 35.7514 25.0564 35.8218 25H33.1664L30.3 33.7859L31.9706 30.3986ZM30.9132 25H28.4562L29.5452 32.6483L30.9132 25ZM34.1206 31.6506L35.6886 27.6332L33.5176 31.3843L29.9716 36.3455L29.6821 38.088L28.4277 41.3067L30.1163 38.3784L33.3487 34.6515L34.1206 31.6506ZM26.3924 35.2811L27.2958 30.178L27.4137 26.4935L27.6297 30.178L28.4742 35.1235L27.6297 39.202L27.4137 41.4679L27.2958 39.202L26.3924 35.2811ZM27.1195 22.1165C26.527 21.3209 25.3256 19.7077 25.26 19.6199L26.8845 18.6804L27.2461 17.7517L27.6221 18.6804L29.4157 19.522L27.7211 22.1165L27.1195 23.2961V22.1165Z" fill="#A3E5FD"/>
</svg>
