<!-- by TradingView --><svg width="18" height="18" viewBox="0 0 18 18" xmlns="http://www.w3.org/2000/svg"><path fill="#F0F3FA" d="M0 0h18v18H0z"/><path d="M7.18 11h6.52v1H7.18v-1Z" fill="url(#aoac54smo)"/><path d="M7.75 7.48h1.49L7.49 12H6l1.75-4.52Z" fill="url(#boac54smo)"/><path fill-rule="evenodd" d="m8.41 9.24-.27-.66c-.2.17-.9.42-1.66.42-.95 0-1.33-.38-1.33-.75 0-.38 1.39-2.57 4.39-2.57s4 1.64 4 2.8c0 1.17-1.1 3.6-4.78 3.6-.17 0-.48-.05-.78-.1-.2-.03-.4-.07-.54-.08l.53-.44h-.73l-.25.26a5.17 5.17 0 0 0-1.84-.57c-.49 0-1.15.3-1.15.95 0 .65.85.9 1.25.9s1.06-.07 1.8-.77c.65.27 1.43.54 2.4.54.96 0 4.26-.47 4.26-4.38C13.7 6.03 11.05 5 9.64 5c-1.41 0-4.76.9-4.76 3.09 0 1 1.12 1.53 2.05 1.53a2.8 2.8 0 0 0 1.48-.38Zm-1.76 2.85c-.25-.22-.78-.63-1.36-.63-.72 0-1 .38-1 .7 0 .26.42.53 1.06.53.5 0 1.08-.4 1.3-.6Z" fill="url(#coac54smo)"/><path d="M10.87 5h1.37l-1.87 5H9l1.87-5Z" fill="#FFE13A"/><path d="M9.88 9H14v1H9.88V9Z" fill="url(#doac54smo)"/><path d="M8.68 5h1.49l-.93 2.5h-1.5L8.69 5Z" fill="url(#eoac54smo)"/><defs><linearGradient id="aoac54smo" x1="12.82" y1="12.13" x2="9.78" y2="11.03" gradientUnits="userSpaceOnUse"><stop stop-color="#FCE837"/><stop offset=".29" stop-color="#FFC53F"/><stop offset=".63" stop-color="#FFCA3F"/><stop offset="1" stop-color="#FEEC36"/></linearGradient><linearGradient id="boac54smo" x1="7.31" y1="8.66" x2="8.62" y2="9.14" gradientUnits="userSpaceOnUse"><stop stop-color="#E4B73B"/><stop offset="1" stop-color="#FFF035"/></linearGradient><linearGradient id="coac54smo" x1="13.2" y1="10.8" x2="4.69" y2="7.57" gradientUnits="userSpaceOnUse"><stop stop-color="#D11B48"/><stop offset=".17" stop-color="#6F142C"/><stop offset=".56" stop-color="#D11B48"/><stop offset=".77" stop-color="#6A132A"/><stop offset="1" stop-color="#C21944"/></linearGradient><linearGradient id="doac54smo" x1="13.59" y1="10" x2="10.62" y2="9.23" gradientUnits="userSpaceOnUse"><stop stop-color="#FFE13A"/><stop offset=".29" stop-color="#FFC53F"/><stop offset=".63" stop-color="#FFCA3F"/><stop offset="1" stop-color="#FFE13A"/></linearGradient><linearGradient id="eoac54smo" x1="8.73" y1="5.65" x2="9.62" y2="6.09" gradientUnits="userSpaceOnUse"><stop stop-color="#E4B73B"/><stop offset="1" stop-color="#FFF035"/></linearGradient></defs></svg>