<!-- by TradingView --><svg width="56" height="56" viewBox="0 0 56 56" xmlns="http://www.w3.org/2000/svg"><path fill="#F0F3FA" d="M0 0h56v56H0z"/><path d="M37.08 28.65c3.65-1.02 7.47-.2 8.92.35-.82-12.3-14.15-14.6-18-15 9.67 3.8 9.31 12.63 9.08 14.65Z" fill="#045BA2"/><path d="M44.56 28.59c-2.2-4.63-8.1-13.18-16.32-14.52a2.08 2.08 0 0 1-.04-.05c4.1.46 17 2.88 17.8 14.98-.35-.13-.84-.28-1.44-.41Z" fill="#0890D4"/><path d="M23.1 35a16.28 16.28 0 0 1-5.13 7.26c10.51 5.71 19.61-4.22 22.03-7.22A13.4 13.4 0 0 1 23.1 35Z" fill="#045BA2"/><path d="M19.1 41.28c4.97.56 15.16.07 20.72-6.08h.05c-2.6 3.16-11.57 12.68-21.9 7.06.3-.22.69-.56 1.12-.98Z" fill="#0890D4"/><path d="M24 19.83A16.58 16.58 0 0 1 19.74 12c-9.57 6.9-4.65 19.5-3.02 23-1.83-10.2 5.52-14.36 7.28-15.17Z" fill="#045BA2"/><path d="M20.14 13.44c-2.64 4.22-6.57 13.6-3.49 21.32l-.02.06c-1.7-3.74-6.3-16.03 3.11-22.82.08.37.2.86.4 1.44Z" fill="#0890D4"/><path d="M21 12c.23 0 .43.15.5.38l.7 2.26h2.28c.22 0 .42.15.5.38a.55.55 0 0 1-.2.6l-1.84 1.4.7 2.26c.08.23 0 .48-.18.62a.5.5 0 0 1-.62 0L21 18.5l-1.84 1.4a.5.5 0 0 1-.62 0 .56.56 0 0 1-.19-.62l.7-2.26-1.83-1.4a.56.56 0 0 1-.2-.6.53.53 0 0 1 .5-.38h2.28l.7-2.26A.53.53 0 0 1 21 12Z" fill="#FDFEF6"/><path d="m21 12.55.82 2.63h2.66l-2.15 1.64.82 2.63L21 17.82l-2.15 1.63.82-2.63-2.15-1.64h2.66l.82-2.63Z" fill="#2A1370"/><path d="M39.66 24.04a.55.55 0 0 1 .62.15l1.5 1.74 2.16-.85a.55.55 0 0 1 .62.15.5.5 0 0 1 .04.61l-1.23 1.94 1.5 1.74c.15.18.17.42.05.62a.54.54 0 0 1-.59.23l-2.26-.55-1.24 1.93a.54.54 0 0 1-.58.23.53.53 0 0 1-.4-.47l-.18-2.27-2.26-.55a.53.53 0 0 1-.4-.48.52.52 0 0 1 .33-.52l2.16-.85-.17-2.28a.52.52 0 0 1 .33-.52Z" fill="#FDFEF6"/><path d="m39.87 24.52 1.75 2.04 2.53-1-1.44 2.26 1.75 2.04-2.64-.64-1.44 2.26-.2-2.66-2.64-.64 2.52-1-.2-2.66Z" fill="#2A1370"/><path d="M17.64 36.23a.6.6 0 0 1 .69-.15l2.4 1.03 1.73-1.91a.6.6 0 0 1 .69-.15c.24.1.38.35.36.6l-.26 2.56 2.39 1.03a.6.6 0 0 1-.11 1.13l-2.55.54-.26 2.56a.6.6 0 0 1-1.12.24l-1.32-2.22-2.55.54a.6.6 0 0 1-.65-.28.59.59 0 0 1 .07-.7l1.74-1.9-1.32-2.23a.58.58 0 0 1 .07-.7Z" fill="#FDFEF6"/><path d="m18.09 36.62 2.79 1.21 2.03-2.24-.3 2.99 2.79 1.2-2.98.64-.3 2.99-1.54-2.6-2.98.64 2.03-2.24-1.54-2.59Z" fill="#2A1370"/></svg>