<!-- by TradingView --><svg width="18" height="18" viewBox="0 0 18 18" fill="none" xmlns="http://www.w3.org/2000/svg">
<rect width="18" height="18" fill="#F0F3FA"/>
<path fill-rule="evenodd" clip-rule="evenodd" d="M6.3889 4H12.101C12.6704 4.0557 13.7265 4.51426 13.3959 5.90295L12.9826 7.5H6.37939L7.17868 4.91899C7.20929 4.69311 7.0942 4.19308 6.3889 4ZM5.76336 10.5L5.103 12.9791C5.05705 13.2619 4.7721 13.862 4 14H9.8053C10.3181 13.9569 11.4134 13.583 11.692 12.4327C11.8784 11.6634 12.0172 11.1573 12.1042 10.8405C12.1472 10.6836 12.1776 10.573 12.1946 10.5H5.76336Z" fill="#E30917"/>
<path opacity="0.7" d="M13.9996 8H4.59309L4.02832 10.0039H13.4348L13.9996 8Z" fill="#034577"/>
</svg>
