<!-- by TradingView --><svg width="56" height="56" viewBox="0 0 56 56" xmlns="http://www.w3.org/2000/svg"><path fill="#F0F3FA" d="M0 0h56v56H0z"/><path d="M14 14.11c0-.89.71-1.11 1.07-1.11h8.57c2.59 0 11.77.26 17.22 5.35l-8.8 3.85-4.13-5.45-2.73 1.7-1.56-1.16-2.14 1.07c.13.52.35 1.47.47 2.12l-2.61 1.63 1.87 4.83-5.09 2.22V16.33c0-1.1-.53-1.1-1.07-1.1-.53 0-1.07 0-1.07-1.12Zm7.42 13.33-5.28 2.3v.54l5.46-2.38-.18-.46Zm.37.96-5.65 2.47v.54l5.83-2.55-.18-.46Zm11.55-4.51-.3-.41L42 19.56l.32.4-8.98 3.93Zm-11.17 5.47L16.14 32v.54l6.2-2.71-.17-.47Zm11.82-4.62-.31-.41 8.96-3.93c.1.14.2.28.28.43L34 24.73Zm-11.45 5.59-6.4 2.8v.54l6.58-2.88-.18-.46Zm12.09-4.75-.31-.4 8.88-3.9.25.45-8.82 3.85ZM22.91 31.3l-6.77 2.97v.52l6.95-3.03-.18-.46Zm12.35-4.87-.3-.4 8.73-3.81.2.44-8.63 3.77Zm-11.98 5.83-7.14 3.12v.54l7.32-3.2-.18-.46Zm12.62-4.99-.3-.4 8.48-3.71.17.46-8.35 3.65ZM23.65 33.2l-7.5 3.29v.53l7.68-3.36-.18-.46Zm12.9-5.1-.31-.4 8.17-3.57.13.47-8 3.5Zm-12.53 6.06-7.88 3.45v.54l8.06-3.53-.18-.46Zm13.16-5.21-.3-.4 7.78-3.41.1.5-7.58 3.3ZM24.4 35.12l1.39 3.6 3.58-1.66 1.24 1.65 5.35-2.67-.68-1.7 4.43-2.05-2.2-2.9 7.33-3.21c.1.75.16 1.54.16 2.37 0 12-14.57 14.63-21.36 14.44h-8.57c-.86 0-1.07-.74-1.07-1.11 0-.37.21-1.11 1.07-1.11.86 0 1.07-.74 1.07-1.11v-.93l8.26-3.6Zm8.3-12.08-.3-.4 8.87-3.88.36.37-8.93 3.91Z" fill="#271966"/><path d="m26.67 30.75 1.22-.72.02.05c.2.36.46.56.8.6.33.04.69-.06 1.08-.29.39-.23.65-.5.77-.79a.94.94 0 0 0-.03-.85c-.15-.28-.36-.43-.62-.46-.26-.04-.76.05-1.5.28-.75.23-1.39.3-1.91.2a1.8 1.8 0 0 1-1.23-.99 2.06 2.06 0 0 1-.13-1.75c.22-.61.68-1.13 1.4-1.54.7-.42 1.37-.57 2-.45.62.12 1.1.48 1.44 1.1l.03.04-1.21.72-.04-.07a1 1 0 0 0-.66-.54c-.28-.07-.61.01-1 .24-.4.23-.63.48-.72.73-.09.26-.07.5.06.73.12.24.32.37.6.4.26.01.77-.1 1.52-.32a3.64 3.64 0 0 1 1.9-.16c.5.11.92.46 1.23 1.04.33.6.4 1.22.2 1.84-.21.62-.72 1.17-1.53 1.65-.81.47-1.54.65-2.18.52a2.15 2.15 0 0 1-1.49-1.17l-.02-.04Z" fill="#271966"/></svg>