<!-- by TradingView --><svg width="56" height="56" viewBox="0 0 56 56" fill="none" xmlns="http://www.w3.org/2000/svg">
<rect width="56" height="56" fill="#F0F3FA"/>
<path fill-rule="evenodd" clip-rule="evenodd" d="M27.2599 41H23.4039L23.8204 37.7783C22.4957 39.3876 20.3237 41 17.2793 41C11.5817 41 10.0034 36.2758 10.0034 34.0299C9.97115 33.0839 10.1573 30.6714 11.1597 28.5892C12.4127 25.9864 15.1365 23 19.9576 23C22.4724 23 24.2592 24.4133 25.3619 25.8576L26.8951 14H31.1372L29.8736 23.0883C27.8986 23.7271 25.3326 25.4837 25.3326 29.2342C25.3112 30.3985 26.149 32.9048 29.6716 33.6161C31.0052 33.8095 33.6723 34.4314 33.6723 35.3719C33.6723 36.5476 31.8872 36.9842 30.9182 36.9842C29.9492 36.9842 28.5721 36.4468 27.9941 35.607L27.2599 41ZM36.9775 27.5922L36.9957 27.6278L38.7579 14H43L39.8021 37H42.1572L42.8647 41H39.2459H35.2666H34.5375C36.243 40.2066 39.0785 37.8735 39.0785 34.4146C39.1353 33.3509 38.4295 30.9682 35.1513 29.947C33.7997 29.526 32.8792 29.2913 32.2524 29.1316C30.979 28.807 30.9182 28.7915 30.9182 28.1499C30.9182 27.1926 32.0402 26.8567 33.3493 26.8567C34.6583 26.8567 36.2249 28.0025 36.7689 29.4469L36.9775 27.5922ZM18.8229 36.9975C17.3127 37.0412 14.2921 36.5462 14.2921 32.9565C14.2921 28.4695 18.2331 27 20.1902 27C22.1473 27 24.2921 28.0758 24.2921 31.697C24.2921 35.3181 20.3779 36.9975 18.8229 36.9975Z" fill="#C0202A"/>
</svg>
