<!-- by TradingView --><svg width="56" height="56" viewBox="0 0 56 56" xmlns="http://www.w3.org/2000/svg"><path fill="#F0F3FA" d="M0 0h56v56H0z"/><path d="M32.61 13.1a.26.26 0 0 0-.09-.13.24.24 0 0 0-.14-.05h-1.35a.61.61 0 0 1-.44-.19.64.64 0 0 1-.18-.46 2.57 2.57 0 0 1 .48-1.25.14.14 0 0 1 .14 0c.02 0 .04.02.06.04l.27.37a.18.18 0 0 0 .14.07h1.6a.4.4 0 0 1 .33.16.43.43 0 0 1 .07.36c-.08.38-.28.83-.6 1.36-.08.13-.15.13-.2-.03l-.09-.26Z" fill="#656565"/><path fill-rule="evenodd" d="M18.07 16.48a.11.11 0 0 0 .03-.09c0-.09.03-.07.12.07l.87 1.4c.03.05.04.1.02.15-.02.11-.09.18-.2.2a.2.2 0 0 1-.13-.04c-1-.68-2.08-.17-2.15 1.1a8.38 8.38 0 0 0 .5 3.4.14.14 0 0 1-.1.1h-.08c-2.43-.79-6.34.03-5.03 3.69.03.08.02.16-.04.23l-.22.24c-.11.13-.23.25-.3.38a2.3 2.3 0 0 0 .4 2.94c.23.2.66.42 1.28.65.09.03.08.06 0 .07l-.97.17c-.24.05-.4.12-.48.21-.29.34.08.83.43 1.31l.24.32c.04.07.06.14.06.22v.66c0 .03.01.06.03.07a.1.1 0 0 0 .07.03c.44.02.83-.06 1.15-.25a.55.55 0 0 0 .26-.34.57.57 0 0 0-.05-.43l-.58-1.02a.69.69 0 0 1 .2-.9c.09-.06.19-.1.3-.1.38-.05.72-.06 1.03-.03.62.05.67.25.15.6-1.08.73-.71 1.81.2 2.39.85.53 1.84.9 2.98 1.12.02 0 .05.01.07.03a.15.15 0 0 1 .04.16l-.04.07a5.23 5.23 0 0 0-1.8 3.1c-.25 1.38.18 2.61 1.53 2.99l.84.29c.07.02.1.06.12.13.47 1.92 2.48 2.66 3.86 1.2.29-.3.36-.25.23.15l-.29.75c-.1.24-.1.41-.02.54.05.08.13.15.22.2.09.04.19.06.29.05l.33-.05c.6-.09 1.13-.17 1.49.32a.18.18 0 0 0 .15.07.17.17 0 0 0 .14-.09c.26-.42.39-.78.37-1.09a.7.7 0 0 0-.2-.48.67.67 0 0 0-.47-.19h-1.14a.58.58 0 0 1-.5-.3.62.62 0 0 1-.03-.59l.47-.94c.3-.6.5-.55.61.14.1.6.21 1.11.9 1.22 1.27.2 2.71-1.19 3.48-2.09.3-.37.48-.31.5.18.08 1.14 1 2.33 1.87 3.02 1.35 1.07 2.62.65 3.63-.63.09-.11.2-.15.33-.1.9.35 1.72.13 2.43-.65 1.08-1.18.3-2.9-.53-4.06-.1-.13-.1-.26-.01-.38.09-.13.2-.16.34-.07.63.4 1.17.4 1.62 0 .99-.87.35-3.34-.02-4.48a.15.15 0 0 1 .03-.16.14.14 0 0 1 .15-.03c2.27.85 6.54.04 5.02-3.6-.04-.1-.02-.17.06-.24.6-.54.89-1.18.86-1.94-.05-1.46-1.26-2.2-2.54-2.22h-.48c-.51.01-1 .02-1.12-.12a.22.22 0 0 1 .03-.32l.22-.15c.18-.11.37-.23.51-.43.47-.66.06-1.52-.54-1.93a7.6 7.6 0 0 0-3.17-1.23.13.13 0 0 1-.04-.07.14.14 0 0 1 .05-.14c1.01-.87 1.63-2 1.84-3.39a2.43 2.43 0 0 0-2.38-2.9c-.1 0-.16-.06-.17-.16-.17-1.37-1.44-2.32-2.75-1.94-1.17.33-1.74 1.36-2.22 2.48a.4.4 0 0 1-.16.17c-.08.05-.17.05-.27-.01a.2.2 0 0 1-.1-.21c.08-.88-.22-1.37-.91-1.47-1.3-.2-2.79 1.27-3.63 2.2a.16.16 0 0 1-.24 0 5.64 5.64 0 0 0-1.74-3.12c-1.36-1.28-2.79-.88-3.88.41a.22.22 0 0 1-.22.08c-1.2-.19-2.16-.16-2.84.97-.33.56-.37 1.27-.1 2.13.01.03.02.05.01.06a.2.2 0 0 1-.04.08c-.03.03-.06.03-.09-.01l-.7-.96a.47.47 0 0 0-.41-.18.47.47 0 0 0-.37.25c-.08.14-.24.5-.49 1.05-.16.35-.34.45-.7.43-.03 0-.06 0-.09.02a.17.17 0 0 0-.06.06.18.18 0 0 0-.02.17c.14.35.34.63.6.84.41.33.73.3.95-.07.41-.7.66-1.1.74-1.2a.38.38 0 0 1 .1-.09.21.21 0 0 1 .11-.03h.33c.02 0 .04 0 .06-.02Zm12.13 17.6A10.1 10.1 0 0 1 27.32 31c-.04-.07-.03-.08.03-.02l1.26 1.18a8.99 8.99 0 0 0 6.69 2.38c1.37-.1 2.53.84 2.11 2.37-.09.32-.02.36.22.13.55-.57.57-1.51.5-2.33l-.01-.07c-.08-.82-.15-1.5-1.18-1.3-.62.12-1.25.25-1.9.4-1.9.4-3.64-.05-5.2-1.36-.16-.14-.14-.17.05-.1.59.2.92.33 1 .36 1.45.61 2.92.63 4.4.06.83-.32 1.31-.49 1.45-.5a2.2 2.2 0 0 1 1.54.35c.45.3.77.47.96.5.73.13 1.25.19 1.57.17 1.55-.06 2.2-1.36 1.84-2.83a.35.35 0 0 0-.12-.2.33.33 0 0 0-.2-.07h-1.9a.1.1 0 0 1-.07-.04l-.04-.08c-.06-.09-.03-.14.07-.16l1.66-.21c.02 0 .04-.01.05-.03a.1.1 0 0 0 0-.14c-.5-.44-1.11-.66-1.86-.64a.34.34 0 0 0-.23.1l-2.42 2.1c-1.65 1.37-4.1 1.76-6.1 1.44-.05 0-.07-.03-.08-.06-.02-.07 0-.1.07-.1a8.44 8.44 0 0 0 4.27-1.3c.35-.23.73-.52 1.13-.83.81-.63 1.71-1.32 2.56-1.65 1.26-.49 2.8-.72 3.93.1a.12.12 0 0 0 .12.01.12.12 0 0 0 .07-.1c.13-1.48-.94-2.22-2.16-2.61a.11.11 0 0 0-.11.03.12.12 0 0 0-.03.12c.24.78 0 1.32-.71 1.6-.78.32-1.34.45-1.68.39-.97-.16-1.19-1.22-.44-1.81.2-.17.57-.34 1.08-.54.09-.03.12-.1.1-.18a.2.2 0 0 0-.02-.07.25.25 0 0 0-.2-.13c-.2-.02-.47.05-.79.2-.05.03-.1.02-.12-.04l-.04-.06c-.01-.03 0-.06.02-.08.17-.13.34-.2.5-.21a.1.1 0 0 0 .04-.02.1.1 0 0 0 .04-.04.11.11 0 0 0 0-.1c-.15-.24-.3-.4-.46-.48-.09-.05-.16-.03-.2.07-.3.66-.67 1.37-1.1 2.15-.27.5-.71.96-1.31 1.37a12.26 12.26 0 0 1-5.57 2.09c-.04 0-.08-.02-.1-.06l-.05-.08c-.02-.04 0-.07.03-.08 2.1-.43 3.91-1.43 5.43-2.99.39-.4.71-.96 1.03-1.5.2-.34.38-.67.59-.96.84-1.18 1.81-1.32 2.91-.4.2.16.27.12.19-.13-.23-.77-1.04-1.3-1.78-1.62-.95-.41-1.4-.55-1.78.66l-.13.44c-.33 1.12-.68 2.3-1.33 3.08a6.95 6.95 0 0 1-2.43 1.89c-.83.4-.88.32-.13-.23.49-.37.95-.8 1.38-1.32a6.38 6.38 0 0 0 1.4-3.57c.1-1.09.6-1.82 1.46-2.2.38-.17.65-.35.8-.56l.06-.07c.8-1.02 1.62-2.1.77-3.33-.38-.55-.9-.87-1.55-.96-.05 0-.1 0-.14.02a.24.24 0 0 0-.1.1l-.92 1.65a.11.11 0 0 1-.1.06h-.14c-.1 0-.13-.04-.09-.13l.64-1.43a.14.14 0 0 0-.03-.15.13.13 0 0 0-.14-.04c-.61.23-1.07.67-1.36 1.3a.42.42 0 0 0-.04.25l.58 3.4c.34 1.75-.63 4.64-1.86 5.86-.3.3-.35.26-.15-.12 1.15-2.23 1.19-4.42.79-6.93a7.12 7.12 0 0 1 .4-3.31 3.2 3.2 0 0 1 1.72-2.07.12.12 0 0 0-.02-.15c-1.06-.87-2.44-.3-3.32.59a.11.11 0 0 0-.03.11.1.1 0 0 0 .08.08c.85.15 1.19.7 1.02 1.66-.12.67-.3 1.18-.55 1.5-.37.5-1.12.6-1.44-.07-.25-.53-.34-.96-.26-1.27.17-.74.03-.82-.44-.22-.01 0-.06.18-.14.51-.01.03-.03.05-.06.05H31c-.03-.02-.04-.04-.04-.08v-.6c0-.1-.05-.13-.13-.1l-.48.2c-.11.05-.13.13-.06.23.19.27.56.85 1.12 1.74.69 1.1.68 1.97.67 3.41v.06c-.01 1.6-.36 3.12-1.04 4.58-.2.43-.26.41-.16-.06.56-2.56.82-5.1-.47-7.47v-.02c-.81-1.47-1.88-3.4.49-4.1a.11.11 0 0 0 .07-.08.11.11 0 0 0 0-.08c-.02-.05-.05-.08-.1-.08a2.76 2.76 0 0 0-1.91.48l-.18.11c-.47.31-1.05.69-1.05 1.13 0 .26.06.46.18.6a38.48 38.48 0 0 1 1.98 2.3c.99 1.47 1.01 2.9.88 4.6-.02.3-.06.3-.13.01a6.36 6.36 0 0 1-.12-.75 6.42 6.42 0 0 0-1.44-3.4c-.23-.28-.54-.56-.86-.84-.82-.71-1.7-1.49-1.53-2.58.08-.44.09-.74.04-.9-.58-1.9-1.8-3.78-3.92-2.05-.23.19-.27.42-.12.68l.85 1.53c.04.07.03.13-.04.17l-.09.05h-.05l-.97-1.3c-.14-.19-.22-.17-.24.07a2.7 2.7 0 0 0 .45 1.88c.06.08.13.13.21.16l1.19.43c1.37.5 2.42.87 3.42 1.67a7.87 7.87 0 0 1 2.45 3.45c.28.75.22.78-.2.1-1.25-2.01-2.88-2.93-5.22-3.93-1.48-.63-3.63-2.37-3.59-4.16.01-.57-.19-.67-.6-.3l-.22.18a1.7 1.7 0 0 0-.58 1.3v1.5c0 .03 0 .06.03.09.01.03.04.05.07.06a.15.15 0 0 0 .17-.05c.48-.62 1.04-.7 1.66-.26.6.42 1.4 1.18 1.34 1.94-.07.77-1.17.84-1.63.59a9.27 9.27 0 0 1-.8-.56.16.16 0 0 0-.21.02.23.23 0 0 0-.06.12c-.01.06 0 .14.06.23.11.17.27.35.47.55.02.02.02.04 0 .07l-.04.08c-.01.03-.03.03-.05.02l-.49-.3c-.09-.05-.15-.02-.18.08a1.2 1.2 0 0 0-.04.47c.02.08.07.13.15.13h3.14c.14 0 .29.04.41.11l.48.3c2.02 1.22 3.44 2.08 4.67 4 .2.34.18.37-.1.08-1.62-1.66-4.15-3.47-6.56-3.38-1.54.05-3.7 0-3.35-2.2.07-.49-.04-.54-.34-.16-.54.7-.37 1.89-.24 2.78.09.66.54.85 1.1.73l.13-.03c.96-.22 2.64-.6 3.68-.46a6.7 6.7 0 0 1 3.37 1.53c.1.08.09.1-.03.09a3.87 3.87 0 0 1-.87-.32c-.2-.1-.38-.18-.51-.22a6.59 6.59 0 0 0-4.77.34c-.35.16-1.64.41-2.13.08l-.28-.24a1.2 1.2 0 0 0-.6-.36c-.92-.22-2.38-.46-3.12.13-.71.57-.87 1.57-.55 2.45.03.07.07.13.13.17.06.04.14.07.2.07h1.78c.03 0 .07 0 .1.03a.1.1 0 0 1 .04.07l.01.11a.12.12 0 0 1-.06.12.12.12 0 0 1-.04.02l-1.47.1c-.16.02-.18.08-.07.2.43.46 1.01.68 1.73.67.1 0 .17-.03.23-.1a76.7 76.7 0 0 1 2.2-1.91 7.17 7.17 0 0 1 6.4-1.56c.4.08.39.13 0 .14a9.98 9.98 0 0 0-2.97.55c-1.06.37-2.44 1.45-3.28 2.1-1.42 1.13-4.11 2.28-5.67.97a.13.13 0 0 0-.13-.02.13.13 0 0 0-.08.12 2.54 2.54 0 0 0 2.15 2.54c.09.01.12-.03.1-.12-.21-.83.07-1.39.85-1.67.7-.25 2.11-.65 2.42.33.26.86-.56 1.29-1.16 1.6l-.1.06c-.48.25-.45.4.08.43.09 0 .27-.02.54-.1.04 0 .07 0 .1.03.03.01.04.03.05.06.01.04 0 .08-.04.1l-.39.23c-.06.04-.08.1-.05.16.1.23.25.37.44.43h.11a.16.16 0 0 0 .08-.1c.43-1.04.89-1.91 1.37-2.62.19-.28.57-.61 1.16-1.01a11.93 11.93 0 0 1 5.4-2.03c.09-.01.16.03.21.11l.04.07v.02a.05.05 0 0 1-.03.05c-2.1.4-3.91 1.36-5.44 2.9a7.1 7.1 0 0 0-1.18 1.73c-.66 1.28-2 2.72-3.35 1.15a.14.14 0 0 0-.15-.05.18.18 0 0 0-.06.02c-.06.05-.08.11-.05.19.47 1.08 1.49 1.63 2.55 1.95.43.13.74-.13.87-.5l.33-1.04c.4-1.26.73-2.33 1.38-3.05a7.03 7.03 0 0 1 2.59-1.84c.35-.14.38-.09.1.16l-.72.57a5.96 5.96 0 0 0-2.2 3.81c-.17 1.1-.37 2.37-1.45 2.81-.36.15-.64.34-.82.56-.95 1.15-1.92 2.53-.6 3.83.3.28.71.48 1.26.59.17.03.28-.03.33-.2.18-.65.5-1.2.93-1.66a.12.12 0 0 1 .13-.04l.07.05.02.04a.1.1 0 0 1-.01.05l-.64 1.5c-.1.23-.04.3.2.18.51-.25 1.5-.97 1.38-1.64l-.42-2.56a7.54 7.54 0 0 1 1.46-6.36c.59-.7.67-.64.24.17-1.1 2.15-.94 4.35-.63 6.8.2 1.6-.32 4.15-1.8 5-.43.25-.41.45.06.6l.25.1c.46.14.91.12 1.36-.08a4.3 4.3 0 0 0 1.32-.93.1.1 0 0 0-.03-.1.1.1 0 0 0-.05-.03c-.76-.15-1.1-.62-1-1.4.1-.8.33-1.44.69-1.93a.4.4 0 0 1 .2-.15c1.39-.4 1.58 1.17 1.26 2.14a.1.1 0 0 0 .02.1l.03.02.04.01h.1c.14 0 .22-.06.27-.18l.24-.68c.02-.04.05-.05.08-.03l.09.05.01.02.01.03v.51c0 .08.04.12.11.1.22-.03.4-.1.56-.2.07-.06.09-.12.03-.2l-.15-.23c-.85-1.23-1.51-2.2-1.64-3.69a11.3 11.3 0 0 1 1-5.84c.24-.52.3-.5.18.06l-.2.83a10 10 0 0 0 .15 5.5c.14.44.41 1.02.8 1.73.77 1.38 1.23 2.75-.56 3.4-.33.13-.33.22.02.3.89.19 1.72-.4 2.5-1.05.65-.53.45-.98-.04-1.56l-.58-.67c-.66-.75-1.2-1.36-1.52-2.06a6.35 6.35 0 0 1-.45-3.72c.1-.61.15-.6.17.01a6.61 6.61 0 0 0 2.43 4.92c.72.62 1.52 1.3 1.44 2.28-.07 1.07.2 2.05.84 2.94.62.87 1.43 1.08 2.42.65.36-.16.64-.41.86-.76a.17.17 0 0 0 0-.18l-.99-1.76c-.03-.05-.02-.1.03-.12l.08-.05c.07-.04.12-.02.17.04l.94 1.32.05.04a.11.11 0 0 0 .16-.1c.15-.99-.05-1.88-1.1-2.26l-.77-.28c-1.2-.42-2.35-.83-3.16-1.48a7.57 7.57 0 0 1-2.8-3.98c-.09-.38-.04-.4.15-.06 1.38 2.41 3.36 3.32 5.74 4.41l.23.11c1.36.62 3.18 2.49 3.02 4.29l.01.07a.13.13 0 0 0 .11.07l.06-.01c1.24-.62 1.5-2 1.12-3.26-.04-.1-.1-.12-.18-.04-1.01 1.04-1.74.31-2.59-.65-.82-.93-.27-2.23 1.05-1.7.3.13.61.33.91.6.09.08.15.1.2.1a.21.21 0 0 0 .13-.15.23.23 0 0 0-.03-.2l-.4-.54c-.2-.27-.15-.32.14-.16l.36.22c.09.05.14.03.15-.07l.08-.66c0-.08-.06-.12-.2-.1-.21 0-.44.03-.67.05-1.07.1-2.36.23-3.35-.34a46.55 46.55 0 0 1-1.9-1.14Z" fill="#656565"/><path d="M25.08 15.7c.46.23.79.62.98 1.18a.13.13 0 0 1-.02.12.12.12 0 0 1-.1.04c-.49-.06-.9-.18-1.25-.36-.46-.21-.8-.6-.99-1.16a.13.13 0 0 1 .07-.16h.06c.48.06.9.18 1.25.34ZM35.9 19.3c-.04.78.17 1.42.45 1.43.29.01.54-.6.58-1.38.03-.78-.17-1.42-.45-1.43-.29-.02-.55.6-.58 1.38ZM29.78 25.4c-.72-2.2-2.48-3.17-4.68-4.43-.67-.4-1.7-1.19-1.9-2a.09.09 0 0 1 .13-.1c.65.38 1.3.72 1.97 1.02.97.43 1.62.78 1.95 1.03a7.47 7.47 0 0 1 2.7 4.4c0 .03 0 .05-.03.07l-.08.04c-.03.02-.05 0-.06-.03ZM32.55 21.87c0-.8.15-2.11.75-2.7a.08.08 0 0 1 .09-.02l.04.03a7.55 7.55 0 0 1-2.16 9.2c-.02.03-.05.03-.07.01l-.08-.04c-.02-.02-.03-.04 0-.07 1.5-1.74 1.45-3.8 1.43-6.4ZM42.94 24.65a.25.25 0 0 0 .02-.28l-.69-1.14a.63.63 0 0 1 .2-.86 2.31 2.31 0 0 1 1.24-.23l.06.05a.16.16 0 0 1 .01.14l-.16.41a.19.19 0 0 0 .02.16l.81 1.35a.42.42 0 0 1-.05.51.39.39 0 0 1-.15.1c-.35.12-.81.18-1.4.18-.14 0-.17-.06-.07-.18l.16-.21ZM16.74 25.36c-.43.3-.93.4-1.5.28a.13.13 0 0 1-.1-.08.13.13 0 0 1 .02-.13c.31-.4.63-.7.95-.93.44-.3.94-.39 1.51-.27.02 0 .04 0 .06.02a.13.13 0 0 1 .04.12l-.02.06c-.31.4-.63.7-.96.93ZM20.6 27.1c-.67.4-1.86.92-2.65.68a.08.08 0 0 1-.04-.02.09.09 0 0 1-.02-.05.1.1 0 0 1 .04-.09c.65-.38 1.27-.8 1.87-1.24.86-.65 1.48-1.06 1.86-1.22 1.6-.69 3.3-.74 5.08-.18.02.01.04.03.04.06v.09c0 .04-.02.05-.06.04-2.22-.48-3.94.6-6.11 1.93ZM23.5 34.15c0 .8-.16 2.11-.76 2.7a.08.08 0 0 1-.09.02.09.09 0 0 1-.04-.04 7.53 7.53 0 0 1 2.19-9.2c.02-.01.04-.02.07 0l.07.04c.03.02.03.05.01.07-1.51 1.74-1.47 3.8-1.45 6.4ZM35.43 29c.67-.4 1.84-.92 2.63-.69l.04.03.02.05a.1.1 0 0 1 0 .05l-.04.04c-.65.38-1.26.8-1.85 1.24-.85.64-1.47 1.04-1.84 1.2a7.02 7.02 0 0 1-5.04.19c-.02-.01-.04-.03-.04-.06v-.08c0-.04.02-.06.06-.05 2.2.47 3.9-.6 6.06-1.92ZM39.85 31.57c-.42.3-.91.38-1.47.26a.12.12 0 0 1-.1-.14l.03-.06c.3-.38.62-.68.94-.9.42-.29.91-.37 1.47-.25l.06.03c.01 0 .03.03.03.05a.13.13 0 0 1-.02.12c-.3.38-.62.68-.94.9ZM30.95 35.15c.68.39 1.7 1.18 1.9 2a.09.09 0 0 1-.02.09.09.09 0 0 1-.1 0c-.65-.37-1.3-.71-1.98-1.01-.97-.44-1.62-.78-1.95-1.04a7.5 7.5 0 0 1-2.71-4.4c0-.03 0-.05.02-.06l.08-.05c.03-.01.05 0 .06.03.72 2.2 2.5 3.17 4.7 4.44ZM20.12 36.69a2 2 0 0 1-.48 1.46.12.12 0 0 1-.11.04.12.12 0 0 1-.1-.07c-.18-.47-.29-.9-.32-1.29-.04-.52.12-1 .5-1.46a.12.12 0 0 1 .2.03c.18.46.28.89.31 1.29ZM38.37 39.6a.23.23 0 0 0 .24-.12l.65-1.14a.61.61 0 0 1 .37-.29.58.58 0 0 1 .45.07c.26.17.51.48.75.94a.15.15 0 0 1 0 .14.15.15 0 0 1-.11.07l-.42.06a.18.18 0 0 0-.13.09l-.76 1.35a.4.4 0 0 1-.28.2.38.38 0 0 1-.33-.1 4.47 4.47 0 0 1-.8-1.16c-.07-.13-.03-.19.12-.16l.25.05ZM31.37 39.4c.47.23.8.63 1 1.2a.13.13 0 0 1-.03.12.12.12 0 0 1-.1.05c-.5-.08-.92-.2-1.28-.38-.46-.24-.79-.64-.98-1.21a.13.13 0 0 1 .02-.13.12.12 0 0 1 .11-.04c.5.08.91.2 1.26.39Z" fill="#656565"/></svg>