<!-- by TradingView --><svg width="56" height="56" viewBox="0 0 56 56" xmlns="http://www.w3.org/2000/svg"><path fill="#F0F3FA" d="M0 0h56v56H0z"/><path d="M30.74 12.73c-.58-.35-.08-1.32.22-1.71A.05.05 0 0 1 31 11a.05.05 0 0 1 .03.04c.19.62.57.59 1.16.5h.05c.58-.08 1.51-.21 1.1.8-.15.36-.3.72-.48 1.07a.12.12 0 0 1-.07.06.11.11 0 0 1-.08 0 .12.12 0 0 1-.06-.06.12.12 0 0 1 0-.1c.05-.15.03-.27-.08-.36-.17-.14-.49-.12-.83-.1-.36.02-.74.04-1-.12Zm8.16 20.39a.1.1 0 0 0-.08.1v.04c.44 1.2 1.4 4.98-.91 4.85-.25-.02-.5-.19-.7-.33l-.04-.02c-.05-.04-.09-.03-.12.03l-.2.35c-.03.05-.02.1.02.15 1.14 1.31 1.78 3.46.05 4.54a2 2 0 0 1-2.03.1.1.1 0 0 0-.06 0 .1.1 0 0 0-.06.04c-.64.98-1.92 1.78-3.05 1.12a5.27 5.27 0 0 1-2.63-3.9.09.09 0 0 0-.09-.02 9.63 9.63 0 0 1-2.4 2.11c-.8.51-2 .56-2.21-.62a5.76 5.76 0 0 1-.05-.67c0-.06-.03-.08-.08-.08h-.35c-.06 0-.1.03-.12.08-.4 1.16-1.24 2.47-2.52 2.63-1.28.16-2.28-.76-2.46-2.06a.1.1 0 0 0-.03-.05.09.09 0 0 0-.05-.03c-1.37-.08-2.55-.98-2.47-2.5.1-1.76.83-2.67 1.95-3.89.04-.05.04-.08-.03-.1-1-.23-5.04-1.32-3.74-3.18.17-.24.42-.37.67-.51l.08-.04c.05-.03.06-.06.03-.11l-.18-.35c-.02-.05-.07-.07-.12-.06-.93.15-1.94.21-2.74-.25-1.41-.81-1.65-2.87-.21-3.83a.1.1 0 0 0 .03-.11c-1.61-3.82 2.69-4.52 5.11-3.74.06.02.08 0 .06-.06-.32-1.09-1.09-4.03.08-4.7.52-.3 1.04-.23 1.56.18l.03.02a.08.08 0 0 0 .09-.04l.18-.29a.1.1 0 0 0 0-.13c-.74-.94-1.39-2.25-1-3.44.44-1.31 1.77-1.76 3-1.31a.1.1 0 0 0 .12-.04c.72-.84 1.41-1.45 2.54-1.27 1.66.28 2.83 2.46 3.13 4l.02.03a.06.06 0 0 0 .06.02c.02 0 .03-.01.03-.02.78-.89 2.82-2.95 4.13-2.25.52.27.55.85.57 1.48V15c0 .05.03.08.07.08h.32a.1.1 0 0 0 .06-.02.1.1 0 0 0 .04-.05c.6-1.63 2.29-3.7 4.13-2.16.52.43.8.96.85 1.6 0 .05.03.07.07.07 1.27 0 2.6.98 2.5 2.41a5.57 5.57 0 0 1-2 4v.03a.06.06 0 0 0 .05.04c1.24.23 3.71.96 3.95 2.23.13.72-.29 1.26-.93 1.5-.06.02-.07.06-.04.11l.15.27c.03.05.07.08.12.08h.52c.84-.03 1.63-.04 2.44.48 1.34.84 1.28 2.8.04 3.7-.04.03-.05.07-.03.12.5 1.06.52 2.28-.36 3.12-.26.24-.59.36-.93.5-.09.02-.18.06-.27.1a4.84 4.84 0 0 1-3.56-.1Zm-11.66-2.34c.92 1 1.9 1.83 2.96 2.48.8.5 1.67.86 2.62 1.09.54.13 1.09.13 1.64.12.8 0 1.6 0 2.33.4.74.42.78 1.49.56 2.21-.02.07 0 .1.06.05.95-.62.83-2.19.6-3.2-.1-.53-.5-.77-.98-.66-1.52.35-2.48.54-2.88.57a6.2 6.2 0 0 1-4.53-1.77c1.78.97 3.77 1.37 5.67.55.94-.4 2.46-.87 3.23.11.03.04.06.06.1.08.9.34 1.72.47 2.45.38 1.46-.17 2.07-1.8 1.5-3.04a.22.22 0 0 0-.2-.13l-2 .07a.1.1 0 0 1-.09-.05.1.1 0 0 1 0-.1c.06-.12.8-.23 1.32-.3a7.13 7.13 0 0 0 .5-.1.09.09 0 0 0 .02-.09 2.86 2.86 0 0 0-1.91-.71.2.2 0 0 0-.13.05c-.8.72-1.6 1.42-2.43 2.1a7.51 7.51 0 0 1-6.43 1.41c-.07 0-.07-.02 0-.03.21-.04.45-.05.66-.06.18 0 .35 0 .5-.03a9.42 9.42 0 0 0 2.7-.86c.73-.36 1.38-.86 2.02-1.35a10.2 10.2 0 0 1 2.29-1.47c1.28-.52 2.87-.73 4.05.12.04.03.07.02.08-.03.32-1.48-1-2.46-2.24-2.73-.05-.01-.07 0-.05.05.44 1.36-.44 1.73-1.44 2-.51.12-1.2.22-1.58-.27-.77-1.02.66-1.78 1.39-2 .06-.02.07-.05.03-.1l-.18-.25c-.02-.04-.06-.05-.1-.03-.31.1-.62.13-.94.12-.02 0-.04 0-.05-.02a.08.08 0 0 1-.01-.1.07.07 0 0 1 .04-.03l.67-.2a.08.08 0 0 0 .05-.05.07.07 0 0 0-.02-.07l-.6-.55c-.04-.05-.08-.04-.1.02-.4 1.03-1.2 2.87-2.14 3.46-1.74 1.1-3.28 1.92-5.39 2.2-.24.04-.5.04-.74.02-.1 0-.1-.02 0-.05 2.33-.57 5.04-1.87 6.32-4.06l.14-.26c.58-1.01 1.36-2.4 2.6-2.14.48.1.8.23.96.42.33.39.42.34.25-.15-.32-.94-3.01-2.74-3.46-1.1-.3 1.11-.77 2.67-1.37 3.53a7.1 7.1 0 0 1-3.3 2.42c-.09.03-.1.02-.02-.03a7.2 7.2 0 0 0 3.34-4.94c.2-1.13.43-2.43 1.68-2.64.05 0 .08-.02.12-.05 1.2-1.03 2.54-2.84 1.03-4.28-.41-.4-.9-.57-1.48-.55a.1.1 0 0 0-.09.07 8.02 8.02 0 0 1-.97 1.83.08.08 0 0 1-.08 0 .08.08 0 0 1-.03-.03l-.02-.05a.13.13 0 0 1 0-.12l.63-1.55a.09.09 0 0 0-.02-.09.08.08 0 0 0-.08-.03c-.7.23-1.2.67-1.52 1.34a.2.2 0 0 0-.02.12c.2 1.45.38 2.52.52 3.2.48 2.32-.58 4.9-2.17 6.6-.04.02-.04.02-.02-.02a9.27 9.27 0 0 0 1.31-4.87c0-.42-.07-.92-.14-1.46-.1-.85-.22-1.78-.12-2.55.19-1.48.62-3.28 2.15-3.9a.1.1 0 0 0 .04-.04.1.1 0 0 0-.02-.14c-1.29-.92-2.52-.32-3.5.66-.05.04-.05.07.02.08.85.08 1.28.68 1.14 1.55v.03c-.1.62-.22 1.3-.71 1.74-.45.4-.99.32-1.26-.24a2.5 2.5 0 0 1-.17-1.76c.01-.05 0-.08-.06-.08h-.27c-.04 0-.07.02-.08.07a2.82 2.82 0 0 1-.4.93.07.07 0 0 1-.08-.03.07.07 0 0 1-.01-.04c0-.26.04-.51.12-.76.02-.05 0-.07-.05-.05l-.75.26c-.05.02-.06.06-.03.1l.28.41c.7 1.02 1.5 2.17 1.54 3.4.1 2.45-.11 4.4-1.24 6.51-.03.06-.04.06-.02 0 .64-2.42 1.03-5.73-.34-7.94-.84-1.36-1.86-3.61.6-4.15a.1.1 0 0 0 .05-.03.1.1 0 0 0 0-.13A.1.1 0 0 0 31 15a2.68 2.68 0 0 0-1.67.22c-.6.29-2.21 1.23-1.45 2.06.58.63 1.14 1.26 1.68 1.92 1.21 1.43 1.5 3.48 1.11 5.32-.01.06-.02.05-.02 0-.16-2.04-.73-3.89-2.3-5.2l-.02-.01c-.81-.69-2.1-1.77-1.53-3.02a.21.21 0 0 0 0-.14c-.36-1.7-1.3-3.85-3.45-2.9-.25.11-.54.38-.87.82-.02.02-.03.05 0 .08l1.08 1.77a.15.15 0 0 1-.04.2.14.14 0 0 1-.2-.04L22.3 14.7a.07.07 0 0 0-.07-.02.07.07 0 0 0-.03.02l-.02.03c-.16.74-.04 1.42.35 2.05a.2.2 0 0 0 .1.1c.13.03.25.08.37.12 1.38.5 2.78.99 4.04 1.71.21.12.58.46 1.11 1.02a7.64 7.64 0 0 1 1.9 3.47c-1.36-2.57-3.43-3.7-5.96-4.75-1.55-.65-3.5-2.62-3.24-4.46a.06.06 0 0 0-.02-.05l-.02-.02h-.03c-1.54.4-1.66 2-1.23 3.36 0 .04.03.04.05.02.73-.74 1.47-.73 2.2.03.46.48 1.5 1.67.4 2.2-.68.33-1.4-.1-1.91-.67-.05-.05-.1-.05-.13.02l-.13.24a.13.13 0 0 0 0 .15l.55.73a.08.08 0 0 1 0 .1.07.07 0 0 1-.1.02 1.61 1.61 0 0 1-.53-.47.06.06 0 0 0-.06-.02.06.06 0 0 0-.05.04l-.15.76c-.01.05 0 .08.06.07l.32-.02c1-.08 2.93-.24 3.66.25.45.3.9.56 1.3.79.38.22.71.4.95.58 1.1.8 2 1.78 2.71 2.95.05.08.04.08-.02.02-1.64-1.64-3.34-2.89-5.6-3.44-.4-.1-.92-.11-1.46-.12-1.67-.05-3.56-.1-2.94-2.56.02-.06 0-.09-.07-.07-.99.2-.72 2.51-.63 3.12.1.65.5.84 1.1.7.42-.1 1.18-.25 2.28-.44a6.08 6.08 0 0 1 5.1 1.68 7.9 7.9 0 0 0-3.1-.96 5.6 5.6 0 0 0-2.6.37c-1.04.4-2.43.93-3.27-.14a.2.2 0 0 0-.1-.08c-.67-.2-1.35-.3-2.05-.3-1.75-.03-2.62 1.54-1.82 3.08a.2.2 0 0 0 .18.1l1.94-.06a.1.1 0 0 1 .08.03.1.1 0 0 1 .02.09.2.2 0 0 1-.1.14.22.22 0 0 1-.12.03 7.39 7.39 0 0 0-1.62.17l-.02.03v.03a2.65 2.65 0 0 0 1.94.79.2.2 0 0 0 .12-.05l.64-.57c.86-.78 1.79-1.61 2.62-2.1a7.35 7.35 0 0 1 5.95-.73h-.01a8.63 8.63 0 0 0-3.67.62c-.89.35-1.65.93-2.4 1.5-.76.58-1.5 1.15-2.37 1.5-1.35.55-2.84.9-4.1-.09-.05-.04-.08-.02-.1.04-.29 1.5 1 2.47 2.24 2.78a.06.06 0 0 0 .06-.02.07.07 0 0 0 .01-.06c-.29-.82-.08-1.4.63-1.72.69-.32 2.55-.84 2.56.5.01.85-.92 1.3-1.58 1.49-.06.02-.07.06-.03.11l.12.16c.02.04.06.05.1.05l.92-.02c.02 0 .04 0 .05.02a.09.09 0 0 1 .02.1.08.08 0 0 1-.05.04l-.61.18c-.06.01-.07.05-.03.1l.57.57c.04.04.07.03.09-.02l.01-.03c.43-1 1.2-2.75 2.06-3.36 2.02-1.4 3.85-2.24 6.3-2.32.07 0 .07 0 0 .03-2.25.67-4.08 1.44-5.74 3.18-.38.4-.65.88-.92 1.36-.36.65-.72 1.3-1.33 1.75-.7.52-1.65.25-2.15-.43a.15.15 0 0 0-.21-.05.16.16 0 0 0-.06.21c.33.7.8 1.2 1.41 1.5l.21.11c.73.37 1.55.8 1.92-.32.28-.84.56-1.68.86-2.51.6-1.69 2.26-2.83 3.85-3.39.05-.02.06-.01 0 .02-1.8 1.2-3.13 2.8-3.38 5.06-.12 1.01-.55 2.35-1.7 2.53a.21.21 0 0 0-.12.06c-.84.8-2.12 2.34-1.43 3.65.37.7 1 1.1 1.87 1.16.03 0 .06 0 .09-.02a.15.15 0 0 0 .05-.08 6.4 6.4 0 0 1 .98-1.79.12.12 0 0 1 .16.06l-.35.93a18.34 18.34 0 0 0-.3.82.07.07 0 0 0 .06.05h.04a2.8 2.8 0 0 0 1.54-1.33c.02-.04.03-.1.02-.14l-.55-3.42a7.43 7.43 0 0 1 2.2-6.34 8.93 8.93 0 0 0-1.3 5c.02.51.08 1.07.15 1.62.08.73.17 1.44.14 2.03-.07 1.58-.71 3.44-2.19 4.14-.05.03-.05.06-.01.1 1.05 1.03 2.61.3 3.44-.66.03-.03.02-.05-.02-.05-.74-.13-1.11-.51-1.12-1.17 0-.72.4-2.68 1.48-2.35.92.27.8 1.21.71 1.98 0 .09-.02.17-.03.26 0 .05.02.07.07.07h.27c.04 0 .06-.02.07-.05.08-.31.2-.6.38-.88a.07.07 0 0 1 .1-.03l.03.04v.05l-.14.66v.04l.02.03.03.01h.03l.76-.26c.06-.02.07-.05.04-.1-.56-.77-1.75-2.47-1.82-3.4-.2-2.5-.02-4.63 1.2-6.88.05-.09.06-.08.03.01-.58 2.26-.84 4.25-.28 6.54.15.61.46 1.16.77 1.71.36.65.72 1.29.81 2 .12.94-.73 1.58-1.5 1.76a.08.08 0 0 0-.04.03.08.08 0 0 0 .04.13c1.26.33 2.28-.46 3.13-1.28a.2.2 0 0 0 .06-.12c.05-.38-.01-.68-.28-.98a61.96 61.96 0 0 1-1.6-1.95 6.3 6.3 0 0 1-1.06-5.18c.02-.08.02-.08.03 0 .12 2.12.83 4.13 2.54 5.44.81.62 1.75 1.67 1.34 2.8a.25.25 0 0 0 0 .14c.15.85.47 1.62.94 2.32.9 1.31 2.55.97 3.32-.22a.11.11 0 0 0 0-.12l-1.05-1.75a.11.11 0 0 1 .05-.16c.12-.05.22-.02.3.11a8.81 8.81 0 0 0 .98 1.3h.02a.05.05 0 0 0 .04-.04 2.6 2.6 0 0 0-.31-2.02.23.23 0 0 0-.12-.1l-.85-.3c-1.28-.45-2.7-.95-3.69-1.7a7.8 7.8 0 0 1-2.9-4.31c-.03-.09-.02-.1.02-.02 1.44 2.62 3.43 3.59 6.11 4.78 1.52.67 3.21 2.59 3.12 4.4v.03l.03.03a.07.07 0 0 0 .07.01c1.4-.63 1.5-2 1.18-3.34a.07.07 0 0 0-.05-.05h-.04a.07.07 0 0 0-.03.02c-.57.76-1.33.7-1.95.09l-.08-.07c-.53-.51-1.56-1.5-.73-2.2.7-.59 1.57.1 2.13.53l.07.05c.05.04.1.03.12-.04l.06-.18a.1.1 0 0 0-.01-.1l-.51-.75a.1.1 0 0 1 .02-.13.1.1 0 0 1 .13 0l.44.46a.06.06 0 0 0 .1 0v-.04l.17-.8c0-.06-.01-.08-.07-.08l-.27.03c-1.1.11-2.75.28-3.63-.19-2.2-1.14-3.85-2.34-5.15-4.5a.01.01 0 0 1 .01-.02h.01Zm-9.2-14.5c-.32-.52-1.12-1.8-1.54-.88l-.15.36c-.21.56-.44 1.16-1.14 1.07a.06.06 0 0 0-.05.02.06.06 0 0 0 0 .06c.2.54 1.02 1.8 1.62.72.21-.39.44-.77.68-1.15a.14.14 0 0 1 .15-.07l.47.1a.05.05 0 0 0 .05-.01.06.06 0 0 0 0-.07 5.93 5.93 0 0 1-.09-.15Zm5.68-.92c1.07.08 2.05.48 2.32 1.63.01.05 0 .06-.04.05l-.06-.01c-1.06-.28-2-.53-2.25-1.63 0-.03 0-.04.03-.04Zm12.8 2.4-.03.02c-.83 1.09-.62 1.75-.26 2.95l.01.03c.02.05.04.05.07.02.85-.87.65-1.6.39-2.56a22.68 22.68 0 0 1-.13-.44.05.05 0 0 0-.05-.01Zm-10.3 2.53a6.9 6.9 0 0 1 3.68 5.19c0 .06 0 .06-.03 0a6.72 6.72 0 0 0-2.9-3.42l-.58-.33c-1.27-.73-2.67-1.53-3.26-2.93a.04.04 0 0 1 .01-.05.04.04 0 0 1 .05 0c.97.58 1.97 1.1 3.02 1.54Zm7.2-1.18c0-.07-.03-.08-.07-.02-.89 1.11-.86 2.71-.84 4.14v.84a6.4 6.4 0 0 1-1.54 4.4c1.73-1.13 2.66-3.5 2.69-5.5 0-.44-.05-1.01-.11-1.63-.07-.73-.15-1.52-.14-2.23ZM43 24.44c-.14-.33-.3-.64-.5-.93-.83-1.25.46-1.4 1.3-1.4.06.01.07.03.03.08a.95.95 0 0 0-.22.69c0 .04.02.08.04.1l.86 1.27c.03.05.04.1.03.17-.04.24-.19.38-.45.43-.03 0-.07 0-.12.02-.36.06-1.21.2-1.3.05-.04-.05-.02-.08.03-.1.13-.02.23-.1.3-.23a.18.18 0 0 0 0-.15Zm-25.3-.16a1.8 1.8 0 0 0-1.35.04c-.38.17-.7.54-1 .89l-.23.26c-.03.03-.02.05.01.06 1.1.38 1.81-.36 2.59-1.19.03-.03.02-.05-.01-.06Zm9.12.76c.04.02.08.04.1.07.04.04.03.05-.02.03-.14-.06-.3-.1-.52-.11a6.66 6.66 0 0 0-4.13 1.05l-.48.29c-1.18.72-2.82 1.72-4 1.3-.03-.01-.04-.03 0-.04a14.7 14.7 0 0 0 1.95-1.26c1.13-.81 2.22-1.6 3.79-1.77a7.02 7.02 0 0 1 3.3.44Zm-1.77 2.48a6.63 6.63 0 0 0-2.7 5.22c0 .52.05 1.17.12 1.87.07.75.15 1.54.14 2.27 0 .06.02.07.06.02.9-1.04.86-2.9.82-4.33v-.82a6.37 6.37 0 0 1 1.56-4.23Zm4.12 3.33c.9.45 2.55.06 3.43-.33.78-.35 1.7-.87 2.77-1.54.8-.5 1.92-.9 2.87-.66.07.01.07.04 0 .07-.82.4-1.47.87-2.14 1.36l-.75.53a6.5 6.5 0 0 1-6.18.65l-.03-.05c0-.03.01-.04.03-.03Zm3.7 6.31a4.32 4.32 0 0 0-1.96-2.06l-.28-.16c-2-1.15-3.7-2.12-4.51-4.5-.01-.02-.02-.02-.01 0a6.72 6.72 0 0 0 2.86 4.78c.57.4 1.35.77 2.16 1.15.58.27 1.16.55 1.68.84.06.03.08.01.05-.05Zm7.97-6.72a.06.06 0 0 1 .04.04v.03l-.01.02-.01.01c-.7.79-1.4 1.59-2.6 1.16-.05-.01-.06-.04-.02-.07l.36-.35c.65-.63 1.11-1.08 2.24-.84Zm-27.82.55c-.51.04-1.38.12-1.53.48a.4.4 0 0 0 .03.36l.27.37c.36.48.81 1.08.42 1.56-.03.03-.02.06.02.07.5.1.95.03 1.36-.24a.21.21 0 0 0 .09-.1c.18-.52-.17-1.05-.48-1.52-.1-.14-.19-.27-.26-.4-.03-.06-.02-.1.03-.14l.34-.32a.08.08 0 0 0-.02-.13.08.08 0 0 0-.05-.01l-.22.02Zm6.44 7.2c-.34-1.07-.68-2.15.22-2.94.04-.04.07-.03.09.02l.02.07c.32 1.11.53 1.84-.26 2.85-.03.04-.05.04-.07 0Zm18.98 1.36a.32.32 0 0 1-.24-.02l-.18-.09a.12.12 0 0 0-.14.03.12.12 0 0 0 0 .15l.89 1.21a.2.2 0 0 0 .13.09c.56.13.87-.79 1.06-1.35l.09-.24a.12.12 0 0 1 .1-.08l.61-.07a.08.08 0 0 0 .06-.04.08.08 0 0 0 0-.08c-.28-.62-1-1.7-1.66-.6-.2.32-.37.63-.53.93a.33.33 0 0 1-.19.16Zm-8.42-.6c1.13.18 2.01.53 2.34 1.7.01.04 0 .06-.05.05-1.18-.25-2.04-.45-2.32-1.7-.01-.04 0-.05.03-.04Zm-6.32 4.17h-.2l-.08-.01a.14.14 0 0 1-.06-.06.7.7 0 0 1-.06-.4c0-.02 0-.05-.02-.08a.11.11 0 0 0-.15-.04.12.12 0 0 0-.05.07l-.4 1.1c-.38 1.02.5.9 1.17.79l.16-.02c.48-.07.8 0 .95.48.02.06.05.07.1.02.27-.35.68-1.17.33-1.59-.28-.33-1.21-.28-1.7-.26Z" fill="#656565"/></svg>