<!-- by TradingView --><svg width="18" height="18" viewBox="0 0 18 18" xmlns="http://www.w3.org/2000/svg"><path fill="#F0F3FA" d="M0 0h18v18H0z"/><path fill-rule="evenodd" d="M8.88 4C7.25 3.96 4 4.9 4 8.96 4 12.74 6.12 14 7.96 14 9.81 14 15 12.98 15 9.27 15 5.56 11.32 4 8.88 4Zm.25 2.07c-.8 0-2.38.53-2.38 2.6 0 2.6 1.77 3.38 2.66 3.38 1.11 0 3.19-.92 3.19-2.58 0-1.65-2.15-3.4-3.47-3.4Z" fill="#F15D22"/><path fill-rule="evenodd" d="M10.04 5a4 4 0 0 0-3.08 1.75A4.7 4.7 0 0 0 6 9.62c0 1 .7 2.35 2.23 3 .9.38 1.45.38 1.88.38.43 0 2.17 0 2.73-2.83.1-.51.16-1 .16-1.47.01-2.13-1-3.7-2.96-3.7Zm-.42 2C9.08 7 8 7.35 8 8.74 8 10.47 9.2 11 9.82 11c.76 0 2.18-.61 2.18-1.72C12 8.17 10.53 7 9.62 7Z" fill="#C41130"/></svg>