<!-- by TradingView --><svg width="18" height="18" viewBox="0 0 18 18" xmlns="http://www.w3.org/2000/svg"><path fill="#F0F3FA" d="M0 0h18v18H0z"/><path fill-rule="evenodd" d="M9 14.82A5.82 5.82 0 1 0 9 3.18a5.82 5.82 0 0 0 0 11.64ZM9 15A6 6 0 1 0 9 3a6 6 0 0 0 0 12Z" fill="#017D8C"/><path fill-rule="evenodd" d="M9 14.5a5.5 5.5 0 1 0 0-11 5.5 5.5 0 0 0 0 11ZM8 7.84l.27-.17v-1.6C8.27 5.7 8.5 5 9.37 5c.11 0 .43.04.72.18l-.36.7c-.06-.05-.22-.17-.37-.17-.18 0-.36.18-.36.36V7.3l.73-.35v.88L9 8.2v4.27l-.73.53V8.56L8 8.73v-.89ZM6.35 6C5.33 6 5 6.7 5 7.06v3.88C5 11.3 5.33 12 6.35 12s1.38-1.03 1.38-1.5v-.7l-.73.35v.35c0 .24-.21.8-.65.8-.44 0-.62-.48-.62-.71V9.53l2-.97V6.97c0-.35-.36-.97-1.38-.97Zm-.62 2.65V7.24c0-.12.18-.53.62-.53s.65.26.65.44v.88l-1.27.62Zm5-2.05-.73.36v3.37c0 .36.27 1.43 1.55 1.43 1.01 0 1.45-.9 1.45-1.43V5.71l-.73.36v4.26c0 .36-.19.67-.77.67-.58 0-.77-.31-.77-.67V6.6Z" fill="#017D8C"/></svg>