<!-- by TradingView --><svg width="18" height="18" viewBox="0 0 18 18" fill="none" xmlns="http://www.w3.org/2000/svg">
<rect width="18" height="18" fill="#F0F3FA"/>
<circle cx="9" cy="9" r="5" fill="#057E8D"/>
<path fill-rule="evenodd" clip-rule="evenodd" d="M9 13.7811C11.6405 13.7811 13.7811 11.6405 13.7811 9C13.7811 6.35946 11.6405 4.21887 9 4.21887C6.35946 4.21887 4.21887 6.35946 4.21887 9C4.21887 11.6405 6.35946 13.7811 9 13.7811ZM9 14C11.7614 14 14 11.7614 14 9C14 6.23858 11.7614 4 9 4C6.23858 4 4 6.23858 4 9C4 11.7614 6.23858 14 9 14Z" fill="#005C67"/>
<path fill-rule="evenodd" clip-rule="evenodd" d="M8.68746 7.62557V6.19936C8.70149 5.80986 9.01903 5.08173 10.177 5.2852L9.83875 5.9385C9.67295 5.9119 9.31246 5.94648 9.31246 6.29756V7.3695L9.93745 7.11344V7.81992L9.31246 8.08139V12.1095L8.68746 12.4375V8.34288L8.06246 8.60437V7.88164L8.68746 7.62557ZM5.36719 10.3335V7.35398C5.36719 6.70975 5.92683 6.1875 6.61719 6.1875C7.30755 6.1875 7.86719 6.70975 7.86719 7.35398V8.6923L6.72076 9.18901V9.18979L5.99219 9.50555V10.387C5.99219 10.6565 6.27201 10.875 6.61719 10.875C6.96237 10.875 7.24219 10.6565 7.24219 10.387V10.0357L7.86719 9.80096V10.3335C7.86719 10.9778 7.30755 11.5 6.61719 11.5C5.92683 11.5 5.36719 10.9778 5.36719 10.3335ZM7.24219 7.30056V8.1931L5.99219 8.72494V7.30056C5.99219 7.03102 6.27201 6.81253 6.61719 6.81253C6.96237 6.81253 7.24219 7.03103 7.24219 7.30056ZM10.3719 7.0455V10.2978C10.3719 10.9409 10.9316 11.5 11.6219 11.5C12.3123 11.5 12.8719 10.9409 12.8719 10.2978V6.05176L12.2469 6.37297V10.343C12.2469 10.6229 11.9063 10.875 11.6058 10.875C11.3052 10.875 10.9969 10.6229 10.9969 10.343V6.78452L10.3719 7.0455Z" fill="white"/>
</svg>
