<!-- by TradingView --><svg width="56" height="56" viewBox="0 0 56 56" fill="none" xmlns="http://www.w3.org/2000/svg">
<rect width="56" height="56" fill="#F0F3FA"/>
<path fill-rule="evenodd" clip-rule="evenodd" d="M10 36.994V19.0454C12.4409 17.3636 19.45 14 27.9591 14C36.4682 14 43.5318 17.3636 46 19.0454V36.994C43.484 38.6626 36.3534 42 27.9591 42C19.5647 42 12.4887 38.6626 10 36.994ZM12 35.7091V20.3247C14.1697 18.8831 20.4 16 27.9636 16C35.5273 16 41.8061 18.8831 44 20.3247V35.7091C41.7636 37.1394 35.4253 40 27.9636 40C20.502 40 14.2122 37.1394 12 35.7091ZM13 35.338V20.8634C13.5339 20.6023 14.5729 20.1114 15.5576 19.6461L15.5578 19.6461L15.558 19.646L15.5582 19.6459L15.5591 19.6454L15.5592 19.6454C16.083 19.3979 16.5914 19.1577 17 18.9633V20.8634L15 21.7633V27H17V29H15V34.0788L17 35.0462V36.9471L13 35.338ZM18.5402 37.291C18.7846 37.3877 19.4869 37.6423 20.341 37.8871L20.8738 29.318C20.8789 29.2355 20.9465 29.1713 21.0282 29.1713H21.249C21.3232 29.1713 21.387 29.2246 21.401 29.2984L23.114 38.3382L25.2813 38.6604L26.5063 29.9264C26.5171 29.8492 26.5824 29.7918 26.6595 29.7918H26.8477C26.9259 29.7918 26.9919 29.8508 27.0013 29.9293L28.0571 38.6604L29.9415 38.5063L27.8099 17.2874H26.0808L24.3924 30.8948C24.3827 30.9731 24.3168 31.0318 24.2388 31.0318H23.981C23.9073 31.0318 23.8438 30.9793 23.8292 30.9063L21.2251 17.8621L19.4724 18.5086L18.5402 37.291ZM30 37.335V18.2642C30 17.5512 31.0173 17.2884 31.4488 17.3545C31.7694 17.4036 32.2136 17.4637 32.6865 17.5276C33.6439 17.657 34.719 17.8023 35.1245 17.9053C35.7304 18.0591 35.9606 18.5029 36 18.7055V25H34V20.479C34 19.7193 33.6707 19.6362 32.8556 19.4701C32.2035 19.3371 32.0505 19.7626 32 19.992V35.2091C32 36.2624 32.4516 36.2624 33.381 36.0792C34.1179 35.9339 34.038 35.5696 34.001 35.4011L34 35.3966V31H36V36.0792C35.9922 36.3066 35.9023 36.8763 35.6046 37.335C35.2325 37.9084 33.4185 38.2145 31.7906 38.3356C30.4882 38.4324 30.0542 37.7089 30 37.335ZM37.0006 35.8149V19.9093C37.0006 18.9474 38.3469 18.763 38.7889 18.9578C39.3862 19.2209 40.4876 19.6594 41.334 19.9964C41.63 20.1142 41.8948 20.2197 42.0959 20.3008C42.8721 20.614 43.0206 21.1578 42.9978 21.3905V33.9974C42.9978 34.5042 42.7245 35.011 42.3009 35.3151C41.8773 35.6192 39.5542 36.6581 38.256 36.7975C37.2174 36.909 36.9863 36.1889 37.0006 35.8149ZM40.9952 33.6337V22.3923C41.0636 22.328 40.3982 21.6227 39.7199 21.6227C39.1772 21.6227 39.0139 21.9865 39 22.1684V33.5504C39 34.4079 39.4015 34.5898 40.1629 34.5119C40.772 34.4495 40.9715 33.9004 40.9952 33.6337Z" fill="#E51008"/>
</svg>
