<!-- by TradingView --><svg width="56" height="56" viewBox="0 0 56 56" fill="none" xmlns="http://www.w3.org/2000/svg">
<rect width="56" height="56" fill="#F0F3FA"/>
<path d="M42.792 27.2651C42.5691 27.1436 42.3672 27.0083 42.1863 26.8593C42.0107 26.7142 41.8737 26.6151 41.7102 26.5005C41.6508 26.4591 41.5713 26.4573 41.5151 26.3995C41.2276 26.1041 40.7979 25.8425 40.4542 25.6118C40.2633 25.4841 40.0835 25.2868 39.8438 25.176C39.744 25.1299 39.6265 25.0384 39.5466 24.966C39.34 24.7791 39.1728 24.6526 39.0449 24.5865C38.7955 24.4578 38.5409 24.2408 38.3096 24.0751C38.2613 24.0406 38.2274 24.0062 38.2079 23.9717C38.2001 23.9579 38.189 23.9479 38.1744 23.9417C37.957 23.8433 37.7578 23.7154 37.5766 23.5579C37.3499 23.3607 37.1214 23.2555 36.9198 23.1014C36.5027 22.7825 36.0558 22.5082 35.642 22.186C35.4599 22.0446 35.2327 21.9286 35.0743 21.8074C34.909 21.6806 34.7408 21.5576 34.5699 21.4383C34.4979 21.388 34.4027 21.3523 34.3246 21.2917C34.1477 21.1541 33.9605 21.0329 33.7826 20.8967C33.5773 20.7399 33.3209 20.6187 33.1109 20.4421C32.9951 20.3447 32.894 20.2694 32.8076 20.2162C32.3031 19.9062 31.8145 19.5309 31.3458 19.2228C31.166 19.1044 30.9593 18.9199 30.7364 18.7973C30.4172 18.6226 30.1409 18.3703 29.832 18.1726C29.8187 18.1638 29.8041 18.1607 29.7883 18.1632C29.5356 18.2011 29.284 18.2457 29.0335 18.2971C27.0807 18.6986 25.1498 19.142 23.2481 19.7526C21.4691 20.3237 19.6998 20.971 17.9937 21.7393C17.6394 21.899 17.2821 22.052 16.9216 22.1982C16.8817 22.2145 16.8368 22.2385 16.7869 22.2701C16.5742 22.4068 16.315 22.5059 16.0841 22.6092C15.6586 22.7999 15.2564 23.03 14.8379 23.2362C14.1987 23.5509 13.5902 23.9083 12.958 24.2329C12.7318 24.0154 12.4466 23.8867 12.1837 23.7172C11.729 23.4241 11.3671 23.2061 10.9458 22.9699C10.9383 22.9658 10.932 22.9597 10.9274 22.9524C10.9229 22.945 10.9203 22.9366 10.92 22.928C10.9196 22.9193 10.9214 22.9107 10.9253 22.903C10.9292 22.8953 10.935 22.8887 10.9421 22.8839C12.0908 22.1038 13.2827 21.358 14.5141 20.7056C15.2843 20.2979 16.1069 19.8357 16.8352 19.5046C17.2143 19.3324 17.4152 19.241 17.4381 19.2303C17.6871 19.1142 18.0384 18.9563 18.4921 18.7569C19.6078 18.267 20.7538 17.7734 21.6972 17.4657C22.079 17.3413 22.5491 17.1384 22.9671 17.0036C23.535 16.8204 24.103 16.6375 24.6709 16.455C25.1126 16.3132 25.6459 16.1934 26.0254 16.0764C27.3501 15.6688 28.6638 15.3931 29.9885 15.0976C30.2468 15.0399 30.6128 14.9849 30.8223 15.0037C30.9937 15.0192 31.1493 15.2024 31.2631 15.278C31.5836 15.4906 31.9023 15.7055 32.2191 15.9229C32.3199 15.9914 32.5275 16.1676 32.7017 16.2638C32.8008 16.3186 32.8751 16.3637 32.9246 16.3991C33.6381 16.9068 34.3785 17.3821 35.0785 17.9082C35.249 18.0359 35.4515 18.1468 35.6071 18.259C35.8236 18.4154 36.0591 18.5662 36.2639 18.7367C36.2952 18.7624 36.3378 18.7888 36.3917 18.8161C36.5081 18.8746 36.7286 19.0331 37.0531 19.2914C37.1451 19.3647 37.2631 19.4276 37.3718 19.5046C39.598 21.0862 41.805 22.6947 43.9928 24.3301C44.0824 24.3973 44.16 24.4672 44.2585 24.5245C44.5567 24.6978 44.7801 24.9393 45.0569 25.1281C45.7797 25.6212 46.4676 26.1787 47.1741 26.6968C47.233 26.7397 47.2982 26.794 47.3697 26.8598C47.5569 27.0321 47.7896 27.1265 47.9931 27.2853C47.9961 27.2878 47.9982 27.2911 47.9992 27.2949C48.0003 27.2987 48.0001 27.3027 47.9988 27.3063C47.9974 27.31 47.995 27.3132 47.9918 27.3154C47.9886 27.3176 47.9849 27.3187 47.981 27.3186C46.2484 27.2285 44.5187 27.2106 42.792 27.2651Z" fill="#B2D88D"/>
<path d="M42.793 27.2651C42.7738 27.2839 42.7647 27.29 42.7656 27.2835L42.2519 27.282C42.237 27.282 42.2234 27.2863 42.211 27.2947C42.1986 27.3035 42.1803 27.3082 42.1562 27.3088C41.2439 27.3289 40.2333 27.3891 39.1244 27.4896C39.0469 27.4965 38.9691 27.5008 38.8907 27.5023C38.8845 27.5023 38.8814 27.5055 38.8814 27.5117C38.8814 27.5158 38.8816 27.52 38.8819 27.5244C38.882 27.5262 38.8816 27.5281 38.881 27.5298C38.8803 27.5315 38.8792 27.5331 38.8779 27.5344C38.8766 27.5356 38.8751 27.5366 38.8733 27.5373C38.8716 27.5379 38.8698 27.5382 38.868 27.538C38.6408 27.5244 38.4062 27.5855 38.2079 27.601C38.0428 27.6135 37.8722 27.6362 37.696 27.6691C37.7035 27.6634 37.6973 27.6534 37.6774 27.639C37.1892 27.2543 36.6718 26.9091 36.1673 26.5489C33.9024 24.9319 31.6281 23.3286 29.3443 21.7389C29.1859 21.6285 28.9448 21.365 28.7437 21.3928C28.1953 21.4673 27.6493 21.5564 27.1058 21.66C27.099 21.6613 27.0956 21.6655 27.0956 21.6727C27.0961 21.6905 26.8894 21.7084 26.8592 21.7168C26.0157 21.947 25.1522 22.0606 24.3123 22.3265C23.6602 22.5327 23.0066 22.6872 22.3526 22.9164C21.726 23.1357 21.0975 23.3363 20.4756 23.5777C19.2618 24.0478 18.1238 24.5011 16.4692 25.2582C16.3416 25.3164 16.2357 25.3689 16.1515 25.4155C16.0447 25.4747 15.9425 25.5247 15.8449 25.5654C15.7105 25.6214 15.5819 25.6898 15.4589 25.7706C15.4456 25.7794 15.4311 25.7835 15.4153 25.7828C15.3465 25.78 15.2906 25.7983 15.2476 25.8378C15.2395 25.834 15.2301 25.8322 15.2192 25.8322C15.0163 25.741 14.9025 25.6006 14.7431 25.4724C14.6084 25.3644 14.523 25.2878 14.3511 25.1882C14.2656 25.1388 14.1704 25.0685 14.0654 24.9773C13.9168 24.848 13.5498 24.6044 12.9646 24.2465C12.9627 24.2418 12.9608 24.2373 12.959 24.2329C13.5912 23.9084 14.1997 23.5509 14.8388 23.2362C15.2573 23.0301 15.6596 22.7999 16.0851 22.6092C16.3159 22.5059 16.5751 22.4068 16.7879 22.2701C16.8377 22.2385 16.8826 22.2145 16.9226 22.1983C17.283 22.052 17.6404 21.8991 17.9946 21.7394C19.7008 20.971 21.47 20.3238 23.2491 19.7526C25.1508 19.1421 27.0817 18.6987 29.0345 18.2971C29.285 18.2458 29.5366 18.2011 29.7893 18.1632C29.8051 18.1607 29.8196 18.1639 29.8329 18.1726C30.1418 18.3704 30.4182 18.6226 30.7373 18.7973C30.9603 18.9199 31.167 19.1045 31.3467 19.2228C31.8154 19.531 32.3041 19.9062 32.8085 20.2162C32.8949 20.2694 32.996 20.3447 33.1119 20.4421C33.3218 20.6187 33.5782 20.7399 33.7835 20.8968C33.9614 21.033 34.1486 21.1542 34.3256 21.2918C34.4036 21.3524 34.4989 21.3881 34.5709 21.4383C34.7418 21.5576 34.9099 21.6807 35.0753 21.8075C35.2337 21.9287 35.4608 22.0447 35.6429 22.186C36.0568 22.5082 36.5036 22.7825 36.9208 23.1014C37.1224 23.2555 37.3509 23.3607 37.5776 23.558C37.7587 23.7155 37.958 23.8434 38.1754 23.9417C38.1899 23.948 38.2011 23.958 38.2088 23.9718C38.2283 24.0062 38.2622 24.0406 38.3106 24.0751C38.5419 24.2409 38.7964 24.4579 39.0459 24.5866C39.1738 24.6526 39.341 24.7791 39.5475 24.9661C39.6274 25.0384 39.7449 25.13 39.8448 25.176C40.0845 25.2869 40.2642 25.4841 40.4552 25.6119C40.7989 25.8425 41.2286 26.1041 41.5161 26.3995C41.5723 26.4573 41.6517 26.4592 41.7112 26.5005C41.8747 26.6151 42.0117 26.7142 42.1873 26.8593C42.3681 27.0084 42.57 27.1437 42.793 27.2651Z" fill="#7AC143"/>
<path d="M37.676 27.639C37.5965 27.6573 37.5148 27.6883 37.4367 27.693C36.9326 27.7227 36.4297 27.7662 35.928 27.8235C35.9249 27.8239 35.9229 27.8257 35.922 27.8292C35.9211 27.8345 35.9197 27.8395 35.9178 27.8442C35.9132 27.8552 35.905 27.8614 35.8932 27.863C35.4482 27.9247 35.0049 27.9962 34.5633 28.0776C34.5071 28.088 34.4254 28.0837 34.3631 28.1058C34.1662 28.1744 33.9376 28.1716 33.7305 28.2261C33.3626 28.3233 33.0212 28.3529 32.6607 28.4111C32.5348 28.4318 32.4192 28.5055 32.2803 28.5271C32.0011 28.5708 31.7029 28.66 31.4591 28.7141C31.3364 28.7413 31.2135 28.7696 31.0902 28.7991C31.0831 28.8008 31.0765 28.8042 31.0709 28.8089C31.0653 28.8136 31.0608 28.8196 31.0577 28.8263C31.0261 28.8996 30.1696 29.025 30.0098 29.0804C29.9953 29.0854 29.9804 29.0868 29.9652 29.0846C29.9485 29.0824 29.9395 29.0873 29.9383 29.0992C29.9358 29.118 29.9257 29.13 29.9081 29.1354C29.7124 29.1936 29.5173 29.2531 29.3228 29.3138C29.272 29.3295 29.0824 29.3987 28.7538 29.5214C28.5887 29.5834 28.4201 29.6342 28.248 29.6736C28.1321 29.7002 28.0235 29.7369 27.9219 29.7835C27.7875 29.8455 27.6511 29.9023 27.5127 29.954C27.2298 30.0597 26.9455 30.2269 26.6236 30.2992C26.5261 30.3213 26.4513 30.396 26.3565 30.4326C26.0773 30.5411 25.8028 30.7121 25.5576 30.8229C25.2398 30.966 24.9285 31.1227 24.6235 31.2931C24.6104 31.3006 24.5999 31.3107 24.5919 31.3236C24.5417 31.4067 24.2584 31.5171 24.1441 31.5622C24.0094 31.6162 23.8863 31.735 23.798 31.7928C23.5607 31.9492 23.3275 32.1253 23.079 32.2611C22.8407 32.3912 22.6094 32.6579 22.3395 32.8162C22.0873 32.9637 21.9646 33.1539 21.7682 33.3207C21.7647 33.3235 21.7607 33.3255 21.7564 33.3265C21.752 33.3275 21.7475 33.3275 21.7433 33.3264C21.739 33.3253 21.7351 33.3231 21.7318 33.3202C21.7285 33.3172 21.726 33.3135 21.7245 33.3094C21.6469 33.0952 21.5796 32.9754 21.4333 32.7331C21.3366 32.5739 21.3143 32.3963 21.2066 32.2498C21.038 32.0206 20.8968 31.7735 20.7286 31.5434C20.6983 31.5021 20.6688 31.4493 20.6404 31.3851C20.5766 31.2423 20.4426 31.066 20.2386 30.8563C20.0881 30.7013 20.0207 30.4716 19.873 30.326C19.6119 30.0695 19.4076 29.7699 19.1614 29.5041C18.8924 29.2133 18.6184 28.8953 18.3592 28.6309C17.4952 27.7493 16.5792 26.9161 15.6098 26.1543C15.4979 26.066 15.3859 25.9293 15.2461 25.8377C15.2891 25.7983 15.345 25.78 15.4138 25.7828C15.4296 25.7834 15.4441 25.7794 15.4574 25.7706C15.5804 25.6898 15.709 25.6214 15.8434 25.5653C15.941 25.5246 16.0432 25.4747 16.15 25.4155C16.2342 25.3689 16.3401 25.3164 16.4677 25.2582C18.1223 24.501 19.2603 24.0478 20.4741 23.5777C21.096 23.3362 21.7245 23.1357 22.3511 22.9163C23.0051 22.6871 23.6587 22.5326 24.3108 22.3264C25.1507 22.0606 26.0142 21.9469 26.8577 21.7168C26.8879 21.7083 27.0946 21.6905 27.0941 21.6726C27.0941 21.6654 27.0975 21.6612 27.1044 21.66C27.6478 21.5563 28.1938 21.4672 28.7422 21.3927C28.9433 21.365 29.1844 21.6285 29.3428 21.7389C31.6266 23.3286 33.9009 24.9319 36.1659 26.5488C36.6703 26.9091 37.1878 27.2543 37.676 27.639Z" fill="#6CB545"/>
<path d="M12.9646 24.2465C13.5499 24.6044 13.9168 24.848 14.0654 24.9773C14.1704 25.0684 14.2656 25.1387 14.3511 25.1882C14.523 25.2877 14.6085 25.3643 14.7432 25.4723C14.9025 25.6005 15.0163 25.741 15.2193 25.8321C14.9062 26.0024 14.5944 26.1712 14.2838 26.3384C14.0961 26.4394 13.843 26.5206 13.6372 26.6451C13.0905 26.9762 12.5159 27.2425 11.9673 27.5755C11.9289 27.599 11.8894 27.6136 11.8488 27.6192C11.6686 27.4915 11.506 27.3224 11.3458 27.2036C10.881 26.8588 10.4196 26.5144 9.96158 26.1703C9.95827 26.1678 9.9556 26.1646 9.95379 26.1609C9.95198 26.1571 9.95109 26.153 9.95118 26.1489C9.95127 26.1447 9.95235 26.1407 9.95432 26.137C9.95629 26.1334 9.9591 26.1303 9.96251 26.128C10.3662 25.8528 10.7824 25.5508 11.2055 25.3014C11.5461 25.101 11.8831 24.8943 12.2163 24.6814C12.4439 24.5363 12.7281 24.4357 12.9646 24.2465Z" fill="#64C295"/>
<path d="M15.2181 25.8322C15.2289 25.8322 15.2383 25.834 15.2464 25.8378C15.3862 25.9294 15.4982 26.0661 15.6101 26.1544C16.5795 26.9162 17.4955 27.7494 18.3595 28.631C18.6187 28.8954 18.8927 29.2134 19.1617 29.5041C19.4079 29.7699 19.6123 30.0696 19.8733 30.326C20.021 30.4716 20.0884 30.7013 20.2389 30.8563C20.4429 31.0661 20.5769 31.2424 20.6407 31.3852C20.6691 31.4493 20.6986 31.5021 20.7289 31.5434C20.8971 31.7736 21.0383 32.0206 21.2069 32.2498C21.3146 32.3964 21.3369 32.5739 21.4336 32.7331C21.5799 32.9755 21.6472 33.0953 21.7248 33.3094C21.7263 33.3136 21.7288 33.3173 21.7321 33.3202C21.7354 33.3232 21.7393 33.3253 21.7436 33.3264C21.7478 33.3275 21.7523 33.3276 21.7567 33.3266C21.761 33.3256 21.765 33.3236 21.7685 33.3207C21.965 33.154 22.0876 32.9637 22.3398 32.8163C22.6097 32.658 22.841 32.3912 23.0793 32.2611C23.3278 32.1254 23.561 31.9492 23.7983 31.7928C23.8866 31.7351 24.0097 31.6162 24.1444 31.5622C24.2587 31.5171 24.542 31.4068 24.5922 31.3236C24.6002 31.3108 24.6108 31.3006 24.6238 31.2931C24.9288 31.1228 25.2402 30.966 25.5579 30.823C25.8031 30.7121 26.0776 30.5411 26.3568 30.4327C26.4516 30.396 26.5264 30.3213 26.6239 30.2993C26.9458 30.2269 27.2301 30.0597 27.513 29.954C27.6514 29.9024 27.7878 29.8456 27.9222 29.7836C28.0238 29.7369 28.1324 29.7003 28.2483 29.6737C28.4204 29.6342 28.5891 29.5835 28.7541 29.5215C29.0827 29.3987 29.2723 29.3295 29.3231 29.3139C29.5176 29.2531 29.7127 29.1936 29.9084 29.1354C29.926 29.1301 29.9361 29.118 29.9386 29.0992C29.9398 29.0873 29.9488 29.0825 29.9655 29.0847C29.9807 29.0869 29.9956 29.0855 30.0101 29.0804C30.1699 29.025 31.0264 28.8996 31.058 28.8264C31.0611 28.8196 31.0656 28.8137 31.0712 28.8089C31.0768 28.8042 31.0834 28.8009 31.0905 28.7991C31.2138 28.7697 31.3367 28.7413 31.4594 28.7141C31.7032 28.6601 32.0014 28.5708 32.2806 28.5272C32.4195 28.5056 32.5352 28.4318 32.661 28.4112C33.0215 28.3529 33.3629 28.3233 33.7308 28.2261C33.9379 28.1716 34.1665 28.1744 34.3634 28.1059C34.4257 28.0838 34.5074 28.088 34.5636 28.0777C35.0052 27.9963 35.4485 27.9247 35.8935 27.863C35.9053 27.8615 35.9135 27.8552 35.9181 27.8443C35.92 27.8396 35.9214 27.8345 35.9223 27.8292C35.9232 27.8258 35.9252 27.8239 35.9283 27.8236C36.43 27.7663 36.9329 27.7228 37.437 27.693C37.5151 27.6883 37.5968 27.6573 37.6763 27.639C37.6961 27.6534 37.7023 27.6634 37.6948 27.6691C37.8936 27.7545 38.0547 27.8529 38.1779 27.964C38.3845 28.15 38.5971 28.2975 38.8157 28.4065C38.8288 28.4129 38.8403 28.4226 38.8491 28.4346C38.8708 28.4634 38.9035 28.4937 38.9471 28.5253C39.4503 28.8898 39.9546 29.253 40.46 29.6149C40.6932 29.7817 41.141 30.1227 41.4972 30.3566C41.56 30.3974 41.6059 30.45 41.6566 30.5036C41.6253 30.5173 41.5669 30.5263 41.4815 30.5303C40.2353 30.587 38.8787 30.7026 37.4115 30.877C37.0822 30.9159 36.6836 30.9305 36.4096 30.9676C35.5793 31.0806 34.6349 31.245 33.5761 31.4608C33.2435 31.5289 32.812 31.5787 32.4469 31.6703C31.9815 31.7867 31.4176 31.9353 30.7552 32.116C30.4881 32.1888 30.0148 32.2935 29.6511 32.4236C28.7792 32.7341 28.0239 32.9412 27.0694 33.3813C26.9216 33.4494 26.7238 33.4907 26.5617 33.5673C26.1747 33.7514 25.7989 33.9792 25.4027 34.1379C25.0887 34.2638 24.7901 34.4813 24.4928 34.6457C23.8448 35.004 23.1926 35.4427 22.6162 35.9096C22.3788 36.1017 22.161 36.2313 21.9208 36.4891C21.866 36.548 21.7943 36.608 21.7058 36.669C21.5014 36.8095 21.3095 37.056 21.1823 37.1786C21.0488 37.3073 20.9197 37.4401 20.7949 37.5769C20.7075 37.6727 20.6286 37.8216 20.5134 37.9235C20.4163 38.0095 20.3624 38.0978 20.283 38.1936C20.2691 38.2105 20.259 38.2085 20.2528 38.1875C20.1943 37.9968 20.1789 37.7728 20.1381 37.6079C20.0568 37.2824 19.989 36.9654 19.8473 36.6582C19.6017 36.1259 19.4014 35.7223 19.2462 35.4474C18.9418 34.9066 18.5352 34.3001 18.0264 33.6279C16.5921 31.7322 14.6425 29.8878 12.765 28.3454C12.4515 28.0875 12.1951 27.8217 11.9531 27.7015C11.9391 27.6946 11.9288 27.6839 11.922 27.6695C11.9083 27.641 11.8846 27.6337 11.8509 27.6475C11.8453 27.6349 11.8442 27.6255 11.8476 27.6193C11.8882 27.6136 11.9277 27.5991 11.9661 27.5756C12.5147 27.2426 13.0893 26.9763 13.636 26.6452C13.8417 26.5207 14.0949 26.4394 14.2826 26.3385C14.5932 26.1713 14.905 26.0025 15.2181 25.8322Z" fill="#23B474"/>
<path d="M42.7649 27.2834C42.8045 27.3279 42.8457 27.365 42.8884 27.3947C43.5626 27.8663 44.2233 28.3564 44.8705 28.8653C44.9703 28.9437 45.106 29.0282 45.2147 29.1137C45.7984 29.5703 46.3874 30.0309 46.9816 30.4955C47.0278 30.5315 47.0219 30.5478 46.964 30.5444C45.2478 30.4457 43.4976 30.4418 41.7133 30.5326L41.657 30.5035C41.6064 30.45 41.5604 30.3974 41.4977 30.3565C41.1415 30.1226 40.6937 29.7816 40.4605 29.6149C39.9551 29.2529 39.4508 28.8897 38.9476 28.5252C38.9039 28.4936 38.8713 28.4634 38.8496 28.4346C38.8407 28.4225 38.8293 28.4129 38.8162 28.4064C38.5975 28.2974 38.3849 28.1499 38.1784 27.964C38.0551 27.8528 37.8941 27.7545 37.6953 27.669C37.8715 27.6361 38.0421 27.6134 38.2072 27.6009C38.4055 27.5854 38.6401 27.5243 38.8673 27.538C38.8691 27.5381 38.8709 27.5378 38.8726 27.5372C38.8743 27.5366 38.8759 27.5356 38.8772 27.5343C38.8785 27.533 38.8796 27.5315 38.8803 27.5297C38.8809 27.528 38.8813 27.5262 38.8812 27.5243C38.8809 27.52 38.8807 27.5157 38.8807 27.5117C38.8807 27.5054 38.8838 27.5023 38.89 27.5023C38.9684 27.5007 39.0462 27.4965 39.1237 27.4896C40.2326 27.3891 41.2432 27.3288 42.1555 27.3088C42.1796 27.3081 42.1979 27.3034 42.2103 27.2947C42.2227 27.2862 42.2363 27.282 42.2511 27.282L42.7649 27.2834Z" fill="#64C295"/>
<path d="M11.8512 27.6474C11.885 27.6336 11.9087 27.641 11.9223 27.6695C11.9291 27.6839 11.9395 27.6945 11.9534 27.7014C12.1954 27.8217 12.4518 28.0875 12.7654 28.3454C14.6429 29.8878 16.5924 31.7322 18.0268 33.6278C18.5356 34.3001 18.9421 34.9066 19.2465 35.4474C19.4017 35.7223 19.602 36.1259 19.8476 36.6582C19.9893 36.9654 20.0571 37.2824 20.1384 37.6079C20.1793 37.7727 20.1946 37.9968 20.2531 38.1875C20.2593 38.2084 20.2694 38.2105 20.2833 38.1936C20.3627 38.0978 20.4166 38.0095 20.5137 37.9235C20.6289 37.8216 20.7079 37.6727 20.7952 37.5769C20.92 37.4401 21.0491 37.3073 21.1826 37.1786C21.3099 37.056 21.5017 36.8094 21.7061 36.669C21.7947 36.6079 21.8663 36.548 21.9212 36.4891C22.1613 36.2313 22.3791 36.1016 22.6165 35.9095C23.193 35.4427 23.8451 35.004 24.4931 34.6456C24.7904 34.4812 25.0891 34.2638 25.4031 34.1379C25.7993 33.9792 26.1751 33.7514 26.562 33.5672C26.7241 33.4907 26.922 33.4494 27.0697 33.3813C28.0242 32.9412 28.7795 32.734 29.6514 32.4236C30.0151 32.2935 30.4884 32.1887 30.7555 32.1159C31.4179 31.9353 31.9818 31.7867 32.4472 31.6702C32.8123 31.5786 33.2438 31.5288 33.5764 31.4607C34.6352 31.245 35.5797 31.0806 36.4099 30.9676C36.6839 30.9305 37.0825 30.9159 37.4118 30.8769C38.879 30.7025 40.2357 30.587 41.4818 30.5303C41.5672 30.5262 41.6256 30.5173 41.6569 30.5035L41.7131 30.5327C42.918 31.4084 44.1006 32.2874 45.261 33.1694C45.3269 33.2195 45.3915 33.2713 45.4547 33.3249C45.6409 33.4836 45.849 33.563 46.0283 33.7457C46.0308 33.7484 46.0325 33.7518 46.0332 33.7555C46.0338 33.7591 46.0334 33.7629 46.032 33.7663C46.0306 33.7698 46.0282 33.7727 46.0251 33.7748C46.0221 33.7769 46.0185 33.778 46.0149 33.7781C44.5758 33.7784 43.1376 33.8406 41.7001 33.9646C41.0544 34.02 40.4085 34.0698 39.7622 34.1139C38.4105 34.206 37.0476 34.4268 35.7131 34.6597C35.3671 34.7198 34.9253 34.7555 34.5347 34.8363C33.7952 34.9901 33.0585 35.156 32.3246 35.3342C32.1281 35.3821 31.9251 35.3821 31.7379 35.4366C31.0681 35.6316 30.3968 35.8214 29.7239 36.0058C28.9662 36.2134 28.2268 36.507 27.4775 36.7545C27.3029 36.8121 26.989 36.9431 26.536 37.1476C26.353 37.2303 26.1216 37.2833 25.9651 37.3618C25.67 37.5093 25.376 37.6583 25.083 37.8089C24.9246 37.8897 24.7528 37.9329 24.599 38.0231C24.3607 38.1621 24.1359 38.2823 23.8902 38.4387C23.7717 38.5139 23.631 38.5449 23.5241 38.6149C23.0378 38.9338 22.4888 39.2452 22.0438 39.6167C21.7874 39.8309 21.5133 39.983 21.2741 40.2212C21.1264 40.3687 20.9643 40.4673 20.8194 40.6058C19.9554 41.4334 19.3901 42.1116 18.8104 42.9923C18.8086 42.9952 18.806 42.9975 18.8029 42.9988C18.7997 43 18.7963 43.0003 18.793 42.9994C18.7897 42.9986 18.7868 42.9967 18.7847 42.9941C18.7825 42.9914 18.7813 42.9882 18.7811 42.9848C18.7463 42.5123 18.6799 42.0919 18.5159 41.6274C18.3078 41.0384 18.0997 40.4349 17.8191 39.8736C17.5841 39.403 17.3588 38.9366 17.0871 38.4838C16.8525 38.0926 16.6244 37.6652 16.3467 37.3049C16.1948 37.1081 16.1009 36.9005 15.9523 36.7089C15.3419 35.9227 14.8863 35.2863 14.1064 34.3746C13.8633 34.0906 13.4702 33.6576 12.927 33.0755C12.6878 32.8186 12.4044 32.5875 12.1833 32.2982C12.1267 32.2235 12.0361 32.1822 11.9762 32.1239C11.7128 31.8679 11.4606 31.6092 11.1926 31.356C10.6458 30.8394 10.0624 30.3598 9.51988 29.8408C9.381 29.7079 9.14317 29.5952 9.03123 29.4533C8.97642 29.3844 8.99376 29.324 9.08325 29.272C9.53815 29.0078 9.98624 28.7321 10.4275 28.4449C10.5604 28.3585 10.7503 28.2914 10.9213 28.1744C11.0232 28.1046 11.2393 27.9757 11.5697 27.7879C11.6529 27.7409 11.7639 27.7113 11.8512 27.6474Z" fill="#0B713D"/>
</svg>
