<!-- by TradingView --><svg width="18" height="18" viewBox="0 0 18 18" fill="none" xmlns="http://www.w3.org/2000/svg">
<rect width="18" height="18" fill="#F0F3FA"/>
<path d="M13.3966 8.94231C11.99 8.14165 10.7618 6.92444 9.40894 6.01973C9.40484 6.01691 9.40036 6.0159 9.3955 6.01671C9.31775 6.02888 9.24034 6.04323 9.16325 6.05973C8.5624 6.18881 7.96827 6.33132 7.38314 6.52758C6.83574 6.71116 6.29135 6.91919 5.76639 7.16618C5.65739 7.21751 5.54743 7.26667 5.43652 7.31367C5.42423 7.31891 5.41041 7.3266 5.39507 7.33677C5.32961 7.3807 5.24986 7.41256 5.17883 7.44577C5.04791 7.50706 4.92414 7.58104 4.79537 7.64731C4.5987 7.74846 4.41147 7.86335 4.21695 7.96767C4.14735 7.89777 4.05959 7.8564 3.9787 7.8019C3.83878 7.7077 3.72744 7.63765 3.59781 7.56171C3.5955 7.56038 3.59355 7.55844 3.59216 7.55608C3.59077 7.55372 3.58997 7.55102 3.58986 7.54824C3.58974 7.54546 3.59031 7.5427 3.5915 7.54022C3.59269 7.53774 3.59447 7.53563 3.59667 7.53409C3.95012 7.28333 4.31686 7.04359 4.69575 6.8339C4.93271 6.70286 5.18583 6.5543 5.40994 6.44787C5.52656 6.39252 5.5884 6.36313 5.59545 6.35971C5.67206 6.32237 5.78016 6.27164 5.91975 6.20753C6.26305 6.05007 6.61564 5.8914 6.90592 5.79252C7.0234 5.75251 7.16804 5.68729 7.29667 5.64397C7.47142 5.58509 7.64617 5.52631 7.82091 5.46764C7.95684 5.42204 8.12091 5.38355 8.23768 5.34596C8.6453 5.21492 9.04949 5.1263 9.4571 5.03134C9.53657 5.01277 9.64919 4.99511 9.71365 5.00114C9.76639 5.00613 9.81427 5.065 9.84929 5.08931C11.6048 6.30585 13.3419 7.59973 14.997 8.94881L14.9989 8.95189L14.9987 8.95556L14.9966 8.95847L14.9932 8.95952C14.4601 8.93054 13.9279 8.9248 13.3966 8.94231Z" fill="#B2D88D"/>
<path d="M13.3984 8.94236C13.3925 8.94839 13.3897 8.95036 13.39 8.94824L13.2319 8.94779C13.2274 8.94779 13.2232 8.94915 13.2194 8.95187C13.2156 8.95468 13.2099 8.95619 13.2025 8.9564C12.9218 8.96284 12.6108 8.98221 12.2696 9.01452C12.2458 9.01673 12.2219 9.01809 12.1977 9.01859C12.1977 9.01859 12.1949 9.0196 12.1949 9.02161L12.195 9.02569L12.1947 9.02743L12.1938 9.02889L12.1924 9.02983L12.1907 9.03007C12.1209 9.02569 12.0487 9.04532 11.9876 9.0503C11.9369 9.05432 11.8844 9.06162 11.8301 9.07219C11.8324 9.07038 11.8305 9.06716 11.8244 9.06253C11.006 8.38888 10.1171 7.78905 9.26038 7.16607C9.21164 7.13059 9.13747 7.0459 9.07558 7.0548C8.90683 7.07876 8.73885 7.10739 8.57163 7.1407C8.56953 7.14111 8.56849 7.14247 8.56849 7.14478C8.56863 7.15052 8.50503 7.15625 8.49574 7.15897C8.23619 7.23295 7.97049 7.26948 7.71209 7.35493C7.51142 7.4212 7.31033 7.47087 7.10909 7.54454C6.91629 7.61505 6.72291 7.67951 6.53154 7.75711C6.15808 7.90823 5.80792 8.05391 5.29882 8.29727C5.25957 8.31599 5.22698 8.33285 5.20106 8.34784C5.16819 8.36687 5.13675 8.38292 5.10673 8.396C5.06538 8.41402 5.02579 8.43601 4.98796 8.46198C4.98387 8.46479 4.97939 8.4661 4.97453 8.4659C4.95338 8.465 4.93618 8.47088 4.92293 8.48356C4.92046 8.48236 4.91755 8.48175 4.91422 8.48175C4.85176 8.45246 4.81674 8.40733 4.76772 8.36611C4.72627 8.33139 4.69997 8.30678 4.64709 8.27478C4.62079 8.25887 4.59149 8.23628 4.55919 8.20699C4.51346 8.16542 4.40055 8.08712 4.22047 7.97208L4.21875 7.96771C4.41327 7.86339 4.6005 7.7485 4.79716 7.64735C4.92594 7.58108 5.04971 7.5071 5.18063 7.44581C5.25166 7.4126 5.33141 7.38074 5.39687 7.33681C5.41221 7.32665 5.42603 7.31895 5.43832 7.31371C5.54923 7.26671 5.65918 7.21755 5.76818 7.16622C6.29314 6.91923 6.83754 6.7112 7.38494 6.52762C7.97007 6.33136 8.5642 6.18885 9.16505 6.05977C9.24213 6.04327 9.31955 6.02893 9.3973 6.01675C9.40216 6.01594 9.40664 6.01695 9.41074 6.01977C10.7636 6.92448 11.9918 8.14169 13.3984 8.94236Z" fill="#7AC143"/>
<path d="M11.8234 9.06251C11.7989 9.0684 11.7738 9.07836 11.7498 9.07987C11.5946 9.08944 11.4399 9.10343 11.2855 9.12184L11.2837 9.12365L11.2824 9.12849C11.281 9.13201 11.2784 9.13402 11.2748 9.13452C11.1379 9.15435 11.0015 9.17735 10.8656 9.20352C10.8483 9.20684 10.8232 9.20548 10.804 9.21257C10.7434 9.23462 10.6731 9.23371 10.6094 9.25122C10.4962 9.28247 10.3911 9.29198 10.2802 9.3107C10.2415 9.31735 10.2059 9.34105 10.1632 9.34799C10.0773 9.36203 9.98552 9.39072 9.91048 9.40808C9.87275 9.41683 9.83492 9.42594 9.797 9.4354C9.79481 9.43597 9.79278 9.43705 9.79104 9.43857C9.78931 9.44008 9.78792 9.442 9.78699 9.44416C9.77727 9.46771 9.51372 9.50802 9.46456 9.52583C9.46008 9.52744 9.45551 9.5279 9.45084 9.52719C9.44569 9.52649 9.44293 9.52805 9.44255 9.53187C9.44179 9.53791 9.43869 9.54179 9.43326 9.5435C9.37304 9.56222 9.31301 9.58134 9.25317 9.60086C9.23755 9.6059 9.17919 9.62814 9.07809 9.66759C9.02731 9.68752 8.97543 9.70382 8.92245 9.71651C8.88681 9.72506 8.85337 9.73684 8.82212 9.75183C8.78076 9.77176 8.73879 9.79003 8.6962 9.80663C8.60916 9.8406 8.52169 9.89435 8.42265 9.91759C8.39263 9.92469 8.36962 9.94869 8.34046 9.96047C8.25457 9.99534 8.1701 10.0503 8.09464 10.0859C7.99688 10.1319 7.90107 10.1823 7.80722 10.237C7.80321 10.2395 7.79998 10.2427 7.7975 10.2469C7.78206 10.2736 7.69488 10.3091 7.65972 10.3235C7.61827 10.3409 7.5804 10.3791 7.55324 10.3977C7.48021 10.4479 7.40846 10.5046 7.332 10.5482C7.25868 10.59 7.1875 10.6758 7.10446 10.7266C7.02685 10.774 6.98912 10.8352 6.92866 10.8888L6.92503 10.8907L6.921 10.8906L6.91747 10.8886L6.91523 10.8851C6.89136 10.8163 6.87064 10.7778 6.82562 10.6999C6.79589 10.6487 6.78903 10.5917 6.75587 10.5446C6.70399 10.4709 6.66054 10.3915 6.6088 10.3175C6.59946 10.3042 6.59041 10.2873 6.58165 10.2666C6.56202 10.2207 6.52081 10.1641 6.45802 10.0966C6.41171 10.0468 6.39099 9.973 6.34554 9.9262C6.26521 9.84377 6.20233 9.74745 6.12658 9.66201C6.04382 9.56856 5.9595 9.46635 5.87975 9.38136C5.61391 9.09799 5.33207 8.83017 5.03378 8.5853C4.99934 8.55692 4.9649 8.51299 4.92188 8.48355C4.93512 8.47087 4.95232 8.46498 4.97347 8.46589C4.97833 8.46609 4.98281 8.46478 4.98691 8.46196C5.02473 8.436 5.06432 8.41401 5.10567 8.39599C5.13569 8.38291 5.16713 8.36685 5.2 8.34783C5.22592 8.33283 5.25851 8.31598 5.29776 8.29726C5.80686 8.0539 6.15702 7.90821 6.53048 7.75709C6.72185 7.6795 6.91523 7.61503 7.10803 7.54453C7.30927 7.47086 7.51036 7.42119 7.71103 7.35491C7.96943 7.26947 8.23513 7.23293 8.49468 7.15896C8.50397 7.15624 8.56757 7.1505 8.56743 7.14477C8.56743 7.14245 8.56848 7.14109 8.57057 7.14069C8.73779 7.10738 8.90577 7.07874 9.07452 7.05479C9.13641 7.04588 9.21058 7.13058 9.25932 7.16605C9.96203 7.67703 10.6615 8.13318 11.3584 8.65291C11.5136 8.7687 11.6732 8.93887 11.8234 9.06251Z" fill="#6CB545"/>
<path d="M4.22017 7.97211C4.40025 8.08714 4.51316 8.16545 4.5589 8.20701C4.5912 8.2363 4.6205 8.2589 4.6468 8.2748C4.69968 8.3068 4.72598 8.33141 4.76743 8.36613C4.81645 8.40735 4.85146 8.45249 4.91392 8.48177C4.81759 8.53653 4.72164 8.59077 4.62607 8.64452C4.56833 8.67698 4.49044 8.70309 4.42712 8.7431C4.2589 8.84953 4.08211 8.93513 3.91331 9.04217C3.9015 9.04972 3.88935 9.0544 3.87687 9.05621C3.82141 9.01514 3.77139 8.9608 3.72208 8.9226C3.57906 8.81179 3.43709 8.70108 3.29617 8.59047C3.29515 8.58968 3.29433 8.58864 3.29378 8.58745C3.29322 8.58625 3.29294 8.58493 3.29297 8.5836C3.293 8.58227 3.29333 8.58096 3.29394 8.57979C3.29454 8.57862 3.29541 8.57763 3.29646 8.57688C3.42066 8.48842 3.54872 8.39135 3.67892 8.31118C3.78373 8.24677 3.8874 8.18034 3.98992 8.1119C4.05995 8.06525 4.14742 8.03295 4.22017 7.97211Z" fill="#64C295"/>
<path d="M4.91265 8.48175C4.91598 8.48175 4.91889 8.48235 4.92137 8.48356C4.96439 8.513 4.99883 8.55693 5.03328 8.58531C5.33156 8.83018 5.6134 9.098 5.87924 9.38137C5.95899 9.46636 6.04332 9.56857 6.12607 9.66202C6.20182 9.74747 6.26471 9.84378 6.34503 9.92621C6.39048 9.97301 6.4112 10.0468 6.45751 10.0967C6.5203 10.1641 6.56151 10.2208 6.58114 10.2666C6.58991 10.2873 6.59896 10.3042 6.6083 10.3175C6.66003 10.3915 6.70348 10.4709 6.75536 10.5446C6.78852 10.5917 6.79538 10.6487 6.82511 10.6999C6.87013 10.7778 6.89086 10.8163 6.91472 10.8852C6.91519 10.8865 6.91596 10.8877 6.91697 10.8886C6.91797 10.8896 6.91918 10.8903 6.9205 10.8906C6.92181 10.891 6.92319 10.891 6.92453 10.8907C6.92586 10.8904 6.9271 10.8897 6.92816 10.8888C6.98861 10.8352 7.02635 10.774 7.10395 10.7266C7.18699 10.6758 7.25817 10.59 7.33149 10.5482C7.40795 10.5046 7.4797 10.448 7.55273 10.3977C7.57989 10.3791 7.61776 10.3409 7.65921 10.3236C7.69437 10.3091 7.78156 10.2736 7.79699 10.2469C7.79947 10.2427 7.80271 10.2395 7.80671 10.2371C7.90056 10.1823 7.99637 10.1319 8.09413 10.0859C8.16959 10.0503 8.25406 9.99536 8.33996 9.96048C8.36911 9.94871 8.39213 9.9247 8.42214 9.91761C8.52118 9.89436 8.60865 9.84061 8.69569 9.80665C8.73829 9.79004 8.78026 9.77177 8.82161 9.75184C8.85286 9.73685 8.88631 9.72507 8.92194 9.71652C8.97492 9.70384 9.0268 9.68753 9.07759 9.6676C9.17868 9.62815 9.23704 9.60591 9.25267 9.60088C9.31251 9.58135 9.37253 9.56223 9.43275 9.54351C9.43818 9.5418 9.44128 9.53792 9.44204 9.53188C9.44242 9.52806 9.44519 9.5265 9.45033 9.5272C9.455 9.52791 9.45957 9.52746 9.46405 9.52584C9.51322 9.50803 9.77677 9.46772 9.78649 9.44417C9.78742 9.44201 9.7888 9.44009 9.79054 9.43858C9.79227 9.43706 9.79431 9.43598 9.79649 9.43542C9.83441 9.42595 9.87224 9.41685 9.90997 9.40809C9.98501 9.39073 10.0768 9.36204 10.1627 9.348C10.2054 9.34106 10.241 9.31736 10.2797 9.31072C10.3906 9.292 10.4957 9.28248 10.6089 9.25123C10.6726 9.23372 10.7429 9.23463 10.8035 9.21259C10.8227 9.20549 10.8478 9.20685 10.8651 9.20353C11.001 9.17736 11.1374 9.15436 11.2743 9.13454C11.2779 9.13403 11.2805 9.13202 11.2819 9.1285C11.2825 9.12699 11.2829 9.12538 11.2832 9.12367C11.2835 9.12256 11.2841 9.12196 11.285 9.12185C11.4394 9.10344 11.5941 9.08945 11.7493 9.07989C11.7733 9.07838 11.7984 9.06841 11.8229 9.06252C11.829 9.06715 11.8309 9.07037 11.8286 9.07219C11.8898 9.09966 11.9393 9.13126 11.9772 9.16699C12.0408 9.22678 12.1062 9.27418 12.1735 9.30921C12.1775 9.31129 12.181 9.3144 12.1837 9.31826C12.1904 9.32752 12.2005 9.33724 12.2139 9.3474C12.3687 9.46455 12.5239 9.5813 12.6794 9.69765C12.7512 9.75124 12.8889 9.86084 12.9986 9.93602C13.0178 9.94916 13.032 9.96607 13.0476 9.98328C13.038 9.98771 13.02 9.99057 12.9937 9.99188C12.6103 10.0101 12.1928 10.0472 11.7414 10.1033C11.6401 10.1158 11.5174 10.1205 11.4331 10.1324C11.1777 10.1688 10.887 10.2216 10.5613 10.291C10.4589 10.3128 10.3262 10.3288 10.2138 10.3583C10.0706 10.3957 9.89711 10.4435 9.6933 10.5016C9.61112 10.525 9.46548 10.5586 9.35357 10.6004C9.0853 10.7002 8.85291 10.7668 8.5592 10.9083C8.51375 10.9301 8.45287 10.9434 8.40299 10.968C8.28393 11.0272 8.16831 11.1004 8.04639 11.1515C7.94978 11.1919 7.85788 11.2618 7.76641 11.3147C7.56703 11.4299 7.36636 11.5709 7.18899 11.7209C7.11596 11.7827 7.04893 11.8243 6.97504 11.9072C6.95817 11.9261 6.93611 11.9454 6.90886 11.965C6.84598 12.0102 6.78695 12.0894 6.74779 12.1288C6.70672 12.1702 6.66699 12.2129 6.62859 12.2569C6.60172 12.2877 6.57742 12.3355 6.54198 12.3683C6.51211 12.3959 6.49553 12.4243 6.47109 12.4551C6.4668 12.4605 6.4637 12.4599 6.4618 12.4531C6.44379 12.3918 6.43907 12.3198 6.4265 12.2668C6.40148 12.1622 6.38062 12.0603 6.33703 11.9616C6.26147 11.7905 6.19982 11.6607 6.15208 11.5724C6.05842 11.3986 5.93331 11.2036 5.77677 10.9875C5.33542 10.3782 4.73557 9.78536 4.15787 9.28958C4.0614 9.2067 3.9825 9.12125 3.90804 9.0826C3.90375 9.08039 3.90056 9.07697 3.89846 9.07234C3.89427 9.06318 3.88698 9.06081 3.8766 9.06524C3.87488 9.06122 3.87455 9.0582 3.8756 9.05618C3.88808 9.05437 3.90023 9.04969 3.91204 9.04214C4.08083 8.93511 4.25763 8.84951 4.42585 8.74308C4.48917 8.70307 4.56706 8.67695 4.6248 8.64449C4.72037 8.59075 4.81632 8.5365 4.91265 8.48175Z" fill="#23B474"/>
<path d="M13.3899 8.94821C13.4021 8.9625 13.4148 8.97442 13.428 8.98399C13.6354 9.13556 13.8387 9.29312 14.0378 9.45667C14.0685 9.48188 14.1103 9.50905 14.1437 9.53653C14.3233 9.68327 14.5046 9.83132 14.6874 9.98068C14.7016 9.99225 14.6998 9.99748 14.682 9.99638C14.1539 9.96467 13.6154 9.96342 13.0664 9.9926L13.0491 9.98324C13.0335 9.96603 13.0193 9.94912 13.0001 9.93599C12.8904 9.86081 12.7527 9.75121 12.6809 9.69761C12.5254 9.58127 12.3702 9.46452 12.2154 9.34737C12.202 9.3372 12.1919 9.32749 12.1852 9.31823C12.1825 9.31436 12.179 9.31125 12.175 9.30917C12.1077 9.27415 12.0423 9.22674 11.9787 9.16696C11.9408 9.13123 11.8912 9.09963 11.8301 9.07215C11.8843 9.06158 11.9368 9.05429 11.9876 9.05026C12.0486 9.04528 12.1208 9.02565 12.1907 9.03003C12.1912 9.03007 12.1918 9.02999 12.1923 9.02979C12.1929 9.02959 12.1933 9.02927 12.1937 9.02885C12.1941 9.02844 12.1945 9.02794 12.1947 9.02739C12.1949 9.02684 12.195 9.02625 12.195 9.02565C12.1949 9.02424 12.1948 9.02289 12.1948 9.02158C12.1948 9.01956 12.1958 9.01856 12.1977 9.01856C12.2218 9.01805 12.2457 9.0167 12.2696 9.01448C12.6108 8.98217 12.9217 8.9628 13.2024 8.95636C13.2099 8.95616 13.2155 8.95465 13.2193 8.95183C13.2231 8.94911 13.2273 8.94775 13.2319 8.94775L13.3899 8.94821Z" fill="#64C295"/>
<path d="M3.8773 9.06521C3.88768 9.06079 3.89497 9.06315 3.89917 9.07231C3.90126 9.07694 3.90445 9.08036 3.90874 9.08258C3.9832 9.12122 4.0621 9.20667 4.15857 9.28955C4.73627 9.78533 5.33612 10.3782 5.77747 10.9875C5.93402 11.2036 6.05912 11.3985 6.15278 11.5723C6.20052 11.6607 6.26217 11.7904 6.33773 11.9615C6.38132 12.0603 6.40219 12.1622 6.4272 12.2668C6.43977 12.3198 6.44449 12.3918 6.4625 12.4531C6.46441 12.4598 6.4675 12.4605 6.47179 12.455C6.49623 12.4243 6.51281 12.3959 6.54268 12.3682C6.57813 12.3355 6.60242 12.2876 6.62929 12.2568C6.66769 12.2128 6.70742 12.1702 6.74849 12.1288C6.78765 12.0894 6.84668 12.0101 6.90956 11.965C6.93682 11.9454 6.95887 11.9261 6.97574 11.9072C7.04963 11.8243 7.11666 11.7826 7.18969 11.7209C7.36706 11.5708 7.56773 11.4298 7.76711 11.3146C7.85858 11.2618 7.95048 11.1919 8.04709 11.1514C8.16901 11.1004 8.28463 11.0272 8.40369 10.968C8.45357 10.9434 8.51445 10.9301 8.5599 10.9082C8.85361 10.7668 9.08601 10.7002 9.35427 10.6004C9.46618 10.5586 9.61182 10.5249 9.694 10.5015C9.89781 10.4435 10.0713 10.3957 10.2145 10.3583C10.3269 10.3288 10.4596 10.3128 10.562 10.2909C10.8877 10.2216 11.1784 10.1687 11.4338 10.1324C11.5181 10.1205 11.6408 10.1158 11.7421 10.1033C12.1935 10.0472 12.611 10.0101 12.9944 9.99186C13.0207 9.99055 13.0387 9.98768 13.0483 9.98325L13.0656 9.99261C13.4363 10.2741 13.8002 10.5566 14.1572 10.8401C14.1775 10.8562 14.1974 10.8729 14.2168 10.8901C14.2741 10.9411 14.3382 10.9667 14.3933 11.0254C14.3941 11.0263 14.3946 11.0273 14.3948 11.0285C14.395 11.0297 14.3949 11.0309 14.3945 11.032C14.394 11.0331 14.3933 11.0341 14.3923 11.0347C14.3914 11.0354 14.3903 11.0358 14.3892 11.0358C13.9464 11.0359 13.5039 11.0559 13.0616 11.0957C12.8629 11.1135 12.6641 11.1295 12.4653 11.1437C12.0494 11.1733 11.63 11.2443 11.2194 11.3192C11.1129 11.3385 10.977 11.35 10.8568 11.3759C10.6293 11.4253 10.4026 11.4787 10.1768 11.536C10.1163 11.5514 10.0539 11.5514 9.99629 11.5689C9.79019 11.6316 9.58362 11.6926 9.37657 11.7518C9.14346 11.8186 8.91593 11.9129 8.68539 11.9925C8.63165 12.011 8.53508 12.0531 8.39568 12.1188C8.33937 12.1454 8.2682 12.1625 8.22003 12.1877C8.12923 12.2351 8.03876 12.283 7.94862 12.3314C7.89988 12.3574 7.847 12.3713 7.79969 12.4002C7.72637 12.4449 7.6572 12.4836 7.58159 12.5339C7.54515 12.558 7.50184 12.568 7.46897 12.5905C7.31933 12.693 7.15039 12.7931 7.01347 12.9125C6.93458 12.9813 6.85025 13.0302 6.77665 13.1068C6.7312 13.1542 6.68132 13.1859 6.63672 13.2304C6.37089 13.4964 6.19695 13.7144 6.01858 13.9975C6.01804 13.9984 6.01723 13.9992 6.01627 13.9996C6.0153 14 6.01424 14.0001 6.01323 13.9998C6.01222 13.9995 6.01133 13.9989 6.01067 13.9981C6.01001 13.9972 6.00963 13.9962 6.00957 13.9951C5.99886 13.8432 5.97842 13.7081 5.92797 13.5588C5.86394 13.3695 5.79991 13.1755 5.71358 12.9951C5.64126 12.8438 5.57194 12.6939 5.48833 12.5483C5.41616 12.4226 5.34598 12.2852 5.26051 12.1694C5.21378 12.1062 5.18491 12.0394 5.13917 11.9778C4.95137 11.7251 4.81116 11.5206 4.57119 11.2275C4.49639 11.1362 4.37543 10.9971 4.20831 10.81C4.1347 10.7274 4.04752 10.6531 3.97949 10.5601C3.96205 10.5361 3.93418 10.5228 3.91574 10.5041C3.83471 10.4218 3.7571 10.3386 3.67463 10.2573C3.50641 10.0912 3.3269 9.93705 3.15996 9.77023C3.11723 9.72751 3.04405 9.69128 3.00961 9.64569C2.99274 9.62354 2.99808 9.60412 3.02562 9.58741C3.16559 9.50247 3.30346 9.41385 3.43924 9.32156C3.48011 9.29378 3.53857 9.27219 3.59116 9.2346C3.62251 9.21216 3.68902 9.17074 3.79069 9.11035C3.81627 9.09526 3.85043 9.08575 3.8773 9.06521Z" fill="#0B713D"/>
</svg>
