<!-- by TradingView --><svg width="18" height="18" viewBox="0 0 18 18" xmlns="http://www.w3.org/2000/svg"><path fill="#F0F3FA" d="M0 0h18v18H0z"/><path d="M9.58 5.02c.05 0 .1-.03.14-.01 1.41.99 2.8 2.01 4.16 3.07l.98.77.14.12c-.14-.03-.29-.01-.43-.02-.31-.03-.63-.01-.94-.01-.07.01-.15 0-.22.03a1.05 1.05 0 0 1-.04-.03l-.94-.72c-.98-.72-1.97-1.44-2.97-2.15-.05-.04-.12-.03-.18-.02a15.3 15.3 0 0 0-5.06 1.93c-.2-.16-.4-.28-.62-.42v-.02c.37-.27.75-.5 1.14-.73a16.8 16.8 0 0 1 4.84-1.8Z" fill="#B2D78C"/><path d="M5.2 7.44a15.3 15.3 0 0 1 4.08-1.39c.06 0 .13-.02.18.02 1 .7 1.99 1.43 2.97 2.15l.94.72c-.13.03-.25 0-.37.03-.22 0-.43.02-.64.04-.18 0-.35.04-.53.05l-.23-.18c-.32-.21-.63-.47-.95-.7a3.23 3.23 0 0 1-.24-.17c-.2-.16-.42-.3-.63-.45l-.57-.43c-.05-.03-.1-.08-.17-.07a11.59 11.59 0 0 0-3.2 1l-.37.16c-.18.1-.37.16-.55.27-.2-.14-.37-.3-.57-.43a.6.6 0 0 1-.1-.1c.3-.18.63-.35.95-.52Z" fill="#7BC143"/><path d="M7.59 7.4c.48-.14.96-.27 1.45-.34.07 0 .12.04.17.07l.57.43c.2.15.42.29.62.45l.25.18c.32.22.62.48.95.7l.23.17c-.63.08-1.26.18-1.88.34-.68.17-1.36.4-1.99.75-.35.2-.68.41-.98.68-.02.02-.05.03-.07.03a3.3 3.3 0 0 0-.29-.53c-.12-.2-.27-.38-.4-.57l-.35-.39c-.24-.26-.5-.5-.76-.73a2 2 0 0 0-.2-.15h.01c.18-.1.37-.17.55-.27.12-.06.24-.1.36-.17C6.4 7.8 7 7.58 7.6 7.4Z" fill="#6FB444"/><path d="m4.22 7.98.02-.01a.6.6 0 0 0 .11.1c.2.12.38.28.57.42h-.01l-.73.4c-.1.06-.2.1-.3.18a.89.89 0 0 1-.17.1c.04-.06.1-.07.14-.1 0-.06-.05-.08-.09-.11a21.01 21.01 0 0 0-.46-.38c.3-.22.6-.42.92-.6Z" fill="#68C296"/><path d="m4.18 8.89.73-.4.2.15c.25.24.52.47.76.73.12.12.23.26.34.4.14.18.3.36.41.56.1.17.21.35.29.53.02 0 .05 0 .07-.03.3-.27.63-.49.98-.68a8.8 8.8 0 0 1 2-.75c.61-.16 1.24-.26 1.87-.34l.92.69c.1.08.22.15.31.24-.8.03-1.59.12-2.37.27-.53.1-1.06.23-1.57.42-.65.23-1.29.54-1.84.97-.3.23-.58.5-.82.8a2.75 2.75 0 0 0-.4-1.04A6.83 6.83 0 0 0 5 10.07c-.35-.36-.72-.7-1.1-1 .09-.08.2-.13.3-.18Z" fill="#1CB474"/><path d="m13.37 8.94.04.03 1.06.83c.07.07.16.12.22.2l-.26-.02h-.93l-.38.01v.05a.78.78 0 0 1-.06-.05c-.1-.1-.2-.16-.31-.24l-.92-.69c.18-.01.35-.05.53-.05l.64-.04c.12-.03.24 0 .37-.03Z" fill="#68C296"/><path d="M3.72 9.16a.87.87 0 0 0 .17-.1A12.13 12.13 0 0 1 5.2 10.3c.32.34.6.7.85 1.11.19.32.36.67.4 1.05.24-.3.51-.58.82-.82.55-.42 1.19-.73 1.84-.96.51-.19 1.04-.32 1.57-.42.78-.15 1.58-.24 2.37-.27l.06.05c.44.31.86.65 1.28.98-.57.01-1.14.04-1.7.1-.08.02-.16 0-.24.02-.06.01-.12 0-.18.02-.06.01-.12 0-.18.02-.05.01-.1 0-.16.02-.05.01-.1 0-.15.02l-.28.04c-.43.07-.86.15-1.28.25l-.2.05a1.2 1.2 0 0 0-.15.04l-.14.04-.08.02-.22.07-.18.05-.02.01-.28.1-.2.07a3.85 3.85 0 0 0-.25.1c-.7.3-1.39.68-1.94 1.23-.2.2-.38.43-.54.67l-.01.04-.02-.16a3.58 3.58 0 0 0-.27-.82 7.53 7.53 0 0 0-.98-1.57A13.57 13.57 0 0 0 3 9.63l.01-.04c.24-.14.46-.3.7-.43Z" fill="#08723D"/></svg>