<!-- by TradingView --><svg width="56" height="56" viewBox="0 0 56 56" xmlns="http://www.w3.org/2000/svg"><path fill="#F0F3FA" d="M0 0h56v56H0z"/><path d="m13.04 23.46 13-13.41a.15.15 0 0 1 .1-.05c.05 0 .09.02.11.05l19.72 19.87a.1.1 0 0 1 0 .13L30.01 45.97a.11.11 0 0 1-.15 0l-1.34-1.26a.13.13 0 0 1-.05-.1.14.14 0 0 1 .04-.1l14.34-14.44c.1-.1.1-.2 0-.3l-4.27-4.27c-.1-.1-.2-.1-.29 0L27.08 37.08c-.1.09-.18.09-.26 0l-1.32-1.35c-.1-.1-.1-.2 0-.3 3.74-3.84 7.5-7.66 11.28-11.45.1-.1.1-.19 0-.28L26.45 13.27a.26.26 0 0 0-.36 0L14.68 25l-1.64-1.55Z" fill="#693"/><path d="m27.11 39.98 11.38-11.63a.18.18 0 0 1 .12-.05c.05 0 .1.02.13.05l1.36 1.34a.18.18 0 0 1 .05.13.19.19 0 0 1-.05.13L27.02 43a.18.18 0 0 1-.25 0l-13.5-13.2a.19.19 0 0 1-.05-.13.19.19 0 0 1 .05-.13l13-13.4a.18.18 0 0 1 .25 0l7.4 7.37a.18.18 0 0 1 .05.14.2.2 0 0 1-.05.13l-11.49 11.7a.19.19 0 0 0-.03.2c0 .02.02.04.04.06l4.42 4.25a.18.18 0 0 0 .25 0Zm-6.5-6a.14.14 0 0 0 .2 0l10-10.3a.15.15 0 0 0 0-.21l-4.27-4.34a.14.14 0 0 0-.2 0l-10.1 10.43a.14.14 0 0 0-.04.1.15.15 0 0 0 .04.1l4.38 4.22Z" fill="#000067"/><path d="m26.6 21.86-7.75 7.94a.1.1 0 0 0 0 .14l1.42 1.48c.04.04.1.04.13 0l7.76-7.95a.1.1 0 0 0 0-.13l-1.42-1.48a.1.1 0 0 0-.13 0Zm-15.27 3.37-1.2 1.24a.19.19 0 0 0 0 .26l1.3 1.34c.06.07.18.07.25 0l1.2-1.24a.19.19 0 0 0 0-.26l-1.3-1.34a.17.17 0 0 0-.25 0Z" fill="#000067"/></svg>