<!-- by TradingView --><svg width="18" height="18" viewBox="0 0 18 18" fill="none" xmlns="http://www.w3.org/2000/svg">
<rect width="18" height="18" fill="#F0F3FA"/>
<path fill-rule="evenodd" clip-rule="evenodd" d="M8.04385 11.0715C8.40599 11.0694 8.66842 11.0351 8.8918 10.7673C8.89409 10.7646 8.89693 10.7624 8.90013 10.7608C8.90332 10.7593 8.90681 10.7584 8.91034 10.7584C8.91388 10.7583 8.91738 10.759 8.92061 10.7603C8.92384 10.7617 8.92673 10.7638 8.92908 10.7664C9.1998 11.0626 9.64064 11.1741 9.92793 10.8173C9.93463 10.809 9.94223 10.8079 9.95071 10.8141C10.2223 11.0105 10.5022 10.9078 10.6809 10.6495C10.687 10.6405 10.6943 10.6394 10.7028 10.6463C11.1081 10.9786 11.4703 10.7214 11.5694 10.2791C11.6685 9.8374 11.6549 9.33945 11.1676 9.13738C11.1566 9.13284 11.1527 9.13619 11.1561 9.14743C11.2439 9.44241 11.4812 10.6445 10.8126 10.4413C10.8027 10.4383 10.7991 10.4319 10.8016 10.422C10.9105 9.99598 10.8664 9.64419 10.7608 9.19803C10.7123 8.9924 10.5649 8.8634 10.3697 8.79713C10.3586 8.79338 10.3543 8.79723 10.3566 8.80867L10.3615 8.83144L10.3615 8.83144C10.4562 9.27103 10.5624 9.76408 10.5031 10.2117C10.4747 10.4265 10.3111 10.667 10.0682 10.5697C10.0597 10.5663 10.0563 10.5601 10.0581 10.551C10.1581 10.0634 10.0824 9.58916 9.99183 9.04536C9.94903 8.78835 9.79903 8.61852 9.54182 8.53588C9.53929 8.53507 9.53659 8.53492 9.53398 8.53547C9.53137 8.53601 9.52896 8.53722 9.52696 8.53898C9.52496 8.54074 9.52345 8.54299 9.52258 8.5455C9.52172 8.54802 9.52151 8.55072 9.522 8.55333C9.60307 8.98155 9.67112 9.41618 9.72615 9.85722C9.75544 10.091 9.75692 10.4853 9.57022 10.6478C9.41504 10.7831 9.22611 10.6897 9.05443 10.6049L9.04121 10.5984C9.03254 10.594 9.03066 10.5877 9.03559 10.5794C9.33918 10.0594 9.24077 9.52378 9.1416 8.98398L9.1416 8.98397L9.1416 8.98397C9.11484 8.83829 9.08802 8.6923 9.06903 8.54623C8.9704 7.78921 8.93313 7.02844 8.95719 6.26392C8.95758 6.25366 8.95374 6.25169 8.94565 6.258C8.72848 6.43049 8.58114 6.59766 8.58055 6.88376C8.57996 7.23979 8.5914 7.59542 8.61487 7.95065C8.63696 8.28479 8.67562 8.55235 8.73085 8.75334C8.74655 8.8107 8.76464 8.87226 8.78359 8.93678L8.7836 8.93679C8.88891 9.2953 9.021 9.74499 8.92021 10.0699C8.79476 10.4744 8.42848 10.6543 8.04148 10.7247C7.65291 10.7957 7.27381 10.8446 6.90417 10.8714C6.85525 10.875 6.85417 10.8842 6.90092 10.899C7.27095 11.0163 7.65192 11.0738 8.04385 11.0715ZM9.79657 7.34124C9.73345 7.27004 9.74094 7.26166 9.81905 7.3161C10.0283 7.46206 10.2401 7.58387 10.4439 7.70105L10.4439 7.70106L10.4439 7.70106C11.0629 8.05705 11.6077 8.37039 11.7824 9.18864C11.8768 9.63066 11.8845 10.1144 11.6759 10.5322C11.6698 10.5444 11.6719 10.546 11.6821 10.5369C12.1845 10.0866 12.199 9.37385 12.028 8.76969C11.7761 7.88072 11.0496 7.50154 10.3025 7.11161C9.95086 6.92805 9.59461 6.74212 9.28117 6.4995C9.27288 6.49299 9.26825 6.49497 9.26726 6.50542C9.24566 6.72436 9.2427 6.96224 9.34862 7.16106C9.58532 7.60575 10.0714 7.93534 10.57 7.97174C10.5727 7.97195 10.5754 7.97117 10.5776 7.96955C10.5798 7.96792 10.5813 7.96555 10.5819 7.96286C10.5825 7.96016 10.5822 7.95732 10.5809 7.95483C10.5796 7.95234 10.5775 7.95036 10.575 7.94925C10.264 7.82499 10.017 7.58918 9.79657 7.34124ZM7.71571 7.09791C8.02282 6.77453 8.48201 6.9056 8.37757 7.40916C8.28999 7.82989 8.0388 8.10889 7.64293 8.25031C7.39283 8.33947 7.16826 8.44608 6.96924 8.57014C6.8866 8.62162 6.8791 8.68829 6.94676 8.77015C7.06629 8.91453 7.21915 9.00369 7.40535 9.03761C7.45137 9.04604 7.5008 9.052 7.55046 9.05798L7.55046 9.05798L7.55047 9.05798C7.64544 9.06942 7.74121 9.08096 7.81542 9.1101C8.0535 9.2032 8.12667 9.38812 8.03495 9.66485C7.64175 10.8513 5.92099 11.1471 5.82276 9.55272C5.77266 8.74263 6.07267 8.10938 6.72279 7.65296C6.89952 7.52909 7.08069 7.41498 7.26629 7.31064C7.26791 7.30968 7.26979 7.30925 7.27167 7.30939C7.27354 7.30954 7.27533 7.31026 7.27678 7.31145C7.27824 7.31265 7.27929 7.31426 7.27979 7.31607C7.2803 7.31789 7.28023 7.31981 7.27961 7.32159C7.26821 7.35529 7.25746 7.38931 7.24673 7.42329C7.1803 7.63357 7.1144 7.84216 6.89764 7.96391L6.87279 7.97786C6.71324 8.06735 6.53798 8.16565 6.40976 8.2725C6.05738 8.56571 5.82187 9.07341 5.97543 9.52372C6.15502 10.0515 6.79498 10.3592 7.31718 10.151C7.52311 10.0687 7.74441 9.87817 7.79767 9.6471C7.79978 9.63771 7.79863 9.62789 7.79442 9.61929C7.75556 9.5398 7.69471 9.49562 7.61187 9.48674C7.57933 9.48324 7.54569 9.48003 7.51141 9.47676C7.12482 9.43984 6.65533 9.395 6.73876 8.84767C6.79734 8.46363 6.95682 8.16688 7.31807 7.9938C7.32734 7.98946 7.33237 7.98226 7.33316 7.9722C7.3592 7.63018 7.48671 7.33875 7.71571 7.09791ZM8.09768 7.56213C8.13407 7.31034 7.74057 7.35532 7.60181 7.41123C7.59774 7.4129 7.59409 7.41543 7.59112 7.41866C7.58816 7.42188 7.58594 7.42571 7.58465 7.42987C7.53829 7.57367 7.54628 7.71479 7.60861 7.85326C7.61295 7.86292 7.62015 7.86598 7.63021 7.86243C7.65455 7.85406 7.68194 7.84574 7.71094 7.83693L7.71095 7.83693C7.86846 7.7891 8.07369 7.72678 8.09768 7.56213ZM7.96079 8.9444C7.98128 8.97247 8.00141 9.00007 8.02015 9.02698C8.19501 9.27787 8.41365 9.6838 8.3962 9.98914C8.38347 10.2096 8.26394 10.3968 8.11157 10.5522C8.11045 10.5532 8.1097 10.5546 8.10946 10.5561C8.10922 10.5576 8.1095 10.5592 8.11026 10.5605C8.11101 10.5619 8.11219 10.5629 8.11362 10.5635C8.11504 10.5641 8.11661 10.5641 8.11808 10.5637C8.60804 10.4232 8.89858 10.0557 8.6965 9.53735C8.51306 9.06603 8.24797 8.72756 7.9163 8.30832C7.91058 8.30122 7.90388 8.30023 7.89618 8.30536C7.62666 8.48644 7.80403 8.72954 7.96079 8.9444Z" fill="#313676"/>
<path fill-rule="evenodd" clip-rule="evenodd" d="M10.768 5L9 3L7.232 5H5V7.33333L3 9L5 10.768V13H7.33333L9 15L10.6667 13H13V10.6667L15 9L13 7.232V5H10.768ZM7.86879 11.3167C6.81672 11.2498 5.79574 10.7686 5.6781 9.59786C5.63888 9.21021 5.70303 8.79996 5.83383 8.43576C6.13958 7.58368 6.91261 7.1816 7.65226 6.79687C7.84096 6.69873 8.02748 6.60171 8.20351 6.49864C8.62619 6.25109 8.95055 5.85535 8.98276 5.341C8.98295 5.33765 8.98463 5.33533 8.9878 5.33403C8.99266 5.33235 8.99527 5.33403 8.99565 5.33905C9.04102 5.97089 9.47126 6.3418 9.9959 6.61892C10.0945 6.67099 10.1955 6.72251 10.2974 6.77452C10.9255 7.09493 11.5904 7.43415 11.9661 8.03778C12.2684 8.52311 12.3908 9.17561 12.3082 9.72959C12.1351 10.8886 10.9623 11.3053 9.9396 11.3251C9.43597 11.3348 8.93234 11.336 8.42872 11.3287C8.10809 11.3241 7.92145 11.3201 7.86879 11.3167Z" fill="url(#paint0_linear_229_29581)"/>
<defs>
<linearGradient id="paint0_linear_229_29581" x1="15" y1="8.72167" x2="3.21686" y2="8.72167" gradientUnits="userSpaceOnUse">
<stop stop-color="#303975"/>
<stop offset="1" stop-color="#5C9994"/>
</linearGradient>
</defs>
</svg>
