<!-- by TradingView --><svg width="56" height="56" viewBox="0 0 56 56" xmlns="http://www.w3.org/2000/svg"><path fill="#F0F3FA" d="M0 0h56v56H0z"/><path fill-rule="evenodd" d="M28.58 6c0 1.52.26 4.98 1.29 6.68.27.46.66.98 1.09 1.56 1.54 2.09 3.67 4.96 3.54 8.76-.16 4.86-1.42 8.96-5.92 12C31.26 33.58 36 29 36 23c0-5.28-2.56-7.76-4.4-9.54-.81-.8-1.49-1.45-1.73-2.15A30.4 30.4 0 0 1 28.58 6Zm-5.14 24.9c.22.25.9.6 1.93.6 1.45 0 2.63-1 2.63-2.72V26.5c-.1.15-.8.76-1.18.76-.49 0-1.61-.46-1.77-3.5-.16-3.03 1.6-3.18 2.25-3.18.21-.61.86-1.83 1.76-1.83 1.13 0 1.93 1.37 1.93 3.2v2.58L31 26c0 .66.12 2.17.63 2.17.64 0 .96-1.37.8-3.65-.16-2.27-1.28-6.68-2.56-8.95l-.3-.53c-1.13-1.97-1.91-3.33-1.47-7.52 0 .96.29 3.43 1.44 5.62.45.85.93 1.62 1.4 2.37 1.02 1.66 1.96 3.18 2.3 5.07.48 2.73.96 8.8-1.6 8.95-.6-.05-1.64-.98-1.64-3.53 0-.87.03-1.68.07-2.4.08-1.88.13-3.1-.57-3.1-.16 0-.5.27-.5 1V30c0 .86-.93 2.57-2.99 2.57-2.05 0-2.57-1.11-2.57-1.67ZM22 25.74c.37.9 1.25 2.67 1.77 2.43.34-.16.22-.8.02-1.95a30.03 30.03 0 0 1-.5-4.28c-.13-3.16 1.76-7.49 2.72-9.26-.75 2.03-2.18 6.71-1.92 9.26.12 1.26.55 2.7.94 4.03.6 2.04 1.12 3.8.34 4.17-1.28.6-3.05-1.21-3.37-4.4Zm6.74-7.9c-2.7-.6-2.09-5.92-1.44-8.5.26 4.94.98 5.97 1.49 6.7.1.15.2.29.27.44.39.73.32 1.36-.32 1.36Zm-1.92 7.3c.35 0 .64-.62.64-1.38 0-.75-.29-1.36-.64-1.36-.36 0-.65.61-.65 1.36 0 .76.3 1.37.65 1.37ZM12 34h15v1H12v-1Zm32 10v-1H12v1h32ZM31.5 34H44v1H30l1.5-1ZM22 35.5c2.27 0 3.19.78 3.4 1.09l-.38-.1c-.79-.18-2.06-.49-3.02-.49-1.42 0-3.21.59-3.21 1.51 0 .74 1.15.83 1.73.77 1.8 0 3.88-.9 4.7-1.27l.02-.01h1.13v-1.5H27V37h1.08c.78.15.63.93.31 1.08-.25.12-.52-.26-.63-.46H27v1.28c-.05.26.07.77.45.77.47 0 1.26-.61 1.41-.77.16-.15.48-.3.48.31 0 .5.1.5.4.48l.23-.02c.18 0 .6-.41 1.11-.92.77-.77 1.75-1.75 2.42-1.75 1.1 0 1.19.98 1.03 1.6-.08.33-.98.67-1.75.95-.63.24-1.18.45-1.08.59.17.25 1.64-.1 2.36-.31.13-.37 1.07-.73 1.44-.83v-3h.5v3.06c0 .46.26 1.08.42 1.23.16.16.16 1.86-.63 1.7-.42-.08-.7-.47-.97-.84-.24-.32-.47-.63-.76-.7-.35-.09-1.74.26-2.92.56-.93.23-1.73.43-1.8.36-.07-.06-.05-.32-.03-.6.02-.37.05-.79-.13-.79-.15 0-.45.18-.78.38-.37.22-.78.47-1.11.55-.63.16-.79-1.24-.79-2 0-.78-.16-1.3-.94-1.3-.32 0-.9.23-1.6.5-1.05.39-2.38.89-3.46.89-1.5 0-2.5-.56-2.5-1.49 0-.92 1.17-2.01 4-2.01Zm9.23 3.71c.52-.77 1.73-2.13 2.36-1.39.63.74-1.31 1.24-2.36 1.4ZM31.5 37a.5.5 0 1 0 0-1 .5.5 0 0 0 0 1ZM23 39.5a.5.5 0 1 1-1 0 .5.5 0 0 1 1 0Zm2.5 2.5a.5.5 0 1 0 0-1 .5.5 0 0 0 0 1ZM37 35.5c.94 0 1 .54 1 1 0 .37-.06 1.01-.16 1.17v3.09c0 .46-.47.92-.63.77-.12-.11-.06-1.64-.03-2.69l.03-.86c0-.5.1-.62.16-.62.31-.62-.37-.86-.37-.86v-1Zm-14.9 5.72c-.64 0-1.21-1.03-1.42-1.55.05.73.4 2.17 1.41 2.17.91 0 1.5-.4 1.99-.75.18-.13.36-.25.53-.33.5-.25 1.26-.83 1.58-1.09h-1.26c-.4 0-.9.4-1.42.78-.51.38-1.02.77-1.42.77Z" fill="url(#ag2rjmuvf)"/><defs><linearGradient id="ag2rjmuvf" x1="28" y1="6" x2="38.7" y2="45.06" gradientUnits="userSpaceOnUse"><stop stop-color="#DCA86F"/><stop offset=".46" stop-color="#A1764D"/><stop offset=".71" stop-color="#7F5330"/><stop offset="1" stop-color="#805535"/></linearGradient></defs></svg>