<!-- by TradingView --><svg width="18" height="18" viewBox="0 0 18 18" xmlns="http://www.w3.org/2000/svg"><path fill="#F0F3FA" d="M0 0h18v18H0z"/><path fill-rule="evenodd" d="M10.1 4.66c-.5-.88-1.7-.88-2.2 0l-3.74 6.62c-.44.78.08 1.72.93 1.72h7.82c.85 0 1.37-.94.93-1.72L10.1 4.66ZM9 9a1 1 0 1 0 0-2 1 1 0 0 0 0 2Z" fill="url(#a5wjkd33n)"/><path d="M5.27 7H3c2.91 1.2 3.88 5.16 4 7V8.82C7 7.82 6.23 7 5.27 7ZM8 11.67V15c2.19-3.71 4.24-4.7 5-4.73-.2-.09-.99-.27-2.44-.27-2.14 0-2.6 1.11-2.56 1.67Z" fill="#21A140"/><defs><linearGradient id="a5wjkd33n" x1="9" y1="4" x2="9" y2="13.03" gradientUnits="userSpaceOnUse"><stop stop-color="#F5CF00"/><stop offset="1" stop-color="#EBA62F"/></linearGradient></defs></svg>