<!-- by TradingView --><svg width="18" height="18" viewBox="0 0 18 18" xmlns="http://www.w3.org/2000/svg"><path fill="#F0F3FA" d="M0 0h18v18H0z"/><path fill="#00612E" d="M5 4h8v10H5z"/><path fill-rule="evenodd" d="M13 4H5v10h8V4Zm-.3.31H5.3v9.38h7.4V4.3Z" fill="#1F1A17"/><path opacity=".7" d="M12 11H7v1H6v1h6v-2Z" fill="#1F1919"/><path fill="url(#afarnfb4i)" d="M6 5h2v7H6z"/><path transform="rotate(-90 8 7)" fill="url(#bfarnfb4i)" d="M8 7h2v4H8z"/><path transform="rotate(-90 8 10)" fill="url(#cfarnfb4i)" d="M8 10h2v4H8z"/><defs><linearGradient id="afarnfb4i" x1="6" y1="8.41" x2="7.89" y2="8.41" gradientUnits="userSpaceOnUse"><stop stop-color="#E0DBD8"/><stop offset=".6" stop-color="#AEADAB"/><stop offset="1" stop-color="#676161"/></linearGradient><linearGradient id="bfarnfb4i" x1="8" y1="8.95" x2="9.89" y2="8.95" gradientUnits="userSpaceOnUse"><stop stop-color="#E0DBD8"/><stop offset=".6" stop-color="#AEADAB"/><stop offset="1" stop-color="#676161"/></linearGradient><linearGradient id="cfarnfb4i" x1="8" y1="11.95" x2="9.89" y2="11.95" gradientUnits="userSpaceOnUse"><stop stop-color="#E0DBD8"/><stop offset=".6" stop-color="#AEADAB"/><stop offset="1" stop-color="#676161"/></linearGradient></defs></svg>