<!-- by TradingView --><svg width="18" height="18" viewBox="0 0 18 18" xmlns="http://www.w3.org/2000/svg"><path fill="#F0F3FA" d="M0 0h18v18H0z"/><path d="m6.23 5.17-.51.17c1.55 1.7 2.06 2.55 3.1 2.55.68 0 1.25-1.81 1.54-2.72L9.67 5c-.23.57-.82 1.7-1.37 1.7-.55 0-1.6-1.02-2.07-1.53Z" fill="#F0ED9A"/><path d="m6.23 5.17-.51.17c.74.74 2.06 2.2 2.92 2.04.69-.14 1.38-1.53 1.72-2.21L9.67 5c-.28.57-.96 1.7-1.37 1.7-.42 0-1.55-1.02-2.07-1.53Z" fill="#DFDB00"/><path d="m5.72 5.5-.52.52c.52.45 1.52 1.5 1.38 2.04-.14.54-1.78.79-2.58.85v.67c1.15-.05 3.47-.33 3.6-1.01.15-.68-1.2-2.32-1.88-3.06Z" fill="#FBCB8C"/><path d="m5.72 5.5-.52.52c.52.5 1.52 1.63 1.38 2.04-.14.4-1.78.73-2.58.85v.67c.92-.16 2.82-.64 3.1-1.18.27-.55-.8-2.15-1.38-2.9Z" fill="#F39400"/><path d="m4.52 10.43-.35-.68c.98-.33 3.07-.49 3.44 0 .51.68-.52 3.06-1.03 4.08l-.52-.17c1.03-2.55.69-2.89.52-3.23-.14-.27-1.43-.1-2.06 0Z" fill="#F29A79"/><path d="m4.52 10.43-.35-.68c.75-.22 2.37-.47 2.92.34.55.82-.11 2.83-.51 3.74l-.52-.17c.35-1.02 1.03-2.72.52-3.23-.28-.27-1.5-.1-2.06 0Z" fill="#E2001A"/><path d="m7.44 14-.69-.17c.46-1.3 1.55-3.9 2.23-3.9.7 0 2.01 1.58 2.58 2.37l-.69.17c-.22-.45-.85-1.36-1.54-1.36-.69 0-1.55 1.93-1.9 2.89Z" fill="#F19FC1"/><path d="m7.44 14-.69-.17c.29-1.08 1.38-3.06 2.4-3.23 1.23-.2 2.13 1.14 2.41 1.7l-.69.17c-.22-.45-.85-1.36-1.54-1.36-.69 0-1.55 1.93-1.9 2.89Z" fill="#E2007A"/><path d="M15 8.74v-.51c-1.49.11-4.54.5-4.81 1.19-.28.67.91 2.09 1.54 2.71l.52-.5c-.29-.35-.86-1.16-.86-1.7 0-.55 2.4-1.02 3.61-1.2Z" fill="#87C3E7"/><path d="M11.4 9.92c0-.54 2.4-1.01 3.6-1.18v-.51c-3.6.34-3.95.68-4.3 1.52-.27.68.58 1.93 1.03 2.38l.52-.5c-.29-.35-.86-1.16-.86-1.7Z" fill="#008BD0"/><path d="m11.05 5.34-.52-.17c-.34.8-.93 2.51-.51 3.06.4.54 3.38.11 4.8-.17l-.34-.85c-.91.22-2.88.57-3.43.17-.55-.41-.23-1.53 0-2.04Z" fill="#B0D398"/><path d="m11.05 5.34-.52-.17c-.23.74-.69 2.34 0 2.89.69.54 3.21.22 4.3 0l-.35-.85c-.97.22-3.02.57-3.43.17-.42-.41-.17-1.53 0-2.04Z" fill="#41A62B"/></svg>