<!-- by TradingView --><svg width="56" height="56" viewBox="0 0 56 56" fill="none" xmlns="http://www.w3.org/2000/svg">
<rect width="56" height="56" fill="#F0F3FA"/>
<path d="M14 15V41H17.9616L23.099 28H21.1716C20.2809 28 19.6359 27.8983 18.7221 28.1569C17.8083 28.4156 16.7026 28.796 16.4415 28.7427C16.1804 28.6895 16.2984 28.3251 17.008 27.3096C17.5757 26.4972 18.8508 26.0182 19.4174 26H23.7471L24.2827 24.4707C26.9609 17.6603 34.3401 15.9785 37.4614 15.9785C39.9584 15.9785 41.5275 16.1503 42 16.2362V15H14Z" fill="#004287"/>
<path d="M27.9639 27.9999L23.3047 41H42V17.6249H39.1326C37.3483 17.3973 34.6387 17.4298 32.3917 19.3479C30.5941 20.8824 29.2195 24.4737 28.7569 26.0776H36.8857C36.5684 27.326 34.0659 27.9241 32.8543 27.9999H27.9639Z" fill="#008131"/>
<ellipse cx="41.5" cy="18.5" rx="3.5" ry="2.5" fill="#F25212"/>
</svg>
