<!-- by TradingView --><svg width="56" height="56" viewBox="0 0 56 56" xmlns="http://www.w3.org/2000/svg"><path fill="#F60" d="M0 0h56v56H0z"/><path d="M35.95 26.87a6.06 6.06 0 0 1-.4.18 24.26 24.26 0 0 0-3.15 1.7l-1.7 1.04-.86.48c-.29.16-.56.29-.86.38a1.06 1.06 0 0 1-.44.04l2.42-5.08a.01.01 0 0 0 0-.02l-2.35-.03h-.02l-.02.01-.76.8h-.01c-.07-.12-.11-.2-.17-.27a1.75 1.75 0 0 0-.72-.55 2.95 2.95 0 0 0-1.3-.19c-.77.04-1.52.22-2.24.5-.92.36-1.78.84-2.57 1.46l-.1-.01a128.63 128.63 0 0 0-1.18-.31l.28-.75-.01-.03a9.35 9.35 0 0 0-2.55-.44L41.58 16h.01l-1.16.74h-.01l-12.67 7.95 8.2 2.18Z" fill="#88D6F7"/><path d="m17.24 25.78.72.06a9.35 9.35 0 0 1 1.84.4l-.28.76-.21.56h-.03c-.9-.29-1.85-.4-2.79-.4-1.03-.02-2.26.04-3.1.08-.13.01-.26.03-.4.08-.65.19-.88.75-1 1.4l-.06.37a1097.16 1097.16 0 0 0-.62 2.88H9.56v-.01l.62-4.22v-.01L9 27.08v-.01l1.43-.57a.04.04 0 0 0 .02-.02c.25-.78.51-1.55.83-2.25a7.49 7.49 0 0 1 .85-1.4 2.05 2.05 0 0 0 .31-.38 2.1 2.1 0 0 1 1.15-.64 7.9 7.9 0 0 1 2.45-.14 2484.08 2484.08 0 0 0 4.39.4l-.44 1.25-.01.01c-.41-.06-.82-.14-1.23-.19l-.83-.1c-.49-.05-.96-.08-1.4-.08a5.9 5.9 0 0 0-1.7.24c-.3.1-.57.28-.75.56l-.12.2c-.18.24-.35.51-.51.83l-.24.48-.29.72s0 .01 0 0l1.59-.14a22.25 22.25 0 0 1 2.74-.07Z"/><path d="M37.55 28.71a85.56 85.56 0 0 1 .25-.66c.06-.22.1-.44.1-.66l1.75.46c.02 0 .02 0 0 .01l-2.1.85Z" fill="#88D6F7"/><path fill-rule="evenodd" d="m33.57 30.18.01.12c0 .38.05.76.2 1.1.37.79 1.27.71 1.92.54.33-.09.68-.21 1.04-.37.93-.4 1.7-.76 2.32-1.07a24.97 24.97 0 0 0 3.27-1.97l-.11 1.37c-.04.46-.05.93.07 1.37.08.32.25.6.54.73.36.16.8.04 1.15-.1a15.53 15.53 0 0 0 2.72-1.42l-.18-.93v-.01h-.01l-1.33.65-.05.03a.8.8 0 0 1-.22.07c-.25.05-.6.05-.72-.23-.11-.25-.05-.61.03-.88.16-.52.36-1.1.62-1.7a35.76 35.76 0 0 1 .86-1.85h1.16c.01 0 .02 0 .02-.02l.12-1.05-.83.02v-.01l.42-1.35s0-.02-.02-.02h-1.11l-.01.01-.88 1.38-.02.01-5.5.32v.01c.1.57.49.92 1.02 1.03a3.08 3.08 0 0 0 .82.05 1122.7 1122.7 0 0 0 2.5-.18h.01a8.2 8.2 0 0 1-.9 1.07 19.25 19.25 0 0 1-3.9 2.84 13.67 13.67 0 0 1-1.83.82l.78-1.85a85.7 85.7 0 0 1 .25-.66c.06-.22.1-.44.1-.66l-.02-.2c-.11-.77-.98-.63-1.48-.49l-.23.08c-.07.04-.15.06-.22.09a6.05 6.05 0 0 1-.4.18 24.3 24.3 0 0 0-3.15 1.7l-1.7 1.04-.85.48h-.01c-.29.16-.56.29-.86.38a1.06 1.06 0 0 1-.44.04l2.42-5.08v-.01a.01.01 0 0 0 0-.01l-2.35-.03a.05.05 0 0 0-.04.01l-.76.8a.01.01 0 0 1-.01 0l-.04-.07-.13-.2a1.75 1.75 0 0 0-.72-.55 2.95 2.95 0 0 0-1.3-.19c-.77.04-1.52.22-2.24.5a10.13 10.13 0 0 0-3.93 2.73c-.57.64-1.39 1.83-.62 2.66.12.13.27.24.44.33.19.1.38.18.57.23.68.18 1.38.21 2.09.13a8.75 8.75 0 0 0 3.78-1.41l-.01.06a3.82 3.82 0 0 0 .12.5c.14.4.43.71.82.85.6.2 1.28.06 1.87-.13.1-.03.2-.08.35-.15a14719.56 14719.56 0 0 1 6.36-3.23l-.1 1.26-.04.46-.01.01a161.06 161.06 0 0 0-1.1 0h-.37c-.01 0-.02 0-.02.02Zm-7.77-1.53-3.8-1a4.98 4.98 0 0 0-.95 1.59c-.09.26-.13.51-.12.74 0 .13.02.26.05.37.07.3.24.53.5.67.16.1.36.15.58.17.15 0 .3 0 .45-.02.15-.02.3-.06.46-.1.35-.12.7-.29 1.05-.51a5.56 5.56 0 0 0 1.78-1.9Z"/><path d="m25.8 28.65-3.8-1c.33-.37.72-.7 1.12-.96a4.33 4.33 0 0 1 1.47-.6c.26-.03.5-.03.72.02.19.05.36.13.5.25.12.1.22.25.29.4.06.17.1.35.1.56-.01.2-.05.44-.12.68-.07.22-.16.43-.28.65ZM35.11 29.69l-1.16.46-.36.01c-.01 0-.02 0-.02.02l.01.12a4322.22 4322.22 0 0 0-10.92 4.39 469.4 469.4 0 0 1-3.1 1.24l-.85.34a102.23 102.23 0 0 0-1.65.66 98.47 98.47 0 0 0-1.75.7 1.26 1.26 0 0 1-.14.06l-.77.31 11.34-7.12.07.2c.14.4.43.72.82.86.6.2 1.28.06 1.87-.13.1-.03.2-.08.35-.15a14719.56 14719.56 0 0 1 6.36-3.23l-.1 1.26Z" fill="#88D6F7"/></svg>