<!-- by TradingView --><svg width="56" height="56" viewBox="0 0 56 56" xmlns="http://www.w3.org/2000/svg"><path fill="#F0F3FA" d="M0 0h56v56H0z"/><path d="M7.6 31.67c-1.44 0-3-1.11-3.6-1.67 0 .44 1.2 2.04 1.8 2.78-.48.44-1.4.55-1.8.55A4.6 4.6 0 0 0 7.6 35c2.4 0 7.2-1.67 8.4-1.67h25.2C43 33.33 46 35 48.4 35a4.6 4.6 0 0 0 3.6-1.67c-.96 0-1.6-.37-1.8-.55l1.8-2.22a7.83 7.83 0 0 1-3.6 1.1c-1.8 0-4.2-1.66-7.2-1.66H16c-2.4 0-6.6 1.67-8.4 1.67Z" fill="url(#agsjwy2jo)"/><path fill="url(#bgsjwy2jo)" d="M16 13h24v28H16z"/><path d="M42 27H14l14 18 14-18Z" fill="url(#cgsjwy2jo)"/><path d="M34 31H22l6 9 6-9Z" fill="url(#dgsjwy2jo)"/><defs><linearGradient id="agsjwy2jo" x1="5.8" y1="33.33" x2="52" y2="32.69" gradientUnits="userSpaceOnUse"><stop stop-color="#D03821"/><stop offset=".12" stop-color="#44332B"/><stop offset=".23" stop-color="#020202"/><stop offset=".74" stop-color="#010101"/><stop offset=".85" stop-color="#594230"/><stop offset="1" stop-color="#E52A19"/></linearGradient><linearGradient id="bgsjwy2jo" x1="28" y1="13" x2="28" y2="41" gradientUnits="userSpaceOnUse"><stop stop-color="#080808"/><stop offset=".47" stop-color="#6C6C6C"/><stop offset="1" stop-color="#DFDFDF"/></linearGradient><linearGradient id="cgsjwy2jo" x1="28.58" y1="45" x2="29.87" y2="27.09" gradientUnits="userSpaceOnUse"><stop stop-color="#DE1A0A"/><stop offset=".67" stop-color="#382A27"/><stop offset="1" stop-color="#010101"/></linearGradient><linearGradient id="dgsjwy2jo" x1="28" y1="40" x2="28.75" y2="31.06" gradientUnits="userSpaceOnUse"><stop stop-color="#0D1517"/><stop offset=".49" stop-color="#382A27"/><stop offset="1" stop-color="#D52005"/></linearGradient></defs></svg>