<!-- by TradingView --><svg width="56" height="56" viewBox="0 0 56 56" xmlns="http://www.w3.org/2000/svg"><path fill="#F0F3FA" d="M0 0h56v56H0z"/><path d="M28 37c7.18 0 13-6.5 13-14.5 0-3.52-1.12-6.99-2.99-9.5A17.46 17.46 0 0 1 45 27a17 17 0 1 1-34 0c0-5.65 2.75-10.9 6.99-14A16.26 16.26 0 0 0 15 22.5c0 8 5.82 14.5 13 14.5Z" fill="url(#ag1sr1wgm)"/><path d="m21 15 6 4.83V31h-6V15Z" fill="url(#bg1sr1wgm)"/><path d="m35 15-6 4.83V31h6V15Z" fill="url(#cg1sr1wgm)"/><defs><linearGradient id="ag1sr1wgm" x1="28" y1="14" x2="28" y2="44" gradientUnits="userSpaceOnUse"><stop stop-color="#DBDBDB"/><stop offset=".61" stop-color="#D3D3D3"/><stop offset="1" stop-color="#848484"/></linearGradient><linearGradient id="bg1sr1wgm" x1="24.23" y1="15" x2="24.23" y2="31" gradientUnits="userSpaceOnUse"><stop stop-color="#AB7E30"/><stop offset="1" stop-color="#EFB21F"/></linearGradient><linearGradient id="cg1sr1wgm" x1="31.77" y1="15" x2="31.77" y2="31" gradientUnits="userSpaceOnUse"><stop stop-color="#AB7E30"/><stop offset="1" stop-color="#EFB21F"/></linearGradient></defs></svg>