<!-- by TradingView --><svg width="18" height="18" viewBox="0 0 18 18" xmlns="http://www.w3.org/2000/svg"><path fill="#F0F3FA" d="M0 0h18v18H0z"/><path d="M7.09 9H5.17c-.03.32 0 1.1 0 1.38 0 .48.84 2.95 3.84 2.95 2.4 0 3.84-2.47 3.84-3.02V9h-2l-.31-.17.23.51c.13-.03.4-.06.46.07.08.17-.07.2-.07.48 0 .28.46.21.46.49 0 .27-.31.2-.31.4 0 .21.23.42.15.63-.07.2-.3.13-.46.27-.15.14.16.42-.07.62s-.46-.07-.7.07c-.23.14-.07.41-.3.55-.23.14-.39-.14-.7-.14-.3 0-.38.28-.53.28-.16 0-.23-.2-.46-.35-.23-.13-.31 0-.54 0-.23 0-.54-.13-.38-.27.15-.14.07-.69-.39-.55-.37.1-.4-.18-.38-.35.37-.33.15-.6 0-.68-.43-.22-.18-.46 0-.55.37-.06.3-.4.23-.55-.25-.33.1-.42.3-.42l.24-.5-.23.16ZM8.77 3h.46v.98l.54.69H8.23l.54-.69V3Zm.15.13v.89l-.4.51h.96l-.4-.51v-.89h-.16Z" fill="#0D0D85"/><path d="M7.31 5h3.43l.57 1.67h-.66c-.19-.26-.55-1-1.04-1h-.08v1.66h.24v-.66h.54l.4 2h-.51l-.22-.53h-.21v1.38c0 .25.27.43.55.43.14 0 .22.1.22.21v.3c0 .1-.08.2-.22.2H7.3a.22.22 0 0 1-.22-.2v-.3c0-.1.08-.21.22-.21.22 0 .3-.2.3-.36 0-.29.14-2.56.21-3.66 0-.1-.13-.3-.43-.36H7.3V5Zm.15.14v.3c.35.09.5.35.5.5-.07 1.1-.22 3.37-.22 3.65 0 .24-.13.5-.44.5-.05 0-.08.04-.08.07v.3c0 .03.03.06.08.06h3.02c.05 0 .08-.03.08-.07v-.29c0-.03-.03-.07-.08-.07-.37 0-.7-.25-.7-.57V8h.46l.22.51h.23l-.34-1.7h-.27v.67h-.54V5.52h.23c.57 0 .88.66 1.12 1h.38l-.47-1.38H7.46Z" fill="#0D0D85"/><path fill-rule="evenodd" d="M6.93 3.08 6.9 3l-.08.03c-.25.1-.36.26-.4.42a.64.64 0 0 0 .02.35c-.1.07-.18.14-.26.22v-.07a.47.47 0 0 0-.14-.32l-.05-.04-.06.03c-.24.16-.31.33-.3.5.02.12.1.23.17.3l-.22.3a.8.8 0 0 0-.26-.5l-.07-.08-.05.1a.77.77 0 0 0-.1.59c.04.13.13.24.24.28l-.23.48a.73.73 0 0 0-.1-.2.98.98 0 0 0-.34-.32l-.08-.04-.03.08c-.1.28-.06.5.06.65.1.12.23.2.34.23a6.35 6.35 0 0 0-.12.41.68.68 0 0 0-.42-.39l-.1-.03v.1c-.04.27.03.45.13.57.09.1.2.15.3.16l-.08.46a.9.9 0 0 0-.4-.24l-.1-.02-.01.08c-.04.23.05.39.17.5.09.08.2.12.29.15l-.02.48a.71.71 0 0 0-.52-.25H4v.08a.68.68 0 0 0 .61.72l.02.23.16-.01-.02-.23c.25-.06.4-.2.46-.34.07-.14.06-.3.03-.4l-.01-.05h-.06a.49.49 0 0 0-.43.25c0-.15 0-.3.02-.47.23-.01.39-.1.48-.22a.5.5 0 0 0 .09-.37l-.01-.06h-.07a.58.58 0 0 0-.45.23l.08-.5.22-.01a.4.4 0 0 0 .21-.14c.1-.12.1-.28.1-.39l-.02-.08-.08.02a.8.8 0 0 0-.32.13 6.3 6.3 0 0 1 .1-.32c.08.02.18.02.28-.01.15-.06.28-.19.35-.44l.02-.06-.07-.03a.62.62 0 0 0-.37.01l.16-.32c.05.03.12.04.2.04.14 0 .32-.08.51-.26l.08-.07-.1-.05a.83.83 0 0 0-.45-.06l.2-.26c.05.03.12.06.22.06.15 0 .35-.04.6-.2l.09-.05-.09-.06a.7.7 0 0 0-.49-.12l.28-.24.16.1c.1.05.2.1.32.1.22 0 .39-.11.45-.17l.05-.04-.04-.05c-.04-.06-.14-.11-.3-.14-.09-.02-.2-.02-.35 0 .12-.09.25-.16.4-.23.23.09.44.07.6 0 .18-.06.3-.19.37-.28l.04-.07-.08-.03a.95.95 0 0 0-.72-.05.62.62 0 0 0-.33.3l-.02.03-.14.08a.74.74 0 0 0-.01-.4Zm-.24.53a.48.48 0 0 0 .09-.17.6.6 0 0 0 .01-.23.42.42 0 0 0-.22.49l.12-.09ZM5.55 5.06 5.59 5a.4.4 0 0 1 .21-.07l.19.01a.59.59 0 0 1-.32.15c-.05 0-.1-.01-.12-.03Zm-.39.84.06-.15c.04-.05.1-.08.14-.1a.44.44 0 0 1 .2-.02c-.06.16-.15.23-.23.26a.35.35 0 0 1-.17.01Zm-.23.79.02-.05a.69.69 0 0 1 .33-.24c-.01.06-.03.14-.07.2a.24.24 0 0 1-.14.08.44.44 0 0 1-.14 0ZM4.6 8.55v.07a.6.6 0 0 1-.23-.1.52.52 0 0 1-.2-.4.62.62 0 0 1 .44.42Zm.04-1v.04a.55.55 0 0 1-.2-.1.37.37 0 0 1-.13-.29c.07.03.14.07.2.13s.11.13.13.21ZM6.77 3.9a.94.94 0 0 1-.05-.03c.19-.03.33-.02.43 0 .06 0 .1.02.13.03a.55.55 0 0 1-.27.07.53.53 0 0 1-.24-.07Zm1-.53a.67.67 0 0 1-.5-.01.5.5 0 0 1 .22-.16.73.73 0 0 1 .5 0 .63.63 0 0 1-.23.17ZM6.13 4.45a.28.28 0 0 1-.13-.04.53.53 0 0 1 .53-.07.81.81 0 0 1-.4.1ZM5.8 4.1c.01.08.05.15.1.2.1-.14.13-.25.13-.35a.35.35 0 0 0-.05-.17c-.16.12-.19.23-.18.32Zm-.5.3c.1.14.19.34.1.57a.31.31 0 0 1-.14-.18.58.58 0 0 1 .04-.4Zm-.4 1.06c.06.1.1.23.08.38a.53.53 0 0 1-.22-.17c-.07-.09-.12-.22-.07-.42.07.05.14.12.2.2Zm-.42.73a.5.5 0 0 1 .25.46.31.31 0 0 1-.15-.09c-.06-.07-.1-.18-.1-.37Zm.65 1.26c-.05.07-.13.13-.3.15a.85.85 0 0 1 .13-.19.46.46 0 0 1 .24-.16c0 .07-.02.14-.07.2Zm-.03.91a.48.48 0 0 1-.3.24.83.83 0 0 1 .09-.28c.05-.1.13-.17.24-.2.01.07 0 .16-.03.24ZM11.07 3.08 11.1 3l.08.03c.25.1.36.26.4.42.03.13.01.25-.02.35.1.07.18.14.26.22v-.07c.01-.15.08-.26.14-.32l.05-.04.06.03c.24.16.31.33.3.5a.52.52 0 0 1-.17.3l.22.3a.8.8 0 0 1 .26-.5l.07-.08.05.1c.13.22.15.43.1.59a.45.45 0 0 1-.24.28l.23.48a.73.73 0 0 1 .1-.2c.1-.16.23-.26.34-.32l.08-.04.03.08c.1.28.06.5-.06.65a.7.7 0 0 1-.34.23 5.1 5.1 0 0 1 .12.41c.09-.22.29-.35.42-.39l.1-.03v.1c.04.27-.03.45-.13.57-.09.1-.2.15-.3.16l.08.46a.9.9 0 0 1 .4-.24l.1-.02.01.08a.52.52 0 0 1-.17.5.72.72 0 0 1-.29.15l.02.48a.71.71 0 0 1 .52-.25H14v.08a.68.68 0 0 1-.61.72l-.02.23-.16-.01.02-.23c-.25-.06-.4-.2-.46-.34a.56.56 0 0 1-.03-.4l.01-.05h.06c.21 0 .35.12.43.25 0-.15 0-.3-.02-.47-.23-.01-.39-.1-.48-.22a.5.5 0 0 1-.09-.37l.01-.06h.07a.58.58 0 0 1 .45.23 7.38 7.38 0 0 0-.08-.5l-.22-.01a.4.4 0 0 1-.21-.14.53.53 0 0 1-.1-.39l.02-.08.08.02a.8.8 0 0 1 .32.13 6.27 6.27 0 0 0-.1-.32.53.53 0 0 1-.28-.01c-.15-.06-.28-.19-.35-.44l-.02-.06.07-.03a.62.62 0 0 1 .37.01l-.16-.32a.42.42 0 0 1-.2.04c-.14 0-.32-.08-.51-.26l-.08-.07.1-.05a.84.84 0 0 1 .45-.06 4.16 4.16 0 0 0-.2-.26.44.44 0 0 1-.21.06 1.1 1.1 0 0 1-.6-.2l-.1-.05.09-.06a.7.7 0 0 1 .49-.12 3.74 3.74 0 0 0-.28-.24l-.16.1a.7.7 0 0 1-.32.1.71.71 0 0 1-.45-.17l-.05-.04.04-.05c.04-.06.14-.11.3-.14.09-.02.2-.02.35 0a3.72 3.72 0 0 0-.4-.23.84.84 0 0 1-.6 0 .76.76 0 0 1-.37-.28l-.04-.07.08-.03c.3-.13.54-.12.72-.05.18.07.29.2.33.3l.02.03.14.08a.74.74 0 0 1 .01-.4Zm.24.53a.48.48 0 0 1-.09-.17.6.6 0 0 1-.01-.23c.13.07.2.17.22.27v.22a3.84 3.84 0 0 0-.12-.09Zm1.14 1.45a4.33 4.33 0 0 0-.04-.06.4.4 0 0 0-.21-.07l-.19.01c.14.1.25.14.32.15.05 0 .1-.01.12-.03Zm.39.84a5.7 5.7 0 0 0-.06-.15.38.38 0 0 0-.14-.1.44.44 0 0 0-.2-.02c.06.16.15.23.23.26.06.02.12.02.17.01Zm.23.79-.02-.05a.69.69 0 0 0-.33-.24c.01.06.03.14.07.2.03.03.08.06.14.08.03 0 .08.01.14 0Zm.33 1.86v.07a.6.6 0 0 0 .23-.1c.1-.08.19-.2.2-.4a.56.56 0 0 0-.22.11.62.62 0 0 0-.21.32Zm-.04-1v.04a.54.54 0 0 0 .2-.1.37.37 0 0 0 .13-.29.71.71 0 0 0-.2.13.38.38 0 0 0-.13.21ZM11.23 3.9a.94.94 0 0 0 .05-.03c-.19-.03-.33-.02-.43 0-.06 0-.1.02-.13.03.07.04.16.07.27.07.08 0 .16-.03.24-.07Zm-1-.53c.13.04.3.06.5-.01a.5.5 0 0 0-.22-.16.73.73 0 0 0-.5 0c.05.06.13.13.23.17Zm1.63 1.08c.05 0 .1-.02.13-.04a.53.53 0 0 0-.53-.07c.18.09.3.11.4.1Zm.35-.35c-.01.08-.05.15-.1.2a.52.52 0 0 1-.13-.35c0-.07.03-.12.05-.17.16.12.19.23.18.32Zm.5.3a.56.56 0 0 0-.1.57c.06-.03.1-.1.14-.18a.58.58 0 0 0-.04-.4Zm.4 1.06a.52.52 0 0 0-.08.38.53.53 0 0 0 .22-.17c.07-.09.12-.22.07-.42a.83.83 0 0 0-.2.2Zm.42.73a.5.5 0 0 0-.25.46c.05-.01.1-.04.15-.09.06-.07.1-.18.1-.37Zm-.65 1.26c.05.07.13.13.3.15a.85.85 0 0 0-.13-.19.46.46 0 0 0-.24-.16c0 .07.02.14.07.2Zm.03.91c.04.1.13.18.3.24a.82.82 0 0 0-.09-.28c-.05-.1-.13-.17-.24-.2-.01.07 0 .16.03.24Z" fill="#0D0D85"/><path d="M4 9.33c0-.33.39-.5.58-.5A4.53 4.53 0 0 0 9 13.67c2.72 0 4.34-2.5 4.42-4.84.39 0 .58.34.58.5h-.2c0 2.17-1.89 3.82-2.88 4.34V14h.96l.2.33V15H5.92v-.7l.2-.3h.96v-.33a4.72 4.72 0 0 1-2.89-4.34H4Z" fill="#3C3C97"/><path fill="#8081AD" d="M6.31 14.33h5.38v.33H6.31z"/></svg>