<!-- by TradingView --><svg width="18" height="18" viewBox="0 0 18 18" xmlns="http://www.w3.org/2000/svg"><path fill="#F0F3FA" d="M0 0h18v18H0z"/><circle cx="9" cy="9" r="5" fill="url(#ajjnujwqj)"/><path d="M12 6.35c0-.12-.13-.35-.54-.35-.5 0-1.84.82-2.72 2.83-.82.08-1.17.5-1.24.72.1-.04.4-.1.96-.13-.77 1.59-1.44 2.23-1.68 2.25 0-.16-.16-.37-.38-.37-.21 0-.4.18-.4.37s.13.33.48.33 1.49-.28 2.66-2.6c.85-.03 1.26-.46 1.36-.67a4.8 4.8 0 0 1-1.06.08c1-1.93 1.57-2.5 1.84-2.5 0 .14.02.37.32.37s.4-.19.4-.33Z" fill="#FBFFFF"/><defs><linearGradient id="ajjnujwqj" x1="6.2" y1="4.85" x2="11.69" y2="12.93" gradientUnits="userSpaceOnUse"><stop stop-color="#2C9FD3"/><stop offset=".21" stop-color="#24A7DF"/><stop offset=".68" stop-color="#293894"/></linearGradient></defs></svg>