<!-- by TradingView --><svg width="18" height="18" viewBox="0 0 18 18" fill="none" xmlns="http://www.w3.org/2000/svg">
<rect width="18" height="18" fill="#002F6C"/>
<path d="M12.391 7.40905C12.1363 7.66504 11.8395 7.87212 11.5004 8.03028C11.4426 8.05728 11.392 8.0827 11.328 8.09918C11.326 8.09969 11.324 8.09967 11.322 8.09912C11.3201 8.09857 11.3184 8.09752 11.317 8.09609C11.3157 8.09466 11.3149 8.0929 11.3146 8.09103C11.3143 8.08915 11.3146 8.08724 11.3154 8.08551C11.3555 8.00327 11.4477 7.90894 11.4666 7.82636C11.5879 7.29946 12.2143 7.16532 12.6853 7.00945C12.6895 7.00808 12.694 7.00793 12.6982 7.00902C12.7025 7.01011 12.7063 7.01239 12.7091 7.01555C12.7119 7.01871 12.7136 7.02259 12.714 7.02667C12.7143 7.03076 12.7133 7.03484 12.7111 7.03838C12.6227 7.17514 12.5239 7.27544 12.391 7.40905Z" fill="#A0CA3C"/>
<path d="M11.2728 7.42885C11.2814 7.43379 11.2877 7.44152 11.2904 7.45051C11.2931 7.4595 11.2921 7.4691 11.2875 7.47741C11.2157 7.60763 11.1581 7.74259 11.1148 7.88227C11.0648 8.0437 11.0367 8.13202 11.0306 8.14721C11.015 8.18614 10.6924 8.84121 10.6231 8.69462C10.3763 8.17229 10.6326 7.63312 11.2035 7.42516C11.2256 7.4171 11.2539 7.41797 11.2728 7.42885Z" fill="#A0CA3C"/>
<path d="M10.6718 9.09616C10.6698 9.09606 10.6678 9.0954 10.6662 9.09428C10.6645 9.09316 10.6633 9.09161 10.6626 9.08985C10.658 9.07816 10.6598 9.06612 10.668 9.05373C11.0923 8.41041 11.9021 7.96908 12.6322 7.63295C12.6367 7.63089 12.6417 7.6298 12.6468 7.62976C12.6518 7.62973 12.6568 7.63075 12.6613 7.63274C12.6658 7.63474 12.6698 7.63766 12.6729 7.64128C12.676 7.64491 12.6782 7.64913 12.6792 7.65364C12.7033 7.75656 12.6804 7.85475 12.6513 7.95435C12.5591 8.27206 12.2472 8.55717 11.9472 8.71988C11.6282 8.89277 11.2854 9.01334 10.9185 9.08161C10.8425 9.09575 10.7603 9.1006 10.6718 9.09616Z" fill="#A0CA3C"/>
<path d="M10.1978 7.90463C10.2004 7.90437 10.203 7.90467 10.2054 7.90551C10.2078 7.90634 10.21 7.90769 10.2118 7.90944C10.2135 7.91119 10.2148 7.9133 10.2155 7.9156C10.2163 7.9179 10.2164 7.92033 10.216 7.92269C10.1764 8.12416 10.2291 8.26127 10.3334 8.43328C10.4593 8.64088 10.4226 8.92213 10.3563 9.1413C10.3315 9.22301 10.2994 9.31507 10.2385 9.35031C10.2256 9.35779 10.2156 9.35534 10.2083 9.34295C10.1357 9.21898 10.0259 9.0894 9.97169 8.98964C9.8317 8.73154 9.84278 8.43013 9.95049 8.16063C9.99193 8.05665 10.0595 7.91831 10.1978 7.90463Z" fill="#A0CA3C"/>
<path d="M10.3549 9.82195C10.1427 9.8337 10.4235 9.5095 10.4607 9.47601C10.7399 9.2265 11.0541 9.1469 11.4336 9.10253C11.7548 9.06501 11.9762 8.99014 12.2273 8.79727C12.2323 8.79345 12.2384 8.79101 12.2448 8.7902C12.2512 8.7894 12.2578 8.79028 12.2637 8.79274C12.2695 8.7952 12.2746 8.79914 12.2781 8.80409C12.2816 8.80905 12.2836 8.81483 12.2836 8.82076C12.2857 8.94561 12.1639 9.12042 12.0791 9.21335C11.6742 9.65661 10.9428 9.78899 10.3549 9.82195Z" fill="#A0CA3C"/>
<path d="M10.3733 10.5526C10.2723 10.5626 9.99441 10.5994 10.0225 10.4355C10.0603 10.2135 10.2091 10.0592 10.4362 9.97641C10.6271 9.9068 10.8265 9.91329 11.0295 9.88138C11.2646 9.84456 11.4652 9.77232 11.6571 9.64993C11.6609 9.64752 11.6652 9.6459 11.6698 9.64519C11.6743 9.64448 11.679 9.64469 11.6835 9.64581C11.6879 9.64693 11.6921 9.64893 11.6956 9.65167C11.6991 9.65441 11.702 9.65782 11.7039 9.66168C11.7259 9.70481 11.5364 9.95502 11.4993 9.9957C11.2046 10.3211 10.8293 10.5068 10.3733 10.5526Z" fill="#A0CA3C"/>
<path d="M6.52739 5.93273C6.8003 6.13507 7.11981 6.42245 7.20709 6.74578C7.22428 6.8089 7.25618 7.00511 7.21149 7.0919C7.20751 7.09964 7.20056 7.10576 7.19199 7.10906C7.18341 7.11237 7.17382 7.11262 7.16508 7.10979C6.87058 7.01463 6.66025 6.84432 6.53407 6.59884C6.40134 6.34039 6.37632 6.00216 6.25944 5.71881C6.23003 5.64751 6.14721 5.48988 6.01098 5.24592C5.59425 4.50038 5.17779 3.75472 4.76157 3.00894C4.75776 3.00216 4.75998 2.99923 4.76826 3.00017C4.84217 3.00876 4.939 3.03384 4.97318 3.10082C5.28754 3.71602 5.60183 4.33117 5.91606 4.94627C6.03218 5.17351 6.15612 5.48193 6.32247 5.70882C6.3995 5.81379 6.4678 5.88843 6.52739 5.93273Z" fill="#E5B26B"/>
<path d="M5.60229 3.31832C5.72165 3.32639 5.78449 3.39968 5.85247 3.48893C6.24641 4.00618 6.63435 4.52723 7.01632 5.05209C7.2432 5.36401 7.43877 5.68892 7.60263 6.03276C7.75752 6.35767 7.85129 6.62173 7.86733 6.96504C7.88796 7.40585 7.72645 7.77523 7.38281 8.07319C7.38088 8.07486 7.37862 8.07616 7.37614 8.07702C7.37366 8.07787 7.37103 8.07827 7.36838 8.07819C7.36574 8.07811 7.36314 8.07755 7.36073 8.07654C7.35832 8.07553 7.35615 8.0741 7.35435 8.07231C7.25466 7.97482 7.15306 7.85629 7.13702 7.71813C7.09214 7.33098 7.60779 7.13162 7.70519 6.78339C7.72034 6.72915 7.71875 6.65346 7.70041 6.55633C7.67387 6.41518 7.61772 6.31944 7.52929 6.15094C7.21093 5.54356 6.84271 4.95705 6.4195 4.40613C6.19758 4.11717 5.97674 3.82745 5.75698 3.53697C5.72012 3.48823 5.64545 3.40073 5.5956 3.32885C5.59026 3.32113 5.59249 3.31762 5.60229 3.31832Z" fill="#E5B26B"/>
<path d="M7.95098 8.10101C8.18741 7.91497 8.35987 7.73086 8.32397 7.42823C8.3176 7.37364 8.28723 7.26025 8.23287 7.08807C8.13788 6.78742 8.0317 6.5257 7.91431 6.3029C7.50026 5.5172 7.27433 5.08218 6.92732 4.46674C6.76766 4.18362 6.58998 3.9074 6.39429 3.63808C6.39383 3.63744 6.39358 3.63669 6.39356 3.63592C6.39353 3.63515 6.39374 3.63439 6.39415 3.63372C6.39457 3.63305 6.39517 3.6325 6.3959 3.63213C6.39663 3.63175 6.39746 3.63157 6.3983 3.63159C6.46533 3.63475 6.54841 3.65211 6.58183 3.70804C7.16356 4.68539 7.78807 5.67693 8.22198 6.68724C8.34752 6.97936 8.4262 7.29222 8.45803 7.62584C8.51227 8.19061 8.29761 8.7431 7.75618 9.04767C7.75134 9.05035 7.74714 9.04971 7.74357 9.04574C7.57092 8.85427 7.52566 8.57039 7.68265 8.36332C7.75274 8.27109 7.84613 8.18359 7.95098 8.10101Z" fill="#E5B26B"/>
<path d="M6.3833 7.06361C6.74368 7.37098 7.17396 7.65293 7.17033 8.15913C7.17014 8.20384 7.1562 8.24365 7.13367 8.28117C7.13075 8.28602 7.12594 8.28969 7.12021 8.29145C7.11448 8.2932 7.10824 8.29291 7.10273 8.29064C6.94918 8.22716 6.78226 8.15492 6.66691 8.05445C6.40813 7.82967 6.28685 7.41499 6.21619 7.10779C6.15489 6.84128 6.03056 6.63999 5.89133 6.40468C5.37453 5.53114 4.85933 4.65684 4.34572 3.78177C4.34443 3.77969 4.34375 3.77733 4.34375 3.77493C4.34375 3.77254 4.34443 3.77018 4.34572 3.7681L4.38697 3.70094C4.40072 3.67861 4.4153 3.67815 4.4307 3.69954C4.48749 3.77903 4.53695 3.85378 4.5791 3.9238C5.11022 4.80646 5.58633 5.72051 6.05481 6.63227C6.14699 6.81159 6.25649 6.95537 6.3833 7.06361Z" fill="#E5B26B"/>
<path d="M4.16281 4.24046C4.17255 4.24694 4.1861 4.25325 4.19241 4.26307C4.6281 4.93346 4.97989 5.49589 5.24777 5.95037C5.48752 6.35704 5.699 6.8003 5.88221 7.28015C5.89125 7.30388 5.91124 7.36817 5.94218 7.47302C6.09592 7.99273 6.5728 8.16859 7.02638 8.42021C7.31114 8.57836 7.5321 8.76633 7.58519 9.08404C7.58578 9.08755 7.58546 9.09113 7.58424 9.0945C7.58303 9.09787 7.58097 9.10093 7.57821 9.10344C7.57546 9.10595 7.5721 9.10783 7.56841 9.10894C7.56471 9.11005 7.56078 9.11035 7.55693 9.10982C7.11767 9.0495 6.63869 8.7807 6.36501 8.46176C6.23897 8.31471 6.11884 8.14077 6.00463 7.93995C5.87152 7.7057 5.75024 7.40411 5.64081 7.17582C5.2619 6.38539 4.96926 5.78771 4.76287 5.38279C4.5272 4.92042 4.37384 4.62568 4.15345 4.28604C4.14288 4.2698 4.14078 4.25571 4.14714 4.24379C4.14784 4.24253 4.14883 4.24144 4.15003 4.24057C4.15124 4.2397 4.15264 4.23909 4.15413 4.23877C4.15562 4.23846 4.15717 4.23844 4.15867 4.23873C4.16017 4.23902 4.16158 4.23961 4.16281 4.24046Z" fill="#E5B26B"/>
<path d="M6.33696 10.8307C6.30131 10.8284 6.25567 10.8415 6.20003 10.8701C6.19672 10.8719 6.19379 10.8715 6.19124 10.8689L6.18743 10.8651C6.15954 10.6309 6.13147 10.3967 6.1032 10.1625C6.05851 9.79339 5.97715 9.4669 5.87994 9.05924C5.65707 8.12362 5.40249 7.25289 5.00219 6.44229C4.77467 5.98138 4.54346 5.54344 4.30855 5.12847C4.22121 4.97405 4.11916 4.81742 4.00241 4.65856C3.99948 4.65447 3.99922 4.6502 4.00164 4.64576L4.05626 4.54704C4.05771 4.54436 4.05994 4.54209 4.0627 4.54049C4.06546 4.53889 4.06866 4.53802 4.07194 4.53797C4.07521 4.53791 4.07846 4.53868 4.08132 4.54019C4.08417 4.54169 4.08654 4.54388 4.08816 4.54652C4.63685 5.4532 5.12958 6.39232 5.51823 7.36335C5.78331 8.02561 5.98117 8.82831 6.12364 9.48268C6.22231 9.93506 6.29342 10.3844 6.33696 10.8307Z" fill="#E5B26B"/>
<path d="M8.95446 8.20596C8.90672 8.21741 8.87883 8.2329 8.87081 8.25242C8.7503 7.81547 8.62387 7.37993 8.48236 6.94842C8.3036 6.40311 8.1596 6.02894 7.93634 5.58813C7.93555 5.58651 7.93534 5.58469 7.93575 5.58295C7.93615 5.58121 7.93715 5.57963 7.93859 5.57845C7.94004 5.57726 7.94185 5.57652 7.94378 5.57634C7.94571 5.57616 7.94765 5.57654 7.94933 5.57744C7.95264 5.57931 7.95614 5.58334 7.95983 5.58953C8.05659 5.75412 8.14451 5.92262 8.22357 6.09504C8.53621 6.77623 8.81657 7.47426 8.95446 8.20596Z" fill="#E5B26B"/>
<path d="M8.95459 8.20593C9.05963 8.6292 9.13119 9.04406 9.16926 9.4505C9.18453 9.61339 9.17804 9.79749 9.19026 9.9574C9.21776 10.313 9.2191 10.6651 9.21891 11.0233C9.21853 11.334 9.19771 11.6728 9.15684 11.948C9.08389 12.4425 8.97751 12.964 8.60624 13.3516C8.32321 13.6471 7.92635 13.7993 7.49492 13.7977C7.458 13.7976 7.41433 13.7921 7.36391 13.7812C7.35792 13.7799 7.35512 13.7764 7.3555 13.7707C7.38052 13.3504 7.78827 13.1016 8.19601 13.0036C8.22415 12.9968 8.28533 12.9741 8.37955 12.9355C8.76552 12.7777 8.92155 12.5182 9.00406 12.1542C9.06937 11.866 9.09706 11.5912 9.1196 11.2831C9.15245 10.8369 9.12094 10.4396 9.10241 10.0167C9.09725 9.89831 9.07758 9.77084 9.06842 9.64688C9.03417 9.17872 8.96834 8.71389 8.87094 8.2524C8.87896 8.23288 8.90685 8.21739 8.95459 8.20593Z" fill="#F4AA24"/>
<path d="M7.72103 10.0482C7.58486 9.36398 8.14081 8.95614 8.67116 8.61177C8.67677 8.60815 8.6802 8.60937 8.68148 8.61545C8.72139 8.80307 8.7403 8.94702 8.69179 9.1178C8.55772 9.59104 8.26189 9.92068 7.73134 10.0541C7.73024 10.0544 7.72908 10.0545 7.72794 10.0543C7.72681 10.0542 7.72572 10.0538 7.72474 10.0532C7.72377 10.0527 7.72294 10.0519 7.7223 10.0511C7.72166 10.0502 7.72123 10.0492 7.72103 10.0482Z" fill="#F4AA24"/>
<path d="M6.86385 9.65636C6.59762 9.42965 6.4584 9.16489 6.35527 8.85962C6.35442 8.85714 6.35427 8.85451 6.35481 8.85196C6.35535 8.84941 6.35658 8.84702 6.35839 8.84502C6.36019 8.84302 6.36251 8.84146 6.36513 8.84049C6.36775 8.83952 6.3706 8.83916 6.37341 8.83946C7.03459 8.90731 7.57564 9.49979 7.63675 10.084C7.63777 10.093 7.63338 10.0967 7.62358 10.0951C7.59047 10.0895 7.55673 10.0795 7.52236 10.0651C7.2891 9.96806 7.0696 9.83182 6.86385 9.65636Z" fill="#F4AA24"/>
<path d="M7.92968 10.9817C7.92411 10.9821 7.91855 10.9808 7.91376 10.9781C7.90897 10.9754 7.90519 10.9714 7.90295 10.9666C7.68313 10.4985 7.96578 10.1502 8.36531 9.88459C8.53312 9.77296 8.69909 9.66015 8.8632 9.54618C8.86424 9.54545 8.86546 9.54496 8.86675 9.54477C8.86805 9.54458 8.86937 9.54469 8.87061 9.54509C8.87184 9.54549 8.87295 9.54617 8.87382 9.54707C8.8747 9.54796 8.87531 9.54904 8.87562 9.55021C8.97607 9.92194 8.82405 10.3456 8.54331 10.6168C8.41802 10.738 8.11971 10.9698 7.92968 10.9817Z" fill="#F4AA24"/>
<path d="M6.45531 9.67752C6.92665 9.82673 7.46904 10.202 7.57618 10.6599C7.60483 10.782 7.60082 10.9342 7.59986 11.0685C7.59984 11.0703 7.59935 11.072 7.59843 11.0736C7.59751 11.0751 7.59619 11.0764 7.59458 11.0774C7.59297 11.0784 7.59112 11.0791 7.58918 11.0793C7.58724 11.0795 7.58527 11.0793 7.58344 11.0787C7.56421 11.0719 7.54518 11.0611 7.52633 11.0464C7.33892 10.8997 7.15666 10.7479 6.97955 10.5909C6.70435 10.3468 6.52272 10.0585 6.42628 9.71732C6.42271 9.70446 6.42131 9.69669 6.42208 9.694C6.42297 9.69085 6.42455 9.68791 6.42674 9.68534C6.42892 9.68278 6.43166 9.68066 6.43478 9.67911C6.4379 9.67757 6.44133 9.67663 6.44486 9.67635C6.4484 9.67608 6.45195 9.67648 6.45531 9.67752Z" fill="#F4AA24"/>
<path d="M7.37827 12.0068C7.19169 11.8368 6.98772 11.6074 6.86262 11.4368C6.70577 11.223 6.62721 10.9799 6.62695 10.7076C6.62695 10.676 6.63173 10.6481 6.64128 10.6238C6.64228 10.6212 6.64414 10.6189 6.64661 10.6173C6.64908 10.6158 6.65202 10.6149 6.65503 10.615C6.77859 10.6166 7.30914 11.2389 7.38152 11.3535C7.47026 11.4937 7.51585 11.648 7.51826 11.8166C7.5196 11.915 7.52075 11.9807 7.4751 12.058C7.46975 12.0672 7.46243 12.0689 7.45314 12.0631C7.42666 12.0469 7.4017 12.0281 7.37827 12.0068Z" fill="#F4AA24"/>
<path d="M7.82151 11.484C7.97582 11.2459 8.28769 11.0339 8.55239 10.8927C8.66889 10.8307 8.74586 10.7886 8.85376 10.756C8.85683 10.755 8.8601 10.7548 8.8633 10.7552C8.8665 10.7556 8.86954 10.7568 8.87219 10.7585C8.87485 10.7602 8.87703 10.7624 8.87857 10.765C8.88011 10.7676 8.88097 10.7705 8.88107 10.7735C8.89425 11.1252 8.7237 11.4812 8.46817 11.7301C8.2705 11.923 8.01631 12.0577 7.7411 12.1471C7.72353 12.1528 7.71144 12.1477 7.70482 12.1317C7.62728 11.9446 7.71838 11.6434 7.82151 11.484Z" fill="#F4AA24"/>
<path d="M6.33704 10.831C6.37192 11.2771 6.40235 11.7171 6.42833 12.1507C6.43062 12.1872 6.45105 12.2154 6.47856 12.2372C6.96709 12.6238 7.36567 13.079 7.22491 13.7155C7.21956 13.7397 7.21339 13.7595 7.20639 13.7751C7.20371 13.7812 7.19907 13.783 7.19244 13.7805C6.69838 13.5961 6.41458 13.1426 6.35346 12.6755C6.32354 12.4471 6.30298 12.2178 6.29178 11.9875C6.2912 11.9752 6.28013 11.9521 6.27974 11.9403C6.27172 11.7196 6.2446 11.5008 6.22722 11.2805C6.21691 11.1485 6.19457 11.0333 6.1875 10.8653L6.19132 10.8692C6.19387 10.8717 6.19679 10.8722 6.2001 10.8704C6.25574 10.8418 6.30139 10.8286 6.33704 10.831Z" fill="#F4AA24"/>
<path d="M7.42633 12.9087C6.85319 12.562 6.50694 12.1768 6.57742 11.5037C6.57772 11.5008 6.57868 11.4981 6.58023 11.4956C6.58178 11.4931 6.5839 11.491 6.58643 11.4893C6.58896 11.4876 6.59184 11.4864 6.5949 11.4859C6.59796 11.4853 6.60111 11.4853 6.60415 11.486C6.6433 11.4939 6.74128 11.5922 6.77565 11.6219C7.11153 11.9112 7.32727 12.2636 7.42289 12.6792C7.44021 12.754 7.44645 12.8282 7.44161 12.9018C7.44151 12.9034 7.44095 12.9049 7.44 12.9062C7.43905 12.9075 7.43774 12.9086 7.43619 12.9093C7.43465 12.9099 7.43292 12.9103 7.43119 12.9102C7.42946 12.9101 7.42778 12.9096 7.42633 12.9087Z" fill="#F4AA24"/>
<path d="M7.51284 13.0362C7.56288 12.62 7.84572 12.2814 8.24907 12.0964C8.46692 11.9965 8.68655 11.9006 8.90796 11.8089C8.90957 11.8082 8.91134 11.8079 8.91311 11.808C8.91487 11.8081 8.91658 11.8086 8.91807 11.8095C8.91957 11.8104 8.92081 11.8116 8.92167 11.813C8.92254 11.8144 8.92301 11.816 8.92305 11.8176C8.93107 12.169 8.73226 12.493 8.43051 12.7012C8.16199 12.8863 7.86577 12.9889 7.539 13.0576C7.53566 13.0583 7.53217 13.0583 7.52884 13.0575C7.52551 13.0568 7.52243 13.0553 7.51986 13.0532C7.51729 13.0511 7.51531 13.0484 7.51409 13.0455C7.51287 13.0425 7.51244 13.0394 7.51284 13.0362Z" fill="#F4AA24"/>
<path d="M9.92718 12.5056C9.92311 12.5058 9.9191 12.5047 9.91576 12.5025C9.91242 12.5004 9.90993 12.4973 9.90866 12.4937C9.85786 12.3561 9.84659 12.2083 9.84773 12.0589C9.85193 11.4582 10.3831 11.0391 10.9783 10.8974C10.9805 10.8969 10.9828 10.8968 10.985 10.8972C10.9872 10.8975 10.9893 10.8982 10.9912 10.8993C10.9931 10.9004 10.9947 10.9018 10.996 10.9034C10.9973 10.9051 10.9981 10.907 10.9986 10.909C11.0026 10.9272 10.9938 10.9486 10.9782 10.9627C10.795 11.1275 10.6882 11.3254 10.6588 11.5588C10.6413 11.6975 10.6281 11.7996 10.5674 11.9205C10.4674 12.1197 10.3235 12.2852 10.1357 12.4169C10.0601 12.4699 10.0101 12.5037 9.92718 12.5056Z" fill="#C0CA3F"/>
<path d="M12.184 11.0515C12.248 11.0658 12.4128 11.1283 12.2825 11.2026C12.1532 11.2766 12.0665 11.3341 12.0224 11.375C11.8719 11.5147 11.7157 11.6678 11.5513 11.7767C11.3226 11.9279 11.0724 12.0427 10.8007 12.121C10.7864 12.1251 10.7677 12.1233 10.7555 12.123C10.7308 12.1224 10.7209 12.111 10.7259 12.0888C10.8735 11.4362 11.3725 10.8686 12.184 11.0515Z" fill="#C0CA3F"/>
<path d="M13.9212 11.5141C14.0173 11.5371 14.0295 11.6144 13.9331 11.6493C13.5761 11.7785 13.1924 11.8304 12.812 11.8602C12.5502 11.8809 12.248 11.8711 11.9663 11.8823C11.9608 11.8825 11.9554 11.8807 11.9513 11.8772C11.9471 11.8738 11.9447 11.869 11.9444 11.8639C11.9437 11.8535 11.9501 11.842 11.9635 11.8294C12.2622 11.5508 12.6669 11.373 13.0947 11.3758C13.3483 11.3773 13.6582 11.4508 13.9212 11.5141Z" fill="#C0CA3F"/>
<path d="M10.5126 12.5266C10.511 12.5259 10.5095 12.5248 10.5084 12.5235C10.5072 12.5222 10.5064 12.5207 10.5061 12.519C10.5057 12.5174 10.5058 12.5157 10.5063 12.514C10.5068 12.5124 10.5077 12.5109 10.509 12.5097C10.7624 12.2657 11.2851 12.144 11.6345 12.1198C11.7259 12.1133 11.853 12.1153 12.0158 12.1257C12.5218 12.1578 13.0428 12.2071 13.5466 12.1862C13.5549 12.1859 13.5631 12.1883 13.5695 12.1932C13.576 12.198 13.5802 12.2048 13.5815 12.2124C13.5918 12.2739 13.5605 12.3118 13.5084 12.3526C13.0487 12.7114 12.4259 12.8648 11.835 12.8104C11.4051 12.771 11.0819 12.677 10.5451 12.543C10.5342 12.5404 10.5241 12.5313 10.5126 12.5266Z" fill="#C0CA3F"/>
<path d="M9.60019 13.0367C9.59487 13.0332 9.59098 13.0281 9.58912 13.0223C9.58725 13.0165 9.58752 13.0103 9.58988 13.0047C9.59675 12.9883 9.60949 12.9719 9.62807 12.9556C10.1865 12.4667 10.8141 12.7823 11.3884 13.0125C11.6542 13.119 12.0255 13.204 12.3121 13.1353C12.3364 13.1294 12.3516 13.135 12.3576 13.1521C12.369 13.1842 12.3179 13.2284 12.2938 13.2459C12.0152 13.4493 11.604 13.5259 11.2558 13.5159C10.6655 13.4989 10.0962 13.3639 9.60019 13.0367Z" fill="#C0CA3F"/>
<path d="M8.8193 13.662C8.80885 13.6564 8.80605 13.6486 8.81089 13.6385C8.9633 13.3215 9.32368 13.1831 9.67795 13.3059C10.1602 13.4732 10.6086 13.6878 11.12 13.6588C11.1254 13.6585 11.1308 13.6597 11.1354 13.6623C11.1401 13.6648 11.1438 13.6685 11.146 13.673C11.1684 13.7168 11.1544 13.7498 11.104 13.7723C10.8021 13.9062 10.502 13.9766 10.1755 13.9957C9.66057 14.0258 9.25741 13.8943 8.8193 13.662Z" fill="#C0CA3F"/>
</svg>
