<!-- by TradingView --><svg width="18" height="18" viewBox="0 0 18 18" xmlns="http://www.w3.org/2000/svg"><path fill="#F0F3FA" d="M0 0h18v18H0z"/><path fill-rule="evenodd" d="M14.86 9.9 7.84 3.18c-.38-.38-1.47-.11-2 .4-.55.52-1.16 1.76-.65 2.26a.7.7 0 0 0 .48.16c.64 0 1.55-.49 1.72-.66a.31.31 0 0 0 .11-.23c0-.1-.04-.18-.08-.22l-.3-.26c-.3-.24-.65-.54-.8-.73.15-.16.29-.2.4-.2.08 0 .14.03.17.05l7.19 6.9c.38.37-.18 1.05-.5 1.35.24-.09.78-.32 1-.53.6-.57.43-1.28.28-1.57ZM5.89 4.73c-.1.12-.28.45-.1.62.17.17.51 0 .64-.1l-.54-.52Z" fill="#000193"/><path fill-rule="evenodd" d="m8.1 14.86 6.72-7.02c.38-.38.11-1.47-.4-2-.52-.55-1.77-1.16-2.26-.65-.12.12-.16.29-.16.48 0 .76.48 1.55.65 1.72.08.08.16.11.23.11.1 0 .18-.04.23-.08l.24-.29c.25-.3.55-.66.75-.82.15.16.2.3.2.4 0 .09-.03.15-.05.18l-6.9 7.19c-.37.38-1.05-.18-1.35-.5.09.24.32.78.53 1 .57.6 1.28.43 1.57.28Zm5.17-8.97c-.12-.1-.45-.28-.62-.1-.17.17 0 .51.1.64l.52-.54ZM9.9 3.14l-6.72 7.02c-.38.38-.11 1.47.4 2 .52.55 1.77 1.16 2.26.65.12-.12.16-.3.16-.49a3.4 3.4 0 0 0-.65-1.71.32.32 0 0 0-.24-.11c-.1 0-.17.05-.22.08l-.24.29c-.25.3-.55.66-.75.82-.16-.16-.2-.3-.2-.41 0-.08.03-.14.05-.17l6.9-7.19c.37-.38 1.05.18 1.35.5a3.62 3.62 0 0 0-.53-1 1.32 1.32 0 0 0-1.57-.28Zm-5.17 8.97c.12.1.45.28.62.1.17-.17 0-.51-.1-.64l-.52.54Z" fill="#000193"/><path fill-rule="evenodd" d="m3.14 8.1 7.02 6.72c.38.38 1.47.11 2-.4.55-.52 1.16-1.76.65-2.26a.68.68 0 0 0-.49-.16 3.4 3.4 0 0 0-1.71.66.32.32 0 0 0-.11.21c0 .1.04.2.08.24l.3.26c.3.25.65.54.8.73-.27.27-.5.21-.57.15l-7.19-6.9c-.38-.37.18-1.05.5-1.35-.24.09-.78.32-1 .53-.6.57-.43 1.28-.28 1.57Zm8.97 5.17c.1-.12.28-.45.1-.62-.17-.17-.51 0-.64.1l.54.52Z" fill="#000193"/><path d="m9 8 1 1-1 1-1-1 1-1Zm2.4-3.8v1.2h-1.2V4.2zM5 6v1H4V6zm8.8 4.2v1.2h-1.2v-1.2zm-6 2.4v1.2H6.6v-1.2z" fill="#000193"/></svg>