<!-- by TradingView --><svg width="56" height="56" viewBox="0 0 56 56" fill="none" xmlns="http://www.w3.org/2000/svg">
<rect width="56" height="56" fill="#F0F3FA"/>
<path fill-rule="evenodd" clip-rule="evenodd" d="M35.9608 19.6409C33.5349 22.1339 31.5025 25.1143 30.465 28H40V29.5H29.9988C29.0703 32.6019 27.9937 34.7486 26.7788 36.3841C25.4931 38.115 24.0817 39.2326 22.6344 40.2859C21.2842 41.2685 19.4932 42.2356 17.9163 43H42V15.0285C40.0031 16.0459 37.8821 17.6664 35.9608 19.6409ZM42 13.347C39.6042 14.4341 37.0992 16.316 34.9101 18.5656C32.2452 21.3042 29.9643 24.6738 28.8928 28H20V29.5H28.4429C27.5871 32.2264 26.6277 34.0755 25.5981 35.4617C24.451 37.006 23.1875 38.0168 21.7754 39.0445C19.5646 40.6535 15.9877 42.2722 14.4639 42.8817L14.5088 43H14V13H42V13.347Z" fill="#016BFF"/>
</svg>
