<!-- by TradingView --><svg width="18" height="18" viewBox="0 0 18 18" xmlns="http://www.w3.org/2000/svg"><path fill="#F0F3FA" d="M0 0h18v18H0z"/><path d="m9 3 5 2.8v6.28L9 15l-5-2.92V5.8L9 3Z" fill="#126C38"/><path d="M7.2 5.6a3.43 3.43 0 0 1 4.8.92h-.38v.46c-.45-.52-1.57-1.46-2.41-1.46-.85 0-1.63.28-1.92.46L7.2 5.6Zm-.08 0c-.05-.24-.2-.28-.28-.26-.06 0-.13.15.06.25.04.03.08.09.1.16a.4.4 0 0 0 0-.02c-.49.3-.98.89-1 .93.02.1.1.29.25.34.43-.42.75-.65.9-.75a.4.4 0 0 0 .07.16c.1.1.31-.09.24-.15a1.51 1.51 0 0 1-.34-.67Z" fill="#F0F3FA"/><path fill-rule="evenodd" d="M10.1 9.44c.14.16.47.46.66.5l.17.01c.26.03.6.06.6.27 0 .15-.16.21-.3.26-.1.03-.18.06-.17.11.01.13.53.2.65.17.06-.02.08-.2.1-.37a.87.87 0 0 1 .07-.34l.01-.02c.09-.11.18-.24.04-.3a.39.39 0 0 0-.3 0c-.06-.06-.18-.19-.17-.29 0-.05.03-.09.05-.13a.36.36 0 0 0 .07-.22.65.65 0 0 0-.12-.34c.06-.05.17-.2.17-.37 0-.22-.27-.5-.82-.5a4 4 0 0 0-.74.08c-.2.04-.4.07-.62.07-.46 0-.72-.12-.72-.32s.26-.27.49-.28c.1 0 .18.03.26.07.1.04.2.09.36.09a.9.9 0 0 0 .52-.16.94.94 0 0 0-.91-.1c-.32-.05-.94-.02-.94.38 0 .28.44.5.98.5.31 0 .59-.06.83-.1.19-.05.35-.08.5-.08.32 0 .57.2.57.35 0 .13-.12.22-.18.25-.04-.05-.18-.15-.45-.15-.16 0-.33.03-.51.07-.2.04-.4.08-.6.08-.3 0-.94-.17-1.22-.25-.06-.22-.2-.55-.4-.83l-.1.06c-.04.03-.08.05-.07.07 0 .04-.05.06-.17.05-.04 0-.07-.04-.1-.06-.03-.04-.07-.1-.2-.1-.18 0-.22-.05-.28-.12l-.02-.03c-.1.17-.27.17-.42.17-.08 0-.15 0-.19.04-.08.07-.03.46 0 .64-.07.04-.22.16-.22.28 0 .12.06.26.1.31a.37.37 0 0 1-.2-.31c0-.18.1-.3.17-.36l.03-.04c.04-.05-.05-.12-.2-.12.18-.1.16-.32.16-.43v-.06c0-.06.06-.06.16-.06h.04c.13 0 .35-.08.5-.26.16.03.4.19.49.26h.47c-.21-.27-.5-.48-.84-.48C6.54 7 6 7.5 6 8.03c0 .39.05.85.33 1.36.08-.07.18-.22.2-.51.08 0 .16.07.15.15 0 .07-.14.4-.25.54l.14.2c.18-.18.17-.5.14-.66.16 0 .14.4.03.66l-.06.14.06.08.08.13c.07.11.09.14.06.21-.02.04-.12.06-.25.07-.2.03-.43.07-.43.2 0 .2.38.14.49.05.09-.08.22-.1.27-.12-.09.05-.27.17-.27.23 0 .07.56.24.6.24l.05-.09c.06-.13.17-.36.37-.45.28-.13.56-.33.68-.76 0 .35.05.42.27.35l.26-.04c.18-.02.42-.06.67-.13.05.06.13.14.22.21l.13.09c.05.02.07.03.06.11-.02.13-.07.21-.32.2-.26 0-.55.03-.55.17s.22.2.23.17c0-.02.12-.1.18-.15-.04.05-.09.15.01.15.1 0 .13-.04.13-.06.02.03.07.1.15.08.05-.01.1-.07.16-.14a.88.88 0 0 1 .24-.21l.17-.07c.14-.04.26-.09.26-.2 0-.1-.14-.24-.3-.4l-.26-.29v-.1ZM7.42 7.78c-.1.01-.3.07-.29.21.02.17.37.22.44.03-.05-.06-.2-.06-.22 0-.03.06-.12.02-.11-.06 0-.04.04-.06.08-.08.05-.02.1-.05.1-.1Zm-.48.25c0 .08-.19.03-.28 0 .05.21.38.13.4 0 .02-.13-.4-.19-.4-.12 0 .03.06.04.12.05.08.01.16.02.16.07Zm.2 2.15c.02.17-.12.3-.19.35.12.07.3-.17.3-.2l-.01-.04a.93.93 0 0 1 0-.25c.02-.02.16.05.24.09l.02.01c.06.03.2-.2.2-.3 0-.06-.06-.12-.12-.18a.64.64 0 0 1-.08-.08.4.4 0 0 0-.1-.1v-.34c-.01-.15.12-.22.12-.15.02.3.09.5.14.62l.1.26a.82.82 0 0 0 .05-.22c0-.04-.04-.11-.09-.2a.72.72 0 0 1-.11-.24c-.02-.07.08-.2.16-.3.06-.08.1-.15.1-.19 0-.03 0-.06-.02-.09-.01-.04-.04-.1-.04-.2s.08-.11.13-.11c.03 0 .05 0 .05-.03l-.05-.09c-.04-.05-.08-.1-.06-.13 0-.03.04 0 .07.01.03.03.08.06.11.04.07-.04-.07-.35-.12-.36-.04 0-.1.03-.17.07l-.07.05c-.05.02-.03.15-.01.3l.01.25c0 .23-.24.49-.38.49-.1 0-.09-.11-.07-.21v-.13c.01-.09.01-.13-.13-.15-.16-.01-.05.17 0 .25.05.08.02.25-.15.24-.11-.01-.23-.22-.33-.38a1.1 1.1 0 0 0-.12-.19.37.37 0 0 0-.11.21c-.02.13.17.23.26.28l.02.01c.08.05.21.14.24.24.04.1.09.12.24.12.1 0 .1-.02.12-.04 0-.02 0-.03.03-.03.06 0 0 .23-.06.28-.02.02 0 .05.02.07-.02.04-.06.08-.1.09-.07 0-.12-.06-.2-.14a5.14 5.14 0 0 0-.03-.04c-.03.06 0 .09.03.12s.06.07.06.13c0 .08-.04.11-.08.14-.03.03-.07.06-.07.12 0 .05.05.07.1.1.07.02.15.05.15.17Zm.05-.54c.14-.02.38 0 .3.3-.12-.03-.4-.12-.3-.3Zm1.15-1.16-.17.5a.68.68 0 0 0 0 .29c-.04-.02-.12-.1-.12-.28 0-.23.13-.5.3-.5Zm-.36.09c-.03-.16.13-.45.2-.57.17.1 0 .44-.07.6l-.04.1c0 .06-.1 0-.1-.13Zm-.2.96c.05-.04.15-.14.15-.24 0-.06-.04-.1-.07-.13-.04-.04-.07-.07-.07-.13 0-.08.14-.2.2-.24-.03.06-.12.18-.11.24 0 .04.04.08.08.12.05.06.11.12.1.18-.01.1-.27.27-.27.2Z" fill="#F0F3FA"/><path d="m6.5 12 .12.38H7l-.3.24.1.38-.3-.24-.3.24.1-.38-.3-.24h.38L6.5 12Zm1 0 .12.38H8l-.3.24.1.38-.3-.24-.3.24.1-.38-.3-.24h.38L7.5 12Z" fill="#F0F3FA"/><path d="m8.5 12 .12.38H9l-.3.24.1.38-.3-.24-.3.24.1-.38-.3-.24h.38L8.5 12Z" fill="#F0F3FA"/><path d="m9.5 12 .12.38H10l-.3.24.1.38-.3-.24-.3.24.1-.38-.3-.24h.38L9.5 12Z" fill="#F0F3FA"/><path d="m10.5 12 .12.38H11l-.3.24.1.38-.3-.24-.3.24.1-.38-.3-.24h.38l.12-.38Z" fill="#F0F3FA"/><path d="m11.5 12 .12.38H12l-.3.24.1.38-.3-.24-.3.24.1-.38-.3-.24h.38l.12-.38Z" fill="#F0F3FA"/></svg>