<!-- by TradingView --><svg width="18" height="18" viewBox="0 0 18 18" fill="none" xmlns="http://www.w3.org/2000/svg">
<rect width="18" height="18" fill="#4AA5B6"/>
<path fill-rule="evenodd" clip-rule="evenodd" d="M13 6H11.5V12H12.381V12.0001H15V10.5001H13V6ZM4 6.00003H5.5V12H4V6.00003ZM6.44443 6.00003V12H8.92803C9.72544 12 10.7222 11.7018 10.7222 10.4006C10.7222 9.35967 10.0935 9.02112 9.80554 8.98196V8.71088C10.0298 8.5904 10.5312 8.18317 10.5312 7.51811C10.5312 6.37594 9.75036 6.03015 9.35996 6.00003H6.44443ZM8.63734 6.99413H8V8.32746H8.63734C8.95846 8.32746 9.21879 8.02898 9.21879 7.66079C9.21879 7.2926 8.95846 6.99413 8.63734 6.99413ZM8.71343 9.66089H8V10.9942H8.71343C9.06347 10.9942 9.34723 10.6957 9.34723 10.3276C9.34723 9.95937 9.06347 9.66089 8.71343 9.66089Z" fill="#0103F6"/>
<path d="M5.5 10.5445L4.97236 11.1651C4.90368 11.2134 4.75938 11.2571 4.73155 11.0459L4.72512 10.9954C4.69364 10.7434 4.66044 10.4776 4.32799 10.8296C4.22169 10.9422 4.10784 11.0639 4 11.1798V10.2255L4.31846 9.83552L4.32174 9.83135C4.37301 9.76601 4.5882 9.49174 4.70153 9.49174C4.81339 9.49174 4.79325 9.70322 4.77824 9.86079C4.7738 9.90735 4.76981 9.94921 4.76981 9.9795C4.76981 10.1123 4.83845 10.3829 5.13813 10.0171C5.18344 9.96176 5.29649 9.79577 5.5 9.55738V10.5445Z" fill="#00FF30"/>
<path d="M8.58543 6.00592H9.35996C9.41827 6.0104 9.48529 6.02188 9.55711 6.04197L8.69668 7.00345C8.67717 7.00118 8.65737 7.00002 8.63734 7.00002H8V7.81297L6.44443 9.52019V8.48754C7.16675 7.64649 8.02561 6.65003 8.58543 6.00592Z" fill="#00FF30"/>
<path d="M7.2845 6.00592H8.29273L6.44443 8.06569V7.00063C6.73065 6.65705 7.03029 6.30076 7.2845 6.00592Z" fill="#00FF30"/>
<path d="M4 8.79052L4.572 8.07543C4.61659 8.01867 4.73476 7.90517 4.8507 7.90517C4.99562 7.90517 5.03275 8.0947 5.03275 8.22753C5.03275 8.36036 5.10139 8.63094 5.40107 8.2651L5.4165 8.24626C5.44454 8.21202 5.45441 8.16607 5.5 8.11046V9.08721L5.2353 9.41316C5.16662 9.4614 5.02232 9.5051 4.99449 9.29398L4.98805 9.24342C4.95658 8.99145 4.92338 8.72565 4.59093 9.07765C4.39049 9.28988 4.16322 9.53478 4 9.71162V8.79052Z" fill="#00FF30"/>
</svg>
