<!-- by TradingView --><svg width="56" height="56" viewBox="0 0 56 56" xmlns="http://www.w3.org/2000/svg"><path fill="url(#a)" d="M0 0h56v56H0z"/><path d="M7 23v-1h39.07c.74 0 .93.67.93 1v1.5c0 .4-.62.5-.93.5h-20c-1.4 0-10.7-2.5-12.1-2.5-1.11 0-3.87.33-5.11.5H7Z" fill="#6D552B"/><path d="M21.88 23.5c-1.11 0-1.08-.33-.93-.5h-1.4c-.74 0-1.39-.83-1.39-1h27.91v1c0 .8-1.24 1-1.86 1H24.67c-.37 0-.46-.33-.46-.5h-2.33Z" fill="#AC8E30"/><path d="m30.72 29-3.25-3h18.6c.74 0 .93.67.93 1v2c0 .8-.62 1-.93 1H32.12c-.38 0-1.09-.67-1.4-1Z" fill="#6D552B"/><path d="m32.12 29-2.8-2.5h15.82c.74 0 .93.33.93.5v1c0 .8-.62 1-.93 1H32.12Z" fill="#AC8E30"/><path d="M24.2 23.5c0-.4.32-.5.47-.5h20.47c0 .8-.62 1-.93 1H24.67a.46.46 0 0 1-.46-.5ZM31.19 27h13.95v1H32.12l-.93-1Z" fill="#DBB62D"/><path d="M46.07 31H33.05c0 .33.18 1.2.93 2 .74.8 1.55 1 1.86 1h10.23c.74 0 .93-.67.93-1v-1c0-.8-.62-1-.93-1ZM46.07 35H35.84l.93 3h9.3c.74 0 .93-.67.93-1v-1c0-.8-.62-1-.93-1Z" fill="#886F3B"/><path d="M45.14 36h-8.37l.93 1.5h7.44c.74 0 .93-.33.93-.5 0-.8-.62-1-.93-1Z" fill="#DBB62D"/><path d="M35.84 33c-1.5 0-1.86-1.33-1.86-2h12.09v1c0 .8-.62 1-.93 1h-9.3Z" fill="#AC8E30"/><path d="M45.14 31.5H34.9l.93 1h9.3v-1Z" fill="#DBB62D"/><defs><linearGradient id="a" x1="10.42" y1="9.71" x2="68.15" y2="76.02" gradientUnits="userSpaceOnUse"><stop stop-color="#1A1E21"/><stop offset="1" stop-color="#06060A"/></linearGradient></defs></svg>