<!-- by TradingView --><svg width="18" height="18" viewBox="0 0 18 18" fill="none" xmlns="http://www.w3.org/2000/svg">
<rect width="18" height="18" fill="#F0F3FA"/>
<path fill-rule="evenodd" clip-rule="evenodd" d="M8.48201 4.19813C8.48201 4.30756 8.4046 4.39626 8.30911 4.39626C8.21362 4.39626 8.13621 4.30756 8.13621 4.19813C8.13621 4.08871 8.21362 4 8.30911 4C8.4046 4 8.48201 4.08871 8.48201 4.19813ZM9.18411 4.19977C9.18411 4.30831 9.10733 4.3963 9.01261 4.3963C8.91789 4.3963 8.84111 4.30831 8.84111 4.19977C8.84111 4.09123 8.91789 4.00324 9.01261 4.00324C9.10733 4.00324 9.18411 4.09123 9.18411 4.19977ZM9.6475 4.41311C9.7426 4.41311 9.8197 4.32477 9.8197 4.21578C9.8197 4.1068 9.7426 4.01845 9.6475 4.01845C9.55239 4.01845 9.4753 4.1068 9.4753 4.21578C9.4753 4.32477 9.55239 4.41311 9.6475 4.41311ZM10.4672 4.24389C10.4672 4.35243 10.3904 4.44042 10.2957 4.44042C10.201 4.44042 10.1242 4.35243 10.1242 4.24389C10.1242 4.13535 10.201 4.04736 10.2957 4.04736C10.3904 4.04736 10.4672 4.13535 10.4672 4.24389ZM7.70641 4.49747C7.8019 4.49747 7.87931 4.40877 7.87931 4.29934C7.87931 4.18992 7.8019 4.10121 7.70641 4.10121C7.61092 4.10121 7.53351 4.18992 7.53351 4.29934C7.53351 4.40877 7.61092 4.49747 7.70641 4.49747ZM11.1266 4.31672C11.1266 4.42659 11.0489 4.51566 10.953 4.51566C10.8571 4.51566 10.7794 4.42659 10.7794 4.31672C10.7794 4.20686 10.8571 4.11779 10.953 4.11779C11.0489 4.11779 11.1266 4.20686 11.1266 4.31672ZM7.0176 4.60484C7.11232 4.60484 7.1891 4.51685 7.1891 4.40831C7.1891 4.29977 7.11232 4.21178 7.0176 4.21178C6.92288 4.21178 6.8461 4.29977 6.8461 4.40831C6.8461 4.51685 6.92288 4.60484 7.0176 4.60484ZM11.9428 4.50865C11.9428 4.6163 11.8666 4.70357 11.7727 4.70357C11.6787 4.70357 11.6026 4.6163 11.6026 4.50865C11.6026 4.40099 11.6787 4.31372 11.7727 4.31372C11.8666 4.31372 11.9428 4.40099 11.9428 4.50865ZM6.1818 4.86701C6.27729 4.86701 6.3547 4.7783 6.3547 4.66888C6.3547 4.55945 6.27729 4.47074 6.1818 4.47074C6.08631 4.47074 6.0089 4.55945 6.0089 4.66888C6.0089 4.7783 6.08631 4.86701 6.1818 4.86701ZM8.40711 4.8488L8.10191 5.39828C8.08418 5.43037 8.06785 5.4293 8.05291 5.39507L7.80861 4.83517C7.79461 4.80362 7.78061 4.80362 7.76661 4.83517L7.52931 5.35577C7.51485 5.38732 7.49875 5.38865 7.48101 5.35978L7.19611 4.89934C7.19339 4.89479 7.18968 4.89116 7.18534 4.88878C7.181 4.8864 7.17617 4.88536 7.17131 4.88577C7.16646 4.88617 7.16175 4.888 7.15764 4.89108C7.15352 4.89416 7.15014 4.89838 7.14781 4.90335L6.92731 5.38545C6.92463 5.39134 6.92085 5.3965 6.91624 5.40055C6.91164 5.4046 6.90632 5.40745 6.90065 5.4089C6.89499 5.41035 6.88911 5.41037 6.88344 5.40895C6.87777 5.40753 6.87244 5.40471 6.86781 5.40069L6.43171 5.01565C6.42469 5.00946 6.41667 5.00492 6.40811 5.00229C6.39955 4.99966 6.39062 4.999 6.38184 5.00034C6.37306 5.00169 6.36459 5.005 6.35694 5.01011C6.34928 5.01522 6.34257 5.02201 6.33721 5.03009C6.29139 5.09937 6.90508 6.41231 7.08541 6.79811L7.08543 6.79815L7.08543 6.79816L7.12541 6.88387C7.13661 6.90794 7.15411 6.92104 7.17791 6.92318C8.34505 7.03708 9.51335 7.05927 10.6828 6.98975C10.8088 6.98173 10.9978 6.91836 11.0475 6.80125C11.1404 6.58199 11.3312 6.0376 11.6201 5.16806C11.6336 5.12849 11.6334 5.08811 11.6194 5.04694C11.6157 5.03599 11.6099 5.0262 11.6023 5.01833C11.5946 5.01047 11.5855 5.00475 11.5756 5.00164C11.5657 4.99852 11.5552 4.9981 11.5451 5.00039C11.535 5.00268 11.5254 5.00763 11.5172 5.01485L11.184 5.30924C11.1607 5.3301 11.1415 5.32582 11.1266 5.29641L10.9026 4.86244C10.9002 4.85779 10.8968 4.85393 10.8926 4.85126C10.8885 4.84858 10.8839 4.84718 10.8792 4.84718C10.8744 4.84718 10.8698 4.84858 10.8657 4.85126C10.8616 4.85393 10.8581 4.85779 10.8557 4.86244L10.6324 5.30683C10.617 5.33732 10.6004 5.33839 10.5827 5.31004L10.2943 4.8472C10.2911 4.84176 10.2866 4.8374 10.2814 4.83455C10.2762 4.83169 10.2705 4.83045 10.2648 4.83093C10.259 4.83142 10.2535 4.83362 10.2487 4.83732C10.244 4.84102 10.2401 4.84609 10.2376 4.85201L10.0171 5.35336C10.0147 5.35881 10.0111 5.36349 10.0068 5.36698C10.0024 5.37046 9.99733 5.37262 9.99209 5.37326C9.98684 5.3739 9.98156 5.373 9.97676 5.37064C9.97195 5.36828 9.96777 5.36455 9.96461 5.35978L9.62581 4.86405C9.60341 4.83142 9.58545 4.8341 9.57191 4.87207L9.40391 5.34213C9.40196 5.34751 9.39888 5.35226 9.39495 5.35594C9.39101 5.35963 9.38633 5.36214 9.38134 5.36325C9.37635 5.36436 9.3712 5.36404 9.36634 5.36231C9.36149 5.36059 9.35708 5.35751 9.35351 5.35336L8.99721 4.94587C8.97761 4.92287 8.95965 4.92447 8.94331 4.95068L8.71371 5.31726C8.71031 5.32273 8.70572 5.32707 8.70039 5.32988C8.69506 5.33269 8.68917 5.33387 8.68328 5.3333C8.67738 5.33274 8.67168 5.33045 8.66672 5.32666C8.66175 5.32287 8.65769 5.3177 8.65491 5.31165L8.45471 4.85121C8.44025 4.81806 8.42438 4.81725 8.40711 4.8488ZM10.6342 5.58843C10.6378 5.58584 10.6408 5.58224 10.6429 5.57796L10.8578 5.144C10.86 5.13963 10.8631 5.13599 10.8669 5.13343C10.8706 5.13087 10.8749 5.12948 10.8793 5.1294C10.8837 5.12932 10.888 5.13055 10.8919 5.13297C10.8957 5.13539 10.8989 5.13891 10.9012 5.1432L11.1098 5.53224C11.1117 5.53582 11.1142 5.53888 11.1172 5.54123C11.1202 5.54358 11.1237 5.54515 11.1273 5.54583C11.1309 5.54652 11.1345 5.5463 11.138 5.5452C11.1416 5.5441 11.1448 5.54214 11.1476 5.53946L11.38 5.32208C11.3843 5.31815 11.3897 5.31597 11.3952 5.31585C11.4007 5.31573 11.4061 5.31769 11.4105 5.32142C11.415 5.32515 11.4182 5.33046 11.4198 5.33651C11.4214 5.34257 11.4212 5.34906 11.4192 5.35496L11.1882 6.03359C11.1866 6.03813 11.1841 6.04214 11.1808 6.04524C11.1775 6.04834 11.1735 6.05043 11.1693 6.05131C11.1651 6.0522 11.1608 6.05184 11.1568 6.05028C11.1527 6.04873 11.1491 6.04602 11.1462 6.04241L10.9194 5.75684C10.9167 5.75351 10.9132 5.75098 10.9095 5.74945C10.9057 5.74793 10.9016 5.74747 10.8977 5.74809C10.8937 5.74872 10.8899 5.75043 10.8866 5.75306C10.8834 5.7557 10.8807 5.7592 10.8788 5.76326L10.6919 6.15792C10.6899 6.16225 10.6869 6.16591 10.6833 6.16857C10.6797 6.17123 10.6756 6.1728 10.6713 6.17312C10.6671 6.17344 10.6628 6.17251 10.6589 6.17041C10.655 6.16831 10.6517 6.16512 10.6492 6.16113L10.3419 5.6646C10.3395 5.66071 10.3363 5.65757 10.3326 5.65545C10.3288 5.65334 10.3247 5.65231 10.3205 5.65247C10.3164 5.65263 10.3123 5.65397 10.3087 5.65636C10.3051 5.65876 10.3021 5.66214 10.2999 5.6662L10.0465 6.14428C10.0444 6.14823 10.0414 6.15153 10.0379 6.15389C10.0344 6.15625 10.0305 6.1576 10.0264 6.15784C10.0224 6.15808 10.0183 6.15719 10.0146 6.15525C10.0109 6.1533 10.0077 6.15037 10.0052 6.14669L9.67761 5.65978C9.67493 5.65572 9.67136 5.65255 9.66727 5.65057C9.66317 5.6486 9.65869 5.64791 9.65429 5.64856C9.64988 5.64921 9.6457 5.65119 9.64218 5.65428C9.63865 5.65738 9.63591 5.66149 9.63421 5.6662L9.45291 6.17878C9.45129 6.18317 9.44874 6.18703 9.4455 6.19001C9.44226 6.193 9.43842 6.19502 9.43433 6.19589C9.43024 6.19677 9.42603 6.19647 9.42206 6.19502C9.4181 6.19357 9.41451 6.19102 9.41161 6.1876L9.02801 5.71914C9.02536 5.71574 9.02204 5.71311 9.01832 5.71146C9.01461 5.70982 9.0106 5.70921 9.00664 5.70967C9.00268 5.71014 8.99887 5.71168 8.99553 5.71417C8.99219 5.71665 8.98941 5.72 8.98741 5.72396L8.76551 6.14589C8.76321 6.15033 8.75991 6.15398 8.75596 6.15646C8.75201 6.15894 8.74755 6.16016 8.74305 6.16C8.73855 6.15984 8.73416 6.15829 8.73036 6.15553C8.72655 6.15276 8.72346 6.14888 8.72141 6.14428L8.49461 5.65657C8.49264 5.65207 8.48967 5.64824 8.48601 5.64546C8.48234 5.64267 8.4781 5.64104 8.47372 5.64072C8.46933 5.64039 8.46494 5.64139 8.46099 5.64361C8.45705 5.64583 8.45367 5.64919 8.45121 5.65337L8.13201 6.19402C8.12954 6.19836 8.12609 6.20186 8.12202 6.20414C8.11796 6.20643 8.11344 6.20742 8.10892 6.20701C8.10441 6.2066 8.10008 6.2048 8.09638 6.20181C8.09269 6.19882 8.08976 6.19474 8.08791 6.19001L7.88141 5.68385C7.87942 5.67905 7.87632 5.67498 7.87245 5.67208C7.86857 5.66917 7.86407 5.66755 7.85944 5.66738C7.85481 5.66721 7.85023 5.66851 7.8462 5.67114C7.84218 5.67376 7.83886 5.6776 7.83661 5.68224L7.58531 6.21086C7.58329 6.21519 7.58034 6.21886 7.57675 6.22152C7.57315 6.22417 7.56901 6.22574 7.56474 6.22606C7.56047 6.22638 7.55619 6.22545 7.55232 6.22335C7.54845 6.22125 7.54511 6.21806 7.54261 6.21407L7.22761 5.73519C7.22499 5.7311 7.22147 5.72788 7.21741 5.72585C7.21335 5.72382 7.2089 5.72305 7.2045 5.72362C7.2001 5.72419 7.1959 5.72607 7.19234 5.72909C7.18878 5.73211 7.18598 5.73615 7.18421 5.7408L7.00641 6.22129C7.0045 6.22629 7.00139 6.23057 6.99744 6.23363C6.99349 6.23669 6.98887 6.2384 6.98411 6.23857C6.97934 6.23874 6.97463 6.23735 6.97053 6.23458C6.96642 6.2318 6.96309 6.22775 6.96091 6.2229L6.58991 5.40871C6.58692 5.40277 6.58586 5.39581 6.58694 5.38907C6.58801 5.38233 6.59114 5.37624 6.59577 5.3719C6.6004 5.36756 6.60623 5.36525 6.61221 5.36538C6.61819 5.36551 6.62393 5.36807 6.62841 5.37261L6.91611 5.6293C6.91898 5.63178 6.92227 5.63352 6.92577 5.63442C6.92927 5.63532 6.9329 5.63535 6.93641 5.63452C6.93992 5.63368 6.94323 5.632 6.94613 5.62958C6.94903 5.62716 6.95145 5.62405 6.95321 5.62048L7.16951 5.16967C7.17153 5.16534 7.17448 5.16167 7.17808 5.15901C7.18168 5.15636 7.18581 5.15479 7.19009 5.15447C7.19436 5.15415 7.19863 5.15508 7.2025 5.15718C7.20638 5.15928 7.20972 5.16247 7.21221 5.16646L7.49781 5.63411C7.50028 5.63829 7.50365 5.64165 7.50759 5.64387C7.51154 5.64609 7.51593 5.64709 7.52032 5.64676C7.5247 5.64644 7.52894 5.6448 7.53261 5.64202C7.53627 5.63924 7.53924 5.63541 7.54121 5.63091L7.76521 5.1464C7.76745 5.14193 7.7707 5.13822 7.77461 5.13567C7.77853 5.13312 7.78297 5.13182 7.78747 5.1319C7.79197 5.13199 7.79637 5.13345 7.80021 5.13614C7.80405 5.13883 7.8072 5.14265 7.80931 5.14721L8.04591 5.67743C8.04789 5.68193 8.05085 5.68577 8.05452 5.68855C8.05819 5.69133 8.06242 5.69296 8.06681 5.69329C8.0712 5.69361 8.07558 5.69262 8.07953 5.6904C8.08348 5.68818 8.08685 5.68481 8.08931 5.68064L8.39661 5.13838C8.39907 5.13421 8.40245 5.13084 8.40639 5.12862C8.41034 5.1264 8.41473 5.12541 8.41912 5.12573C8.4235 5.12606 8.42774 5.12769 8.43141 5.13047C8.43507 5.13326 8.43804 5.13709 8.44001 5.14159L8.64091 5.59561C8.64282 5.60016 8.64573 5.60406 8.64936 5.60692C8.65299 5.60978 8.65722 5.6115 8.66161 5.6119C8.666 5.61231 8.67041 5.61139 8.67439 5.60923C8.67837 5.60708 8.6818 5.60376 8.68431 5.59962L8.96781 5.15282C8.97001 5.14932 8.97287 5.14643 8.97618 5.14436C8.97948 5.14229 8.98315 5.1411 8.98691 5.14087C8.99067 5.14064 8.99443 5.14137 8.99791 5.14303C9.00139 5.14468 9.0045 5.1472 9.00701 5.15041L9.39691 5.62449C9.39981 5.62791 9.4034 5.63046 9.40736 5.63191C9.41133 5.63336 9.41554 5.63366 9.41963 5.63278C9.42372 5.63191 9.42756 5.62989 9.4308 5.6269C9.43404 5.62391 9.43659 5.62005 9.43821 5.61566L9.61181 5.13517C9.61358 5.13052 9.61638 5.12648 9.61994 5.12346C9.6235 5.12045 9.6277 5.11856 9.6321 5.11799C9.6365 5.11742 9.64095 5.11819 9.64501 5.12022C9.64907 5.12225 9.65259 5.12547 9.65521 5.12956L9.99051 5.64214C9.99312 5.64606 9.99655 5.64915 10.0005 5.65112C10.0044 5.65309 10.0088 5.65387 10.013 5.65339C10.0173 5.65291 10.0214 5.65118 10.0249 5.64836C10.0285 5.64555 10.0313 5.64175 10.0332 5.63732L10.2628 5.11352C10.2647 5.10896 10.2676 5.10506 10.2713 5.10221C10.2749 5.09935 10.2791 5.09763 10.2835 5.09722C10.2879 5.09682 10.2923 5.09774 10.2963 5.09989C10.3003 5.10205 10.3037 5.10536 10.3062 5.1095L10.6002 5.58037C10.6027 5.58439 10.6059 5.58764 10.6098 5.5898C10.6136 5.59197 10.6179 5.59297 10.6221 5.59273C10.6264 5.59249 10.6306 5.59101 10.6342 5.58843ZM8.49601 5.95417L8.71091 6.42905C8.72631 6.46327 8.74288 6.46381 8.76061 6.43065L9.00211 5.97503C9.00486 5.97001 9.00858 5.96578 9.01298 5.96268C9.01738 5.95958 9.02235 5.95768 9.0275 5.95714C9.03265 5.95659 9.03784 5.95742 9.04266 5.95955C9.04748 5.96168 9.05181 5.96505 9.05531 5.96941L9.44591 6.45632C9.44928 6.46053 9.45353 6.46368 9.45826 6.46549C9.46298 6.4673 9.46803 6.4677 9.47293 6.46665C9.47783 6.46561 9.48242 6.46316 9.48626 6.45953C9.49011 6.4559 9.49308 6.45121 9.49491 6.44589L9.66081 5.9638C9.66306 5.9574 9.66673 5.95179 9.67147 5.94753C9.6762 5.94327 9.68183 5.94052 9.68779 5.93954C9.69375 5.93857 9.69982 5.93941 9.70541 5.94197C9.711 5.94454 9.71589 5.94875 9.71961 5.95417L10.0115 6.39135C10.0297 6.41862 10.0465 6.41755 10.0619 6.38814L10.2985 5.94535C10.3018 5.9393 10.3064 5.9343 10.3119 5.93077C10.3173 5.92725 10.3234 5.92533 10.3296 5.92517C10.3359 5.92501 10.3421 5.92662 10.3476 5.92986C10.3532 5.9331 10.358 5.93787 10.3615 5.94375L10.6583 6.42985C10.6611 6.43428 10.6648 6.43787 10.669 6.44026C10.6733 6.44266 10.678 6.44379 10.6827 6.44355C10.6874 6.44331 10.6919 6.44171 10.6958 6.43889C10.6998 6.43607 10.703 6.43213 10.7052 6.42744L10.8949 6.03359C10.9108 6.00097 10.9301 5.99776 10.953 6.02396L11.1007 6.19322C11.1175 6.21193 11.1215 6.23386 11.1126 6.25899C11.0963 6.30552 11.0821 6.35196 11.0682 6.39712C10.9999 6.62057 10.9411 6.81278 10.6779 6.83013C9.56678 6.90285 8.42601 6.88494 7.25561 6.77638C7.24313 6.77513 7.23111 6.77038 7.22061 6.76255C7.21011 6.75471 7.20146 6.74404 7.19541 6.73146L7.07571 6.48279C7.06981 6.47053 7.06643 6.45686 7.06582 6.44283C7.06521 6.42879 7.0674 6.41475 7.07221 6.40178L7.20591 6.03599C7.21991 5.99749 7.23788 5.99455 7.25981 6.02717L7.55591 6.46515C7.57505 6.49349 7.59231 6.49188 7.60771 6.46033L7.82681 6.0015C7.82923 5.99614 7.83292 5.99168 7.83746 5.98862C7.84199 5.98555 7.84719 5.98402 7.85245 5.98419C7.85771 5.98435 7.86283 5.98622 7.86721 5.98956C7.87159 5.99291 7.87505 5.9976 7.87721 6.0031L8.06901 6.45873C8.0715 6.46427 8.0752 6.46897 8.07975 6.47239C8.0843 6.4758 8.08955 6.47781 8.09497 6.47821C8.1004 6.47862 8.10582 6.47741 8.11072 6.47469C8.11562 6.47198 8.11982 6.46786 8.12291 6.46274L8.42601 5.94936C8.42995 5.9426 8.43536 5.93714 8.44172 5.93352C8.44807 5.9299 8.45514 5.92825 8.46222 5.92874C8.4693 5.92923 8.47615 5.93183 8.48208 5.93629C8.488 5.94076 8.49281 5.94692 8.49601 5.95417ZM16 8.42961V8.47373C15.8661 8.59726 15.7142 8.67774 15.5443 8.71518C15.5212 8.71984 15.4972 8.71532 15.4764 8.70234C14.8147 8.28041 14.2586 7.96944 13.8083 7.76944C13.6326 7.69099 13.3919 8.16289 13.275 8.39218C13.2568 8.42782 13.2416 8.4576 13.2301 8.47854C13.2261 8.48568 13.2244 8.49419 13.2255 8.50254C13.2266 8.51089 13.2303 8.51852 13.236 8.52404C13.2416 8.52957 13.2489 8.53264 13.2564 8.53268C13.2639 8.53272 13.2712 8.52973 13.277 8.52427C13.294 8.50736 13.3145 8.48631 13.3378 8.4624L13.3379 8.46238L13.3379 8.46237C13.5181 8.27752 13.8647 7.92194 14.0358 7.99083C14.4815 8.17105 14.9092 8.39913 15.3189 8.67507C15.3265 8.68039 15.3327 8.68812 15.3366 8.69733C15.3406 8.70653 15.3421 8.71682 15.3411 8.72693C15.34 8.73704 15.3365 8.74655 15.3308 8.75429C15.3251 8.76203 15.3176 8.76767 15.3091 8.77053C15.1016 8.84392 14.8686 8.69637 14.6294 8.54493C14.3459 8.36537 14.0537 8.18035 13.7852 8.3518C13.701 8.40592 13.6465 8.49942 13.5908 8.59499L13.5908 8.59501L13.5908 8.59502L13.5908 8.59503L13.5908 8.59505L13.5908 8.59506C13.5631 8.64253 13.5352 8.69051 13.5031 8.73443C13.4872 8.75636 13.4669 8.76759 13.4422 8.76812C13.0026 8.78176 12.8157 8.70716 12.5938 8.26276C12.4195 7.91463 12.1766 8.13041 12.2354 8.44405C12.2401 8.46918 12.251 8.49004 12.2683 8.50662C12.609 8.82855 12.9916 9.05743 13.4163 9.19326C13.7259 9.29201 13.6957 9.55498 13.669 9.78784C13.6467 9.98248 13.6268 10.1561 13.8097 10.1952C13.8355 10.2004 13.862 10.1952 13.8846 10.1807C14.0969 10.0443 14.3247 9.98098 14.5678 9.9906C14.5801 9.9911 14.5918 9.99664 14.6008 10.0062C14.6098 10.0158 14.6155 10.0288 14.6168 10.0427C14.6302 10.1713 14.6258 10.2954 14.6215 10.4163C14.6126 10.6673 14.6042 10.9048 14.7568 11.1409C14.7633 11.1509 14.7671 11.1628 14.7676 11.1753C14.7681 11.1877 14.7653 11.2 14.7596 11.2107C14.7539 11.2214 14.7455 11.2299 14.7356 11.2352C14.7256 11.2405 14.7145 11.2423 14.7036 11.2404L14.2584 11.1561C14.2346 11.1519 14.2192 11.1363 14.2122 11.1096L14.0862 10.6387C14.0778 10.6083 14.0598 10.5917 14.0323 10.589C14.0179 10.5874 13.9972 10.5844 13.9722 10.5806C13.7784 10.5517 13.3199 10.4833 13.4135 10.7703L13.4292 10.8177C13.5335 11.1312 13.7641 11.8244 13.3358 11.8701C13.2014 11.884 12.9408 11.923 12.5539 11.9872C12.5306 11.9909 12.5238 12.0048 12.5336 12.0289C12.7065 12.4484 12.5168 12.7019 12.1927 12.9129C11.2344 13.5377 9.7952 14.145 8.6815 13.9693C7.68097 13.811 6.74343 13.434 5.8689 12.8383C5.58797 12.6468 5.50537 12.3816 5.6211 12.0425C5.6295 12.019 5.6225 12.0056 5.6001 12.0024C5.28977 11.9639 4.98037 11.9187 4.6719 11.8668C4.5088 11.8388 4.4003 11.7858 4.4164 11.5773C4.43787 11.2986 4.4899 11.0273 4.5725 10.7631C4.66498 10.4682 4.23391 10.5459 4.02319 10.5839C3.99944 10.5882 3.97849 10.5919 3.9614 10.5946C3.93667 10.5989 3.92057 10.6147 3.9131 10.642L3.7871 11.1112C3.78395 11.1232 3.77795 11.134 3.76977 11.1422C3.7616 11.1504 3.75159 11.1558 3.7409 11.1577L3.2789 11.2404C3.2467 11.2462 3.23363 11.231 3.2397 11.1946C3.24864 11.1349 3.27506 11.08 3.30015 11.0277C3.32025 10.9859 3.33948 10.9459 3.3482 10.9067C3.3852 10.745 3.37878 10.5994 3.37238 10.4543C3.36643 10.3194 3.36049 10.1848 3.3895 10.0379C3.39193 10.0257 3.39782 10.0147 3.40628 10.0066C3.41474 9.99847 3.42532 9.99371 3.4364 9.99301C3.64033 9.98018 3.834 10.0232 4.0174 10.1222C4.4255 10.3428 4.3632 9.86707 4.3072 9.60798C4.2666 9.42268 4.4192 9.25583 4.5788 9.20128C4.8343 9.11305 5.6456 8.73844 5.7506 8.44886C5.8038 8.30367 5.7464 8.07747 5.5784 8.08308C5.55227 8.08362 5.52987 8.09458 5.5112 8.11597C5.45142 8.18235 5.40616 8.26785 5.36168 8.35187C5.3051 8.45873 5.24979 8.56321 5.1675 8.62293C5.0345 8.71919 4.541 8.88042 4.4444 8.66946C4.26193 8.27212 3.99197 8.18228 3.6345 8.39993C3.36383 8.56464 3.078 8.70154 2.777 8.81063C2.75986 8.81641 2.74148 8.8149 2.72523 8.80639C2.70898 8.79788 2.69595 8.78294 2.68855 8.7643C2.68114 8.74567 2.67985 8.7246 2.68491 8.70497C2.68997 8.68534 2.70105 8.66845 2.7161 8.65742C3.06097 8.41678 3.4385 8.21009 3.8487 8.03736C4.13173 7.91854 4.36361 8.15506 4.57451 8.37018C4.62702 8.42373 4.67823 8.47597 4.7286 8.52106C4.73334 8.52552 4.7393 8.52792 4.74543 8.52782C4.75157 8.52772 4.75747 8.52512 4.76209 8.5205C4.76671 8.51588 4.76975 8.50953 4.77067 8.50258C4.77159 8.49563 4.77032 8.48853 4.7671 8.48255C4.75012 8.45024 4.73085 8.41048 4.7095 8.36642C4.58028 8.0998 4.37478 7.67579 4.1399 7.7935C3.59017 8.06944 3.05093 8.37239 2.5222 8.70234C2.50167 8.71518 2.47973 8.71892 2.4564 8.71357C2.28047 8.67133 2.12833 8.58951 2 8.46811V8.43763L2.01881 8.43732H2.01881C2.24868 8.43353 2.44549 8.43029 2.6622 8.30768C2.71592 8.27736 2.79747 8.22864 2.89752 8.16886L2.89759 8.16882C3.40904 7.86323 4.4039 7.26881 4.6369 7.36676C4.6607 7.37638 4.6768 7.39483 4.6852 7.42211C4.68918 7.43477 4.69399 7.45088 4.69959 7.46961C4.75211 7.6454 4.8736 8.05198 5.0191 8.00848C5.03071 8.00494 5.04151 7.99854 5.05073 7.98972C5.05996 7.98091 5.0674 7.96989 5.07254 7.95744C5.07767 7.94499 5.08037 7.93141 5.08045 7.91764C5.08053 7.90388 5.07799 7.89026 5.073 7.87773C4.9211 7.49831 4.7468 7.05632 5.0779 6.73626C5.4748 6.35203 6.011 6.8999 6.1874 7.31863C6.19067 7.32631 6.19206 7.33485 6.19144 7.34336C6.19082 7.35188 6.1882 7.36007 6.18385 7.36709C6.17951 7.37411 6.17359 7.37971 6.16671 7.38332C6.15983 7.38692 6.15223 7.38841 6.1447 7.38761C6.00517 7.3705 5.8773 7.40553 5.7611 7.4927C5.75393 7.49803 5.74815 7.50547 5.74436 7.51424C5.74057 7.52302 5.7389 7.5328 5.73955 7.54256C5.74019 7.55233 5.74312 7.56171 5.74802 7.56973C5.75292 7.57776 5.75961 7.58412 5.7674 7.58815L5.7692 7.58909C6.15529 7.79071 6.40849 7.92293 6.7894 7.58735C6.80636 7.57248 6.82593 7.56201 6.84677 7.55664C6.86761 7.55127 6.88923 7.55113 6.91016 7.55623C6.9311 7.56133 6.95084 7.57156 6.96805 7.5862C6.98527 7.60085 6.99954 7.61957 7.0099 7.64109C7.1513 7.9395 7.2822 8.86278 6.7537 8.74406C6.74272 8.74154 6.73242 8.73608 6.72365 8.72811C6.71489 8.72015 6.70791 8.70993 6.70332 8.6983C6.69872 8.68667 6.69664 8.67397 6.69725 8.66128C6.69785 8.64858 6.70113 8.63626 6.7068 8.62534L6.872 8.30287C6.88507 8.2772 6.88553 8.25153 6.8734 8.22586L6.8545 8.18495C6.8504 8.17621 6.84432 8.1689 6.83691 8.16377C6.8295 8.15865 6.82102 8.1559 6.81236 8.15582C6.8037 8.15573 6.79518 8.15832 6.78769 8.16331C6.78021 8.16829 6.77403 8.17549 6.7698 8.18415C6.53367 8.68095 6.1951 9.0569 5.7541 9.31198C5.7438 9.31803 5.7354 9.32768 5.73013 9.33953C5.72486 9.35137 5.72299 9.3648 5.72478 9.37785C5.72657 9.39091 5.73195 9.40291 5.74011 9.41213C5.74828 9.42134 5.75882 9.42729 5.7702 9.4291C5.9718 9.46279 6.424 9.54701 6.2966 9.90477C6.1692 10.2604 6.04273 10.6139 5.9172 10.9652C5.90815 10.9908 5.90397 11.0183 5.90493 11.0459C5.9059 11.0735 5.91198 11.1005 5.92278 11.1252C5.93357 11.1498 5.94884 11.1716 5.96755 11.189C5.98627 11.2063 6.008 11.2189 6.0313 11.2259C6.34 11.319 6.2686 11.6639 6.0796 11.8644C6.0614 11.8837 6.06443 11.8963 6.0887 11.9021C6.99823 12.116 7.9052 12.5425 8.8096 13.1816C9.0056 13.3195 9.252 13.2465 9.4564 13.1022C10.2278 12.5562 11.0573 12.1687 11.9449 11.9398C11.9799 11.9307 11.9834 11.9134 11.9554 11.8877C11.6024 11.5645 11.7533 11.4185 11.9054 11.2715C12.0084 11.1718 12.112 11.0717 12.0597 10.9155C11.951 10.5909 11.838 10.2681 11.7209 9.94729C11.5866 9.57983 11.8943 9.50348 12.1327 9.4443C12.1727 9.43437 12.2108 9.42492 12.2445 9.41466C12.2515 9.41238 12.2577 9.40788 12.2626 9.40171C12.2674 9.39553 12.2706 9.38793 12.2718 9.37982C12.2729 9.3717 12.2721 9.36341 12.2692 9.35594C12.2664 9.34846 12.2617 9.34211 12.2557 9.33765C11.8322 9.01599 11.485 8.74325 11.2442 8.20902C11.2395 8.19859 11.2328 8.18957 11.2246 8.18267C11.2163 8.17578 11.2067 8.17121 11.1967 8.16933C11.1866 8.16746 11.1762 8.16833 11.1665 8.17188C11.1568 8.17543 11.1479 8.18156 11.1406 8.18977C11.0771 8.26178 11.2147 8.48614 11.278 8.58931C11.2873 8.60451 11.295 8.61708 11.3002 8.62614C11.3073 8.63832 11.3114 8.65243 11.3122 8.66703C11.3129 8.68164 11.3103 8.69621 11.3045 8.70927C11.2988 8.72232 11.2901 8.73339 11.2793 8.74133C11.2686 8.74927 11.2563 8.75381 11.2435 8.75448C10.7122 8.78256 10.8284 7.96196 10.9943 7.63949C11.004 7.62046 11.017 7.60387 11.0324 7.59072C11.0478 7.57757 11.0654 7.56812 11.0841 7.56295C11.1028 7.55778 11.1222 7.557 11.1412 7.56064C11.1602 7.56428 11.1783 7.57227 11.1945 7.58414C11.5963 7.87853 11.8693 7.84564 12.2571 7.55366C12.2818 7.53494 12.2814 7.51676 12.2557 7.49911C12.132 7.41194 11.9972 7.37398 11.8511 7.38521C11.8245 7.38735 11.8156 7.37424 11.8245 7.3459C12.1913 6.17155 13.6144 6.54776 12.9438 7.80233C12.9352 7.81846 12.9297 7.83647 12.9276 7.85514C12.9256 7.87382 12.927 7.89273 12.9319 7.91062C13.0353 8.30112 13.2516 7.6121 13.2737 7.5417L13.2742 7.54002C13.3365 7.3443 13.459 7.27611 13.6228 7.36034C13.9509 7.52933 14.5638 7.87078 15.4617 8.38469C15.5364 8.42747 15.7158 8.44245 16 8.42961ZM5.3558 6.94563C5.115 6.91996 5.1409 7.46863 5.1752 7.60981C5.19013 7.67077 5.20087 7.66997 5.2074 7.6074L5.2403 7.30339C5.24196 7.28913 5.24729 7.27573 5.25564 7.26489C5.26398 7.25404 5.27496 7.24623 5.2872 7.24242C5.3516 7.22264 5.40013 7.18253 5.4328 7.1221C5.44178 7.10527 5.44688 7.08609 5.44762 7.06637C5.44835 7.04666 5.44469 7.02705 5.43699 7.0094C5.42929 6.99175 5.4178 6.97664 5.40359 6.96548C5.38939 6.95432 5.37294 6.94749 5.3558 6.94563ZM12.6813 6.95686C12.663 6.94993 12.6431 6.95028 12.6249 6.95785C12.6068 6.96541 12.5914 6.97975 12.5812 6.99857C12.5238 7.10205 12.5798 7.15258 12.6582 7.20953C12.7621 7.28392 12.7719 7.41954 12.7786 7.51057C12.782 7.55697 12.7845 7.59178 12.7982 7.60099C12.8108 7.60954 12.8187 7.60553 12.822 7.58895C12.8689 7.36355 12.878 7.02825 12.6813 6.95686ZM5.7233 11.2532C5.70276 11.2389 5.68728 11.2167 5.6796 11.1906C5.67192 11.1645 5.67252 11.1361 5.6813 11.1104L5.9564 10.3115C5.9613 10.2978 5.96197 10.2827 5.95829 10.2685C5.95461 10.2544 5.9468 10.2422 5.93614 10.2338C5.92548 10.2254 5.91261 10.2214 5.89963 10.2224C5.88665 10.2234 5.87433 10.2293 5.8647 10.2393C5.79747 10.3079 5.75508 10.466 5.70954 10.6359C5.64697 10.8693 5.57846 11.1249 5.4314 11.2011C5.32899 11.2544 5.15303 11.2501 4.9885 11.2462C4.89324 11.2439 4.8018 11.2417 4.7307 11.2508C4.71817 11.2523 4.70648 11.2588 4.69757 11.269C4.68866 11.2792 4.68306 11.2926 4.6817 11.3069L4.653 11.6021C4.64973 11.6353 4.66257 11.6551 4.6915 11.6615C5.0226 11.7345 5.9417 11.9094 5.9319 11.5364C5.9284 11.4088 5.8108 11.3134 5.7233 11.2532ZM12.2557 11.2684C12.1703 11.3166 12.1073 11.3885 12.0667 11.4842C12.0564 11.5088 12.055 11.5339 12.0625 11.5596C12.1634 11.908 13.0276 11.7279 13.2952 11.6721L13.3001 11.6711C13.3216 11.6668 13.3339 11.6524 13.3372 11.6278C13.3535 11.5075 13.3398 11.3944 13.2959 11.2885C13.2902 11.2749 13.2813 11.2634 13.2703 11.2552C13.2594 11.247 13.2466 11.2424 13.2336 11.242L12.5798 11.2219C12.5555 11.2208 12.5366 11.2088 12.5231 11.1858C12.3677 10.9243 12.2536 10.6403 12.1808 10.3339C12.1696 10.2858 12.1521 10.2524 12.1283 10.2337C12.118 10.2258 12.1057 10.2219 12.0933 10.2226C12.081 10.2233 12.0691 10.2285 12.0595 10.2374C12.0499 10.2464 12.043 10.2586 12.0399 10.2724C12.0368 10.2862 12.0376 10.3007 12.0422 10.3139L12.3145 11.096C12.3255 11.128 12.3255 11.1637 12.3146 11.1956C12.3037 11.2276 12.2827 11.2536 12.2557 11.2684ZM5.40174 10.7903C5.45613 10.7913 5.50869 10.7633 5.54785 10.7126C5.58701 10.6618 5.60958 10.5925 5.61057 10.5197C5.61157 10.447 5.59092 10.3768 5.55317 10.3247C5.51541 10.2725 5.46365 10.2427 5.40926 10.2417C5.35487 10.2407 5.30231 10.2687 5.26315 10.3194C5.22399 10.3702 5.20142 10.4396 5.20043 10.5123C5.19943 10.5851 5.22008 10.6552 5.25783 10.7074C5.29559 10.7595 5.34735 10.7893 5.40174 10.7903ZM12.5932 10.7904C12.6202 10.7905 12.6469 10.7836 12.6718 10.7699C12.6968 10.7563 12.7195 10.7362 12.7386 10.7109C12.7578 10.6855 12.7731 10.6554 12.7835 10.6221C12.794 10.5889 12.7994 10.5533 12.7996 10.5172C12.7998 10.4812 12.7946 10.4455 12.7845 10.4122C12.7743 10.3788 12.7593 10.3485 12.7404 10.3229C12.7215 10.2973 12.699 10.277 12.6741 10.263C12.6493 10.2491 12.6227 10.2418 12.5958 10.2417C12.5688 10.2415 12.5421 10.2485 12.5172 10.2621C12.4922 10.2757 12.4695 10.2958 12.4504 10.3212C12.4312 10.3465 12.4159 10.3767 12.4055 10.4099C12.395 10.4431 12.3896 10.4788 12.3894 10.5148C12.3892 10.5508 12.3944 10.5865 12.4045 10.6199C12.4147 10.6532 12.4297 10.6835 12.4486 10.7091C12.4675 10.7347 12.49 10.7551 12.5149 10.769C12.5397 10.7829 12.5663 10.7902 12.5932 10.7904ZM9.0553 13.4302C8.9405 13.4014 8.8166 13.3613 8.7109 13.2923C7.8541 12.7356 7.0428 12.2952 6.0768 12.0666C5.5819 11.9495 5.661 12.4725 5.9774 12.6923C6.8048 13.2682 7.69193 13.6348 8.6388 13.792C8.92673 13.8396 9.21467 13.8407 9.5026 13.7952C10.4691 13.6417 11.3702 13.2693 12.206 12.6778C12.6113 12.3906 12.4986 11.9487 11.9792 12.0834C11.0608 12.3217 10.2971 12.7556 9.3955 13.3244C9.34061 13.3587 9.26829 13.3812 9.20035 13.4023C9.17298 13.4108 9.14632 13.4191 9.1218 13.4278C9.09987 13.4353 9.0777 13.4361 9.0553 13.4302ZM10.7801 7.57719C10.7759 7.43226 10.7253 7.32691 10.6282 7.26114C10.5862 7.23226 10.5409 7.21782 10.4924 7.21782C9.54179 7.21194 8.58209 7.21327 7.61329 7.22183C7.33329 7.22424 7.20939 7.30445 7.20519 7.65098C7.19399 8.63015 7.19796 9.60958 7.21709 10.5893C7.23949 11.7291 8.20759 12.5874 9.08889 12.8361C9.16029 12.8559 9.22913 12.8524 9.29539 12.8257C10.1172 12.4888 10.6464 11.6273 10.7724 10.6639C10.863 9.96614 10.8261 8.90905 10.7947 8.01109V8.01107V8.01106L10.7947 8.01083C10.7895 7.86105 10.7844 7.7157 10.7801 7.57719ZM7.56499 7.38066C8.53753 7.36782 9.51006 7.37076 10.4826 7.38948C10.6135 7.39189 10.6877 7.47772 10.6842 7.62211C10.6646 8.38843 10.6613 9.15556 10.6744 9.92349C10.6819 10.3652 10.6599 10.6965 10.6086 10.9174C10.4238 11.7083 9.96249 12.3917 9.27369 12.6717C9.19529 12.7038 9.15399 12.6933 9.07839 12.6709C8.30186 12.4431 7.75026 11.9192 7.42359 11.0994C7.36059 10.9406 7.32209 10.7345 7.32209 10.5596C7.31929 9.59541 7.31883 8.63095 7.32069 7.66622C7.32139 7.43841 7.37109 7.38306 7.56499 7.38066ZM10.3279 7.57853C10.3632 7.57913 10.397 7.5953 10.4221 7.62369C10.4473 7.65208 10.4619 7.69049 10.463 7.73094C10.4873 8.55502 10.4943 9.38551 10.484 10.2224C10.4721 11.2283 10.0374 12.1669 9.1939 12.5238C9.17104 12.5334 9.1477 12.535 9.1239 12.5286C8.5891 12.3874 8.15557 12.0409 7.8233 11.489C7.5699 11.0679 7.5167 10.7984 7.5139 10.2513C7.5083 8.98711 7.50854 8.1633 7.5146 7.77987C7.51694 7.66115 7.5762 7.59992 7.6924 7.59617C8.57674 7.57104 9.45524 7.56516 10.3279 7.57853ZM10.2943 7.76864L7.6945 7.77104C7.6651 7.77104 7.65064 7.78762 7.6511 7.82078C7.65297 8.67374 7.6581 9.52776 7.6665 10.3829C7.6756 11.347 8.3189 12.0778 9.1022 12.3241C9.14819 12.3385 9.19726 12.3331 9.2401 12.3088C9.7301 12.034 10.0586 11.6126 10.2257 11.0446C10.2934 10.8142 10.3281 10.4732 10.33 10.0219C10.3328 9.28605 10.3321 8.5478 10.3279 7.80714C10.3279 7.78147 10.3167 7.76864 10.2943 7.76864ZM8.7165 8.54811H9.4347C9.45477 8.54811 9.46667 8.55934 9.4704 8.5818C9.5572 9.16897 10.1284 8.8064 10.1032 8.30265C10.1025 8.28989 10.099 8.27757 10.093 8.26688C10.087 8.2562 10.0787 8.24751 10.0689 8.24168C10.0046 8.2017 9.94029 8.21175 9.88206 8.22084C9.85851 8.22452 9.83596 8.22805 9.8148 8.22805C9.76215 8.22789 9.66756 8.22505 9.548 8.22146C9.04443 8.20634 8.09806 8.17792 7.9787 8.28099C7.9087 8.34195 7.89307 8.43126 7.9318 8.54891L8.7886 11.1431C8.81067 11.2088 8.81968 11.2808 8.82892 11.3547C8.8402 11.4448 8.85184 11.5378 8.888 11.626C8.8933 11.6386 8.90194 11.649 8.91273 11.6558C8.92352 11.6625 8.93592 11.6653 8.9482 11.6637L9.4564 11.5971C9.47455 11.5947 9.49198 11.5876 9.50729 11.5762C9.52261 11.5647 9.53539 11.5494 9.54463 11.5313C9.55387 11.5133 9.55931 11.493 9.56052 11.4721C9.56173 11.4512 9.55867 11.4303 9.5516 11.411L8.986 9.86685C8.97667 9.84118 8.98157 9.82006 9.0007 9.80348C9.1771 9.65348 9.3465 9.6615 9.518 9.8099C9.5558 9.84252 9.5992 9.85589 9.6482 9.85C9.67433 9.8468 9.6944 9.83236 9.7084 9.80669C9.777 9.68155 9.8099 9.54331 9.8071 9.39197C9.80663 9.36761 9.80135 9.34369 9.79166 9.32201C9.78197 9.30032 9.76811 9.28144 9.75114 9.26677C9.73416 9.2521 9.7145 9.24203 9.69364 9.23732C9.67278 9.23261 9.65126 9.23338 9.6307 9.23956L8.9909 9.43449C8.9548 9.44552 8.91641 9.44069 8.88325 9.42095C8.8501 9.40121 8.82458 9.36799 8.8117 9.3278L8.6157 8.71335C8.60971 8.69477 8.60774 8.6748 8.60995 8.65515C8.61216 8.6355 8.61848 8.61676 8.62839 8.60052C8.63829 8.58428 8.65148 8.57104 8.66682 8.56191C8.68217 8.55278 8.69921 8.54805 8.7165 8.54811ZM3.687 8.82907C3.51666 8.92426 3.3384 8.93656 3.1522 8.86597C3.14385 8.86266 3.13646 8.85674 3.13089 8.84888C3.12531 8.84103 3.12176 8.83156 3.12067 8.82158C3.11957 8.8116 3.12096 8.80151 3.12468 8.79248C3.1284 8.78344 3.1343 8.77583 3.1417 8.77052C3.75113 8.32713 3.86045 8.4547 4.27331 8.93645C4.29815 8.96544 4.32409 8.9957 4.3513 9.02721C4.3574 9.03423 4.36203 9.04266 4.36482 9.05184C4.36762 9.06102 4.3685 9.07071 4.3674 9.08015C4.35398 9.20313 3.87767 9.14173 3.70673 9.11969L3.6667 9.11464C3.65771 9.1136 3.6491 9.10991 3.64172 9.10394C3.63433 9.09797 3.62842 9.08992 3.62455 9.08056C3.62067 9.0712 3.61898 9.06086 3.61962 9.05053C3.62025 9.0402 3.62321 9.03023 3.6282 9.02159L3.7164 8.86678C3.71893 8.86193 3.72005 8.85628 3.71959 8.85066C3.71912 8.84504 3.7171 8.83973 3.71381 8.83552C3.71053 8.8313 3.70616 8.82841 3.70133 8.82725C3.6965 8.82609 3.69148 8.82673 3.687 8.82907ZM14.3093 8.83355C14.3176 8.83156 14.3262 8.83302 14.3333 8.83762C14.5022 8.92479 14.6772 8.93307 14.8583 8.86248C14.8657 8.85975 14.8723 8.85461 14.8773 8.84769C14.8822 8.84077 14.8853 8.83237 14.8862 8.82348C14.8871 8.81459 14.8857 8.8056 14.8823 8.79758C14.8788 8.78956 14.8734 8.78285 14.8667 8.77826C14.2322 8.33218 14.1288 8.45599 13.7127 8.95391C13.6881 8.98337 13.6624 9.01414 13.6354 9.04618C13.6274 9.05566 13.622 9.06769 13.6201 9.0807C13.6181 9.09371 13.6196 9.10711 13.6243 9.11914C13.6291 9.13117 13.6369 9.14128 13.6467 9.14815C13.6566 9.15503 13.668 9.15835 13.6795 9.15768L14.3221 9.12158C14.3604 9.11944 14.3772 9.09671 14.3725 9.0534C14.365 8.98976 14.3394 8.93709 14.2955 8.89537C14.2888 8.89016 14.2844 8.88234 14.2831 8.87356C14.2818 8.86478 14.2838 8.85571 14.2887 8.84826C14.2936 8.8408 14.301 8.83553 14.3093 8.83355Z" fill="#101923"/>
</svg>
