<!-- by TradingView --><svg width="18" height="18" viewBox="0 0 18 18" xmlns="http://www.w3.org/2000/svg"><path fill="#F0F3FA" d="M0 0h18v18H0z"/><path d="M16 8.56 12.52 7c-.39 1.97-2.14 2.75-3.57 2.75A4.06 4.06 0 0 1 7 9.4c.52.6 1.95 1.6 4.55 1.6 3.01 0 4.22-1.63 4.45-2.44ZM6.45 7A5.3 5.3 0 0 0 2 9.29l.76.37c.32-2 2.9-2.53 3.63-2.53.59 0 1.36.12 1.7.16A6.23 6.23 0 0 0 6.46 7Z" fill="#C29E6F"/><path d="m3.65 10.14-.78-.37a5.7 5.7 0 0 1 4.73-2.2c.73 0 1.41.2 1.66.29-.4-.06-1.27-.2-1.66-.2-2.74 0-3.78 1.66-3.95 2.48Z" fill="#C29E6F"/><path d="M8.4 7.99c-2.47 0-4 1.45-4.46 2.2l.76.38c.2-1.92 2.84-2.43 3.7-2.43.68 0 1.28.11 1.58.15-.36-.09-1.03-.3-1.59-.3Z" fill="#C29E6F"/><path d="M9.3 8.43a5.5 5.5 0 0 0-4.4 2.23l.73.34C5.8 9.05 8.58 8.58 9.3 8.58c.58 0 1.38.09 1.7.13a5.7 5.7 0 0 0-1.7-.28Z" fill="#C29E6F"/></svg>