<!-- by TradingView --><svg width="18" height="18" viewBox="0 0 18 18" xmlns="http://www.w3.org/2000/svg"><path fill="#F0F3FA" d="M0 0h18v18H0z"/><path fill-rule="evenodd" d="M9 13c3.31 0 6-1.8 6-4s-2.69-4-6-4-6 1.8-6 4 2.69 4 6 4ZM7.5 5.92v.75c-.43.05-.82.12-1.08.18l.06.3c.25-.05.61-.12 1.02-.17v1.16l-1.2-.06v.14c.53.05.88.32 1.13.52l.07.05v2.67h.3l.06-.06a1.68 1.68 0 0 0 .54-1.17c0-.32-.04-.82-.33-1.26a1.7 1.7 0 0 0-.27-.32v-.18l1.2.06.03.18.07.17c.03.05.1.12.2.12a.2.2 0 0 0 .11-.03.33.33 0 0 0 .06-.06.88.88 0 0 0 .1-.13l.12-.2.06-.12c.06-.11.13-.22.2-.3a.35.35 0 0 1 .08-.08l.03.08c.03.08.05.19.07.3l.02.1c.02.16.06.33.12.47.07.14.18.28.38.28a.5.5 0 0 0 .26-.08l.13-.1c.09.1.2.18.36.18.58 0 .84-.5.9-.73a.15.15 0 0 0-.11-.2.15.15 0 0 0-.19.12c-.04.18-.22.5-.6.5-.05 0-.1-.03-.15-.1.1-.12.18-.25.25-.39.1-.19.17-.4.19-.57 0-.1 0-.19-.04-.27a.34.34 0 0 0-.2-.2.31.31 0 0 0-.29.04.55.55 0 0 0-.17.21c-.08.16-.12.38-.13.6-.01.17 0 .35.05.51a.8.8 0 0 1-.16.13.21.21 0 0 1-.1.04c-.03 0-.06-.01-.1-.1a1.7 1.7 0 0 1-.1-.39l-.02-.09-.08-.35a.6.6 0 0 0-.09-.19.26.26 0 0 0-.21-.11c-.15 0-.26.1-.34.2a2.36 2.36 0 0 0-.29.46l-.1.18a1.3 1.3 0 0 1-.02-.23v-.3a.15.15 0 0 0-.15-.16.15.15 0 0 0-.15.16v.14l-1.2-.06V7.08a2 2 0 0 0 .9.23c.52 0 .92-.33 1.05-.46l-.1-.15a5.37 5.37 0 0 0-1.85-.07v-.7h-.3ZM8.7 7a1.6 1.6 0 0 1-.5-.09c.34-.02.68-.02.97.01A1.4 1.4 0 0 1 8.7 7Zm-.9 4.03V9.11l.03.03c.23.37.27.8.27 1.1 0 .2-.09.43-.2.64l-.1.15Zm3.43-2.66-.07.13v-.17c0-.18.04-.36.1-.47a.25.25 0 0 1 .07-.1h.02c.02 0 .02.01.03.03v.12c0 .12-.06.29-.15.46Zm1.23 1.86c.09 0 .15-.08.14-.17a.15.15 0 0 0-.16-.14c-2.43.25-3.91 1.35-4.34 1.85l.1.15c.36-.42 1.9-1.45 4.26-1.69Z" fill="#85C226"/></svg>