<!-- by TradingView --><svg width="18" height="18" viewBox="0 0 18 18" xmlns="http://www.w3.org/2000/svg"><path fill="#F0F3FA" d="M0 0h18v18H0z"/><path d="M8 13.4a4.45 4.45 0 0 1-2.67-6.98 4.55 4.55 0 0 1 4.68-1.81 4.46 4.46 0 0 1 2.66 6.97 4.55 4.55 0 0 1-4.68 1.81Zm.33-7.32c.07.23.4 1.55.56 1.62a.03.03 0 0 0 .03 0 .03.03 0 0 0 .01-.02V4.7c0-.03-.02-.04-.04-.04l-.78.09a4.28 4.28 0 0 0-1.46.68.06.06 0 0 0 .01.04l1.67 2.24c.06.08.13.12.2.1h.04v-.04a.42.42 0 0 0-.02-.22 8.27 8.27 0 0 1-.37-1.44c0-.03 0-.05.04-.06l.06-.01c.03 0 .05 0 .05.03Zm1.7.05a.06.06 0 0 1 .04.03.05.05 0 0 1 0 .05L9.59 7.7a.1.1 0 0 0 .04.12c.17.14.35-.22.43-.32.48-.68.97-1.34 1.49-1.99l-.01-.04a3.94 3.94 0 0 0-2.29-.8c-.04 0-.07.02-.07.07a35.68 35.68 0 0 0 0 2.94c.27.2.32-.38.37-.5a33.52 33.52 0 0 0 .39-1.05h.1ZM7.9 8.25a699.12 699.12 0 0 1-1.35-.97.06.06 0 0 1 .02-.07.2.2 0 0 1 .18 0 32.8 32.8 0 0 1 1.36.9.1.1 0 0 0 .1-.04.1.1 0 0 0 .02-.04c.03-.13-1.52-2.11-1.73-2.39a.1.1 0 0 0-.06-.04.1.1 0 0 0-.08.03 4.3 4.3 0 0 0-1.4 1.96c-.02.04 0 .06.04.08.74.22 1.5.44 2.26.63.17.04.33.1.5.17a.15.15 0 0 0 .16-.02c.08-.07.07-.13-.02-.2Zm3.58-.97a.05.05 0 0 1 .04.03.05.05 0 0 1-.01.06c-.05.05-.1.1-.18.15-.36.25-.72.5-1.09.73-.07.05-.1.11-.08.2a.1.1 0 0 0 .08.07.1.1 0 0 0 .04 0l2.8-.83c.02 0 .03-.02.03-.05a4.27 4.27 0 0 0-1.27-1.96c-.05-.04-.1-.04-.14 0l-.13.15a195.58 195.58 0 0 0-1.64 2.23c0 .03 0 .05.02.06a.1.1 0 0 0 .13.01c.2-.13 1.2-.87 1.4-.85Zm-3.7 1.38a3.82 3.82 0 0 1-.57-.11c-.75-.23-1.52-.43-2.28-.64a.09.09 0 0 0-.1.06c-.13.45-.17.9-.12 1.36 0 .02.02.03.04.02a4.14 4.14 0 0 1 2.62-.64 2.56 2.56 0 0 0 .43-.03v-.01h-.01Zm3.47.05c.19.01.38 0 .56.04.5.12.98.32 1.42.6.05.03.07.02.07-.03a6.56 6.56 0 0 0-.08-1.36.07.07 0 0 0-.05-.03h-.04l-2.64.74a.02.02 0 0 0 0 .03l.76.01Zm-1.35.05a.86.86 0 0 0-1.05-.69c-.3.07-.67.4-.63.71 0 .02 0 .03.02.05l.04.02c.46.05 1.14.16 1.57 0 .04-.02.06-.05.05-.1Zm3.21 1.12a3.46 3.46 0 0 0-2.81-.6c-.79.14-1.54.13-2.33.02a9.7 9.7 0 0 0-.9-.1c-.8 0-1.59.16-2.22.66a.04.04 0 0 0-.01.05l.03.18c0 .03.02.04.05.02a3.78 3.78 0 0 1 3.17-.51c.4.1 1.04.14 1.5.05 1.17-.22 2-.37 2.97.18a20.75 20.75 0 0 0 .55.3.09.09 0 0 0 .07-.03l.01-.03c.04-.12 0-.13-.08-.19Zm-4.24.27c-.29 0-.63-.05-1.02-.12a3.56 3.56 0 0 0-2.7.5.42.42 0 0 0-.13.12.04.04 0 0 0 0 .05l.07.1a.11.11 0 0 0 .16.02 3.1 3.1 0 0 1 2.35-.54c.75.12 1.38.23 2.2.11.27-.04.56-.13.84-.18.82-.14 1.56.22 2.18.68a.05.05 0 0 0 .03.01h.02l.01-.02.1-.15v-.03l-.01-.02c-.97-.8-1.85-.92-3.06-.6-.19.06-.53.08-1.04.07Zm1.58.53c-.82.22-1.7.25-2.54.07l-.24-.03c-.8-.22-1.63.1-2.28.58a.04.04 0 0 0 0 .05c.04.09.11.15.2.18h.07c.7-.46 1.3-.7 2.18-.52.13.03.28.02.42.06.39.12 1.04.12 1.26.08.48-.08 1.05-.24 1.49-.21.53.03.88.26 1.36.57.02.02.04.02.06.02.1-.02.16-.08.18-.17 0-.02 0-.04-.02-.05-.53-.44-1.44-.82-2.14-.63Zm-.42.83c-.6.18-1.23.19-1.8.05-.77-.2-1.72-.23-2.3.38l-.02.02v.02c.05.09.13.15.22.18.02 0 .04 0 .06-.02.55-.47 1.22-.46 1.89-.3a4.2 4.2 0 0 0 1.83.02c.42-.08.77-.22 1.14-.13.28.07.54.2.77.38.11.1.23-.03.28-.12v-.05a1.8 1.8 0 0 0-1.55-.5c-.26.02-.43.05-.52.07Zm-1.16.94c-.7-.03-1.75-.46-2.32 0v.05c.04.05.09.1.14.13a4.3 4.3 0 0 0 4.81-.15.04.04 0 0 0 0-.04h-.01c-.33-.22-.73-.37-1.13-.21-.43.16-.93.24-1.49.22Z" fill="#004401"/><path opacity=".7" fill-rule="evenodd" d="M9 13.97A4.95 4.95 0 0 0 13.92 9c0-2.8-2.26-4.97-4.92-4.97A4.95 4.95 0 0 0 4.08 9c0 2.8 2.26 4.97 4.92 4.97ZM9 15A6 6 0 1 0 9 3a6 6 0 0 0 0 12Z" fill="#979797"/></svg>