<!-- by TradingView --><svg width="56" height="56" viewBox="0 0 56 56" fill="none" xmlns="http://www.w3.org/2000/svg">
<rect width="56" height="56" fill="#F0F3FA"/>
<path fill-rule="evenodd" clip-rule="evenodd" d="M29.8981 12.2435C29.7076 12.314 29.5015 12.3525 29.2863 12.3525C28.3151 12.3525 27.5277 11.568 27.5277 10.6002C27.5277 9.88715 27.9552 9.27356 28.5688 9C27.6106 9.06881 26.8547 9.86514 26.8547 10.8374C26.8547 11.092 26.9065 11.3345 27.0003 11.5551C26.2276 12.741 25.1729 14.8299 25.1729 16.7558C25.1729 20.2323 27.5832 23.3657 28.7884 24.4979C25.1968 27.5046 24.6694 30.7521 24.8546 32H43V31H42.9966V24.8441H42.8701C42.5666 25.4787 41.7473 25.7447 41.3756 25.7984V26H42V31H39.9945V25H39.868C39.5686 25.6262 38.7669 25.7417 38.3885 25.7962L38.3735 25.7984V26.0283H39V31H37V25H36.9054C36.6278 25.6015 35.9188 25.6973 35.5153 25.7518C35.4776 25.7569 35.4426 25.7616 35.4109 25.7664V26.0047H36V31H33.4698C33.5037 28.5074 31.7514 25.5574 30.871 24.4979C31.4849 23.6343 32.7128 21.4813 32.7128 19.7776C32.7128 17.222 31.3123 14.9907 30.612 14.1945C30.9382 14.9715 31.5905 16.9458 31.5905 18.6265C31.5905 21.2741 30.4777 22.8378 29.9213 23.2887C28.7222 22.032 26.3241 18.874 26.3241 16.2954C26.3241 14.3927 26.7827 12.8409 27.1924 11.8991C27.5272 12.3713 28.0792 12.6796 28.7036 12.6796C29.159 12.6796 29.5759 12.5156 29.8981 12.2435ZM29.7436 25.7274C27.7788 27.0837 26.4616 29.8915 26.0487 31H32.3735C31.5001 27.8907 30.332 26.4719 29.9069 25.9557L29.9069 25.9556C29.8031 25.8295 29.7436 25.7573 29.7436 25.7274ZM9.53857 29.1199C9.53857 30.4538 9.68057 31.5958 9.75156 32H23.582C24.24 28.8363 22.6124 27.2763 21.7163 26.8918C23.8808 26.6885 24.8466 25.1232 25 24.3659V21.6734C25 21.3184 24.588 21 24.2252 21H21.6987C21.336 21 21 21.3184 21 21.6734V23.9882C21 24.3432 21.336 24.631 21.6987 24.631H23.7555C22.5348 25.2785 18.446 26.2033 16.5541 26.5847C17.2386 26.6685 18.9242 26.9922 20.1905 27.6174C21.799 28.4212 22.2392 30.2836 22.2582 31H11.1638C11.0953 30.4195 11.0656 29.4285 11.0593 29.1199C11.0593 24.1858 15.8312 20.7303 20.0369 18.3822C23.4015 16.5037 23.9911 14.0114 23.8652 13C23.7729 15.2771 20.9483 16.8114 18.0082 18.4085C16.6559 19.1431 15.2793 19.8909 14.1327 20.7303C10.2633 23.5633 9.53857 27.4524 9.53857 29.1199ZM32.4931 13C32.4239 13.6078 32.6669 15.2028 34.1931 16.7205C35.2271 17.7487 36.5717 18.5712 37.9926 19.4404L37.9926 19.4404L37.9926 19.4404L37.9926 19.4404C39.1933 20.175 40.4484 20.9427 41.6163 21.896C44.1663 23.9772 46.064 27.1317 45.373 32H46.7772C46.8515 31.377 47.0001 29.8093 47.0001 28.5227C47.0001 26.9144 46.1086 23.2849 42.4755 20.7421C41.3541 19.9572 40.1121 19.339 38.8881 18.7299C36.1471 17.3656 33.4966 16.0465 32.4931 13ZM9 35H11.5302L11 35.2706V38H20.4227V35.2706L19.9835 35H22.4477L22 35.2706V39H9.41934V35.2706L9 35ZM14 35.5H15.5V37H14V35.5ZM26 39.5H24.5V41H26V39.5ZM16 35.5H17.5V37H16V35.5ZM28 39.5H26.5V41H28V39.5ZM22.4478 33H24.978L24.5887 33.3062V38H28.2811V35.2331L27.8502 35H30.3914L30 35.2331V38H34V33.3062L33.4313 33H35.8955L35.5783 33.3062V39H30H28.2811H23V33.3062L22.4478 33ZM36.4513 39V33.255L36.0895 33H38.5806L38 33.255V38H41V35H47V39H36.4513ZM43 36H45V38H43V36Z" fill="#87BE3F"/>
</svg>
