<!-- by TradingView --><svg width="56" height="56" viewBox="0 0 56 56" xmlns="http://www.w3.org/2000/svg"><path fill="#F0F3FA" d="M0 0h56v56H0z"/><path fill-rule="evenodd" d="M14 36h-1v-8.97L14.94 13h4.47l1.47 10h2.73l1.74-10h4.4l2.07 10h3.44l1.07-10h4.5L43 27.03V36h-1v-4h-4v4h-1v-4h-8.5v4h-1v-4H19v4h-1v-4h-4v4Zm7-5h-7v-4h7v4Zm1 0h12v-4H22v4Zm15 0h-2v-4h7v4h-5Zm4.86-5H14.14l1.63-12h2.87l1.33 10h4.3l1.84-10h2.94l1.97 10h4.97l1.27-10h2.94l1.66 12ZM25 40a3 3 0 1 1-6 0 3 3 0 0 1 6 0Zm-.79 0c0 1.53-.99 2.77-2.21 2.77s-2.21-1.24-2.21-2.77.99-2.77 2.21-2.77 2.21 1.24 2.21 2.77Zm-7.52 3H14v-.15h.52c.25 0 .48-.2.48-.43v-4.84c0-.24-.23-.43-.48-.43H14V37h4.7v1.3h-.27v-.17c0-.48-.4-.86-.9-.86h-1.78v2.46h1.02a.7.7 0 0 0 .7-.7v-.18h.12v2.02h-.11v-.17a.7.7 0 0 0-.7-.7h-1.03v2.27c0 .32.27.58.6.58h.34V43Zm21.82 0h-1.45v-.15h.5c.23 0 .44-.2.44-.43v-4.84c0-.24-.21-.43-.45-.43h-.49V37h4.43v1.3h-.26v-.17a.85.85 0 0 0-.84-.86h-1.67v2.42h1.43a.7.7 0 0 0 .7-.71v-.18h.11v2.05h-.11v-.17c0-.4-.32-.68-.7-.68h-1.43v2.27c0 .17.07.32.18.43h1.63c.53 0 1.12-.81 1.34-1.22h.24L41.43 43H38.5Zm-7.27-6-.14 1.3h.2c.1-.64.55-.96.76-1.03h1.19v4.96c0 .32-.25.57-.57.57h-.32v.2h2.56v-.2h-.33a.59.59 0 0 1-.59-.57v-4.96h1.12c.64 0 .9.69.94 1.03h.13l-.13-1.3h-4.82Zm-5.88 0v.15h.5c.23 0 .42.2.42.43v4.7c0 .31-.25.57-.56.57h-.36V43h2.5v-.15h-.26a.57.57 0 0 1-.57-.57v-2.14h.68L29.66 43h1.6v-.12h-.29c-.16-.03-.55-.2-.84-.58l-1.66-2.25c1.1-.27 1.44-1.1 1.46-1.55 0-1.16-1.15-1.48-1.72-1.5h-2.85Zm2.39 2.87h-.73v-2.03c0-.31.25-.57.56-.57h.17c.7 0 1.28.58 1.28 1.3 0 .72-.57 1.3-1.28 1.3Z" fill="#281974"/></svg>