<!-- by TradingView --><svg width="18" height="18" viewBox="0 0 18 18" xmlns="http://www.w3.org/2000/svg"><path fill="#F0F3FA" d="M0 0h18v18H0z"/><path d="M8.56 5.08a.12.12 0 0 1-.1-.07c-.2-.57-.37-1.16-.51-1.76a.17.17 0 0 1 .04-.17c.13-.13 1.02-.07 1.21-.05.03 0 .06.01.09.04.02.02.04.05.04.08l.14 1.5c0 .13.05.18.14.26a.1.1 0 0 1 .02.05c.03.14.14 1.17.02 1.21-.04.02-.08-.06-.1-.08l-.38-.95c-.08-.16-.45-.04-.6-.06Zm2.64-.23c-.02.24.05.38.28.31.26-.07.57-.83.69-1.08.04-.08.1-.12.18-.13.2 0 .9.56.88.83a.4.4 0 0 1-.07.2c-.34.49-.55.8-.65.92-.4.51-.66-.72-1.03-.1-.13.21-.5 1.08-.75 1.08s-.4-.1-.48-.31c-.16-.48.4-1.2-.07-1.54a.27.27 0 0 1-.12-.24c0-.47.05-1 .13-1.57.02-.2.1-.23.26-.22.3.03.56.1.8.24.14.07.2.2.17.38-.07.42-.2.8-.23 1.23Zm-3.57.29c.44.15.57.55.66.97.01.03-.02.07-.06.07-.28-.02-.45-.54-.81-.57-.02 0-.04 0-.06.02a.52.52 0 0 1-.41.1C6.57 5.68 5.8 4.4 5.53 4.08c-.1-.11-.07-.2.04-.3.25-.23.5-.48.89-.42A20.1 20.1 0 0 1 7.58 5.1a.1.1 0 0 0 .05.05ZM4.5 4.82c.55.43 1.09.87 1.61 1.33.25.2.52.13.75.31.15.12.27.27.37.45.02.03-.01.08-.04.07-.19-.06-.66-.3-.83-.23-.23.13-.23.66-.6.43-.76-.48-1.4-.9-1.93-1.27-.38-.26.23-.82.4-1.03.1-.11.15-.16.28-.06Zm8.43 1.58c.17.45.9-.27 1.23-.22.04 0 .08.04.1.08.08.17.43.86.38 1.02a5.65 5.65 0 0 1-1.2.42.52.52 0 0 0-.5-.01c-.22.1-.58.1-.83.2-.21.07-.4.1-.53-.1-.2-.3-.12-.57.19-.72.24-.12.45-.28.63-.47.1-.11.33-.3.5-.23.02 0 .03.02.03.04ZM6.44 7.99c.04 0 .07.03.08.07.08.2-.56.15-.65.15a.14.14 0 0 0-.13.1c-.06.2-.08.36-.35.33l-2.16-.18c-.37-.03-.2-.75-.13-1.12 0-.02.02-.04.03-.05a.25.25 0 0 1 .22-.05c1.03.21 2.06.46 3.1.75Zm-2.19 3.15a.17.17 0 0 0-.09.2c.06.16.24.55.16.68-.1.17-.37.2-.51.1-.26-.17-.67-1.57-.78-1.92-.11-.35.1-.44.39-.48l1.95-.28c.2-.03.3-.13.29-.31 0-.07.06-.13.12-.13.22 0 .91-.03 1.07.06a.07.07 0 0 1 0 .11l-.53.38a.1.1 0 0 1-.06.02c-.36-.02-.21.37-.12.54.01.04.02.08 0 .12a.14.14 0 0 1-.07.08l-1.82.83Zm.85 2.31c-.04-.04-.17-.13-.17-.2v-.03c.5-.65-.15-.51-.17-.95 0-.17.15-.3.28-.41L7 10.16c.07-.06.13-.1.2-.1.17-.02-.24.75-.27.81-.15.26.27.45.26.69l-.03.09-1.07 1.5c-.23.3.32.46.4.65v.03c0 .4-.24.61-.56.34l-.82-.72Zm9.45-1.83c.14.07.1.2.03.3-.27.37-.52.74-.76 1.11-.35.55-.74-.18-1.1-.2-.28-.01-.46.22-.7-.09a7.72 7.72 0 0 0-.5-.58c-.27-.29-.47-.59-.73-.86a.07.07 0 0 1-.03-.06c.02-.28.28-.58.6-.44l1.69.7c.07.04.15.05.23.04.1-.01.17-.16.23-.22a.07.07 0 0 1 .05-.02c.33-.02.7.19.99.32ZM8.4 13.99c-.04.4.6.11.6.5 0 .24-.03.56-.36.5a137.2 137.2 0 0 0-1.3-.2c-.27-.13.22-.76-.22-.84-.22-.04-.3-.14-.18-.37.23-.47.4-.95.53-1.46.06-.26-.04-.43.15-.67.09-.1.11-.18.16-.3a.06.06 0 0 1 .06-.03c.03 0 .05.03.05.05.02.18-.03.58.08.72.16.2.67-.03.62.41a45.9 45.9 0 0 0-.2 1.69Zm3.18-.46c.15.18.23.4.24.64a.1.1 0 0 1-.06.1c-.4.17-.83.4-1.26.38a.1.1 0 0 1-.1-.08c-.05-.16-.14-.3-.26-.42a.06.06 0 0 0-.05-.01c-.27.06-.31-.12-.32-.36a41.7 41.7 0 0 1-.06-1.58c-.02-.48.5-.48.65-.13.15.35.28.7.42 1.07.26.72.5.01.8.39ZM15 8.59c0 .42-.04.85-.06 1.27-.02.4-1-.26-1.03.38l-.01.06c-.06.1-.14.13-.25.1l-1.88-.43a.38.38 0 0 1-.2-.1c-.14-.15-.16-.83.13-.85l1.86-.12c.02 0 .04-.01.05-.03a.37.37 0 0 0 .05-.28c0-.06.03-.12.08-.13l.74-.15c.24-.04.5-.04.52.28Z" fill="#FE0020"/><path fill="#060606" fill-opacity=".5" d="M7 8h4v2H7z"/></svg>