<!-- by TradingView --><svg width="18" height="18" viewBox="0 0 18 18" xmlns="http://www.w3.org/2000/svg"><path fill="#F0F3FA" d="M0 0h18v18H0z"/><path d="M13 7a4 4 0 1 0-5.19 3.82A3.2 3.2 0 0 0 7 13v.03C7 14.8 8.2 16 10 16c1.68 0 3-1.32 3-3V7Zm-2 0a2 2 0 1 1-4 0 2 2 0 0 1 4 0Zm-1 7c-.74 0-1-.27-1-1 0-.74.66-1.3 1.26-1.8.28-.24.55-.47.74-.7V13c0 .6-.4 1-1 1Z" fill="url(#ayost0kwu)"/><defs><linearGradient id="ayost0kwu" x1="6" y1="5" x2="11.5" y2="15.5" gradientUnits="userSpaceOnUse"><stop stop-color="#01ACEF"/><stop offset="1" stop-color="#1F56AD"/></linearGradient></defs></svg>