<!-- by TradingView --><svg width="56" height="56" viewBox="0 0 56 56" xmlns="http://www.w3.org/2000/svg"><path fill="#F0F3FA" d="M0 0h56v56H0z"/><path fill-rule="evenodd" d="M27 12v11.13l-4.08-9.52-1.84.78 3.96 9.23-7.33-7.33-1.42 1.42 7.33 7.33-9.23-3.96-.78 1.84L23.13 27H12.5v2h10.63l-9.52 4.08.78 1.84 9.23-3.96-7.33 7.33 1.42 1.42 7.33-7.33-3.96 9.23 1.84.78L27 32.87V43.5h2V32.87l4.08 9.52 1.84-.78-3.96-9.23 7.33 7.33 1.42-1.42-7.33-7.33 9.23 3.96.78-1.84L32.87 29H43v-2H32.87l9.52-4.08-.78-1.84-9.23 3.96 7.33-7.33-1.42-1.42-7.33 7.33 3.96-9.23-1.84-.78L29 23.13V12h-2Zm1 19a3 3 0 1 0 0-6 3 3 0 0 0 0 6Z" fill="#EC252D"/><path fill-rule="evenodd" d="M28 30a2 2 0 1 0 0-4 2 2 0 0 0 0 4Zm0 1a3 3 0 1 0 0-6 3 3 0 0 0 0 6Z" fill="#0A0F11"/><path fill-rule="evenodd" d="M28 43a15 15 0 1 0 0-30 15 15 0 0 0 0 30Zm0 1a16 16 0 1 0 0-32 16 16 0 0 0 0 32Z" fill="#0A0F11"/></svg>