<!-- by TradingView --><svg width="18" height="18" viewBox="0 0 18 18" xmlns="http://www.w3.org/2000/svg"><path fill="#F0F3FA" d="M0 0h18v18H0z"/><path d="M11.45 7.36h.91c.4 0 .64.18.64.56V8h2v-.42C15 6.71 14.23 6 13.33 6H9.86l1.59 1.36ZM5.02 12h1.34v-1.36h-.47A.86.86 0 0 1 5 9.8V8.2c0-.46.39-.84.89-.84h.47V6H5.02C3.91 6 3 6.83 3 7.84v2.31C3 11.17 3.9 12 5.02 12Zm8.55 0H7.92v-1.36h4.38c.42 0 .7-.25.7-.63v-.2h-1.6V8.46H15v2.23c0 .72-.64 1.32-1.43 1.32Z" fill="#FB6B15"/><path d="M6 12V6h4.2c.96 0 1.8.71 1.8 1.6v1.02c0 .88-.84 1.74-1.8 1.74H8V12H6Zm3.08-4.64H8V9h1.08c.5 0 .92-.34.92-.77v-.1c0-.42-.41-.77-.92-.77Z" fill="#686765"/></svg>