<!-- by TradingView --><svg width="18" height="18" viewBox="0 0 18 18" xmlns="http://www.w3.org/2000/svg"><path fill="#F0F3FA" d="M0 0h18v18H0z"/><path d="M6.67 5.55C3.95 6.08 2 7.5 2 9.17 2 11.28 5.13 13 9 13s7-1.72 7-3.83c0-1.67-1.95-3.09-4.67-3.62v.49c2.33.5 3.97 1.74 3.97 3.18 0 1.89-2.82 3.42-6.3 3.42s-6.3-1.53-6.3-3.42c0-1.44 1.64-2.68 3.97-3.18v-.49Z" fill="#184E99"/><path d="M10 12v-.6c-.27.4-.63.6-1 .6-1.16 0-2-.8-2-1.99C7 8.81 7.93 8 9.1 8c.84 0 1.68.39 1.85 1.28h-.86c-.1-.38-.44-.63-.97-.63C8.33 8.65 8 9.27 8 10c0 .72.34 1.36 1.1 1.36.43 0 .9-.26.9-.77H9V10h2v2h-1Z" fill="#184E99"/><path fill="#184E99" fill-opacity=".4" d="M8 5h2v2H8z"/></svg>