<!-- by TradingView --><svg width="56" height="56" viewBox="0 0 56 56" fill="none" xmlns="http://www.w3.org/2000/svg">
<rect width="56" height="56" fill="#F0F3FA"/>
<path d="M42.895 15H43.2762C44.5977 15.1747 45.4153 16.8343 43.9904 17.5636C43.9409 17.5886 43.9401 17.6151 43.9881 17.6431C44.0189 17.6604 44.05 17.6684 44.0815 17.6669C44.1212 17.6638 44.1587 17.6718 44.1939 17.6907C45.8258 18.5619 44.7248 20.7001 43.1435 20.7013C42.1718 20.7024 41.4723 20.1602 41.307 19.1846C41.301 19.1483 41.3156 19.1283 41.3508 19.1245L42.2573 19.0179C42.2756 19.0157 42.2941 19.0204 42.3092 19.0311C42.3244 19.0417 42.3351 19.0576 42.3394 19.0757C42.444 19.5261 42.7251 19.8811 43.1997 19.8165C44.2457 19.6747 44.0961 17.6136 42.7375 18.0934C42.729 18.0964 42.7198 18.0971 42.7108 18.0955C42.7019 18.0939 42.6935 18.09 42.6865 18.0842C42.6795 18.0784 42.6741 18.0709 42.6708 18.0624C42.6676 18.0538 42.6665 18.0446 42.6678 18.0355L42.7758 17.2937C42.781 17.2574 42.8016 17.2381 42.8376 17.2358C43.3493 17.1984 43.7643 16.9159 43.6395 16.3658C43.4595 15.5717 42.498 15.8428 42.3664 16.57C42.3633 16.5868 42.354 16.6018 42.3403 16.6118C42.3267 16.6217 42.3098 16.6259 42.2933 16.6233L41.4476 16.4871C41.4321 16.4843 41.4184 16.4756 41.4093 16.4629C41.4003 16.4501 41.3966 16.4344 41.3992 16.4191C41.5371 15.591 42.0357 15.118 42.895 15Z" fill="#206FB2"/>
<path d="M30.1708 18.7217C25.4374 20.1731 20.8743 23.2257 18.2999 27.4785C17.2412 29.2274 16.4735 31.5645 17.3873 33.5286C18.415 35.7417 21.1091 36.4313 23.4281 36.3254C27.8162 36.1248 32.1295 34.1055 35.3277 31.3819C36.1103 30.7148 36.2921 31.6287 35.8088 32.0873C32.7188 35.0149 28.6805 37.1717 24.5536 38.2963C20.6695 39.3544 14.1822 39.7364 11.7666 35.6211C10.686 33.781 10.8517 31.5205 11.6205 29.5666C14.234 22.9215 21.81 18.1921 28.578 16.539C32.5128 15.5789 38.6962 15.5045 40.8034 19.7145C40.9657 20.0401 41.1728 20.7726 40.7516 20.9946C40.7201 21.0111 40.6868 21.0164 40.6515 21.0104C40.4635 20.9758 40.3419 20.9086 40.2867 20.8086C38.3659 17.3177 33.4311 17.7222 30.1708 18.7217Z" fill="url(#paint0_linear_229_27503)"/>
<path fill-rule="evenodd" clip-rule="evenodd" d="M18.3004 27.4785C20.8748 23.2257 25.4378 20.1731 30.1712 18.7217C33.4316 17.7222 38.3663 17.3177 40.2871 20.8086C40.3423 20.9086 40.4639 20.9758 40.6519 21.0104C40.6872 21.0164 40.7206 21.0111 40.752 20.9946C40.7599 20.9904 40.7675 20.9861 40.775 20.9816C39.3721 18.033 34.3942 14.4185 23.6683 20.2633C10.1381 29.2301 12.2419 37.5103 21.6058 37.5103C28.9955 37.5103 34.2363 33.3964 36.0136 31.2559C35.9105 31.1016 35.68 31.0819 35.3281 31.3819C32.13 34.1055 27.8166 36.1248 23.4285 36.3254C21.1095 36.4313 18.4154 35.7417 17.3877 33.5286C16.474 31.5645 17.2416 29.2274 18.3004 27.4785Z" fill="url(#paint1_linear_229_27503)"/>
<path d="M28.2852 39.6144C29.6287 40.9396 31.9703 39.8576 33.2119 38.9614C35.1269 37.5788 36.737 35.5116 37.2842 33.2294C37.7258 31.3874 36.9746 29.4688 34.6377 29.9068C32.2613 30.3527 30.1747 32.3027 28.9784 34.2584C28.9638 34.2822 28.9431 34.3019 28.9183 34.3156C28.8935 34.3293 28.8655 34.3365 28.837 34.3365C28.8085 34.3365 28.7805 34.3293 28.7557 34.3156C28.7309 34.3019 28.7102 34.2822 28.6956 34.2584C28.6307 34.1526 28.6863 33.9623 28.7559 33.843C29.8579 31.962 31.3718 30.421 33.2976 29.22C34.9623 28.1819 38.1199 27.1111 39.4843 29.1817C40.7212 31.0597 39.4809 33.9398 38.4028 35.596C36.7764 38.0956 33.8088 40.6964 30.6442 40.9937C29.9823 41.0556 27.9433 40.666 28.0012 39.718C28.003 39.6868 28.0141 39.6568 28.0331 39.6317C28.0522 39.6065 28.0783 39.5873 28.1084 39.5763C28.1385 39.5653 28.1713 39.5631 28.2027 39.5698C28.2341 39.5766 28.2627 39.5921 28.2852 39.6144Z" fill="url(#paint2_linear_229_27503)"/>
<path fill-rule="evenodd" clip-rule="evenodd" d="M33.2119 38.9614C31.9703 39.8576 29.6287 40.9396 28.2852 39.6144C28.2627 39.5921 28.2341 39.5766 28.2027 39.5698C28.1713 39.5631 28.1385 39.5653 28.1084 39.5763C28.0783 39.5873 28.0522 39.6065 28.0331 39.6317C28.0141 39.6568 28.003 39.6868 28.0012 39.718C27.9936 39.8425 28.0222 39.9574 28.079 40.0628C28.3062 40.3307 28.5712 40.5281 28.8661 40.6624C28.979 40.7099 29.0975 40.7521 29.2179 40.7893C33.0776 41.8486 40.9165 33.9265 38.1773 29.9912C36.2946 27.2863 30.1537 31.0548 28.7028 34.2693C28.7167 34.2882 28.7347 34.3041 28.7557 34.3156C28.7805 34.3293 28.8085 34.3365 28.837 34.3365C28.8655 34.3365 28.8935 34.3293 28.9183 34.3156C28.9431 34.3019 28.9638 34.2822 28.9784 34.2584C30.1747 32.3027 32.2613 30.3527 34.6377 29.9068C36.9746 29.4688 37.7258 31.3874 37.2842 33.2294C36.737 35.5116 35.1269 37.5788 33.2119 38.9614Z" fill="url(#paint3_linear_229_27503)"/>
<defs>
<linearGradient id="paint0_linear_229_27503" x1="34.5168" y1="17.961" x2="24.9627" y2="40.4844" gradientUnits="userSpaceOnUse">
<stop stop-color="#A6CD44"/>
<stop offset="1" stop-color="#698534"/>
</linearGradient>
<linearGradient id="paint1_linear_229_27503" x1="27.4134" y1="17.1405" x2="27.4134" y2="37.5103" gradientUnits="userSpaceOnUse">
<stop stop-color="#668233"/>
<stop offset="1" stop-color="#A2C843"/>
</linearGradient>
<linearGradient id="paint2_linear_229_27503" x1="34" y1="28" x2="34" y2="41" gradientUnits="userSpaceOnUse">
<stop stop-color="#A7CE45"/>
<stop offset="1" stop-color="#759438"/>
</linearGradient>
<linearGradient id="paint3_linear_229_27503" x1="33.373" y1="29.0651" x2="33.373" y2="40.8859" gradientUnits="userSpaceOnUse">
<stop stop-color="#678233"/>
<stop offset="1" stop-color="#A4C84C"/>
</linearGradient>
</defs>
</svg>
