<!-- by TradingView --><svg width="56" height="56" viewBox="0 0 56 56" xmlns="http://www.w3.org/2000/svg"><path fill="#F0F3FA" d="M0 0h56v56H0z"/><path d="M47 34V22h3v10h2v2h-5ZM39 34l1.27-12h4.48L46 34h-2.5l-.18-2h-1.6l-.16 2H39Zm2.92-4h1.2l-.58-5.95h-.12l-.5 5.95ZM31 34V22h3v5h1v-5h3v12h-3v-5h-1v5h-3ZM26.03 34C24 34 23 32.8 23 30.38V25.3c0-2.2 1.16-3.3 3.47-3.3C29.1 22 30 23.56 30 26h-3v-.93c0-.44.04-1.07-.48-1.07-.54 0-.52.53-.52 1.05v5.7c0 .52 0 1.25.5 1.25s.5-.72.5-1.24V29h-.5l-.03-2H30v7h-1.16l-.49-1.1c-.49.73-1.26 1.1-2.32 1.1ZM18.5 34c-2.4 0-3.5-1.13-3.5-3.3V22h3v8.61c0 .45 0 1.39.5 1.39s.5-.93.5-1.39V22h3v8.7c0 2.17-1.1 3.3-3.5 3.3ZM4 34V22h3.9L9 29l1.06-7H14v12h-3v-8l-.82 8h-2.3L7 26v8H4Z" fill="#EA0A2A"/></svg>