<!-- by TradingView --><svg width="56" height="56" viewBox="0 0 56 56" xmlns="http://www.w3.org/2000/svg"><path fill="#F0F3FA" d="M0 0h56v56H0z"/><path fill-rule="evenodd" d="M28 13c-7.5 0-8.18 6.69-8.18 7.54-1.67.47-4.82 2.97-4.82 7.4 0 8.54 7.58 11.5 12.11 12.05v2.15a.86.86 0 0 0 1.71 0V40C33.34 39.48 41 36.53 41 27.95c0-4.44-3.15-6.94-4.82-7.4 0-.86-.69-7.55-8.18-7.55Zm0 1c-6.63 0-7.12 5.86-7.12 7.44-3.24.7-4.88 3.88-4.88 7 0 1.36.57 2.84 1.24 4.1.97.26 3.24.7 5.88.7 2.82 0 4.03-.79 4.28-1.18v-.6l.53-.55.53.54v.6c.26.4 1.48 1.19 4.31 1.19 2.74 0 5.07-.47 6-.72A9.2 9.2 0 0 0 40 28.44c0-3.12-1.64-6.3-4.88-7 0-1.58-.5-7.44-7.12-7.44Z" fill="#276C48"/><path d="M16.26 14.87c-.57-.42-.53-1.42-.44-1.87.42.43 1.11.83 1.5.14 0 1.16.68 1.2 1.05 1.41-.3.25-1.4.85-2.1.32Zm-1.27 1.9c-.57-.42-.54-1.42-.45-1.87.42.44 1.12.84 1.5.14 0 1.17.68 1.2 1.06 1.42-.31.24-1.4.84-2.11.31Zm-.83 2.07c-.61-.36-.68-1.35-.64-1.8.46.37 1.2.7 1.5-.04.13 1.16.81 1.11 1.2 1.28-.27.28-1.29 1-2.06.56Zm-1.2 1.99c-.61-.35-.68-1.35-.64-1.8.46.38 1.2.7 1.5-.04.13 1.16.81 1.12 1.2 1.28-.27.28-1.29 1-2.06.56Zm-.81 2.12c-.62-.36-.69-1.35-.64-1.8.46.37 1.2.7 1.5-.04.12 1.16.8 1.11 1.2 1.28-.28.28-1.3 1-2.06.56Zm-.51 2.1c-.67-.23-.92-1.2-.96-1.65.52.28 1.3.45 1.46-.33.34 1.11 1 .93 1.42 1.02-.22.33-1.09 1.24-1.92.96Zm-.42 2.32c-.67-.16-.99-1.07-1.07-1.51.53.23 1.3.32 1.4-.45.4 1.05 1.03.82 1.44.87-.19.34-.95 1.3-1.77 1.1Zm-.25 1.96c-.6-.14-.9-.99-.97-1.39.48.21 1.18.3 1.27-.41.38.96.94.75 1.32.8-.17.3-.87 1.19-1.62 1Zm.6 2.22c-.62-.05-1.04-.84-1.17-1.22.5.13 1.21.1 1.2-.62.51.9 1.04.6 1.41.58-.12.33-.67 1.32-1.44 1.26Zm.85 2.12c-.61.1-1.19-.57-1.4-.91.52 0 1.2-.19 1.02-.88.7.75 1.15.33 1.51.22-.04.36-.36 1.45-1.13 1.57Zm.96 1.93c-.62.1-1.2-.58-1.4-.92.52 0 1.2-.19 1.02-.88.7.75 1.15.33 1.5.23-.03.35-.36 1.44-1.12 1.56Zm1.37 1.77c-.57.23-1.28-.28-1.56-.56.5-.12 1.13-.47.8-1.1.85.56 1.2.05 1.52-.14.04.36-.04 1.5-.76 1.8ZM16.13 39c-.54.31-1.3-.1-1.62-.35.5-.18 1.06-.6.66-1.2.91.45 1.19-.1 1.5-.33.07.35.14 1.48-.54 1.88Zm1.85 1.5c-.53.35-1.31-.02-1.64-.25.48-.21 1.03-.67.6-1.23.93.4 1.18-.17 1.47-.42.1.34.22 1.48-.43 1.9Zm1.64 1.33c-.53.37-1.33-.03-1.66-.27.49-.22 1.05-.72.61-1.31.94.42 1.2-.19 1.49-.45.1.36.23 1.57-.44 2.03Zm2.11.88c-.46.45-1.31.2-1.68 0 .45-.3.92-.87.4-1.39 1 .26 1.15-.38 1.4-.7.16.36.47 1.53-.12 2.1Zm1.66 1.14c-.47.45-1.32.2-1.68 0 .44-.3.91-.87.4-1.39.99.26 1.14-.38 1.4-.69.15.35.46 1.52-.12 2.08Z" fill="#276C48"/><path d="m32 45.11-.21.89-9.27-2.35.21-.9L32 45.12Zm7.74-30.24c.57-.42.53-1.42.44-1.87-.42.43-1.11.83-1.5.14 0 1.16-.68 1.2-1.05 1.41.3.25 1.4.85 2.1.32Zm1.27 1.9c.57-.42.54-1.42.45-1.87-.42.44-1.12.84-1.5.14 0 1.17-.68 1.2-1.06 1.42.31.24 1.4.84 2.11.31Zm.83 2.07c.61-.36.68-1.35.64-1.8-.46.37-1.2.7-1.5-.04-.13 1.16-.81 1.11-1.2 1.28.27.28 1.29 1 2.06.56Zm1.2 1.99c.61-.35.68-1.35.64-1.8-.46.38-1.2.7-1.5-.04-.13 1.16-.81 1.12-1.2 1.28.27.28 1.29 1 2.06.56Zm.81 2.12c.62-.36.69-1.35.64-1.8-.46.37-1.2.7-1.5-.04-.12 1.16-.8 1.11-1.2 1.28.28.28 1.3 1 2.06.56Zm.51 2.1c.67-.23.92-1.2.96-1.65-.52.28-1.3.45-1.46-.33-.34 1.11-1 .93-1.42 1.02.22.33 1.09 1.24 1.92.96Zm.42 2.32c.67-.16.99-1.07 1.07-1.51-.53.23-1.3.32-1.4-.45-.4 1.05-1.03.82-1.44.87.19.34.95 1.3 1.77 1.1Zm.25 1.96c.6-.14.9-.99.97-1.39-.48.21-1.18.3-1.27-.41-.38.96-.94.75-1.32.8.17.3.87 1.19 1.62 1Zm-.6 2.22c.62-.05 1.04-.84 1.17-1.22-.5.13-1.21.1-1.2-.62-.51.9-1.04.6-1.41.58.12.33.67 1.32 1.44 1.26Zm-.85 2.12c.61.1 1.19-.57 1.4-.91-.52 0-1.2-.19-1.02-.88-.7.75-1.15.33-1.51.22.04.36.36 1.45 1.13 1.57Zm-.96 1.93c.62.1 1.2-.58 1.4-.92-.52 0-1.2-.19-1.02-.88-.7.75-1.15.33-1.5.23.03.35.36 1.44 1.12 1.56Zm-1.37 1.77c.57.23 1.28-.28 1.56-.56-.5-.12-1.13-.47-.8-1.1-.85.56-1.2.05-1.52-.14-.04.36.04 1.5.76 1.8ZM39.87 39c.54.31 1.3-.1 1.62-.35-.5-.18-1.06-.6-.66-1.2-.91.45-1.19-.1-1.5-.33-.07.35-.14 1.48.54 1.88Zm-1.85 1.5c.53.35 1.31-.02 1.64-.25-.48-.21-1.03-.67-.6-1.23-.93.4-1.18-.17-1.47-.42-.1.34-.22 1.48.43 1.9Zm-1.64 1.33c.53.37 1.33-.03 1.66-.27-.49-.22-1.05-.72-.6-1.31-.95.42-1.2-.19-1.5-.45-.1.36-.23 1.57.44 2.03Zm-2.11.88c.46.45 1.31.2 1.68 0-.45-.3-.92-.87-.4-1.39-1 .26-1.15-.38-1.4-.7-.16.36-.47 1.53.12 2.1Zm-1.66 1.14c.47.45 1.32.2 1.68 0-.44-.3-.91-.87-.4-1.39-.99.26-1.14-.38-1.4-.69-.15.35-.46 1.52.12 2.08Z" fill="#276C48"/><path d="m24 45.11.21.89 9.27-2.35-.21-.9L24 45.12ZM34 22h-2v.74h2V22Zm0 1.28h-2v.67h2v-.67Zm0 1.2h-2v.68h2v-.67Zm0 1.22h-2v.67h2v-.67Zm0 1.2h-2v.68h2v-.67Zm0 1.22h-2v.67h2v-.67Zm0 1.2h-2V30h2v-.67Zm-3-6.58V22h-4v.74h4Zm0 .54h-4v.67h1.67v-.07H31v-.6Zm-2.33 1.2H27v.68h3.7v-.4h-2.03v-.27Zm2.03 1.22H27v.67h3.7v-.67Zm-2.03 1.2H27v.68h1.67v-.67Zm0 1.22H27v.67h1.67v-.67Zm0 1.2H27V30h1.67v-.67Zm-3.51-6.54a2.75 2.75 0 0 0-3.84 0h3.84Zm.46.52h-4.76c-.15.2-.27.41-.39.64h2.2c.15-.1.33-.16.56-.16.2 0 .34.06.44.16H26c-.08-.18-.2-.4-.37-.64Zm-.83 1.16h-.82l.01.02.11.24.7-.26Zm-2.53 0h-2c-.07.21-.13.43-.17.65h1.99c.03-.22.1-.45.18-.65Zm.97 1.17H26v.65h-2.77v-.65Zm-1.2 0H20a4.36 4.36 0 0 0 0 .65h2a7.06 7.06 0 0 1 .01-.65Zm.03 1.16h-2c.03.22.07.44.13.65h2.03c-.08-.2-.13-.43-.16-.65Zm.45 1.17c.17.2.4.32.72.32.38 0 .64-.13.82-.32H26v.65h-5.32c-.13-.2-.24-.42-.32-.65h2.14Zm-1.43 1.17c.5.53 1.2.87 2.15.87 1.15 0 1.98-.47 2.44-.87h-4.6ZM26 27.44h-1.67c.03-.12.04-.23.04-.32h-1.14v-.33H26v.65Z" fill="#276C48"/></svg>