<!-- by TradingView --><svg width="18" height="18" viewBox="0 0 18 18" fill="none" xmlns="http://www.w3.org/2000/svg">
<rect width="18" height="18" fill="#F0F3FA"/>
<path d="M14.2572 4H14.3918C14.8582 4.06719 15.1467 4.70548 14.6438 4.98602C14.6264 4.99562 14.6261 5.0058 14.643 5.01656C14.6539 5.02325 14.6649 5.0263 14.676 5.02572C14.69 5.02456 14.7032 5.02761 14.7157 5.03488C15.2916 5.36995 14.903 6.19236 14.3449 6.1928C14.002 6.19324 13.7551 5.98469 13.6968 5.60948C13.6946 5.59552 13.6998 5.58781 13.7122 5.58636L14.0322 5.54534C14.0386 5.54451 14.0452 5.54631 14.0505 5.55041C14.0558 5.55451 14.0596 5.56063 14.0611 5.5676C14.098 5.7408 14.1973 5.87736 14.3648 5.85249C14.7339 5.79796 14.6811 5.00522 14.2016 5.18977C14.1986 5.19092 14.1954 5.19121 14.1922 5.19059C14.1891 5.18997 14.1861 5.18847 14.1837 5.18624C14.1812 5.184 14.1793 5.18111 14.1781 5.17783C14.177 5.17455 14.1766 5.171 14.177 5.16752L14.2151 4.88218C14.217 4.86822 14.2243 4.8608 14.237 4.85993C14.4176 4.84553 14.564 4.7369 14.52 4.52529C14.4565 4.21989 14.1171 4.32416 14.0707 4.60383C14.0696 4.61031 14.0663 4.61608 14.0615 4.61991C14.0566 4.62374 14.0507 4.62533 14.0449 4.62433L13.7464 4.57198C13.7409 4.5709 13.7361 4.56754 13.7329 4.56264C13.7297 4.55774 13.7284 4.55169 13.7293 4.5458C13.778 4.22731 13.954 4.04537 14.2572 4Z" fill="#206FB2"/>
<path d="M9.76617 5.43143C8.09556 5.98965 6.48506 7.16375 5.57644 8.79942C5.20276 9.47207 4.93184 10.3709 5.25435 11.1264C5.61706 11.9776 6.56792 12.2428 7.38637 12.2021C8.93513 12.1249 10.4575 11.3483 11.5863 10.3007C11.8625 10.0442 11.9266 10.3957 11.756 10.572C10.6654 11.698 9.24017 12.5276 7.78362 12.9601C6.41276 13.3671 4.12314 13.514 3.27057 11.9312C2.88917 11.2235 2.94766 10.354 3.21899 9.60252C4.14142 7.04673 6.81529 5.22772 9.20402 4.59192C10.5927 4.22266 12.7751 4.19405 13.5188 5.81326C13.5761 5.93851 13.6492 6.22022 13.5006 6.3056C13.4895 6.31196 13.4777 6.31398 13.4652 6.31167C13.3989 6.29838 13.356 6.27252 13.3365 6.23409C12.6586 4.8914 10.9169 5.04699 9.76617 5.43143Z" fill="url(#paint0_linear_229_29040)"/>
<path fill-rule="evenodd" clip-rule="evenodd" d="M5.57663 8.79941C6.48525 7.16374 8.09574 5.98964 9.76635 5.43141C10.9171 5.04698 12.6587 4.89139 13.3367 6.23408C13.3562 6.27251 13.3991 6.29837 13.4654 6.31166C13.4779 6.31397 13.4897 6.31195 13.5008 6.30559C13.5035 6.304 13.5062 6.30233 13.5089 6.3006C13.0137 5.16651 11.2568 3.77634 7.47123 6.02434C2.69586 9.47311 3.43837 12.6578 6.74328 12.6578C9.35139 12.6578 11.2011 11.0755 11.8284 10.2523C11.792 10.1929 11.7106 10.1853 11.5864 10.3007C10.4577 11.3483 8.93531 12.1249 7.38656 12.2021C6.56811 12.2428 5.61725 11.9776 5.25453 11.1264C4.93202 10.3709 5.20294 9.47205 5.57663 8.79941Z" fill="url(#paint1_linear_229_29040)"/>
<path d="M9.10066 13.4671C9.57485 13.9768 10.4013 13.5606 10.8395 13.2159C11.5154 12.6841 12.0837 11.8891 12.2768 11.0113C12.4326 10.3028 12.1675 9.56493 11.3427 9.73338C10.504 9.90487 9.76755 10.6549 9.34533 11.4071C9.34018 11.4162 9.33287 11.4238 9.32412 11.4291C9.31537 11.4344 9.30548 11.4371 9.29541 11.4371C9.28535 11.4371 9.27546 11.4344 9.26671 11.4291C9.25796 11.4238 9.25065 11.4162 9.2455 11.4071C9.22259 11.3664 9.24223 11.2932 9.26677 11.2473C9.65572 10.5238 10.19 9.93114 10.8698 9.46923C11.4573 9.06996 12.5717 8.65813 13.0533 9.4545C13.4898 10.1768 13.0521 11.2845 12.6716 11.9216C12.0976 12.8829 11.0502 13.8832 9.93325 13.9976C9.69964 14.0214 8.97997 13.8716 9.00043 13.5069C9.00106 13.4949 9.00498 13.4834 9.0117 13.4737C9.01842 13.464 9.02765 13.4566 9.03827 13.4524C9.0489 13.4482 9.06045 13.4473 9.07153 13.4499C9.08261 13.4525 9.09273 13.4585 9.10066 13.4671Z" fill="url(#paint2_linear_229_29040)"/>
<path fill-rule="evenodd" clip-rule="evenodd" d="M10.8395 13.2159C10.4013 13.5606 9.57485 13.9768 9.10066 13.4671C9.09273 13.4585 9.08261 13.4525 9.07153 13.4499C9.06045 13.4473 9.0489 13.4482 9.03827 13.4524C9.02765 13.4566 9.01842 13.464 9.0117 13.4737C9.00498 13.4834 9.00106 13.4949 9.00043 13.5069C8.99774 13.5549 9.00784 13.5991 9.02796 13.6397C9.10798 13.7425 9.20132 13.8183 9.30517 13.8699C9.34527 13.8883 9.38736 13.9047 9.43017 13.9191C10.7925 14.3259 13.5586 11.2793 12.592 9.76585C11.9275 8.72551 9.76015 10.1749 9.24804 11.4112C9.25294 11.4185 9.25931 11.4246 9.26671 11.4291C9.27546 11.4344 9.28535 11.4371 9.29541 11.4371C9.30548 11.4371 9.31537 11.4344 9.32412 11.4291C9.33287 11.4238 9.34018 11.4163 9.34533 11.4071C9.76755 10.6549 10.504 9.90487 11.3427 9.73338C12.1675 9.56493 12.4326 10.3028 12.2768 11.0113C12.0837 11.8891 11.5154 12.6841 10.8395 13.2159Z" fill="url(#paint3_linear_229_29040)"/>
<defs>
<linearGradient id="paint0_linear_229_29040" x1="11.3001" y1="5.13885" x2="7.40696" y2="13.5608" gradientUnits="userSpaceOnUse">
<stop stop-color="#A6CD44"/>
<stop offset="1" stop-color="#698534"/>
</linearGradient>
<linearGradient id="paint1_linear_229_29040" x1="8.79301" y1="4.82327" x2="8.79301" y2="12.6578" gradientUnits="userSpaceOnUse">
<stop stop-color="#668233"/>
<stop offset="1" stop-color="#A2C843"/>
</linearGradient>
<linearGradient id="paint2_linear_229_29040" x1="11.1176" y1="9" x2="11.1176" y2="14" gradientUnits="userSpaceOnUse">
<stop stop-color="#A7CE45"/>
<stop offset="1" stop-color="#759438"/>
</linearGradient>
<linearGradient id="paint3_linear_229_29040" x1="10.8964" y1="9.40967" x2="10.8964" y2="13.9561" gradientUnits="userSpaceOnUse">
<stop stop-color="#678233"/>
<stop offset="1" stop-color="#A4C84C"/>
</linearGradient>
</defs>
</svg>
