<!-- by TradingView --><svg width="18" height="18" viewBox="0 0 18 18" fill="none" xmlns="http://www.w3.org/2000/svg">
<rect width="18" height="18" fill="#F0F3FA"/>
<path d="M4 8.99995C4 13.126 7.2972 14.0229 8.9458 13.9995C10.3909 13.9995 11.5569 13.1947 11.9592 12.7923L12.426 13.9995H13V9.84112C13 9.61418 13.3502 9.43021 13.5664 9.43021H14V8.99995H9.38462V9.43021H9.95093C10.4025 9.43021 10.5444 10.0001 10.5588 10.285V11.5843C10.569 12.2491 10.2607 13.5787 8.9458 13.5787C6.95284 13.5787 7 11.7666 7 8.13094C7 5.2224 8.26405 4.44968 8.9458 4.42689C10.8165 4.42689 11.9802 6.76532 12.3283 8H12.4615V4H12.2247C12.2247 4.67239 11.6544 4.71919 10.8083 4.356C10.1314 4.06544 9.28459 3.99776 8.9458 4.00024C7.2972 3.98269 4 5.02831 4 8.99995Z" fill="#023F88"/>
</svg>
