<!-- by TradingView --><svg width="18" height="18" viewBox="0 0 18 18" xmlns="http://www.w3.org/2000/svg"><path fill="#F0F3FA" d="M0 0h18v18H0z"/><path fill-rule="evenodd" d="M8.69 4v3.48L7.4 4.5l-.57.25 1.23 2.88-2.29-2.29-.44.44 2.3 2.3-2.9-1.24-.24.57L7.48 8.7H4.16v.62h3.32L4.5 10.6l.25.57 2.88-1.23-2.29 2.29.44.44 2.3-2.3-1.24 2.9.57.24 1.28-2.98v3.32h.62v-3.32l1.28 2.98.57-.25-1.23-2.88 2.29 2.29.44-.44-2.3-2.3 2.9 1.24.24-.57-2.98-1.28h3.17V8.7h-3.17L13.5 7.4l-.25-.57-2.88 1.23 2.29-2.29-.44-.44-2.3 2.3 1.24-2.9-.57-.24L9.3 7.48V4H8.7ZM9 9.94a.94.94 0 1 0 0-1.88.94.94 0 0 0 0 1.88Z" fill="#EC252D"/><path fill-rule="evenodd" d="M9 9.63a.62.62 0 1 0 0-1.25.62.62 0 0 0 0 1.24Zm0 .3a.94.94 0 1 0 0-1.87.94.94 0 0 0 0 1.88Z" fill="#0A0F11"/><path fill-rule="evenodd" d="M9 13.69A4.69 4.69 0 1 0 9 4.3a4.69 4.69 0 0 0 0 9.38ZM9 14A5 5 0 1 0 9 4a5 5 0 0 0 0 10Z" fill="#0A0F11"/></svg>