<!-- by TradingView --><svg width="18" height="18" viewBox="0 0 18 18" xmlns="http://www.w3.org/2000/svg"><path fill="#F0F3FA" d="M0 0h18v18H0z"/><path d="M13 9.11h.12L14.94 11H16l-1.94-2L16 7h-1.06l-1.82 1.9H13V7h-1v1.17c0 .46.44.82.99.83-.55 0-.99.37-.99.83V11h1V9.11ZM10.53 8H8.05c-.1 0-.18.01-.18.12v.26c0 .13.1.2.22.2h1.8c.5 0 1.11.5 1.11 1.06v.33c0 .57-.6 1.03-1.12 1.03H7.34v-1H9.8c.1.01.2.02.2-.1v-.25c0-.15-.14-.22-.28-.22H7.83c-.35 0-.64-.38-.64-.77v-.2c0-.35.25-.64.57-.64.06 0 .11-.05.11-.12v-.19c0-.28.21-.51.47-.51h2.2v1ZM6 8V7H2.88c-.49 0-.88.42-.88.94v2.1c0 .52.4.96.88.96h2.66c.24 0 .46-.22.46-.49V10H3.2c-.12 0-.2-.05-.2-.18V8.17c0-.13.08-.17.2-.17H6Zm-.77.63v-.2h1.54v.98c0 .32-.24.58-.54.58H6v-.78h-.19a.6.6 0 0 1-.58-.58Z" fill="url(#annvcgsog)"/><defs><linearGradient id="annvcgsog" x1="8.61" y1="7" x2="8.61" y2="11" gradientUnits="userSpaceOnUse"><stop stop-color="#F3682C"/><stop offset=".43" stop-color="#F6981A"/><stop offset="1" stop-color="#FB6409"/></linearGradient></defs></svg>