<!-- by TradingView --><svg width="18" height="18" viewBox="0 0 18 18" xmlns="http://www.w3.org/2000/svg"><path fill="#F0F3FA" d="M0 0h18v18H0z"/><path fill-rule="evenodd" d="M9 13a4 4 0 1 0 0-8 4 4 0 0 0 0 8Zm0-1a3 3 0 1 0 0-6 3 3 0 0 0 0 6Z"/><path d="M11 9a2 2 0 1 1-4 0 2 2 0 0 1 4 0Zm4 3.2-.68-.7a2.7 2.7 0 0 1-3.27-.1l-.9.48a3.6 3.6 0 0 0 4.85.32Zm0-6.4a3.6 3.6 0 0 0-4.84.3l.95.46a2.7 2.7 0 0 1 3.21-.05l.68-.72ZM3 5.78A3.6 3.6 0 0 1 5.23 5c1.05 0 1.71.46 2.4 1.2l-.76.61A2.7 2.7 0 0 0 5.23 6c-.58 0-1.1.18-1.55.5L3 5.77Zm.68 5.72a2.69 2.69 0 0 0 3.34-.18l.8.46A3.16 3.16 0 0 1 5.23 13 3.6 3.6 0 0 1 3 12.22l.68-.71Z"/><path d="M4 9H3v3.23l1-.26V10h1V9H4Z"/></svg>