<!-- by TradingView --><svg width="56" height="56" viewBox="0 0 56 56" xmlns="http://www.w3.org/2000/svg"><path fill="url(#anypek4j0)" d="M0 0h56v56H0z"/><path d="M28 34v12l-11.54-8.52A3.62 3.62 0 0 1 15 34.57V23.8L28 34Z" fill="url(#bnypek4j0)"/><path d="M15 23.64v9.76c0-1.44 2.76-3.4 4.14-4.2L28 22.6V10l-10.83 9A6.04 6.04 0 0 0 15 23.64Z" fill="url(#cnypek4j0)"/><path d="M41 23.64v9.76c0-1.44-2.76-3.4-4.14-4.2L28 22.6V10l10.83 9A6.04 6.04 0 0 1 41 23.64Z" fill="url(#dnypek4j0)"/><path d="M28 34v12l11.54-8.52A3.62 3.62 0 0 0 41 34.57V23.8L28 34Z" fill="url(#enypek4j0)"/><defs><linearGradient id="anypek4j0" x1="10.42" y1="9.71" x2="68.15" y2="76.02" gradientUnits="userSpaceOnUse"><stop stop-color="#1A1E21"/><stop offset="1" stop-color="#06060A"/></linearGradient><linearGradient id="bnypek4j0" x1="15" y1="35.42" x2="28.59" y2="35.21" gradientUnits="userSpaceOnUse"><stop stop-color="#FBC638"/><stop offset=".55" stop-color="#F9D07C"/><stop offset="1" stop-color="#FEE1AA"/></linearGradient><linearGradient id="cnypek4j0" x1="15" y1="22.25" x2="28.59" y2="22.05" gradientUnits="userSpaceOnUse"><stop stop-color="#F7BC4B"/><stop offset=".33" stop-color="#E2A92D"/><stop offset=".6" stop-color="#FEF7C0"/><stop offset=".82" stop-color="#F7C35B"/><stop offset="1" stop-color="#F4B43F"/></linearGradient><linearGradient id="dnypek4j0" x1="41" y1="22.25" x2="28.59" y2="22.03" gradientUnits="userSpaceOnUse"><stop stop-color="#DCA220"/><stop offset=".4" stop-color="#ECC566"/><stop offset=".6" stop-color="#FEF7C0"/><stop offset=".82" stop-color="#FBD37E"/><stop offset="1" stop-color="#F5A927"/></linearGradient><linearGradient id="enypek4j0" x1="41" y1="35.42" x2="28" y2="35.21" gradientUnits="userSpaceOnUse"><stop stop-color="#FBC638"/><stop offset=".4" stop-color="#FED370"/><stop offset="1" stop-color="#FEC615"/></linearGradient></defs></svg>