<!-- by TradingView --><svg width="18" height="18" viewBox="0 0 18 18" xmlns="http://www.w3.org/2000/svg"><path fill="url(#aitw05442)" d="M0 0h18v18H0z"/><path d="M6.9 9.43h1.43L7.8 11H6.28a2.64 2.64 0 0 1-2.42-1.52h1.43c.25.23.58.37.95.37h.51l.14-.42Zm-2.03-.96c.04-.68.64-1.22 1.37-1.22h1.93L8.61 6H6.28a2.57 2.57 0 0 0-2.63 2.7l1.22-.23Z" fill="url(#bitw05442)"/><path fill-rule="evenodd" d="M6.75 9.85h-.51c-.37 0-.7-.14-.95-.37H3.86l.04.09A2.65 2.65 0 0 0 6.28 11H7.8l.53-1.57H6.9l-.14.42Zm.2-.33-.13.41h-.58a1.5 1.5 0 0 1-.98-.36H4c.41.8 1.28 1.34 2.28 1.34h1.46l.47-1.4H6.96ZM4.8 8.4c.07-.7.7-1.22 1.45-1.22H8.1l.37-1.1h-2.2A2.48 2.48 0 0 0 3.74 8.6l1.05-.2Zm.08.07c.04-.68.64-1.22 1.37-1.22h1.93L8.61 6H6.28a2.57 2.57 0 0 0-2.63 2.7l1.22-.23Z" fill="url(#citw05442)"/><path d="M8.82 7.8 2.14 9.26h6.23l.45-1.48Z" fill="#D11F2F"/><path fill-rule="evenodd" d="M2 9.27h6.37l.45-1.48L2 9.27Zm1.1-.1h5.2l.4-1.26-5.6 1.27Z" fill="#F8F8F8"/><path d="m8.87 6-.4 1.25h1.35L8.47 11h1.48l1.28-3.75h1.19l.4-1.25H8.87Z" fill="url(#ditw05442)"/><path d="m13.1 6-.44 1.26c.79 0 1.13.28 1.13.84 0 .45-.46.7-.68.77h-1.33L13.11 11h1.4l-.72-1.14c.4-.17 1.21-.76 1.21-1.81 0-1.5-1.27-2-1.9-2.05Z" fill="url(#eitw05442)"/><path fill-rule="evenodd" d="M13.87 9.82c.41-.2 1.13-.79 1.13-1.77 0-1.5-1.27-2-1.9-2.05l-.44 1.26h.1c.72.02 1.03.3 1.03.84 0 .45-.46.7-.68.77h-1.33L13.11 11h1.4l-.72-1.14.08-.04Zm.48 1.1-.69-1.1.1-.04a1.93 1.93 0 0 0 1.12-1.73c0-.72-.3-1.2-.67-1.5a2.19 2.19 0 0 0-1.04-.46l-.38 1.08c.34.02.6.09.79.23.2.16.3.4.3.7 0 .26-.13.46-.29.6-.15.13-.33.2-.46.24h-1.19l1.22 1.97h1.2Z" fill="url(#fitw05442)"/><path d="m12.94 5.95.34-.95-.55.84-.95-.34.84.55-.34.95.55-.84.95.34-.84-.55ZM8.79 7.89l.17-.45-.27.4-.46-.16.4.26-.16.45.27-.4.46.16-.4-.26Z" fill="#FEFEFE"/><path d="M8.08 13h-.2l.48-1h.22l-.5 1Z" fill="#D11F2F"/><path opacity=".5" d="M9 13v-1h5v1H9Z" fill="#EEE"/><defs><linearGradient id="aitw05442" x1="3.35" y1="3.12" x2="21.9" y2="24.43" gradientUnits="userSpaceOnUse"><stop stop-color="#1A1E21"/><stop offset="1" stop-color="#06060A"/></linearGradient><linearGradient id="bitw05442" x1="6.13" y1="6" x2="6.13" y2="11" gradientUnits="userSpaceOnUse"><stop stop-color="#A5A4A8"/><stop offset=".41" stop-color="#fff"/><stop offset=".44" stop-color="#88878D"/><stop offset="1" stop-color="#EFEFEF"/></linearGradient><linearGradient id="citw05442" x1="6.13" y1="6" x2="6.13" y2="11" gradientUnits="userSpaceOnUse"><stop stop-color="#fff"/><stop offset="1" stop-color="#fff" stop-opacity="0"/></linearGradient><linearGradient id="ditw05442" x1="10.64" y1="6" x2="10.64" y2="11" gradientUnits="userSpaceOnUse"><stop stop-color="#9B9B9E"/><stop offset=".41" stop-color="#fff"/><stop offset=".44" stop-color="#88878D"/><stop offset="1" stop-color="#EFEFEF"/></linearGradient><linearGradient id="eitw05442" x1="13.37" y1="6" x2="13.37" y2="11" gradientUnits="userSpaceOnUse"><stop stop-color="#A5A4A8"/><stop offset=".4" stop-color="#fff"/><stop offset=".44" stop-color="#88878D"/><stop offset="1" stop-color="#EFEFEF"/></linearGradient><linearGradient id="fitw05442" x1="13.37" y1="6" x2="13.37" y2="11" gradientUnits="userSpaceOnUse"><stop stop-color="#fff"/><stop offset="1" stop-color="#fff" stop-opacity="0"/></linearGradient></defs></svg>