<!-- by TradingView --><svg width="18" height="18" viewBox="0 0 18 18" xmlns="http://www.w3.org/2000/svg"><path fill="#F0F3FA" d="M0 0h18v18H0z"/><path d="M11 6.78 10.14 6 8 11.22l.88.78L11 6.78Zm-2.52.19L7 6l1.55 3L9 8.01l-.52-1.04Z" fill="#403D3A"/><path d="M2.2 8.46a.9.9 0 0 0 0 1.12l1.82 2.19c.26.3.67.3.93 0L6.8 9.54a.9.9 0 0 0 0-1.12L5.66 7.05l-1.3 1.57.3.37.58-.7.58.73-1.3 1.57-1.34-1.57 2.06-2.53-.26-.26a.58.58 0 0 0-.93 0L2.2 8.46Zm9 0a.9.9 0 0 0 0 1.12l1.82 2.19c.26.3.67.3.93 0l1.86-2.23a.9.9 0 0 0 0-1.12l-1.15-1.37-1.3 1.57.3.37.58-.7.58.73-1.3 1.57-1.34-1.57 2.06-2.53-.26-.26a.58.58 0 0 0-.93 0L11.2 8.46Z" fill="#7E1C1C"/></svg>