<!-- by TradingView --><svg width="18" height="18" viewBox="0 0 18 18" xmlns="http://www.w3.org/2000/svg"><path fill="#F0F3FA" d="M0 0h18v18H0z"/><path d="M5.63 8.59 5 8.64v.72l.63.05V8.6Zm6.74 0 .63.05v.72l-.63.05V8.6Zm-5.06 3.35-.2.6.67.29.3-.57-.77-.32Zm2.62-6.2.3-.57.66.28-.2.6-.76-.31Zm.76 6.2.2.6-.67.29-.3-.57.77-.32Zm-2.62-6.2-.3-.57-.66.28.2.6.76-.31Zm4.05 4.58.52.37-.36.62-.57-.27.41-.72ZM6.3 6.96l-.58-.27-.36.62.52.37.41-.72Zm-.42 3.36-.52.37.36.62.57-.27-.41-.72Zm5.82-3.36.58-.27.36.62-.52.37-.41-.72Z" fill="#BF9E24"/><path fill-rule="evenodd" d="M5.89 3.57h1.86V3H5.67L4 5.03v7.98L5.63 15H7v-.57H5.87l-1.3-1.67V5.23l1.32-1.66Zm.91 11.07H5.78l-1.4-1.81V5.15l1.41-1.79h1.76V3.2H5.76L4.2 5.1v7.83l1.52 1.87H6.8v-.16Zm5.31-11.07h-1.86V3h2.08L14 5.03v7.98L12.37 15H11v-.57h1.13l1.3-1.67V5.23l-1.32-1.66Zm-.91 11.07h1.02l1.4-1.81V5.15l-1.41-1.79h-1.76V3.2h1.79l1.56 1.9v7.83l-1.52 1.87H11.2v-.16Z" fill="#BF9E24"/><path d="M8.86 8c.62.05 1.18.22 1.51.36l.03.02-.02.02-.03.08a.59.59 0 0 0-.03.17v.04l-.03-.01c-1.53-.69-2.63-.11-2.99.26l-.03-.03.25-.41H7l.06-.04c.53-.4 1.19-.49 1.8-.45Zm-1.28.5-.19.3c.46-.37 1.5-.79 2.89-.18 0-.05 0-.1.02-.13a4.6 4.6 0 0 0-1.84-.27 1.7 1.7 0 0 0-.88.27Zm2.73-.05.02-.05c-.33-.15-.88-.3-1.47-.34-.58-.04-1.2.05-1.72.4h.42c.14-.12.44-.25.9-.29.46-.04 1.08.02 1.85.28Z" fill="#BF9E24"/><path d="M10.6 8.14c-.12-.06-.2.16-.21.28-.07.02-.08.17-.08.24-.02.1-.06.29 0 .33.08.06.08-.23.14-.28.06-.04.5.3.55.2.05-.1-.4-.4-.43-.5-.04-.09.2-.2.04-.27Z" fill="#BF9E24"/><path fill-rule="evenodd" d="M8.98 12.5A3.48 3.48 0 0 0 12.5 9c0-1.97-1.55-3.5-3.52-3.5A3.43 3.43 0 0 0 5.5 9c0 1.96 1.5 3.5 3.48 3.5ZM9 12a3 3 0 1 0 0-6 3 3 0 0 0 0 6Z" fill="#D8C88F"/><path d="m7.64 10.09-.02-.17c.07.02.1.02.15.07.1.1.06.18.02.29-.04.09-.05.12-.15.13.03-.23.06-.08 0-.32Zm-.28-.86.07.01v-.07l.05.01.05.03c-.02.11-.13.3-.17.41.08.08.06 0 .05.12-.1.05-.08.02-.13-.03l-.04-.07-.18.06.01-.2.12-.09.02-.02.02-.03c.1.1-.03.05.14.06-.03-.08-.02-.06-.07-.1.12-.05.03.01.06-.09Zm.06-.06h-.06v.06h-.1c-.07.13-.16.11-.25.26-.03.22 0 .36.15.46.07.1.07 0 .18.08l.13.16c.16.27-.04.22-.05.44l-.06.03c-.27.2-.28.08-.29.28.13.05.38.09.41-.13.11-.05.2-.16.36-.18.18-.02.25.05.4-.06l.1-.05c.1.07-.01-.01.07.08l.07.06c0-.09 0-.22-.07-.27l.04-.23h-.17v-.05c.03-.02.03.07.06-.04l.02-.02.04-.06.02-.08-.01-.21.06-.17v-.06c.19.05.14.1.39.05.12-.03.28-.03.4-.01.16.03.23.08.36.12.16.05.23.02.35.02H10l.04.02h.03c-.04.03 0 .02-.07.03l-.27-.02c.02.23.3.63.34.66 0 .08 0 .09.04.14.08.1.08.03.15.17.02.04 0 .03.03.07l.03.03c0 .08.01.09-.05.12-.05-.06-.03-.1-.09-.15l-.06-.08-.06-.07h-.1c0-.02-.32-.37-.37-.4-.1-.07-.16-.07-.26-.15-.14-.12-.13-.32-.37-.15h-.02c-.35.26-.26 0-.48-.12.01.2.04.09.06.29.03.2.18.58.06.78-.1-.05-.05.04-.08-.17-.14.16-.17.18-.19.29.09.07.22.06.34.02.06-.17.01-.34.01-.52.1-.1.12-.08.24-.14.12-.05.13-.08.27-.05.04.08.1.15.11.26.04.09.03.04.06.13l-.04.13c-.06.03-.1.02-.15.05-.1.05-.07.05-.08.17l.31-.02.06-.1c.18-.09.17-.28.17-.41l.1.03.25.07c.03.12.02.08.13.13l.02.08c-.08.08-.15.07-.12.21.16.03.26.03.38-.02l.01-.21c-.02-.17-.03-.16-.14-.25-.09-.06-.02 0-.1-.1-.03-.04 0-.04-.07-.06-.02-.24-.17-.32-.2-.52.07 0 .34-.03.5.06.24.1.42.24.46.4l.01.08c-.14.03-.26.18-.26.38.14 0 .1.02.22-.07.2-.16.25-.24.15-.5-.31-.46-.61-.53-1.13-.6-.22-.03-.41-.16-.68-.18-.15-.02-.25.03-.37.05-.2.03-.18-.04-.3-.03l-.04-.1v-.02c-.03-.03-.02-.04-.09-.07-.07-.03-.04 0-.09 0-.07-.01-.1-.06-.16-.08-.07-.02-.05.03-.13-.02H7.9V9c-.18.03-.47-.09-.48.17Zm2.08 1.46c-.04.16-.03.12-.11.18.03-.25 0-.18.08-.25l.03.07Zm-2.02.18h-.1c.03-.06.04-.1.04-.18.15-.03.06-.12.18-.08 0 .02.1-.01-.02.13-.07.08-.06 0-.1.13Zm3.21-.19c.02-.16-.05-.06.08-.15l.14-.06c-.08.14-.09.16-.22.21Zm-2.77-.85v-.13c.06-.15 0-.05.1-.06.06.11.05.14.01.27l.03.1c.03.07.1.16-.04.23-.09-.14-.06-.1 0-.26-.13.1-.05-.03-.08.12l-.01.12s-.15.02-.01-.24v-.15Zm-.76.18.02-.12h.1l-.1.11-.02.01Zm.52-.08c0-.26.03-.29.13-.35.06.12.03.31-.13.35Zm-.08-.5c.03.04.05.03 0 .1-.07-.09-.02-.07 0-.1Zm.29-.13c-.01.1-.01.13-.12.15v-.2c.13 0 .02-.02.12.05Zm-.25-.07c0 .12 0 .01-.04.06-.07-.08-.07-.05 0-.15.02.02.04 0 .04.09Z" fill="#BF9E24"/><path fill="#BF9E24" fill-opacity=".5" d="M8 14h2v1H8z"/><path fill="#D8C88F" d="M7 7h4v1H7zm1-4h2v1H8z"/></svg>