<!-- by TradingView --><svg width="56" height="56" viewBox="0 0 56 56" xmlns="http://www.w3.org/2000/svg"><path fill="#F0F3FA" d="M0 0h56v56H0z"/><path fill="url(#aiywwdtpv)" d="M26 15h4v1h-4z"/><path fill="url(#biywwdtpv)" d="M25 33h6v2h-6z"/><path d="M28.01 34H28c-1.82-.04-6.13-.59-8.99-2.47 0-1.65 1.89-11.04 2.83-15.53h12.34C35.11 20.49 37 29.88 37 31.53c-2.86 1.88-7.17 2.43-8.99 2.47Z" fill="#676D6C" fill-opacity=".7"/><path fill="url(#ciywwdtpv)" d="M14 24h29v4H14z"/><path d="M37.14 35.03C38.24 34.68 41 33.81 41 26c0-7.73-3.02-11.22-10-12h13v22h-8.26a3.2 3.2 0 0 1 1.35-.95l.03-.01h.02Z" fill="url(#diywwdtpv)"/><path d="M20.34 36H12V14h13c-6.86.78-10 4.27-10 12 0 7.81 2.88 8.68 3.97 9.03l.04.02a3.1 3.1 0 0 1 1.33.95Z" fill="url(#eiywwdtpv)"/><path d="M14.37 36v3.28c.06.27-.06.8-1.04.8v.64h.63c.1.09.44.27 1.04.27.76 0 2.5-.44 3.34-1.08l.06.04c.79.47 2.26 1.35 3.83 1.35 1.6 0 4.2-.58 5.42-1.39 1.22-.8 2.43-1.68 2.43-2.11 0-.44-.28-.75-.75-.75-.48 0-1.1.5-1.1.92 0 .23.12.28.21.31.08.03.15.06.15.18 0 .26-2.32 1.81-5.64 1.81-2.64 0-3.66-.66-3.83-.99.18-.24.55-.88.55-1.48 0-.75-.79-.75-1.33-.75-.42 0-2.28 1.36-3.15 2.04L15 36h-.63Zm.86 3.93c.68-.67 2.2-2.01 2.9-2.01.38 0 .66.06.66.46s-1.27 1.75-3.56 1.55Z" fill="#106768"/><circle cx="16.5" cy="36.5" r=".5" fill="#106768"/><circle cx="26.5" cy="37.5" r=".5" fill="#106768"/><path d="M31 37.98V36h.59v1.98c0 1 1.29 2.22 3.18 2.22 1.88 0 4.8-1.61 4.8-1.87s-.06-.35-.68-.35c-.63 0-.84.14-1.25.6-.42.47-.8.55-.8.16 0-.4 1.16-1.44 1.83-1.44.68 0 1.86 0 2.62.13s1.71.11 1.71.55c-3.77.59-5.16 3.02-8.35 3.02A3.6 3.6 0 0 1 31 37.98Z" fill="#106768"/><path fill="url(#fiywwdtpv)" d="M21 22h14v7H21z"/><path d="M23.34 24h-.83L22 27h.83l.23-1.39c.15-.06.33-.1.51-.1.42 0 .55.2.57.36L23.92 27H25v-.14c-.08-.05-.24-.17-.29-.3-.02-.07.02-.15.09-.26.08-.15.2-.35.2-.65 0-.52-.55-.65-.69-.65h-1.14l.17-1Zm10.02 1c.12 0 .64.12.64.6 0 .28-.1.51-.19.69-.06.13-.1.23-.08.3.05.12.2.24.27.28V27h-1.2l.4-1.06a.51.51 0 0 0-.54-.47l-.13.01-.21 1.51h-.6l.16-1.15c.01-.18-.01-.4-.16-.4-.19 0-.35.31-.41.47l-.15 1.08H30c0-.05.03-.18.18-.24.19-.09.52-.55.52-.97 0-.23-.1-.28-.2-.32-.07-.03-.14-.06-.14-.18 0-.22.15-.27.22-.27l2.78-.01Zm-5.98-1h.9l-.2 1H29v.56h-1.02l-.15.83c.02.18.11.32.35.32V27h-1.36l.27-1.44H26V25h1.2l.18-1Z" fill="#FCFCFC"/><path fill-rule="evenodd" d="M44 36H12v6h32v-6Zm-1 .4H13v5.2h30v-5.2Z" fill="#60605F"/><defs><linearGradient id="aiywwdtpv" x1="28" y1="15" x2="28" y2="16" gradientUnits="userSpaceOnUse"><stop offset=".45" stop-color="#E37B49"/><stop offset="1" stop-color="#F6994B"/></linearGradient><linearGradient id="biywwdtpv" x1="28" y1="33" x2="28" y2="35" gradientUnits="userSpaceOnUse"><stop offset=".45" stop-color="#E37B49"/><stop offset="1" stop-color="#F6994B"/></linearGradient><linearGradient id="ciywwdtpv" x1="28.5" y1="24" x2="28.5" y2="28" gradientUnits="userSpaceOnUse"><stop stop-color="#006464"/><stop offset="1" stop-color="#00393A"/></linearGradient><linearGradient id="diywwdtpv" x1="31" y1="14.54" x2="31.15" y2="36.59" gradientUnits="userSpaceOnUse"><stop offset=".15" stop-color="#003334"/><stop offset=".47" stop-color="#006162"/><stop offset=".74" stop-color="#124446"/></linearGradient><linearGradient id="eiywwdtpv" x1="12" y1="19.62" x2="21.28" y2="21.63" gradientUnits="userSpaceOnUse"><stop stop-color="#003334"/><stop offset=".42" stop-color="#006162"/><stop offset="1" stop-color="#124446"/></linearGradient><linearGradient id="fiywwdtpv" x1="28" y1="22" x2="28" y2="29" gradientUnits="userSpaceOnUse"><stop stop-color="#00393A"/><stop offset="1" stop-color="#006464"/></linearGradient></defs></svg>