<!-- by TradingView --><svg width="56" height="56" viewBox="0 0 56 56" fill="none" xmlns="http://www.w3.org/2000/svg">
<rect width="56" height="56" fill="#F0F3FA"/>
<path d="M31.8034 14H33.319C35.1954 14.0381 37.0683 14.2075 38.9008 14.6255C39.2025 14.6944 39.5823 14.7983 40.0404 14.937C40.4124 15.0496 40.7522 15.1887 41.1014 15.3224C41.2168 15.3666 41.347 15.4347 41.4832 15.4948C43.3461 16.3183 44.8449 17.7279 45.539 19.6752C46.5451 22.4963 45.7508 25.8993 44.627 28.5608C43.9663 30.1263 43.1656 31.6429 42.2251 33.1108C40.4792 35.8365 38.4396 38.2946 36.1064 40.4852C34.6551 41.8478 33.074 43.0741 31.2598 43.9309C29.8826 44.5816 28.4069 44.938 26.8329 45H26.132C22.035 44.8459 18.4271 42.6137 15.6857 39.7108C12.5942 36.4369 10.2182 31.984 10 27.4087V26.5995C10.0804 24.6617 10.5856 22.8234 11.6695 21.2145C13.3054 18.7858 15.9158 17.1928 18.6075 16.1807C21.2922 15.1713 24.125 14.6008 26.9852 14.2947C28.6135 14.1204 30.2196 14.0222 31.8034 14Z" fill="url(#paint0_linear_229_27621)"/>
<path d="M34.0001 27.335C34.0001 27.335 36.0878 25.2498 37.4613 23.9848C37.7552 23.7139 38.0496 23.3903 38.3443 23.014C38.35 23.0069 38.3574 23.0033 38.3666 23.0033H40.8602L40.8645 23.0047L40.8667 23.0085L40.8659 23.0128L40.8624 23.0155C40.6913 23.0702 40.5307 23.1466 40.3803 23.2449C39.8898 23.5661 39.4391 23.9507 39.008 24.344C38.0096 25.2552 36.4652 26.7189 35.4739 27.6361C35.4707 27.639 35.4689 27.643 35.4686 27.6472C35.4684 27.6515 35.4699 27.6556 35.4727 27.6588C36.502 28.8831 37.5555 30.0884 38.6333 31.2747C39.2805 31.9874 40.1791 32.8117 41.2129 32.7958C41.259 32.795 41.3612 32.7743 41.5195 32.7336L41.5237 32.7335L41.5268 32.7363L41.5269 32.7405L41.524 32.7435C40.9765 33.1209 40.272 33.2693 39.6132 33.2693C38.5008 33.2693 37.6333 32.5581 36.955 31.7712C35.3386 29.8963 34.0001 28.1589 34.0001 28.1589V31.9545C34.0001 32.4293 34.2405 32.9816 34.219 33.0001L31.7447 33C31.7352 33 31.999 31.4947 32.0001 30.9457C32.0066 27.9081 32.0044 24.8705 32.0001 21.8331C31.9997 21.4563 31.9989 21.08 31.9692 20.7044C31.9385 20.3129 31.8675 19.8995 31.6371 19.5691L31.6357 19.5654L31.6362 19.5615L31.6383 19.5583L31.6417 19.5565C33.5097 19.1081 34.0001 19.0164 34.0001 19.0164V27.335Z" fill="white"/>
<path d="M16.0824 33.4281C15.3214 33.2034 14.6936 32.566 14.6699 31.6857C14.6442 30.7351 15.3568 30.1873 16.0532 29.786C16.055 29.785 16.0565 29.7834 16.0575 29.7814C16.0585 29.7795 16.059 29.7773 16.0589 29.7751C16.0588 29.7728 16.058 29.7707 16.0568 29.7689C16.0556 29.7671 16.0539 29.7657 16.052 29.7649C14.3788 29.0541 13.5764 27.1204 14.2237 25.3254C14.9886 23.2048 17.3967 22.6544 19.2357 23.1931C19.8046 23.3595 20.2734 23.4951 20.7838 23.5187C21.4231 23.548 22.1345 23.4973 22.7762 23.3274C22.7866 23.3246 22.7918 23.329 22.7918 23.3406V24.6323C22.7918 24.6421 22.7873 24.6465 22.7782 24.6452C22.1867 24.5672 21.593 24.5247 20.9969 24.5175C20.9861 24.5173 20.9841 24.5217 20.991 24.5308C21.9962 25.8272 22.0086 27.6953 20.9251 28.9334C20.0423 29.9424 18.6248 30.2087 17.3941 30.0804C17.3196 30.0726 17.2536 30.0764 17.1961 30.0918C16.7208 30.2191 16.2473 30.6288 16.255 31.1937C16.2651 31.9309 17.1742 31.9542 17.6843 31.9955C18.6091 32.0705 19.5366 32.1279 20.4569 32.2527C20.845 32.3057 21.2821 32.4031 21.6176 32.5351C22.4428 32.8601 23.0173 33.7193 22.9996 34.6709C22.9833 35.5623 22.4546 36.4187 21.784 36.9138C20.5613 37.8162 18.8793 38.0955 17.426 37.9726C16.2961 37.8771 14.8792 37.5017 14.2639 36.3979C13.5926 35.1941 14.7338 34.1921 15.6128 33.6985C15.7682 33.6111 15.9253 33.5266 16.0839 33.4451C16.0977 33.438 16.0972 33.4323 16.0824 33.4281ZM19.4538 28.4799C20.159 27.7124 20.1723 26.3662 19.7916 25.4366C19.4908 24.7019 18.8917 24.2399 18.1566 24.1207C17.6291 24.035 17.0332 24.1195 16.5789 24.4302C15.7136 25.0222 15.564 26.1991 15.7898 27.1961C15.9533 27.9185 16.4028 28.5631 17.045 28.8464C17.7955 29.1771 18.8503 29.1367 19.4538 28.4799ZM16.5872 36.2611C17.6731 36.9075 19.1057 36.9308 20.2752 36.5763C20.9747 36.3641 21.8753 35.7344 21.6031 34.8058C21.3043 33.7868 19.5259 33.7259 18.7445 33.7083C18.4225 33.7012 17.8358 33.6512 16.9844 33.5586C16.9565 33.5556 16.9341 33.5588 16.9174 33.568C16.4551 33.8224 15.8912 34.293 15.7815 34.8386C15.6547 35.468 16.1129 35.9783 16.5872 36.2611Z" fill="white"/>
<path d="M26.2791 28.3132C24.9914 27.7046 23.8669 26.8698 24.1407 25.2715C24.3494 24.0538 25.4339 23.3618 26.5961 23.1187C27.8495 22.8566 29.1991 23.0282 30.3264 23.6359C30.3345 23.6402 30.3385 23.647 30.3385 23.6562V25.0135C30.3386 25.0155 30.338 25.0176 30.3368 25.0193C30.3357 25.021 30.3341 25.0224 30.3322 25.0233C30.3303 25.0242 30.3282 25.0245 30.3261 25.0243C30.324 25.0241 30.322 25.0233 30.3204 25.022C29.3957 24.3112 28.1431 23.9371 26.9652 24.1851C26.6643 24.2486 26.3547 24.3794 26.1363 24.5789C25.6665 25.0082 25.7411 25.7111 26.1657 26.1487C26.5694 26.565 27.1065 26.8671 27.6154 27.1157C28.4258 27.5118 29.2674 27.8912 29.9892 28.4307C30.5487 28.8489 30.9566 29.4137 30.9955 30.1127C31.1089 32.1509 29.0787 32.9499 27.3412 32.9969C26.1851 33.028 25.0762 32.8251 24.0146 32.388C24.0049 32.3839 24 32.3768 24 32.3666V30.9866C24 30.9712 24.0071 30.9671 24.0212 30.9743C24.8706 31.4125 25.7327 31.6935 26.6076 31.8171C27.4386 31.9343 29.0772 31.8688 29.1555 30.7222C29.2146 29.8553 28.3903 29.3249 27.6924 28.9882C27.2226 28.7613 26.7515 28.5363 26.2791 28.3132Z" fill="white"/>
<defs>
<linearGradient id="paint0_linear_229_27621" x1="14.3741" y1="38.5532" x2="46.02" y2="21.2533" gradientUnits="userSpaceOnUse">
<stop stop-color="#E63B12"/>
<stop offset="0.530475" stop-color="#ED6F04"/>
<stop offset="1" stop-color="#FECD33"/>
</linearGradient>
</defs>
</svg>
