<!-- by TradingView --><svg width="56" height="56" viewBox="0 0 56 56" xmlns="http://www.w3.org/2000/svg"><path fill="#F0F3FA" d="M0 0h56v56H0z"/><ellipse cx="28" cy="28" rx="20" ry="10" fill="#E77918"/><path d="M47 28c0 5.52-8.06 9.5-18 9.5S11 33.52 11 28s8.06-9.5 18-9.5 18 3.98 18 9.5Z" fill="#FEF501"/><path d="M47 28c0 4.97-7.16 9-16 9s-16-4.03-16-9 7.16-9 16-9 16 4.03 16 9Z" fill="#DA251C"/><path d="M39.1 20.24v5.88l1.25-5.42.19.07-1.25 5.43 2.44-4.88.17.1-2.48 4.96 3.78-4.2.17.11-3.42 3.8 4.07-3.32.16.12-4.5 3.69 5.63-2.6.14.15-5.68 2.62 6.61-1.24.1.2-6.4 1.19h6.8l.04.2h-7.06l7.08 1.67-.03.2-7.19-1.7 6.52 3.48-.1.17-6.49-3.46 5.35 4.9-.14.14-5.46-5 3.66 6.41-.16.1-3.63-6.33 1.83 7.3-.2.04-1.8-7.2v7.94l-.2.07v-7.87l-1.76 8.35-.21.05 1.85-8.8-5.61 9.36-.25.02 5.47-9.11-8.29 9.16a28 28 0 0 1-.26-.01l8.41-9.3-12.03 8.91-.27-.05 12.17-9.02-16.47 7.78-.25-.1 16.53-7.8-20.31 5.54-.18-.16 20.2-5.51-22.25 2.72a5.84 5.84 0 0 1-.07-.2l22.44-2.74-22.42-.9.07-.2 22.33.9-19.9-3.98.22-.16 19.57 3.91-16.39-5.75.28-.12 16.01 5.63-13.15-6.58.3-.07 12.93 6.46-10.4-6.94.3-.03 10.37 6.92-7.95-7.12h.3l8.08 7.23-5.39-7.19.27.02 5.22 6.97-3.38-6.76.24.03 3.38 6.76-1.72-6.44.22.05 1.75 6.55v-6.07l.2.07Z" fill="#ED8522"/><path d="M21.5 27v1h-3v-1h3ZM19 25v5h-1v-5h1Zm3 0v5h-1v-5h1ZM25.1 25.76 24 30h-1l1.5-5h.67l-.07.76Zm.98 4.24-1.19-4.24-.07-.76h.68l1.5 5h-.92Zm0-2v1h-2.33v-1h2.33ZM30.09 28.58c0-.1-.02-.18-.06-.25a.55.55 0 0 0-.22-.2c-.1-.07-.25-.13-.45-.18a2.85 2.85 0 0 1-.5-.2 1.67 1.67 0 0 1-.4-.3c-.1-.12-.2-.26-.26-.41a1.7 1.7 0 0 1 0-1.12c.07-.18.16-.34.28-.47.12-.14.27-.25.44-.33.18-.08.38-.12.6-.12.3 0 .56.07.78.2.22.13.4.32.51.55.12.23.18.5.18.8h-.94a.9.9 0 0 0-.06-.34.48.48 0 0 0-.48-.32c-.1 0-.2.02-.27.07a.48.48 0 0 0-.17.2.6.6 0 0 0-.06.27c0 .07 0 .14.03.2.03.05.06.1.12.15.05.05.11.1.2.14l.3.1c.26.07.49.17.69.28.2.12.36.27.47.47.12.2.18.44.18.76 0 .21-.03.4-.1.59-.07.18-.17.33-.3.47a1.4 1.4 0 0 1-.47.3c-.18.07-.38.11-.61.11-.33 0-.6-.08-.83-.24-.23-.16-.4-.36-.52-.61-.11-.25-.17-.5-.17-.77h.89c0 .18.04.32.1.43.06.1.14.18.23.23.1.05.2.07.32.07s.22-.02.3-.07a.48.48 0 0 0 .18-.19.57.57 0 0 0 .07-.27ZM45 29v1h-2.38v-1H45Zm-2-4v5h-1v-5h1ZM34 29c.44 0 1-.56 1-1h1c0 1.03-1 2-2 2-1.38 0-2-1.15-2-2.43v-.13c0-1.28.62-2.44 2-2.44 1.09 0 2 .9 2 2h-1c0-.45-.52-1-1-1-.76 0-1 .85-1 1.44v.13c0 .6.23 1.43 1 1.43ZM37 27.55v-.1c0-1.2.64-2.45 2-2.45 1.35 0 2 1.24 2 2.46v.09c0 1.21-.65 2.45-2 2.45s-2-1.23-2-2.45Zm1-.1v.1c0 .58.25 1.45 1 1.45.73 0 1-.88 1-1.45v-.1c0-.56-.27-1.45-1-1.45s-1 .89-1 1.46Z" fill="#221671"/></svg>