<!-- by TradingView --><svg width="18" height="18" viewBox="0 0 18 18" fill="none" xmlns="http://www.w3.org/2000/svg">
<rect width="18" height="18" fill="#00A897"/>
<path fill-rule="evenodd" clip-rule="evenodd" d="M3 7H4V11H3V7ZM6 7H7V11H6V9.28584H4.15538L4.92895 8.4287H6V7ZM8 7V8.72267V9.16795V11.0001H10.884C11.5003 11.0001 12 10.4903 12 9.86137C12 9.44758 11.7837 9.08534 11.4601 8.88595C11.6737 8.68768 11.8078 8.4018 11.8078 8.08397C11.8078 7.48531 11.3321 7 10.7454 7H8ZM9 10V8H10.4897C10.6897 8 10.8519 8.14071 10.8519 8.31429C10.8519 8.48786 10.6897 8.62857 10.4897 8.62857H9.96296L9.23045 9.26429H10.5761C10.8102 9.26429 11 9.42898 11 9.63214C11 9.83531 10.8102 10 10.5761 10H9ZM13 7V11H15.318L16 10H14V7H13Z" fill="white"/>
</svg>
