<!-- by TradingView --><svg width="56" height="56" viewBox="0 0 56 56" xmlns="http://www.w3.org/2000/svg"><path fill="#181B1E" d="M0 0h56v56H0z"/><path d="M29.6 8.34c.79.61.2 1.61-.16 2.26a.15.15 0 0 0-.02.1c0 .05 0 .1-.04.14l-.02.02c-.04 0-.06-.04-.05-.06.1-.35.34-.72.41-.97.13-.42.1-1.13-.45-1.27-.55-.14-1.3.31-1.67.66a.07.07 0 0 1-.09 0c-.38-.34-.7-.66-1.16-.7-1.48-.1-.7 2.13-.48 2.72.03.05.11.07.16.03l.43-.39a.11.11 0 0 0 .04-.09c0-.15 0-.67.13-.75.04-.02.06-.01.06.03-.04.28-.12.74.17.84.04.01.06 0 .07-.03a.67.67 0 0 1 .24-.35c.02-.02.02-.05-.01-.07l-.23-.1a.06.06 0 0 1-.03-.06c-.03-.6 1.16-.44 1.55-.43.1 0 .12.12.04.15l-.66.3a.12.12 0 0 0-.07.07l-.04.14c-.01.04-.05.06-.09.05-.29-.08-.48.01-.58.26-.03.08.06.16.15.12.3-.15.93-.57 1.2-.26a.1.1 0 0 1 .04.08c-.06.6-.41.87-1.05.82-.27-.01-.44-.14-.51-.38a.1.1 0 0 0-.08-.06.48.48 0 0 1-.27-.16c-.02-.03-.04-.03-.06 0-.2.16-.4.46-.67.51-.14-.11-.17-.27-.09-.46a.12.12 0 0 0 0-.1c-.3-.77-.66-1.48-.42-2.1.29-.75 1.06-.8 1.69-.3.17.13.34.36.54.52.03.03.07.02.1 0 .44-.48 1.26-1.06 1.98-.73Zm-2.42 1.83c.25.15.47.14.67-.03.04-.03.01-.08-.03-.08l-.62.04c-.08 0-.09.03-.02.07Zm1.09.92a.2.2 0 0 0 .01-.1.24.24 0 0 0-.2-.2c-.18-.02-.76.3-.94.37l-.02.06c.2.31 1.03.18 1.15-.13Z" fill="#F9F9F9"/><path d="M25.48 12.21c-.07-.25.03-.46.31-.62 0 .11-.05.19-.15.24-.1.05-.05.18.05.18.47.01.4-.52.93-.6.03 0 .07 0 .1.02l.35.23c.5.34 1.34.13 1.82-.13.05-.02.04-.04 0-.06a.6.6 0 0 0-.4.02c-.05.02-.07 0-.05-.05.12-.35.73-.18 1-.1.09.03.1.15 0 .18-.88.28-1.75.9-2.65.29-.04-.02-.06-.02-.09.01-.13.2-.31.24-.53.1a.08.08 0 0 0-.05 0 .07.07 0 0 0-.05.02c-.18.23-.38.32-.6.27Zm.92-.54c-.03.01-.04.05-.02.07.05.04.1.05.17.04.03-.01.05-.05.02-.07a.2.2 0 0 0-.17-.04Z" fill="#F9F9F9"/><path d="m29.66 11.63.03.34a.68.68 0 0 1-.29.45.12.12 0 0 1-.1.01c-.1-.03-.2 0-.28.08a.1.1 0 0 1-.1 0 .32.32 0 0 0-.37.02.08.08 0 0 1-.1 0c-.4-.36-1.18.37-1.84-.11a.05.05 0 0 0-.07 0l-.18.17a.18.18 0 0 1-.12.05c-.13 0-.2-.04-.23-.15 0-.03-.05-.04-.07-.02a.5.5 0 0 1-.47.2c-.03 0-.05-.02-.07-.05-.04-.11-.02-.21.08-.3.28.6.67-.62 1.22-.14.53.45 1.11.08 1.7-.05.04 0 .07 0 .08.04.03.05.05.11.12.12.1.01.18-.03.21-.12l.02-.02c.02-.02.05-.01.06 0 .04.05.09.16.17.14.1-.01.14-.07.15-.15 0-.04.07-.08.09-.03 0 .03.04.06.09.09.13.08.23-.1.18-.2-.16-.32-.13-.45.09-.37Zm-3.47.66c0 .16.3.1.15-.03-.04-.03-.15-.04-.15.03Zm1.51-4.23c.07.11.06.2-.04.27-.04.03-.06.02-.06-.03l.01-.22c0-.1.04-.1.09-.02Z" fill="#F9F9F9"/><path d="m27.48 8.53.28-.07c.04 0 .06-.02.07-.06a.15.15 0 0 1 .08-.1c.03-.02.07 0 .06.04-.07.35-.79.61-.73.1 0-.04.04-.06.07-.05.01 0 .02 0 .03.02l.09.1c.01.02.03.03.05.02Zm1.85 4.2c-.05.07-.03.15.02.18.06.03.15 0 .2-.06.04-.06.03-.14-.03-.17-.06-.04-.15-.01-.2.05Z" fill="#F9F9F9"/><path d="M26.04 9.33a.4.4 0 0 0 .17-.02c.04-.01.07 0 .1.01.54.37.04.7-.22.98a.1.1 0 0 1-.09.03.63.63 0 0 1-.36-.15v-.02c-.01-.02 0-.04.03-.04l.18.04c.06 0 .08-.01.08-.06-.03-.29-.22-.66-.11-.9.35-.8 1.34-.1 1.7.25l.02.01a.07.07 0 0 0 .07-.01c.36-.34.66-.54.89-.6.42-.13.85.13.72.57 0 0 0 .02-.02.02a.05.05 0 0 1-.05 0l-.01-.02c-.05-.19-.17-.31-.38-.37-.43-.14-.96.35-1.24.63-.03.03-.06.03-.1 0-.38-.33-.8-.67-1.36-.61a.15.15 0 0 0-.09.04c-.08.07-.04.2.07.22Zm.11.21c-.1-.03-.14 0-.12.1.02.1.07.2.14.28.02.01.04.03.07.03.08.02.15-.04.15-.11 0-.15-.09-.25-.24-.3Z" fill="#F9F9F9"/><path d="M28.12 9.54a.76.76 0 0 1 .6-.27c.05 0 .06.02.04.07-.12.21-.31.31-.6.3-.07 0-.09-.04-.04-.1Zm1.11 0c.38.28.1.6-.02.9-.01.03-.03.04-.06.03-.04 0-.05-.02-.03-.05.12-.2.33-.53-.03-.66a.14.14 0 0 0-.11 0c-.02.01-.04 0-.05-.01-.02-.02-.02-.04 0-.06l.12-.13c.05-.06.11-.06.18-.02Zm-.51.7c-.05.1-.04.19.01.21.06.03.15-.02.2-.11.05-.1.05-.19 0-.21-.07-.03-.15.02-.2.11Zm.12.56c-.06.1-.05.21.01.24.06.03.16-.02.22-.12.06-.1.05-.2-.01-.23-.06-.03-.16.02-.22.12Z" fill="#F9F9F9"/><path fill-rule="evenodd" d="M26.2 19.22c.14.43.22.85.23 1.25l.04.66.01.05c.01.01.02.03.04.03.76.46 1.6.7 2.5.75.4 0 .78-.04 1.13-.15.6-.14 1.17-.24 1.68.2.03.03.05.03.08 0 .36-.42.13-.78-.34-.9-.35-.08-.7-.1-1.04-.05l-1.34.08h-.09c-.58-.05-1.25-.1-1.75-.38-.52-.38-.6-.9-.08-1.31.3-.25.67-.34 1.03-.42l.28-.07c.68-.18 1.39.18 1.86.65.02.02.02.04 0 .05-.59.27-1.62.47-2.1-.02a.16.16 0 0 0-.1-.04c-.26-.05-.73 0-.8.33-.2.93 2.44.7 3.51.6l.29-.03c.72-.05 1.41.25 1.55 1.08.01.26-.08.55-.27.85-.09.05-.12.11-.1.19.08.42.09.83.03 1.23-.05.35.03.59.33.73a.2.2 0 0 0 .11.02c.2-.03.33.04.41.2a.1.1 0 0 1 0 .1c-.15.5-.26 1.01-.31 1.54 0 .03.01.05.05.04l.42-.06a5.86 5.86 0 0 0 .8-.14c1.19-.29 2.1-.5 3.1.02l.74 1c.02.03.04.04.08.02l.36-.18a3.4 3.4 0 0 1 1.42-.53c1 .06 1.08.8 1.09 1.55v.25c0 .03.04.05.07.04l2.6-.84.06.01-1.63 2.64c-.01.04-.01.07.02.1l1.02 1.03.8.78c.02.03.02.05-.02.06-1.62.57-2.75.95-3.38 1.13-.1.03-.13 0-.29-.06-.34-.2-.3-.8-.3-1.1v-.39c0-.04-.02-.05-.06-.03l-1.19.62c-.5.22-1.15.5-1.7.58-.03 0-.05.03-.05.07v3.48c-.02 4.31-5.28 6.98-8.28 9.2-.67.5-1.1.22-1.65-.14l-.18-.12c-3.07-2.23-8.13-4.48-8.26-8.64-.04-1.14 0-2.65.03-3.78 0-.04-.01-.06-.05-.07-.97-.13-1.61-.6-2.46-1.13-.04-.03-.06-.02-.06.03v.23c.02.6.05 1.44-.89 1.14-1.05-.33-2.1-.66-3.17-.98-.03-.01-.04-.03-.01-.06l1.68-1.86c.03-.04.03-.07 0-.11l-.7-1.15-.9-1.37v-.02a.03.03 0 0 1 .03-.03h.01l2.84 1.02a.04.04 0 0 0 .04-.02v-.32c-.02-.76-.05-1.6 1-1.6.6.13 1.16.38 1.7.72.04.03.06.02.07-.02.25-1.07 1.05-1.61 2.11-1.42 1.01.17 2.05.33 3.1.47.05 0 .07-.07.02-.09-.25-.05-.8-.24-.64-.6.08-.2.25-.22.44-.25.17-.02.36-.05.48-.23.17-.25.14-.78.12-1.13v-.1c-.03-.15-.1.14-.1.16l-.02.04a.08.08 0 0 1-.13 0l-.18-.3-.24-.49a3.5 3.5 0 0 1-.15-1.41c0-.04 0-.08-.03-.11a1.08 1.08 0 0 1-.08-.91.16.16 0 0 0 0-.12.6.6 0 0 1 .08-.63c.02-.04.02-.07 0-.1-.23-.3.23-.96.41-1.15a.2.2 0 0 0 .05-.1c.07-.3.41-.58.66-.74.75-.5 1.65-.18 2.11.54.1.15.2.25.32.35l.08.09Zm-1.83-.24c-.02.55-.53.57-1 .5-.03 0-.06 0-.08.04l-.3.41c-.07.1-.22 0-.16-.1.07-.14.17-.26.3-.36.03-.02 0-.07-.03-.06a.72.72 0 0 0-.42.72c0 .08.1.13.17.06l.31-.31.03-.02c.04 0 .08.02.09.06.02.11-.02.22-.05.32-.04.11-.08.23-.04.34l.11.45c.12.5.24 1 .71 1.36.14.1.22.07.26-.1a.73.73 0 0 0 0-.22c0-.09.2-.1.2 0l.04.3c0 .06.08.1.14.06.56-.36.92-1.41.82-2.05-.02-.1.09-.2.19-.15l.23.11a.04.04 0 0 0 .05-.05.6.6 0 0 0-.42-.25c-.1-.01-.12-.06-.08-.15.07-.14.07-.26-.01-.36a.08.08 0 0 0-.1-.03c-.51.12-.82-.04-.9-.5l.12-.45.01-.02c.02-.02.06 0 .06.03l.07.49c0 .02.02.03.04.04.06.01.1 0 .12-.06l.02-.02a.05.05 0 0 1 .07.02l.1.2c.04.08.15.1.22.03a.94.94 0 0 1 .4-.27c.03-.02.04-.04.02-.07-.7-1-1.74-.97-2.45.03-.04.05-.03.07.04.06.17-.03.31.01.42.14a.1.1 0 0 0 .04.03.1.1 0 0 0 .05 0c.14-.02.2-.1.21-.22 0-.08.1-.13.17-.08.12.1.1-.12.1-.25v-.07c0-.06.09-.05.08 0l.03.42Zm7.1 3c-.48-.19-.92-.09-1.38.02l-.24.06a5.38 5.38 0 0 1-3.27-.59c-.03-.01-.05 0-.06.04-.05.3-.16.56-.34.8a.17.17 0 0 0-.03.1c0 .44-.13.83-.4 1.16-.03.02-.08 0-.08-.03a.52.52 0 0 0-.07-.22c-.03-.03-.08-.02-.07.02.03.28-.28 1.08-.54 1.17a.2.2 0 0 0-.08.06l-.34.38c-.05.05-.08.04-.09-.02l-.13-.6a.05.05 0 0 0-.02-.02.05.05 0 0 0-.1.04l-.01.24c0 .04-.02.05-.06.03l-.03-.03c-.04-.03-.06-.02-.06.03 0 .1.01.2.03.28.03.27.06.54-.18.77-.1.1-.24.15-.36.2-.23.09-.45.17-.44.52 0 .04.02.06.05.07l.07.01c.03-.13.1-.22.18-.28.05-.03.07-.02.07.04 0 .08-.05.18-.14.28.08.08.17.05.28-.07.06-.08.1-.07.08.04l-.04.06c-.03.04-.02.06.03.07a.22.22 0 0 0 .23-.1.43.43 0 0 1 .15-.14c.03-.02.06.01.04.04a.65.65 0 0 1-.1.14c-.02.03-.02.06.03.08.13.06.22.01.3-.12l.1-.19c.15-.29.26-.51.65-.63.46-.15.73-.49.83-.98.01-.08.03-.08.06 0 .04.12.12.22.22.3.03.02.06.03.1.03.04 0 .08-.04.1-.08-.06-.07-.1-.13-.1-.19 0-.02.02-.04.04-.03.07.03.1.1.13.21.06.1.13.14.2.14a.1.1 0 0 0 .07-.01.11.11 0 0 0 .02-.17c-.05-.06-.08-.28-.04-.2.07.15.17.28.3.4.03.02.07.01.09-.02l.03-.06a.08.08 0 0 0 0-.08l-.13-.2c-.01-.03.02-.05.04-.03l.28.31c.06.07.16-.02.1-.09a.73.73 0 0 1-.11-.22c-.02-.03.03-.07.05-.03a.5.5 0 0 0 .3.27c.03.01.07-.02.06-.06a.29.29 0 0 0-.11-.17l-.02-.01c0-.03.02-.04.04-.03.05.02.1.06.13.1.07.08.13.15.28.1h.02a.05.05 0 0 0 .01-.05v-.02l-.17-.2c-.01-.02.01-.05.04-.03l.1.08c.1.1.24.22.34.13a.08.08 0 0 0 .01-.09l-.1-.17c-.02-.02.01-.05.03-.03.12.11.38.37.47.16.02-.04 0-.07-.03-.1-.07-.04-.13-.1-.19-.15-.02-.03.01-.06.04-.04.14.12.3.2.49.26.04.02.07 0 .08-.05.01-.13-.04-.22-.16-.26-.04-.02-.04-.03 0-.05h.1c.12.1.25.17.4.19.04 0 .07-.03.07-.07a.28.28 0 0 0-.05-.13c-.02-.02.02-.04.04-.03.07.08.16.1.25.07a.07.07 0 0 0 .04-.1l-.09-.11c-.05-.07-.04-.08.03-.04.14.09.27.19.39.3.26.3.6.5 1.01.64.2.05.35.06.48.07.36.03.5.04.44.77a.22.22 0 0 1-.3.18.59.59 0 0 0-.3-.06.14.14 0 0 0-.1.06.41.41 0 0 0-.06.36c0 .04.07.07.1.04l.1-.08c.03-.03.08 0 .07.04l-.04.1c-.04.1.07.17.15.12a.13.13 0 0 0 .07-.07.5.5 0 0 1 .23-.29c.03-.02.07.03.05.06l-.12.18c-.03.03-.01.08.03.1.12.04.17-.04.24-.11.05-.07.1-.14.19-.14.05 0 .06.02.02.05l-.09.09c-.02.02 0 .06.03.06.13.02.25 0 .36-.08a.16.16 0 0 0 .07-.1l.3-1.49c0-.04 0-.06-.05-.08a.46.46 0 0 0-.14-.03c-.74-.05-.7-.6-.66-1.17.02-.32.05-.64-.07-.87-.04-.08-.04-.15 0-.2.53-.63.58-1.44-.28-1.75a5.24 5.24 0 0 0-1.86-.02l-.26.03c-.58.05-2.16.07-2.44-.42-.75-1.32 2.13-.87 2.62-.8.03.01.06.02.04-.01-.48-.47-1.01-.56-1.64-.39l-.2.06c-.46.11-.86.21-1.12.7a.16.16 0 0 0-.02.1c.13 1.07 1.78.98 3.11.9.57-.02 1.08-.05 1.4.02.52.1.72.42.6.95a.5.5 0 0 1-.26.33.09.09 0 0 1-.1 0l-.36-.24Zm-1.94-2.28c0-.06-.21-.1-.28-.1h-.02a2.65 2.65 0 0 0-.18-.03h-.02c-.08-.01-.48-.05-.49.04 0 .09.39.12.48.13h.2l.02.01c.07 0 .29.01.3-.05Zm-3.37.48c.27-.16-.18-.46-.36-.39a.04.04 0 0 0-.01.07.4.4 0 0 0 .13.1c.07.04.14.08.18.2 0 .03.03.04.06.02Zm-3.47.31a.57.57 0 0 0-.14.21c0 .07.08.11.13.08.07-.05.1-.1.07-.14.1-.02.16-.06.19-.12.01-.04 0-.06-.04-.06-.09 0-.16 0-.2.03Zm3.36 1.44c.04-.24.08-1.16-.23-1.28a.04.04 0 0 0-.05.05c.02.11.05.23.09.34l.02.1c-.01.27.02.54.08.8.04.13.07.13.1 0Zm-.5.15-.11-.24c-.04-.07-.05-.07-.05.01.03.4.13.76.3 1.1.1.21.17.2.2-.03.03-.35-.02-.7-.07-1.06v-.3c0-.28 0-.6-.08-.7a.03.03 0 0 0-.06.02c-.1.38-.1.77 0 1.15.02.06-.04.12-.1.1a.07.07 0 0 1-.04-.05Zm.63-1.2c-.07.29-.04.56.11.82.03.05.05.04.05-.01.05-.27.03-.54-.05-.81-.02-.05-.1-.05-.1 0Zm-3.37.85.3-.73v-.02c-.02-.02-.07-.01-.09 0a.38.38 0 0 0-.18.15c-.06.1-.1.2-.13.3 0 .06.07.36.1.3Zm.17-.01c-.16.37-.45 1.17-.07 1.46.03.02.05.02.06-.01.18-.47.2-.96.08-1.45 0-.03-.06-.04-.07 0Zm.24 1.83.03.17c.01.09.04.1.08 0 .22-.44.21-.89 0-1.34-.01-.01-.04-.01-.04.01l-.1.43-.02.08c-.07.23-.24.83-.1.88.03.01.06 0 .06-.03 0-.07.02-.14.04-.2.02-.08.04-.07.05 0Zm1.92-1.16c-.14.52-.08 1 .18 1.45.04.06.05.06.04-.02a21.6 21.6 0 0 1-.16-1.38c0-.01-.05-.09-.06-.05Zm-.28.08c-.22.48-.19.95.1 1.41.04.06.14.02.12-.06a3.5 3.5 0 0 1-.14-1.33.04.04 0 0 0-.06-.04l-.02.02Zm.5.05a.83.83 0 0 0 .03.6c.03.07.06.07.07 0a1 1 0 0 0-.04-.6c-.02-.06-.04-.06-.06 0Zm-1 1.27a1 1 0 0 1-.55-.89c0-.17-.07-.3-.18-.4-.05-.04-.07-.02-.06.04.06.52.3.86.53 1.22.17.25.35.51.47.84.01.04.03.04.05 0 .2-.32.13-.61.05-.92l-.04-.16a.06.06 0 0 0-.05-.04.06.06 0 0 0-.06.04l-.09.24c-.01.04-.04.05-.07.03Zm.22-.5.01-.67c0-.02 0-.02-.02-.02s-.03 0-.05.02a.37.37 0 0 0-.07.18l-.01.13v.03c0 .08 0 .34.12.34.01 0 .02 0 .02-.02Zm-.45-.4a.2.2 0 0 1-.08-.13c-.01-.08-.03-.09-.06 0-.1.24-.04.44.15.6.04.02.06.01.08-.03a1 1 0 0 0 .03-.64.03.03 0 0 0-.03-.03.03.03 0 0 0-.02.03v.17c0 .04-.04.06-.07.04Zm-.43 1.18c0 .05.03.09.06.12.03.02.05.02.06-.02.02-.05.05-.1.1-.12l.08.13c.05.07.06.07.05-.02a1.79 1.79 0 0 0-.23-.6c-.03-.05-.06-.05-.08 0a.87.87 0 0 0-.04.51ZM22.48 26h.07l.08-.08h.03l.02.02c.02.01.02.04 0 .06l-.01.02-.06.03c-.01.04 0 .09.02.14l.09-.02.03-.01.01-.06v-.01c0-.02.01-.03.03-.04l.04-.01c.05-.02.07 0 .05.05l-.05.17.07.05c.04 0 .07 0 .08-.04.14-.3.37-.48.7-.55.03 0 .06-.02.08-.04.42-.44.23-.77.01-1.17l-.12-.22c-.02-.05-.1-.03-.1.03 0 .25-.02.5-.05.75-.06.5-.31.55-.57.6-.18.03-.36.06-.48.26-.03.04-.02.07.03.07Zm6.88-.54c-.12.42-.55.87-1 .57-.47-.14-.78.5-.5.57.06 0 .08-.01.08-.06 0-.07.02-.12.08-.16.06-.04.08-.03.06.05l-.06.18c-.02.03 0 .06.02.09.04.03.09.04.15.03.04 0 .06-.03.06-.06.03-.12.08-.2.15-.23.04.03.04.12 0 .28 0 .04.04.04.07.04.02 0 .03 0 .04-.03.02-.13.1-.22.22-.26.05-.02.07 0 .05.05a.33.33 0 0 1-.11.15c-.04.03-.02.1.03.1.3.02.53-.1.67-.37a.24.24 0 0 1 .07-.08c.3-.21.64-.37 1-.46a.18.18 0 0 0 .08-.29 2.76 2.76 0 0 0-.27-.27c-.18-.15-.25-.3-.2-.47a.46.46 0 0 1 .04-.3c.06-.08-.04-.2-.13-.14-.3.18-.64.33-1 .44a.19.19 0 0 0-.08.29c.02.03.06.05.1.06a.6.6 0 0 1 .38.28Zm1.12-.14c.35.26.23.57-.12.75-.47.08-.81.3-1.03.63-.03.04-.02.06.03.06l.67-.05 1.31-.07c.03 0 .05-.04.02-.06-.37-.29-.04-.94.49-.68.02.01.04.02.06.01.07 0 .13-.06.12-.13L32 25.3c0-.02 0-.03-.02-.04a.07.07 0 0 0-.05-.02c-.42 0-.8-.08-1.16-.26l-.5-.33a.06.06 0 0 0-.1.05c-.03.27.08.47.31.61Zm-2.26.5c.43.28.76.2.99-.25a.1.1 0 0 0 0-.1.41.41 0 0 0-.28-.2l-.24-.3a.07.07 0 0 0-.08-.02c-.81.27-1.66.34-2.55.23-.13-.02-.18.06-.23.14a.58.58 0 0 1-.06.08c-.19.23-.45.38-.78.47-.16.05-.34.38-.47.6a4 4 0 0 1-.08.15c-.02.03 0 .07.03.07 1.1.11 2.2.16 3.3.12.03 0 .04-.04.02-.06-.43-.38.04-.81.43-.93Zm-10.07 2.04v2.6c0 .05.03.07.07.06.32-.08.49-.03.65 0 1.77.38 3.78.65 5.48.83 4.21.45 8.34-.3 12.47-.97l.98.11c.04 0 .06-.01.06-.05l.01-.65c.05-1.58.1-3.46-1.9-3.46-.36 0-.59.02-.7.05-1.49.45-3.16.55-4.78.65-.22 0-.43.02-.65.03l-.33.01-1.99.09-.4.01-1.19-.03c-1.95-.15-3.9-.4-5.86-.75a2.35 2.35 0 0 0-.95-.02 1.3 1.3 0 0 0-.97 1.49Zm22.58-.17c-.01-.66-.68-.89-1.22-.63-.43.2-.86.4-1.28.62a.08.08 0 0 0-.05.08v3.18c0 .56-.38 1.02-.73 1.47l-.11.15c-.03.04-.02.06.02.05a8.5 8.5 0 0 0 2.8-1.41c.13-.1.3-.1.44-.1.04 0 .1 0 .1-.05-.02-1.12.04-2.24.03-3.36Zm-23.1.1c-.67-.4-2.27-1.35-2.3.13-.01 1.06 0 2.13.03 3.2 0 .04.02.06.06.06.29.02.5.07.61.16a6.86 6.86 0 0 0 2.31 1.3c.04 0 .07-.05.04-.07-.56-.53-.59-1.1-.58-1.9 0-.9 0-1.81-.02-2.73a.1.1 0 0 0-.05-.1l-.1-.05ZM41 31.66c0 .46-.05.91-.53.98-.2.02-.22.32-.02.36.1.02.1.01.2-.02l1.1-.36c.53-.16 1.06-.33 1.59-.52.05-.02.05-.04.02-.08l-.41-.42-1.2-1.2c-.03-.03-.03-.06-.02-.1l1.24-2.03c.02-.03 0-.07-.04-.06l-1.88.6c-.05.02-.05.05-.05.1v2.75Zm-26.88-1.28-1.5 1.67c-.02.02-.01.04 0 .05l2.76.86c.2.06.49-.21.32-.23-.51-.04-.78-.32-.79-.82 0-.12.02-.24.05-.35.03-.11.06-.23.06-.35v-2.1a.07.07 0 0 0-.06-.07l-1.98-.72a.04.04 0 0 0-.05.02v.05l1.2 1.88a.09.09 0 0 1 0 .11Zm15.44 1.38c-.01 0-.03.03-.01.04l.6.84a.1.1 0 0 0 .08.04l6.34-.05c.08 0 .12-.04.12-.11l-.02-1.77a.04.04 0 0 0-.04-.04c-.65.08-1.16.22-1.8.37a35 35 0 0 1-4.69.63l-.58.05Zm7.5.55c.34-.32 1.26-1.7-.01-1.6-.03 0-.05.02-.05.05v1.52c0 .03.04.05.07.03Zm-18.49-1.45c-1.02-.03-.27 1.15.05 1.46.02.01.05 0 .05-.02l-.01-1.35a.1.1 0 0 0-.03-.07.09.09 0 0 0-.06-.02Zm7.6 1 1.2.47h.1l1.08-.48c.03-.01.06.01.06.04l-.06.64c0 .04.02.07.06.07h.78c.03 0 .06-.03.05-.06l-.05-.67c0-.04-.03-.06-.07-.06h-1.35c-.93.01-1.87.03-2.76-.06-2.04-.2-4.14-.44-6.16-.86-.03 0-.05 0-.05.04v1.66c0 .03.03.06.06.06h7.11c.05 0 .06-.02.05-.07l-.12-.67c0-.04.03-.07.07-.06Zm14.17.4c.01.05.06.06.1.05.42-.21.5-1.1-.04-.83a.1.1 0 0 0-.05.07c-.03.23-.09.5 0 .72Zm-24.82.12c.17.1.25.06.25-.14v-.56a.16.16 0 0 0-.12-.15c-.58-.14-.5.6-.13.85Zm12.6 1.73c.22-.01.5-.03.6-.12v-.01c.06-.14-.2-.38-.4-.55a1.83 1.83 0 0 1-.14-.14c-.07-.09 0-.45.04-.7l.03-.2c0-.02-.02-.04-.05-.03l-.76.34c-.1.04-.25-.05-.4-.15-.17-.1-.34-.2-.47-.17a.04.04 0 0 0-.03.05l.2.83c.02.11-.13.2-.29.31-.19.13-.4.26-.34.44.05.14.4.17.65.2h.04c.07 0 .16 0 .19.03a2.63 2.63 0 0 1 .13.26c.07.14.2.41.32.4.15 0 .2-.21.27-.41.05-.18.1-.34.2-.36l.21-.02Zm-2.58 1.62c1.87 3.1 6.62-.1 4.28-3.1-.03-.03-.04-.02-.05.02-.07 1.33-.46 2.65-1.85 3.11-.74.25-1.52.23-2.35-.06-.04-.02-.05 0-.03.03Zm3.04-2.91c-.05.03-.07.11-.07.17l.01.16c0 .07.05.18.14.17.05 0 .02-.3 0-.44 0-.05 0-.1-.08-.06Zm.67-.01h-.39c-.03 0-.05.02-.06.05-.04.17.05 1.22.42 1.1.21-.06.14-.75.1-1.02 0-.05 0-.13-.07-.13Zm-1.27 12.86c-.37-.1-.71-.3-1.01-.59C23.5 43 19 39.84 19 37.05c-.06-1.36 0-2.55 0-4 0-.04.02-.06.06-.06l5.82.01c.03 0 .06.03.06.06l-.03 1.63c0 .16-.26-.15-.28-.17-.02-.02-.06-.1-.1-.06l.27.65a4 4 0 0 0 1.04 1.52c.3.25.79.68 2.41.68.74 0 2.41-1.15 2.75-2.2v-2.05c0-.04.02-.06.06-.06h5.41c.09 0 .21 0 .21.1v3.95c-.03 2.9-5.37 6.9-8.7 8.62ZM25.1 33c-.03 0-.05.02-.05.05 0 .6-.01 1.11-.05 1.72-.01.29 1.15.98 1.26.72-.02-.35 0-.7-.01-1.05 0-.02-.01-.04-.04-.05l-.72-.14c.03-.18.14-.23.27-.36.26-.27.6-.5.48-.85a.07.07 0 0 0-.07-.05H25.1Zm3.78 1.69.2-.37c.03-.04-.02-.09-.06-.07l-.18.07c-.05.02-.06.05-.06.1l.04.26c.01.06.03.06.06.01Zm-.32.34a.37.37 0 0 0 .13-.28v-.05c.01-.11.05-.38-.06-.36l-.48.09a.1.1 0 0 0-.08.05l-.48.95c-.02.04-.01.06.03.05.36-.05.68-.2.94-.45Zm-1.22.51c.06 0 .07-.03.04-.07l-.51-.8c-.1-.17-.24-.2-.42-.21-.04 0-.06.01-.06.05-.01.34 0 .69-.02 1.03.07.17.52.08.8.03l.17-.03Z" fill="#F9F9F9"/><path d="M22.06 27.86a8.7 8.7 0 0 0 1.87.9 14.03 14.03 0 0 0 9.36-.3.17.17 0 0 0 0-.21c-.72-.86.45-1.6.55-.74 0 .04 0 .06-.02.09-.1.14-.14.3-.12.48 0 .03.02.05.05.06.24.08 1.1-.43 1.22-.55a.16.16 0 0 1 .1-.05c.2-.02.59-.21.74-.16.68.25-.63 1.54-1.13 1.59 0 0-.25.33-.3.37a.07.07 0 0 0-.03.08l.02.02c.9 1.02-.68 1.46-.55.64l.03-.1c.09-.15.1-.3.04-.47a.05.05 0 0 0-.08-.03c-.38.17-.67.29-.87.35-1.68.55-3.04.9-4.07 1.05a14.7 14.7 0 0 1-4.04-.04 9.01 9.01 0 0 1-4.33-1.79l-.46-.42c-.06-.05-.05-.07.02-.06l2.05.38c.02 0 .04-.02.04-.04v-.02l-1.28-1.83c-.02-.04.02-.08.05-.05l1.14.85Zm13.36.44a.19.19 0 0 0 .07-.15c0-.16-.2-.38-.36-.26a.19.19 0 0 0-.07.15c0 .13.1.26.21.29.06.01.11 0 .15-.03Zm-12.68.98c2.58 1.07 5.51 1.03 8.18.4.3-.07 1.67-.33 1.83-.55.1-.15.07-.2-.1-.14-3.53 1.06-7.44 1.01-10.68-.85-.05-.03-.06-.02-.03.03.11.19.65 1.05.8 1.11Zm12.12-.67c.07-.05.08-.16.05-.24-.04-.13-.2-.3-.34-.2-.07.05-.08.15-.05.23.03.1.1.19.19.22.05.02.1.02.15-.01Zm-.5.08a.34.34 0 0 0-.23-.3.19.19 0 0 0-.08 0c-.09.02-.13.1-.13.18.01.14.11.27.24.3h.08c.09 0 .13-.09.13-.18ZM20.9 29c0-.01-.02 0-.02.02h.01c2.8 2 6.51 2.05 9.73 1.22.56-.15 2.1-.48 2.3-.81.04-.06.02-.08-.04-.07-.36.07-.98.22-1.85.45-.86.23-2 .37-3.45.43-1.6.06-3.2-.2-4.74-.8-.63-.24-1.26-.3-1.94-.45Zm3.51-8.52c0 .2-.05.41 0 .6l.02.02c.02 0 .05 0 .06-.02v-.01l-.03-.32c.29.13.53.09.73-.14.04-.04.02-.13-.04-.13l-.61-.06a.72.72 0 0 1 .3-.36c.07-.04.07-.06 0-.06-.25 0-.39.16-.43.48Zm-.18.25c.04.16.03.26-.03.31-.04.04-.06.02-.04-.04.02-.13.02-.21-.03-.24l-.03.02c-.27.15-.5.1-.7-.15-.02-.04-.02-.06.02-.09.06-.04.2-.06.34-.09.16-.03.31-.05.32-.1a.82.82 0 0 0-.24-.27c-.06-.04-.06-.06.02-.06.28.02.34.58.37.71Zm-.07.98a.39.39 0 0 1-.07-.17v-.03c.02-.04.05-.04.08-.02.1.1.2.1.3.03.05-.05.07-.03.05.05a.2.2 0 0 1-.07.11l-.01.03c-.01.04.02.07.05.07h.21c.03 0 .05.03.05.06.01.02 0 .06-.03.07a.8.8 0 0 1-.57.06c-.03 0-.07-.04-.05-.08l.02-.02c.02 0 .04-.01.05-.04a.11.11 0 0 0-.01-.12Z" fill="#F9F9F9"/><path fill-rule="evenodd" d="m19.61 16.02-.86-1.04-.39 1.32-1.2.55 1.07.8.12 1.37 1.05-.82 1.27.3-.42-1.31.67-1.19-1.3.02Zm-.12.35-.6-.73-.28.93-.85.39.75.56.09.97.74-.58.9.21-.3-.92.47-.84-.92.01Zm4.15-1.22L22.87 14l-.56 1.27-1.31.4 1 .94-.03 1.39 1.19-.69 1.28.47-.27-1.37.83-1.1-1.36-.16Zm-.16.34-.55-.81-.4.9-.92.27.71.67-.03.98.84-.48.91.33-.2-.97.6-.78-.96-.1Zm10.91.54.92-1.03.41 1.3 1.28.55-1.13.79-.13 1.36-1.12-.81-1.36.3.45-1.3L33 16l1.39.02Zm.13.35.65-.73.3.92.9.39-.8.56-.1.96-.79-.58-.96.21.32-.91-.5-.83h.98Zm-4.16-1.23.77-1.15.56 1.27 1.31.4-1 .94.03 1.39-1.19-.69-1.28.47.27-1.37-.83-1.1 1.36-.16Zm.16.34.55-.81.4.9.92.27-.71.67.03.98-.84-.48-.91.33.2-.97-.6-.78.96-.1Zm-2.85-.24L27 14l-.68 1.24-1.33.27.91 1.06-.16 1.41 1.24-.58 1.23.6-.15-1.42.93-1.04-1.33-.3Zm-.2.33-.46-.88-.48.87-.94.2.64.74-.12 1 .88-.41.87.42-.1-1 .65-.74-.94-.2Z" fill="#F9F9F9"/><path d="M36.05 32.65h.27v6.42h-.27v-6.42Zm-16.1.17h-.27v6.47h.27v-6.47Zm.75 0h-.28v7.46h.27v-7.46Zm.46 0h.27v8.32h-.27v-8.32Zm1.01 0h-.27v8.8h.27v-8.8Zm.47 0h.28v9.3h-.28v-9.3Zm12.94-.17h-.27v7.42h.27v-7.42Zm-1.01 0h.27v8.36h-.27v-8.36Zm-.47 0h-.27v8.97h.27v-8.97Zm-1.02 0h.28v9.47h-.28v-9.47Zm-1.2.17h-.28V43.4h.28V32.82Zm-1.02 0h.27v10.97h-.27V32.82Zm-.46 3.21h-.28v8.37h.27v-8.37Zm-1.02.67h.27v8.15h-.27V36.7Zm-.47.4h-.27v8.4h.27v-8.4Zm-4.48-4.28h-.27V43.4h.27V32.82Zm.47 0h.27v10.97h-.27V32.82Zm1.01 3.49h-.27v8.09h.27v-8.1Zm.47.39h.27v8.15h-.27V36.7Zm1.02.4h-.28v8.4h.28v-8.4Z" fill="#F9F9F9"/></svg>