<!-- by TradingView --><svg width="18" height="18" viewBox="0 0 18 18" fill="none" xmlns="http://www.w3.org/2000/svg">
<rect width="18" height="18" fill="#F0F3FA"/>
<path d="M9.05555 4.28816C9.06033 4.29485 9.06686 4.30004 9.07442 4.30316C9.08198 4.30628 9.09027 4.3072 9.09834 4.30582C9.67742 4.20508 9.90477 3.52716 9.9547 3.01626C9.95494 3.0135 9.95582 3.01084 9.95726 3.00848C9.95871 3.00612 9.96069 3.00414 9.96304 3.00268C9.96538 3.00122 9.96804 3.00033 9.9708 3.00008C9.97356 2.99982 9.97635 3.00021 9.97894 3.00121C10.6915 3.28141 10.9106 3.96194 10.817 4.68472C10.8155 4.69572 10.8203 4.70113 10.8313 4.70093C11.3408 4.69688 12.0639 4.48644 12.1929 3.89131C12.1972 3.87105 12.2056 3.86921 12.218 3.88581C12.5871 4.38889 12.6538 5.03874 12.5015 5.62953C12.4977 5.64439 12.5033 5.65307 12.5183 5.65558C13.0217 5.74512 13.4842 5.64902 13.9059 5.36728C13.9112 5.36361 13.9144 5.36506 13.9156 5.37162C14.0194 6.03159 13.881 6.80677 13.3071 7.19957C13.3057 7.20049 13.3046 7.20177 13.3039 7.20328C13.3032 7.20478 13.3029 7.20645 13.3031 7.20811C13.3032 7.20977 13.3038 7.21135 13.3047 7.21271C13.3057 7.21406 13.307 7.21512 13.3085 7.21578C13.7912 7.44185 14.3209 7.50872 14.8347 7.35357C14.8357 7.35326 14.8367 7.35323 14.8377 7.35348C14.8387 7.35373 14.8396 7.35426 14.8404 7.355C14.8411 7.35575 14.8416 7.35668 14.8419 7.3577C14.8421 7.35872 14.8421 7.3598 14.8418 7.3608C14.6695 7.97794 14.2724 8.5392 13.6788 8.77801C13.6772 8.77864 13.6757 8.77962 13.6745 8.78089C13.6733 8.78215 13.6724 8.78367 13.6719 8.78533C13.6714 8.78699 13.6712 8.78875 13.6714 8.79049C13.6716 8.79222 13.6722 8.79389 13.6731 8.79538C13.9777 9.30174 14.4141 9.63076 14.9821 9.78244C15.0021 9.78785 15.0053 9.79846 14.9918 9.81428C14.5611 10.3232 13.9581 10.522 13.304 10.4734C13.3017 10.4732 13.2995 10.4735 13.2974 10.4743C13.2953 10.4751 13.2933 10.4762 13.2917 10.4778C13.2901 10.4793 13.2888 10.4812 13.2879 10.4833C13.287 10.4854 13.2865 10.4876 13.2866 10.4899C13.2817 11.0925 13.8459 11.6078 14.2784 11.9331C14.2877 11.9403 14.2872 11.9466 14.2767 11.952C13.7347 12.229 13.0583 12.2707 12.4707 12.156C12.4676 12.1554 12.4643 12.1555 12.4612 12.1563C12.4581 12.157 12.4552 12.1585 12.4527 12.1605C12.4502 12.1625 12.4481 12.1651 12.4466 12.168C12.4452 12.171 12.4443 12.1742 12.4442 12.1775C12.4212 12.7122 12.547 13.2061 12.8216 13.6592C12.8292 13.6718 12.8258 13.6782 12.8113 13.6786C12.2005 13.7018 11.6623 13.5176 11.1967 13.126C11.1885 13.1189 11.1802 13.1188 11.1716 13.1257C10.7044 13.5 10.6074 14.1475 10.6544 14.7126C10.6556 14.7255 10.6506 14.7288 10.6396 14.7224C10.1246 14.4279 9.74427 14.0068 9.49856 13.4589C9.49191 13.4439 9.48069 13.4384 9.4649 13.4427C8.85102 13.6051 8.56547 14.424 8.46449 14.9873C8.46398 14.9899 8.46283 14.9923 8.46115 14.9944C8.45946 14.9964 8.4573 14.998 8.45487 14.999C8.45244 14.9999 8.44982 15.0002 8.44726 14.9999C8.44469 14.9995 8.44228 14.9984 8.44024 14.9968C7.97412 14.6341 7.70769 14.0124 7.59672 13.4465C7.59575 13.4416 7.59382 13.437 7.59105 13.433C7.58827 13.4289 7.58472 13.4255 7.5806 13.4229C7.57649 13.4203 7.5719 13.4186 7.56711 13.4178C7.56233 13.4171 7.55746 13.4174 7.55279 13.4187C7.03276 13.5585 6.67162 14.0057 6.43228 14.4903C6.42677 14.5014 6.42021 14.5021 6.4126 14.4923C5.99583 13.9475 5.89942 13.223 6.07856 12.5708C6.07941 12.5676 6.0796 12.5643 6.07913 12.5611C6.07865 12.5578 6.07752 12.5547 6.0758 12.5519C6.07408 12.5491 6.07182 12.5467 6.06915 12.5449C6.06648 12.5431 6.06347 12.5419 6.0603 12.5413C5.51774 12.4464 4.99171 12.7804 4.61574 13.1622C4.60699 13.1711 4.60119 13.1694 4.59834 13.1573C4.43174 12.4536 4.61602 11.6958 4.98686 11.0917C4.98806 11.0897 4.98886 11.0876 4.98919 11.0853C4.98952 11.0831 4.98939 11.0808 4.9888 11.0786C4.98821 11.0764 4.98718 11.0743 4.98576 11.0725C4.98435 11.0707 4.98259 11.0693 4.98059 11.0682C4.48052 10.8103 3.89688 10.8396 3.37285 10.9921C3.36316 10.995 3.35783 10.9913 3.35688 10.9811C3.3061 10.3958 3.91999 9.65161 4.3068 9.26112C4.31119 9.25668 4.31416 9.25102 4.31533 9.24488C4.3165 9.23873 4.31581 9.23239 4.31336 9.22668C4.09029 8.70593 3.51263 8.59883 3.01628 8.69812C3.01389 8.69858 3.01142 8.69839 3.00913 8.69757C3.00683 8.69675 3.0048 8.69532 3.00323 8.69343C3.00166 8.69155 3.00061 8.68927 3.0002 8.68684C2.99979 8.6844 3.00002 8.6819 3.00087 8.67959C3.2926 7.93953 3.84135 7.59498 4.64712 7.64592C4.65162 7.64626 4.65608 7.64484 4.65962 7.64194C4.66316 7.63904 4.66552 7.63489 4.66623 7.63029C4.76436 6.9874 4.27114 6.52455 3.74655 6.29095C3.74442 6.28995 3.74257 6.28844 3.74116 6.28654C3.73975 6.28465 3.73882 6.28243 3.73846 6.28008C3.73809 6.27774 3.7383 6.27534 3.73906 6.27309C3.73983 6.27085 3.74112 6.26883 3.74284 6.26721C4.28978 5.7622 4.92791 5.60936 5.65723 5.80871C5.6592 5.80923 5.66127 5.8093 5.66327 5.80889C5.66528 5.80849 5.66716 5.80763 5.66878 5.80637C5.67041 5.80511 5.67173 5.8035 5.67264 5.80164C5.67355 5.79979 5.67404 5.79775 5.67406 5.79568C5.68794 5.21097 5.43491 4.80456 4.91498 4.57646C4.91365 4.57596 4.91252 4.57504 4.91175 4.57384C4.91099 4.57263 4.91062 4.5712 4.91072 4.56977C4.91082 4.56834 4.91137 4.56698 4.91229 4.56589C4.91321 4.5648 4.91445 4.56404 4.91583 4.56373C5.66037 4.36024 6.5966 4.27629 7.26553 4.75651C7.26975 4.75951 7.27473 4.76119 7.27986 4.76135C7.28498 4.7615 7.29002 4.76012 7.29435 4.75738C7.78328 4.44331 7.64579 3.63976 7.53425 3.17402C7.53178 3.16321 7.53587 3.15887 7.54652 3.16099C8.14671 3.27417 8.70639 3.80852 9.05555 4.28816Z" fill="#F47920"/>
</svg>
