<!-- by TradingView --><svg width="18" height="18" viewBox="0 0 18 18" xmlns="http://www.w3.org/2000/svg"><path fill="#E20A17" d="M0 0h18v18H0z"/><path d="M5.96 8.36c2.02.12 4.12.12 6.14 0 .54-.04.78-.27.78-.59 0-.22-.14-.57-.4-.84a4.6 4.6 0 0 0-2.3-1.44.25.25 0 0 1-.18-.24c-.01-.2.23-.25.46-.25a5.06 5.06 0 0 1 3.87 2.12c1.54 2.03.2 4.13-1.68 5.13-.46.24-2.27 1.12-2.62.57a.19.19 0 0 1-.03-.08c0-.1.04-.17.13-.2.9-.28 2.74-1.12 2.75-2.36v-.13a.15.15 0 0 0-.04-.09c-.2-.2-.55-.32-.9-.33a61.04 61.04 0 0 0-6.16.03c-.38.03-.68.29-.66.64 0 .1.03.2.1.32.56 1 1.5 1.6 2.56 1.9.15.05.22.13.22.22 0 .13-.15.27-.35.26-1.87-.05-2.99-.8-4.09-2.24-1.04-1.37-.52-3.2.67-4.21C5.3 5.64 6.13 5.11 7.53 5h.08c.12 0 .39.08.39.25 0 .24-.6.4-.79.48-.73.28-1.67.92-2 1.67a1 1 0 0 0-.1.43c.02.34.4.5.85.53ZM4.22 7.25c-.06.1-.12.26-.2.39-.27.49-.33 1-.31 1.5.02.89.4 1.73 1.13 2.33a4.93 4.93 0 0 0 2.63 1.27c0-.03-.05-.07-.07-.07a4.2 4.2 0 0 1-3.26-2.66 1.15 1.15 0 0 1-.08-.39c0-.66.89-.62 1.42-.62h7.63c.5 0 1.02.18.81.84a4.24 4.24 0 0 1-3.25 2.8.27.27 0 0 0-.13.07c-.03.03-.03.05.02.04 1.62-.27 3.19-1.3 3.64-3.07.06-.25.1-.5.1-.74a2.7 2.7 0 0 0-.52-1.7v-.02l.03-.03h.04c.5.54.77 1.19.83 1.93 0 .1.04.1.1.02v-.11c-.17-2.2-1.92-3.4-3.8-3.77-.15-.03-.3-.04-.43-.02a.04.04 0 0 0-.03.04c0 .02.01.03.03.04a4.3 4.3 0 0 1 3.34 2.73c.03.08.05.15.05.22 0 .37-.43.55-.78.56-.48.03-.95.05-1.44.05-2.33-.03-4.63.04-7.01-.05-1.1-.03-.61-.98-.26-1.47a4.81 4.81 0 0 1 3.1-2.04c.01 0 .03-.02.03-.04a.04.04 0 0 0-.03-.04.6.6 0 0 0-.24 0 5.5 5.5 0 0 0-2.4 1.07 4.02 4.02 0 0 0-1.72 2.83c0 .04.03.08.07.08.05 0 .05-.04.05-.08a3.28 3.28 0 0 1 .86-1.96c.04 0 .06.03.05.07Zm7.57 1.29c-2.04.1-4.12.15-6.16-.03-.2-.01-.43-.08-.7-.2a.09.09 0 0 0-.08.01l-.19.1a.07.07 0 0 0-.03.08c0 .03.03.05.06.06.33.05.66.1.99.12 1.62.03 3.24.1 4.86.03.86-.03 1.86-.02 2.8-.2.02 0 .03 0 .04-.03 0-.01 0-.03-.02-.04l-.2-.15a.06.06 0 0 0-.08 0c-.33.2-.95.23-1.29.25Z" fill="#fff"/></svg>