<!-- by TradingView --><svg width="56" height="56" viewBox="0 0 56 56" fill="none" xmlns="http://www.w3.org/2000/svg">
<rect width="56" height="56" fill="#F0F3FA"/>
<path fill-rule="evenodd" clip-rule="evenodd" d="M5 24.9919C5 27.3902 6.33333 28.6633 7 29V21C6.33333 21.3313 5 22.5935 5 24.9919ZM9.5 30.8371C8.83333 30.423 7.5 28.8576 7.5 25.9085C7.5 22.9594 8.83333 21.4074 9.5 21V30.8371ZM10 26.9878C10 30.5853 11.3333 32.4949 12 33V21C11.3333 21.4969 10 23.3902 10 26.9878ZM15 35.1568C14.3333 34.561 13 32.3082 13 28.064C13 23.8198 14.3333 21.5863 15 21V35.1568ZM16 29.1951C16 34.1188 17.6667 36.7323 18.5 37.4236V21C17.6667 21.6801 16 24.2713 16 29.1951ZM20 30.3475C20 35.9636 21.8 38.9447 22.7 39.7332V21C21.8 21.7758 20 24.7314 20 30.3475ZM27 42C26 41.1161 24 37.7743 24 31.4786C24 25.1829 26 21.8697 27 21V31H29V21C30 21.8697 32 25.1829 32 31.4786C32 37.7743 30 41.1161 29 42V32H27V42ZM49 29C49.6667 28.6633 51 27.3902 51 24.9919C51 22.5935 49.6667 21.3313 49 21V29ZM48.5 25.9085C48.5 28.8576 47.1667 30.423 46.5 30.8371V21C47.1667 21.4074 48.5 22.9594 48.5 25.9085ZM44 33C44.6667 32.4949 46 30.5853 46 26.9878C46 23.3902 44.6667 21.4969 44 21V33ZM43 28.064C43 32.3082 41.6667 34.561 41 35.1568V21C41.6667 21.5863 43 23.8198 43 28.064ZM37.5 37.4236C38.3333 36.7323 40 34.1188 40 29.1951C40 24.2713 38.3333 21.6801 37.5 21V37.4236ZM33.3 39.7332C34.2 38.9447 36 35.9636 36 30.3475C36 24.7314 34.2 21.7758 33.3 21V39.7332Z" fill="#FF6600"/>
</svg>
