<!-- by TradingView --><svg width="18" height="18" viewBox="0 0 18 18" xmlns="http://www.w3.org/2000/svg"><path fill="#F0F3FA" d="M0 0h18v18H0z"/><path d="M7.02 8.52c0-.08.06-.25.3-.25-.1.04-.28.14-.3.25ZM6.43 8.35c.05-.02.16-.02.22.11l-.13.06c.07-.02.23 0 .35.27 0-.14-.09-.45-.35-.5-.02 0-.07.02-.1.06ZM6.35 8.66a.47.47 0 0 1 .2-.06c.08 0 .16.1.2.14-.11.02-.34.02-.4-.08ZM7.07 8.74a.3.3 0 0 1 .4-.14c-.05.06-.18.16-.4.14ZM6.75 9.4h.37c.03 0 .11-.01.17-.06a.44.44 0 0 1-.3.14h-.24V9.4Z" fill="#145F1D"/><path fill-rule="evenodd" d="M4 5.1c0-.6.44-1.1.99-1.1h8.02c.55 0 .99.5.99 1.1v7.8c0 .6-.44 1.1-.99 1.1H4.99c-.55 0-.99-.5-.99-1.1V5.1Zm2.98.9c.24-.13.87-.47 1.87-.42 1.24.05 2.6.68 3.12 1.48v-.44h.47c-.26-.47-1.35-1.44-3.56-1.5-.34 0-1.23.08-2.08.46v.16h.15l-.15.2.07.1.1-.04Zm.14.24c0 .07-.07.22-.25.22-.22 0-.22-.25-.22-.28 0-.02-.05-.19-.3-.27-.02-.03 0-.09.15-.11 0-.08-.02-.22-.22-.22-.01-.08.02-.25.2-.25.17 0 .22.15.22.22l.02.11v.14h.1l-.07.1.15.31.22.03Zm-1.78.35h.12c-.02-.15.08-.17.14-.16 0-.2.15-.23.23-.22 0-.13.13-.15.2-.14 0-.04.01-.13.15-.13.17 0 .37.16.4.3.01.1-.15.17-.23.19.02.13-.12.18-.2.2.02.17-.15.21-.24.21-.02.13-.11.15-.15.14 0 .05-.02.13-.2.08-.18-.04-.22-.33-.22-.47Zm.57 3.16c.06-.17.2-.53.2-.6 0-.07-.09-.16-.13-.2l.12-.24-.07-.22.05-.27-.05-.03.12-.25c.1 0 .3-.04.37-.08.05-.03.1-.1.15-.15.05-.06.09-.11.13-.13.06-.02.25-.15.34-.22-.05.11-.14.34-.02.36.12.02.15-.06.15-.1l.15.18c.05-.07.2-.22.4-.22-.02-.04-.05-.13-.13-.13-.07 0-.1-.02-.12-.04l-.03-.02a.24.24 0 0 1-.05-.05c-.06-.07-.17-.2-.4-.25-.3-.06-.47-.08-.66.14a1 1 0 0 1-.25.2c-.07.04-.14.08-.2.18-.05.08-.12.15-.18.2-.08.1-.14.15-.1.19.07.04.06.09.05.22l-.02.1c-.02.23 0 .3.05.39.03.05.02.08 0 .13a.69.69 0 0 0-.05.17c-.02.16.1.12.15.08a.7.7 0 0 0 .03.66Zm1.13 1.98-.42-.27c.05.19.1.6 0 .68a.36.36 0 0 1-.4.06c-.1-.06-.29 0-.29.33 0 .26.35.27.52.25.03-.25.15-.39.25-.42.08-.02.16.07.2.11-.23 0-.4 0-.38.3.02.24.22.24.45.25h.2c.3.03.34-.35.37-.55.02-.12.13-.18.28-.25l.24-.13c.2-.13.25-.26.25-.3.02-.46.14-.63.2-.66-.08.22-.09.47-.08.57.61.05 1.16-.23 1.36-.38.02.05.07.16.15.25a.9.9 0 0 0 .18.13c.11.07.22.13.22.2 0 .1-.2.35-.3.35a.3.3 0 0 1-.1-.02c-.05-.01-.11-.03-.25-.03-.22 0-.44.2-.42.44.03.25.87.3 1.02.14l.1-.11c.17-.2.44-.51.57-.58.14-.08.2-.14.22-.33.01-.13-.03-.13-.1-.15-.04 0-.08-.01-.12-.04a4.6 4.6 0 0 1-.52-.85 2.4 2.4 0 0 0 1.38 1.07c.2.02.23.17.22.24v.36c-.04 0-.15-.03-.27-.03-.15 0-.27.06-.25.36.03.3.6.25.87.22.19-.02.16-.29.14-.56l-.02-.35c.02-.18.05-.23.08-.28a.45.45 0 0 0 .07-.18c.05-.25-.11-.28-.26-.3-.16-.03-.36-.14-.33-.5.01-.18.04-.3.06-.39.02-.09.04-.16.04-.27 0-.11-.05-.19-.1-.26s-.1-.14-.1-.23c0-.08.05-.12.1-.17.08-.07.18-.15.15-.38-.05-.39-.3-.63-.9-.66-.4-.02-.96.1-1.34.2-.19.04-.33.07-.39.07-.17 0-.79-.1-.76-.5.02-.34.43-.33.6-.32h.04c.05 0 .1-.04.14-.08.06-.05.12-.11.23-.11.16 0 .32.05.37.08h-.37a.3.3 0 0 0-.25.1c.06.06.22.18.4.2.15.02.24-.03.32-.08.04-.02.08-.05.13-.06.1-.02.32 0 .42 0v-.1c-.06 0-.18-.08-.32-.17-.2-.11-.42-.25-.55-.25-.18 0-.42.13-.52.2-.37 0-.9.1-.87.6.03.5.6.77 1.04.74.18-.01.4-.06.64-.11.35-.07.72-.15 1.05-.14.54.03.6.22.6.39 0 .13-.1.27-.16.33a.88.88 0 0 0-.5-.2c-.15 0-.36.05-.6.1-.26.08-.56.15-.83.15-.41 0-1.16-.2-1.48-.3l.02.6c0 .03-.03.05-.06.08-.05.04-.1.08-.11.14a2.1 2.1 0 0 0-.03.26c0 .1 0 .21-.02.27-.02.08-.16.29-.22.38-.02-.04 0-.16.02-.22-.12.03-.15.28-.15.36 0 .06-.13.1-.2.1.01-.05.02-.2 0-.35a1.22 1.22 0 0 0-.2-.44l.03-.41c-.12.1-.13.2-.12.25-.02.16-.04.53 0 .68.04.16.24.3.34.36v.25a.28.28 0 0 0-.12-.2c0 .2-.1.38-.15.44 0-.17-.15-.29-.22-.33v.33l-.05.06v.27l-.08.11v-.4Zm-.89-3.38c0-.15.05-.26.08-.3l.4-.05c.17-.03.25-.29.27-.42h.07v.17c.02.17.42.2.62.2a4.72 4.72 0 0 1 .02 1.5c0 .17-.34.52-.44.52-.08 0-.1-.2-.1-.3l.02-.08-.2.03c-.03 0 .06.05.1.08 0 .1-.03.27-.1.27s-.34-.19-.46-.35a.6.6 0 0 1-.1-.32.95.95 0 0 0-.05-.23 2.4 2.4 0 0 1-.13-.72Zm.94 1.76c.02.07.07.25.13.36l-.1-.03c0 .1 0 .33.07.41.08.1.23.24.3.3.02.06.02.2-.07.3a1.12 1.12 0 0 0-.42-.3 4 4 0 0 0 .1.25c.03.09 0 .2-.03.25-.1-.06-.34-.24-.42-.41-.07-.16-.04-.38-.02-.56l.02-.18c0-.14-.12-.28-.17-.33.03.07.08.27.04.5-.03.21-.01.49 0 .6-.13-.11-.38-.36-.32-.47.08-.14.15-.41.15-.52l.05-.53.4.3.12.25.17-.19Zm-.99.6c.18-.24.2-.94.18-1.26l-.13.17-.05-.09-.2.36c-.01.48.13.75.2.83Zm1.44-.6a.87.87 0 0 1 .07-.44c-.02.07.05.2.12.35.07.16.16.32.16.45 0 .25-.18.58-.18.38 0-.1-.04-.23-.08-.36-.04-.13-.08-.26-.09-.38Zm.17-.77c0 .11 0 .37.08.52.08.16.16.5.2.66l.14-.74c.02-.06-.04-.2-.1-.34-.06-.13-.1-.25-.1-.29.03-.08-.14-.41-.14-.3v.1c-.02.14-.03.34.02.45.06.1.08.3.08.38l-.18-.44Zm.35-.38c-.08-.31-.23-.42-.3-.44v.16c.17.15.21.3.24.4l.03.1c.04.08.09.27.1.35v-.27l.13.44.05-.03-.05-.88-.2.17Zm-.4-.9c.04-.08.15-.2.33-.12-.05-.06-.18-.18-.4-.14.04-.07.17-.19.37-.08.2.11.2.27.17.33.03.07.08.26.08.44s-.1.27-.15.3l-.03-.16v-.3c-.04-.1-.17-.3-.37-.28Zm.05.16c.07-.01.2.01.23.19a.2.2 0 0 1-.23-.2Z" fill="#145F1D"/></svg>