<!-- by TradingView --><svg width="56" height="56" viewBox="0 0 56 56" xmlns="http://www.w3.org/2000/svg"><path fill="#F0F3FA" d="M0 0h56v56H0z"/><circle cx="5" cy="32" r="1" fill="#73499C"/><circle cx="51" cy="23" r="1" fill="#73499C"/><path d="m11.71 25.23-.98 1.97a4.63 4.63 0 0 0-2.78-1.1c-1.25 0-1.95.2-1.95.95s1.6.86 3.2 1.5c1.62.62 2.8 1.74 2.8 2.84 0 .88-.2 1.44-.29 1.61H9.55c.17-.16.45-.73.45-1 0-.68-.74-1.15-2.28-1.71C5.57 29.49 4 28.79 4 27.2 4 25.62 5.64 24 7.95 24c1.85 0 3.28.82 3.76 1.23Z" fill="#262022"/><path fill-rule="evenodd" d="M21 24.99a6.18 6.18 0 0 0-3.55-.99c-2.3 0-4.45 1.4-4.45 4.5s2.15 4.5 4.45 4.5c1.84 0 3.13-.66 3.55-.99V25Zm-2 1.75a2.6 2.6 0 0 0-1.55-.5c-1.36 0-2.47 1-2.47 2.26 0 1.25 1.1 2.27 2.47 2.27a2.6 2.6 0 0 0 1.55-.5v-3.53Z" fill="#262022"/><path d="M23 25.03A7.33 7.33 0 0 1 26.45 24c1.83 0 3.55 1.3 3.55 2.8V33h-1.97v-5.84c-.07-.45-.49-1.16-1.58-1.16-.67 0-1.07.28-1.45.58V33h-2v-7.97Z" fill="#262022"/><path fill-rule="evenodd" d="M36.5 33a4.5 4.5 0 1 0 0-9 4.5 4.5 0 0 0 0 9Zm0-2a2.5 2.5 0 1 0 0-5 2.5 2.5 0 0 0 0 5Z" fill="#262022"/><path fill="#262022" d="M50 25h2v8h-2zm-7 8v-8.13c-.03-.95.64-2.87 3.61-2.87.69 0 1.21.25 1.39.37l-.48 1.4c-.78-.24-2.5-.48-2.52 1.23h3v2h-3v6h-2Z"/></svg>