<!-- by TradingView --><svg width="18" height="18" viewBox="0 0 18 18" xmlns="http://www.w3.org/2000/svg"><path fill="#F0F3FA" d="M0 0h18v18H0z"/><path fill-rule="evenodd" d="M9 3.36 3.35 7.31l2.17 6.37h6.96l2.17-6.37L9 3.36Zm6 3.84L9 3 3 7.2 5.3 14h7.4L15 7.2Z" fill="#010101"/><path fill-rule="evenodd" d="M9 4 4.07 7.47l1.89 5.6h6.08l1.9-5.6L9 4.01Zm5.3 3.35L9 3.65l-5.3 3.7 2.03 6h6.54l2.02-6Z" fill="#010101"/><path d="M7 6h1.94v.67c-.19 0-.27.13-.27.3v.53h.66v-.53c0-.17-.08-.3-.27-.3V6H11v.67c-.19 0-.33.13-.33.3v2.06c0 .17.14.3.33.3V10H9.06v-.67c.19 0 .27-.13.27-.3v-.7h-.66v.7c0 .17.08.3.27.3V10H7v-.67c.19 0 .33-.13.33-.3V6.97c0-.17-.14-.3-.33-.3V6Zm0 6v-1h.47c.2 0 .44.03.44.28 0 .15-.1.25-.3.28a.5.5 0 0 1 .13.08l.12.16.14.2h-.27l-.16-.22a1.4 1.4 0 0 0-.12-.14.17.17 0 0 0-.07-.05.4.4 0 0 0-.11 0H7.2V12H7Zm.2-.58h.2c.1 0 .28.02.28-.13 0-.14-.18-.12-.28-.12h-.2v.25ZM10 12v-1h.42c.28 0 .58.02.58.3 0 .27-.3.3-.56.3h-.19v.4H10Zm.25-.83v.26h.16c.13 0 .32.01.32-.13s-.2-.13-.34-.13h-.14Z" fill="#010101"/></svg>