<!-- by TradingView --><svg width="56" height="56" viewBox="0 0 56 56" fill="none" xmlns="http://www.w3.org/2000/svg">
<rect width="56" height="56" fill="#F0F3FA"/>
<path fill-rule="evenodd" clip-rule="evenodd" d="M24.093 25H21.5982L18.6775 32.9978H16.0826L19.0033 25H16.2518L16.957 23H24.911L24.093 25ZM4.40332 32.998L8.09636 23.002H10.6232L9.1772 27H9.0604L8.18017 29H8.45386L7.00788 32.998H4.40332ZM8.45386 29L9.1772 27H12.0378L13.5148 23.002H16.0417L12.4264 32.998H9.8218L11.2989 29H8.45386Z" fill="#18305B"/>
<path d="M22.0146 33L25.6958 23H28.4936L26.0679 30H49.3658L47.4478 33H22.0146Z" fill="url(#paint0_linear_229_26682)"/>
<path d="M24.2036 29.534C23.9301 28.8275 23.3801 27.3934 23.3682 27.3098L25.6955 26.3993L27.0084 29.8624L26.7996 29.952L26.3072 28.8474L24.2036 29.534Z" fill="#F7CFD0"/>
<path d="M29.6222 27.3716L27.1977 26.6322L26.3809 28.7597L28.7146 29.5121L29.6222 27.3716Z" fill="#AF1F23" fill-opacity="0.5"/>
<path fill-rule="evenodd" clip-rule="evenodd" d="M33.2706 30.5L32.5241 30.9905L32.561 30.5099H31.8888L31.833 31.4447L30.2959 32.4547H30.972L31.8061 31.8938L31.7726 32.4547H32.4116L32.49 31.434L33.8791 30.5H33.2706ZM30.2171 30.5099L28.6621 32.4253H30.0142L30.341 32.0913H29.4396L29.8452 31.6591H30.6565L31.0171 31.2368H30.1382L30.4086 30.8831H31.4452L31.7157 30.5099H30.2171ZM38.5025 30.5099L36.9476 32.4253H38.2997L38.6265 32.0913H37.7251L38.1307 31.6591H38.942L39.3025 31.2368H38.4237L38.6941 30.8831H39.7307L40.0011 30.5099H38.5025ZM32.5727 32.4651H33.2518L33.8973 31.6977C34.2355 31.7829 35.014 31.7912 35.4232 31.1422C35.5629 30.9303 35.6898 30.5064 35.0794 30.5064H34.2662L32.5727 32.4651ZM34.1824 31.3395L34.5177 30.8572C34.6239 30.8572 34.8363 30.8981 34.8363 31.0618C34.8363 31.2664 34.6099 31.2957 34.1824 31.3395ZM34.6183 32.4651H35.2974L35.9429 31.6977C36.0282 31.7192 36.1414 31.7358 36.2697 31.7382L35.9513 32.4651H36.5633L36.7933 31.6633C37.0439 31.5819 37.2912 31.424 37.4688 31.1422C37.6085 30.9303 37.7354 30.5064 37.1251 30.5064H36.3118L34.6183 32.4651ZM36.228 31.3395L36.5633 30.8572C36.6695 30.8572 36.8819 30.8981 36.8819 31.0618C36.8819 31.2664 36.6556 31.2957 36.228 31.3395ZM39.6612 31.8107L39.0622 32.0421C39.1734 32.2736 39.5747 32.4996 39.8464 32.4996L39.8912 32.4998C40.1567 32.5012 40.5001 32.503 41.0258 32.0906C41.5815 31.6546 41.1431 31.3478 40.8714 31.2455C40.5997 31.1432 40.5997 30.8687 40.9702 30.8687C41.2666 30.8687 41.4806 31.0194 41.5506 31.0948L41.9087 30.831C41.8038 30.7234 41.5271 30.5081 41.2604 30.5081C40.927 30.5081 40.6738 30.5188 40.2725 30.7987C39.8711 31.0786 39.8341 31.5685 40.2231 31.6815C40.6121 31.7945 40.4515 32.0421 40.1058 32.0421C39.8291 32.0421 39.6941 31.8878 39.6612 31.8107ZM41.1835 32.0421L41.7825 31.8107C41.8154 31.8878 41.9504 32.0421 42.227 32.0421C42.5728 32.0421 42.7334 31.7945 42.3444 31.6815C41.9554 31.5685 41.9924 31.0786 42.3938 30.7987C42.7951 30.5188 43.0483 30.5081 43.3817 30.5081C43.6484 30.5081 43.925 30.7234 44.03 30.831L43.6719 31.0948C43.6019 31.0194 43.3879 30.8687 43.0915 30.8687C42.721 30.8687 42.721 31.1432 42.9927 31.2455C43.2644 31.3478 43.7028 31.6546 43.1471 32.0906C42.6214 32.503 42.278 32.5012 42.0125 32.4998C41.9973 32.4997 41.9824 32.4996 41.9677 32.4996C41.696 32.4996 41.2947 32.2736 41.1835 32.0421Z" fill="white"/>
<path d="M8.43177 22L8.24023 22.5H51.5836L51.9999 22H8.43177Z" fill="#B01F23"/>
<path d="M4.19153 33.5L4 34H47.3433L47.7597 33.5H4.19153Z" fill="#B01F23"/>
<defs>
<linearGradient id="paint0_linear_229_26682" x1="42.258" y1="30.5711" x2="47.7025" y2="32.2905" gradientUnits="userSpaceOnUse">
<stop offset="0.383219" stop-color="#AF1F23"/>
<stop offset="1" stop-color="#AF1F23" stop-opacity="0"/>
</linearGradient>
</defs>
</svg>
