<!-- by TradingView --><svg width="18" height="18" viewBox="0 0 18 18" xmlns="http://www.w3.org/2000/svg"><path fill="#F0F3FA" d="M0 0h18v18H0z"/><path fill="#222E6A" d="M3 5h12v3H3zM3 11h12v2H3z"/><path d="M6 8H3l1.5 1.5L6 8Z" fill="#93BF4A"/><path d="M6 11H3l1.5-1.5L6 11Z" fill="#F7DF3D"/><path d="M4.5 9.5 3 8v3l1.5-1.5Z" fill="#ECDC3B"/><path d="M4.5 9.5 6 8v3L4.5 9.5Z" fill="#5DB24E"/><path d="M9 8H6l1.5 1.5L9 8Z" fill="#2CC1E1"/><path d="M9 11H6l1.5-1.5L9 11Z" fill="#006BA9"/><path d="M7.5 9.5 6 8v3l1.5-1.5Z" fill="#0097D1"/><path d="M7.5 9.5 9 8v3L7.5 9.5Z" fill="#2A3B79"/><path d="M12 8H9l1.5 1.5L12 8Z" fill="#FCBF42"/><path d="M12 11H9l1.5-1.5L12 11Z" fill="#F15642"/><path d="M10.5 9.5 9 8v3l1.5-1.5Z" fill="#F37257"/><path d="M10.5 9.5 12 8v3l-1.5-1.5Z" fill="#EF3E34"/><path d="M15 8h-3l1.5 1.5L15 8Z" fill="#FCBF42"/><path d="M15 11h-3l1.5-1.5L15 11Z" fill="#FCE451"/><path d="M13.5 9.5 12 8v3l1.5-1.5Z" fill="#F78F48"/><path d="M13.5 9.5 15 8v3l-1.5-1.5Z" fill="#FFD841"/><path d="M4 7.5v-2h10v2H4ZM4 12.5v-1h10v1H4Z" fill="#D2D2CD"/></svg>