<!-- by TradingView --><svg width="56" height="56" viewBox="0 0 56 56" xmlns="http://www.w3.org/2000/svg"><path fill="#F0F3FA" d="M0 0h56v56H0z"/><path d="M9 27v-6h1v2.54h3V21h1v6h-1v-2.55h-3V27H9Zm25.25 0H33l2.28-6h1.44L39 27h-1.25L36 22.23 34.25 27Z"/><path d="M38 25h-4v1h4v-1Zm3-4v6h-1v-6h1ZM5 29v6H4v-6h1Zm6 0v6h-.98L7 31v4H6v-6h.99L10 33v-4h1Zm36-8v6h-.98L43 23v4h-1v-6h.99L46 25v-4h1ZM14.06 35H12v-6h2.1c1.77 0 2.9 1.25 2.9 3 0 1.76-1.16 3-2.94 3ZM13 34h1.1c1.26 0 1.9-.79 1.9-2 0-1.2-.63-2-1.88-2H13v4Zm9-5h1v3.86c0 1.39-1.22 2.14-2.5 2.14s-2.5-.75-2.5-2.14V29h1v3.73c0 .78.75 1.27 1.5 1.27s1.5-.49 1.5-1.27V29Zm-3-8h1v3.86c0 1.39-1.22 2.14-2.5 2.14s-2.5-.75-2.5-2.14V21h1v3.73c0 .78.75 1.27 1.5 1.27s1.5-.49 1.5-1.27V21Zm8.78 9.68c-.06-.5-.53-.68-1.23-.68-.47 0-1.54.07-1.55.65 0 1.35 4 .35 4 2.62 0 1.3-1.4 1.73-2.47 1.73-1.16 0-2.47-.47-2.53-1.81h1c.06.68.93.81 1.52.81.51 0 1.47-.1 1.48-.73 0-1.27-4-.27-4-2.55 0-1.23 1.53-1.72 2.56-1.72 1.02 0 2.33.48 2.35 1.68h-1.13Zm-3-8c-.06-.5-.53-.68-1.23-.68-.47 0-1.54.07-1.55.65 0 1.35 4 .35 4 2.62 0 1.3-1.4 1.73-2.47 1.73-1.16 0-2.47-.47-2.53-1.81h1c.06.68.93.81 1.52.81.51 0 1.47-.1 1.48-.73 0-1.27-4-.27-4-2.55 0-1.23 1.53-1.72 2.56-1.72 1.02 0 2.33.48 2.35 1.68h-1.13Zm6 0c-.06-.5-.53-.68-1.23-.68-.47 0-1.54.07-1.55.65 0 1.35 4 .35 4 2.62 0 1.3-1.4 1.73-2.47 1.73-1.16 0-2.47-.47-2.53-1.81h1c.06.68.93.81 1.52.81.51 0 1.47-.1 1.48-.73 0-1.27-4-.27-4-2.55 0-1.23 1.53-1.72 2.56-1.72 1.02 0 2.33.48 2.35 1.68h-1.13Zm20 8c-.06-.5-.53-.68-1.23-.68-.47 0-1.54.07-1.55.65 0 1.35 4 .35 4 2.62 0 1.3-1.4 1.73-2.47 1.73-1.16 0-2.47-.47-2.53-1.81h1c.06.68.93.81 1.52.81.51 0 1.47-.1 1.48-.73 0-1.27-4-.27-4-2.55 0-1.23 1.53-1.72 2.56-1.72 1.02 0 2.33.48 2.35 1.68h-1.13ZM29 30v-1h5v1h-2v5h-1v-5h-2Zm6 5v-6h1.96A2 2 0 0 1 39 31c0 1.15-.84 2-2.05 2h-1.4v-1h1.43c.62 0 1.02-.36 1.02-1s-.4-1-1.02-1H36v5h-1Zm2.7-2.72L39 35h-1.06l-1.27-2.72h1.03ZM41 29v6h-1v-6h1Zm1 6v-6h4v1h-3v1.5h2.77v1H43V34h3v1h-4Z"/></svg>