<!-- by TradingView --><svg width="18" height="18" viewBox="0 0 18 18" fill="none" xmlns="http://www.w3.org/2000/svg">
<rect width="18" height="18" fill="#F0F3FA"/>
<rect x="5" y="4" width="8" height="1.8347" fill="url(#paint0_linear_229_29182)"/>
<path fill-rule="evenodd" clip-rule="evenodd" d="M8.63636 6.1875H5V14H8.63636V6.1875ZM13 6.1875H9.36364V14H13V6.1875Z" fill="url(#paint1_linear_229_29182)"/>
<ellipse cx="8.8062" cy="4.91734" rx="0.915578" ry="0.81956" fill="#F0F3FA"/>
<path fill-rule="evenodd" clip-rule="evenodd" d="M9.8 4.04521H12.2728V4.89743H9.8V4.04521ZM9.72727 4H9.8H12.2728H12.3455H13V5.875H12.3455H12.2728H9.8H9.72727L7.90909 5.875H7.83636L5.72727 5.875H5.65455H5V4H5.65455H5.72727H7.83636H7.90909H9.72727ZM9.72727 5.82979H7.90909V5.19683C8.03336 5.53029 8.38495 5.77069 8.79926 5.77069C9.27032 5.77069 9.6603 5.45992 9.72727 5.05492V5.82979ZM8.79926 4.09111C8.38495 4.09111 8.03336 4.33151 7.90909 4.66497V4.04521H9.72727V4.80688C9.6603 4.40188 9.27032 4.09111 8.79926 4.09111ZM7.83636 4.89743V4.04521H5.72727V4.89743H7.83636ZM7.83636 5.82979V4.94169H5.72727V5.82979H7.83636ZM9.8 5.82979H12.2728V4.94169H9.8V5.82979ZM12.9503 5.82979H12.3455V4.94169H12.9503V5.82979ZM12.9503 4.89743H12.3455V4.04521H12.9503V4.89743ZM5.65455 5.82979H5.04974V4.04521H5.65455V4.89743H5.05234V4.94169H5.65455V5.82979ZM8.82395 4.13567C9.29092 4.14708 9.66795 4.48091 9.68721 4.89743H8.82395V4.13567ZM8.7745 4.89743V4.13568C8.30756 4.14711 7.93056 4.48093 7.9113 4.89743H8.7745ZM8.7745 4.94169V5.72612C8.29912 5.71448 7.91695 5.36869 7.91061 4.94169H8.7745ZM8.82395 4.94169V5.72612C9.29936 5.71451 9.68156 5.3687 9.6879 4.94169H8.82395ZM12.2728 6.23107H9.95403V6.50002H10.2727H12.2728V6.23107ZM11.1315 7.28127C11.1315 6.93152 10.8484 6.6386 10.4683 6.56252H10.0771C10.0348 6.57099 9.99369 6.58215 9.95403 6.59578V7.96675C10.0526 8.00062 10.1601 8.01925 10.2727 8.01925C10.747 8.01925 11.1315 7.68884 11.1315 7.28127ZM9.90458 6.56252V6.56673C9.69472 6.6467 9.52666 6.79295 9.43636 6.97457V6.56252H9.90458ZM9.90458 6.61435C9.6715 6.70954 9.49623 6.89231 9.43636 7.11316V7.44937C9.49623 7.67022 9.6715 7.85299 9.90458 7.94818V6.61435ZM9.36364 6.56252V7.28127V12.75V13.3207H8.70909V6.56252H9.36364ZM9.90458 7.9958C9.69472 7.91583 9.52666 7.76958 9.43636 7.58796V12.3586C9.52483 12.1278 9.68941 11.9267 9.90458 11.7773V7.9958ZM9.95403 11.7444V8.01316C10.0532 8.04507 10.1606 8.06252 10.2727 8.06252C10.7748 8.06252 11.1818 7.71274 11.1818 7.28127C11.1818 6.95866 10.9543 6.68173 10.6296 6.56252H12.2728V13.3207H12.1126C12.215 13.1496 12.2727 12.9556 12.2727 12.75C12.2727 12.0596 11.6215 11.5 10.8182 11.5C10.4946 11.5 10.1956 11.5908 9.95403 11.7444ZM9.90458 6.23107V6.50002H9.43636V6.23107H9.90458ZM9.90458 11.8318C9.66584 12.0074 9.4964 12.2506 9.43636 12.5268V12.9732C9.4632 13.0967 9.51191 13.2135 9.5789 13.3207H9.90458V11.8318ZM9.52377 13.3207C9.48946 13.2634 9.46016 13.2035 9.43636 13.1414V13.3207H9.52377ZM9.55158 13.365C9.64223 13.5026 9.76235 13.6239 9.90458 13.7227V13.9565H9.43636V13.365H9.55158ZM9.90458 13.6682C9.78745 13.582 9.68701 13.4796 9.60797 13.365H9.90458V13.6682ZM9.95403 13.7556V13.9565H10.4363C10.26 13.9153 10.097 13.8464 9.95403 13.7556ZM10.7453 13.9565C10.4477 13.9434 10.1745 13.8508 9.95403 13.7029V13.365H12.0284C11.7952 13.7032 11.3755 13.9352 10.891 13.9565H10.7453ZM11.2001 13.9565H12.2728V13.365H12.0848C11.8958 13.6519 11.5786 13.8682 11.2001 13.9565ZM12.0575 13.3207C12.1637 13.1508 12.2239 12.9564 12.2239 12.75C12.2239 12.0828 11.5946 11.5419 10.8182 11.5419C10.4924 11.5419 10.1924 11.6372 9.95403 11.7971V13.3207H12.0575ZM8.70909 13.365H9.36364V13.9565H8.70909V13.365ZM8.63636 13.3207V12.75V7.28127V6.56252H8.08416C8.40883 6.68173 8.63636 6.95866 8.63636 7.28127C8.63636 7.6368 8.36 7.93687 7.98182 8.03148V11.7059C8.37616 11.9295 8.63636 12.3136 8.63636 12.75C8.63636 12.9556 8.57859 13.1496 8.47623 13.3207H8.63636ZM7.90909 11.6672V8.04689C7.85034 8.05714 7.78954 8.06252 7.72727 8.06252C7.2252 8.06252 6.81818 7.71274 6.81818 7.28127C6.81818 6.95866 7.04571 6.68173 7.37039 6.56252H5.72727L5.72727 12.75L5.72727 13.3207H5.88741C5.78505 13.1496 5.72727 12.9556 5.72727 12.75C5.72727 12.0596 6.37849 11.5 7.18182 11.5C7.44675 11.5 7.69515 11.5609 7.90909 11.6672ZM7.72727 8.01925C7.78966 8.01925 7.85049 8.01353 7.90909 8.00267V6.56252H7.53166C7.15164 6.6386 6.86853 6.93152 6.86853 7.28127C6.86853 7.68884 7.253 8.01925 7.72727 8.01925ZM7.98182 6.57624V7.98629C8.33181 7.89307 8.58601 7.61268 8.58601 7.28127C8.58601 6.94985 8.33181 6.66946 7.98182 6.57624ZM7.90909 6.50002H7.72727H5.72727V6.23107H7.90909V6.50002ZM8.58757 12.75C8.58757 12.3382 8.34786 11.9746 7.98182 11.7565V13.3207H8.4211C8.52732 13.1508 8.58757 12.9564 8.58757 12.75ZM7.90909 13.3207V11.7159C7.69691 11.6055 7.448 11.5419 7.18182 11.5419C6.40544 11.5419 5.77606 12.0828 5.77606 12.75C5.77606 12.9564 5.83632 13.1508 5.94253 13.3207H7.90909ZM5.72727 13.365H5.91522C6.10425 13.6519 6.42144 13.8682 6.79995 13.9565H5.72727V13.365ZM5.97161 13.365C6.20482 13.7032 6.62451 13.9352 7.10896 13.9565H7.25468C7.49339 13.946 7.71639 13.8843 7.90909 13.784V13.365H5.97161ZM7.90909 13.9565H7.56369C7.68597 13.9279 7.80186 13.8861 7.90909 13.8328V13.9565ZM7.98182 13.9565V13.7941C8.17413 13.6851 8.33453 13.5378 8.44842 13.365H8.63636V13.9565H7.98182ZM7.98182 13.365H8.39203C8.28849 13.5151 8.14821 13.6443 7.98182 13.7435V13.365ZM5.65455 13.3207V6.56252H5.04945V13.3207H5.65455ZM5.04945 13.365H5.65455V13.9565H5.04945V13.365ZM12.3455 13.365V13.9565H12.9506V13.365H12.3455ZM12.9506 13.3207H12.3455V6.56252H12.9506V13.3207ZM9.36364 6.23107V6.50002H8.70909V6.23107H9.36364ZM8.63636 6.23107V6.50002H7.98182V6.23107H8.63636ZM5.65455 6.23107V6.50002H5.04945V6.23107H5.65455ZM12.9506 6.23107V6.50002H12.3455V6.23107H12.9506ZM9.43636 14H9.36364H8.70909H8.63636H7.98182H7.90909H5.72727H5.65455L5 14V6.18751H13V14L12.3455 14H12.2728H9.95403H9.90458H9.43636Z" fill="black"/>
<defs>
<linearGradient id="paint0_linear_229_29182" x1="9" y1="4" x2="9" y2="5.8347" gradientUnits="userSpaceOnUse">
<stop stop-color="#0773BC"/>
<stop offset="0.756329" stop-color="#0773BC" stop-opacity="0"/>
</linearGradient>
<linearGradient id="paint1_linear_229_29182" x1="11.2257" y1="6.05223" x2="11.2257" y2="14" gradientUnits="userSpaceOnUse">
<stop stop-color="#0773BC"/>
<stop offset="0.756329" stop-color="#0773BC" stop-opacity="0"/>
</linearGradient>
</defs>
</svg>
