<!-- by TradingView --><svg width="18" height="18" viewBox="0 0 18 18" xmlns="http://www.w3.org/2000/svg"><path fill="#F0F3FA" d="M0 0h18v18H0z"/><path d="M4.5 6 3 7v5h1.5V6Z" fill="url(#a5esympcw)"/><path d="M5.5 6H8c1.5 0 2.5.3 2.5 1.5S9.83 9 9.5 9c.33 0 1 .3 1 1.5S9.5 12 9 12H5.5V6ZM7 11h1c1 0 1-.35 1-.75 0-.5-.31-.75-1-.75H7V11Zm0-2.5h1.03c.21 0 .97.01.97-.75C9 7 8.4 7 8 7H7v1.5Z" fill="url(#b5esympcw)"/><path d="M12.5 6 11 7v5h4v-1.5h-2.5V6Z" fill="url(#c5esympcw)"/><defs><linearGradient id="a5esympcw" x1="4" y1="6.5" x2="3.75" y2="12" gradientUnits="userSpaceOnUse"><stop stop-color="#FFB326"/><stop offset=".17" stop-color="#F28028"/><stop offset=".27" stop-color="#FE593B"/><stop offset=".46" stop-color="#BB2E34"/><stop offset=".66" stop-color="#24C1EA"/><stop offset=".82" stop-color="#0396D2"/><stop offset="1" stop-color="#016EB9"/></linearGradient><linearGradient id="b5esympcw" x1="6" y1="6.5" x2="8.5" y2="11.5" gradientUnits="userSpaceOnUse"><stop stop-color="#EF8128"/><stop offset=".28" stop-color="#FE593B"/><stop offset=".6" stop-color="#24C1EA"/><stop offset="1" stop-color="#33355C"/></linearGradient><linearGradient id="c5esympcw" x1="11.5" y1="6.5" x2="14" y2="12" gradientUnits="userSpaceOnUse"><stop stop-color="#0C9DD4"/><stop offset="1" stop-color="#33355C"/></linearGradient></defs></svg>