<!-- by TradingView --><svg width="56" height="56" viewBox="0 0 56 56" xmlns="http://www.w3.org/2000/svg"><path fill="#F0F3FA" d="M0 0h56v56H0z"/><path d="M44 21.18v-2.71L38.04 13H35.1L44 21.18ZM32.67 13h1.48L44 22.06v1.36L32.67 13Zm-2.26 0h.73L44 24.92v.68L30.4 13Zm-2.63 0h.73L44 27.4v.68L27.78 13Zm-2.6 0h.74L44 29.89v.68L25.18 13Zm-1.9 0h.28L44 32.56v.28L23.27 13Zm-4.24 0h.54l1.07 1.26L12 21.61V19L19.04 13ZM12 23.8v-1.32l9.17-7.86.66.76L12 23.8Zm0 2.1v-.67l10.84-9.42.32.38L12 25.89Zm0 2.55v-.67l11.83-10.47.34.38L12 28.45Zm0 2.49v-.67L25.33 18.3l.34.38L12 30.94Zm0 2.23v-.27l14.43-13.47.14.14L12 33.17ZM24.38 43h-2.96l-8.92-8.16 1.3-1.53L24.38 43Zm2.4 0H25.3L14.18 32.81l.65-.76L26.78 43Zm2.23 0h-.74L15.6 31.38l.33-.38L29 43Zm2.63 0h-.74L17 30.28l.33-.38L31.63 43Zm2.6 0h-.74L18.17 28.94l.33-.37L34.24 43Zm1.9 0h-.29L19.7 27.77l.13-.15L36.14 43Z" fill="#0A2E78"/></svg>