<!-- by TradingView --><svg width="56" height="56" viewBox="0 0 56 56" xmlns="http://www.w3.org/2000/svg"><path fill="#F0F3FA" d="M0 0h56v56H0z"/><path d="M24.41 22.71C18.84 22.3 9.81 24.98 6 26.37c3.98-1.57 14.48-4.7 17-4.7 4.5 0 6.89 1.04 9.38 1.04 2.48 0 3.48-.52 7.46-1.04A7.08 7.08 0 0 1 46 24c-1.06-.35-3.77-1.29-6.16-1.29-2.98 0-3.98.53-6.47 1.05-2.49.52-1.99-.52-8.96-1.05ZM30.88 31.6c0-1.68 3.98-3.14 5.98-3.66-4.98 0-7.97 2.61-7.97 3.66 0 1.04.5 2.6 2.5 3.65 1.58.84 3.97 4.18 4.97 5.75 0-3.13-5.48-7.31-5.48-9.4Z" fill="#908E8C"/><path d="M26 24c-2 0-3.5.44-4 .67 2 0 4 1.33 5 1.33s2 0 2-.67c0-.66-.5-1.33-3-1.33Z" fill="#002D5A"/><path d="M31.88 21.67c-2 0-5.97-1.05-9.95-.52-3.19.41-11.95 3.65-15.93 5.22 4.31-1.51 14.6-4.7 17-4.7 3.16 0 6.5 1.04 9.38 1.04 3.37 0 5.47-1.04 8.46-1.04 2.39 0 4.5 1.63 5.16 2.33 0-2.5-3-3-5-3s-7.13.67-9.12.67ZM33.87 37.34c-2-2.61-4.98-3.13-4.98-5.74 0-1.57 5.48-3.66 7.97-3.66-6.47-.52-9.96 2.09-9.96 4.18 0 3.45 4.98 3.66 9.46 8.88-.5-1.04-.5-1.04-2.5-3.66Z" fill="#002D5A"/></svg>