<!-- by TradingView --><svg width="18" height="18" viewBox="0 0 18 18" xmlns="http://www.w3.org/2000/svg"><path fill="#F0F3FA" d="M0 0h18v18H0z"/><path d="M5 6.77 4 6.1v5.82l1-.68V6.77Z" fill="#78C145"/><path d="m13 6.77 1-.68v5.82l-1-.68V6.77Z" fill="#075890"/><path d="M9 3 4 6.09l1 .68L9 4.2V3Z" fill="#9AC945"/><path d="m9 3 5 3.09-1 .68L9 4.2V3Z" fill="#016B9F"/><path d="m9 15-5-3.09 1-.68 4 2.57V15Z" fill="#E83022"/><path d="m9 15 5-3.09-1-.68-4 2.57V15Z" fill="#E82F22"/><path d="M9 4.71 5.33 6.94 9 9l3.67-2.06L9 4.71Z" fill="#C0D0E7"/><path d="M9 9 5.33 6.94v4.12L9 13.29l3.67-2.23V6.94L9 9Z" fill="#B2C1E0"/><path d="M5.67 7.8v-.69H7v.69h-.33v2.4H7v.69H5.67v-.69H6V7.8h-.33ZM11.33 7.11H10v.69h.33v2.4H10v.69h2.33V9.5h-.66v.69H11V7.8h.33v-.69ZM9.67 8.14V7.11H8c-.53 0-.67.46-.67.69v2.06c0 .82.45 1.03.67 1.03h1.67V9.5H9v.69h-.83c-.14 0-.17-.11-.17-.17V7.97c0-.14.11-.17.17-.17H9v.34h.67Z" fill="#FFFFF6"/></svg>