<!-- by TradingView --><svg width="56" height="56" viewBox="0 0 56 56" xmlns="http://www.w3.org/2000/svg"><path fill="#F0F3FA" d="M0 0h56v56H0z"/><path d="M10 25h6v4l2-1.73v-5.78L24 15v4h8.23l-4.04 5H24v5l2-2v-2h6v3.46c.95-1.23 3.5-3.46 5.17-3.46 2.42 0 3.03 2.23 3.03 3.46.83-1.17 2.94-3.46 4.7-3.46 2.7 0 3.19 2.4 3.09 3.64v3.93L42 39v-7.56L34 39v-7.56L26 39v-7.56L18 39v-7.56L10 39V25Z" fill="#002242"/><path d="M16.08 19.56 15.4 17h-1.8v-1h-1.21l3.7 3.56Zm-3.69-2.69V17h-.74l5.04 4.85-.3-1.13-4-3.85ZM17 23l-6.24-6h-.18l-.14.53L16.12 23H17Zm-1.77 0-.71-.68-.74.68h1.45Zm-1.63.17-.9.83h.9v-.83Zm-1.21.27 1.68-1.55-.65-.63L11.58 23h.8v.44ZM10.68 23l2.29-2.17-.59-.57L9.48 23h1.2ZM9 22.47l2.93-2.64-.59-.57-1.8 1.7L9 22.47Zm.83-2.64 1.06-1-.63-.6-.43 1.6Z" fill="#00752F"/></svg>