<!-- by TradingView --><svg width="56" height="56" viewBox="0 0 56 56" xmlns="http://www.w3.org/2000/svg"><path fill="#F0F3FA" d="M0 0h56v56H0z"/><path d="M45 28a17 17 0 1 1-34 0 17 17 0 0 1 34 0ZM30 41.73c0 .6.53 1.07 1.13.94a15 15 0 0 0 0-29.34.94.94 0 0 0-1.13.94V16c2.45.05 5.65.54 7 .8l-.38 5.94c-.17 0-.6-.06-.94-.3.24-2.82-1.01-5.44-6-5.44a10.28 10.28 0 0 0-1.93.18c-4.86.96-6.75 5.63-6.75 10.7 0 4.55 2.96 7.78 4.06 8.89V39C22.5 38.68 17 36.1 17 27.88c0-7.46 5.05-10.35 9-11.37v-2.24a.94.94 0 0 0-1.13-.94 15 15 0 0 0 0 29.34.94.94 0 0 0 1.13-.94V19.3c.8-.45 2.1-.86 4-.8V29h8v1h-1.01c-.55 0-.99.5-.99 1.11v5.2c0 .57.48 1.03.99 1.03v.84L30.67 40v-.89l.85-.7c.3-.21.48-.57.48-.96V31.1c0-.61-.44-1.11-.99-1.11H30v11.73Z" fill="url(#addns400n)"/><defs><linearGradient id="addns400n" x1="28" y1="11" x2="28" y2="45" gradientUnits="userSpaceOnUse"><stop stop-color="#906F3F"/><stop offset=".51" stop-color="#B9935A"/><stop offset="1" stop-color="#906F3F"/></linearGradient></defs></svg>