<!-- by TradingView --><svg width="18" height="18" viewBox="0 0 18 18" xmlns="http://www.w3.org/2000/svg"><path fill="#F0F3FA" d="M0 0h18v18H0z"/><path d="m9 4 5 2.73v3.19l-2.33 1.77L9 10.35 6.65 11.7 4 9.93V7.07L9 4Zm.01.37-4.7 2.9v2.3L9 7.06l4.69 2.49V6.94L9 4.37Zm4.54 5.48-4.56-2.4-4.51 2.4 2.18 1.46L9 9.98l2.64 1.33 1.9-1.46Z" fill="#19864D"/><path d="m9 11-2 1 2 1 2-1-2-1ZM9 13l-1 .5 1 .5 1-.5-1-.5Z" fill="#19864D"/><path d="M5 8.5v-1l4-2 4 2v1l-4-2-4 2Z" fill="#62987C"/><path d="m7 10.5-1-1L9 8l3 1.5-1 1-2-1-2 1Z" fill="#62987C"/></svg>