<!-- by TradingView --><svg width="18" height="18" viewBox="0 0 18 18" xmlns="http://www.w3.org/2000/svg"><path fill="#F0F3FA" d="M0 0h18v18H0z"/><path fill="#242122" d="M3 12.47h12V13H3z"/><path d="M5 5h.5v.33H5v5.34h.5V11h-2v-.33H4V5.33h-.5V5H5Zm9 0h.5v.33H14v5.34h.5V11h-2v-.33h.5V5.33h-.5V5H14Zm-2.37 3.67c.03.83-.47 2.33-2.7 2.33C7.23 11 6 9.98 6 8.03A2.99 2.99 0 0 1 9.03 5c.64 0 1.63.33 1.87.5l.26-.5h.34v1.67h-.38c-.06-.5-.8-1.34-2-1.34-.97 0-1.12 1-1.12 1.76v2.27c0 .46.11 1.3.86 1.3.62 0 1.14-.17 1.14-1v-1h-.63v-.33H12v.34h-.37Z" fill="#0094DA"/></svg>