<!-- by TradingView --><svg width="18" height="18" viewBox="0 0 18 18" fill="none" xmlns="http://www.w3.org/2000/svg">
<rect width="18" height="18" fill="#F0F3FA"/>
<path fill-rule="evenodd" clip-rule="evenodd" d="M12.5 6L15 6.01272L14.9983 6.28544L14.4999 6.2829V11.7272H15V12H12.5V11.7272H13V6.27527L12.4983 6.27272L12.5 6ZM4.9999 6H5.5V6.27273H4.9999V11.7272H5.5V11.9999H4.9999V12H3.5V11.9999H3V11.7272H3.5V6.27273H3V6H3.5H4.9999ZM9.02041 6C6.5945 6 5.69982 7.87598 5.69982 9.09429C5.70675 10.0628 6.35572 12 8.89616 12C11.1965 12 11.8364 10.2364 11.8923 9.27273H12.2994V9H11.892H9.99999H9.29955V9.27273H9.99999V10.7936C9.97602 11.1098 9.64391 11.7272 8.89616 11.7272C7.99689 11.7272 7.99847 11.1112 7.99988 10.5595L7.99999 10.4946V7.58703C8.03195 7.13681 8.20113 6.27273 9.15979 6.27273C10.3581 6.27273 10.9932 7.12082 10.9932 7.63635H11.3994V6H10.9932L10.7655 6.49411C10.5168 6.32941 9.81963 6 9.02041 6Z" fill="#017AB3"/>
</svg>
