<!-- by TradingView --><svg width="18" height="18" viewBox="0 0 18 18" fill="none" xmlns="http://www.w3.org/2000/svg">
<rect width="18" height="18" fill="#F0F3FA"/>
<path fill-rule="evenodd" clip-rule="evenodd" d="M7 5C7.592 5 8.15397 5.12861 8.65948 5.35941C8.17136 5.67387 7.75058 6.08382 7.42352 6.56286C7.28589 6.53911 7.14437 6.52673 6.99996 6.52673C5.63394 6.52673 4.52656 7.63411 4.52656 9.00013C4.52656 10.3661 5.63394 11.4735 6.99996 11.4735C8.36598 11.4735 9.47335 10.3661 9.47335 9.00013C9.47335 8.5582 9.35745 8.14333 9.15438 7.78428C9.4412 7.34972 9.87737 7.02242 10.3898 6.8755C10.7764 7.49108 11 8.21943 11 9C11 11.2091 9.20913 13 7 13C4.79086 13 3 11.2091 3 9C3 6.79086 4.79086 5 7 5ZM11 13C13.2091 13 15 11.2091 15 9C15 6.79086 13.2091 5 11 5C8.79082 5 6.99996 6.79086 6.99996 9C6.99996 9.75485 7.20905 10.4609 7.57248 11.0633C7.9334 10.9478 8.47714 10.671 8.81381 10.1581C8.63043 9.81265 8.52655 9.41852 8.52655 9.00013C8.52655 7.63411 9.63392 6.52673 10.9999 6.52673C12.366 6.52673 13.4733 7.63411 13.4733 9.00013C13.4733 10.3661 12.366 11.4735 10.9999 11.4735C10.8333 11.4735 10.6704 11.457 10.513 11.4256C10.2816 11.7592 9.82368 12.2573 9.1795 12.5627C9.72556 12.8423 10.3443 13 11 13Z" fill="#04A7EA"/>
</svg>
