<!-- by TradingView --><svg width="18" height="18" viewBox="0 0 18 18" xmlns="http://www.w3.org/2000/svg"><path fill="#181B1E" d="M0 0h18v18H0z"/><circle cx="4.5" cy="5.5" r=".5" fill="#fff"/><path d="M3 11.85c.64-.06 1-.22 1-.96V8.36c0-.3-.01-.7-.37-.7-.14 0-.29.06-.42.1V7.6C3.69 7.43 4.5 7 5 7v3.9c0 .68.39.9 1 .95V12H3v-.15Zm3.42.01c.48-.04.58-.17.58-.76V8.34c0-.37 0-.64-.24-.64a.97.97 0 0 0-.34.05v-.19L8 7v.85C8.52 7.4 8.8 7 9.5 7c.58 0 1.13.34 1.33.92.51-.49 1.2-.92 1.92-.92C13.87 7 14 7.93 14 8.95v2.22c0 .55.55.65 1 .7V12h-2.8v-.15c.51-.04.8-.18.8-.77v-2.3c0-.68-.23-1.16-.72-1.16s-.93.27-1.28.6v2.74c0 .61.31.88.87.9V12H9.13v-.14c.7-.08.87-.4.87-1.14v-1.5c0-.74-.11-1.6-1-1.6-.47 0-.68.26-1 .63v2.89c0 .58.3.72.8.72V12H6.43v-.14Z" fill="#fff"/></svg>