<!-- by TradingView --><svg width="18" height="18" viewBox="0 0 18 18" fill="none" xmlns="http://www.w3.org/2000/svg">
<rect width="18" height="18" fill="#F0F3FA"/>
<path d="M10.1355 6.03337L11.1297 5.00487C11.1304 5.00406 11.1314 5.00343 11.1324 5.00299C11.1334 5.00256 11.1345 5.00233 11.1356 5.00233C11.1367 5.00233 11.1378 5.00256 11.1388 5.00299C11.1398 5.00343 11.1407 5.00406 11.1415 5.00487L14.9976 8.99399C14.9983 8.99479 14.9989 8.99574 14.9994 8.99679C14.9998 8.99783 15 8.99896 15 9.00009C15 9.00122 14.9998 9.00235 14.9994 9.00339C14.9989 9.00444 14.9983 9.00539 14.9976 9.00619L11.1394 12.9975C11.1386 12.9983 11.1377 12.9989 11.1367 12.9993C11.1357 12.9998 11.1346 13 11.1335 13C11.1324 13 11.1313 12.9998 11.1303 12.9993C11.1293 12.9989 11.1284 12.9983 11.1276 12.9975L10.1334 11.969C10.1326 11.9682 10.1317 11.9675 10.1307 11.9671C10.1297 11.9667 10.1286 11.9664 10.1275 11.9664C10.1264 11.9664 10.1253 11.9667 10.1243 11.9671C10.1233 11.9675 10.1224 11.9682 10.1216 11.969L9.12722 12.9975C9.12645 12.9983 9.12553 12.9989 9.12452 12.9993C9.12351 12.9998 9.12242 13 9.12133 13C9.12023 13 9.11914 12.9998 9.11813 12.9993C9.11712 12.9989 9.1162 12.9983 9.11543 12.9975L7.99999 11.8434C7.99922 11.8426 7.9983 11.8419 7.99728 11.8415C7.99627 11.8411 7.99519 11.8408 7.99409 11.8408C7.993 11.8408 7.99191 11.8411 7.9909 11.8415C7.98989 11.8419 7.98897 11.8426 7.98819 11.8434L6.87241 12.9975C6.87163 12.9983 6.87071 12.9989 6.8697 12.9993C6.86869 12.9998 6.86761 13 6.86651 13C6.86541 13 6.86433 12.9998 6.86332 12.9993C6.8623 12.9989 6.86139 12.9983 6.86061 12.9975L3.00245 9.00619C3.00167 9.00539 3.00106 9.00444 3.00064 9.00339C3.00022 9.00235 3 9.00122 3 9.00009C3 8.99896 3.00022 8.99783 3.00064 8.99679C3.00106 8.99574 3.00167 8.99479 3.00245 8.99399L6.86061 5.00253C6.86139 5.00173 6.8623 5.00109 6.86332 5.00066C6.86433 5.00022 6.86541 5 6.86651 5C6.86761 5 6.86869 5.00022 6.8697 5.00066C6.87071 5.00109 6.87163 5.00173 6.87241 5.00253L7.98802 6.15664C7.98879 6.15744 7.98971 6.15808 7.99073 6.15851C7.99174 6.15895 7.99282 6.15917 7.99392 6.15917C7.99501 6.15917 7.9961 6.15895 7.99711 6.15851C7.99812 6.15808 7.99904 6.15744 7.99981 6.15664L9.1156 5.00253C9.11638 5.00173 9.11729 5.00109 9.11831 5.00066C9.11932 5.00022 9.1204 5 9.1215 5C9.1226 5 9.12368 5.00022 9.12469 5.00066C9.1257 5.00109 9.12662 5.00173 9.1274 5.00253L10.1237 6.03337C10.1245 6.03417 10.1254 6.03481 10.1264 6.03524C10.1274 6.03568 10.1285 6.0359 10.1296 6.0359C10.1307 6.0359 10.1318 6.03568 10.1328 6.03524C10.1338 6.03481 10.1347 6.03417 10.1355 6.03337ZM12.9849 8.99309C12.9866 8.99491 12.9876 8.99736 12.9876 8.99991C12.9876 9.00246 12.9866 9.00491 12.9849 9.00673L10.4463 11.6331C10.4446 11.6349 10.4436 11.6373 10.4436 11.6399C10.4436 11.6424 10.4446 11.6449 10.4463 11.6467L11.129 12.3531C11.1307 12.3549 11.1331 12.3559 11.1356 12.3559C11.138 12.3559 11.1404 12.3549 11.1422 12.3531L14.3768 9.00673C14.3785 9.00491 14.3795 9.00246 14.3795 8.99991C14.3795 8.99736 14.3785 8.99491 14.3768 8.99309L11.1422 5.64687C11.1404 5.64508 11.138 5.64407 11.1356 5.64407C11.1331 5.64407 11.1307 5.64508 11.129 5.64687L10.4463 6.35329C10.4446 6.35511 10.4436 6.35756 10.4436 6.36011C10.4436 6.36267 10.4446 6.36512 10.4463 6.36693L12.9849 8.99309ZM5.25588 9.00458C5.25469 9.00333 5.25403 9.00166 5.25403 8.99991C5.25403 8.99816 5.25469 8.99649 5.25588 8.99524L7.6772 6.49038C7.67839 6.48914 7.67905 6.48746 7.67905 6.48571C7.67905 6.48397 7.67839 6.48229 7.6772 6.48105L6.87119 5.64705C6.86999 5.64582 6.86837 5.64514 6.86668 5.64514C6.865 5.64514 6.86337 5.64582 6.86217 5.64705L3.62322 8.99758C3.62203 8.99882 3.62137 9.0005 3.62137 9.00224C3.62137 9.00399 3.62203 9.00567 3.62322 9.00691L6.862 12.3574C6.8632 12.3587 6.86482 12.3593 6.86651 12.3593C6.8682 12.3593 6.86982 12.3587 6.87102 12.3574L7.67946 11.5213C7.68064 11.52 7.68131 11.5184 7.68131 11.5166C7.68131 11.5149 7.68064 11.5132 7.67946 11.512L5.25588 9.00458ZM9.13329 5.65477C9.13295 5.64903 9.12965 5.64603 9.12341 5.6458C9.12176 5.64574 9.12013 5.64602 9.11861 5.64664C9.11709 5.64726 9.11571 5.64819 9.11456 5.64938L8.31375 6.47782C8.30878 6.48308 8.30878 6.48835 8.31375 6.49361L8.99783 7.20129C8.9984 7.20188 8.99907 7.20236 8.99982 7.20268C9.00056 7.20301 9.00136 7.20317 9.00217 7.20317C9.00297 7.20317 9.00377 7.20301 9.00452 7.20268C9.00526 7.20236 9.00594 7.20188 9.0065 7.20129L9.81355 6.36621C9.81406 6.3657 9.81446 6.36508 9.81473 6.3644C9.815 6.36373 9.81514 6.363 9.81514 6.36227C9.81514 6.36153 9.815 6.36081 9.81473 6.36013C9.81446 6.35945 9.81406 6.35884 9.81355 6.35832C9.58611 6.12314 9.35935 5.88863 9.13329 5.65477ZM10.7321 8.99524C10.7333 8.99649 10.734 8.99816 10.734 8.99991C10.734 9.00166 10.7333 9.00333 10.7321 9.00458L9.31663 10.4689C9.31544 10.4702 9.31478 10.4718 9.31478 10.4736C9.31478 10.4753 9.31544 10.477 9.31663 10.4782L10.1251 11.3146C10.1263 11.3158 10.1279 11.3165 10.1296 11.3165C10.1313 11.3165 10.1329 11.3158 10.1341 11.3146L12.3646 9.00691C12.3658 9.00567 12.3665 9.00399 12.3665 9.00224C12.3665 9.0005 12.3658 8.99882 12.3646 8.99758L10.132 6.68775C10.1308 6.68653 10.1292 6.68584 10.1275 6.68584C10.1258 6.68584 10.1242 6.68653 10.123 6.68775L9.3168 7.52175C9.31562 7.52299 9.31495 7.52467 9.31495 7.52642C9.31495 7.52816 9.31562 7.52984 9.3168 7.53108L10.7321 8.99524ZM7.27099 9.00798C7.27026 9.00723 7.26967 9.00634 7.26927 9.00535C7.26888 9.00437 7.26867 9.00331 7.26867 9.00224C7.26867 9.00117 7.26888 9.00012 7.26927 8.99913C7.26967 8.99815 7.27026 8.99725 7.27099 8.9965L8.68441 7.53449C8.68515 7.53374 8.68573 7.53285 8.68613 7.53186C8.68652 7.53088 8.68673 7.52982 8.68673 7.52875C8.68673 7.52768 8.68652 7.52662 8.68613 7.52564C8.68573 7.52465 8.68515 7.52376 8.68441 7.52301L7.99964 6.81443C7.99892 6.81367 7.99805 6.81307 7.9971 6.81266C7.99615 6.81225 7.99512 6.81204 7.99409 6.81204C7.99306 6.81204 7.99204 6.81225 7.99108 6.81266C7.99013 6.81307 7.98927 6.81367 7.98854 6.81443L5.87907 8.9965C5.87834 8.99725 5.87776 8.99815 5.87736 8.99913C5.87696 9.00012 5.87676 9.00117 5.87676 9.00224C5.87676 9.00331 5.87696 9.00437 5.87736 9.00535C5.87776 9.00634 5.87834 9.00723 5.87907 9.00798L7.98854 11.1901C7.98927 11.1908 7.99013 11.1914 7.99108 11.1918C7.99204 11.1922 7.99306 11.1924 7.99409 11.1924C7.99512 11.1924 7.99615 11.1922 7.9971 11.1918C7.99805 11.1914 7.99892 11.1908 7.99964 11.1901L8.68441 10.4817C8.68515 10.4809 8.68573 10.48 8.68613 10.479C8.68652 10.478 8.68673 10.477 8.68673 10.4759C8.68673 10.4748 8.68652 10.4738 8.68613 10.4728C8.68573 10.4718 8.68515 10.4709 8.68441 10.4702L7.27099 9.00798ZM9.00333 7.85293C9.0029 7.85248 9.00238 7.85212 9.00182 7.85188C9.00125 7.85163 9.00064 7.85151 9.00002 7.85151C8.99941 7.85151 8.9988 7.85163 8.99823 7.85188C8.99766 7.85212 8.99715 7.85248 8.99671 7.85293L7.89118 8.9966C7.89075 8.99705 7.8904 8.99758 7.89017 8.99817C7.88993 8.99876 7.88981 8.99939 7.88981 9.00002C7.88981 9.00066 7.88993 9.00129 7.89017 9.00188C7.8904 9.00247 7.89075 9.003 7.89118 9.00345L8.99892 10.1494C8.99935 10.1499 8.99987 10.1502 9.00044 10.1505C9.00101 10.1507 9.00162 10.1508 9.00223 10.1508C9.00285 10.1508 9.00346 10.1507 9.00402 10.1505C9.00459 10.1502 9.00511 10.1499 9.00554 10.1494L10.1111 9.00573C10.1115 9.00528 10.1119 9.00475 10.1121 9.00416C10.1123 9.00357 10.1124 9.00294 10.1124 9.00231C10.1124 9.00167 10.1123 9.00104 10.1121 9.00045C10.1119 8.99987 10.1115 8.99933 10.1111 8.99888L9.00333 7.85293ZM9.81053 11.6493C9.81143 11.6484 9.81214 11.6473 9.81263 11.6461C9.81312 11.6449 9.81337 11.6435 9.81337 11.6422C9.81337 11.6409 9.81312 11.6396 9.81263 11.6384C9.81214 11.6372 9.81143 11.6361 9.81053 11.6351L9.00695 10.8038C9.00605 10.8029 9.00498 10.8021 9.0038 10.8016C9.00262 10.8011 9.00136 10.8009 9.00008 10.8009C8.99881 10.8009 8.99754 10.8011 8.99637 10.8016C8.99519 10.8021 8.99412 10.8029 8.99321 10.8038L8.31106 11.5095C8.31016 11.5104 8.30944 11.5115 8.30895 11.5128C8.30847 11.514 8.30821 11.5153 8.30821 11.5166C8.30821 11.5179 8.30847 11.5192 8.30895 11.5205C8.30944 11.5217 8.31016 11.5228 8.31106 11.5237L9.11463 12.355C9.11554 12.356 9.11661 12.3567 9.11779 12.3572C9.11896 12.3577 9.12023 12.358 9.1215 12.358C9.12278 12.358 9.12404 12.3577 9.12522 12.3572C9.1264 12.3567 9.12747 12.356 9.12837 12.355L9.81053 11.6493Z" fill="#23A69E"/>
</svg>
