<!-- by TradingView --><svg width="18" height="18" viewBox="0 0 18 18" fill="none" xmlns="http://www.w3.org/2000/svg"><path fill="#F0F3FA" d="M0 0h18v18H0z"/><g opacity=".6" stroke="#E0E3EB"><circle cx="9" cy="9" r="8.88" stroke-width=".25"/><rect x="3.05" y="5.05" width="11.9" height="7.9" rx=".95" stroke-width=".1"/><rect x="2.05" y="6.05" width="13.9" height="5.9" rx=".95" stroke-width=".1"/><rect x="4.05" y="4.05" width="9.9" height="9.9" rx=".95" stroke-width=".1"/><rect x="5.05" y="3.05" width="7.9" height="11.9" rx=".95" stroke-width=".1"/><rect x="6.05" y="2.05" width="5.9" height="13.9" rx=".95" stroke-width=".1"/></g><path d="M15 8.4v-.03a5.27 5.27 0 0 0-.27-1.1l-.04-.01c-.78.14-1.08-.77-.42-1.12.02 0 .03-.02.02-.04-.18-.33-.4-.62-.66-.9h-.04c-.68.42-1.3-.29-.81-.87v-.04c-.3-.23-.61-.43-.95-.6l-.04.01c-.42.67-1.32.26-1.1-.47V3.2c-.37-.1-.75-.17-1.13-.19-.01 0-.02 0-.02.03-.05.74-1.13.76-1.18-.01 0-.02 0-.03-.03-.03a3.9 3.9 0 0 0-1.09.27v.03c.18.73-.73 1.1-1.1.42-.02-.02-.03-.02-.04-.01a4.53 4.53 0 0 0-.94.7c.5.55-.19 1.33-.83.84-.02-.02-.03-.01-.05 0-.23.3-.42.6-.58.94 0 .02 0 .03.02.04.67.39.26 1.3-.48 1.1A9.07 9.07 0 0 0 3 8.44v.03c.8.07.86 1.1.05 1.2-.02 0-.03.01-.02.03.04.37.12.74.25 1.1 0 .01.02.02.03.01.74-.2 1.14.72.46 1.1-.02.01-.02.02-.01.04.18.33.4.63.67.9.01.01.02.02.04 0 .32-.26.76-.19.93.2.09.19.06.4-.09.65v.03l.01.03a5 5 0 0 0 .95.55s.02 0 .02-.02c.35-.64 1.25-.28 1.09.47 0 .02 0 .03.02.03l.94.17a.03.03 0 0 0 .02-.01.03.03 0 0 0 .01-.02c.11-.77 1.12-.75 1.19.07h.05a5 5 0 0 0 1.07-.25c.01 0 .02-.01.02-.03-.17-.76.75-1.11 1.1-.43.01.02.02.02.04.02a3.85 3.85 0 0 0 .92-.68v-.02c-.46-.65.3-1.31.87-.8h.04c.23-.3.42-.6.57-.94v-.05c-.65-.38-.27-1.29.49-1.08a.03.03 0 0 0 .04-.02c.1-.35.17-.72.18-1.1 0-.02 0-.03-.03-.03-.77-.12-.73-1.12.08-1.2Zm-2.83-2.6A4.52 4.52 0 0 1 9 13.5a4.47 4.47 0 0 1-4.48-4.51A4.52 4.52 0 0 1 9 4.49c1.19 0 2.33.47 3.17 1.31ZM7 6H6v6h1V6Zm2 0H8v6h1V6Zm2 0h-1v6h2v-1h-1V6Z" fill="#504A4A"/></svg>