<!-- by TradingView --><svg width="56" height="56" viewBox="0 0 56 56" xmlns="http://www.w3.org/2000/svg"><path fill="#F0F3FA" d="M0 0h56v56H0z"/><path d="M27.72 16.39 26.9 16 6 26.9l1.2.76 20.52-11.27ZM8.25 28.32 22 20.77v.31L23.88 20h-.47l5.53-3.04.96.46L25.2 20h-.22L22 21.71v.05l-1.77.97-2 1.14-.01-.04-9.13 5.01-.84-.52Zm1.9 1.19 13.44-7.38h.34L27.85 20h-.38l3.65-2 1.03.48L29.4 20h-.4L24 22.72v.24l-12.95 7.11-.9-.56Zm1.96 1.22L24 24.2v.32l8-4.48V20h-.34l1.71-.94 1.03.48-2.4 1.32v-.2l-8 4.49v.1L13 31.3l-.9-.56ZM32 22.13h-.04L30 23.21v.2l-6 3.36v-.27l-9.94 5.46.9.56L24 27.55v-.15l6-3.36v.22l6.66-3.65-1.03-.49-3.63 2v.01ZM16.02 33.18 24 28.8v.17l6-3.33v-.13l7.88-4.33 1.03.49L30 26.56v-.3l-6 3.34v.25l-7.09 3.9-.9-.57Zm1.95 1.23L24 31.1v.1l6-3.32v-.08l10.13-5.56 1.03.48L30 28.86v-.35l-6 3.33v.31l-5.13 2.82-.9-.56Zm5.18-.54.85-.47v.19l6-3.3v-.18l12.38-6.8 1.03.49L30 31.16v-.25l-8 4.4v.24l-1.18.64-.89-.56L22 34.5v.2l1.5-.83h-.35Zm-1.26 2.99 1.56-.86h.35l6.2-3.45v-.15l14.63-8.03 1.03.49L30 33.46v-.28L24.92 36h.45l-2.59 1.42-.9-.56Zm1.95 1.22 3.8-2.08h.45l3.88-2.13h-.45l15.36-8.43 1.03.48L32 34.66v-.19L29.23 36h.32l-4.81 2.64-.9-.56ZM32 36h-.18l-6.02 3.3 1.1.7L50 26.9l-.87-.4L32 35.9v.1Z" fill="#2D4B94"/></svg>