<!-- by TradingView --><svg width="56" height="56" viewBox="0 0 56 56" xmlns="http://www.w3.org/2000/svg"><path fill="#F0F3FA" d="M0 0h56v56H0z"/><path d="m34.67 28 2.66-7L40 28l-2.67 7-2.66-7Z" fill="#478B3E"/><path d="m36.67 28 2.66-7L42 28l-2.67 7-2.66-7Z" fill="#619652"/><path d="m38.67 28 2.66-7L44 28l-2.67 7-2.66-7Z" fill="#ABC256"/><path d="m40.67 28 2.66-7L46 28l-2.67 7-2.66-7Z" fill="#C7D580"/><path d="m42.67 28 2.66-7L48 28l-2.67 7-2.66-7Z" fill="#DCE4B5"/><path fill="#597528" d="M8 21h1v14H8zM29 21h1v14h-1zM33 21h-1l-2 7 2 7h1l-2-7 2-7ZM14 21h3.38c1.14 0 1.62.63 1.62 1.7v4.2c0 1.08-.48 2.1-1.63 2.1H15v6h-1V21Zm1 7h2.38c.4 0 .62-.32.62-.7v-4.6c0-.38-.22-.7-.63-.7H15v6ZM23 35h-1l2-14h1l2 14h-1l-1.5-10L23 35Z"/></svg>