<!-- by TradingView --><svg width="18" height="18" viewBox="0 0 18 18" xmlns="http://www.w3.org/2000/svg"><path fill="#F0F3FA" d="M0 0h18v18H0z"/><path d="M6.85 8.08c-.12-.27-1.33-.89-1.92-1.16-.95-.39-1.48-.2-1.63-.06-.07.16-.08.55.44.83.63.36 3.26.73 3.1.4Z" fill="url(#afuweobzl)"/><path d="M6.73 9.38c-.24-.19-1.6-.2-2.26-.18-1.02.08-1.4.48-1.47.67.02.18.2.53.79.55.74.03 3.24-.8 2.94-1.04Z" fill="url(#bfuweobzl)"/><path d="M7.27 10.52c-.3-.05-1.51.56-2.08.88-.86.53-1 1.06-.96 1.25.1.15.43.38.96.13.67-.31 2.46-2.19 2.08-2.26Z" fill="url(#cfuweobzl)"/><path d="M8.25 11.3c-.3.1-1.01 1.22-1.34 1.76-.46.88-.3 1.4-.17 1.55.16.08.57.12.9-.35.4-.59.98-3.07.61-2.95Z" fill="url(#dfuweobzl)"/><path d="M9.5 11.4c-.21.23-.27 1.54-.27 2.17.04.98.45 1.36.64 1.43.19-.01.56-.17.6-.74.06-.7-.72-3.13-.98-2.85Z" fill="url(#efuweobzl)"/><path d="M10.52 10.97c-.02.3.74 1.38 1.13 1.89.65.77 1.2.84 1.4.78.15-.1.35-.45.03-.93-.39-.6-2.52-2.1-2.56-1.74Z" fill="url(#ffuweobzl)"/><path d="M11.16 9.9c.12.27 1.34.87 1.93 1.13.95.38 1.48.19 1.63.05.07-.17.07-.56-.44-.84-.65-.34-3.28-.68-3.12-.34Z" fill="url(#gfuweobzl)"/><path d="M11.28 8.69c.25.18 1.62.14 2.27.1 1.02-.1 1.4-.52 1.45-.7-.02-.18-.22-.53-.8-.53-.74-.01-3.22.9-2.92 1.13Z" fill="url(#hfuweobzl)"/><path d="M10.73 7.5c.31.05 1.51-.58 2.07-.9.86-.54 1-1.07.96-1.26-.1-.15-.44-.37-.97-.12-.66.32-2.44 2.2-2.06 2.27Z" fill="url(#ifuweobzl)"/><path d="M9.85 6.68c.29-.1.98-1.23 1.3-1.78.44-.89.27-1.4.13-1.56-.16-.07-.57-.1-.89.38-.4.6-.9 3.1-.54 2.96Z" fill="url(#jfuweobzl)"/><path d="M8.64 6.57c.2-.23.2-1.54.17-2.16C8.7 3.42 8.3 3.06 8.1 3c-.18.02-.55.2-.57.76-.02.7.86 3.1 1.1 2.81Z" fill="url(#kfuweobzl)"/><path d="M7.54 7.08c.04-.3-.67-1.42-1.03-1.94-.61-.8-1.17-.9-1.37-.85-.15.1-.36.44-.07.93.36.62 2.41 2.22 2.47 1.86Z" fill="url(#lfuweobzl)"/><path d="M7.88 10.8c-.25.02-1.06.74-1.43 1.1-.56.58-.55 1-.48 1.15.11.09.42.19.78-.11.45-.37 1.44-2.17 1.13-2.14Z" fill="url(#mfuweobzl)"/><path d="M8.93 11.19a5.26 5.26 0 0 0-.72 1.61c-.2.77.01 1.15.15 1.24.14.02.46-.03.63-.45.22-.53.2-2.57-.06-2.4Z" fill="url(#nfuweobzl)"/><path d="M9.89 11.14c-.1.23.23 1.24.4 1.72.31.73.72.91.88.91.13-.06.36-.28.24-.72-.16-.55-1.41-2.19-1.52-1.9Z" fill="url(#ofuweobzl)"/><path d="M10.69 10.26c.04.23.83.96 1.23 1.3.65.5 1.1.46 1.23.38.09-.11.17-.42-.16-.74-.42-.41-2.35-1.24-2.3-.94Z" fill="url(#pfuweobzl)"/><path d="M11.08 9.34c.16.19 1.23.44 1.75.54.81.12 1.18-.13 1.26-.26.02-.14-.06-.44-.52-.57-.58-.15-2.69.06-2.49.3Z" fill="#1EBEE0"/><path d="M10.97 8.08c.24.11 1.31-.14 1.82-.27.79-.26.99-.65.99-.82-.06-.14-.3-.4-.77-.3-.59.11-2.34 1.25-2.04 1.39Z" fill="url(#qfuweobzl)"/><path d="M10.34 6.97c.26-.01 1.04-.7 1.4-1.03.54-.56.5-.98.41-1.12-.12-.1-.45-.21-.8.07-.44.35-1.34 2.09-1.01 2.08Z" fill="url(#rfuweobzl)"/><path d="M9.12 6.63c.21-.13.55-1.08.69-1.55.18-.73-.05-1.08-.2-1.17-.14-.02-.47.03-.63.44-.2.51-.13 2.45.14 2.28Z" fill="url(#sfuweobzl)"/><path d="M8.08 6.82c.1-.22-.18-1.2-.33-1.65-.27-.71-.67-.88-.84-.88-.13.06-.37.28-.27.7.13.54 1.31 2.1 1.44 1.83Z" fill="url(#tfuweobzl)"/><path d="M7.1 7.63c-.02-.24-.78-.95-1.15-1.28-.6-.48-1.04-.43-1.18-.35-.09.12-.18.42.13.74.4.4 2.24 1.18 2.2.89Z" fill="url(#ufuweobzl)"/><path d="M6.73 8.7a5.44 5.44 0 0 0-1.68-.49c-.8-.1-1.22.11-1.24.28-.01.13.07.43.5.54.56.14 2.6-.1 2.42-.33Z" fill="url(#vfuweobzl)"/><path d="M7 9.9c-.23-.1-1.25.16-1.74.3-.75.26-1.02.63-.96.79.05.13.26.35.7.26.57-.12 2.27-1.23 2-1.35Z" fill="url(#wfuweobzl)"/><path d="M8.27 8.69c-.04-.1-.45-.3-.65-.4-.32-.13-.5-.06-.55-.02-.02.06-.03.2.15.29.21.12 1.1.24 1.05.13Z" fill="#5AC5E5"/><path d="M8.23 9.13a2.4 2.4 0 0 0-.76-.06c-.35.03-.48.16-.5.23 0 .05.06.17.26.18.25.01 1.1-.27 1-.35Z" fill="#946FA5"/><path d="M8.41 9.52c-.1-.02-.5.19-.7.3-.3.17-.34.35-.33.42.04.05.15.12.33.04.22-.1.83-.74.7-.76Z" fill="#C56372"/><path d="M8.75 9.78c-.1.04-.35.41-.46.6-.16.3-.1.47-.06.52.06.03.2.04.3-.12.15-.2.34-1.04.22-1Z" fill="#FFDC74"/><path d="M9.17 9.82c-.07.07-.1.52-.1.73.02.33.16.46.23.48.06 0 .18-.05.2-.25.02-.23-.25-1.06-.33-.96Z" fill="#99B875"/><path d="M9.52 9.67c-.01.1.25.47.38.64.22.26.4.28.48.26.04-.03.11-.15 0-.31-.13-.2-.85-.72-.86-.6Z" fill="#6DC2E1"/><path d="M9.73 9.3c.04.1.46.3.66.39.32.13.5.06.55.01.02-.05.02-.18-.15-.28-.22-.12-1.11-.23-1.06-.12Z" fill="#EFBC7D"/><path d="M9.77 8.9c.09.05.55.04.77.03.35-.04.47-.18.5-.24-.01-.06-.08-.18-.28-.18-.25 0-1.09.3-.99.38Z" fill="#A2CC76"/><path d="M9.59 8.49c.1.02.5-.2.7-.3.3-.19.34-.37.32-.43-.03-.05-.15-.13-.33-.04-.22.1-.82.75-.7.77Z" fill="#56B0D3"/><path d="M9.29 8.21c.1-.03.33-.41.44-.6.15-.3.1-.48.04-.53-.05-.02-.2-.03-.3.13-.13.2-.3 1.05-.18 1Z" fill="#CA84B6"/><path d="M8.88 8.18c.06-.08.06-.53.05-.74-.03-.33-.17-.45-.24-.47-.06 0-.18.06-.19.25 0 .24.3 1.06.38.96Z" fill="#E99A6F"/><path d="M8.5 8.35c.02-.1-.22-.48-.35-.66-.2-.27-.39-.3-.46-.29-.05.04-.12.15-.02.32.12.2.82.75.83.63Z" fill="#B2DA91"/><path d="M8.62 9.61c-.08 0-.36.25-.49.37-.18.2-.18.34-.16.4.04.02.15.06.27-.04.15-.13.49-.74.38-.73Z" fill="#EBB287"/><path d="M8.98 9.74c-.07.05-.2.39-.25.55-.07.26 0 .39.05.42.05 0 .16-.01.22-.16.07-.18.07-.86-.02-.8Z" fill="#D9CF87"/><path d="M9.3 9.73c-.03.07.08.42.14.58.1.25.24.3.3.3.04-.01.12-.09.08-.24-.06-.18-.48-.74-.52-.64Z" fill="#76CECF"/><path d="M9.57 9.43c.02.08.29.32.42.44.22.16.37.15.42.13.03-.04.06-.14-.06-.26-.14-.13-.8-.42-.78-.31Z" fill="#E9E568"/><path d="M9.7 9.12c.06.06.42.14.6.18.27.04.4-.04.43-.1 0-.04-.03-.14-.18-.18-.2-.05-.91.02-.84.1Z" fill="#C0CE99"/><path d="M9.67 8.69c.08.04.44-.05.62-.1.26-.08.33-.21.33-.27-.02-.05-.1-.13-.26-.1-.2.03-.8.42-.7.47Z" fill="#6EC6D0"/><path d="M9.45 8.31c.1 0 .36-.23.48-.35.18-.19.17-.33.14-.38-.04-.03-.15-.07-.27.03-.15.12-.46.7-.35.7Z" fill="#9B6694"/><path d="M9.04 8.2c.07-.05.19-.37.23-.53.07-.25-.01-.37-.06-.4a.24.24 0 0 0-.22.15c-.06.18-.04.83.05.78Z" fill="#B56F77"/><path d="M8.69 8.26c.03-.07-.06-.4-.11-.56-.1-.24-.23-.3-.29-.3a.2.2 0 0 0-.09.24c.04.18.45.72.49.62Z" fill="#FFD976"/><path d="M8.36 8.53c-.01-.08-.27-.32-.4-.43-.2-.16-.35-.14-.4-.12a.2.2 0 0 0 .05.25c.13.14.76.4.75.3Z" fill="#79B47E"/><path d="M8.23 8.9c-.05-.06-.4-.14-.57-.17-.27-.03-.41.04-.42.1 0 .04.02.14.17.18.2.05.88-.03.82-.11Z" fill="#5AA8CF"/><path d="M8.32 9.3c-.07-.03-.42.06-.59.1-.25.1-.34.22-.32.27.01.05.09.12.24.1.19-.05.76-.43.67-.47Z" fill="#AF70A5"/><defs><linearGradient id="afuweobzl" x1="3.76" y1="7.56" x2="4.59" y2="6.49" gradientUnits="userSpaceOnUse"><stop stop-color="#753685"/><stop offset="1" stop-color="#4E1655"/></linearGradient><linearGradient id="bfuweobzl" x1="3.74" y1="10.29" x2="3.99" y2="8.98" gradientUnits="userSpaceOnUse"><stop offset=".39" stop-color="#BF3D47"/><stop offset="1" stop-color="#661F27"/></linearGradient><linearGradient id="cfuweobzl" x1="7.16" y1="9.92" x2="4.49" y2="12.58" gradientUnits="userSpaceOnUse"><stop offset=".2" stop-color="#FB9B44"/><stop offset="1" stop-color="#FFE81D"/></linearGradient><linearGradient id="dfuweobzl" x1="7.84" y1="10.84" x2="6.85" y2="14.4" gradientUnits="userSpaceOnUse"><stop offset=".2" stop-color="#3C6B3F"/><stop offset="1" stop-color="#80BC68"/></linearGradient><linearGradient id="efuweobzl" x1="8.9" y1="11.19" x2="9.71" y2="14.8" gradientUnits="userSpaceOnUse"><stop offset=".2" stop-color="#49B1CC"/><stop offset="1" stop-color="#2A83C0"/></linearGradient><linearGradient id="ffuweobzl" x1="11.64" y1="11.05" x2="11" y2="12.31" gradientUnits="userSpaceOnUse"><stop offset=".2" stop-color="#FC5640"/><stop offset="1" stop-color="#EEC05E"/></linearGradient><linearGradient id="gfuweobzl" x1="12.54" y1="9.6" x2="12.22" y2="10.86" gradientUnits="userSpaceOnUse"><stop offset=".2" stop-color="#507347"/><stop offset=".67" stop-color="#79B958"/></linearGradient><linearGradient id="hfuweobzl" x1="11.26" y1="8.72" x2="15.14" y2="6.55" gradientUnits="userSpaceOnUse"><stop stop-color="#24669A"/><stop offset=".67" stop-color="#1F99BB"/></linearGradient><linearGradient id="ifuweobzl" x1="10.73" y1="7.54" x2="13.7" y2="4.64" gradientUnits="userSpaceOnUse"><stop stop-color="#DA368D"/><stop offset=".71" stop-color="#8B469E"/></linearGradient><linearGradient id="jfuweobzl" x1="9.86" y1="6.72" x2="10.95" y2="2.8" gradientUnits="userSpaceOnUse"><stop stop-color="#EFC15F"/><stop offset=".71" stop-color="#E9644C"/></linearGradient><linearGradient id="kfuweobzl" x1="8.67" y1="6.6" x2="7.69" y2="2.65" gradientUnits="userSpaceOnUse"><stop stop-color="#DCDF5A"/><stop offset=".71" stop-color="#6EC161"/></linearGradient><linearGradient id="lfuweobzl" x1="7.58" y1="7.08" x2="4.67" y2="4.13" gradientUnits="userSpaceOnUse"><stop stop-color="#36C4D2"/><stop offset=".71" stop-color="#2D9FBA"/></linearGradient><linearGradient id="mfuweobzl" x1="7.66" y1="10.37" x2="6.22" y2="12.98" gradientUnits="userSpaceOnUse"><stop offset=".2" stop-color="#74B45E"/><stop offset="1" stop-color="#CBDD53"/></linearGradient><linearGradient id="nfuweobzl" x1="8.53" y1="10.91" x2="8.44" y2="13.86" gradientUnits="userSpaceOnUse"><stop offset=".2" stop-color="#33738E"/><stop offset="1" stop-color="#47DDF5"/></linearGradient><linearGradient id="ofuweobzl" x1="9.39" y1="11.14" x2="11.02" y2="13.65" gradientUnits="userSpaceOnUse"><stop offset=".2" stop-color="#F8A74B"/><stop offset="1" stop-color="#FCD633"/></linearGradient><linearGradient id="pfuweobzl" x1="12.84" y1="10.96" x2="12.5" y2="11.84" gradientUnits="userSpaceOnUse"><stop offset=".2" stop-color="#5EAF46"/><stop offset="1" stop-color="#FCD633"/></linearGradient><linearGradient id="qfuweobzl" x1="11.18" y1="7.95" x2="13.26" y2="6.95" gradientUnits="userSpaceOnUse"><stop stop-color="#934C98"/><stop offset="1" stop-color="#542269"/></linearGradient><linearGradient id="rfuweobzl" x1="10.45" y1="6.76" x2="11.68" y2="4.99" gradientUnits="userSpaceOnUse"><stop stop-color="#E33043"/><stop offset="1" stop-color="#702623"/></linearGradient><linearGradient id="sfuweobzl" x1="9.11" y1="6.4" x2="9.38" y2="4.3" gradientUnits="userSpaceOnUse"><stop stop-color="#EFE754"/><stop offset="1" stop-color="#FCB22D"/></linearGradient><linearGradient id="tfuweobzl" x1="7.94" y1="6.63" x2="7.02" y2="4.7" gradientUnits="userSpaceOnUse"><stop stop-color="#73C259"/><stop offset="1" stop-color="#2D5F3C"/></linearGradient><linearGradient id="ufuweobzl" x1="6.88" y1="7.53" x2="5.09" y2="6.29" gradientUnits="userSpaceOnUse"><stop stop-color="#1593CE"/><stop offset="1" stop-color="#35728F"/></linearGradient><linearGradient id="vfuweobzl" x1="4.31" y1="8.92" x2="4.71" y2="7.96" gradientUnits="userSpaceOnUse"><stop stop-color="#DD2C87"/><stop offset="1" stop-color="#654584"/></linearGradient><linearGradient id="wfuweobzl" x1="4.95" y1="11.16" x2="5.55" y2="9.71" gradientUnits="userSpaceOnUse"><stop stop-color="#EDCF55"/><stop offset="1" stop-color="#C45858"/></linearGradient></defs></svg>