<!-- by TradingView --><svg width="18" height="18" viewBox="0 0 18 18" xmlns="http://www.w3.org/2000/svg"><path fill="#018D46" d="M0 0h18v18H0z"/><path d="M8.97 14.33c-.38 0-.7.3-.72.67-.3-.04-.58-.1-.86-.17a.71.71 0 0 0-.4-.89l-.06-.02a.71.71 0 0 0-.92.34c-.25-.15-.5-.31-.72-.49a.71.71 0 0 0-.04-.97 5.4 5.4 0 0 1-.05-.05.71.71 0 0 0-.97-.04 6.05 6.05 0 0 1-.49-.72.71.71 0 0 0 .34-.92l-.02-.06a.71.71 0 0 0-.89-.4A6.02 6.02 0 0 1 3 9.75a.71.71 0 0 0 .67-.72v-.06c0-.38-.3-.7-.67-.72.04-.3.1-.58.17-.86.35.13.74-.05.89-.4l.02-.06A.71.71 0 0 0 3.74 6c.15-.25.31-.5.49-.72.28.24.7.23.97-.04l.05-.05c.27-.26.28-.7.04-.97.23-.18.47-.34.72-.49.17.34.57.49.92.34l.06-.02a.71.71 0 0 0 .4-.89c.28-.08.57-.13.86-.17.03.37.34.67.72.67h.06c.38 0 .7-.3.72-.67.3.04.58.1.86.17-.13.35.05.74.4.89l.06.02c.35.15.75 0 .92-.34.25.15.5.31.72.49-.24.28-.23.7.04.97l.05.05c.26.27.7.28.97.04.18.23.34.47.49.72a.71.71 0 0 0-.34.92l.02.06c.15.35.54.53.89.4.08.28.13.57.17.86a.71.71 0 0 0-.67.72v.06c0 .38.3.7.67.72-.04.3-.1.58-.17.86a.71.71 0 0 0-.89.4l-.02.06c-.15.35 0 .75.34.92-.15.25-.31.5-.49.72a.71.71 0 0 0-.97.04 5.4 5.4 0 0 1-.05.05.71.71 0 0 0-.04.97c-.23.18-.47.34-.72.49a.71.71 0 0 0-.92-.34l-.06.02a.71.71 0 0 0-.4.89c-.28.08-.57.13-.86.17a.71.71 0 0 0-.72-.67h-.06Zm.03-.71a4.57 4.57 0 0 0 4.59-4.6c0-2.56-2.04-4.6-4.59-4.6a4.57 4.57 0 0 0-4.59 4.6c0 2.55 2.04 4.6 4.59 4.6ZM10.5 7h1v3.5h1v.5h-2V7ZM6 7h1v4H6V7Zm4 1.14H9v-.43c0-.04-.1-.14-.25-.14-.14 0-.25.1-.25.14v.43c0 .24.45.47.86.69.34.17.64.33.64.46v1.14c0 .19-.4.57-1.25.57-1.07 0-1.25-.57-1.25-.86v-.57h1v.72c0 .04.1.14.25.14.14 0 .25-.1.25-.14V9.7c0-.11-.26-.28-.56-.48-.43-.27-.94-.61-.94-.94v-.72c0-.19.25-.57 1.25-.57s1.25.38 1.25.57v.57Z" fill="#FBFEFF"/></svg>