<!-- by TradingView --><svg width="56" height="56" viewBox="0 0 56 56" fill="none" xmlns="http://www.w3.org/2000/svg">
<rect width="56" height="56" fill="#F0F3FA"/>
<circle cx="27.8712" cy="28.442" r="14.8087" fill="url(#paint0_linear_229_27721)"/>
<path fill-rule="evenodd" clip-rule="evenodd" d="M45 28C45 37.3888 37.3888 45 28 45C18.6112 45 11 37.3888 11 28C11 18.6112 18.6112 11 28 11C37.3888 11 45 18.6112 45 28ZM40.0037 33C38.0446 37.6979 33.4079 41 28 41C22.5921 41 17.9554 37.6979 15.9963 33H40.0037ZM15.9963 23C17.9554 18.3021 22.5921 15 28 15C33.4079 15 38.0446 18.3021 40.0037 23H15.9963Z" fill="url(#paint1_linear_229_27721)"/>
<path fill-rule="evenodd" clip-rule="evenodd" d="M40.4538 32.7L40.2806 33.1155C38.2765 37.9212 33.5332 41.3 28 41.3C22.4668 41.3 17.7235 37.9212 15.7194 33.1155L15.5462 32.7H40.4538ZM15.5462 23.3L15.7194 22.8845C17.7235 18.0788 22.4668 14.7 28 14.7C33.5332 14.7 38.2765 18.0788 40.2806 22.8845L40.4538 23.3H15.5462ZM28 44.7C37.2232 44.7 44.7 37.2232 44.7 28C44.7 18.7768 37.2232 11.3 28 11.3C18.7768 11.3 11.3 18.7768 11.3 28C11.3 37.2232 18.7768 44.7 28 44.7ZM40.0037 33H15.9963C16.0383 33.1006 16.0815 33.2007 16.1259 33.3C18.1545 37.8379 22.708 41 28 41C33.292 41 37.8455 37.8379 39.8741 33.3C39.9185 33.2007 39.9617 33.1006 40.0037 33ZM15.9963 23H40.0037C39.9617 22.8994 39.9185 22.7993 39.8741 22.7C37.8455 18.1621 33.292 15 28 15C22.708 15 18.1545 18.1621 16.1259 22.7C16.0815 22.7993 16.0383 22.8994 15.9963 23ZM28 45C37.3888 45 45 37.3888 45 28C45 18.6112 37.3888 11 28 11C18.6112 11 11 18.6112 11 28C11 37.3888 18.6112 45 28 45Z" fill="#262626"/>
<path fill-rule="evenodd" clip-rule="evenodd" d="M33.0567 34.8132C32.8238 34.9636 32.2386 35.4465 31.7611 36.1744C31.1642 37.0843 31.0332 37.8559 31.7611 37.1498L32.4599 36.4801C32.1617 36.9241 31.4737 37.8168 31.1072 37.8352C30.649 37.8583 30.8657 36.8222 31.2151 36.3272C31.4946 35.9313 32.1614 35.0364 32.4599 34.6385C32.5812 34.556 32.8704 34.4754 33.0567 34.8132ZM27.0621 35.4076C26.8615 35.6178 26.6472 35.8754 26.4511 36.1744C25.8542 37.0843 25.7232 37.8559 26.4511 37.1498L27.1499 36.4801C26.8517 36.9241 26.1637 37.8168 25.7972 37.8352C25.339 37.8583 25.5558 36.8222 25.9052 36.3272C26.0232 36.1601 26.2101 35.9041 26.4093 35.634C26.3707 35.6571 26.3372 35.6789 26.3079 35.698L26.3079 35.698L26.3078 35.6981C26.294 35.7071 26.2811 35.7154 26.269 35.7231C26.0507 35.8614 25.9197 35.8323 25.8905 35.7668C25.8629 35.7045 25.9206 35.3796 26.7187 35.2162C26.8867 34.9901 27.0423 34.782 27.1499 34.6385C27.2712 34.556 27.5604 34.4754 27.7468 34.8132C27.6509 34.8751 27.4952 34.9934 27.312 35.162C27.8157 35.181 28.18 35.3676 28.3218 35.4829C27.7722 35.367 27.3656 35.3627 27.0621 35.4076ZM22.7192 37.4656C22.669 37.5344 22.6333 37.7301 22.8922 37.9623C23.2159 38.2524 23.6623 38.0906 23.8576 37.8674C24.0138 37.6888 23.9599 36.9597 23.9134 36.6174C24.0696 36.5542 24.4625 36.3942 24.7839 36.2603C25.1053 36.1263 25.3308 35.9813 25.4033 35.9255C25.2434 35.9515 24.8341 36.0292 24.477 36.1319C24.1199 36.2346 23.8966 36.3496 23.8297 36.3942C23.7516 36.3235 23.6422 36.1397 23.8297 35.9701C24.0641 35.758 24.5216 35.3842 24.5551 35.5516C24.5819 35.6855 24.5142 35.8566 24.477 35.9255C24.6239 35.8231 24.9212 35.5795 24.9346 35.4232C24.9513 35.2279 24.6946 35.0047 24.2147 35.1219C23.7348 35.2391 23.1824 35.7246 23.3498 36.0594C23.3775 36.1148 23.4032 36.1645 23.4264 36.2094C23.5434 36.4357 23.5964 36.5382 23.5172 36.6174C23.4964 36.6382 23.4579 36.6649 23.408 36.6995C23.2301 36.8229 22.9066 37.0473 22.7192 37.4656ZM23.6734 36.7904C23.4614 36.8983 23.0395 37.1799 23.0484 37.4433C23.0596 37.7725 23.7739 37.8339 23.6734 36.7904ZM27.3647 37.0219C27.3734 37.0774 27.4461 37.1884 27.6681 37.1884C27.9455 37.1884 28.4559 36.7852 28.4559 36.3672C28.4559 35.9492 27.8234 35.9603 27.398 36.5115C26.9727 37.0626 26.6842 37.8579 27.3019 37.8579C27.796 37.8579 28.5434 37.0564 28.8554 36.6557C28.5376 36.9738 27.8071 37.61 27.4276 37.61C27.0482 37.61 27.2276 37.218 27.3647 37.0219ZM27.5053 36.8111C27.6064 36.6619 27.8471 36.3613 28.0009 36.3524C28.1933 36.3414 28.332 36.517 28.2081 36.641C28.0842 36.7649 27.5497 37.2106 27.5053 36.8111ZM29.5111 37.1884C29.2892 37.1884 29.2164 37.0774 29.2078 37.0219C29.0706 37.218 28.8912 37.61 29.2706 37.61C29.6501 37.61 30.3806 36.9738 30.6984 36.6557C30.3865 37.0564 29.6391 37.8579 29.1449 37.8579C28.5272 37.8579 28.8157 37.0626 29.2411 36.5115C29.6664 35.9603 30.2989 35.9492 30.2989 36.3672C30.2989 36.7852 29.7885 37.1884 29.5111 37.1884ZM29.844 36.3524C29.6901 36.3613 29.4494 36.6619 29.3483 36.8111C29.3927 37.2106 29.9272 36.7649 30.0511 36.641C30.175 36.517 30.0363 36.3414 29.844 36.3524Z" fill="black"/>
<path fill-rule="evenodd" clip-rule="evenodd" d="M18 22.5C18 22.7761 17.7761 23 17.5 23C17.2239 23 17 22.7761 17 22.5C17 22.2239 17.2239 22 17.5 22C17.7761 22 18 22.2239 18 22.5ZM39 22.5C39 22.7762 38.7761 23 38.5 23C38.2239 23 38 22.7762 38 22.5C38 22.2239 38.2239 22 38.5 22C38.7761 22 39 22.2239 39 22.5ZM18 33.5C18 33.7761 17.7762 34 17.5 34C17.2239 34 17 33.7761 17 33.5C17 33.2239 17.2239 33 17.5 33C17.7762 33 18 33.2239 18 33.5ZM39 33.5C39 33.7761 38.7762 34 38.5 34C38.2239 34 38 33.7761 38 33.5C38 33.2239 38.2239 33 38.5 33C38.7762 33 39 33.2239 39 33.5Z" fill="#494949"/>
<path fill-rule="evenodd" clip-rule="evenodd" d="M14.5 25H13V30H14.5V25ZM15 26V25H16.5H18H19.5V26L18 26V30H16.5V26L15 26ZM20 25V26L21.5 26V30H23V26L24.5 26V25H23H21.5H20ZM26.4971 26V27L29 27V28L26.4971 28V29.0002H29V30.0002H25V30.0001H24.9971V25.0001H25V25H29V26L26.4971 26ZM29.5 25.0001V25H33V26L31 26V27H32.5V28L31 28V30.0001H29.5V28V27V26V25.0001ZM32.9313 30L34.678 25H36.2408L37.9568 30H36.4247L36.1419 29H34.6237L34.3409 30H32.9313ZM35.8591 28L35.3828 26.3158L34.9065 28H35.8591ZM40.5 30C40.7983 30 41.0845 29.9477 41.3497 29.8519L42.5686 31L43 30L42.1365 29.39C42.6654 28.9316 43 28.2549 43 27.5C43 26.1193 41.8807 25 40.5 25C39.1193 25 38 26.1193 38 27.5C38 28.8807 39.1193 30 40.5 30ZM41.5 27.5C41.5 27.9753 41.3526 28.399 41.1226 28.6739L40.5615 28.2775L40.1937 28.763L40.4428 28.9976C39.9171 28.9531 39.5 28.2996 39.5 27.5C39.5 26.6716 39.9477 26 40.5 26C41.0523 26 41.5 26.6716 41.5 27.5Z" fill="url(#paint2_linear_229_27721)"/>
<path fill-rule="evenodd" clip-rule="evenodd" d="M17.9 25.9L19.4 25.9V25.1H15.1V25.9L16.6 25.9V29.9H17.9V25.9ZM18 30H16.5V26L15 26V25H19.5V26L18 26V30ZM21.5 26V30H23V26L24.5 26V25H20V26L21.5 26ZM20.1 25.9L21.6 25.9V29.9H22.9V25.9L24.4 25.9V25.1H20.1V25.9ZM26.3971 27.1V25.9L28.9 25.9V25.1H25.1L25.0971 25.1001V29.9001H25.1L28.9 29.9002V29.1002H26.3971V27.9L28.9 27.9V27.1L26.3971 27.1ZM29 27V28L26.4971 28V29.0002H29V30.0002H25L24.9971 30.0001V25.0001H25L29 25V26L26.4971 26V27L29 27ZM30.9 25.9L32.9 25.9V25.1H29.6V29.9001H30.9V27.9L32.4 27.9V27.1H30.9V25.9ZM32.5 27V28L31 28V30.0001H29.5V25.0001L33 25V26L31 26V27H32.5ZM36.1419 29L36.4247 30H37.9568L36.2408 25H34.678L32.9313 30H34.3409L34.6237 29H36.1419ZM34.2652 29.9L34.548 28.9H36.2175L36.5003 29.9H37.8168L36.1694 25.1H34.749L33.0721 29.9H34.2652ZM35.3828 25.9483L35.9913 28.1H34.7743L35.3828 25.9483ZM41.3736 29.7369L42.5333 30.8294L42.876 30.0349L41.9745 29.398L42.071 29.3145C42.5789 28.8742 42.9 28.2247 42.9 27.5C42.9 26.1745 41.8255 25.1 40.5 25.1C39.1745 25.1 38.1 26.1745 38.1 27.5C38.1 28.8255 39.1745 29.9 40.5 29.9C40.7866 29.9 41.0612 29.8498 41.3157 29.7578L41.3736 29.7369ZM43 30L42.5686 31L41.3497 29.8519C41.0845 29.9477 40.7983 30 40.5 30C39.1193 30 38 28.8807 38 27.5C38 26.1193 39.1193 25 40.5 25C41.8807 25 43 26.1193 43 27.5C43 28.218 42.6973 28.8654 42.2125 29.3213C42.1877 29.3447 42.1623 29.3676 42.1365 29.39L43 30ZM41.1402 28.8087L40.5828 28.415L40.3277 28.7518L40.7201 29.1214L40.4343 29.0972C40.1306 29.0715 39.8705 28.8713 39.6897 28.5854C39.5084 28.2986 39.4 27.9163 39.4 27.5C39.4 27.0688 39.5163 26.6739 39.7097 26.3839C39.9026 26.0945 40.18 25.9 40.5 25.9C40.82 25.9 41.0974 26.0945 41.2903 26.3839C41.4837 26.6739 41.6 27.0688 41.6 27.5C41.6 27.9942 41.4471 28.442 41.1993 28.738L41.1402 28.8087ZM40.1937 28.763L40.5615 28.2775L41.1226 28.6739C41.3526 28.399 41.5 27.9753 41.5 27.5C41.5 26.6716 41.0523 26 40.5 26C39.9477 26 39.5 26.6716 39.5 27.5C39.5 28.1983 39.8181 28.7852 40.2488 28.9523C40.3113 28.9765 40.3762 28.9919 40.4428 28.9976L40.1937 28.763ZM14.4 25.1H13.1V29.9H14.4V25.1ZM35.3828 26.3158L34.9065 28H35.8591L35.3828 26.3158ZM14.5 25V30H13V25H14.5Z" fill="#0B0B0B"/>
<defs>
<linearGradient id="paint0_linear_229_27721" x1="18.8838" y1="23.9002" x2="39.3286" y2="24.2457" gradientUnits="userSpaceOnUse">
<stop offset="0.0978494" stop-color="#8E8E8E"/>
<stop offset="0.185196" stop-color="#E9E3E3"/>
<stop offset="0.418837" stop-color="#E5DFDF"/>
<stop offset="0.830035" stop-color="#A6A2A3"/>
<stop offset="1" stop-color="#A19D9E"/>
</linearGradient>
<linearGradient id="paint1_linear_229_27721" x1="16.818" y1="39.703" x2="39.5067" y2="16.7709" gradientUnits="userSpaceOnUse">
<stop stop-color="#E9E9E9"/>
<stop offset="0.379034" stop-color="#2A2A2A"/>
<stop offset="0.630781" stop-color="#434343"/>
<stop offset="1" stop-color="#EEEEEE"/>
</linearGradient>
<linearGradient id="paint2_linear_229_27721" x1="28.1049" y1="25.2667" x2="28.1049" y2="30.5681" gradientUnits="userSpaceOnUse">
<stop stop-color="#B4B4B4"/>
<stop offset="0.479775" stop-color="#EEEAEB"/>
<stop offset="1" stop-color="#CECAC9"/>
</linearGradient>
</defs>
</svg>
