<!-- by TradingView --><svg width="56" height="56" viewBox="0 0 56 56" xmlns="http://www.w3.org/2000/svg"><path fill="#F0F3FA" d="M0 0h56v56H0z"/><path d="M7.78 28a2.7 2.7 0 0 1-.78-.14v-.92a1 1 0 0 0 .33.06c.49 0 .67-.64.67-1v-5h1v5.12C9 26.95 8.8 28 7.78 28ZM10 28l1.68-7h1.73L15 28h-1l-.33-1.52H11.4L11 28h-1Zm1.68-2.65h1.73l-.91-3.52-.82 3.52ZM16 36l1.68-7h1.73L21 36h-1l-.33-1.52H17.4L17 36h-1Zm1.68-2.65h1.73l-.91-3.52-.82 3.52ZM21 28l1.68-7h1.73L26 28h-1l-.33-1.52H22.4L22 28h-1Zm1.68-2.65h1.73l-.91-3.52-.82 3.52ZM32 28l1.68-7h1.73L37 28h-1l-.33-1.52H33.4L33 28h-1Zm1.68-2.65h1.73l-.91-3.52-.82 3.52ZM18.97 28 17 23v5h-1v-7h1.3l1.7 4.5V21h1v7h-1.03ZM40 21h1.38c1.76 0 2.62 1.16 2.62 3.53 0 1.74-.73 3.47-2.4 3.47H40v-7Zm1.6 6c.99 0 1.4-1.27 1.4-2.21v-.32c0-1-.32-2.47-1.43-2.47H41v5h.6Zm-11.63 1L28 23v5h-1v-7h1.3l1.7 4.5V21h1v7h-1.03ZM14 36v-5l-1.2 4.96h-.68L11 30.98V36h-1v-7h1.64l.86 4.5 1-4.5H15v7h-1Zm31-8v-7h4v1h-3v2h2.01L48 25h-2v2h3v1h-4Zm-23 8v-7h1v6h2v1h-3Zm6.04 0C26.71 36 26 34.94 26 33.6V29h1v4.8c0 .57.33 1.2 1 1.2.66 0 1-.69 1-1.22V29h1v4.45c0 1.37-.52 2.55-1.96 2.55Zm5.06 0c-1.6 0-2.1-2.08-2.1-3.5 0-1.34.47-3.5 2.12-3.5 1.25 0 1.87 1.39 1.87 2.5H34c0-.45-.34-1.5-.95-1.5-.82 0-1.05 1.64-1.05 2.5 0 1.64.5 2.5 1.17 2.5.63 0 .8-.98.83-1.42h1c0 1.17-.61 2.42-1.9 2.42Zm2.9 0v-7h1v3h2v-3h1v7h-1v-3h-2v3h-1Z" fill="#E79626"/><path fill-rule="evenodd" d="M41 32.46c0 1.68.52 3.54 2.47 3.54 1.96 0 2.53-1.88 2.53-3.57 0-2.29-.84-3.43-2.5-3.43-1.95 0-2.5 1.77-2.5 3.46ZM43.5 30C42 30 42 31.71 42 32.4c0 .72 0 2.6 1.5 2.6 1.48 0 1.5-1.87 1.5-2.58 0-.7-.16-2.42-1.5-2.42Z" fill="#E79626"/></svg>