<!-- by TradingView --><svg width="18" height="18" viewBox="0 0 18 18" xmlns="http://www.w3.org/2000/svg"><path fill="#F0F3FA" d="M0 0h18v18H0z"/><path fill-rule="evenodd" d="M9 12c3.87 0 7-1.34 7-3s-3.13-3-7-3-7 1.34-7 3 3.13 3 7 3ZM6 7H5v2.71c0 .38-.22.62-.61.62H4V11h.75C5.44 11 6 10.46 6 9.8V7Zm2.5 0H7v4h1.5c.83 0 1.5-.9 1.5-2s-.67-2-1.5-2Zm-.28.51H8v2.98h.22c.43 0 .78-.57.78-1.27v-.44c0-.7-.35-1.27-.78-1.27ZM10.95 7H10l1.3 4 .83-1.74.56 1.74L14 7h-.43l-.68 1.91L12.33 7h-.95l.49 1.48-.27.44L10.95 7Z" fill="#28458F"/></svg>