<!-- by TradingView --><svg width="18" height="18" viewBox="0 0 18 18" fill="none" xmlns="http://www.w3.org/2000/svg">
<rect width="18" height="18" fill="#F0F3FA"/>
<g opacity="0.7">
<path fill-rule="evenodd" clip-rule="evenodd" d="M6.90082 4.75C6.90082 4.75 6.79091 5.37857 6.73595 5.61786H7.34995V7.24107C7.34995 7.72965 6.8686 8.02322 6.62793 8.10893L6.96336 8.8C7.98215 8.58572 8.31264 7.71786 8.35055 7.31072V4.75H6.90082ZM8.84342 8.5V4.75H9.62467V6.36884C9.63656 6.30492 9.65721 6.24243 9.6863 6.18277L10.4199 4.75H11.3694L10.4597 6.46791L11.3694 8.5H10.4199L9.67313 6.78715C9.6509 6.73617 9.63468 6.68333 9.62467 6.6295V8.5H8.84342Z" fill="#D3AC6B"/>
<path fill-rule="evenodd" clip-rule="evenodd" d="M9 4C6.23858 4 4 6.23858 4 9H14C14 7.13907 12.9834 5.51559 11.4752 4.65465L10.6401 6.4803L11.5 8.67196H10.3298L9.74788 7.21523V8.67196H8.68753V4.60033H9.74788V5.61596C9.74788 5.65119 9.77602 5.67975 9.81073 5.67975C9.83544 5.67975 9.85786 5.66506 9.86802 5.6422L10.3298 4.60033H11.3775C10.6704 4.21742 9.86059 4 9 4ZM6.84746 4.58358L6.50699 5.6991H7.24922V7.03116C7.24922 7.63485 6.7544 7.90826 6.50699 7.96951L6.84746 8.86848C8.0078 8.74249 8.38868 7.74422 8.43408 7.26082V4.58358H6.84746Z" fill="#323F93"/>
<path fill-rule="evenodd" clip-rule="evenodd" d="M4 9C4 10.3596 4.5655 11.6156 5.47866 12.5286C5.62583 12.075 5.94652 11.3444 6.38924 11.0476C6.89556 10.7082 7.34319 10.504 7.50371 10.4444C7.37529 10.2388 7.04554 9.78275 6.75385 9.60244L7.02215 9.0058C7.40969 9.10303 8.21917 9.53482 8.35676 10.4841C8.36364 10.6388 8.36501 10.9999 8.31548 11.2067H8.68752V9.24984H9.54002L9.47123 10.8885H9.65697L10.3587 9.24984H11.3424L10.7646 10.4841C10.8302 10.4238 11.0094 10.3031 11.2015 10.3031C11.3936 10.3031 11.4538 10.4621 11.4599 10.5416C11.5157 10.3323 11.6811 9.9139 11.8965 9.9139C12.1658 9.9139 12.1767 10.2786 12.1512 10.3592C12.1309 10.4237 12.0409 10.6339 11.9984 10.7309C11.9826 10.7671 11.9657 10.8396 12.0239 10.8396C12.0967 10.8396 12.2022 10.7037 12.3113 10.4841C12.3987 10.3085 12.5515 9.73624 12.617 9.47209L12.8244 9.0443H13.232L13.2829 9.35637H13.987C13.9956 9.23849 14 9.11965 14 9H4ZM9 14C8.37928 14 7.78497 13.884 7.23657 13.6735L7.8297 12.7887L8.12156 12.7731L8.1475 12.6231L8.33559 12.6043L8.35505 12.4231H8.39072L8.60151 12.7512L9.00363 12.7731L9.16577 12.6043H9.5387V12.4231H10.1102C10.1289 12.5349 10.1997 12.5905 10.2327 12.6043C10.371 12.6033 10.7009 12.6018 10.9137 12.6043C10.9581 12.6049 10.8448 12.0319 10.8322 11.9826L10.4199 11.9557V11.9175C10.4541 11.9071 10.5513 11.8843 10.6668 11.8771C10.7823 11.8699 10.7522 11.7604 10.7227 11.7065C10.7778 11.7731 10.9235 11.9063 11.0651 11.9063C11.2067 11.9063 11.3725 11.7567 11.4377 11.6819H12.0239L12.2449 11.3318H12.2925L12.2449 11.7065L12.3089 12.0632L12.7247 12.2394L12.8775 12.1335C11.9607 13.2636 10.5642 14 9 14ZM13.7267 10.6126C13.5361 11.1601 13.2517 11.6678 12.8927 12.1147L12.7805 11.9092L12.9191 11.1544L13.4541 11.0431L13.5357 10.799C13.3305 10.9663 13.1536 11.0055 12.9923 11.0365C12.7752 11.0784 12.7345 11.1651 12.7412 11.2033C12.7277 11.2752 12.7005 11.4681 12.7005 11.6643C12.7005 11.9095 12.5852 12.0141 12.5207 12.0141C12.4562 12.0141 12.3952 11.9716 12.3952 11.6643C12.3952 11.357 12.6017 10.6597 12.6356 10.5556C12.6627 10.4724 12.6469 10.4502 12.6356 10.4495C12.5271 10.6813 12.4097 10.7991 12.3645 10.8291V10.6597C12.5381 10.3919 12.5873 10.1747 12.633 9.97297L12.633 9.97296L12.633 9.97295C12.6458 9.91633 12.6584 9.86093 12.6733 9.80597C12.7279 9.60536 12.8133 9.35922 12.8492 9.26122L13.0969 9.18859C13.1023 9.23817 13.1098 9.35807 13.0969 9.44108C13.0839 9.52408 12.9659 9.87457 12.9084 10.0394C13.0365 9.86765 13.3273 9.52408 13.4666 9.52408C13.6058 9.52408 13.6359 9.60709 13.6336 9.6486V9.94781L13.3927 10.5788C13.483 10.5532 13.577 10.491 13.6636 10.4164L13.9763 9.48094C13.9508 9.73931 13.9049 9.99272 13.8403 10.2394C13.8946 10.1774 13.9394 10.1189 13.9695 10.0753C13.9796 10.12 14 10.2153 14 10.2388C13.9036 10.3923 13.8128 10.5146 13.7267 10.6126ZM12.8826 10.666C12.8847 10.6276 12.8935 10.4699 13.0193 10.26C13.131 10.0738 13.2402 9.99882 13.2808 9.98459C13.2911 10.038 13.3056 10.1614 13.2808 10.228C13.256 10.2946 13.2202 10.4351 13.2055 10.497C13.204 10.5257 13.1369 10.5998 12.8823 10.6705L12.8826 10.666ZM10.6973 11.2159C10.6973 11.5612 10.8932 11.7861 11.0766 11.7861C11.2232 11.7861 11.4211 11.406 11.5016 11.2159C11.5058 11.3457 11.565 11.6054 11.7683 11.6054C11.9717 11.6054 12.2087 11.2119 12.3018 11.0151C12.3026 10.9696 12.2954 10.8782 12.2601 10.8758C12.245 10.8748 12.2226 10.9042 12.1929 10.9433C12.1358 11.0185 12.0516 11.1294 11.9392 11.1294C11.7683 11.1294 11.8449 10.7827 11.8921 10.6941C11.9392 10.6055 12.0502 10.3042 12.0502 10.231C12.0502 10.1577 11.997 10.0302 11.8921 10.0302C11.8158 10.0302 11.7532 10.1687 11.7002 10.286C11.6802 10.3302 11.6616 10.3713 11.6442 10.401C11.6314 10.4226 11.6049 10.4741 11.5696 10.5427L11.5696 10.5427L11.5696 10.5427C11.4273 10.8191 11.1418 11.3735 11.0358 11.377C10.9035 11.3814 11.124 10.8099 11.2335 10.6281C11.343 10.4464 11.2731 10.401 11.2046 10.401C11.1362 10.401 10.9835 10.5085 10.8812 10.6167C10.8152 10.7133 10.6973 10.9505 10.6973 11.2159ZM7.04694 11.2822L6.94313 11.5362C6.93928 11.5542 6.94313 11.5902 6.98927 11.5902C7.03541 11.5902 7.25237 11.3245 7.35509 11.1916C7.41606 11.1297 7.538 10.9811 7.538 10.882C7.538 10.7829 7.44133 10.6787 7.39299 10.639C7.36058 10.6179 7.23447 10.6168 6.98927 10.782C6.68276 10.9884 5.6398 11.7841 5.6398 12.7956C5.6398 13.0269 5.73003 13.4895 6.09094 13.4895C6.45185 13.4895 6.8573 12.8319 7.0149 12.503C7.00768 12.6897 6.96806 13.115 6.86742 13.3223C6.8298 13.3998 6.77628 13.4803 6.71973 13.5654C6.58717 13.7647 6.43797 13.9891 6.43797 14.2587C6.43797 14.6433 6.72861 14.522 6.89778 14.2169C7.03312 13.9728 7.1942 13.5522 7.25783 13.3725L7.88682 12.478L7.90851 12.2522H7.85211L7.33157 12.9294L7.56581 11.7005C7.57798 11.6573 7.56878 11.5676 7.43471 11.5537C7.29066 11.5387 7.25024 11.5952 7.20008 11.6653C7.19188 11.6767 7.18343 11.6885 7.17422 11.7005C7.16082 11.7178 7.12118 11.7911 7.06405 11.8966L7.06404 11.8966C6.84163 12.3076 6.35412 13.2084 6.11758 13.2084C5.82027 13.2084 6.12717 12.4136 6.33816 12.1086C6.50695 11.8646 6.88101 11.456 7.04694 11.2822ZM8.05769 12.2997V12.4577H8.13238C8.17974 12.2787 8.3477 11.9034 8.64061 11.8346C8.60904 11.927 8.54589 12.1604 8.54589 12.3542C8.54589 12.5964 8.7153 12.6684 8.8082 12.6684C8.90111 12.6684 9.0104 12.6403 9.29458 12.1769V12.0347H9.24175C9.18224 12.102 9.03882 12.2365 8.94118 12.2365C8.81913 12.2365 8.84464 11.9996 8.88653 11.9013L8.88721 11.8997C8.92938 11.8007 9.01769 11.5936 9.01769 11.4958C9.01769 11.3975 8.98308 11.3062 8.83188 11.3062C8.75167 11.3062 8.6689 11.3596 8.59118 11.4097C8.52239 11.454 8.45757 11.4958 8.40198 11.4958C8.38984 11.4607 8.35098 11.3905 8.29268 11.3905C8.21982 11.3905 8.12691 11.5344 8.05769 11.6906C7.98847 11.8469 7.93018 12.0452 8.14149 12.1312C8.11356 12.1722 8.05769 12.2632 8.05769 12.2997ZM10.2225 10.8959C10.2383 10.8384 10.2367 10.7235 10.1038 10.7235C9.93753 10.7235 9.3219 11.0596 9.3219 11.6768C9.3219 12.294 9.8726 12.418 10.145 12.1123C10.2204 12.0276 10.2713 11.9657 10.3119 11.9163C10.4177 11.7876 10.4532 11.7444 10.6717 11.6047L10.6029 11.4749L10.4113 11.5557C10.457 11.3932 10.4832 11.0338 10.2225 10.8959ZM9.94742 11.2183C9.83967 11.3307 9.62418 11.6036 9.62418 11.7951C9.62418 12.0345 9.79777 12.1469 10.0312 11.8181C9.99231 11.7393 9.92108 11.509 9.94742 11.2183Z" fill="#D6AF6F"/>
</g>
</svg>
