<!-- by TradingView --><svg width="18" height="18" viewBox="0 0 18 18" xmlns="http://www.w3.org/2000/svg"><path fill="#F0F3FA" d="M0 0h18v18H0z"/><path d="M5.6 9H4.15c-.14 0-.2-.15-.1-.23l3.12-2.73a.16.16 0 0 1 .1-.04h1.4c.13 0 .2.15.1.23L5.71 8.96a.16.16 0 0 1-.1.04Z" fill="#FDB514"/><path d="M10.6 13H9.16c-.13 0-.2-.15-.1-.23l3.12-2.73a.16.16 0 0 1 .1-.04h1.4c.14 0 .2.15.1.23l-3.06 2.73a.16.16 0 0 1-.1.04ZM6.46 14h-1.7c-.14 0-.2-.15-.1-.24l6.4-5.72a.15.15 0 0 1 .1-.04h1.4c.13 0 .2.15.1.24l-6.1 5.72a.15.15 0 0 1-.1.04Z" fill="#F47A20"/><path d="M6.44 11H4.73c-.13 0-.2-.16-.1-.25l7.72-6.71a.15.15 0 0 1 .1-.04h1.4c.13 0 .2.16.1.25l-7.4 6.7a.15.15 0 0 1-.1.05Z" fill="#FDB514"/></svg>