<!-- by TradingView --><svg width="18" height="18" viewBox="0 0 18 18" fill="none" xmlns="http://www.w3.org/2000/svg">
<rect width="18" height="18" fill="#F0F3FA"/>
<path d="M5.60267 9H4.14839C4.01489 9 3.94955 8.85138 4.04598 8.76708L7.16788 6.03755C7.19545 6.01345 7.23214 6 7.2703 6H8.66981C8.80267 6 8.86832 6.14742 8.77317 6.23209L5.70603 8.96162C5.67837 8.98623 5.64129 9 5.60267 9Z" fill="#FDB514"/>
<path d="M10.6056 13H9.15132C9.01782 13 8.95248 12.8514 9.04891 12.7671L12.1708 10.0376C12.1984 10.0135 12.2351 10 12.2732 10H13.6727C13.8056 10 13.8712 10.1474 13.7761 10.2321L10.709 12.9616C10.6813 12.9862 10.6442 13 10.6056 13Z" fill="#F47A20"/>
<path d="M6.46314 14H4.75581C4.62232 14 4.55697 13.8473 4.6534 13.7606L11.0528 8.03859C11.0804 8.01383 11.1171 8 11.1552 8H12.5547C12.6876 8 12.7532 8.1515 12.6581 8.23853L6.56649 13.9606C6.53884 13.9858 6.50175 14 6.46314 14Z" fill="#F47A20"/>
<path d="M6.44145 11H4.73071C4.59695 11 4.53148 10.8404 4.6281 10.7498L12.3467 4.04033C12.3744 4.01445 12.4111 4 12.4494 4H13.8517C13.9848 4 14.0506 4.15834 13.9552 4.24929L6.54501 10.9588C6.5173 10.9852 6.48014 11 6.44145 11Z" fill="#FDB514"/>
</svg>
