<!-- by TradingView --><svg width="18" height="18" viewBox="0 0 18 18" xmlns="http://www.w3.org/2000/svg"><path fill="#F0F3FA" d="M0 0h18v18H0z"/><path d="M11.02 6 2 10l8.92-3.14L15 8.57 11.02 6Z" fill="#343887"/><path fill="#00A6EA" d="M10 8h.5v.5H10zm.5.5h.5V9h-.5z"/><path fill="#343887" d="M10.5 8h.5v.5h-.5zm-.5.5h.5V9H10z"/><path d="m4.92 7.35-.21 1.1.53-.14.22-1.01c.01-.07.08-.12.16-.12h.17V7H4.62v.18h.14c.1 0 .18.08.16.17Z" fill="#00A6EA"/><path d="m5 9.18-.45.17c-.03.05-.08.39-.28 1.28-.26 1.23-.68 1.2-.87 1.2-.2 0-.29-.1-.4-.1.02.2.3.27.46.27.74 0 1.1-.87 1.19-1.3L5 9.17Z" fill="#343887"/><path fill="#00A6EA" fill-opacity=".5" d="M6 10h9v1H6z"/></svg>