<!-- by TradingView --><svg width="56" height="56" viewBox="0 0 56 56" xmlns="http://www.w3.org/2000/svg"><path fill="#F0F3FA" d="M0 0h56v56H0z"/><path d="m10 31.32 2.4-3.49-2.32-3.54 3.53-2.32-.82-4.15 4.1-.81.75-4.1 4.46.83L24.68 10l3.49 2.4 3.54-2.32 2.32 3.53 4.15-.82.81 4.1 4.1.75-.83 4.46L46 24.68l-2.4 3.49 2.32 3.54-3.53 2.32.82 4.15-4.1.81-.75 4.1-4.46-.83L31.32 46l-3.49-2.4-3.54 2.32-2.32-3.53-4.15.82-.81-4.1-4.1-.75.83-4.46L10 31.32ZM28 41a13 13 0 1 0 0-26 13 13 0 0 0 0 26Z" fill="#182210"/><path d="M25 22v-2h10v2h-1.89c-.61 0-1.11.5-1.11 1.12v8.38c0 3.06-3.04 4.5-6.07 4.5-3.02 0-4.93-2.19-4.93-3.31 0-1.13 1.3-1.69 2.28-1.69.99 0 1.72.56 1.72 1.44 0 .87-1 .91-1 1.56 0 .44.58 1 1.93 1 1.09 0 1.97-1.6 2.07-2.31v-9.56c0-.63-.5-1.13-1.11-1.13H25Z" fill="#182210"/></svg>