<!-- by TradingView --><svg width="18" height="18" viewBox="0 0 18 18" xmlns="http://www.w3.org/2000/svg"><path fill="#F0F3FA" d="M0 0h18v18H0z"/><path d="M4 8v2h-.5V8H4Zm1.46 0-1 .98-.57.49-.08-.37.4-.41.68-.69h.57Zm-.52 2-.77-.94.33-.24 1 1.18h-.56ZM6.8 8.3 6.25 10h-.5l.75-2h.34l-.04.3Zm.45 1.7L6.7 8.3 6.66 8H7l.75 2h-.5Zm0-.8v.3h-1.1v-.3h1.1ZM8.88 9.3h-.63V9h.63c.25 0 .37-.15.37-.35 0-.2-.1-.35-.36-.35H8.5V10H8V8h.9c.47 0 .85.25.85.65s-.4.65-.88.65ZM15 7h-5v4h5V7Zm-3.25 2.3h.5c-.04.43-.48.7-.99.7-.66 0-1.01-.43-1.01-.92v-.15c0-.5.34-.93 1-.93.52 0 .95.28 1 .7h-.5c-.03-.24-.2-.4-.5-.4-.44 0-.5.33-.5.62v.16c0 .28.06.62.5.62.3 0 .47-.16.5-.4Zm2.75-.35v.1c0 .48-.34.95-1 .95-.66 0-1-.47-1-.95v-.1c0-.48.34-.95 1-.95.66 0 1 .47 1 .95Zm-.5.1v-.1c0-.29-.06-.65-.5-.65-.43 0-.5.37-.5.65v.1c0 .28.07.65.5.65s.5-.37.5-.65Z" fill="#0C7C3E"/><path fill-rule="evenodd" d="M14.75 7.29H3.25v3.42h11.5V7.3ZM3 7v4h12V7H3Z" fill="#0C7C3E"/></svg>