<!-- by TradingView --><svg width="56" height="56" viewBox="0 0 56 56" xmlns="http://www.w3.org/2000/svg"><path fill="#F0F3FA" d="M0 0h56v56H0z"/><path d="M15 18h-2v6h2v-1.25l2-.75v2h2v-2.25l-.75-.75.75-.75V18h-2v1.5l-2 .75V18ZM20 24h1.5v-.5h1v.5H24v-3.33l-.8-.67h-2.4l-.8.67V24Zm1.5-3.5h1v2h-1v-2ZM30 24h1.5v-.5h1v.5H34v-3.33l-.8-.67h-2.4l-.8.67V24Zm1.5-3.5h1v2h-1v-2Z" fill="#BE252A"/><path d="M25 20v4h1.5v-1.33h1V24H29v-1.33l-.33-.34L29 22v-1.33l-.67-.67H25Zm1.5.5h1V22h-1v-1.5Z" fill="#BB242B"/><path d="M35 20v4h1.5v-2l1 2h1l1-2v2H41v-4h-1.83L38 22.5 36.83 20H35Z" fill="#B82627"/><path d="M25 31h1.5v-.5h1v.5H29v-3.33l-.8-.67h-2.4l-.8.67V31Zm1.5-3.5h1v2.17h-1V27.5Z" fill="#BE252A"/><path d="M20 27v4h1.5v-1.5h1V31H24v-1.28l-.33-.34.33-.34v-1.36l-.67-.68H20Zm1.5.5h1V29h-1v-1.5Z" fill="#BB242B"/><path d="M30 27v4h1.5v-2l1 2h1l1-2v2H36v-4h-1.83L33 29.5 31.83 27H30Z" fill="#B82627"/><path d="M14 25H8v6h6v-2h-2v.5h-2v-3h2v.5h2v-2Z" fill="#BC2628"/><path d="M19 27h-4v4h4v-.5h-2.5v-1.17H18v-.66h-1.5V27.5H19V27Z" fill="#BB2628"/><path d="M37 27h1.5v4H37v-4ZM43 27h-4v4h4v-1.5h-1.5v1h-1v-3h1v1H43V27Z" fill="#B82627"/><path d="M48 27.5V27h-3.33l-.67.67v1l.67.58h1.83v1.25H44v.5h3.33l.67-.67v-1.08l-.67-.5H45.5V27.5H48Z" fill="#BB2123"/><path d="M21 34v4h1.5v-2l1 2h1l1-2v2H27v-4h-1.83L24 36.5 22.83 34H21Z" fill="#B82627"/><path d="M39 34h-4v4h4v-.5h-2.5v-1.17h1.7v-.66h-1.7V34.5H39V34Z" fill="#BB2628"/><path d="M19 34h1.5v4H19v-4ZM28 34h1.5v4H28v-4Z" fill="#B82627"/><path d="M14 32h-2v6h6v-2h-2v.5h-2V32Z" fill="#BC2628"/><path d="M34 34h-4v.5h1.25V38h1.5v-3.5H34V34Z" fill="#B82627"/><path fill-rule="evenodd" d="M40 34h3.2l.8.67v2.66l-.8.67H40v-4Zm1.5.5h1v3h-1v-3Z" fill="#B52726"/></svg>