<!-- by TradingView --><svg width="18" height="18" viewBox="0 0 18 18" xmlns="http://www.w3.org/2000/svg"><path fill="#F0F3FA" d="M0 0h18v18H0z"/><path d="m5.35 5.1.3.4c-.72 2.03-.03 3.89 1.93 4.95a.03.03 0 0 0 .03 0 .02.02 0 0 0 0-.04 3.75 3.75 0 0 1-1.26-4.24l.34.21c-.67 2 .22 3.88 2.26 4.67h.02a.02.02 0 0 0 0-.03c-1.5-1.07-2.01-2.48-1.54-4.23l.42.26c-.71 1.97.22 3.62 2.2 4.36a.04.04 0 0 0 .05-.02v-.02l-.01-.02a3.25 3.25 0 0 1-1.48-3.74l.35.3c-.72 2.14.85 3.46 2.77 4.08l.25.41a22 22 0 0 0-1.46-.52c-.84-.27-1.52-.55-2.27-.87-2.49-1.08-3.9-3.31-2.9-5.91Z" fill="#FCC68B"/><path d="M11.67 6.06c-.4.32-.72.7-.94 1.14v.06l.12.12c.02.02.03.02.04 0 .2-.37.46-.68.8-.95l.18.62a3.58 3.58 0 0 0-.66.85l.01.05.04.03a.1.1 0 0 0 .05.01h.06c.02 0 .04 0 .05-.03.14-.22.31-.42.5-.6a.08.08 0 0 1 .06-.03h.04l.27.45c-.24.24-.75.73-.57 1.08l.01.02a.04.04 0 0 0 .04 0l.01-.02c.19-.3.41-.55.68-.78l.24.61c-.28.25-.74.85-.6 1.24.01.03.03.03.04 0 .14-.37.36-.69.67-.96.27 1.09.18 2.15.14 3.36a.48.48 0 0 1-.2-.26v-.02a.03.03 0 0 0-.05 0v.02c-.01.22.07.4.24.54a1 1 0 0 1-.01.54 1.96 1.96 0 0 1-.28-.82c0-.07-.05-.12-.1-.16a.08.08 0 0 1-.04-.06 2.8 2.8 0 0 0-.17-.86c-.09-.25-.12-.53-.22-.78-.06-.17-.1-.32-.12-.45-.03-.2-.07-.45-.2-.57a.14.14 0 0 1-.03-.06 3.74 3.74 0 0 0-.4-1.05.06.06 0 0 1 0-.06c0-.02 0-.04-.02-.05a.46.46 0 0 1-.2-.28.19.19 0 0 0-.05-.07c-.19-.2-.35-.42-.49-.65a.18.18 0 0 0-.06-.06.77.77 0 0 1-.34-.5 3 3 0 0 1 1.53-1.42c.03-.01.04 0 .04.03l-.1.78Z" fill="#8BC241"/><path d="M8.9 5.2a3.7 3.7 0 0 0-.75 1.89l-.78-.5c.11-.89.55-1.69 1.33-2.38.06-.06.1-.04.1.03l.1.96Zm.16.39.42.67c-.3.41-.48.89-.58 1.44a2.8 2.8 0 0 0-.55-.45c.13-.58.33-1.18.71-1.66Zm1.07 1.28-.45-.37c-.28.44-.47.91-.56 1.4.09.15.18.25.28.3.03.02.05.03.06.06l1.08 1.46a2.8 2.8 0 0 1 .43-1.82l-.5-.62a3.3 3.3 0 0 0-.58 1.34l-.02.01h-.03L9.8 8.6l-.01-.04c-.07-.13-.13-.23-.1-.4.1-.4.25-.78.47-1.15-.02-.02 0-.03.06-.03-.06-.04-.1-.08-.1-.12Z" fill="#228DCD"/><path d="m7.37 6.6.78.49c.04.08.1.13.2.16.16.1.35.24.55.45a.6.6 0 0 0 .22.2c.09.15.18.25.28.3l.06.05 1.08 1.47.06.12c0 .07 0 .11.02.14.26.4.54.8.75 1.24.06.12.13.23.21.34.24.3.36.64.66.92l.03.05v.08l.46.8c.03.06.07.07.11.03.03.16.08.22.14.2l.02.33c0 .03-.01.04-.03.03a.1.1 0 0 1-.05-.06l-.94-1.54-.25-.41c-.53-.9-1.06-1.77-1.59-2.64-.31-.52-.7-1-1.18-1.45l-.35-.29c-.21-.2-.46-.39-.76-.56l-.42-.26c0-.02-.03-.03-.07-.05l.01-.14Z" fill="#0F435D"/><path d="M10.21 6.67c.06.23.17.4.34.5l.06.06c.14.23.3.45.49.65l.04.07c.03.12.1.2.21.28.02.01.03.03.02.05v.06c.19.33.32.68.4 1.05 0 .02.02.04.04.06.12.12.16.37.19.57.02.13.06.28.12.45.1.25.13.53.22.78.1.28.16.56.17.86 0 .03.02.05.04.06.05.04.1.09.1.16.03.3.12.57.28.82l.05.5c-.06.01-.1-.05-.14-.2l-.3-1-.1-.34c-.3-1.2-.55-2.1-.72-2.69-.1-.38-.3-.78-.55-1.2l-.2-.32-.5-.62-.25-.29a.35.35 0 0 1-.1-.12l.1-.2Z" fill="#354C1C"/><path d="M5.35 5.1c-1 2.6.41 4.83 2.9 5.9.75.33 1.43.61 2.27.88.5.16.98.33 1.46.52l.94 1.54a27.74 27.74 0 0 0-3.63-1.9c-1.66-.72-3.36-1.66-4.42-3.1a3.96 3.96 0 0 1-.03-4.92c.03-.03.04-.03.05 0 .12.37.28.73.46 1.08Zm.3.4c.23.28.46.5.7.67a3.75 3.75 0 0 0 1.26 4.26v.02h-.03A3.85 3.85 0 0 1 5.64 5.5Zm1.7 1.24-.66-.36c-.67 2 .22 3.88 2.26 4.67h.02a.02.02 0 0 0 0-.03c-1.5-1.07-2.01-2.48-1.54-4.23 0-.02-.03-.03-.07-.05Zm.5.3c.3.18.55.37.76.57a3.25 3.25 0 0 0 1.5 3.76l-.01.02-.02.02h-.02c-2-.74-2.92-2.39-2.21-4.36Zm2.3 2.31c-.32-.52-.72-1-1.19-1.45-.72 2.15.85 3.47 2.77 4.09-.53-.9-1.06-1.77-1.59-2.64Z" fill="#F49222"/><path d="M11.17 8.21c.26.43.44.83.55 1.21.17.6.41 1.49.72 2.69l-.58-.44a.05.05 0 0 0-.07 0l-.01.03v.03c.04.1.11.17.2.22.03.02.04.04.04.06.02.15.42.38.52.43l.3 1c-.04.04-.08.03-.1-.02a18.06 18.06 0 0 0-.47-.86v-.03c0-.02-.02-.04-.03-.05-.3-.28-.42-.61-.66-.92-.08-.1-.15-.22-.21-.34-.21-.43-.5-.83-.75-1.24-.02-.03-.02-.07-.02-.14h.07c.02-.01.03-.03.03-.06a2.5 2.5 0 0 1 .47-1.57Z" fill="#228DCD"/><path d="m8.9 5.2.16.39a3.88 3.88 0 0 0-.7 1.66.33.33 0 0 1-.21-.16c.07-.7.32-1.32.76-1.89Zm.58 1.06.2.24c-.28.44-.47.91-.56 1.4a.6.6 0 0 1-.22-.2c.1-.55.29-1.03.58-1.44Zm1 1.02-.26-.29c-.05 0-.07.01-.05.03-.22.37-.37.75-.46 1.16-.04.16.02.26.09.4l.01.03.03.02a.05.05 0 0 0 .05 0l.02-.03c.09-.48.28-.92.57-1.32Zm.5.62.2.31a2.5 2.5 0 0 0-.48 1.57c0 .03-.01.05-.03.05-.03.01-.05.01-.07 0l-.06-.1a2.8 2.8 0 0 1 .43-1.83Zm1.56 4.54-.1-.33-.58-.44h-.07l-.01.03v.03c.04.1.11.17.2.22.03.02.04.04.04.06.02.15.42.38.52.43Z" fill="#98BCE3"/><path d="m11.67 6.06.02.37c-.34.27-.6.58-.8.95 0 .02-.02.02-.04 0l-.11-.12c-.02-.02-.02-.03-.01-.06.22-.44.54-.82.94-1.14Zm.2 1 .15.27h-.04c-.02 0-.04 0-.05.02-.2.19-.37.39-.51.61a.06.06 0 0 1-.05.03h-.06a.1.1 0 0 1-.05-.01.1.1 0 0 1-.04-.03.1.1 0 0 1 0-.1c.17-.3.39-.56.64-.8Zm.59 1.02-.17-.3c-.24.24-.75.73-.57 1.08l.01.02a.04.04 0 0 0 .05-.02c.19-.3.41-.55.68-.78Zm.24.61.1.28c-.3.27-.52.6-.66.96-.01.03-.03.03-.04 0-.14-.39.32-1 .6-1.24Zm.24 3.92c.05-.06.05-.15.01-.28a.48.48 0 0 1-.2-.26v-.02h-.05v.02c-.01.22.07.4.24.54Z" fill="#C3DD9B"/></svg>