<!-- by TradingView --><svg width="18" height="18" viewBox="0 0 18 18" xmlns="http://www.w3.org/2000/svg"><path fill="#F0F3FA" d="M0 0h18v18H0z"/><path fill-rule="evenodd" d="M5.14 4C4.51 4 4 4.47 4 5.05v7.9c0 .58.51 1.05 1.14 1.05h7.72c.63 0 1.14-.47 1.14-1.05v-7.9C14 4.47 13.49 4 12.86 4H5.14Zm.3.3c-.62 0-1.13.46-1.13 1.03v7.34c0 .57.5 1.04 1.13 1.04h7.13c.62 0 1.12-.47 1.12-1.04V5.33c0-.57-.5-1.04-1.12-1.04H5.44Z" fill="#B99C4C"/><path d="M5 12.29v-6.4L6 5l2.72 1.32 1.64-.76-.23 7.3-1.54-.57-.32.43-2.78.28-.49-.71Z" fill="#88540B"/><path d="M6 13V5l3 .4v2.42l1.36-2.28L13 5.9l-1.89 3.44 1.63 3.25-2.53.28-1.01-1.9H9v1.9L6 13Z" fill="#F4C17A"/></svg>