<!-- by TradingView --><svg width="56" height="56" viewBox="0 0 56 56" xmlns="http://www.w3.org/2000/svg"><path fill="#F0F3FA" d="M0 0h56v56H0z"/><path d="M12 23v-6h1v2.76L15.61 17h1.37l-2.45 2.64L17 23h-1.35l-1.9-2.63-.75.84V23h-1Zm6 0v-6h1v2.54h3V17h1v6h-1v-2.55h-3V23h-1Zm6-6h1.13l1.37 2.65L27.87 17H29l-2 3.76V23h-1v-2.24L24 17Zm6 6v-6h2.05c.78 0 1.74.4 1.74 1.56 0 .7-.42 1.13-.94 1.27v.06c.64.04 1.15.67 1.15 1.48 0 1.22-1 1.63-1.83 1.63H30Zm1-1h1.02c.42 0 1-.06 1-.72 0-.65-.53-.95-.98-.95H31V22Zm0-2.45h.93c.41 0 .89-.26.89-.85 0-.47-.3-.7-.87-.7H31v1.55ZM35 23v-6h4v1h-3v1.54h2.77v.91H36V22h3v1h-4Zm-19 9v-6h4v1h-3v1.54h2.77v.91H17V31h3v1h-4Zm25 0v-6h4v1h-3v1.54h2.77v.91H42V31h3v1h-4Zm-1-9v-6h1.73c1.18 0 2.27.7 2.27 2 0 1.32-1.1 2-2.28 2h-1.03v-1h1.04c.64 0 1.27-.26 1.27-1s-.62-1-1.28-1H41v5h-1Zm2.38-2.72L44 23h-1.32l-1.6-2.72h1.3ZM10 27v-1h5v1h-2v5h-1v-5h-2Zm17 0v-1h5v1h-2v5h-1v-5h-2Zm-4.79-1 1.29 2.2 1.29-2.2h1.18l-1.76 3L26 32h-1.2l-1.3-2.18L22.2 32H21l1.81-3-1.79-3h1.2ZM34 26v6h-1v-6h1Zm2 6v-6h1v5h3v1h-4Zm-11 9v-6h1v5h3v1h-4Zm5 0v-6h1v5h3v1h-4Zm-14-6h1.27L19 39.35 20.73 35H22v6h-1v-4l-1.63 3.98h-.74L16.99 37v4H16v-6Zm8 0v6h-1v-6h1Zm14.02 1.68c-.05-.5-.42-.68-.98-.68-.46 0-1.03.14-1.04.65 0 .85 3 .72 3 2.62 0 1.13-.93 1.73-1.98 1.73-1.11 0-1.98-.65-2.02-1.81h.93c.04.6.52.81 1.09.81.5 0 .97-.17.98-.73 0-.77-2.96-.64-2.96-2.55 0-1.06 1-1.72 2.01-1.72.99 0 1.86.65 1.88 1.68h-.91Z"/></svg>