<!-- by TradingView --><svg width="18" height="18" viewBox="0 0 18 18" fill="none" xmlns="http://www.w3.org/2000/svg">
<rect width="18" height="18" fill="#C20116"/>
<path fill-rule="evenodd" clip-rule="evenodd" d="M4.01671 12.9825C4.02741 12.9937 4.04192 13 4.05706 13H13.9429C13.9581 13 13.9726 12.9937 13.9833 12.9825C13.994 12.9713 14 12.9561 14 12.9402V9.19546C14 7.81754 13.4777 6.49605 12.5481 5.52171C11.6185 4.54738 10.3577 4 9.04304 4H8.95696C7.64229 4 6.38147 4.54738 5.45186 5.52171C4.52225 6.49605 4 7.81754 4 9.19546V12.9402C4 12.9561 4.00601 12.9713 4.01671 12.9825ZM11.0881 11.1906H9.58659C9.55322 11.1906 9.53654 11.208 9.53654 11.243V12.1084C9.53654 12.1434 9.51985 12.1608 9.48649 12.1608H8.45545C8.41742 12.1608 8.39673 12.1413 8.39339 12.1021L8.21922 10.2643C8.21455 10.2168 8.19186 10.2035 8.15115 10.2245L7.98899 10.3094C7.95362 10.3276 7.93527 10.3161 7.93393 10.2748L7.90591 9.41469C7.90457 9.36853 7.88355 9.33671 7.84284 9.31923C7.56524 9.20355 7.50221 9.56724 7.46215 9.79841C7.4528 9.85233 7.44471 9.89903 7.43544 9.93077C7.01401 11.3615 5.27327 10.9577 5.22723 9.53112C5.22723 9.52482 5.22931 9.5187 5.23313 9.51383C5.23694 9.50895 5.24225 9.50561 5.24815 9.50438C5.25405 9.50314 5.26018 9.50408 5.26549 9.50705C5.2708 9.51001 5.27496 9.51481 5.27728 9.52063C5.67467 10.6566 6.98599 10.9682 7.2042 9.5028C7.20643 9.48898 7.20369 9.47476 7.19651 9.46279C7.18933 9.45083 7.17818 9.44193 7.16516 9.43776C6.99867 9.38229 6.94069 9.70916 6.90922 9.88655C6.9038 9.91713 6.89916 9.94327 6.89489 9.96224C6.89154 9.97665 6.88465 9.98989 6.8749 10.0006C6.86514 10.0114 6.85288 10.0193 6.83931 10.0235C6.82575 10.0278 6.81136 10.0282 6.79758 10.0248C6.7838 10.0214 6.7711 10.0143 6.76076 10.0042C6.6923 9.93499 6.7016 9.66277 6.70733 9.49509C6.70872 9.45435 6.70991 9.41979 6.70971 9.3958C6.70718 9.18861 6.68004 8.95457 6.65189 8.71191C6.59085 8.18555 6.52509 7.61865 6.6957 7.1972C6.70837 7.16643 6.71371 7.13392 6.71171 7.09965C6.65265 6.32972 6.87187 5.79895 7.70671 5.87448C7.74541 5.87797 7.77744 5.86434 7.8028 5.83357L7.98198 5.61434C7.99332 5.6004 8.00897 5.59102 8.02629 5.58777C8.04361 5.58452 8.06154 5.5876 8.07708 5.5965L9.23624 6.27098C9.30163 6.30944 9.331 6.36783 9.32432 6.44615C9.2798 6.99297 9.05809 7.2504 8.78101 7.57212C8.67805 7.69166 8.56745 7.82008 8.45545 7.97552C8.44213 7.99492 8.43582 8.01866 8.43766 8.04248C8.4395 8.0663 8.44936 8.08867 8.46549 8.10557C8.48162 8.12247 8.50296 8.13281 8.52569 8.13473C8.54843 8.13666 8.57108 8.13005 8.58959 8.11608C9.01068 7.78252 9.30097 7.35245 9.46046 6.82587C9.46863 6.79911 9.48205 6.77444 9.49985 6.75345C9.51766 6.73247 9.53944 6.71565 9.5638 6.70407C9.58815 6.6925 9.61453 6.68643 9.64122 6.68628C9.66791 6.68612 9.69431 6.69186 9.71872 6.70315C10.2793 6.95839 10.8475 7.22378 11.4234 7.4993C11.4714 7.52221 11.5182 7.54425 11.5636 7.5657C12.2177 7.87422 12.6058 8.05731 12.6667 8.85664C12.694 9.20769 12.7191 9.5528 12.7417 9.89196C12.7426 9.90397 12.7397 9.91595 12.7334 9.92603C12.7271 9.9361 12.7178 9.94371 12.7069 9.94767C12.6961 9.95162 12.6843 9.95169 12.6734 9.94788C12.6625 9.94406 12.6531 9.93657 12.6466 9.92657L12.4064 9.56783C12.401 9.55988 12.3933 9.55398 12.3844 9.551C12.3756 9.54803 12.366 9.54815 12.3572 9.55134C12.3484 9.55453 12.3409 9.56062 12.3357 9.5687C12.3304 9.57678 12.3279 9.58641 12.3283 9.59616L12.4364 12.1997C12.4384 12.2437 12.4188 12.2657 12.3774 12.2657H11.5315C11.4548 12.2657 11.4107 12.2259 11.3994 12.1462L11.2823 11.3647C11.2751 11.3161 11.2516 11.2719 11.216 11.2399C11.1803 11.208 11.135 11.1905 11.0881 11.1906ZM7.00876 11.1083C7.02631 11.4574 7.05167 11.9617 6.6006 11.9962C6.58578 11.9972 6.57104 11.9933 6.55849 11.9849C6.54594 11.9766 6.53624 11.9643 6.53078 11.9499C6.52533 11.9354 6.5244 11.9195 6.52813 11.9044C6.53186 11.8894 6.54006 11.8759 6.55155 11.8661C6.79846 11.6598 6.87888 11.3871 6.79279 11.0479C6.78412 11.0136 6.79479 10.9885 6.82482 10.9724C6.92993 10.9157 7 10.9483 7.00701 11.0731C7.00757 11.0846 7.00816 11.0963 7.00876 11.1083ZM7.131 8.0056C7.05376 8.00036 6.99572 7.92207 7.00136 7.83073C7.00699 7.73939 7.07418 7.66958 7.15141 7.67482C7.22865 7.68005 7.28669 7.75834 7.28105 7.84968C7.27542 7.94103 7.20824 8.01083 7.131 8.0056Z" fill="white"/>
</svg>
