<!-- by TradingView --><svg width="56" height="56" viewBox="0 0 56 56" xmlns="http://www.w3.org/2000/svg"><path fill="#F0F3FA" d="M0 0h56v56H0z"/><path d="M18 24.99c0 1.56-.97 3.01-3.02 3.01-2.01 0-2.98-1.5-2.98-3.01 0-1.56.97-2.99 3.02-2.99 2 0 2.98 1.47 2.98 2.99Zm-5 0c0 1.07.8 2.01 2 2.01s2-.94 2-2.01c0-1.08-.78-1.99-1.98-1.99S13 23.9 13 24.99ZM39 24.99c0 1.56-.97 3.01-3.02 3.01-2.01 0-2.98-1.5-2.98-3.01 0-1.56.97-2.99 3.02-2.99 2 0 2.98 1.47 2.98 2.99Zm-5 0c0 1.07.8 2.01 2 2.01s2-.94 2-2.01c0-1.08-.8-1.99-2-1.99s-2 .9-2 1.99ZM46 24.99c0 1.56-.97 3.01-3.02 3.01-2.01 0-2.98-1.5-2.98-3.01 0-1.56.97-2.99 3.02-2.99 2 0 2.98 1.47 2.98 2.99Zm-5 0c0 1.07.78 2.01 1.98 2.01S45 26.06 45 24.99c0-1.08-.78-1.99-1.98-1.99S41 23.9 41 24.99ZM20 20v2.86a2.84 2.84 0 0 1 2-.86c1 0 2 .86 2 2v4h-1v-3.5c0-.94-.56-1.5-1.5-1.5-1.25 0-1.5.88-1.5 2v3h-1v-8h1ZM26 22v6h-1v-6h1ZM25.85 20.12a.52.52 0 0 0-.35-.12.53.53 0 0 0-.36.12c-.1.08-.14.2-.14.38 0 .17.05.3.14.38.1.08.22.12.36.12.14 0 .25-.04.35-.12.1-.09.15-.21.15-.38s-.05-.3-.15-.38ZM30.13 22c1.34 0 1.87 1.07 1.87 2.4V28h-1v-3.5c0-.96-.59-1.5-1.5-1.5-1.04 0-1.5 1-1.5 1.86V28h-1v-6h1v1c.38-.64 1.4-1 2.13-1ZM49.16 22c.28 0 .6.03.84.07l-.13 1.12a3.92 3.92 0 0 0-.78-.08c-.98 0-1.09.58-1.09 1.89v3h-1v-6h1v1.2c0-.6.63-1.2 1.16-1.2Z" fill="#777"/><path d="M8 20H7v8h1v-2.69L10.82 28h1.68l-4-4 4-4h-1.68L8 22.69V20ZM24 34.99c0 1.56-.97 3.01-3.02 3.01-2.01 0-2.98-1.5-2.98-3.01 0-1.56.97-2.99 3.02-2.99 2 0 2.98 1.47 2.98 2.99Zm-5 0c0 1.07.78 2.01 1.98 2.01S23 36.06 23 34.99c0-1.08-.82-1.99-2.02-1.99-1.2 0-1.98.9-1.98 1.99ZM43.16 32c.28 0 .6.03.84.07l-.13 1.12a3.92 3.92 0 0 0-.78-.08c-.98 0-2.09.58-2.09 1.89v3h-1v-6h1v1.2a2.57 2.57 0 0 1 2.16-1.2ZM15.5 30c1.65 0 2.5.88 2.5 2.5 0 1.68-.77 2.5-2.5 2.5H14v3h-1v-8h2.5Zm0 1H14v3h1.5c1 0 1.5-.36 1.5-1.5 0-1.14-.5-1.5-1.5-1.5Z" fill="#777"/><path fill-rule="evenodd" d="M36 37a2 2 0 0 0 1.73-1h1.1a3 3 0 1 1 .13-.5h-4.9A2 2 0 0 0 36 37Zm-1.94-2.5a2 2 0 0 1 3.88 0h-3.88Z" fill="#777"/><path d="m32 32-1.37 6h-1.27l-.85-4.2-.85 4.2h-1.29L25 32h1.2l.82 4.57.9-4.57h1.25l.87 4.56.83-4.56H32Z" fill="#777"/></svg>