<!-- by TradingView --><svg width="18" height="18" viewBox="0 0 18 18" xmlns="http://www.w3.org/2000/svg"><path fill="#F0F3FA" d="M0 0h18v18H0z"/><path d="M6 13.4V11l4 3H6.67c-.54 0-.67-.4-.67-.6Z" fill="url(#aafh1sml0)"/><path d="M6 4.6V7l4-3H6.67c-.54 0-.67.4-.67.6Z" fill="#205E2D"/><path d="M12 5.34V4a127.3 127.3 0 0 0-5.4 3.68c-.6.53-.6.8-.6 1.06l1.2.52 4.6-3.52a.5.5 0 0 0 .2-.4Z" fill="#76C037"/><path d="M12 12.66V14c-1.6-1.05-4.92-3.26-5.4-3.68C6.12 9.89 6 9 6 8.74c0-.27.12-.53.12-.53l5.68 4.05c.13.1.2.25.2.4Z" fill="url(#bafh1sml0)"/><defs><linearGradient id="aafh1sml0" x1="6" y1="11.6" x2="8.72" y2="14.29" gradientUnits="userSpaceOnUse"><stop stop-color="#5EA32F"/><stop offset="1" stop-color="#7ABD35"/></linearGradient><linearGradient id="bafh1sml0" x1="6.6" y1="9.26" x2="11.37" y2="14.1" gradientUnits="userSpaceOnUse"><stop stop-color="#427B2B"/><stop offset="1" stop-color="#77BA46"/></linearGradient></defs></svg>