<!-- by TradingView --><svg width="18" height="18" viewBox="0 0 18 18" xmlns="http://www.w3.org/2000/svg"><path fill="#F0F3FA" d="M0 0h18v18H0z"/><path d="M4 8.21v3.14c.05.88.61 2.63 2.48 2.63A2.7 2.7 0 0 0 9 11.22C8.96 10.35 8.46 9 6.48 9c-.16 0-.35.02-.48.08v1.93c.09-.12.32-.35.63-.35.4 0 .8.38.8.84 0 .46-.43.83-.84.83-.42 0-1.01-.2-1.01-.83V8.21l-.7-.87-.88.87ZM7.74 14H10v-1.67h-.8A2.6 2.6 0 0 1 7.75 14Z" fill="#00559B"/><path d="M4 6.15v1.4l.89-.83.69.83V6.47c0-.4.41-.8.8-.8h5.24c.39 0 .8.4.8.8v5.03c0 .4-.41.83-.8.83h-1.04V14h1.39c1.12 0 2.03-.96 2.03-2.15v-5.7C14 4.96 13.1 4 11.97 4H6.03C4.91 4 4 4.96 4 6.15Z" fill="#B2B2B2"/></svg>