<!-- by TradingView --><svg width="56" height="56" viewBox="0 0 56 56" xmlns="http://www.w3.org/2000/svg"><path fill="#F0F3FA" d="M0 0h56v56H0z"/><path fill-rule="evenodd" d="M15.85 26.1a.94.94 0 0 1-.67-.39c-.07-.1-.07-.2 0-.31.45-.6.78-1.3 1-2.08.04-.16-.02-.24-.19-.24a.3.3 0 0 0-.18.06.98.98 0 0 0-.34.44l-.52 1.45c-.04.1-.05.2-.03.3l.06.35a.4.4 0 0 1-.09.35c-.33.38-.43.9-.28 1.58.02.14.1.18.23.14.22-.06.36-.23.43-.5.04-.14.15-.21.34-.22.25.35.32.73.23 1.14a.76.76 0 0 0-.38.12.47.47 0 0 1-.32.06c-.33-.06-.53.1-.6.47a3.29 3.29 0 0 0 .21 1.58l.06.03a2.52 2.52 0 0 0 .1.03c.09 0 .13-.05.13-.19 0-.45.17-.77.54-.99.29.55.4 1.22.35 2.03 0 .13.03.24.1.34.3.37.44.8.58 1.22.15.48.3.95.7 1.27a.43.43 0 0 1 .15.3c.03.37.18.8.46 1.3a.4.4 0 0 0 .3.2c.31.05.5.19.54.42.03.15.1.28.2.4l1.24 1.23c.07.08.16.12.25.15.39.1.68.32.88.66.06.12.16.2.29.24.18.06 1.03.48 2.53 1.24.4.2.66.43.78.68.13.3.21.54.23.72.08.77.79 1.26 1.5 1.12.15-.02.26.01.36.1.32.3.62.5.92.58.13.04.24 0 .33-.1.16-.22.34-.29.54-.21a.27.27 0 0 0 .32-.1c.13-.2.32-.29.59-.25.13.02.25 0 .36-.07.58-.34.89-.85.93-1.51 0-.13.05-.24.15-.32.85-.8 1.89-1.41 3.11-1.84.12-.04.2-.12.27-.24a.6.6 0 0 1 .5-.33.5.5 0 0 0 .33-.16c.97-1.04 1.82-1.9 2.57-2.56.32-.29.48-.62.5-.99 0-.12.04-.23.11-.33l.77-1.1c.06-.1.08-.2.05-.3-.06-.2 0-.37.2-.5a.44.44 0 0 0 .2-.3l.52-3.04c.4.3.76.62 1.05.96.16.19.29.3.38.3.2.03.36-.03.5-.19.09-.09.2-.12.31-.08l.29.08c.14.04.2-.01.18-.15l-.24-1.67c-.1-.75-.3-.77-.58-.08l-.06.16-.16.53c-.04.11-.11.15-.22.1a.3.3 0 0 1-.13-.08c-.04-.05-.06-.14-.08-.27a.98.98 0 0 0-.31-.62.41.41 0 0 0-.34-.11l-.54.06c-.38-.48-.42-.93-.12-1.34.07-.1.09-.21.04-.33l-.5-1.25a.63.63 0 0 1-.02-.4c.1-.36 0-.6-.26-.71-.13-.06-.18-.16-.14-.3.09-.34 0-.56-.25-.68a.33.33 0 0 1-.2-.25l-.1-.51a.92.92 0 0 0-.13-.33c-.63-.98-1.5-1.95-2.6-2.93a.86.86 0 0 0-.31-.18c-.25-.08-.38-.27-.37-.57a.15.15 0 0 0-.04-.1c-.09-.1-.17-.12-.24-.08a.23.23 0 0 1-.27-.03 4.1 4.1 0 0 0-1.35-.84c-.52-.14-.9-.3-1.14-.48-.16-.12-.42-.14-.7-.15a2.1 2.1 0 0 1-.63-.1c-.26-.1-.49-.25-.69-.45a.38.38 0 0 0-.32-.1c-.34.04-.55.05-.66.03-.77-.14-.8-.36-.07-.66.1-.04.31.06.62.28.1.08.2.11.33.11h1.4c.06 0 .07-.02.04-.06l-.1-.14a.12.12 0 0 0-.12-.05c-.45.06-.81-.05-1.08-.33a.42.42 0 0 0-.32-.13h-.9a.4.4 0 0 1-.28-.11.26.26 0 0 1-.08-.15c-.01-.13.04-.22.17-.25.33-.1.6-.08.82.08.1.07.22.12.34.12l.17.01h.08c.32.02.65.03 1.04.16.46.16.91.18 1.35.06.16-.05.16-.09 0-.12l-2.14-.54c-.13-.03-.3-.04-.47-.06-.42-.03-.92-.06-1.2-.43-.1-.12-.07-.2.08-.22.64-.11 1.18-.05 1.62.18.12.06.24.08.37.05.37-.07.62.03.75.3.07.13.17.17.3.1.25-.12.42-.25.5-.38a.16.16 0 0 0 .01-.17.17.17 0 0 0-.14-.08c-.4 0-.68-.08-.83-.24a.35.35 0 0 0-.06-.06c-.25-.18-.72-.02-1 0a.3.3 0 0 1-.28-.13.75.75 0 0 0-.6-.33c-.14-.01-.2-.08-.21-.22v-.13c.01-.17.08-.2.21-.09.23.2.5.26.8.2.13-.03.25 0 .36.07.27.17.7.25 1.28.24.06 0 .12.02.17.06l.16.16c.06.07.14.1.24.1.25 0 .42.03.49.1.36.43.48.35.38-.2-.06-.3-.32-.46-.79-.5a.7.7 0 0 1-.34-.12c-.37-.26-1.19.05-1.37-.3-.12-.24-.29-.33-.5-.27-.25.07-.37-.02-.37-.28v-.27c0-.23.11-.34.34-.34.46 0 .62.46 1.02.54.36.07.75.18 1.2.33.16.05.38.17.68.36.06.04.21.12.47.23.07.04.24.06.5.08.34.02.55.2.66.52.05.15.15.2.3.17.53-.12 1.5.2 1.85.69.23.32.56.54.9.77.3.2.6.41.88.7 1.37 1.39 3.55 3.22 4.21 5.21.87 2.5 1.82 4.91 1.82 7.4a.54.54 0 0 1-.1.34c-.32.42-.37.96-.15 1.6l-.02.36-.71 3.48-.01.02c-.52 1.07-1.6 3.81-2.5 4.43-.5.35-1.21 1.57-1.78 2.13l-1.77 1.74c-.14.13-.43.25-.87.34a.41.41 0 0 0-.28.21c-.33.6-1.93 1.18-2.61 1.26-.21.02-.38.15-.51.4-.07.13-.16.14-.26.04l-.3-.31a.35.35 0 0 0-.3-.1c-.64.04-1.27-.22-1.88-.8-.11-.1-.22-.1-.34-.02-.3.23-.7.3-1.18.25-.16-.02-.22.05-.16.2.08.2.29.32.62.35.13 0 .23.07.3.18.16.25.19.44.08.56a.7.7 0 0 1-.5.23c-.2 0-.4-.06-.58-.19a2.54 2.54 0 0 0-.88-.46.18.18 0 0 1-.08-.16c0-.02 0-.05-.02-.07a.55.55 0 0 0-.03-.07.09.09 0 0 0-.16.01c-.08.25-.24.37-.45.38-.06 0-.11.01-.16.04a.34.34 0 0 0-.11.1c-.31.46-.71.54-1.2.24a.39.39 0 0 1-.2-.4.39.39 0 0 1 .32-.32c.27-.05.5-.16.67-.33.26-.25.21-.35-.15-.31-.45.05-.9 0-1.34-.14a.3.3 0 0 0-.33.08l-.31.31a.44.44 0 0 1-.24.13c-.37.06-.68.2-.92.44a.43.43 0 0 1-.3.13c-3.47 0-7.85-3.74-9.54-6.69a16.9 16.9 0 0 1-1.18-2.53c-.16-1.3-2.05-4.4-1.3-5.3.06-.08.05-.16-.01-.22l-.12-.12a.51.51 0 0 1-.15-.36c-.01-1.77.47-3.35.53-5 .05-1.55 1.31-3.45 2.02-4.8.57-1.09 1.81-1.65 2.35-2.65.63-1.19 1.88-1.8 2.84-2.66.25-.23.64-.4 1.15-.52.28-.07 4.41-1.66 4.76-2.02l.43-.43c.17-.17.28-.14.32.1l.1.51a.2.2 0 0 1-.04.17.2.2 0 0 1-.15.08c-.26 0-.41.1-.48.3-.04.14-.13.2-.27.15a2.85 2.85 0 0 0-1.8.36c-.28.21-.44.35-.49.41-.3.37-.21.49.24.35.42-.13.81-.3 1.16-.49.1-.06.23-.09.35-.09.28 0 .47-.05.57-.18.08-.1.19-.16.32-.15l1.1.07c.27.02.28.08.04.2-.63.3-1.47.54-2.53.72-.2.04-.28.17-.24.38 0 .06.03.11.07.15.03.05.08.08.14.1.33.1.6.02.82-.24.09-.1.2-.14.33-.13.34.03.56-.06.77-.14.18-.07.35-.14.58-.13a24.12 24.12 0 0 1 .6.04.25.25 0 0 1 .13.16v.1l-.01.12a.32.32 0 0 1-.32.25H25.1a.32.32 0 0 0-.23.1l-.1.1a.15.15 0 0 1-.08.04l-1.61.31c-.08.01-.09.05-.04.11.03.03.05.07.05.1s0 .04.02.04h1.23c.11 0 .2-.05.25-.15.1-.2.28-.22.55-.09.11.06.22.06.33 0 .35-.2.68-.3 1-.28.15 0 .24.1.24.26v.15c0 .1-.05.14-.15.13-.54-.07-.93.02-1.19.28-.1.1-.23.16-.38.16h-.83c-.21 0-.25.08-.12.25l.1.13c.06.1.15.12.26.06a1.7 1.7 0 0 1 1.12-.16c.12.02.25-.01.36-.08.21-.13.44-.2.69-.2a.17.17 0 0 1 .17.16v.1c.02.15-.05.22-.19.23-.63.02-1.22.23-1.76.64-.1.08-.21.1-.33.07-.46-.11-.8.08-1.14.27-.22.12-.44.25-.7.3-.65.12-1.26.56-1.85 1.02a.5.5 0 0 0-.18.29c-.03.18-.16.31-.37.39-.66.25-1.15.73-1.48 1.42-.15.33-.46.66-.94 1a.69.69 0 0 0-.23.26l-1.27 2.64c-.07.15-.09.3-.06.47l.03.19a.32.32 0 0 1-.1.3.95.95 0 0 0-.32.8Zm5.76-12.74c.1.12-.25.53-.76.9-.52.38-1.01.58-1.1.46-.1-.13.25-.54.76-.91.52-.38 1-.58 1.1-.45Zm-1.4 2.02.13.06a.43.43 0 0 1 .23.27c.05.15.06.25.04.28-.2.41-.1.49.27.23a6.43 6.43 0 0 0 1.55-1.46c.07-.08.07-.18 0-.3a.25.25 0 0 0-.3-.13l-1.9.76c-.22.09-.23.18-.01.3Zm-2.1-.12c-.45.5-.66 1.03-.49 1.2.18.16.7-.12 1.14-.61.45-.5.67-1.04.49-1.2-.18-.16-.69.1-1.14.6Zm.07 1.75c-.05.05-.06.1-.02.17a2.8 2.8 0 0 1 .44 1.03.06.06 0 0 0 .05.02h.01a.05.05 0 0 0 .03-.03l.96-1.39c.55-.78.43-1-.38-.63-.26.12-.63.4-1.09.83Zm3.27.21c0 .04-.13.13-.38.28l-1.5.89c-.1.06-.18.15-.24.26a4.33 4.33 0 0 1-1.76 1.8.13.13 0 0 1-.15 0l-.2-.13c-.07-.04-.07-.1-.01-.15.28-.23.49-.5.63-.8a.67.67 0 0 1 .26-.28l.82-.47c.1-.06.18-.15.22-.26.33-.9 1-1.37 1.98-1.42a.3.3 0 0 0 .27-.22l.09-.28c.03-.12.1-.21.2-.28.42-.25.88-.3 1.4-.18.16.04.21.14.14.3-.1.26-.4.39-.89.38-.54-.02-.83.17-.88.56Zm-5.9 1.34c-.19-.14.04-.76.5-1.38.47-.62.99-1.01 1.17-.88.18.14-.05.75-.5 1.38-.47.62-1 1.01-1.17.88Zm.95.85c-.13-.06-.22-.08-.25-.07-.38.13-.44.04-.17-.27.45-.5.94-.91 1.48-1.22.08-.04.17-.03.27.04a.22.22 0 0 1 .07.3l-.9 1.6c-.1.19-.19.18-.26-.03l-.03-.12a.38.38 0 0 0-.21-.23Zm-2.43 1.68c-.22-.1-.19-.71.08-1.39.27-.67.67-1.14.9-1.05.22.09.18.7-.09 1.38-.27.67-.67 1.15-.89 1.06Zm.7.52-.14.15c-.08.09-.13.07-.13-.05a.93.93 0 0 1 0-.13c0-.04 0-.07.02-.1.4-.5.79-.9 1.17-1.18.57-.43.76-.3.56.4l-.4 1.36c-.03.1-.1.16-.2.16a.3.3 0 0 1-.11-.02.25.25 0 0 1-.16-.19c-.06-.26-.2-.41-.44-.45a.18.18 0 0 0-.17.05Zm1.44 1.15h.01l1.37-1.9v-.05h-.02c-.1-.08-.27-.05-.46.07-.2.12-.41.33-.59.57l-.07.1c-.18.25-.31.51-.37.73-.05.23-.03.4.07.47l.02.01h.04Zm-2.35 2c-.19 0-.3 0-.33.04-.4.32-.5.24-.32-.25.3-.8.71-1.51 1.21-2.12.08-.1.19-.12.34-.09a.29.29 0 0 1 .22.32l-.34 2.33c-.04.27-.15.3-.32.09l-.1-.13a.49.49 0 0 0-.36-.18Zm-1.72 2.3c-.23-.01-.38-.7-.34-1.53.04-.83.26-1.5.48-1.49.23.01.38.7.34 1.53-.04.83-.25 1.5-.48 1.5Zm1.44.61a.43.43 0 0 0-.35 0l-.14.07c-.22.1-.3.04-.22-.2l.62-1.99a.25.25 0 0 1 .3-.17c.13.03.2.1.23.2.17.68.22 1.4.16 2.17-.04.46-.16.48-.35.07-.02-.04-.1-.09-.25-.15Zm-1.2 2.8c-.18.04-.44-.59-.57-1.39-.13-.8-.08-1.47.1-1.5.19-.03.44.6.57 1.4.13.8.08 1.47-.1 1.5Zm.91 0c-.07 0-.11-.04-.12-.12a4.75 4.75 0 0 1 .03-1.43c.22-.9.48-.86.76.1l.5 1.69a.06.06 0 0 1-.09.07c-.35-.17-.7-.28-1.08-.3Zm1.7.4a.98.98 0 0 0-.2.8.19.19 0 0 1-.06.18.18.18 0 0 1-.12.04.2.2 0 0 1-.19-.1c-.2-.33-.34-.52-.42-.59-.33-.28-.48-.2-.47.25l.06 1.85c.01.46.16.5.44.12l.03-.06.03-.07a.32.32 0 0 1 .25-.21l1.03-.2a.31.31 0 0 1 .35.2c.02.05.02.1.02.15a2.2 2.2 0 0 0 .75 1.91h.05a.07.07 0 0 0 .05-.07c.06-.98-.18-1.73-.71-2.25a.61.61 0 0 1-.18-.33l-.28-1.5a.25.25 0 0 0-.44-.12Zm-2.84.9-.24-.52a.18.18 0 0 1 .07-.23l.1-.06a.12.12 0 0 1 .13 0c.7.44.85 1.25 1.02 2.13l.03.16.03.11a.2.2 0 0 1-.08.2.2.2 0 0 1-.21 0c-.5-.29-.56-.65-.64-1.07-.05-.22-.1-.46-.2-.72Zm2.47 3.48c.08.25.16.5.22.76.04.15-.02.17-.17.08-.1-.08-.33-.5-.68-1.3-.14-.32-.43-.53-.88-.63-.15-.03-.2.02-.16.16a5.15 5.15 0 0 0 1.38 2.4c.08.07.09.15.04.23a.27.27 0 0 1-.09.09c-.12.08-.14.17-.04.29a15.03 15.03 0 0 0 2.18 2.13c.05.08.07.14.04.2-.06.11-.05.22.04.31.66.72 1.16 1.14 1.51 1.24.82.23.93.06.32-.52-.5-.48-.96-.82-1.4-1.02a.29.29 0 0 1-.16-.27v-.2a.53.53 0 0 0-.1-.31 7.27 7.27 0 0 0-1.84-1.8.26.26 0 0 1-.12-.23.27.27 0 0 1 .14-.21c.31-.18.54-.41.69-.7a.35.35 0 0 1 .13-.14.34.34 0 0 1 .18-.05c.2 0 .3-.08.32-.26.01-.07 0-.14-.04-.2a6.77 6.77 0 0 0-1.42-1.69.24.24 0 0 0-.23-.04.23.23 0 0 0-.14.19c-.06.43.1.96.28 1.48Zm3.27 1.46v.02l-.03.03-.03.01a.37.37 0 0 1-.2.05.6.6 0 0 1-.24-.08.96.96 0 0 1-.24-.18 1.25 1.25 0 0 1-.19-.25l-.05-.1c-.1-.19-.16-.4-.15-.59.01-.18.09-.32.2-.4l.03-.01a.06.06 0 0 1 .02 0h.03a.06.06 0 0 1 .03.02l.8 1.45.02.03Zm-1.3 1.53c.04.07.1.08.18.05a3.08 3.08 0 0 1 1.17-.31l.02-.03a.06.06 0 0 0-.02-.07l-1.33-1.27c-.76-.72-1.01-.62-.75.32.09.3.33.74.73 1.31Zm2.79.4c-.1.01-.2 0-.29-.06-.25-.13-.4-.25-.43-.35l-.34-.97a.15.15 0 0 1 .11-.2c.03 0 .06 0 .09.02.27.13.6.57.98 1.31.08.14.03.22-.12.25Zm-.5 1.78v-.14c0-.14.07-.25.19-.32l.42-.24c.14-.09.15-.18.02-.28a8.9 8.9 0 0 0-1.1-.74c-.88-.47-1.11-.27-.71.6.13.3.46.7 1 1.2.12.12.19.1.19-.08Zm3.35.01a.47.47 0 0 0-.3-.1c-.94 0-1.64-.53-2.09-1.56a.16.16 0 0 1 .1-.22.16.16 0 0 1 .08 0c.55.1 1.2.8 1.66 1.31l.09.1c.07.08.17.13.29.14.92.07 1.68.43 2.3 1.1.26.27.21.36-.16.28a4.9 4.9 0 0 1-1.97-1.05Zm-1.25 1.46.1-1.14c.02-.07 0-.12-.07-.16a3.1 3.1 0 0 0-.71-.37c-.87-.16-1 .1-.4.77a7.94 7.94 0 0 0 1.05.93.05.05 0 0 0 .02-.01v-.02Zm1.97.74c.86.41 1.66.53 1.78.28.12-.26-.48-.8-1.34-1.2-.87-.42-1.67-.54-1.79-.28-.12.25.49.8 1.35 1.2Zm-4.11-.82c.4.39 1.02.7 1.83.93.1.03.18.09.24.17.5.7 1.26.95 2.27.75a.14.14 0 0 0 .11-.1.15.15 0 0 0-.04-.16c-.38-.36-1.26-.47-1.87-.55l-.1-.01a.4.4 0 0 1-.27-.15 3.17 3.17 0 0 0-2.04-1.15c-.34-.05-.39.04-.13.27Zm-6.16-17.95c-.21-.06-.17-.74.08-1.52.25-.77.62-1.34.83-1.27.2.07.17.75-.08 1.52s-.63 1.34-.83 1.27Zm25.41-7.44.06-.21a.8.8 0 0 0-.02-.54c-.2-.52-.73-.9-1.59-1.16a1.94 1.94 0 0 1-.54-.21 2.7 2.7 0 0 1-.52-.57.64.64 0 0 0-.35-.25l-.78-.23a.1.1 0 0 0-.04 0 .1.1 0 0 0-.06.03.34.34 0 0 0-.06.1c-.04.07-.03.14.04.19l1.3.96c.11.08.23.1.36.07a.8.8 0 0 1 .28-.02c.14.02.24.09.3.21.31.64.8 1.2 1.43 1.7.1.06.16.04.2-.07Zm-2.88-.51c-.02-.04-.01-.14.03-.3a.46.46 0 0 1 .22-.3l.14-.08c.22-.12.2-.23-.03-.3l-2.06-.71a.26.26 0 0 0-.33.14c-.06.14-.05.25.02.33a6.88 6.88 0 0 0 1.73 1.47c.42.26.5.17.28-.25Zm2.5 1.1a2.95 2.95 0 0 0-.4 1.08.06.06 0 0 1-.08 0l-1.07-1.38c-.62-.79-.5-1.01.36-.68.28.1.67.38 1.17.81.05.05.06.1.02.17Zm-5.6-.67h.02l2.06.32s.02 0 .03-.02c.01 0 .02-.01.02-.03v-.02a.43.43 0 0 0-.03-.24.68.68 0 0 0-.18-.23 1.1 1.1 0 0 0-.28-.17 1.42 1.42 0 0 0-.36-.1l-.26-.04c-.25-.04-.5-.01-.7.08-.19.08-.3.22-.33.38v.02a.05.05 0 0 0 .01.05Zm6.96 1.1c.52.62 1.08 1.02 1.25.88.16-.14-.13-.76-.66-1.4-.53-.62-1.1-1.02-1.25-.88-.17.14.13.76.66 1.4Zm.71 4.91c.02 0 .06-.04.11-.11a.38.38 0 0 1 .33-.17h.2c.09 0 .13-.05.13-.14v-.28c0-.06.03-.12.07-.16.04-.04.1-.07.16-.07h.28c.3 0 .35-.1.13-.32l-1.13-1.13c-.1-.1-.2-.12-.33-.03a.27.27 0 0 0-.1.12c-.05.1-.04.22.01.35.12.28.23.57.33.86.05.15 0 .27-.12.36-.09.06-.17.05-.23-.03l-1-1.18a.4.4 0 0 1-.07-.15 2.37 2.37 0 0 0-1.58-1.73.45.45 0 0 1-.25-.22c-.6-1.1-1.27-1.6-2.04-1.5-.52.07-.55.23-.1.5l1.8 1.05c.1.06.18.15.23.27.23.5.7.98 1.4 1.4.1.07.18.17.22.3a5.47 5.47 0 0 0 1.46 2.02h.1Zm-.87-2.9c-.06.04-.11.03-.16-.02-.39-.5-.63-.88-.72-1.15-.28-.83-.07-.93.65-.32l1.28 1.07a.06.06 0 0 1 .02.03.06.06 0 0 1-.05.07c-.37.05-.7.16-1.02.33Zm2.9 1.4c-.2.08-.6-.4-.9-1.07-.29-.68-.37-1.3-.18-1.38.2-.09.6.39.89 1.07.3.67.38 1.3.18 1.38Zm1.7 2.8c.76.75.92 1.7.49 2.9a.18.18 0 0 1-.2.1h-.04a.18.18 0 0 1-.08-.07c-.37-.52-.34-1.6-.33-2.36v-.13a.47.47 0 0 0-.12-.34 3.89 3.89 0 0 1-1.01-2.68c0-.42.12-.46.36-.1.38.55.64 1.35.77 2.37.02.13.07.23.16.32Zm-1.64.84a.46.46 0 0 1 .19-.05c.17-.02.28 0 .31.02.4.3.5.23.3-.24a7.16 7.16 0 0 0-1.2-2.03c-.08-.1-.19-.12-.33-.08a.28.28 0 0 0-.2.31l.37 2.25c.04.26.15.28.31.08l.1-.13c.04-.05.09-.1.15-.13Zm-1.91-1.51h-.02a.23.23 0 0 0-.11.32l.82 1.76c.06.12.2.17.31.12l.02-.01c.12-.06.17-.2.11-.32l-.82-1.76a.23.23 0 0 0-.31-.11Zm1.92 3.62c0 .1-.06.19-.15.25a.17.17 0 0 1-.2-.02.17.17 0 0 1-.04-.06l-.2-.55c-.53-.95-.74-.88-.64.23.02.16.13.44.34.84a.36.36 0 0 0 .22.18l.66.2c.1.03.2 0 .28-.08.23-.27.4-.37.47-.32.52.32.67.2.44-.37l-.53-1.35c-.23-.58-.4-.57-.54.05-.03.18-.07.52-.11 1Zm2.1 3.45a.08.08 0 0 1-.09.06h-.04a.31.31 0 0 1-.12-.04.39.39 0 0 1-.06-.05.52.52 0 0 1-.1-.12 1.01 1.01 0 0 1-.12-.38l.01-.32.15-1.06c.03-.23.11-.43.23-.58.11-.14.25-.21.38-.2l.05.01a.08.08 0 0 1 .06.09l-.35 2.59Zm-1.91.96c-.14.16-.27.26-.4.31a.23.23 0 0 1-.16 0 .22.22 0 0 1-.12-.1l-.31-.53a.19.19 0 0 0-.19-.1.19.19 0 0 0-.15.14l-.43 1.5c-.04.1 0 .16.1.2l1.95.57c.1.03.16-.01.16-.13v-1.69c0-.46-.15-.52-.45-.17Zm1.04.77c-.24.7-.26 1.32-.05 1.4.21.07.57-.44.8-1.13.25-.7.27-1.32.06-1.4-.21-.07-.57.44-.81 1.13Zm-1.33 3.64c-.29.76-.43.74-.43-.08 0-.38.17-.91.52-1.6.06-.12.02-.2-.11-.25l-.1-.03a.5.5 0 0 0-.54.19l-.9 1.19c-.03.05-.06.04-.08-.01l-.1-.26a.1.1 0 0 1 0-.04l.01-.05c.3-.44.4-.83.33-1.16-.16-.71-.34-.7-.55.04l-.25.86a.8.8 0 0 0 .14.7c.16.21.41.39.7.48.08.03.17.17.26.44.05.14.15.24.29.3a1.7 1.7 0 0 1 .63.54.12.12 0 0 1-.05.14 5.68 5.68 0 0 0-2 2 .37.37 0 0 0-.05.28l.01.11c.01.14-.04.23-.17.29-.68.32-1.08.57-1.2.74-.63.9-.47 1.07.46.5.18-.1.5-.35.97-.75.1-.08.15-.18.16-.3.05-.36.1-.53.39-.76.6-.5 1.18-1.1 1.73-1.79.07-.08.11-.16.12-.23a.28.28 0 0 0-.04-.19.28.28 0 0 1 .03-.35c.55-.63.96-1.4 1.24-2.3.04-.17-.01-.23-.17-.2-.64.12-1.01.93-1.25 1.55Zm-2.72-.5h.05l.02.01a.4.4 0 0 1 .17.15.6.6 0 0 1 .08.24c.02.09.01.2 0 .3-.02.1-.05.2-.1.3l-.06.13c-.05.1-.1.19-.17.27a.93.93 0 0 1-.23.2.6.6 0 0 1-.24.08.4.4 0 0 1-.21-.03l-.03-.02h-.01v-.02h-.01v-.02l.74-1.57v-.01Zm-.24 2.78c.04-.02.12 0 .26.05a.4.4 0 0 1 .24.23l.05.13c.08.2.17.21.27 0l.83-1.73a.24.24 0 0 0-.09-.3c-.11-.06-.2-.07-.29-.01-.54.35-1.02.8-1.46 1.36-.26.34-.2.42.2.27Zm-2.14.52c.17-.17.25-.35.34-.53.12-.27.24-.52.62-.68.15-.06.23-.01.22.15 0 .38-.18.74-.51 1.06-.21.2-.41.28-.6.24-.17-.04-.19-.12-.07-.23Zm.45 1.43a.4.4 0 0 1 .1.13c.08.14.12.22.1.26-.1.42 0 .47.3.15.5-.53.88-1.1 1.15-1.7.04-.08.02-.18-.06-.28a.24.24 0 0 0-.32-.05l-1.61 1.12c-.2.12-.18.22.05.27l.13.03c.06.01.11.04.16.07Zm-3.19.67c-.72.6-1.38.95-1.98 1.09-.37.08-.43-.02-.17-.3a3.48 3.48 0 0 1 2.32-1.14.43.43 0 0 0 .3-.14l.08-.1c.46-.51 1.1-1.23 1.67-1.35a.17.17 0 0 1 .16.06.16.16 0 0 1 .02.17c-.44 1.05-1.14 1.58-2.1 1.6a.47.47 0 0 0-.3.1Zm1.23.29.09 1.14v.03l.03.01a.04.04 0 0 0 .03 0h.01a8 8 0 0 0 1.04-.92c.63-.66.5-.92-.39-.78-.11.02-.36.14-.73.36a.15.15 0 0 0-.08.16Zm-1.87 1.88c.86-.42 1.45-.97 1.33-1.23-.12-.25-.92-.11-1.78.31-.86.43-1.46.97-1.33 1.23.12.25.92.11 1.78-.31Zm2.07.28a.43.43 0 0 1 .24-.17 4.54 4.54 0 0 0 1.85-.9c.25-.24.21-.33-.14-.29-.82.11-1.5.5-2.06 1.14a.39.39 0 0 1-.26.14l-.11.02c-.62.07-1.5.17-1.88.53a.16.16 0 0 0-.04.15.15.15 0 0 0 .11.1c1.01.23 1.77-.02 2.29-.72Z" fill="#E6A467"/><path d="M31.7 19.32c-.03.25.07.47.23.5.15.02.31-.16.35-.4.04-.25-.06-.47-.22-.5-.16-.02-.31.16-.35.4ZM26.68 26.8c.37-.01.67-.18.67-.37 0-.2-.31-.34-.69-.34-.37.01-.67.18-.67.37.01.2.32.35.69.34ZM30.08 26.69c0 .15-.24.28-.54.27-.3 0-.54-.12-.54-.28 0-.15.25-.28.54-.28.3 0 .55.13.54.29ZM30.68 27.78c-.02.29-.08.48-.2.58-.32.3-.42.23-.31-.19l.05-.42V27.33c-.05-.43.07-.48.34-.15.1.12.14.32.12.6ZM27.3 28.18c-.19.09-.43-.05-.55-.3-.11-.25-.06-.53.13-.61.2-.09.44.04.55.3.12.25.06.52-.13.61ZM28.77 27.3a.24.24 0 0 1 .17-.08H29a.24.24 0 0 1 .18.16c.07.19 0 .38-.2.56-.12.1-.21.08-.28-.06-.1-.22-.07-.4.08-.58ZM28.62 28.75l.06-.2c.03-.11.1-.15.22-.11.29.1.47.03.56-.2.07-.16.14-.23.23-.21.03 0 .06.02.09.05.07.05.1.12.09.2-.05.73-.54 1.19-1.47 1.37-.16.03-.27-.03-.35-.18-.1-.23-.12-.43-.07-.6.05-.12.12-.16.24-.1l.17.08c.12.06.2.03.23-.1ZM25.46 29.34a.6.6 0 0 1-.1-.3l-.05-.59c0-.05-.04-.07-.09-.07h-.1l-.03.02a.06.06 0 0 0-.02.01v.04c-.1.45-.08.86.02 1.22a.85.85 0 0 0 .52.56h.02a1.01 1.01 0 0 0 .16.05.83.83 0 0 0 .58-.14c.32-.22.61-.52.87-.9a.26.26 0 0 0 .05-.14.2.2 0 0 0-.04-.16c-.06-.08-.13-.09-.21-.02l-.73.55a.6.6 0 0 1-.85-.13Z" fill="#E6A467"/><path fill-rule="evenodd" d="M30.36 33.27c.1-.08.24-.15.44-.2.17-.06.24 0 .19.18l-.14.47c-.04.14-.13.19-.27.15a6 6 0 0 1-1.6-.64c-.92-.54-1.64-.21-2.4.13-.24.11-.49.22-.74.3-.16.06-.24 0-.24-.16 0-.15.08-.3.24-.47a.72.72 0 0 0 .19-.34.77.77 0 0 0 0-.05c.01-.07 0-.14-.02-.2a.32.32 0 0 0-.1-.14c-.09-.07-.2-.06-.32.02a.44.44 0 0 0-.18.22c-.11.3-.19.5-.22.63-.05.2-.12.2-.2 0l-.74-1.89a.4.4 0 0 0-.17-.2l-1.55-.91c-.43-.25-.41-.4.06-.43l.36-.1c.26-.08.4-.22.4-.43 0-.13-.07-.2-.2-.18-.36.04-.6.08-.75.12-.45.14-.52.02-.22-.34.48-.57.83-1.16 1.07-1.74a.37.37 0 0 0 .02-.2l-.44-2.36v-.03a.3.3 0 0 1 0-.12.3.3 0 0 1 .26-.2l2.55-.2a.42.42 0 0 0 .16-.04c.04-.02.09-.06.12-.1l1.7-1.93v-.02h.02v-.01l.02-.01a.34.34 0 0 1 .2-.07.34.34 0 0 1 .26.11l.4.46v.01h.01c.43.5.84.99 1.4 1.4.37.27 1.05.26 1.7.25h.44c.17 0 .2.07.07.2-.57.59-.72.94-.44 1.06h.15c.24-.11.45-.25.62-.41a.2.2 0 0 1 .2-.05c.03 0 .06.02.09.04.04.03.06.08.05.13l-.26 1.83c-.03.16.01.3.1.43l1.55 2.04c.02.02.03.06.04.09v.03a.25.25 0 0 1 0 .07.25.25 0 0 1-.12.17l-2.3 1.34a.25.25 0 0 0-.12.14l-.41 1.3c-.15.47-.32.51-.53.13-.09-.17-.43-.27-1.01-.31-.17-.01-.22.06-.17.21.17.48.31.75.44.84.11.08.23.07.34-.02Zm.92-5.16a3.59 3.59 0 0 1-3.56 3.58 3.55 3.55 0 0 1-3.56-3.58 3.59 3.59 0 0 1 3.56-3.58 3.55 3.55 0 0 1 3.56 3.58Zm-3.49-4.63c-.24-.07-.37-.36-.29-.66.09-.3.35-.48.59-.41s.37.36.29.66c-.08.3-.34.48-.59.4Zm-3.45 1.75c-.08.16-.4.15-.7-.01-.31-.16-.5-.42-.42-.58.09-.16.4-.15.71.01.31.16.5.42.41.58Zm8.25 3.74a.17.17 0 0 1 .19-.14l.1.02c.1 0 .2.03.28.07.1.03.17.07.23.12a.56.56 0 0 1 .14.15c.03.06.04.11.04.17l-.01.05c0 .06-.04.1-.08.15a.5.5 0 0 1-.18.1.93.93 0 0 1-.25.06h-.29l-.1-.02a.16.16 0 0 1-.14-.12v-.07l.07-.54Z" fill="#E6A467"/><path fill-rule="evenodd" d="M34.53 18.97c.3.12.55.22.8.67l.98 1.04a7.99 7.99 0 0 1 2.48 3.7c.59 1.24.74 2.3.45 3.2-.28.86-.66 1.35-1.12 1.45-.12.03-.18-.02-.18-.14v-1.07a.29.29 0 0 0-.16-.27c-.58-.32-1.05-.02-1.1.61-.03.6.24 1.02.84 1.27.14.05.17.15.1.28a.53.53 0 0 1-.13.16.35.35 0 0 0-.13.31c.04.4-.15.66-.57.8-.71.23-.96.72-.74 1.48.04.14.12.25.25.35.15.11.3.14.46.07.12-.05.2-.2.27-.46.08-.33.15-.65.2-.97.18-.22.37-.18.56.11.21.34.36.95.43 1.82.08.38-.08.71-.47 1a.38.38 0 0 0-.17.3c0 .21-.1.36-.27.46a.74.74 0 0 0-.27.25c-.17.28-.38.48-.63.61l-.16.18-.16.17a8.05 8.05 0 0 1-2 1.75c-.58.32-1.1.63-1.57.95-.1.08-.21.1-.33.06a.53.53 0 0 0-.5.1c-.09.08-.2.14-.3.18-.8.26-1.6.35-2.42.27a.38.38 0 0 0-.3.11l-.24.24c-.1.1-.19.1-.29 0l-.18-.19a.47.47 0 0 0-.34-.14h-1.69a.72.72 0 0 1-.36-.1c-.26-.15-.5-.16-.73-.17-.17-.01-.34-.02-.51-.08a5.1 5.1 0 0 1-.92-.45c-.36-.23-.66-.4-.87-.5a8.84 8.84 0 0 1-3.01-2.35c-.43-.28-.66-.5-.7-.64-.1-.39-.3-.63-.5-.87-.18-.2-.34-.4-.44-.67a6.54 6.54 0 0 1-.22-.77c.58 0 1.08.4 1.51 1.16.15.27.36.33.63.2.08-.04.15-.1.2-.16.2-.27.18-.52-.03-.77-.24-.27-.25-.6-.05-1.01.12-.6.03-1.05-.29-1.33-.31-.28-.63-.31-.94-.1a.37.37 0 0 0-.15.23.37.37 0 0 0 .04.26l.53 1.02c.02.12.01.21-.04.28-.05.05-.11.08-.2.07a1.11 1.11 0 0 1-.96-.63.39.39 0 0 0-.3-.21l-.5-.05a2.07 2.07 0 0 1-.33-1.14.77.77 0 0 0-.08-.36 2.27 2.27 0 0 1-.14-1.52l-.03-2.3c0-.13.04-.24.13-.35.16-.2.21-.51.17-.93-.07-.6 1.05-2.97 1.52-3.24a.18.18 0 0 0 .1-.15c0-.06 0-.11-.02-.16-.01-.1.01-.17.08-.24l3.04-2.85a7.8 7.8 0 0 1 1.89-1.05l.48-.09a.5.5 0 0 0 .38-.25c.07-.12.16-.16.3-.12.2.06.4 0 .63-.17.1-.07.22-.1.34-.1 2.85 0 4.33-.01 4.43-.02.27-.03.49.06.7.14.2.09.4.16.62.15a.3.3 0 0 1 .3.16c.15.24.36.32.63.24a.39.39 0 0 1 .35.05c.4.3.75.47 1.06.54a.29.29 0 0 1 .22.22c.02.1.06.17.13.21.2.13.36.2.51.26Zm-.53 2.7c.23.54.67.77 1.32.72.34-.13.43-.32.28-.56a3 3 0 0 0-.94-.86 1 1 0 0 0-.35 0c-.14.02-.22.1-.24.25l-.07.46Zm2.11 2.7c.02-.24.23-.4.64-.48.27.3.44.63.53.96.07.24.03.41-.12.5-.14.1-.35.12-.62.08a1.35 1.35 0 0 1-.43-1.05Zm-.52.13a9.26 9.26 0 0 1-.37-.72c-.35-.89-.64-.86-.88.07-.18.73-.32 1.61-.43 2.65-.02.27.09.52.34.75.62.59 1.12 1.33 1.62 2.08l.13.2c.21.3.33.28.38-.09.13-1.13.07-2.27-.19-3.44a3.11 3.11 0 0 1-.6-1.5Zm1.34 9.32c-.06.36-.27.62-.65.78-.27-.1-.56-.02-.87.23-.28.3-.54.6-.78.94-.18.23-.44.22-.8-.04-.18-.76.12-1.25.92-1.45.1-.14.3-.16.58-.06.14.06.25.01.31-.12l.26-.53a.27.27 0 0 1 .28-.17c.24 0 .44.05.6.14.11.06.16.15.15.28Zm-6.3 3.86c-.32-1.14.93-1.58 1.77-1.09-.16.57-.69 1-1.58 1.3-.08.03-.12 0-.14-.08a.6.6 0 0 0-.05-.13Zm-2.99-.53c.5-.13.83.01.99.43-.05.56-.44.78-1.2.67-.37-.06-.55-.27-.53-.63.1-.21.34-.37.74-.47Zm-2.33.02c.28.36.7.57 1.28.6l.05.46a.48.48 0 0 1-.02.21.46.46 0 0 1-.43.3l-.09-.01c-.52-.1-.93-.3-1.23-.59.41-.25.1-.5-.93-.73l-.32-.13a.28.28 0 0 1-.2-.3v-.27c.41-.44.81-.56 1.21-.36.05.03.27.3.68.82Zm-2.97-1.07c.33.08.57.24.72.47-.26.65-.63.7-1.12.17a.45.45 0 0 1-.11-.33c.01-.39-.13-.58-.43-.59a3 3 0 0 0-.82-.87l-.16-.1c-.1-.05-.12-.13-.04-.23l.25-.34c.7-.14 1.18.05 1.44.59.12.24.1.46.1.7-.02.1-.02.19-.02.29 0 .13.06.2.2.24Zm-.42-16.01a5.8 5.8 0 0 1-1.53 1.6c-.13.08-.12.16.02.23l.6.3c1.24-.11 1.55-.82.9-2.13Zm-1.53 2.33-.37-.38a.44.44 0 0 0-.73.18c-.06.21-.09.43-.08.66 0 .15.05.25.14.31.1.07.24.1.4.06.32-.19.53-.46.64-.83Zm-.65 1.15c-.2-.14-.37-.11-.53.1-.3.4-.43.92-.37 1.56.07.13.2.2.38.2.47-.19.73-.54.78-1.04.01-.27-.07-.55-.26-.82Zm.73.87-.98 2.03c.13 1.15.14 2.16.02 3.04-.07.5.06.56.4.17.52-.65 1.13-1.54 1.82-2.67.06-.1.08-.21.06-.32l-.61-3.3c-.03-.13-.08-.13-.14-.01l-.57 1.06Zm-1.33 3.2c-.32-.34-.62-.43-.91-.25a.45.45 0 0 0-.04.02v.01l-.02.01a.4.4 0 0 0-.13.3v1.01c.08.05.14.07.17.08.27.2.5.26.7.2.4-.45.47-.9.23-1.38Zm19-1.96a.86.86 0 0 0-.82.28.68.68 0 0 0 .52.86.46.46 0 0 0 .38-.13c.05-.05.08-.11.1-.18.1-.27.05-.55-.17-.83Zm-8.8-8.31c-.08.91-.24 1.5-.47 1.75a.16.16 0 0 1-.25-.02.17.17 0 0 1-.03-.09l-.04-1.13c0-.12.09-.3.29-.54a.5.5 0 0 1 .27-.17c.17-.04.25.02.23.2Zm-3.23.63c-.04.5.06.9.28 1.22.04.05.03.09-.02.11l-.12.07a.17.17 0 0 1-.13.02.18.18 0 0 1-.1-.09l-.63-1.08a.33.33 0 0 1-.04-.2v-.02a.3.3 0 0 1 .03-.1.32.32 0 0 1 .11-.12.32.32 0 0 1 .13-.05h.03l.2-.02a.24.24 0 0 1 .25.16l.01.1Zm1.43 1.25c-.37.08-.73-.17-.83-.56-.1-.4.13-.78.49-.87.36-.09.73.16.82.56.1.39-.12.78-.48.87ZM30 17.9l.01-.01.02-.01a.1.1 0 0 1 .07 0l.42.15a.71.71 0 0 1 .37.34c.04.07.06.15.06.23.01.09 0 .17-.03.24l-.1.28a.57.57 0 0 1-.21.27.66.66 0 0 1-.37.12.7.7 0 0 1-.26-.05l-.41-.16a.1.1 0 0 1-.06-.13l.47-1.24a.09.09 0 0 1 0-.02H30v-.01Zm-5.28.08h-.01l-.47.2a.07.07 0 0 0-.04.04v.05l.04.08a9.44 9.44 0 0 0 .55 1.05c.09.14.17.24.23.3.07.06.12.09.16.07l.06-.03c.02 0 .04-.05.05-.11v-.05a5.58 5.58 0 0 0-.32-1.17l-.02-.04-.01-.04-.03-.06a9.19 9.19 0 0 0-.08-.19l-.03-.06V18a.07.07 0 0 0-.04-.02.07.07 0 0 0-.04 0Zm-1.21 1.25c.24.54.55.93.7.87.13-.07.05-.56-.2-1.1-.24-.54-.56-.93-.7-.86-.14.06-.05.55.2 1.1Zm9.45 2.16c-.26-.2-.44-.38-.55-.54-.12-.18-.1-.41.03-.7.1-.22.23-.53.37-.93a.26.26 0 0 0-.13-.32L32 18.6c-.13-.07-.25-.05-.35.06-.26.28-.4.55-.42.83a.4.4 0 0 0 .14.34c.14.13.27.26.38.4.04.05.05.09.05.13l-.01.05c-.05.12-.13.16-.25.13l-1.2-.33-2.19-.32c-.24-.04-.27.03-.1.2.34.33.64.64.9.93h.01l.01.01.01.01c.88.92 1.48 1.56 2.23 1.58.84.03 1.72.1 2.62.22.46.06.52-.08.18-.4l-1.06-1.03ZM17.64 27.5Zm5.14-5.93c.84-.98 3.24-1.58 4.44-1.7.38-.04.44.08.18.36l-1.81 2c-.28.3-.66.49-1.07.52l-3.08.24c-.22.02-.24-.04-.07-.18.67-.5 1.14-.91 1.41-1.24Zm8.5 14.41a.65.65 0 0 1-.22.16 8.52 8.52 0 0 1-6.36-.09.18.18 0 0 1-.04-.17l.05-.07.27-.27c.09-.1.2-.15.32-.16a6.58 6.58 0 0 0 2.02-.74c.3-.15.67-.2 1.02-.06.8.34 1.75.7 2.83 1.07a.49.49 0 0 0 .62-.28c.3-.74.54-1.62.76-2.64.07-.35.33-.78.67-.99.78-.49 1.7-.97 2.74-1.45a.17.17 0 0 1 .18.04.17.17 0 0 1 .03.2c-.16.32-.28.66-.4 1-.25.68-.5 1.37-1.04 1.97-.48.54-2.2 2.29-3.13 2.34a.46.46 0 0 0-.31.14Zm-10.86-4.17-.41-.71c-.35-.64-.2-.79.43-.43.34.2.67.34.99.47.99.43 1.79.77 2 2.23.07.56.32 1.08.53 1.54a9.48 9.48 0 0 1 .26.64.23.23 0 0 1-.02.09.23.23 0 0 1-.13.12.27.27 0 0 1-.19.01 14.72 14.72 0 0 1-2.8-2.46c-.23-.27-.33-.59-.43-.9-.07-.21-.13-.42-.23-.6Zm12.7-4.92c.12.48.78 1.3 1.28 1.9.13.16.25.3.34.43.21.27.17.5-.13.66l-2.2 1.28c-.26.15-.45.4-.54.69l-.65 2.23a.35.35 0 0 1-.43.25l-2.58-.76c-.24-.07-.5-.06-.74.03l-2.08.83c-.34.13-.57.03-.7-.31a19.8 19.8 0 0 1-.64-2.08c-.14-.6-.87-.96-1.75-1.4l-.45-.23c-.11-.05-.23-.11-.34-.18-.2-.1-.33-.26-.38-.43-.04-.18 0-.37.14-.56l.3-.44.21-.28c.59-.8 1.07-1.46.94-2.05-.17-.7-.3-1.42-.38-2.15-.04-.36.12-.56.49-.6l2.22-.21c.25-.03.5-.13.67-.3l1.96-1.87a.35.35 0 0 1 .5.02l1.59 1.69c.2.22.48.35.78.37l2.55.13c.34.01.47.2.4.53l-.1.52c-.17.77-.4 1.81-.27 2.29Z" fill="#E6A467"/><path d="M38.76 32.4a7.8 7.8 0 0 0 .67-3.55c-.4 0-.76.24-1.04.73a.56.56 0 0 0-.06.35c.05.34 0 .68-.14 1a.53.53 0 0 0-.02.36c.13.45.33.81.59 1.1Z" fill="#E6A467"/></svg>