<!-- by TradingView --><svg width="18" height="18" viewBox="0 0 18 18" xmlns="http://www.w3.org/2000/svg"><path fill="#F0F3FA" d="M0 0h18v18H0z"/><path d="M3 7v4h.49V9l.7 2h.48l-.73-2.07L4.63 7h-.49L3.5 8.84V7H3Zm3 4h.5l.15-2.57.48 2.57h.38l.5-2.57.11 2.57h.55l-.35-4h-.46L7.3 9.76 6.78 7H6.3L6 11Zm4 0V7h.5v3.53h1.12V11H10Zm5-2c0 1.7-.35 2-1 2s-1-.4-1-2c0-1.68.45-2 1-2 .56 0 .81.27.92.81l-.46.2c-.06-.33-.18-.5-.42-.5-.27 0-.48.24-.48 1.49 0 1.2.17 1.49.48 1.49.27 0 .43-.18.47-1.12H14V8.9h1V9Z" fill="#2E066E"/><path fill="#C52128" d="M2 11.8h14v.2H2z"/></svg>