<!-- by TradingView --><svg width="56" height="56" viewBox="0 0 56 56" xmlns="http://www.w3.org/2000/svg"><path fill="#F0F3FA" d="M0 0h56v56H0z"/><path d="M39.28 15.43c-11.57-9.13-19.43-1.61-21.92 3.29-.45 2.35-1.33 7.1-1.3 7.34.03.24 1.25.8 1.86 1.04l7.93-8.38c1.67-3.22 4.42-4.55 7.05-4.55 2.11 0 5.13 1.43 6.38 2.15v-.9Z" fill="#094EA4"/><path d="M26.49 18.09a13.7 13.7 0 0 0-10.02 2.25 58.83 58.83 0 0 0-1.11 5.58c0 .8.59 1.62.78 1.51.14-.09 6.96-6.27 10.35-9.34Z" fill="#1E3E89"/><path d="M24.95 41.98c-4.51-2.5-7.43-5.6-8.33-6.94l-.3-1.26 2.23-4.24a445.59 445.59 0 0 0 6.4 12.44Z" fill="#2C6498"/><path d="M11 30.73c0 6.51 4.46 10.54 6.7 11.74-1.37-.92-3.63-5.25-3.63-10.15s1.54-9.78 2.54-12.25c-1.87.84-5.61 4.15-5.61 10.66Z" fill="#2385C6"/><path d="M17.55 36.24c.37 5.97 5.94 8.32 8.68 8.75-4.34.15-12.94-2.2-12.63-12.78 0-1.8.47-2.63.66-2.99.29.2 2.31 3.3 3.29 4.83v2.2Z" fill="#00469B"/><path d="M40 20.61C40 21.7 38.57 22 37.86 22A2.87 2.87 0 0 1 35 19.55S34.94 18 36.86 18c1.91 0 3.14 1.26 3.14 2.61Z" fill="url(#antvw5ftt)"/><path d="M32.33 44a9.34 9.34 0 0 0 7.8-4.38C30.58 41.08 23.5 34.46 24.03 25a14.52 14.52 0 0 0-5.51 8.17C20.19 40.6 27.04 44 32.32 44Z" fill="url(#bntvw5ftt)"/><path d="M24.38 26.16c-4.77 2.68-6.52 7.81-6.8 10.05-2.92-2.05-3.87-8.27-3.98-11.13C13.4 14.64 23.6 11 26.48 11c2.32 0 4.02.34 4.49.61-9.81-.57-13.35 7.44-13.9 11.53.61-.7 2.18-2.35 3.62-3.39 3.77-2.88 11.22-1.98 11.22 1.4 0 3.39-1.56 1.66-7.53 5.01Z" fill="#25337E"/><path d="M14.54 24.07c0 4.12 1.55 8.08 2.32 9.54-.2-1.39-.58-4.76-.58-7.13a15.46 15.46 0 0 1 7.16-14.11c-4.52 1.47-8.9 6.55-8.9 11.7Z" fill="url(#cntvw5ftt)"/><path d="M42.26 33.05c0 3.2-1.69 6.07-2.53 7.11l-.9 1.06C43.25 38.66 45 32.6 45 30.32c0-2.3-.24-4.6-1.07-5.92-.83-1.33-2.28-2.18-3.63-1.06-1.08.9-.6 2.3-.23 2.88.73.95 2.19 3.63 2.19 6.83Z" fill="url(#dntvw5ftt)"/><defs><linearGradient id="antvw5ftt" x1="35" y1="19.06" x2="39.69" y2="19.96" gradientUnits="userSpaceOnUse"><stop stop-color="#10499A"/><stop offset="1" stop-color="#000054"/></linearGradient><linearGradient id="bntvw5ftt" x1="19.19" y1="28.95" x2="25.22" y2="39.17" gradientUnits="userSpaceOnUse"><stop stop-color="#2DC9F6"/><stop offset="1" stop-color="#2385C6"/></linearGradient><linearGradient id="cntvw5ftt" x1="15.2" y1="22.99" x2="18.96" y2="33.63" gradientUnits="userSpaceOnUse"><stop stop-color="#176AAE"/><stop offset=".22" stop-color="#0E559D"/></linearGradient><linearGradient id="dntvw5ftt" x1="38.02" y1="24.72" x2="41.88" y2="41.23" gradientUnits="userSpaceOnUse"><stop stop-color="#00469E"/><stop offset=".79" stop-color="#000054"/></linearGradient></defs></svg>