<!-- by TradingView --><svg width="56" height="56" viewBox="0 0 56 56" fill="none" xmlns="http://www.w3.org/2000/svg">
<rect width="56" height="56" fill="#F0F3FA"/>
<path fill-rule="evenodd" clip-rule="evenodd" d="M13.2146 19.3367C13.0223 19.6021 12.8484 19.9081 13.213 20.1113C16.027 21.6803 17.4969 24.4858 17.8455 27.7358C18.2623 31.6243 16.907 35.8885 13.4623 37.878C13.0856 38.0961 12.8692 38.247 13.1137 38.7073C13.8088 40.0137 14.4973 41.3234 15.179 42.6364C15.4042 43.0693 16.0078 43.2012 16.0334 42.5435C16.1384 39.8865 18.9916 39.3889 20.952 39.7779C23.0973 40.2036 24.8998 41.2485 26.3595 42.9126C26.407 42.9673 26.4546 42.9947 26.5022 42.9947H29.4387C29.622 42.9947 29.8123 42.7601 29.9616 42.576C30.0154 42.5097 30.0638 42.45 30.1047 42.41C31.9898 40.5591 35.0249 39.1526 37.6345 39.8409C39.0138 40.2049 39.9291 41.0276 39.9796 42.5734C39.9868 42.7948 40.0429 42.9333 40.2553 42.9814C40.5952 43.0581 40.6836 42.89 40.8284 42.6146C40.8417 42.5893 40.8555 42.5631 40.87 42.5361C41.554 41.259 42.2341 39.9794 42.9106 38.6973C43.0973 38.3432 42.9747 38.1118 42.6405 37.9344C40.4958 36.7941 39.1236 34.6512 38.4873 32.2537C37.3452 27.9497 38.5362 22.454 42.6381 20.2083C42.9907 20.0151 43.1254 19.7995 42.8617 19.4329C41.9822 18.2155 41.1011 16.9978 40.2185 15.7799C39.9748 15.4432 39.623 15.4639 39.2375 15.59C37.4245 16.1838 34.9023 16.0942 33.4573 14.6123C32.893 14.0329 32.7311 13.3567 32.9716 12.5838C33.091 12.199 32.9475 12.0008 32.5524 12.0008C29.5004 11.9997 26.4485 11.9997 23.3965 12.0008C23.039 12.0008 22.9813 12.2828 23.0743 12.5905C23.3153 13.3833 23.1347 14.0713 22.5325 14.6546C21.057 16.0826 18.6277 16.1987 16.7956 15.5875C16.1014 15.3556 15.9413 15.5763 15.5385 16.1316C15.5278 16.1463 15.517 16.1612 15.506 16.1763C14.7409 17.2306 13.9771 18.2841 13.2146 19.3367ZM14.0097 38.5497C20.3148 34.8005 20.3261 23.4317 14.073 19.6378C14.0639 19.6322 14.0583 19.6292 14.0562 19.6286C14.0519 19.6272 14.0482 19.6245 14.0453 19.6208C14.0424 19.6172 14.0404 19.6127 14.0396 19.6076C14.0387 19.6026 14.039 19.5972 14.0403 19.5919C14.0417 19.5866 14.0441 19.5816 14.0474 19.5772L16.3772 16.3704C16.3949 16.346 16.4176 16.3388 16.4453 16.3488C18.5764 17.1092 21.2453 16.9227 23.0174 15.3412C23.7339 14.7021 24.0529 13.8736 23.9743 12.8558C23.9717 12.8243 23.9855 12.8086 24.016 12.8086H32.0066C32.0339 12.8086 32.0464 12.8227 32.0443 12.8509C31.86 15.3172 34.2531 16.4815 36.2608 16.7269C37.3952 16.8657 38.4974 16.7394 39.5677 16.348C39.5767 16.3445 39.5866 16.3442 39.5958 16.3471C39.6051 16.3499 39.6132 16.3557 39.6189 16.3637L41.9496 19.5656C41.9534 19.5706 41.956 19.5764 41.9574 19.5826C41.9588 19.5888 41.9589 19.5952 41.9577 19.6015C41.9565 19.6078 41.954 19.6137 41.9504 19.619C41.9468 19.6242 41.9422 19.6286 41.9368 19.6319C37.6385 22.2558 36.4556 28.1239 37.7676 32.7521C38.4488 35.1546 39.881 37.3339 41.9969 38.558C42.0247 38.574 42.0308 38.5964 42.0153 38.6252L40.6144 41.2432C40.5973 41.2753 40.5818 41.2745 40.5679 41.2407C39.4771 38.5837 36.244 38.4651 33.9374 39.1833C32.0496 39.7715 30.4734 40.7581 29.2087 42.143C29.1948 42.1579 29.178 42.1654 29.1582 42.1654H26.8235C26.8117 42.1654 26.7998 42.1628 26.7888 42.1578C26.7778 42.1529 26.7678 42.1455 26.7594 42.1364C24.5201 39.7099 20.7725 37.9501 17.4704 39.2057C16.5343 39.5617 15.8555 40.232 15.4339 41.2167C15.4168 41.257 15.3981 41.2579 15.3778 41.2192L13.9937 38.6077C13.9808 38.5834 13.9862 38.5641 14.0097 38.5497ZM21.2037 37.1125C19.9742 36.9317 18.9243 36.9798 17.6908 37.3489C17.6401 37.3644 17.6318 37.3508 17.666 37.3082C21.7102 32.3101 21.3888 23.9791 16.5375 19.5971C16.5151 19.5772 16.5127 19.5551 16.5303 19.5308L17.3037 18.4519C17.3315 18.4132 17.3684 18.3985 17.4143 18.4079C18.444 18.6246 19.4477 18.6564 20.4255 18.5033C22.6944 18.1483 24.9305 16.9732 25.4466 14.4655C25.5733 13.8485 24.7662 13.7125 24.65 14.3369C24.42 15.5742 23.5063 16.4997 22.4195 17.0205C20.7813 17.8061 19.0867 17.9695 17.3358 17.5106C17.1472 17.4609 16.9976 17.5048 16.887 17.6425C16.5541 18.0582 16.1403 18.6183 15.6455 19.3226C15.3472 19.7486 15.7501 20.0649 16.0947 20.3353C16.1935 20.4129 16.2875 20.4867 16.3588 20.5583C19.4493 23.6689 20.3052 28.5045 19.1319 32.6858C18.5348 34.8154 17.3711 36.7725 15.6351 38.1052C15.2191 38.4245 15.3393 38.7321 15.6078 39.1186C15.7783 39.3624 15.9803 39.3862 16.2137 39.1899C19.4236 36.4939 24.3246 38.2254 26.9366 40.9297C26.9895 40.9853 27.1089 41.0483 27.1834 41.0508C27.2372 41.0531 27.3021 41.0566 27.375 41.0606C27.9078 41.0895 28.8713 41.1418 29.1053 40.9098C31.0922 38.9353 33.8019 37.7561 36.5558 37.8614C36.9154 37.8752 37.3121 37.9404 37.7459 38.0571C38.0826 38.1483 38.5458 38.0098 38.3735 37.5404C38.2236 37.1341 36.7818 37.0097 36.2793 37.008C33.4381 36.9989 30.6938 38.2229 28.6229 40.2174C28.6025 40.2367 28.5788 40.247 28.5515 40.2481C28.5149 40.2502 28.4735 40.2532 28.4286 40.2565C28.0799 40.2818 27.5163 40.3226 27.3004 40.1162C25.639 38.5289 23.467 37.4442 21.2037 37.1125Z" fill="black"/>
</svg>
