<!-- by TradingView --><svg width="18" height="18" viewBox="0 0 18 18" fill="none" xmlns="http://www.w3.org/2000/svg">
<rect width="18" height="18" fill="#F0F3FA"/>
<path fill-rule="evenodd" clip-rule="evenodd" d="M7.61546 4.69479C7.79914 5.91156 7.80262 7.1295 7.62591 8.34858C7.61982 8.39162 7.5924 8.41392 7.54365 8.41545C5.15939 8.48463 4.09783 9.92009 4.00251 11.8802C3.94767 12.9974 4.7964 13.7169 5.94674 13.9786C6.39999 14.0816 6.6572 13.7945 6.91142 13.5108C7.20062 13.188 7.48594 12.8695 8.05158 13.1346C8.22541 13.2161 8.36064 13.3828 8.49443 13.5476C8.71641 13.8211 8.93442 14.0898 9.31813 13.9567C9.62541 13.8498 9.971 13.6546 10.3549 13.371C11.8817 12.2395 13.0621 10.8778 13.896 9.28595C14.336 8.44543 13.2784 7.45617 12.602 6.99959C12.5489 6.96424 12.4998 6.96769 12.4545 7.00997L11.5366 7.86894C11.5051 7.89814 11.4647 7.91861 11.4203 7.92787C11.3759 7.93713 11.3294 7.93477 11.2864 7.92107C11.2435 7.90738 11.206 7.88295 11.1786 7.85076C11.1511 7.81857 11.1349 7.78002 11.1318 7.73981C11.0587 6.68521 11.4839 5.85084 12.4075 5.23669C12.4134 5.23264 12.4183 5.22759 12.422 5.22184C12.4256 5.2161 12.4279 5.20976 12.4288 5.20322C12.4296 5.19667 12.429 5.19003 12.4269 5.1837C12.4248 5.17737 12.4213 5.17148 12.4166 5.16635L11.3381 4.02952C11.3155 4.00492 11.2863 3.9957 11.2506 4.00184L7.66639 4.63253C7.65037 4.63536 7.63617 4.64339 7.6267 4.65497C7.61723 4.66655 7.61321 4.68079 7.61546 4.69479ZM8.10903 4.9715L10.6356 4.49301C10.6443 4.49159 10.6532 4.49249 10.6613 4.49558C10.6694 4.49868 10.6763 4.50383 10.6811 4.51039C10.6858 4.51695 10.6883 4.52461 10.6881 4.5324C10.6879 4.54019 10.6851 4.54775 10.68 4.55412C10.2413 5.07681 9.95185 5.66521 9.8117 6.31933C9.75668 6.57859 9.73403 6.86584 9.71083 7.16003C9.67676 7.59197 9.64152 8.03884 9.50093 8.4339C9.38951 8.74674 9.25589 9.04959 9.10008 9.34245C9.09554 9.35053 9.0886 9.35736 9.08 9.36222C9.07139 9.36707 9.06145 9.36976 9.05124 9.37C9.04104 9.37023 9.03095 9.36801 9.02207 9.36356C9.01319 9.35911 9.00585 9.35261 9.00084 9.34475C8.78496 8.99655 8.48638 8.71715 8.10511 8.50654C8.06681 8.48502 8.05201 8.45465 8.06072 8.41545C8.35712 7.06993 8.33361 6.43117 8.04635 5.05336C8.03765 5.00878 8.05854 4.98149 8.10903 4.9715ZM9.60017 11.027C9.74511 11.276 10.2139 11.2529 10.4933 11.0754C11.0208 10.7395 11.1932 10.3163 11.0104 9.80595C10.9417 9.6111 10.7659 9.45435 10.5943 9.30124C10.5506 9.26228 10.5072 9.22355 10.4659 9.18449C10.4536 9.1732 10.447 9.15796 10.4475 9.14202C10.448 9.12608 10.4555 9.1107 10.4685 9.09917L12.448 7.33626C12.4837 7.30398 12.5211 7.30244 12.5603 7.33165C13.0186 7.67178 13.0342 8.51461 12.8423 8.97004C12.5193 9.73177 12.0001 10.4927 11.2846 11.2529C10.8158 11.7522 9.32074 13.2165 8.60782 12.5097C8.40151 12.306 8.19346 12.1042 7.98368 11.9044C7.60391 11.5439 7.00543 11.9171 6.40168 12.2935C5.9509 12.5746 5.49718 12.8575 5.12936 12.8383C3.99468 12.7783 4.45299 11.0592 4.71805 10.4816C5.18898 9.45852 6.04728 8.8582 7.29295 8.68064C8.20291 8.55161 9.03721 10.0307 9.48023 10.816C9.52416 10.8939 9.56424 10.965 9.60017 11.027ZM7.09056 11.0373C6.91298 10.6442 6.03161 9.71024 5.45056 10.1161C4.97789 10.4447 5.21684 11.1538 5.67254 11.3532C6.0747 11.5285 6.57349 11.4755 6.97565 11.3025C7.10623 11.2456 7.14453 11.1572 7.09056 11.0373Z" fill="black"/>
</svg>
