<!-- by TradingView --><svg xmlns="http://www.w3.org/2000/svg" width="18" height="18"><path fill="#F0F3FA" d="M0 0h18v18H0z"/><path d="M11.47 13.97a3.49 3.49 0 01-4.94 0l-2.5-2.5a3.49 3.49 0 010-4.94l2.5-2.5a3.49 3.49 0 014.94 0l2.5 2.5a3.49 3.49 0 010 4.94l-2.5 2.5z" fill="#ED1D24"/><path d="M7.59 12.53a.38.38 0 01-.35-.35c0-.12.05-.18.11-.24a.45.45 0 01.24-.12c.17 0 .35.18.35.36 0 .17-.18.35-.35.35z" fill="#fff"/><path d="M8.84 5.82c-.18 0-.37.11-.5.23-.3.3-.4.76-.4 1.54 0 1.19.24 4.42 2.01 4.42.67 0 1.25-.7 1.6-1.2a.34.34 0 01.32-.17c.06 0 .12 0 .18.06s.13.12.13.18 0 .17-.07.23c-.88 1.33-2.6 2.12-3.76.62-1.11-1.37-1.11-3.55-1.11-3.79 0-.65.06-1.89.61-2.42.25-.24.62-.4 1-.4h.05c.37 0 .74.16 1 .4.55.53.57 1.43.51 2.14 0 .71-.15 2.53-.83 3.28a.34.34 0 01-.3.17c-.07 0-.13 0-.2-.06-.18-.11-.18-.3-.12-.47.56-.84.8-1.79.8-2.98 0-.77-.12-1.37-.42-1.6-.07-.07-.19-.18-.5-.18z" fill="#F0F3FA"/></svg>