<!-- by TradingView --><svg width="56" height="56" viewBox="0 0 56 56" xmlns="http://www.w3.org/2000/svg"><path fill="#F0F3FA" d="M0 0h56v56H0z"/><path fill-rule="evenodd" d="M16.36 12A4.36 4.36 0 0 0 12 16.36v23.28c0 2.4 1.95 4.36 4.36 4.36h23.28c2.4 0 4.36-1.95 4.36-4.36V16.36c0-2.4-1.95-4.36-4.36-4.36H16.36Zm.93 1A4.29 4.29 0 0 0 13 17.29V38.7a4.29 4.29 0 0 0 4.29 4.3H38.7a4.29 4.29 0 0 0 4.3-4.29V17.3a4.29 4.29 0 0 0-4.29-4.3H17.3Z" fill="#FF5142"/><path fill-rule="evenodd" d="M18.2 14H27v15h15v8.8a4.2 4.2 0 0 1-4.2 4.2H18.2a4.2 4.2 0 0 1-4.2-4.2V18.2a4.2 4.2 0 0 1 4.2-4.2ZM42 27v-8.8a4.2 4.2 0 0 0-4.2-4.2H29v13h13ZM21 38.59V39h-3v-5h.43v4.59H21Zm3.97-4.18V34H22v5h3v-.41h-2.6v-1.97h2.41v-.41h-2.4v-1.8h2.56Zm1.4-.41v5H26v-5h.37ZM31 39v-5h-.35v3.12c0 .58.02 1.02.03 1.32-.13-.3-.3-.65-.5-1.05L28.4 34H28v5h.35v-3.58l-.03-.85c.07.19.24.54.5 1.07L30.6 39h.4Zm3.97-5v.41h-2.56v1.8h2.4v.4h-2.4v1.98H35V39h-3v-5h2.97Zm2.7 0H36v5h.36v-2.23h1.11c.24 0 .42.02.55.07.21.08.35.28.4.6.04.18.06.47.08.87 0 .36.04.59.1.69h.4c-.08-.12-.13-.4-.16-.85l-.03-.66a1.36 1.36 0 0 0-.17-.57.71.71 0 0 0-.49-.33c.16-.06.3-.14.4-.25.23-.24.35-.57.35-1 0-.5-.15-.87-.45-1.11a1.22 1.22 0 0 0-.78-.23Zm-1.3 2.38v-1.97h1.18c.28 0 .49.05.63.14.24.17.36.44.36.83 0 .38-.11.65-.33.82-.16.12-.42.18-.78.18h-1.07Z" fill="#FF5142"/></svg>