<!-- by TradingView --><svg width="56" height="56" viewBox="0 0 56 56" xmlns="http://www.w3.org/2000/svg"><path fill="#F0F3FA" d="M0 0h56v56H0z"/><path d="M20.43 36h4.76c.57 0 .96-.54.75-1.03l-3.83-13.5a.82.82 0 0 0-.75-.47H16.8c-.54 0-.93.49-.78.96l.05.14 3.57 13.36.05.13c.14.25.42.41.73.41ZM29.66 36h4.56c.52 0 .88-.48.75-.94l-.05-.18-2.84-13.32a.6.6 0 0 0-.06-.17.78.78 0 0 0-.68-.39h-4.56c-.52 0-.88.48-.75.94l.05.18 2.84 13.32a.6.6 0 0 0 .06.17c.14.24.4.39.68.39ZM40.41 36h4.77c.58 0 .98-.54.76-1.03l-4.6-13.5a.82.82 0 0 0-.75-.47h-4.77c-.58 0-.98.54-.76 1.03l4.6 13.5c.12.28.42.47.75.47Z" fill="#44CCF9"/><path d="M15.46 36H10.8c-.57 0-.95-.54-.74-1.03l5.74-13.5a.8.8 0 0 1 .74-.47h4.66c.57 0 .95.54.74 1.03l-5.74 13.5a.8.8 0 0 1-.74.47Z" fill="url(#a)"/><path d="M23.69 41h-4.86c-.59 0-.99-.53-.77-1.02l10.48-24.51a.84.84 0 0 1 .77-.47h4.86c.59 0 .99.53.77 1.02L24.46 40.53a.84.84 0 0 1-.77.47Z" fill="url(#b)"/><path d="M34.46 36H29.8c-.57 0-.95-.54-.74-1.03l5.74-13.5a.8.8 0 0 1 .74-.47h4.66c.57 0 .95.54.74 1.03l-5.74 13.5a.8.8 0 0 1-.74.47Z" fill="url(#c)"/><defs><linearGradient id="a" x1="18.79" y1="21" x2="14.15" y2="36.17" gradientUnits="userSpaceOnUse"><stop stop-color="#0B1153"/><stop offset="1" stop-color="#36BBF0"/></linearGradient><linearGradient id="b" x1="31.66" y1="15" x2="27.28" y2="30.1" gradientUnits="userSpaceOnUse"><stop stop-color="#0B1153"/><stop offset="1" stop-color="#36BBF0"/></linearGradient><linearGradient id="c" x1="37.79" y1="21" x2="33.16" y2="36.17" gradientUnits="userSpaceOnUse"><stop stop-color="#0B1153"/><stop offset="1" stop-color="#36BBF0"/></linearGradient></defs></svg>