<!-- by TradingView --><svg width="56" height="56" viewBox="0 0 56 56" xmlns="http://www.w3.org/2000/svg"><path fill="#F0F3FA" d="M0 0h56v56H0z"/><path fill-rule="evenodd" d="M41 16a1 1 0 0 0-1-1H27a1 1 0 0 0-1 1v13a1 1 0 0 0 1 1h13a1 1 0 0 0 1-1V16Zm-15-3a2 2 0 0 0-2 2v15c0 1.1.9 2 2 2h15a2 2 0 0 0 2-2V15a2 2 0 0 0-2-2H26Z" fill="#41C67F"/><path fill-rule="evenodd" d="M30 27a1 1 0 0 0-1-1H16a1 1 0 0 0-1 1v13a1 1 0 0 0 1 1h13a1 1 0 0 0 1-1V27Zm-15-3a2 2 0 0 0-2 2v15c0 1.1.9 2 2 2h15a2 2 0 0 0 2-2V26a2 2 0 0 0-2-2H15Z" fill="#06934F"/></svg>