<!-- by TradingView --><svg width="18" height="18" viewBox="0 0 18 18" fill="none" xmlns="http://www.w3.org/2000/svg">
<rect width="18" height="18" fill="#F0F3FA"/>
<path d="M13.9952 10.956C13.9196 11.0184 13.8433 11.0788 13.7662 11.1372C12.4907 12.1052 11.1457 12.9096 9.71345 13.624C9.7092 13.6261 9.7045 13.6271 9.69978 13.627C9.69505 13.6269 9.69043 13.6256 9.68631 13.6233C7.81864 12.5832 6.00971 11.4494 4.2595 10.2219C4.25453 10.2184 4.25052 10.2137 4.24784 10.2082C4.24516 10.2027 4.2439 10.1967 4.24418 10.1906C4.30743 8.58059 4.51492 6.97585 4.93449 5.4186C4.9358 5.41393 4.93252 5.40795 4.92464 5.40065C4.9331 5.40445 4.93777 5.40306 4.93864 5.3965C4.94258 5.36177 4.96228 5.3358 4.99774 5.31858C6.35537 4.66001 7.80449 4.20892 9.29323 4.00165C9.32256 3.99756 9.35101 4.00107 9.37858 4.01216C10.8294 4.5923 12.145 5.40073 13.3254 6.43743C13.3574 6.46545 13.3787 6.49675 13.3893 6.53133C13.8346 7.97075 14.0366 9.44563 13.9952 10.956ZM6.24134 5.78936C6.22296 5.85123 6.21172 5.9182 6.20764 5.99028C6.06515 7.0855 5.96053 8.18269 5.9045 9.29103C5.90378 9.30694 5.91012 9.31905 5.92355 9.32737L9.79947 11.7491C9.80515 11.7527 9.81166 11.7547 9.81836 11.755C9.82507 11.7553 9.83175 11.7539 9.83777 11.7509C10.859 11.2361 11.8617 10.6831 12.8459 10.0919C12.8527 10.0878 12.8594 10.0783 12.8658 10.0634C12.8659 10.0658 12.8663 10.0678 12.8669 10.0695C12.8686 10.0747 12.8719 10.0757 12.8765 10.0728L13.0028 9.99119C13.0415 9.98083 13.0604 9.95946 13.0595 9.92706C13.0286 8.80894 12.8843 7.70796 12.6268 6.62413C12.6244 6.61406 12.6186 6.60504 12.6104 6.59852C11.671 5.8602 10.6591 5.23643 9.57469 4.7272C9.53617 4.70903 9.52041 4.70969 9.48036 4.71801C8.36837 4.94986 7.29745 5.28721 6.26761 5.73005C6.24324 5.74056 6.23448 5.76033 6.24134 5.78936Z" fill="#84091D"/>
<path d="M12.5768 6.74759C12.4991 6.75065 12.5142 6.85002 12.4511 6.84564C11.4919 6.09697 10.4594 5.46313 9.35352 4.94412C9.36271 4.9447 9.36395 4.93558 9.35724 4.91676C9.35597 4.91325 9.35584 4.90943 9.35686 4.90582C9.35788 4.90221 9.36 4.899 9.36293 4.89662C9.39941 4.86788 9.42538 4.83497 9.44084 4.79791C9.4585 4.78536 9.47513 4.78274 9.49075 4.79003C10.5736 5.29445 11.5846 5.91545 12.524 6.65304C12.559 6.68062 12.5671 6.70644 12.5768 6.74759Z" fill="#C07510"/>
<path d="M9.44036 4.79777C9.42489 4.83483 9.39892 4.86773 9.36244 4.89648C9.35951 4.89885 9.35739 4.90207 9.35637 4.90567C9.35535 4.90928 9.35548 4.9131 9.35675 4.91661C9.36346 4.93543 9.36222 4.94455 9.35303 4.94397C9.31188 4.93667 9.27365 4.94346 9.23834 4.96432C9.23219 4.9679 9.22515 4.96972 9.21799 4.96958C9.19413 4.96936 9.17203 4.9687 9.14817 4.97439C8.16064 5.20683 7.21798 5.52091 6.26153 5.92034C6.25496 5.92305 6.24933 5.92762 6.24533 5.93347L6.20703 5.99016C6.21112 5.91808 6.22235 5.8511 6.24074 5.78924C7.26898 5.35252 8.32669 5.02094 9.41387 4.79448C9.42029 4.79317 9.42912 4.79426 9.44036 4.79777Z" fill="#D79F14"/>
<path d="M9.43936 5.07996C9.51407 5.11439 9.5674 5.14007 9.59935 5.157C10.2803 5.51988 10.9397 5.91859 11.5775 6.35311C11.5665 6.36821 11.558 6.38397 11.5411 6.39273C10.8095 6.77458 10.0884 7.19145 9.37764 7.64334L9.37677 5.7092C9.37677 5.70546 9.37597 5.70177 9.37443 5.69836C9.37288 5.69496 9.37061 5.69193 9.36779 5.68948C9.36496 5.68703 9.36165 5.68522 9.35806 5.68416C9.35447 5.68311 9.3507 5.68284 9.347 5.68338C9.09413 5.71942 8.84441 5.7583 8.59782 5.80003C8.54988 5.80813 8.53478 5.83439 8.53041 5.87926C8.52968 5.88656 8.53267 5.89152 8.53938 5.89415C8.7206 5.96593 8.85674 6.05392 8.85696 6.27191C8.8571 6.85147 8.85688 7.42564 8.8563 7.9944C8.41827 8.29454 7.99367 8.60709 7.58249 8.93203C7.52719 8.97566 7.47379 9.02162 7.42228 9.06992C7.41732 9.07459 7.41148 9.07729 7.40477 9.07802C7.39281 9.07933 7.38405 9.0851 7.37851 9.09531L6.75583 8.72126C6.74985 8.71762 6.74693 8.71222 6.74708 8.70507C6.7613 8.20101 6.78625 7.69696 6.80114 7.19269C6.81339 6.77655 6.83229 6.36157 6.85782 5.94777C6.85808 5.94321 6.85967 5.93882 6.86239 5.93514C6.86511 5.93145 6.86884 5.92861 6.87314 5.92698C7.46737 5.70789 8.06225 5.48793 8.66785 5.30758C8.73089 5.3032 8.80516 5.28781 8.89066 5.2614C8.91795 5.25308 8.93371 5.24141 8.93794 5.22638L9.38202 5.10556C9.40726 5.10542 9.42638 5.09688 9.43936 5.07996Z" fill="#C07510"/>
<path d="M8.93805 5.22632C8.93382 5.24132 8.91806 5.25296 8.89078 5.26126C8.80527 5.28762 8.731 5.30298 8.66797 5.30735L8.93805 5.22632Z" fill="#D79F14"/>
<path d="M4.93823 5.39649C4.93736 5.40305 4.93269 5.40444 4.92423 5.40064C4.90832 5.41115 4.89679 5.4299 4.88965 5.45689C4.46636 7.03756 4.25668 8.65871 4.18927 10.2845C4.13353 10.3471 4.09144 10.4213 4.06298 10.5071C4.05817 10.5216 4.03913 10.5303 4.00586 10.5331C4.0481 8.87824 4.26128 7.20871 4.6977 5.60988C4.71893 5.53197 4.83033 5.44026 4.88746 5.3816C4.89286 5.37591 4.89818 5.37606 4.90343 5.38204C4.91409 5.39473 4.92569 5.39955 4.93823 5.39649Z" fill="#690305"/>
<path d="M6.68081 8.79954L6.67009 8.79976C6.66673 8.79975 6.66344 8.80069 6.66058 8.80247C6.65772 8.80425 6.6554 8.8068 6.65389 8.80983C6.58954 8.94174 6.50309 9.06168 6.39453 9.16965C6.41729 8.47511 6.45384 7.62955 6.50418 6.63297C6.51294 6.45977 6.51943 6.34581 6.52366 6.2911C6.52423 6.28341 6.52721 6.27607 6.5322 6.27009L6.77405 5.97965C6.77537 5.97797 6.7772 5.97676 6.77926 5.97619C6.78132 5.97562 6.7835 5.97573 6.7855 5.97648C6.7875 5.97724 6.78921 5.97861 6.79037 5.9804C6.79154 5.98219 6.79211 5.9843 6.79199 5.98643L6.68081 8.79954Z" fill="#690305"/>
<path d="M11.5769 6.35303L12.0407 6.66995C12.0468 6.67418 12.0505 6.68002 12.0518 6.68746C12.196 7.56205 12.2949 8.44176 12.3484 9.32657C12.3497 9.35021 12.3268 9.37282 12.2797 9.39442C12.2819 9.38763 12.2646 9.39092 12.2604 9.3931C11.4839 9.77773 10.7058 10.1589 9.9262 10.5365C9.89541 10.5515 9.87345 10.5692 9.86032 10.5894C9.79539 10.6061 9.73404 10.5914 9.67625 10.5454C9.60213 10.4868 9.52436 10.435 9.44294 10.39C9.43711 10.3556 9.41485 10.3399 9.37619 10.3428C8.7174 9.91554 8.05131 9.49969 7.37793 9.09523C7.38347 9.08501 7.39223 9.07925 7.40419 9.07793C7.41091 9.0772 7.41674 9.07451 7.4217 9.06984C7.47321 9.02154 7.52661 8.97558 7.58191 8.93195C7.99309 8.607 8.4177 8.29446 8.85572 7.99432L8.85682 9.55529C8.85682 9.56229 8.86032 9.56579 8.86732 9.56579H11.0337C11.0388 9.5658 11.0437 9.56384 11.0474 9.56032C11.051 9.55681 11.0532 9.55202 11.0534 9.54697L11.0783 8.74657C11.0909 8.73956 11.0921 8.72767 11.082 8.71089C11.0803 8.70785 11.0777 8.70533 11.0747 8.7036C11.0716 8.70186 11.0682 8.70098 11.0647 8.70104L10.9148 8.70192C10.9124 8.70193 10.9101 8.70245 10.9079 8.70345C10.9057 8.70445 10.9038 8.70592 10.9022 8.70774C10.9006 8.70956 10.8995 8.7117 10.8988 8.71402C10.8981 8.71634 10.8979 8.71878 10.8982 8.72118L10.8999 8.733C10.8922 8.74117 10.8875 8.75773 10.8859 8.78268C10.8656 9.10354 10.7861 9.34649 10.4103 9.3467C10.3101 9.34692 9.57733 9.36312 9.54778 9.33007C9.54311 9.32482 9.53727 9.32146 9.53027 9.32C9.39085 9.29133 9.38823 9.15147 9.38582 9.02956C9.37648 8.55097 9.37356 8.08887 9.37706 7.64325C10.0878 7.19136 10.809 6.77449 11.5406 6.39264C11.5574 6.38389 11.566 6.36813 11.5769 6.35303Z" fill="#D79F14"/>
<path d="M12.5768 6.74756C12.6117 6.8783 12.6428 7.00976 12.67 7.14196C12.8629 8.07974 12.9738 9.02948 13.0027 9.99118L12.8764 10.0728C12.8718 10.0757 12.8686 10.0746 12.8668 10.0695C12.8662 10.0678 12.8659 10.0657 12.8657 10.0634C12.8731 9.96864 12.851 9.86818 12.8504 9.78632C12.8473 9.44861 12.8187 9.15161 12.7825 8.77909C12.7291 8.22536 12.6346 7.63748 12.5197 7.05463C12.503 6.9708 12.507 6.92025 12.4512 6.84561C12.5142 6.84999 12.4991 6.75062 12.5768 6.74756Z" fill="#D79F14"/>
<path d="M6.67995 8.7998C6.68462 8.80943 6.68899 8.81542 6.69308 8.81775C7.71169 9.4211 8.71724 10.0469 9.70973 10.6952C9.72089 10.7508 9.57293 10.9392 9.52675 11.0126C9.52267 11.019 9.52157 11.0258 9.52347 11.0331L9.53529 11.0793C9.50786 11.0974 9.48057 11.1087 9.45343 11.1132C9.44526 11.1146 9.43775 11.113 9.43089 11.1086C8.43519 10.4639 7.42818 9.83717 6.40986 9.22857C6.40326 9.22464 6.39847 9.21836 6.39651 9.21106C6.39111 9.19165 6.39017 9.17794 6.39367 9.16991C6.50223 9.06194 6.58868 8.942 6.65303 8.81009C6.65454 8.80706 6.65685 8.80451 6.65971 8.80273C6.66258 8.80095 6.66587 8.80001 6.66922 8.80002L6.67995 8.7998Z" fill="#84091D"/>
<path d="M9.53616 11.0792L9.52434 11.033C9.52244 11.0257 9.52354 11.0188 9.52762 11.0124C9.5738 10.9391 9.72176 10.7507 9.7106 10.6951C9.77129 10.6765 9.82696 10.6474 9.87759 10.6077L9.88591 10.6106C9.89102 10.6123 9.89598 10.612 9.90079 10.6097L12.26 9.45626C12.2668 9.45291 12.2716 9.44751 12.2742 9.44007L12.2805 9.42322C12.2801 9.42745 12.2808 9.43146 12.2827 9.43525C12.2835 9.43682 12.2845 9.43819 12.2859 9.43928C12.2872 9.44036 12.2888 9.44112 12.2905 9.4415C12.2922 9.44188 12.294 9.44187 12.2956 9.44147C12.2973 9.44107 12.2989 9.44029 12.3002 9.43919C12.3099 9.43117 12.3204 9.4246 12.3317 9.41949C12.3337 9.41862 12.3358 9.41836 12.3378 9.41876C12.3399 9.41916 12.3418 9.42019 12.3432 9.4217C12.3447 9.42322 12.3456 9.42515 12.3459 9.42723C12.3462 9.42931 12.3458 9.43142 12.3449 9.43328L12.1722 9.76356C12.1687 9.77027 12.1635 9.7753 12.1567 9.77866L9.53616 11.0792Z" fill="#690305"/>
<path d="M4.18924 10.2844C5.94382 11.5207 7.76049 12.6605 9.63925 13.7038C9.59985 13.7792 9.55367 13.8505 9.50071 13.9176C9.49823 13.9208 9.49859 13.9237 9.5018 13.9262C9.50939 13.9317 9.51654 13.9408 9.52325 13.9535L9.42585 13.9977C9.41856 14.0009 9.41141 14.0007 9.40441 13.9969C7.53557 12.9877 5.74079 11.8608 4.02005 10.616C3.99948 10.6011 3.99474 10.5735 4.00583 10.5331C4.03909 10.5303 4.05813 10.5216 4.06295 10.507C4.0914 10.4212 4.1335 10.347 4.18924 10.2844Z" fill="#84091D"/>
<path d="M13.9903 10.9954C13.9647 11.0901 13.9159 11.2372 13.8353 11.3007C12.5103 12.3451 11.0437 13.2248 9.52319 13.9536C9.51648 13.9409 9.50933 13.9318 9.50174 13.9262C9.49853 13.9237 9.49816 13.9209 9.50065 13.9177C9.55361 13.8506 9.59979 13.7793 9.63919 13.7039C11.1627 12.9569 12.6563 12.0529 13.9903 10.9954Z" fill="#690305"/>
</svg>
