<!-- by TradingView --><svg width="18" height="18" viewBox="0 0 18 18" xmlns="http://www.w3.org/2000/svg"><path fill="#F0F3FA" d="M0 0h18v18H0z"/><path d="M8.08 3.23c-.3.17-.57.43-.8.72l.05.12a4.58 4.58 0 0 0 1.54 2.1 257.3 257.3 0 0 0 4.07 3.71 14.3 14.3 0 0 0-.36-1.96 214.07 214.07 0 0 1-3.5-3.44 6.54 6.54 0 0 1-1-1.25Zm4.31 4.04c-.67-2.06-1.96-4.12-3.37-4.26-.22-.03-.44 0-.64.07.2.34.52.75.93 1.16.52.53 1.9 1.9 3.08 3.03Zm.59 3.1A263.13 263.13 0 0 1 8.64 6.4a4.88 4.88 0 0 1-1.58-2.13C6.6 5 6.34 5.8 6.34 6.06c0 .5 2.67 3.55 6.52 6.26.1-.32.17-1.01.1-1.94Z" fill="#2C3491"/><path d="M8.8 15a8.2 8.2 0 0 0 3.96-2.36c.16-.53.22-1.1.22-1.6-.26.39-.59.8-1 1.22-.7.7-1.86 1.28-3.02 1.7-.65.25-1.3.44-1.88.6.47.24 1.04.4 1.72.44Zm-2.12-.68c.63-.16 1.4-.39 2.16-.67a8.4 8.4 0 0 0 2.9-1.63c.56-.56.95-1.11 1.23-1.6-.02-.37-.06-.68-.09-.9l-.01-.09c-.09-.7-.18-1.36-.44-2.16a6.45 6.45 0 0 1-2.13 3.65c-.63.49-1.75 1-2.88 1.41-.65.25-1.31.47-1.9.65.26.5.63.97 1.16 1.34Zm-1.3-1.65A5.03 5.03 0 0 1 5 10.45c4.95-1.9 6.21-4.71 6.16-5.95.48.85.81 1.55 1.05 2.16a6.44 6.44 0 0 1-2.13 4c-.58.45-1.66.93-2.79 1.36-.66.25-1.33.47-1.92.65Zm7.01.81a3.14 3.14 0 0 1-2.42 1.48 8.5 8.5 0 0 0 2.42-1.48Z" fill="url(#ah0is2hlq)"/><defs><linearGradient id="ah0is2hlq" x1="11.37" y1="4.83" x2="8.71" y2="15.18" gradientUnits="userSpaceOnUse"><stop stop-color="#00A4E7"/><stop offset="1" stop-color="#2C318F"/></linearGradient></defs></svg>