<!-- by TradingView --><svg width="18" height="18" viewBox="0 0 18 18" fill="none" xmlns="http://www.w3.org/2000/svg">
<rect width="18" height="18" fill="#F0F3FA"/>
<path fill-rule="evenodd" clip-rule="evenodd" d="M13.7814 10.4668C13.9235 10.0029 14 9.51039 14 9C14 6.23858 11.7614 4 9 4C6.23858 4 4 6.23858 4 9C4 11.7614 6.23858 14 9 14C11.0503 14 12.8124 12.7659 13.584 11H11.7489C11.6089 10.989 11.3078 10.9153 11.2229 10.709C11.138 10.5026 10.2226 8.5023 9.77549 7.52793L8.77771 10.9358C8.76665 10.9736 8.72797 11 8.68368 11C8.64093 11 8.60321 10.9754 8.59077 10.9393L7.41375 7.52793L6.48809 10.534C6.47432 10.5934 6.48844 10.7273 6.65509 10.788C6.82174 10.8488 6.98154 10.9079 7.04061 10.9299V11H5V10.9299L5.34425 10.8052C5.41248 10.7728 5.57168 10.6466 5.66265 10.4015C5.75362 10.1564 6.52114 7.83658 6.89353 6.67227C6.92077 6.54218 6.90911 6.23735 6.64453 6.0587V6H8.43186L8.90922 7.4774L9.18676 6.56096C9.20402 6.46094 9.17269 6.21656 8.90922 6.03914V6H10.8245L12.6214 10.1384C12.654 10.2479 12.8357 10.4668 13.3023 10.4668H13.7814Z" fill="#ED1B24"/>
</svg>
