<!-- by TradingView --><svg width="18" height="18" viewBox="0 0 18 18" fill="none" xmlns="http://www.w3.org/2000/svg">
<rect width="18" height="18" fill="#F0F3FA"/>
<path d="M5.10189 7.11505C5.97313 6.1826 6.85506 5.26138 7.73248 4.33582C8.1548 3.89033 8.57568 3.44362 9.00124 3.0019C9.00186 3.00127 9.0026 3.00077 9.00339 3.00045C9.00419 3.00012 9.00504 2.99997 9.00588 3C9.00673 3.00003 9.00756 3.00025 9.00833 3.00063C9.0091 3.00101 9.00979 3.00155 9.01036 3.00222C9.05055 3.04992 9.09265 3.09696 9.13666 3.14334C10.4741 4.55381 11.8099 5.96633 13.1472 7.37696C13.7811 8.04552 14.3445 9.22817 13.7448 10.1416C13.5993 10.3633 13.4305 10.5694 13.2601 10.7688C12.9546 11.1263 12.6557 11.4607 12.3636 11.772C11.5525 12.6364 10.8565 13.5016 9.97623 14.3675C9.76085 14.5794 9.54155 14.7868 9.32173 14.9921L9.32033 14.9928L9.3188 14.9926L9.31764 14.9915L9.3125 14.9899C9.3116 14.7419 9.31165 14.4939 9.3125 14.246C9.3125 13.5668 9.31069 13.0042 9.3125 12.6582C9.3125 12.3118 9.56062 11.9362 9.7711 11.6952C10.3174 11.07 10.7804 10.5075 11.3331 9.88624C11.4989 9.69988 11.6623 9.51426 11.6363 9.23013C11.615 8.99657 11.4664 8.81243 11.3202 8.65336C10.8811 8.17558 10.4421 7.69772 10.0031 7.21978C9.97092 7.18476 9.93485 7.14673 9.89486 7.1057C9.59214 6.79527 9.30102 6.46984 9.0081 6.14834C9.00624 6.14632 9.00425 6.14621 9.00214 6.14802C8.94396 6.19954 8.89518 6.24671 8.85579 6.28955C8.1137 7.09633 7.37166 7.90317 6.62966 8.71007C6.49047 8.86135 6.37924 9.04558 6.35452 9.26119C6.35302 9.27425 6.35337 9.29414 6.35558 9.32085C6.37088 9.50631 6.47985 9.67669 6.59447 9.80674C7.19595 10.4892 7.76826 11.091 8.32725 11.8112C8.49387 12.0258 8.62966 12.2797 8.66553 12.5573C8.68188 12.6842 8.68765 12.8532 8.6875 12.987C8.6867 13.6577 8.6875 14.9948 8.6875 14.9948C8.6875 15.0006 8.68915 15.0015 8.68513 14.9977C7.14277 13.5363 5.64853 12.0361 4.36351 10.3009C4.30614 10.2234 4.25316 10.1426 4.20458 10.0583C3.71489 9.20932 4.1874 8.1278 4.74936 7.49292C4.85365 7.37508 4.98267 7.24256 5.10189 7.11505ZM9.76365 4.94251C9.51004 4.67944 9.25593 4.41848 9.00131 4.15963C8.99855 4.15684 8.99581 4.15687 8.9931 4.15971C8.15321 5.02905 7.31303 5.89708 6.4849 6.77921C6.17494 7.10931 5.8533 7.46203 5.49806 7.85031C5.35432 8.00739 5.21892 8.16651 5.09187 8.32768C4.63895 8.90224 4.72999 9.65145 5.19436 10.1769C6.0497 11.1449 6.74879 12.1299 7.63311 13.0682C7.70545 13.1449 7.78667 13.2177 7.87675 13.2866C7.92523 13.3237 7.97773 13.3443 8.03425 13.3484C8.09748 13.353 8.13056 13.2673 8.1344 13.2117C8.16108 12.8242 8.03267 12.4421 7.78677 12.1625C7.11015 11.3907 6.46146 10.7517 5.87071 9.89247C5.65895 9.58433 5.623 9.18227 5.75767 8.82783C5.8689 8.53502 6.05534 8.28253 6.26635 8.06708C6.34603 7.98573 6.42526 7.90388 6.50404 7.82155C7.33536 6.95281 8.16542 6.08188 8.99423 5.20877L8.99581 5.20807L8.9974 5.20877C9.87986 6.12491 10.757 7.04727 11.6359 7.96767C11.6359 7.96767 11.6651 7.99769 11.7225 8.05659C11.9946 8.3358 12.2637 8.70425 12.3149 9.12015C12.3559 9.45288 12.2441 9.76167 12.0439 10.0097C11.4518 10.7432 10.9281 11.4301 10.2744 12.0989C10.0816 12.2961 9.95563 12.5365 9.89634 12.8203C9.86987 12.9469 9.86243 13.0832 9.87404 13.2293C9.88014 13.3053 9.93433 13.3737 10.0085 13.3459C10.1493 13.2931 10.2584 13.1852 10.3617 13.0728C11.1829 12.1801 11.6579 11.4704 12.7444 10.247C12.803 10.181 12.8377 10.1415 12.8485 10.1284C13.1328 9.78404 13.2847 9.30168 13.1643 8.84529C13.1078 8.63107 13.0096 8.44086 12.8697 8.27466C12.6324 7.99286 12.3889 7.71739 12.1394 7.44826C11.3613 6.60883 10.589 5.79874 9.76365 4.94251Z" fill="#020202"/>
<path d="M8.6186 11.0441L8.66517 11.0873C8.37398 11.0488 8.09658 10.8559 7.92793 10.5982C7.68783 10.2314 7.60991 9.76348 7.67781 9.32283C7.70584 9.14065 7.8023 8.94593 7.90163 8.79817C8.05001 8.57756 8.23577 8.37637 8.40933 8.17124C8.44645 8.12732 8.47833 8.08525 8.50496 8.04504C8.75008 7.67424 8.91662 7.26459 9.00459 6.81609C9.0046 6.81562 9.00479 6.81516 9.00511 6.81483C9.00542 6.8145 9.00585 6.81432 9.00629 6.81433C9.00673 6.81434 9.00715 6.81454 9.00745 6.81489C9.00775 6.81523 9.00792 6.8157 9.00791 6.81618C9.06428 7.20829 9.18244 7.57546 9.3624 7.91769C9.47009 8.1224 9.62209 8.2827 9.77048 8.45119C9.99279 8.70344 10.2235 9.01715 10.2712 9.37142C10.2772 9.41655 10.2816 9.47091 10.2843 9.53451C10.3108 10.1707 10.0473 10.8243 9.45713 11.0419C9.45655 11.0422 9.4559 11.0422 9.45531 11.042C9.45471 11.0418 9.45421 11.0413 9.45388 11.0408C9.45355 11.0402 9.45343 11.0395 9.45353 11.0388C9.45362 11.0381 9.45394 11.0375 9.45442 11.0371C9.5024 10.9866 9.54874 10.9334 9.59346 10.8777C9.80718 10.6114 9.81305 10.1562 9.58773 9.89346C9.3884 9.66112 9.1266 9.49574 8.98568 9.20695C8.88711 9.00494 8.8532 8.75523 8.87814 8.53568C8.88854 8.44417 8.89839 8.35151 8.90768 8.2577C8.90776 8.25715 8.90767 8.25658 8.90742 8.25608C8.90717 8.25559 8.90678 8.2552 8.90631 8.25498C8.90583 8.25475 8.9053 8.2547 8.9048 8.25484C8.9043 8.25498 8.90386 8.25529 8.90354 8.25574C8.57142 8.68361 8.33751 9.1804 8.20714 9.72242C8.19606 9.76856 8.18799 9.82642 8.18468 9.87772C8.1623 10.2229 8.23246 10.7081 8.49742 10.9397C8.53661 10.974 8.577 11.0088 8.6186 11.0441Z" fill="#0C9447"/>
<path d="M8.98541 10.4115C8.95492 10.4367 8.92455 10.4622 8.8943 10.4881C8.805 10.5644 8.73108 10.6278 8.68149 10.7258C8.65602 10.7762 8.62738 10.8508 8.59558 10.9496C8.48955 10.7055 8.52512 10.4792 8.62587 10.2455C8.68656 10.1047 8.7618 9.97076 8.85158 9.84363C8.85389 9.84029 8.85499 9.84073 8.85489 9.84494C8.85278 9.92459 8.84713 10.0087 8.84992 10.0838C8.85316 10.1712 8.86567 10.2163 8.91111 10.2935C8.93296 10.3306 8.95773 10.3699 8.98541 10.4115Z" fill="#F5B819"/>
<path d="M8.98456 10.4115C9.0557 10.4708 9.1281 10.5388 9.20175 10.6156C9.13852 10.633 9.06264 10.6488 9.01117 10.6765C8.84982 10.7633 8.82744 10.9534 8.78561 11.1209L8.66443 11.0873L8.61786 11.044L8.59473 10.9496C8.62653 10.8508 8.65517 10.7761 8.68064 10.7258C8.73022 10.6278 8.80415 10.5644 8.89345 10.4881C8.9237 10.4622 8.95407 10.4367 8.98456 10.4115Z" fill="#E27A27"/>
<path d="M9.20227 10.6156C9.22483 10.6794 9.23513 10.7468 9.23317 10.8179C9.22865 10.983 9.13203 11.1217 8.97348 11.1321C8.91193 11.1361 8.84949 11.1324 8.78613 11.1209C8.82796 10.9534 8.85034 10.7633 9.01168 10.6765C9.06316 10.6488 9.13904 10.633 9.20227 10.6156Z" fill="#CC3529"/>
</svg>
