<!-- by TradingView --><svg width="18" height="18" viewBox="0 0 18 18" xmlns="http://www.w3.org/2000/svg"><path fill="#F0F3FA" d="M0 0h18v18H0z"/><path d="M9 6.6a12 12 0 0 0-3.3-.92A7.1 7.1 0 0 1 9 5c1.72 0 2.95.45 3.36.68-.92 0-2.63.62-3.37.93Zm-4.69.2c.96.02 3.24.31 4.66 1.26.6-.4 2.37-1.22 4.72-1.26l-.66-.76c-.95.08-3.09.4-4.06 1.12-.74-.39-2.59-1.16-4-1.12l-.66.76ZM8.7 10H4V7.19c3.89.28 4.64 1.2 4.69 1.8V10Zm.62 0H14V7.19c-3.89.28-4.64 1.2-4.69 1.8V10ZM14 12H4v1h10v-1Z" fill="#4DB848"/><path fill="#005AAB" d="M4 10h10v2H4z"/></svg>