<!-- by TradingView --><svg width="56" height="56" viewBox="0 0 56 56" xmlns="http://www.w3.org/2000/svg"><path fill="#F0F3FA" d="M0 0h56v56H0z"/><path d="M27.96 20c-5.02 0-9.5 1.9-11.84 3.25-.23.14-.1.48.16.44 4.74-.74 8.66-.18 11.48 3.22.1.12.29.12.39 0 2.8-3.25 8.4-3.44 11.58-3.14.26.02.38-.33.15-.46A24.78 24.78 0 0 0 27.96 20Z" fill="#F6EE25"/><path d="M16.86 26C11.2 26 5.93 30.17 4 32.25a17.7 17.7 0 0 1 12.86-3.75c7.07.63 12.36 4.85 14.14 7.5-1.93-3.75-7.07-10-14.14-10Z" fill="#4EB848"/><path d="M39.14 26c5.66 0 10.93 4.17 12.86 6.25a17.7 17.7 0 0 0-12.86-3.75c-7.07.63-12.36 4.85-14.14 7.5 1.93-3.75 7.07-10 14.14-10Z" fill="#2B2F74"/></svg>