<!-- by TradingView --><svg width="18" height="18" viewBox="0 0 18 18" fill="none" xmlns="http://www.w3.org/2000/svg">
<rect width="18" height="18" fill="#F0F3FA"/>
<path d="M7.38649 11.1221L6.31867 12.9627C6.31039 12.9783 6.29764 12.9985 6.28042 12.9985H4.32685C4.22119 13.003 4.11669 12.9973 4.01335 12.9814C4.01085 12.9809 4.00848 12.9799 4.00644 12.9783C4.0044 12.9767 4.00275 12.9747 4.00163 12.9724C4.00051 12.97 3.99995 12.9674 4 12.9649C4.00005 12.9623 4.00071 12.9598 4.00192 12.9575L8.85652 4.03207C8.86191 4.02236 8.86964 4.01429 8.87894 4.00867C8.88824 4.00304 8.89879 4.00005 8.90954 4C8.92029 3.99995 8.93086 4.00283 8.94021 4.00837C8.94956 4.0139 8.95737 4.0219 8.96284 4.03155L10.1071 6.05688C10.1128 6.06716 10.1158 6.07885 10.1158 6.09079C10.1158 6.10272 10.1128 6.11446 10.1071 6.12483C9.87599 6.52692 7.40416 10.9447 7.47402 10.9874L7.48784 11H10.3577C10.4077 10.9995 9.1544 8.35949 9.02697 8.09862C8.9849 8.02324 9.00577 7.99896 9.08957 8H11.2672C11.3308 7.99965 11.3762 8.01564 11.4033 8.06646C12.2509 9.63452 13.1368 11.4218 13.9973 12.9819C14.0029 12.993 13.9998 12.9985 13.9879 12.9985H7.44015C7.39974 12.9985 7.37953 12.9774 7.37953 12.9352C7.3792 12.4003 7.3792 11.8507 7.37953 11.2864C7.37987 11.1599 7.38931 11.2578 7.40785 11.133C7.41183 11.1054 7.40471 11.1017 7.38649 11.1221Z" fill="#00A54F"/>
</svg>
