<!-- by TradingView --><svg width="18" height="18" viewBox="0 0 18 18" xmlns="http://www.w3.org/2000/svg"><path fill="#F0F3FA" d="M0 0h18v18H0z"/><path d="M15 8.99A6 6 0 1 1 3 9a6 6 0 0 1 12-.02Zm-.2.02A5.81 5.81 0 1 0 3.2 9a5.81 5.81 0 0 0 11.62.02Z" fill="#0F793D"/><path d="M12.5 9a3.5 3.5 0 1 1-7 0 3.5 3.5 0 0 1 7 0Zm-.2-.01A3.3 3.3 0 1 0 5.7 9a3.3 3.3 0 0 0 6.6 0Z" fill="#0F793D"/><path d="M7.57 8.82H6.18a.02.02 0 0 1 0-.02l1.8-2.62h2.04l1.8 2.62a.02.02 0 0 1 0 .02h-1.4L9 7.02A.01.01 0 0 0 9 7h-.01l-1.4 1.8a.01.01 0 0 1-.02.01Zm1.45 2.12 1.37-1.71h1.47v.02l-1.82 2.57H7.96L6.14 9.25a.02.02 0 0 1 0-.02H7.6a.02.02 0 0 1 .02 0L9 10.94a.02.02 0 0 0 .01 0 .02.02 0 0 0 .02 0Zm0 .22H9a.01.01 0 0 1-.02 0l-1.45-1.8H6.39l1.64 2.33.01.01h1.92l1.65-2.33v-.02h-1.14l-.02.02L9 11.16Z" fill="#0F793D"/><path fill-rule="evenodd" d="M9 14.65a5.65 5.65 0 1 0 0-11.3 5.65 5.65 0 0 0 0 11.3Zm0-2a3.65 3.65 0 1 0 0-7.3 3.65 3.65 0 0 0 0 7.3Z" fill="#742873"/><path opacity=".3" d="M6.14 6.52a5.32 5.32 0 0 0-1.1 2.33l-1.6-.28c.15-.84.59-2.06 1.44-3.09a5.12 5.12 0 0 1 4.06-1.92c2 0 3.38.88 4.26 1.99a6.47 6.47 0 0 1 1.32 3.23l-1.62.16a4.85 4.85 0 0 0-.98-2.38 3.6 3.6 0 0 0-2.98-1.37 3.5 3.5 0 0 0-2.8 1.33ZM14.07 11a5.53 5.53 0 0 1-5.13 3.41 5.35 5.35 0 0 1-5.04-3.43l1.53-.53a3.73 3.73 0 0 0 3.51 2.33 3.9 3.9 0 0 0 3.61-2.35l1.52.57Z" fill="#E6E9F1"/></svg>