<!-- by TradingView --><svg width="18" height="18" viewBox="0 0 18 18" xmlns="http://www.w3.org/2000/svg"><path fill="#F0F3FA" d="M0 0h18v18H0z"/><path d="M9.65 7H4.53L4 8h3.78c.16 0 .27.13.2.25L6.39 11h1.69l1.89-3.57c.1-.2-.06-.43-.32-.43Z" fill="url(#asiw5tqth)"/><path d="M5.5 9h1.16L5.5 11H4.34L5.5 9Z" fill="url(#bsiw5tqth)"/><path d="M3.16 9h1.3L3.3 11H2l1.16-2Z" fill="url(#csiw5tqth)"/><path d="M13.67 9H15l-.9 2H9l1.85-3.72A.52.52 0 0 1 11.3 7H16l-.5 1h-3.4a.4.4 0 0 0-.34.21l-.9 1.79h2.36l.45-1Z" fill="url(#dsiw5tqth)"/><defs><linearGradient id="asiw5tqth" x1="10.09" y1="7" x2="10.09" y2="11" gradientUnits="userSpaceOnUse"><stop stop-color="#025431"/><stop offset="1" stop-color="#6DB842"/></linearGradient><linearGradient id="bsiw5tqth" x1="10.09" y1="7" x2="10.09" y2="11" gradientUnits="userSpaceOnUse"><stop stop-color="#025431"/><stop offset="1" stop-color="#6DB842"/></linearGradient><linearGradient id="csiw5tqth" x1="10.09" y1="7" x2="10.09" y2="11" gradientUnits="userSpaceOnUse"><stop stop-color="#025431"/><stop offset="1" stop-color="#6DB842"/></linearGradient><linearGradient id="dsiw5tqth" x1="10.09" y1="7" x2="10.09" y2="11" gradientUnits="userSpaceOnUse"><stop stop-color="#025431"/><stop offset="1" stop-color="#6DB842"/></linearGradient></defs></svg>