<!-- by TradingView --><svg width="18" height="18" viewBox="0 0 18 18" xmlns="http://www.w3.org/2000/svg"><path fill="#F0F3FA" d="M0 0h18v18H0z"/><path d="M9.7 12a2.53 2.53 0 0 1-1.7-.5l-1.85 2.7a7.4 7.4 0 0 0 3.86.78L9.7 12Z" fill="url(#azguegcnn)"/><path d="M8 11.5a2.5 2.5 0 0 1-.93-1.39L3 11.41a6.32 6.32 0 0 0 2.93 3.16L8 11.5Z" fill="url(#bzguegcnn)"/><path d="M7 9.42a1.91 1.91 0 0 1 .15-.8l-3-.96a4.37 4.37 0 0 0 0 3.4l2.93-.95A2.5 2.5 0 0 1 7 9.42Z" fill="#EA0A1F"/><path d="M6.17 6.79c-.38.38-.63.77-.81 1.25l1.8.57A2.5 2.5 0 0 1 8.32 7.3l-.8-1.44a4.4 4.4 0 0 0-1.35.93Z" fill="url(#czguegcnn)"/><path d="M10.68 3.1a7.94 7.94 0 0 0-4.7.7L8.2 7.37a2.49 2.49 0 0 1 1.7-.33l.77-3.94Z" fill="url(#dzguegcnn)"/><path d="M15 8.84A4.74 4.74 0 0 0 13.65 6l-2.33 1.8c.33.35.56.8.64 1.29L15 8.84Z" fill="url(#ezguegcnn)"/><path d="M14.3 5.67a6.56 6.56 0 0 0-3.76-1.9l-.63 3.26c.6.1 1.11.4 1.49.84l2.9-2.2Z" fill="#0095DB"/><circle cx="9.5" cy="9.5" r="1.5" fill="#D2942E" fill-opacity=".5"/><defs><linearGradient id="azguegcnn" x1="8.75" y1="11.05" x2="7.78" y2="14.88" gradientUnits="userSpaceOnUse"><stop stop-color="#FED336"/><stop offset="1" stop-color="#FC9127"/></linearGradient><linearGradient id="bzguegcnn" x1="7.71" y1="10.45" x2="4.66" y2="13.68" gradientUnits="userSpaceOnUse"><stop stop-color="#E30B1E"/><stop offset="1" stop-color="#B81018"/></linearGradient><linearGradient id="czguegcnn" x1="6.49" y1="6.67" x2="7.55" y2="8.13" gradientUnits="userSpaceOnUse"><stop stop-color="#7F8182"/><stop offset="1" stop-color="#353533"/></linearGradient><linearGradient id="dzguegcnn" x1="8.32" y1="3" x2="8.32" y2="7.61" gradientUnits="userSpaceOnUse"><stop stop-color="#02418D"/><stop offset="1" stop-color="#008BD2"/></linearGradient><linearGradient id="ezguegcnn" x1="14.78" y1="7.46" x2="11.38" y2="9.06" gradientUnits="userSpaceOnUse"><stop stop-color="#0A9F38"/><stop offset="1" stop-color="#7BB631"/></linearGradient></defs></svg>