<!-- by TradingView --><svg width="56" height="56" viewBox="0 0 56 56" xmlns="http://www.w3.org/2000/svg"><path fill="#F0F3FA" d="M0 0h56v56H0z"/><path fill-rule="evenodd" d="M9.5 22c-1.27 0-2.8.8-3.23 2l-2.1 6c-.68 1.96 1.26 4 3.33 4h41.2c2.07 0 3.81-2.04 3.13-4l-2.1-6c-.43-1.2-1.83-2-3.1-2H9.5ZM9 26.55h.04l1.22 4.4h.25L11.54 26v4.4c0 .14-.03.2-.15.2h-.37v.4h2.14v-.4h-.45c-.11 0-.21-.06-.21-.2v-4.8c0-.16.1-.2.21-.2h.45V25h-1.62l-.85 4.1L9.52 25H8v.4h.6c.05 0 .1.01.11.04.02.03.04.08.04.15v4.29c0 .47-.38.72-.75.72v.4h1.58v-.4c-.42 0-.58-.32-.58-.72v-3.33Zm4.85 4.05h-.35v.4h2.14v-.4h-.45c-.1 0-.19-.06-.19-.2v-4.8c0-.16.09-.2.2-.2h.44V25H13.5v.4h.35c.12 0 .15.04.15.2v4.8c0 .14-.03.2-.15.2Zm3.52 0h.51c.12 0 .12-.06.12-.17v-4.76c0-.17-.06-.27-.2-.27-.2 0-.38.14-.55.42-.16.27-.29.6-.37.96a6.62 6.62 0 0 0-.13.75h-.2L16.6 25h3.82l.05 2.53h-.2a12.94 12.94 0 0 0-.14-.75c-.08-.37-.2-.69-.37-.96-.17-.28-.35-.42-.55-.42-.14 0-.21.1-.21.27v4.74c0 .13.02.19.13.19h.5v.4h-2.26v-.4ZM21 28c0 1.5.56 3 2.01 3 .31 0 .58-.09.8-.26.61-.49.77-1.36.8-2.09h-.22c-.07.83-.31 2.1-1.38 2.1-.7 0-1.01-.75-1.01-1.55v-2.4c0-.8.27-1.54.95-1.54.31 0 .59.2.83.61.24.42.4.97.5 1.66h.2V25h-.2l-.12.36a.38.38 0 0 1-.05.12.11.11 0 0 1-.09.03c-.04 0-.11-.04-.21-.12-.15-.13-.3-.22-.43-.29a.91.91 0 0 0-.43-.1C21.54 25 21 26.5 21 28Zm4.32 2.6h.51c.13 0 .16-.06.16-.2v-4.8c0-.16-.04-.2-.16-.2h-.51V25h2.14v.4h-.3c-.11 0-.16.04-.16.2v2.11h1.5V25.6c0-.15-.07-.19-.2-.19h-.45V25H30v.4h-.35c-.1 0-.15.04-.15.2v4.8c0 .14.04.2.15.2H30v.4h-2.14v-.4h.45c.12 0 .19-.06.19-.2V28H27v2.4c0 .14.04.2.15.2h.3v.4h-2.13v-.4Zm5.43 0h-.18v.4h3.62l.04-2.36h-.2l-.05.36c-.07.55-.32 1.6-1.03 1.6h-.8c-.11 0-.15-.06-.15-.2V28h.43c.46 0 .64.87.64 1.21h.2v-2.5h-.2c0 .33-.19 1-.64 1H32V25.6c0-.15.05-.19.15-.19h.8c.65 0 1.03 1.08 1.03 1.6h.2l-.04-2h-3.57v.4h.18c.12 0 .25.04.25.2v4.8c0 .14-.12.2-.25.2Zm4.21 0h.45c.1 0 .1-.04.1-.13l-.01-.06V25.55c0-.1 0-.15-.1-.15h-.44V25h2.14v.4h-.45c-.1 0-.15.04-.15.2v4.78c0 .15.04.22.15.22h.65c.23 0 .42-.15.58-.45a3.8 3.8 0 0 0 .47-1.4l.06-.36h.2L38.57 31h-3.6v-.4Zm4.89 0h-.62v.4H43v-2.6h-.2c-.1.63-.44 2.2-1.25 2.2h-.47c-.1 0-.1-.05-.1-.16l.01-.02v-4.87c0-.12 0-.15.1-.15h.5V25h-2.37v.4h.62c.12 0 .15.04.15.2v4.78c0 .14-.03.22-.15.22Zm3.07-3.07c.26-.12.48-.3.64-.52.17-.24.25-.49.25-.74a.15.15 0 0 0-.03-.1c-.02-.03-.05-.05-.08-.05s-.08.02-.15.07a.41.41 0 0 1-.22.07.42.42 0 0 1-.32-.15.62.62 0 0 1-.13-.43.7.7 0 0 1 .16-.5.5.5 0 0 1 .39-.18c.2 0 .37.09.49.26.12.18.18.4.18.67 0 .44-.1.82-.3 1.13-.2.32-.47.55-.8.7l-.08-.23Zm3.16 3.37c.15.07.31.1.5.1.31 0 .57-.08.78-.24.22-.16.37-.37.48-.62a2.02 2.02 0 0 0 0-1.58c-.1-.25-.24-.45-.41-.6l-1.37-1.1c-.38-.32-.57-.62-.57-.93 0-.22.05-.4.16-.5.11-.12.28-.17.5-.17.2 0 .4.08.59.26.19.17.36.4.5.7.15.3.26.64.34 1.01h.2l-.06-2.09h-.2l-.04.22c-.02.12-.07.19-.14.19-.06 0-.13-.05-.23-.15-.3-.27-.6-.4-.9-.4-.36 0-.65.13-.9.39-.23.25-.35.63-.35 1.15 0 .33.06.62.2.86s.31.44.51.6l1.36 1.1c.15.13.26.25.34.36.08.1.12.23.12.37 0 .23-.06.45-.18.63-.13.19-.36.28-.7.28-.23 0-.44-.1-.65-.33-.2-.21-.37-.5-.51-.86a5.34 5.34 0 0 1-.29-1.16h-.18L45 31h.18l.03-.32c.02-.18.08-.27.17-.27.03 0 .08.02.12.05l.2.19c.1.1.23.18.38.25Z" fill="#084EA3"/><path fill-rule="evenodd" d="M46.74 23H9.26c-.9 0-1.71.55-2 1.37l-2.1 6c-.45 1.3.56 2.63 2 2.63h41.69c1.43 0 2.44-1.34 1.99-2.63l-2.1-6a2.1 2.1 0 0 0-2-1.37ZM9.26 22c-1.36 0-2.57.83-3 2.05l-2.1 6C3.48 32 5 34 7.16 34h41.69c2.15 0 3.67-2 2.99-3.95l-2.1-6a3.14 3.14 0 0 0-3-2.05H9.26Z" fill="#D09B13"/></svg>