<!-- by TradingView --><svg width="18" height="18" viewBox="0 0 18 18" fill="none" xmlns="http://www.w3.org/2000/svg">
<rect width="18" height="18" fill="#F0F3FA"/>
<path d="M13.9948 9.28411C13.9948 11.1975 11.6197 12.7486 8.68978 12.7486C5.7599 12.7486 3.38477 11.1975 3.38477 9.28411C3.38477 7.37071 5.7599 5.92334 8.68978 5.92334C11.6197 5.92334 13.9948 7.37071 13.9948 9.28411Z" fill="url(#paint0_linear_229_29078)"/>
<path d="M13.9948 9.28411C13.9948 11.1975 11.6197 12.7486 8.68978 12.7486C5.7599 12.7486 3.38477 11.1975 3.38477 9.28411C3.38477 7.37071 5.7599 5.92334 8.68978 5.92334C11.6197 5.92334 13.9948 7.37071 13.9948 9.28411Z" fill="url(#paint1_linear_229_29078)"/>
<path fill-rule="evenodd" clip-rule="evenodd" d="M9.0363 13C12.3701 13 15 10.8747 15 8.6369C15 6.67576 12.8057 5 9.47189 5C5.73884 5 3 7.09073 3 9.32852C3 11.5663 5.70254 13 9.0363 13ZM8.89733 12.727C11.9283 12.727 14.1379 11.2032 14.1379 9.13266C14.1379 7.43936 11.9613 5.81956 8.74887 5.81956C7.38766 5.81956 3.4456 6.44899 3.4093 9.38402C3.4093 11.2816 5.86638 12.727 8.89733 12.727Z" fill="url(#paint2_linear_229_29078)"/>
<path opacity="0.5" d="M12.8333 7.55535C13.5631 8.25057 13.746 9.20346 13.2419 9.6837C12.7378 10.1639 11.7376 9.98967 11.0078 9.29446C10.278 8.59924 10.0951 7.64635 10.5992 7.16611C11.1033 6.68587 12.1036 6.86014 12.8333 7.55535Z" fill="#485098"/>
<path opacity="0.5" d="M12.7018 7.68164C13.3256 8.27588 13.4819 9.09037 13.0511 9.50085C12.6202 9.91134 11.7652 9.76238 11.1415 9.16814C10.5177 8.57391 10.3613 7.75942 10.7922 7.34894C11.2231 6.93845 12.0781 7.08741 12.7018 7.68164Z" fill="#485098"/>
<path opacity="0.5" d="M12.525 7.84987C13.0076 8.30959 13.1286 8.93972 12.7952 9.25729C12.4619 9.57485 11.8004 9.45961 11.3179 8.99989C10.8353 8.54016 10.7143 7.91004 11.0477 7.59247C11.381 7.2749 12.0425 7.39014 12.525 7.84987Z" fill="#485098"/>
<path fill-rule="evenodd" clip-rule="evenodd" d="M10.2552 7.66646C9.8087 7.66646 9.59998 8.03738 9.51713 8.37599C9.38291 7.99815 9.1898 7.73575 9.04632 7.59138C9.3142 7.26231 9.71566 7 10.2922 7C11.7424 7 12.0002 8.54872 12.0002 8.72572V10.7346C11.8736 10.8622 11.4147 11.0868 11.0002 10.9647V8.72572C10.9745 8.37263 10.8714 7.66646 10.2552 7.66646ZM6 10.9647V8.593C6.08056 8.06201 6.53173 7.00003 7.69185 7.00003C9.14201 7.00003 9.39981 8.54875 9.39981 8.72574V10.7347C9.27325 10.8622 8.91652 11.0869 8.50203 10.9647V8.72574C8.47636 8.37266 8.27099 7.66648 7.65486 7.66648C7.03873 7.66648 7.00479 8.37266 7.00012 8.72574V10.7347C6.87009 10.852 6.38447 11.0623 6 10.9647Z" fill="#FFFDFF"/>
<path d="M8.41588 11.6749C7.95599 12.0075 7.78425 12.5302 7.75586 12.7499C8.99075 12.5369 9.33141 11.9386 9.49109 11.7104C9.61884 11.5278 9.8282 11.4011 9.91692 11.3605C9.6082 11.3267 8.87578 11.3423 8.41588 11.6749Z" fill="url(#paint3_linear_229_29078)"/>
<path fill-rule="evenodd" clip-rule="evenodd" d="M7.7763 12.7463C7.9124 12.5093 8.18151 12.0944 8.43723 11.8726C8.6852 11.6576 9.00522 11.4793 9.29889 11.3701C8.99881 11.4063 8.66679 11.4934 8.41588 11.6749C7.95599 12.0075 7.78425 12.5302 7.75586 12.7499C7.7627 12.7487 7.76951 12.7475 7.7763 12.7463Z" fill="#9CD258"/>
<path d="M9.06566 12.4101C8.61002 12.8482 8.03126 12.8867 7.79883 12.8512C11.2981 13.3897 13.728 11.9803 14.5056 11.2083C14.3175 11.2573 13.7998 11.3259 13.2334 11.2083C12.6671 11.0907 12.1351 11.0443 11.94 11.0359C10.2207 11.0359 9.6352 11.8624 9.06566 12.4101Z" fill="url(#paint4_linear_229_29078)"/>
<path fill-rule="evenodd" clip-rule="evenodd" d="M8.33974 12.9202C8.93096 12.9483 9.73269 12.8082 10.326 12.1639C10.1881 12.1629 9.80423 12.1865 9.37183 12.2889C9.52667 12.2259 9.95907 12.1008 10.4499 12.1052L11.1482 11.7879C11.0245 11.7508 10.6392 11.71 10.0876 11.8436C10.2172 11.7694 10.6474 11.6415 11.3322 11.7239C11.372 11.7061 11.8357 11.5977 12.0626 11.5458C11.9039 11.4957 11.4304 11.4089 10.8063 11.4623C11.0693 11.4001 11.729 11.3187 12.2642 11.4901C12.651 11.4471 13.4994 11.3548 13.7989 11.3298C13.9122 11.3204 14.05 11.2932 14.1883 11.2592C13.9392 11.2826 13.5964 11.2837 13.2335 11.2084C12.6672 11.0907 12.1353 11.0444 11.9401 11.0359C10.4224 11.0359 9.78817 11.6801 9.26854 12.2078C9.19953 12.2779 9.13254 12.3459 9.06578 12.4101C8.65587 12.8043 8.14629 12.875 7.87891 12.8594C7.89625 12.8634 7.91415 12.8673 7.93256 12.871C8.06999 12.8904 8.20573 12.9067 8.33974 12.9202Z" fill="url(#paint5_linear_229_29078)"/>
<ellipse opacity="0.5" cx="13.106" cy="7.51149" rx="0.574766" ry="0.547558" fill="white"/>
<ellipse opacity="0.5" cx="13.1057" cy="7.51151" rx="0.428015" ry="0.407754" fill="white"/>
<ellipse opacity="0.5" cx="13.1065" cy="7.51149" rx="0.301792" ry="0.28737" fill="white"/>
<ellipse cx="13.1067" cy="7.51152" rx="0.167214" ry="0.159223" fill="white"/>
<defs>
<linearGradient id="paint0_linear_229_29078" x1="6.00475" y1="6.70428" x2="13.248" y2="11.3062" gradientUnits="userSpaceOnUse">
<stop stop-color="#010522"/>
<stop offset="0.280557" stop-color="#2B2D6A"/>
<stop offset="1" stop-color="#273064"/>
</linearGradient>
<linearGradient id="paint1_linear_229_29078" x1="7.16702" y1="12.7486" x2="12.6931" y2="5.55777" gradientUnits="userSpaceOnUse">
<stop stop-color="#010522"/>
<stop offset="0.795966" stop-color="#2B2D6A" stop-opacity="0"/>
<stop offset="1" stop-color="#273064" stop-opacity="0"/>
</linearGradient>
<linearGradient id="paint2_linear_229_29078" x1="4.98055" y1="6.46038" x2="11.1404" y2="13.6597" gradientUnits="userSpaceOnUse">
<stop stop-color="#CEA263"/>
<stop offset="0.374547" stop-color="#835A24"/>
<stop offset="0.495386" stop-color="#E1B974"/>
<stop offset="0.591612" stop-color="#F0E092"/>
<stop offset="0.667945" stop-color="#FDFEED"/>
<stop offset="0.726122" stop-color="#CC9C54"/>
<stop offset="0.863732" stop-color="#75581E"/>
<stop offset="1" stop-color="#7E6226"/>
</linearGradient>
<linearGradient id="paint3_linear_229_29078" x1="7.98474" y1="12.6992" x2="8.71285" y2="12.0139" gradientUnits="userSpaceOnUse">
<stop stop-color="#28AF48"/>
<stop offset="1" stop-color="#6DBE57"/>
</linearGradient>
<linearGradient id="paint4_linear_229_29078" x1="10.3417" y1="12.6865" x2="14.7058" y2="12.3976" gradientUnits="userSpaceOnUse">
<stop stop-color="#178E3E"/>
<stop offset="1" stop-color="#60B138"/>
</linearGradient>
<linearGradient id="paint5_linear_229_29078" x1="9.37032" y1="12.7427" x2="10.9568" y2="11.1566" gradientUnits="userSpaceOnUse">
<stop stop-color="#31B059"/>
<stop offset="1" stop-color="#74BB43"/>
</linearGradient>
</defs>
</svg>
