<!-- by TradingView --><svg width="18" height="18" viewBox="0 0 18 18" xmlns="http://www.w3.org/2000/svg"><path fill="#67939E" d="M0 0h18v18H0z"/><path d="m5.84 7 3.2-4 3.33 4.22h-.55l-.48 1.9-.28-1.9.18-.22h-1.1l.13.32-.13 3.48-.1.11a41.33 41.33 0 0 0-1.2-3.17l-.33-.85c-.25-.73-.35-1.9.37-1.9.58 0 .8.44.84.67v.66H10c.01-.63.03-1.9 0-1.92a1.16 1.16 0 0 0-.34 0v.4c-.03-.06-.21-.18-.68-.18-.58 0-1.31.36-1.31 1.34 0 .88 1 3.47 1.58 4.93l.17.44c.5 1.3.03 1.88-.45 1.88-.38 0-.72-.38-.84-.58v-.86h-.34v1.6h.34v-.16h.13c.8.96 2.08.32 2.08-.9 0-.31-.1-.78-.27-1.31h.55l-.17-.2V8.53l.69 2.47h.35l.45-1.88.33 1.68-.2.2h.46l-3.48 4-3.54-4h.54l-.17-.2V8.53L6.56 11h.35l.45-1.88.33 1.68-.2.2h.99l-.26-.27-.36-3.5h-.6l-.49 1.89-.28-1.9.18-.22h-.83Zm-.18.22L4 9.3l1.45 1.64.12-.14.13-3.48-.04-.1Zm7.13 3.47L14 9.29l-1.56-1.97.35 3.37Z" fill="#fff"/></svg>