<!-- by TradingView --><svg width="18" height="18" viewBox="0 0 18 18" xmlns="http://www.w3.org/2000/svg"><path fill="#F0F3FA" d="M0 0h18v18H0z"/><path d="M7.94 12.6A9.74 9.74 0 0 0 9.58 16c0-.13-.02-.45-.1-.65-1.62-2.1-1.19-2.91-1.19-3.21 0-.3-.58-.7-1.09-.7-.4 0-.74-.07-.86-.14.19-.03.57-.22.9-.22a2.84 2.84 0 0 0-1.42-.58c.17-.02.43-.12.7-.12a2.41 2.41 0 0 0-1.4-.63c.05-.05.35-.07.88-.07-.36-.4-.97-.64-1.24-.7l.47-.08-.47-.63.77.58c.02-.02.05-.12.05-.4.16.2.24.55.24.7l.62.8c.04-.1.13-.3.09-.63.25.1.27.68.27.88 0 .16.3.45.44.55v-.72c.06.06.22.26.22.42 0 .32.27.63.4.75a.86.86 0 0 1 .08-.47c.04.2.26.47.38.62.03-.03.1-.2.1-.6 0-.5-.45-.75-.66-1.25.29.08.6.37.7.5v-.35c-.21-.27-.65-.79-.7-1.03.2.08.59.36.76.53V8.4c0-.55-.1-.5-.4-.95-.25-.36-.24-.48-.2-.5.14.07.5.26.75.5 0-1.35-.15-1.4-.4-2.05.32.24.47.53.5.65l.3-1.45v1.1c.1-.1.33-.28.41-.2a3.33 3.33 0 0 0-.56 1.9l.56-.45-.56 1.25-.05.65.66-.58-.76 1.4.58-.35-.7 1.18.7-.47-.7 1.23 1.06-.76c.01-.27.15-.94.35-1.18v.85l.43-.27c.02-.23.07-.88.27-1.28 0 .36.07.83.09.98l.3-.35c.04-.23.16-.82.32-.98-.08.16-.03.57 0 .7.14-.11.42-.41.54-.57.07-.4.27-.8.36-.95l.1.6 1.12-.83-.46.58.46-.06c-.14.12-.48.37-.77.41a1 1 0 0 0-.6.4h.9c-.25.25-.85.3-1.06.3-.16 0-.45.3-.59.47.14 0 .5.05.9.13-.26.2-.96.23-1.12.23-.12 0-.42.21-.55.35h1c-.36.24-1.22.55-1.64.67.18.05.46.15.7.15-.4.2-.87.23-1.08.23-.2 0-1.03.42-1.03 1.67 0 1 .53 1.78.83 2.05.1.05.26.08.1-.2a2.6 2.6 0 0 1-.66-1.85c.19.13.68.44 1.17.44.48 0 1.1-.25 1.38-.35-.1-.05-.35-.25-.35-.53 0-.56 2.18-1.2 3.17-1.46-.2-.08-.7-.3-.7-.82s.79-1.33 1.16-1.63c-.17-.07-.46-.26-.46-.5 0-.3.46-1.29.71-1.74-.56.45-2.13.49-2.48.49-.36 0-1.01.65-1.37.65-.35 0-.25-.4-.15-.75.08-.28.15-1.33.12-1.8-.09.04-.47.2-.7.36 0-.6-.74-1.11-.84-1.41a1.43 1.43 0 0 1 0-.7 3 3 0 0 0-.8.9c-.41.25-1.12 1.35-1.37 1.35-.2 0-.41-.1-.53-.15v2c-.12.13-.4.47-.53.47-.15 0-1.48-.37-2.03-.57A3.25 3.25 0 0 0 3 6.9c.17.18.5.64.5 1s-.11.62-.15.72c.1.23.36.82.36 1.06 0 .3-.15.47-.36.87 1.07.65 2.12 1.25 2.12 2.05 0 .64-.25.9-.35.94.82-.23 2.58-.74 2.82-.94Z" fill="#005028"/></svg>