<!-- by TradingView --><svg width="56" height="56" viewBox="0 0 56 56" xmlns="http://www.w3.org/2000/svg"><path fill="#F0F3FA" d="M0 0h56v56H0z"/><path d="m13 41 1.25-8h2.42l.6 5.46 2.3-5.46H22l-1.25 8h-1.5l.98-6.3-2.57 6.3h-1.57l-.6-6.3-.98 6.3H13Zm12-2.65 1.42-.15c.01.99.46 1.48 1.33 1.48.43 0 .79-.1 1.06-.3.28-.2.44-.45.48-.75a.7.7 0 0 0-.07-.45.76.76 0 0 0-.35-.3 8.74 8.74 0 0 0-1.22-.4 4.03 4.03 0 0 1-1.26-.54 1.7 1.7 0 0 1-.57-.76 2 2 0 0 1-.1-1.02 2.45 2.45 0 0 1 1.48-1.9c.4-.17.87-.26 1.42-.26.84 0 1.46.2 1.86.6.42.41.58.99.5 1.74l-1.44.07c0-.42-.1-.7-.28-.87-.19-.16-.47-.25-.86-.25-.38 0-.69.07-.91.22a.79.79 0 0 0-.4.54.6.6 0 0 0 .21.53c.17.14.58.3 1.24.47.69.19 1.18.39 1.47.6.29.2.5.46.62.79a2.72 2.72 0 0 1-.85 2.88c-.52.45-1.28.68-2.26.68-1.73 0-2.57-.88-2.52-2.65Zm14.37-.33 1.22.48c-.31.87-.73 1.5-1.25 1.9-.52.4-1.12.6-1.8.6-.85 0-1.5-.32-1.95-.95-.52-.74-.7-1.73-.53-2.98a5.36 5.36 0 0 1 1.33-3.1 3.05 3.05 0 0 1 2.29-.97c.73 0 1.31.24 1.75.73.3.34.5.86.57 1.53l-1.36.37a1.46 1.46 0 0 0-.37-.96c-.22-.22-.5-.34-.84-.34-.48 0-.9.2-1.27.62-.36.4-.6 1.08-.72 2.02-.13.97-.07 1.67.17 2.08.25.41.6.62 1.09.62.35 0 .66-.14.95-.4.3-.26.53-.68.72-1.25ZM13.52 15H22l-2.52 16H11l2.52-16Zm11 0H33l-2.52 16H22l2.52-16Zm11 0H44l-2.52 16H33l2.52-16Z" fill="#464B89"/></svg>