<!-- by TradingView --><svg width="18" height="18" viewBox="0 0 18 18" fill="none" xmlns="http://www.w3.org/2000/svg">
<rect width="18" height="18" fill="#F0F3FA"/>
<path fill-rule="evenodd" clip-rule="evenodd" d="M8 5V10.595C8 11.371 8.53455 12 9.19396 12H9.5V11.3333H9.22954C8.88117 11.3333 8.59877 10.9268 8.59877 10.5168V5H8ZM9.79997 7H8.59998V7.66667H9.79997V7ZM3 12V7.48983C3 6.66702 3.58858 6 4.31464 6C4.71711 6 5.05875 6.20497 5.28332 6.52782C5.50789 6.20497 5.84953 6 6.25201 6C6.97806 6 7.56664 6.66702 7.56664 7.48983V12H6.9958V7.35486C6.9958 6.96052 6.60604 6.625 6.25807 6.625C5.9101 6.625 5.56872 6.96052 5.56872 7.35486V7.48111L5.56874 7.48983V12H5.56872H4.99791H4.99789V7.48983L4.99791 7.48111V7.47297C4.99791 6.90675 4.66867 6.625 4.32069 6.625C3.97272 6.625 3.57083 6.82528 3.57083 7.47297V12H3ZM10.4058 7.48983V12H10.98V7.47297C10.98 6.82528 11.3844 6.625 11.7344 6.625C12.0838 6.625 12.4144 6.9056 12.4157 7.46953L12.4156 7.48983V12H12.4157H12.9899H12.99V7.48983L12.9899 7.46915V7.35486C12.9899 6.96052 13.3333 6.625 13.6834 6.625C14.0335 6.625 14.4256 6.96052 14.4256 7.35486V12H14.9999V7.48983C14.9999 6.66702 14.4078 6 13.6773 6C13.2724 6 12.9288 6.20494 12.7028 6.52776C12.4769 6.20494 12.1332 6 11.7283 6C10.9979 6 10.4058 6.66702 10.4058 7.48983Z" fill="#1E580B"/>
</svg>
