<!-- by TradingView --><svg width="18" height="18" viewBox="0 0 18 18" xmlns="http://www.w3.org/2000/svg"><path fill="#F0F3FA" d="M0 0h18v18H0z"/><path fill-rule="evenodd" d="m9.48 7.87-.08-.03v.35h-.06v.5h-.48l.29.31H10v.16a.5.5 0 0 0-.17.1h-1a.7.7 0 0 0-.07-.2L8.75 9h.1l-.57-.52h-.72v.26h.15a.72.72 0 0 0-.38.63c0 .4.34.73.75.73.32 0 .6-.2.7-.47h.89a.5.5 0 0 0 .5.47.5.5 0 0 0 .5-.49.5.5 0 0 0-.52-.48v-.36a.07.07 0 0 0-.07-.07h-.54v-.5h-.06v-.33ZM8.08 9.8c.24 0 .44-.2.44-.43 0-.23-.2-.42-.44-.42a.43.43 0 0 0-.44.42c0 .24.2.43.44.43Zm0-.17c.15 0 .27-.12.27-.26a.26.26 0 0 0-.27-.26.26.26 0 0 0-.26.26c0 .14.12.26.26.26Zm2.09.27c.16 0 .29-.13.29-.29a.29.29 0 0 0-.3-.28c-.15 0-.29.13-.29.28 0 .16.14.29.3.29Zm0-.12c.1 0 .17-.07.17-.17s-.07-.17-.17-.17-.18.08-.18.17c0 .1.08.17.18.17Z" fill="#201B17"/><path d="M3 11h1.88l3.04-4.9.17.24L4.11 13h10.01l-.88-1.61H6.95l.17-.39H15l-4.9-8-.98 1.63 3.08 5.14h-.34L8 3.25 3 11Zm6 0a2 2 0 1 1 0-4 2 2 0 0 1 0 4Z" fill="#DA251C"/></svg>