<!-- by TradingView --><svg width="18" height="18" viewBox="0 0 18 18" fill="none" xmlns="http://www.w3.org/2000/svg">
<rect width="18" height="18" fill="#F0F3FA"/>
<path fill-rule="evenodd" clip-rule="evenodd" d="M2.58336 7C2.26118 7 2 7.25185 2 7.56252V10.5551C2 10.8658 2.26118 11.1176 2.58336 11.1176H6V11.7991C6 11.9101 6.11193 12 6.25001 12H11.75C11.8881 12 12 11.9101 12 11.7991V11.1176H15.4166C15.7388 11.1176 16 10.8658 16 10.5551V7.56252C16 7.25185 15.7388 7 15.4166 7H2.58336ZM12 10.7564H15.2012C15.4566 10.7564 15.6636 10.5769 15.6636 10.3554V7.76219C15.6636 7.54077 15.4566 7.36127 15.2012 7.36127H2.79905C2.54368 7.36127 2.33667 7.54077 2.33667 7.76219V10.3554C2.33667 10.5769 2.54368 10.7564 2.79905 10.7564H6V10.7303C6 10.6194 6.11193 10.5294 6.25001 10.5294H11.75C11.8881 10.5294 12 10.6194 12 10.7303V10.7564ZM6.27598 10.834C6.27598 10.7605 6.36061 10.7009 6.46501 10.7009H11.5353C11.6397 10.7009 11.7243 10.7605 11.7243 10.834V11.6954C11.7243 11.7689 11.6397 11.8285 11.5353 11.8285H6.46501C6.36061 11.8285 6.27598 11.7689 6.27598 11.6954V10.834Z" fill="#7D858C"/>
<path opacity="0.7" fill-rule="evenodd" clip-rule="evenodd" d="M15 8H3V10H15V8ZM11.5 10.7H6.5V11.7H11.5V10.7Z" fill="#EE1F25"/>
</svg>
