<!-- by TradingView --><svg width="18" height="18" viewBox="0 0 18 18" fill="none" xmlns="http://www.w3.org/2000/svg">
<rect width="18" height="18" fill="#F0F3FA"/>
<path d="M2.0299 9.62604C1.96279 9.20377 1.96523 8.35923 2.51186 8.35923C3.05848 8.35923 3.1138 8.73849 3.07313 8.92812C2.96738 9.21354 2.75223 9.79259 2.73759 9.82544C2.71929 9.86649 2.57287 10.494 2.823 10.4706C3.07313 10.4471 3.06703 10.06 3.28055 9.91927C3.49408 9.77852 3.75641 9.33866 3.6954 9.13339C3.6466 8.96917 3.59372 8.79518 3.57339 8.72871L3.31716 8.92812C3.29275 8.93594 3.25127 8.91991 3.28055 8.79323C3.31716 8.63488 3.40257 8.48826 3.31716 8.45307C3.23175 8.41788 3.14634 8.58209 3.14634 8.48826C3.14634 8.41319 3.21141 8.14028 3.24395 8.01321L2.97552 8.2478L3.14634 7.75515L2.823 7.97215C2.80063 7.9135 2.79982 7.75046 2.97552 7.56747L2.823 7.53815V7.35048L2.73759 7.29183L3.07313 7.0807C3.06499 7.03573 3.03408 6.95402 2.97552 6.98686C2.91695 7.0197 2.82097 7.0631 2.78029 7.0807L3.14634 6.82851L3.01212 6.72881L2.90231 6.764C2.94172 6.71285 3.07985 6.58896 3.31709 6.50257C3.61364 6.39459 3.69451 5.99721 3.77089 6.04472C3.832 6.08273 3.87723 6.18726 3.89221 6.23477C3.9611 6.12679 4.10608 5.93328 4.13484 6.02312C4.16359 6.11297 4.19474 6.20166 4.20673 6.23477L4.68082 6.45544L4.80634 6.764L5.1913 6.98686C5.17456 7.0618 5.11431 7.21006 5.00719 7.20362C4.90007 7.19719 4.70034 7.15804 4.61387 7.13926C4.70871 7.19402 4.95698 7.32699 5.1913 7.42084C5.42562 7.51469 5.57347 7.41304 5.6181 7.35048C5.67947 7.40326 5.7838 7.5147 5.71015 7.53815C5.6181 7.56747 5.40051 7.59679 5.24151 7.56747C5.11431 7.54402 4.8984 7.43849 4.80634 7.38866L4.44649 7.49325C4.38791 7.50934 4.32933 7.59944 4.56365 7.83114C4.79798 8.06283 4.95698 8.20545 5.00719 8.2478L5.04903 8.48826L5.1913 8.2478H5.45073C5.54836 8.15718 5.78882 7.94698 5.96958 7.83114C6.19553 7.68633 6.14532 7.20362 6.27085 7.20362C6.39477 7.20362 6.46976 7.41355 6.42335 7.49033C6.45817 7.44692 6.56536 7.33737 6.67254 7.42084C6.82318 7.53815 6.83154 7.75515 6.72275 7.75515C6.63572 7.75515 6.79249 7.83262 6.88176 7.87136C6.89291 7.86938 6.83322 7.89498 6.50517 8.01321C6.17712 8.13143 5.62647 8.72413 5.39215 9.00571C5.4842 9.09083 5.76873 9.23553 6.17042 9.13339C6.57212 9.03124 6.75623 9.00571 6.79807 9.00571C6.81481 8.87967 6.8851 8.62116 7.03239 8.59541C7.17968 8.56967 7.3504 8.64368 7.41735 8.68391L7.28345 9.00571C7.38945 8.99766 7.60815 9.00249 7.63493 9.08616C7.6684 9.19074 7.68514 9.27924 7.52614 9.31946C7.39893 9.35164 7.31134 9.42941 7.28345 9.46427C7.30297 9.53132 7.2801 9.63483 7.03239 9.51254C6.72275 9.35969 6.37127 9.35969 5.911 9.46427C5.45073 9.56886 5.39215 9.50807 5.29172 9.71367C5.21138 9.87815 5.1913 10.0343 5.1913 10.0918L5.71015 10.0194C5.77989 10.0627 5.90932 10.2137 5.86916 10.4706C5.82899 10.7275 5.62926 11.0438 5.53441 11.1698C5.5121 11.2476 5.52939 11.3999 5.7771 11.387C6.02481 11.3742 6.20948 11.151 6.27085 11.0411L6.57212 10.9848L6.50517 11.6686C6.32385 11.7062 5.87585 11.77 5.53441 11.7249C5.19297 11.6799 5.04066 11.6203 5.00719 11.5962C5.0853 11.4782 5.24151 11.1907 5.24151 10.9848C5.24151 10.7273 5.16619 10.6228 4.86492 10.5182C4.62391 10.4345 4.48555 10.3868 4.44649 10.3734C4.5246 10.4779 4.65738 10.7467 4.56365 10.9848C4.46993 11.2229 4.37397 11.3522 4.3377 11.387C4.06991 11.5104 3.51758 11.7957 3.45063 11.9502C3.38368 12.1046 3.69053 12.1915 3.85232 12.2157C3.8858 12.1969 3.95944 12.1706 3.98622 12.2157C4.0197 12.272 4.50508 12.1835 4.61387 12.2639C4.7009 12.3283 4.75174 12.3546 4.76628 12.3597C4.66688 12.338 4.46375 12.3164 4.44649 12.4029C4.42492 12.5111 4.86757 12.4751 4.83006 12.6518C4.80005 12.7931 4.50245 12.9102 4.3574 12.9511C4.3599 12.8693 4.33939 12.7059 4.23736 12.7059C4.13532 12.7059 4.13732 12.891 4.15108 12.9835C4.10061 13.01 3.98494 13.0239 3.926 12.8681C3.85232 12.6734 3.80971 12.6698 3.75719 12.6518C3.71518 12.6373 3.57213 12.5688 3.50586 12.5364C3.44209 12.2936 3.25303 11.7711 3.00694 11.624C3.14199 11.4671 3.39782 11.1196 3.3408 10.9848C3.26953 10.8162 3.23202 10.7585 2.93192 10.6792C2.63182 10.5998 2.47051 10.6106 2.47051 10.1887C2.47051 9.85118 2.7431 9.31962 2.8794 9.09604C2.94692 8.83207 2.98143 8.33393 2.5793 8.45307C2.17716 8.5722 2.30421 9.06598 2.41799 9.29798C2.40435 9.37724 2.30763 9.55382 2.0299 9.62604Z" fill="#CF991F"/>
<path d="M15.9701 9.62604C16.0372 9.20377 16.0348 8.35923 15.4881 8.35923C14.9415 8.35923 14.8862 8.73849 14.9269 8.92812C15.0326 9.21354 15.2478 9.79259 15.2624 9.82544C15.2807 9.86649 15.4271 10.494 15.177 10.4706C14.9269 10.4471 14.933 10.06 14.7194 9.91927C14.5059 9.77852 14.2436 9.33866 14.3046 9.13339C14.3534 8.96917 14.4063 8.79518 14.4266 8.72871L14.6828 8.92812C14.7072 8.93594 14.7487 8.91991 14.7194 8.79323C14.6828 8.63488 14.5974 8.48826 14.6828 8.45307C14.7683 8.41788 14.8537 8.58209 14.8537 8.48826C14.8537 8.41319 14.7886 8.14028 14.7561 8.01321L15.0245 8.2478L14.8537 7.75515L15.177 7.97215C15.1994 7.9135 15.2002 7.75046 15.0245 7.56747L15.177 7.53815V7.35048L15.2624 7.29183L14.9269 7.0807C14.935 7.03573 14.9659 6.95402 15.0245 6.98686C15.0831 7.0197 15.179 7.0631 15.2197 7.0807L14.8537 6.82851L14.9879 6.72881L15.0977 6.764C15.0583 6.71285 14.9201 6.58896 14.6829 6.50257C14.3864 6.39459 14.3055 5.99721 14.2291 6.04472C14.168 6.08273 14.1228 6.18726 14.1078 6.23477C14.0389 6.12679 13.8939 5.93328 13.8652 6.02312C13.8364 6.11297 13.8053 6.20166 13.7933 6.23477L13.3192 6.45544L13.1937 6.764L12.8087 6.98686C12.8254 7.0618 12.8857 7.21006 12.9928 7.20362C13.0999 7.19719 13.2997 7.15804 13.3861 7.13926C13.2913 7.19402 13.043 7.32699 12.8087 7.42084C12.5744 7.51469 12.4265 7.41304 12.3819 7.35048C12.3205 7.40326 12.2162 7.5147 12.2898 7.53815C12.3819 7.56747 12.5995 7.59679 12.7585 7.56747C12.8857 7.54402 13.1016 7.43849 13.1937 7.38866L13.5535 7.49325C13.6121 7.50934 13.6707 7.59944 13.4363 7.83114C13.202 8.06283 13.043 8.20545 12.9928 8.2478L12.951 8.48826L12.8087 8.2478H12.5493C12.4516 8.15718 12.2112 7.94698 12.0304 7.83114C11.8045 7.68633 11.8547 7.20362 11.7292 7.20362C11.6052 7.20362 11.5302 7.41355 11.5767 7.49033C11.5418 7.44692 11.4346 7.33737 11.3275 7.42084C11.1768 7.53815 11.1685 7.75515 11.2772 7.75515C11.3643 7.75515 11.2075 7.83262 11.1182 7.87136C11.1071 7.86938 11.1668 7.89498 11.4948 8.01321C11.8229 8.13143 12.3735 8.72413 12.6079 9.00571C12.5158 9.09083 12.2313 9.23553 11.8296 9.13339C11.4279 9.03124 11.2438 9.00571 11.2019 9.00571C11.1852 8.87967 11.1149 8.62116 10.9676 8.59541C10.8203 8.56967 10.6496 8.64368 10.5827 8.68391L10.7166 9.00571C10.6105 8.99766 10.3919 9.00249 10.3651 9.08616C10.3316 9.19074 10.3149 9.27924 10.4739 9.31946C10.6011 9.35164 10.6887 9.42941 10.7166 9.46427C10.697 9.53132 10.7199 9.63483 10.9676 9.51254C11.2772 9.35969 11.6287 9.35969 12.089 9.46427C12.5493 9.56886 12.6079 9.50807 12.7083 9.71367C12.7886 9.87815 12.8087 10.0343 12.8087 10.0918L12.2898 10.0194C12.2201 10.0627 12.0907 10.2137 12.1308 10.4706C12.171 10.7275 12.3707 11.0438 12.4656 11.1698C12.4879 11.2476 12.4706 11.3999 12.2229 11.387C11.9752 11.3742 11.7905 11.151 11.7292 11.0411L11.4279 10.9848L11.4948 11.6686C11.6762 11.7062 12.1241 11.77 12.4656 11.7249C12.807 11.6799 12.9593 11.6203 12.9928 11.5962C12.9147 11.4782 12.7585 11.1907 12.7585 10.9848C12.7585 10.7273 12.8338 10.6228 13.1351 10.5182C13.3761 10.4345 13.5145 10.3868 13.5535 10.3734C13.4754 10.4779 13.3426 10.7467 13.4363 10.9848C13.5301 11.2229 13.626 11.3522 13.6623 11.387C13.9301 11.5104 14.4824 11.7957 14.5494 11.9502C14.6163 12.1046 14.3095 12.1915 14.1477 12.2157C14.1142 12.1969 14.0406 12.1706 14.0138 12.2157C13.9803 12.272 13.4949 12.1835 13.3861 12.2639C13.2991 12.3283 13.2483 12.3546 13.2337 12.3597C13.3331 12.338 13.5362 12.3164 13.5535 12.4029C13.5751 12.5111 13.1324 12.4751 13.1699 12.6518C13.2 12.7931 13.4976 12.9102 13.6426 12.9511C13.6401 12.8693 13.6606 12.7059 13.7626 12.7059C13.8647 12.7059 13.8627 12.891 13.8489 12.9835C13.8994 13.01 14.0151 13.0239 14.074 12.8681C14.1477 12.6734 14.1903 12.6698 14.2428 12.6518C14.2848 12.6373 14.4279 12.5688 14.4941 12.5364C14.5579 12.2936 14.747 11.7711 14.9931 11.624C14.858 11.4671 14.6022 11.1196 14.6592 10.9848C14.7305 10.8162 14.768 10.7585 15.0681 10.6792C15.3682 10.5998 15.5295 10.6106 15.5295 10.1887C15.5295 9.85118 15.2569 9.31962 15.1206 9.09604C15.0531 8.83207 15.0186 8.33393 15.4207 8.45307C15.8228 8.5722 15.6958 9.06598 15.582 9.29798C15.5956 9.37724 15.6924 9.55382 15.9701 9.62604Z" fill="#CF991F"/>
<path d="M6.81055 9.90183C6.81055 11.3842 7.44102 12.5849 7.75625 13H10.356C10.7057 12.6692 11.4051 11.6594 11.4051 10.2668C11.4051 8.87425 10.7942 7.7587 10.4888 7.375H7.75625C7.44102 7.74935 6.81055 8.7788 6.81055 9.90183Z" fill="#CF991F"/>
<path opacity="0.5" fill-rule="evenodd" clip-rule="evenodd" d="M9.05605 4C9.49691 4.82586 10.1185 6.60491 9.07818 7.11425C8.67096 6.98919 8.09643 6.19125 9.05605 4ZM11.7996 5.02533C11.6939 5.84631 11.2106 7.41249 10.1231 7.10936C9.87388 6.77502 9.86029 5.89015 11.7996 5.02533ZM6.23438 5.02533C6.3401 5.84631 6.82343 7.41249 7.91091 7.10936C8.16012 6.77503 8.17371 5.89016 6.23438 5.02533Z" fill="#CF991F"/>
</svg>
