<!-- by TradingView --><svg width="56" height="56" viewBox="0 0 56 56" xmlns="http://www.w3.org/2000/svg"><path fill="#F0F3FA" d="M0 0h56v56H0z"/><path d="m17.5 24-.5 2-1.46 1.95L17 21l1.5 3h-1Z" fill="#441708"/><path d="m36 21-2 .5 2.5-3.5 3.5 7.5-3-1.5-1-3Z"/><path d="M20 24h-2.5l1 5 1.5-5Z" fill="url(#a)"/><path d="m36 21-6 1.5 2.5 5L36 21Z" fill="url(#b)"/><path d="M20 24h-1.5l2-7.5L24 24l5-8 3 6-2 .5-1-3-5 7.5-3.5-5.5L20 24Z" fill="url(#c)"/><path d="m24 24 .5-15L40 14.5v11L36.5 18l-4 6.5L29 16l-5 8Z" fill="url(#d)"/><path d="M15 17c.17 3.5.5 10.6.5 11l1.5-7 1.5 4 2-8.5L24 24l.5-15-9.5 8Z" fill="url(#e)"/><path d="M17.5 31.5 16 37l1.5-2 3 1 .5-3h2l-2-4-2 6-1.5-3.5Z" fill="url(#f)"/><path d="m29 32-4 1 4-5.5 3.5 7h-2L29 32Z" fill="url(#g)"/><path d="m36 28-3.5 6.5L36 33l4 4-4-9Z" fill="url(#h)"/><path d="M20 41.5 18 35l2 .5 1-2.5-1 8.5ZM23 33h-2l3.5 5.5L29 32l-4 1-1 2-1-2ZM32.5 34.5h-2l2.5 4 3-5.5-3.5 1.5Z"/><path d="M16 42v2.5l9-4L40 43v-4l-4-6-3 5.5-4-6.5-4.5 6.5L21 33l-1 8.5-2-6.5-2 7Z" fill="url(#i)"/><path d="m25 40.5-9 4 5 .5h14l5-2-15-2.5Z" fill="url(#j)"/><path d="M15.5 32c0 .4.33 3.5.5 5l1.5-5.5L19 35l2-6 3 6 5-7.5 3.5 7L36 28l4 9v-7.5L36 21l-3.5 6.5-3.5-8-5 7.5-3.5-5.5-2 7.5-1-5c-.67 2.5-2 7.6-2 8Z" fill="#F55711"/><defs><linearGradient id="a" x1="18.75" y1="24" x2="18.75" y2="28.5" gradientUnits="userSpaceOnUse"><stop stop-color="#C34B0C"/><stop offset="1" stop-color="#7F2D11"/></linearGradient><linearGradient id="b" x1="32.25" y1="23" x2="32.25" y2="27.5" gradientUnits="userSpaceOnUse"><stop stop-color="#C34B0C"/><stop offset="1" stop-color="#7F2D11"/></linearGradient><linearGradient id="c" x1="25.25" y1="16" x2="25.25" y2="27" gradientUnits="userSpaceOnUse"><stop/><stop offset="1" stop-color="#97360C"/></linearGradient><linearGradient id="d" x1="39.5" y1="22" x2="24.07" y2="21.35" gradientUnits="userSpaceOnUse"><stop stop-color="#E1E1E1"/><stop offset=".31" stop-color="#FAFAFA"/><stop offset=".63" stop-color="#ABA7A8"/><stop offset="1" stop-color="#EDEDED"/></linearGradient><linearGradient id="e" x1="24" y1="16.5" x2="15.5" y2="22.5" gradientUnits="userSpaceOnUse"><stop stop-color="#CCC"/><stop offset="1" stop-color="#5C5C5C"/></linearGradient><linearGradient id="f" x1="19.5" y1="29" x2="19.5" y2="37" gradientUnits="userSpaceOnUse"><stop stop-color="#591B06"/><stop offset="1" stop-color="#F44A17"/></linearGradient><linearGradient id="g" x1="29" y1="27.5" x2="29" y2="34.5" gradientUnits="userSpaceOnUse"><stop stop-color="#702806"/><stop offset="1" stop-color="#F55711"/></linearGradient><linearGradient id="h" x1="34" y1="31" x2="39" y2="34.5" gradientUnits="userSpaceOnUse"><stop stop-color="#6A270C"/><stop offset="1" stop-color="#F8530F"/></linearGradient><linearGradient id="i" x1="38.5" y1="40" x2="16" y2="41" gradientUnits="userSpaceOnUse"><stop offset=".42" stop-color="#D9D9D9"/><stop offset=".68" stop-color="#ADADAD"/><stop offset="1" stop-color="#1F1F1F"/></linearGradient><linearGradient id="j" x1="16" y1="42.75" x2="40" y2="42.75" gradientUnits="userSpaceOnUse"><stop stop-color="#040404"/><stop offset=".39" stop-color="#E7E7E7"/><stop offset="1"/></linearGradient></defs></svg>