<!-- by TradingView --><svg width="56" height="56" viewBox="0 0 56 56" xmlns="http://www.w3.org/2000/svg"><path fill="#F0F3FA" d="M0 0h56v56H0z"/><path d="M45 27.97a17 17 0 1 1-34 .06 17 17 0 0 1 34-.06Zm-.54.06a16.46 16.46 0 1 0-32.92-.06 16.46 16.46 0 0 0 32.92.06Z" fill="#0F793D"/><path d="M44 28.08a16 16 0 1 1-32-.16 16 16 0 0 1 32 .16ZM26.57 15.1c.87-.07.8.84 1.02.83h.03a.07.07 0 0 0 .03-.04v-.03c0-.2-.1-1.92-.14-1.95a.11.11 0 0 0-.13 0 .13.13 0 0 0-.07.11c0 .52-.26.8-.77.83-.04 0-.06-.02-.07-.06a27 27 0 0 1-.08-1.25c0-.18.1-.28.3-.31.8-.13 1.29.14 1.5.81 0 .02.02.04.04.05l.03.02a.07.07 0 0 0 .07 0 .07.07 0 0 0 .03-.06l-.07-1.11c0-.05-.03-.07-.08-.07l-3.3.23c-.07 0-.09.05-.07.12.01.04.04.06.08.06.3-.02.45.12.48.43a79.36 79.36 0 0 1 .2 3.04l-.04.05c-.07.07-.44.18-.44.22 0 .08.03.12.1.12l3.32-.23c.04 0 .07-.03.07-.07l.14-1.12a.1.1 0 0 0-.01-.07.1.1 0 0 0-.14-.04.1.1 0 0 0-.04.06c-.3.82-.89 1.18-1.77 1.1a.12.12 0 0 1-.11-.08 4.9 4.9 0 0 1-.18-1.51c0-.05.02-.07.07-.08Zm4.45.36c.5.12.7.45.61.98a.13.13 0 0 0 .04.11.12.12 0 0 0 .11.03c.04 0 .47-1.67.52-1.87a.1.1 0 0 0-.06-.12.1.1 0 0 0-.11.06c-.2.45-.51.76-1.05.56-.04-.01-.05-.04-.04-.08l.36-1.3a.18.18 0 0 1 .2-.14c.97.15 1.2.41 1.33 1.35a.07.07 0 0 0 .06.07c.02 0 .04 0 .05-.02a.07.07 0 0 0 .03-.04l.28-1.1v-.03l-.01-.01-.02-.01c-.36-.1-3.22-.93-3.32-.8a.07.07 0 0 0 0 .1l.04.02c.31.06.43.23.36.5l-.75 2.79c-.07.26-.25.35-.53.25-.03-.02-.06 0-.08.03l-.04.07a.06.06 0 0 0 0 .05.06.06 0 0 0 .04.03l3.27.88h.05l.04-.04.5-1.03.01-.04a.05.05 0 0 0-.02-.03l-.06-.04a.09.09 0 0 0-.06-.01.1.1 0 0 0-.06.03c-.53.67-1.2.82-2 .46a.15.15 0 0 1-.1-.09c-.08-.28.24-1.2.32-1.52.02-.05.04-.06.09-.05Zm-11.76 1.07v-.03a.04.04 0 0 1 .04-.04l.03.01 2.77 2.14a.1.1 0 0 0 .1 0 .1.1 0 0 0 .05-.1l-.39-3.63c-.01-.1 0-.1.05-.02.5.87.98 1.75 1.45 2.63.03.05.02.1-.02.15l-.27.27a.1.1 0 0 0-.03.09v.03c.01.05.04.06.08.04l1.67-.92c.05-.03.06-.07.01-.12l-.02-.02c-.03-.03-.05-.03-.09-.02a.6.6 0 0 1-.41.04.2.2 0 0 1-.13-.1l-1.47-2.67a.22.22 0 0 1-.02-.15.51.51 0 0 1 .24-.33.09.09 0 0 0 .04-.1v-.05a.06.06 0 0 0-.03-.05.06.06 0 0 0-.06 0l-1.23.69a.1.1 0 0 0-.05.1l.3 2.85-.01.03a.04.04 0 0 1-.04.02l-.02-.01-2.26-1.77a.1.1 0 0 0-.12 0l-1.24.7a.06.06 0 0 0-.03.02.06.06 0 0 0 .01.07l.04.02c.1.02.2 0 .3-.06a.23.23 0 0 1 .32.1l1.26 2.24c.22.4.48.7-.02.99-.04.02-.04.05-.01.08.1.1 1.34-.55 1.24-.7a.07.07 0 0 0-.07-.04h-.03c-.3.19-.52.14-.67-.13l-1.26-2.25Zm14.7 2.02a.05.05 0 0 1-.01-.08l.02-.01 3.87-1.7a.07.07 0 0 0 .04-.07.07.07 0 0 0-.03-.07l-2.47-1.73a.07.07 0 0 0-.1.01l-.72.84c-.04.05-.03.09.01.12l.04.04a.09.09 0 0 0 .12 0c.74-.68 1.3-.25 1.98.21a.06.06 0 0 1 .01.08l-.02.02-3.9 1.7a.07.07 0 0 0-.04.05V18l.03.02 2.76 1.93.05.01c.02 0 .03 0 .04-.02l.89-1a.08.08 0 0 0 .02-.06.08.08 0 0 0-.03-.05c-.1-.1-.9.6-1.41.37-.41-.18-.8-.4-1.15-.65Zm4.19 9.52a10.16 10.16 0 1 0-20.31-.11 10.16 10.16 0 0 0 20.31.1Zm0-6.55-.37.53a.22.22 0 0 1-.2.1.22.22 0 0 1-.18-.13c-.05-.1-.12-.14-.22-.14a.05.05 0 0 0-.04.03.06.06 0 0 0 0 .05l1.06 1.53c.04.06.08.06.12 0a.3.3 0 0 0 .01-.28.17.17 0 0 1 0-.13c.09-.19.19-.37.3-.54a920.64 920.64 0 0 1 1.84-3 .14.14 0 0 0-.08-.11 321.2 321.2 0 0 1-3.6.8c-.29.06-.51.08-.74-.1a.08.08 0 0 0-.1 0 .09.09 0 0 0-.02.12c.09.12.6.92.68.93h.05c.03-.02.05-.04.04-.08l-.07-.4c0-.06.02-.1.08-.12l.64-.2a.12.12 0 0 1 .13.05l.68.95a.12.12 0 0 1 0 .14ZM15.2 20.08l.13-.28a.1.1 0 0 0-.04-.12.09.09 0 0 0-.12.03l-1.07 1.67a.08.08 0 0 0 .01.1.07.07 0 0 0 .1 0l.22-.18a.3.3 0 0 1 .36-.03l2.48 1.6c.37.25.02.47.08.68l.02.04a.08.08 0 0 0 .09.01c.01 0 .03-.01.03-.03l1.83-2.8c.02-.04.02-.08-.02-.12l-.93-.84a.1.1 0 0 0-.13 0 .1.1 0 0 0-.01.14c.57.72.56 1.42-.05 2.12a.14.14 0 0 1-.11.05.83.83 0 0 1-.4-.15c-.77-.5-1.57-1.01-2.38-1.55a.26.26 0 0 1-.1-.34Zm25.42 6.6h-.03a.04.04 0 0 1-.03-.05l.01-.02 1.92-2.4a.14.14 0 0 0 .03-.12l-.24-1.13a.09.09 0 0 0-.08-.07.08.08 0 0 0-.08.07c-.1.42-.31.57-.74.66l-2.3.48c-.31.07-.5-.04-.58-.34 0-.03-.02-.05-.06-.05h-.07a.05.05 0 0 0-.04 0v.03l-.01.02.26 1.25c0 .02.02.04.03.05l.05.01h.05c.03 0 .05-.01.04-.04-.08-.6.27-.61.75-.72a68 68 0 0 1 1.86-.4c.1-.01.11.02.05.1l-2.45 3.07a.1.1 0 0 0-.03.07v.06a.09.09 0 0 0 .04.07.08.08 0 0 0 .07.01l3.36-.71c.29-.06.48.05.57.34 0 .03.02.04.05.04h.06a.06.06 0 0 0 .03-.07l-.25-1.22-.01-.02a.06.06 0 0 0-.06-.02l-.02.02-.05.05a.11.11 0 0 0-.03.08c.02.3-.1.46-.4.52-.57.12-1.13.24-1.67.38Zm-24.1 1.02.22-1.07c.02-.06 0-.09-.07-.09h-.04c-.02 0-.03 0-.04.02a.07.07 0 0 0-.03.04.4.4 0 0 1-.27.32.1.1 0 0 1-.1 0l-.56-.34c-.04-.03-.06-.07-.05-.12l.25-1.13a.1.1 0 0 1 .1-.1c.24-.04.63-.19.83 0a.14.14 0 0 1 .05.1v.28c0 .02 0 .04.02.06a.08.08 0 0 0 .13-.04l.37-1.78a.08.08 0 0 0-.04-.1.08.08 0 0 0-.1.04c-.21.3-.49.32-.92.4a551.67 551.67 0 0 1-3.35.68.11.11 0 0 0-.04.1c0 .01 0 .03.02.04.03.05.08.1.16.16l2.64 1.79c.37.25.6.36.65.74 0 .02.01.03.03.05a.08.08 0 0 0 .13-.05Zm.68 5.07.12.17a.06.06 0 0 0 .07.01s.02-.01.02-.03v-.04l-.39-1h-.01l-.02-.02a.6.6 0 0 1-.04 0h-.02a.03.03 0 0 0-.01.03v.01c.1.2.05.37-.17.46a49 49 0 0 1-1.74.68c-.18.06-.3-.01-.37-.22a.04.04 0 0 0-.04-.03h-.05a.03.03 0 0 0-.01.02v.02c.05.12.4 1.07.44 1.08a.04.04 0 0 0 .04-.01v-.32c0-.06.03-.1.09-.12l1.93-.74a.14.14 0 0 1 .16.05Zm24.23.76c-.29-1.05-1.3-.3-1.87.05-.77.5-.86-1.06.28-.81.03 0 .04 0 .06-.02l.03-.03c.03-.03.03-.05-.01-.06l-.76-.27c-.06-.02-.08 0-.07.06l.04.17a.1.1 0 0 1-.04.12c-.52.4-.5 1.36.29 1.37.52 0 1.13-.84 1.58-.62.35.17.28.61.04.83-.2.19-.5.22-.77.24a.05.05 0 0 0-.04.04.05.05 0 0 0 .03.05l.77.23a.05.05 0 0 0 .05 0l.01-.03v-.03l-.06-.13a.09.09 0 0 1 .02-.1c.26-.26.52-.68.42-1.06ZM17.2 36.16c.19-.61.4-1.21.62-1.8.15-.38.02-.64-.24-.89-.06-.05-.07-.04-.05.03.07.2 0 .37-.19.5-.51.34-1.04.67-1.58.97a.1.1 0 0 1-.12 0l-.22-.17a.04.04 0 0 0-.07.03l.01.03a15.56 15.56 0 0 0 .48.76.06.06 0 0 0 .07-.04v-.05c-.1-.2-.06-.37.14-.48a47.44 47.44 0 0 0 1.3-.8h.02a.04.04 0 0 1 .01.05l-.85 2.47a.06.06 0 0 0 .02.07l.03.01h.04l1.95-1.22a.13.13 0 0 1 .14 0l.2.15c.03.02.05.02.08 0 .09-.05-.42-.82-.48-.8-.03.02-.04.04-.03.08.1.18.04.33-.14.46-.36.23-.72.46-1.1.68-.04.03-.06.01-.04-.04Zm20.47-.55 1.64 1.2a.2.2 0 0 1 .05.28.37.37 0 0 0-.05.14.04.04 0 0 0 .02.04.04.04 0 0 0 .05 0l.64-.88v-.04l-.01-.03a.05.05 0 0 0-.07 0 3.1 3.1 0 0 0-.2.17.09.09 0 0 1-.12 0l-1.7-1.21c-.03-.03-.04-.07-.03-.11.16-.4.42-.5.8-.36a.06.06 0 0 0 .07-.03.06.06 0 0 0-.02-.08l-.45-.3c-.05-.04-.09-.03-.12.01l-1.23 1.7a.1.1 0 0 0-.02.07c0 .02.02.05.04.06l.46.35a.05.05 0 0 0 .07 0 .06.06 0 0 0 0-.08c-.27-.32-.25-.62.08-.9.03-.03.07-.03.1 0ZM19 38.32l.58-1.67a.09.09 0 0 1 .05-.05.09.09 0 0 1 .07 0l.2.08a.05.05 0 0 0 .06-.06l-.01-.03a11.95 11.95 0 0 0-.77-.7.04.04 0 0 0-.03.05c.08.25.1.45.05.59a672.8 672.8 0 0 0-.81 2.3.05.05 0 0 0 .04.05h.02l2.27-1.07c.15-.08.23-.05.38 0a.04.04 0 0 0 .06-.06l-.01-.02a3.12 3.12 0 0 0-.58-.53.04.04 0 0 0-.04.04l.01.02a.4.4 0 0 1 .08.26.14.14 0 0 1-.08.12l-1.47.74c-.07.03-.09 0-.07-.06Zm16.48-.08 2.6.5h.02c.01 0 .02 0 .03-.02a.05.05 0 0 0 0-.06l-1.5-1.79a.15.15 0 0 1 .01-.21.24.24 0 0 0 .1-.19.05.05 0 0 0-.04-.05.05.05 0 0 0-.05 0l-.66.56a.03.03 0 0 0 0 .05l.02.02h.03l.27-.09c.06-.02.1 0 .15.04l.94 1.11a.04.04 0 0 1 0 .05.04.04 0 0 1-.04.02l-2.2-.44a.1.1 0 0 0-.1.02l-.46.38a.04.04 0 0 0 0 .05l.02.03c.01.03.03.03.05.01.1-.1.22-.11.35-.06a.2.2 0 0 1 .1.08l1.25 1.48a.12.12 0 0 1 0 .14c-.06.08-.1.16-.14.24a.06.06 0 0 0 .04.08l.04-.01.67-.57a.05.05 0 0 0-.02-.1l-.03.01-.26.1a.12.12 0 0 1-.13-.03l-1.1-1.28-.01-.03v-.02l.02-.02h.03ZM22 38.52a.1.1 0 0 1 .06-.04.1.1 0 0 1 .07 0l.77.47c.05.03.08.08.07.15l-.03.29.01.03.03.03c.02.02.03.02.05 0l.25-.46c.02-.03.02-.06-.02-.08l-1.8-1h-.04s-.02 0-.03.02v.06l.2.22a.1.1 0 0 1 0 .11l-1 1.82a.13.13 0 0 1-.05.05.13.13 0 0 1-.07.01l-.2-.02a.05.05 0 0 0-.06.03.05.05 0 0 0 .03.06l1.75.97a.1.1 0 0 0 .06.01.1.1 0 0 0 .05-.03l.39-.4a.08.08 0 0 0 0-.1.08.08 0 0 0-.1-.01c-.46.37-.97.05-1.37-.24a.12.12 0 0 1-.04-.07v-.08l.44-.77a.09.09 0 0 1 .05-.04.09.09 0 0 1 .06 0l.62.35c.04.03.06.06.06.11v.31a.05.05 0 0 0 .04.05.05.05 0 0 0 .05-.02l.4-.73a.06.06 0 0 0 0-.06l-.03-.02h-.03a.4.4 0 0 0-.24.16.1.1 0 0 1-.06.04.1.1 0 0 1-.07 0l-.65-.36a.08.08 0 0 1-.03-.1l.4-.72Zm11.4 1.43-.37-.77a.08.08 0 0 1 0-.06.08.08 0 0 1 .04-.04l.83-.38a.13.13 0 0 1 .13.01l.26.22a.05.05 0 0 0 .07-.02v-.04a1.2 1.2 0 0 0-.2-.43c-.03-.05-.07-.06-.12-.04l-1.8.88a.05.05 0 0 0 .03.09l.23-.04c.06-.02.1 0 .13.06l.93 1.87a.1.1 0 0 1-.02.12l-.19.2a.05.05 0 0 0 .03.08h.03l1.84-.9c.05-.02.07-.06.06-.11l-.12-.58s0-.02-.02-.03a.05.05 0 0 0-.06 0l-.02.03-.1.49a.18.18 0 0 1-.1.12l-.81.45c-.06.03-.1.02-.12-.04l-.41-.85a.08.08 0 0 1 .01-.09l.03-.01.65-.31a.1.1 0 0 1 .12.02l.17.17a.08.08 0 0 0 .1.01.08.08 0 0 0 .03-.1l-.34-.7a.06.06 0 0 0-.07-.03.06.06 0 0 0-.05.06 7.58 7.58 0 0 1-.02.34.12.12 0 0 1-.04.05l-.66.33c-.04.01-.06 0-.08-.03Zm-9.8 1.85c.4.3.98.46 1.35.03.55-.65-.43-1.26-.66-1.74-.3-.61.88-.82.94.32 0 .01 0 .02.02.03a.05.05 0 0 0 .06 0l.02-.02.16-.73a.06.06 0 0 0-.01-.05.05.05 0 0 0-.05-.01l-.15.04h-.06a.12.12 0 0 1-.05-.02c-.52-.4-1.2-.5-1.36.33-.1.6 1.35 1.28.63 1.87a.19.19 0 0 1-.13.04c-.54-.05-.8-.36-.8-.91l-.01-.02h-.02a.3.3 0 0 1-.04-.02c-.03 0-.05 0-.05.04l-.13.77v.04l.03.02a.06.06 0 0 0 .08 0 .14.14 0 0 1 .1-.05.2.2 0 0 1 .13.04Zm5.85-1.2 1.23 1.72a.06.06 0 0 0 .06.02.06.06 0 0 0 .05-.04l.51-2.16c.03-.1.05-.1.07 0l.34 1.76c0 .05-.01.09-.06.1l-.22.13a.05.05 0 0 0-.02.06.05.05 0 0 0 .06.03 14.26 14.26 0 0 1 1.04-.21.05.05 0 0 0 0-.08.18.18 0 0 0-.16-.03.17.17 0 0 1-.14-.02.18.18 0 0 1-.08-.12l-.4-1.97c0-.05 0-.1.04-.15a.2.2 0 0 1 .12-.1c.05 0 .1-.03.12-.07.04-.05.03-.07-.03-.06l-.68.13a.11.11 0 0 0-.06.03.12.12 0 0 0-.03.06l-.45 1.96c0 .05-.03.06-.06.01l-1.17-1.63a.12.12 0 0 0-.11-.05 5.25 5.25 0 0 0-.69.13v.04a.05.05 0 0 0 .04.04c.4-.01.35.21.4.5l.3 1.46c.04.26-.04.4-.26.44l-.02.01-.01.03v.03a.03.03 0 0 0 0 .03h.04c.12-.02.85-.12.88-.2.02-.03 0-.05-.04-.05-.2.02-.32-.08-.38-.29a12.3 12.3 0 0 1-.28-1.47c0-.07 0-.08.05-.02Zm-1.9-.43c.43-.07.68.09.75.48.03.12.06.13.1 0 .05-.18.07-.37.04-.57a.09.09 0 0 0-.08-.07l-2.1-.14c-.05 0-.07.02-.08.07l-.05.6a.05.05 0 0 0 0 .03.05.05 0 0 0 .08.01.05.05 0 0 0 .02-.03c.1-.4.37-.54.8-.41.04 0 .06.03.06.07l-.12 1.9c-.01.23-.13.34-.35.33a.04.04 0 0 0-.02.02.47.47 0 0 1-.04.03l-.01.02a.04.04 0 0 0 .01.03l.02.01 1.1.07.02-.01.02-.03v-.03l-.03-.01-.27-.1a.09.09 0 0 1-.04-.04.1.1 0 0 1-.02-.06l.15-2.12.01-.03.03-.02Z" fill="#742873"/><path d="M37.9 28a9.9 9.9 0 1 1-19.8 0 9.9 9.9 0 0 1 19.8 0Zm-.55-.03a9.35 9.35 0 1 0-18.7.06 9.35 9.35 0 0 0 18.7-.06Z" fill="#0F793D"/><path d="m37.77 20.3 1.24-.31h.03s.02 0 .02.02a.05.05 0 0 1 0 .05l-.7 1.09-.02.01a.05.05 0 0 1-.06-.01l-.54-.78a.05.05 0 0 1 0-.05v-.02h.03Z" fill="#742873"/><path d="M23.95 27.5h-3.93l-.02-.02a.05.05 0 0 1 0-.05l5.08-7.41.02-.02h5.78a.04.04 0 0 1 .03.02L36 27.43a.05.05 0 0 1 0 .05v.01l-.03.01h-3.91a.04.04 0 0 1-.03-.02l-4-5.1-.01-.02a.04.04 0 0 0-.04 0l-.01.01L24 27.48a.04.04 0 0 1-.04.02Z" fill="#0F793D"/><path d="m15.32 26.35-1.08-.73a.04.04 0 0 1-.01-.06l.02-.01 1.28-.23h.04a.04.04 0 0 1 0 .04l-.2.96a.04.04 0 0 1-.01.03.04.04 0 0 1-.04 0Z" fill="#742873"/><path d="m28.05 33.5 3.9-4.85.01-.01h4.12a.05.05 0 0 1 .02.07l-5.14 7.27a.05.05 0 0 1-.04.02h-5.86l-.02-.02-5.14-7.27v-.02a.05.05 0 0 1 .02-.05H24a.05.05 0 0 1 .04.01l3.92 4.85.02.02a.05.05 0 0 0 .06-.02Zm-.01.6a.04.04 0 0 1-.05.02l-.01-.01L23.86 29h-3.23c-.03 0-.05.02-.04.04l4.67 6.6a.04.04 0 0 0 .03 0h5.42a.04.04 0 0 0 .03 0l4.67-6.6c.02-.02 0-.04-.03-.04h-3.2c-.04 0-.06.02-.08.04l-4.06 5.07Z" fill="#0F793D"/></svg>