<!-- by TradingView --><svg width="56" height="56" viewBox="0 0 56 56" xmlns="http://www.w3.org/2000/svg"><path fill="#F0F3FA" d="M0 0h56v56H0z"/><path d="M16.8 37.04V34.3l-1.1.34-1.16.15-.23.26-.17.72.4 1.27h2.26Z" fill="url(#aorjg5r2r)"/><path d="M16 20.5V26c.3-.22 3.68-3.02 11.65-3.02 7.55 0 11.38 2.01 12.35 3.02v-5.5H16Z" fill="url(#borjg5r2r)"/><path d="M16 18.15v5.5c.3-.21 3.68-3.02 11.65-3.02 7.55 0 11.38 2.02 12.35 3.03v-5.51H16Z" fill="url(#corjg5r2r)"/><path d="M16 15.7v5.94c.3-.24 3.68-3.26 11.65-3.26 7.55 0 11.38 2.17 12.35 3.26V15.7H16Z" fill="url(#dorjg5r2r)"/><path d="M16 13v6.1c.3-.23 3.68-3.03 11.65-3.03 7.55 0 11.38 2.01 12.35 3.02V13H16Z" fill="url(#eorjg5r2r)"/><path d="M16 14h-2l1.38 20H16V14Zm24 0h2l-1.38 20H40V14Z" fill="#CCC"/><path d="M15.15 33.8c-2 0-4.27 1.24-5.15 1.86l1.92 4.25 2.1-1.3v-2.63c-.12-.32-.18-.98.49-1.3.66-.33 2.13-.05 2.13-.52 0-.39-1-.4-1.49-.36Z" fill="url(#forjg5r2r)"/><path d="M40.85 33.8c2 0 4.27 1.24 5.15 1.86l-1.92 4.25-2.6-1.5.14-2.6c.13-.3.08-.88-.59-1.2-.67-.33-1.67.02-1.67-.45 0-.39 1-.4 1.49-.36Z" fill="url(#gorjg5r2r)"/><path d="M39.31 37.06v-2.79c.47.04 1.45.14 1.68.22.3.1.63.98.66 1.1.03.08-.35.65-.54.92l-1.8.55Z" fill="url(#horjg5r2r)"/><path d="m14.25 40.42-.34-4.92c-.02-.34.22-1.01 1.4-1.01 1.24 0 1.37-.32 1.28-.48.61.37-.18.66-.47.73-.3.07-1.87-.05-1.87.76 0 .65 1.52 1.35 2.28 1.5h21.84c1.17 0 3.03-.76 3.03-1.54 0-.8-.84-.73-1.27-.8a2.03 2.03 0 0 1-.76-.26v-.28c0 .33.57.24 1.48.45.73.17.84.83.8 1.13a79.78 79.78 0 0 0-.25 4.46c0 1.02-1.16 1.65-1.74 1.84H17.1c-2.19 0-2.81-1.05-2.85-1.58Z" fill="url(#iorjg5r2r)"/><path fill-rule="evenodd" d="m19 40.78.19-.43c.6.56 1.01.07 1.01-.2 0-.25-.14-.34-.35-.47a8.04 8.04 0 0 1-.09-.06c-.25-.16-.57-.5-.57-.82 0-.32.21-.8.76-.8.44 0 .6.28.62.43l-.21.15c-.02-.07-.13-.23-.41-.23-.28 0-.36.24-.37.35 0 .38.27.52.54.66.26.14.53.28.53.67 0 .78-.53.97-1.01.97-.39 0-.59-.15-.64-.22ZM21 38h.52v3H21v-3Zm1.49 0H22v2.98h.49v-1.96l1.02 1.94v.02h.01l.01.02v-.02H24V38h-.49v1.84l-1.02-1.8V38ZM26 40.85v-.39c-.1.06-.22.1-.34.1-.55 0-.82-.48-.82-1.07 0-.6.27-1.07.82-1.07.12 0 .24.03.34.1v-.39a.93.93 0 0 0-.46-.13c-.77 0-1.15.67-1.15 1.49s.38 1.48 1.15 1.48c.16 0 .32-.04.46-.12Zm.47-2.84v2.96h1.34v-.47H27v-.92h.67v-.44H27v-.7h.82v-.43h-1.34Zm2.99.65-.76.24v-.33l.85-.57H30v3h-.53v-2.34Zm1.6 1.91.22.43a2.1 2.1 0 0 0 1.44-1.88c.02-.37-.12-1.12-.88-1.12s-.95.57-.96.85c0 .98.81 1.04 1.22.95-.37.53-.84.73-1.03.77Zm1.24-1.6c0 .31-.22.57-.5.57-.27 0-.5-.26-.5-.58 0-.31.23-.57.5-.57.28 0 .5.26.5.57ZM33 38v.42h1.32L33.27 41h.6l1.1-3H33Zm4 1.5c0 .83-.45 1.5-1 1.5s-1-.67-1-1.5.45-1.5 1-1.5 1 .67 1 1.5Zm-.46.05c0 .61-.24 1.1-.54 1.1-.3 0-.54-.49-.54-1.1 0-.6.24-1.1.54-1.1.3 0 .54.5.54 1.1Z" fill="#C52C26"/><path fill-rule="evenodd" d="m26.87 27-.73.72.73.71.74-.71-.74-.72Zm.5 2h-.99v3h.98v-3Zm-2.8 2.2v-1.74h-.32v-.6h.31v-.73l.96-.2v.94h.51v.6h-.5v1.43c0 .13.1.24.24.24h.3l-.18.74h-.49c-.65 0-.83-.46-.84-.69ZM18 32v-4h.95L20 30.1V28h1v4h-.83L19 29.8V32h-1Zm3.92-2.09-.29-.65c.14-.09.6-.26 1.24-.26.9 0 1.13.53 1.13.8v2c-.18.07-.68.2-1.24.2-1 0-1.25-.6-1.26-.9 0-.88 1.13-1.05 1.7-1.02 0-.3-.18-.46-.58-.46-.32 0-.6.2-.7.29Zm.53 1.15c0-.35.31-.64.7-.64h.06v1.07h-.35c-.23 0-.41-.17-.41-.38v-.05Zm11.6-1.8.3.65c.1-.1.38-.29.7-.29.4 0 .59.16.59.46-.57-.03-1.72.14-1.72 1.02 0 .3.27.9 1.27.9.56 0 1.07-.13 1.25-.2v-2c0-.27-.22-.8-1.14-.8-.65 0-1.1.17-1.25.26Zm1.54 1.16c-.4 0-.71.29-.71.64v.05c0 .2.19.38.42.38h.34v-1.07h-.05Zm-5.09.08c0 .83-.62 1.5-1.39 1.5-.77 0-1.39-.67-1.39-1.5s.62-1.5 1.4-1.5c.76 0 1.38.67 1.38 1.5Zm-.94 0c0 .49-.2.88-.45.88-.24 0-.44-.4-.44-.88 0-.49.2-.88.44-.88.25 0 .45.4.45.88ZM31 29.23V32h.95v-2.3h.34c.28 0 .35.3.35.44V32h1v-1.86c0-.63-.56-1.14-1.35-1.14a3.4 3.4 0 0 0-1.29.23ZM38 28h-1v4h1v-4Zm-15 8v-3h1.52v.27h-.97v1.05h.85v.25h-.85V36H23Zm2.67 0c.65 0 1.18-.67 1.18-1.5s-.53-1.5-1.18-1.5c-.66 0-1.19.67-1.19 1.5s.53 1.5 1.19 1.5Zm0-.31c.35 0 .64-.53.64-1.19 0-.66-.29-1.19-.64-1.19-.36 0-.65.53-.65 1.19 0 .66.3 1.19.65 1.19Zm3.72-1.19c0 .83-.53 1.5-1.18 1.5-.65 0-1.18-.67-1.18-1.5s.53-1.5 1.18-1.5c.65 0 1.18.67 1.18 1.5Zm-.54 0c0 .66-.29 1.19-.64 1.19-.36 0-.64-.53-.64-1.19 0-.66.28-1.19.64-1.19.35 0 .64.53.64 1.19Zm.6-1.32v2.64c.12.06.48.18.89.18.5 0 1.22-.59 1.22-1.5 0-1.18-.8-1.5-1.22-1.5-.33 0-.73.12-.9.18Zm.55.18v2.37h.3c.4 0 .72-.33.72-.74v-.9a.73.73 0 0 0-.72-.73H30Zm1.85 2.53v-.43c.06.04.26.13.59.13.41 0 .63-.25.63-.43 0-.17-.16-.33-.57-.48-.4-.15-.65-.28-.65-.84 0-.56.4-.84.88-.84.38 0 .65.24.73.36l-.39.24c-.01-.07-.1-.2-.34-.2-.3 0-.39.28-.39.44 0 .15.1.3.52.48.42.18.71.47.71.84 0 .59-.64.84-1.13.84a1.5 1.5 0 0 1-.59-.11Z" fill="#211F20"/><defs><linearGradient id="aorjg5r2r" x1="14.57" y1="35.39" x2="16.67" y2="35.39" gradientUnits="userSpaceOnUse"><stop stop-color="#B14F1E"/><stop offset="1" stop-color="#F0DF99"/></linearGradient><linearGradient id="borjg5r2r" x1="15.75" y1="21.5" x2="40.01" y2="23.69" gradientUnits="userSpaceOnUse"><stop stop-color="#4B1762"/><stop offset=".52" stop-color="#B57ABA"/><stop offset=".7" stop-color="#DFD2E3"/><stop offset=".81" stop-color="#714372"/><stop offset="1" stop-color="#561969"/></linearGradient><linearGradient id="corjg5r2r" x1="15.75" y1="19.16" x2="40.01" y2="21.35" gradientUnits="userSpaceOnUse"><stop stop-color="#F5BE1E"/><stop offset=".52" stop-color="#FEF576"/><stop offset=".73" stop-color="#FFF7DA"/><stop offset=".88" stop-color="#FACB3F"/><stop offset="1" stop-color="#FBBD0E"/></linearGradient><linearGradient id="dorjg5r2r" x1="15.75" y1="16.79" x2="40.03" y2="18.83" gradientUnits="userSpaceOnUse"><stop stop-color="#F4572C"/><stop offset=".52" stop-color="#F9A545"/><stop offset=".73" stop-color="#FFEBD8"/><stop offset=".88" stop-color="#FBB06B"/><stop offset="1" stop-color="#E26F29"/></linearGradient><linearGradient id="eorjg5r2r" x1="15.75" y1="14.59" x2="40.01" y2="16.78" gradientUnits="userSpaceOnUse"><stop stop-color="#AA2521"/><stop offset=".52" stop-color="#EA4B38"/><stop offset=".73" stop-color="#FEDACA"/><stop offset=".88" stop-color="#E75440"/><stop offset="1" stop-color="#A21621"/></linearGradient><linearGradient id="forjg5r2r" x1="10.66" y1="37.69" x2="16.66" y2="35.44" gradientUnits="userSpaceOnUse"><stop stop-color="#FCEEC1" stop-opacity="0"/><stop offset=".19" stop-color="#F6CF70"/><stop offset=".35" stop-color="#FBECCB"/><stop offset=".56" stop-color="#DC9E37"/><stop offset="1" stop-color="#94562F"/></linearGradient><linearGradient id="gorjg5r2r" x1="45.34" y1="37.69" x2="39.34" y2="35.44" gradientUnits="userSpaceOnUse"><stop stop-color="#FCEEC1" stop-opacity="0"/><stop offset=".19" stop-color="#F6CF70"/><stop offset=".35" stop-color="#FBECCB"/><stop offset=".56" stop-color="#DC9E37"/><stop offset="1" stop-color="#94562F"/></linearGradient><linearGradient id="horjg5r2r" x1="39.44" y1="35.52" x2="41.41" y2="35.52" gradientUnits="userSpaceOnUse"><stop stop-color="#FFE9BF"/><stop offset="1" stop-color="#9B5D24"/></linearGradient><linearGradient id="iorjg5r2r" x1="14.87" y1="38" x2="41.37" y2="38" gradientUnits="userSpaceOnUse"><stop stop-color="#FFEBBA"/><stop offset=".06" stop-color="#E1A131"/><stop offset=".13" stop-color="#F7D540"/><stop offset=".51" stop-color="#F4FBCF"/><stop offset=".81" stop-color="#F6D961"/><stop offset=".91" stop-color="#E19734"/><stop offset=".97" stop-color="#FFEA9E"/><stop offset="1" stop-color="#E7CC71"/></linearGradient></defs></svg>