<!-- by TradingView --><svg width="56" height="56" viewBox="0 0 56 56" xmlns="http://www.w3.org/2000/svg"><path fill="#F0F3FA" d="M0 0h56v56H0z"/><path fill-rule="evenodd" d="M36.92 37.55c.44-1.24.74-2.64.88-4.13a6.38 6.38 0 0 1-3.66 1.48 4.24 4.24 0 0 1-2.23 1.59c-1.39.4-2.86-.05-4.15-1.1.03.81.19 1.67.56 2.49.73 1.62 2.38 3.27 5.94 3.97a10.64 10.64 0 0 0 2.66-4.3Zm-11.2-4.64a9.5 9.5 0 0 0 .52 5.96 8.85 8.85 0 0 0 5.15 4.59c-2.3.6-4.95-.15-7.46-2.32-2.33-2.01-4.38-5.14-5.58-9.01h.07c.9-5.5 2.52-7.81 3.88-8.68.9-.58 1.84-.59 2.62-.33a10.52 10.52 0 0 0-.39 6.82c.28 1.1.69 2.1 1.19 2.97Zm.62-11.73a3.93 3.93 0 0 1 3.75-.75 10.76 10.76 0 0 0-5.88-7.12c-.18.03-.36.07-.53.12-2.32.64-4.3 2.67-5.43 5.88a18.78 18.78 0 0 0-.9 7.59c.97-2.77 2.27-4.5 3.74-5.43a5.27 5.27 0 0 1 5.25-.29Zm6.36.97a10.86 10.86 0 0 1 2.51 4.77c.48 1.89.49 3.74.12 5.31a4.83 4.83 0 0 0 2.46-2.63 23.53 23.53 0 0 0-.67-3.8c-1.14-4.36-3.35-7.88-5.89-10.07a12.4 12.4 0 0 0-1.73-1.27 13.42 13.42 0 0 1 3.2 7.7Zm-.62 23.55c6.49-1.8 9.73-10.97 7.25-20.5-2.48-9.54-9.76-15.82-16.24-14.03-6.5 1.79-9.74 10.97-7.26 20.5 2.49 9.54 9.76 15.81 16.25 14.03ZM33 27.5a8.54 8.54 0 0 1-.07 4.77c-.43 1.26-1.09 1.8-1.62 1.95-.53.15-1.33.04-2.27-.8a8.15 8.15 0 0 1-2.3-4.07 8.54 8.54 0 0 1 .07-4.78c.43-1.25 1.09-1.8 1.63-1.94.52-.15 1.32-.04 2.26.8A8.15 8.15 0 0 1 33 27.5Z" fill="url(#a4s0mqn04)"/><path fill-rule="evenodd" d="M32.91 44.83c6.5-1.79 9.74-10.97 7.26-20.5-2.49-9.54-9.76-15.81-16.25-14.03-6.49 1.8-9.73 10.97-7.25 20.5 2.48 9.54 9.76 15.82 16.24 14.03Zm4.84-8.14c.44-1.25.74-2.64.88-4.14a6.38 6.38 0 0 1-3.66 1.48 4.24 4.24 0 0 1-2.22 1.6c-1.4.39-2.87-.06-4.16-1.11.03.81.2 1.68.56 2.5.74 1.61 2.38 3.26 5.94 3.96a10.64 10.64 0 0 0 2.66-4.3Zm-11.2-4.64a9.5 9.5 0 0 0 .53 5.95 8.85 8.85 0 0 0 5.15 4.6c-2.3.59-4.95-.16-7.46-2.33-2.34-2.01-4.39-5.14-5.59-9h.07c.9-5.5 2.53-7.82 3.88-8.68.91-.58 1.85-.6 2.63-.34a10.52 10.52 0 0 0-.4 6.83c.28 1.09.7 2.1 1.2 2.97Zm.63-11.74a3.93 3.93 0 0 1 3.74-.75 10.76 10.76 0 0 0-5.88-7.12l-.52.13c-2.33.64-4.3 2.66-5.44 5.88a18.78 18.78 0 0 0-.9 7.58c.98-2.76 2.27-4.5 3.74-5.43a5.27 5.27 0 0 1 5.26-.29Zm6.35.98a10.86 10.86 0 0 1 2.52 4.77c.47 1.88.48 3.73.11 5.3a4.83 4.83 0 0 0 2.46-2.63 23.53 23.53 0 0 0-.67-3.8c-1.13-4.36-3.34-7.88-5.88-10.07a12.4 12.4 0 0 0-1.74-1.26 13.42 13.42 0 0 1 3.2 7.69Zm.3 5.35a8.54 8.54 0 0 1-.06 4.78c-.43 1.25-1.1 1.8-1.63 1.94-.52.15-1.32.04-2.27-.8a8.15 8.15 0 0 1-2.3-4.07 8.55 8.55 0 0 1 .07-4.77c.43-1.26 1.1-1.8 1.63-1.95.52-.15 1.32-.04 2.27.8a8.15 8.15 0 0 1 2.3 4.07Z" fill="#006B3E"/><defs><linearGradient id="a4s0mqn04" x1="25.87" y1="11.45" x2="30.66" y2="46.56" gradientUnits="userSpaceOnUse"><stop stop-color="#1DAF55"/><stop offset=".38" stop-color="#F0F222"/><stop offset=".59" stop-color="#5BBE4F"/><stop offset=".76" stop-color="#FDF213"/><stop offset="1" stop-color="#4FBC54"/></linearGradient></defs></svg>