<!-- by TradingView --><svg width="56" height="56" viewBox="0 0 56 56" fill="none" xmlns="http://www.w3.org/2000/svg">
<rect width="56" height="56" fill="#F0F3FA"/>
<path fill-rule="evenodd" clip-rule="evenodd" d="M6 20V28H8.00002V25.0479L8.63572 28H10.5V20H8.50002V22.7393L7.8 20H6ZM11 23.7347H12.7506V22.4574C12.7506 22.2989 12.8623 22.1704 13 22.1704C13.1377 22.1704 13.2494 22.2989 13.2494 22.4574V23.6222L11.6455 24.3537C11.4303 24.4663 11 24.8399 11 25.4341V26.9872C11.062 27.3248 11.3756 28 12.1345 28C12.8934 28 13.194 27.6399 13.2494 27.4598V28H15V22.418C14.9805 21.9453 14.5599 21 13.0342 21C11.5086 21 11.0424 21.9453 11 22.418V23.7347ZM13.1899 24.759V26.3984C13.1899 26.5494 13.0837 26.6719 12.9526 26.6719C12.8216 26.6719 12.7153 26.5494 12.7153 26.3984V25.5587C12.7305 25.3768 12.8466 24.9621 13.1899 24.759ZM15.1097 28H18.1097V26.5121H16.8508L18.1097 22.6401V21H15.2704V22.5049H16.5293L15.1097 26.5121V28ZM20.5 20H18.5V20.7H20.5V20ZM20.5 21H18.5V28H20.5V21ZM21 21H23V21.3612C23.2776 21.1519 23.6148 21 24 21V23.3598C23.7945 23.3669 23.3945 23.4983 23 23.9046V28H21V21ZM26 22.2424C26 21.004 26.9701 20 28.1666 20H28.5126C29.7092 20 30.6793 21.004 30.6793 22.2424V23H28.5V21.8469C28.5 21.6553 28.3881 21.5 28.25 21.5C28.112 21.5 28 21.6553 28 21.8469V26.1531C28 26.3447 28.112 26.5 28.25 26.5C28.3881 26.5 28.5 26.3447 28.5 26.1531V25H30.6793V25.7576C30.6793 26.996 29.7092 28 28.5126 28H28.1666C26.9701 28 26 26.996 26 25.7576V22.2424ZM31 22.9621C31 21.8785 31.8292 21 32.8521 21H33.1479C34.1708 21 35 21.8785 35 22.9621V26.0379C35 27.1215 34.1708 28 33.1479 28H32.8521C31.8292 28 31 27.1215 31 26.0379V22.9621ZM32.7342 22.4552C32.7342 22.282 32.8668 22.1416 33.0303 22.1416C33.1938 22.1416 33.3263 22.282 33.3263 22.4552V26.349C33.3263 26.5223 33.1938 26.6627 33.0303 26.6627C32.8668 26.6627 32.7342 26.5223 32.7342 26.349V22.4552ZM42.8521 21C41.8292 21 41 21.8785 41 22.9621V26.0379C41 27.1215 41.8292 28 42.8521 28H43.1479C44.1708 28 45 27.1215 45 26.0379V22.9621C45 21.8785 44.1708 21 43.1479 21H42.8521ZM43.0303 22.1416C42.8668 22.1416 42.7342 22.282 42.7342 22.4552V26.349C42.7342 26.5223 42.8668 26.6627 43.0303 26.6627C43.1938 26.6627 43.3264 26.5223 43.3264 26.349V22.4552C43.3264 22.282 43.1938 22.1416 43.0303 22.1416ZM35.5 26.5052V22.3H35V21H35.5V20H37.5V21H37.879V22.3H37.5V26.4312C37.5 26.5963 37.5215 26.7302 37.6615 26.7302H38V28H36.8453C36.1457 28 35.5 27.3308 35.5 26.5052ZM38.5 22.5V26.5052C38.5 27.3308 39.1457 28 39.8453 28H41V26.7302H40.6615C40.5215 26.7302 40.5 26.5963 40.5 26.4312V22.5H40.879V21H40.5V20H38.5V21H38V22.5H38.5ZM45.5 21H47.5V21.5421C47.755 21.2684 48.1713 21 48.7633 21C49.8957 21 50 22.0228 50 22.4703V27.9997H48.0033V22.726C48.0113 22.5773 47.9802 22.28 47.7921 22.28C47.6782 22.28 47.5756 22.4018 47.5 22.5348V28H45.5V21ZM18 39V31H20.7581L21.3554 34.1592L21.8649 31H24.5V39H22.5V34.6348L21.8649 39H20.5473L20 34.6348V39H18ZM25 31H27V32H25V31ZM25 32.3263H27V39H25V32.3263ZM30 31H28V39H30V31ZM31 31H33V39H31V31ZM37.7289 34.3023H36.0482V33.5473C36.0482 33.3568 35.8985 33.2024 35.7139 33.2024C35.5292 33.2024 35.3795 33.3568 35.3795 33.5473V33.8591C35.3795 34.0881 35.4951 34.3005 35.6845 34.4197L36.9725 35.2306C37.6107 35.6324 38 36.348 38 37.1192C38 38.158 37.1837 39 36.1767 39H35.244C34.0014 39 33.5 37.9609 33.5 36.6791V36.5486H35.3795V37.4248C35.3795 37.6152 35.5292 37.7696 35.7139 37.7696C35.8985 37.7696 36.0482 37.6152 36.0482 37.4248V37.1269C36.0482 36.9165 35.9483 36.7193 35.7807 36.5992L34.3986 35.6083C33.8357 35.2047 33.5 34.5424 33.5 33.8353C33.5 32.8217 34.2966 32 35.2792 32H36.0934C37.2612 32 37.7289 32.9765 37.7289 34.1811V34.3023Z" fill="black"/>
</svg>
