<!-- by TradingView --><svg width="56" height="56" viewBox="0 0 56 56" xmlns="http://www.w3.org/2000/svg"><path fill="#F0F3FA" d="M0 0h56v56H0z"/><path d="M8 20h16.86c.17.73.49 1.41.91 2H8v-2Zm40 2H34.53c.43-.59.74-1.27.91-2H48v2Zm0 14H8v2h40v-2Z" fill="#E11F26"/><circle cx="30" cy="19" r="4" fill="#2C398C"/><path d="M8 24v2h1.33c.37 0 .67.3.67.7v4.54c0 .39-.3.76-.67.76H8v2h6v-2h-.92c-.5 0-1.08-.48-1.08-1v-3.06L19.88 34H22v-7.3c0-.4.5-.7.87-.7H24v-2h-6v2h1.32c.38 0 .68.3.68.7v2.64L13.14 24H8Zm18.6 8v2h6.9v-2h-1.03c-.57 0-.97-.66-.97-1.3v-3.56c0-.65.4-1.14.97-1.14h1.03v-2h-7v2h1.16c.58 0 .84.49.84 1.14v3.55c0 .65-.26 1.31-.84 1.31H26.6ZM38 28h-2v-4h12v4h-2v-1.2c0-.52-.5-.8-1-.8h-2v4.94c0 .52.7 1.06 1.2 1.06h.8v1.94h-7V32h1.23c.5 0 .9-.54.9-1.06V26H39c-.5 0-1 .28-1 .8V28Z" fill="#2C398C"/></svg>