<!-- by TradingView --><svg width="18" height="18" viewBox="0 0 18 18" xmlns="http://www.w3.org/2000/svg"><path fill="#F0F3FA" d="M0 0h18v18H0z"/><path d="M12.48 10.1c.95 1.23.44 2.5-.3 3.66a.05.05 0 0 1-.06 0L6.5 8.67c-.02-.03-.04-.03-.07 0a.52.52 0 0 0-.17.3c0 .04 0 .07.03.09 1.53 1.32 3.07 2.92 1.25 4.92a.1.1 0 0 1-.07.03H5.09a.1.1 0 0 1-.08-.05.1.1 0 0 1 0-.1c.37-.65.41-1.2.26-1.98-.2-1.03-.45-2.02.1-2.86.16-.26.33-.5.51-.73.02-.03.02-.05 0-.08-.17-.25-.4-.52-.52-.77-.64-1.37-.35-2.5.87-3.42.02-.02.04-.01.06.01.1.2.24.43.43.66a15.07 15.07 0 0 0 3.58 3.24c.02 0 .03 0 .04-.02l.17-.24a.08.08 0 0 0 0-.1 6.95 6.95 0 0 0-.53-.5c-.36-.3-.42-.85-.39-1.29.07-.82.65-1.42 1.39-1.73.03-.01.05 0 .07.02.6.66 1.33 1.23 1.75 2.06.42.83-.37 1.97-.83 2.65a.08.08 0 0 1-.06.04.08.08 0 0 1-.07-.03l-.54-.66a.11.11 0 0 0-.13-.03.11.11 0 0 0-.04.03l-.26.3c-.02.01-.02.03 0 .05.53.52 1.28 1.2 1.61 1.62Z" fill="#D62321"/></svg>