<!-- by TradingView --><svg width="18" height="18" viewBox="0 0 18 18" xmlns="http://www.w3.org/2000/svg"><path fill="#F0F3FA" d="M0 0h18v18H0z"/><path d="M8.49 9.83V10h.5v-.17l1.37-.86v-.54H11V8H6.5v.43h.64v.54l1.35.86Z" fill="#201A1A"/><path d="M5 10h5.53L12 11.11V10h1v3H7.54L6 11.92V13H5v-3Zm1.71 2.18h1.22l.71-.65h.93v-.2H9v-.18h.57v-.16H9v-.15h.57v-.18H9v-.14h.57v-.24h-1.6l-1.26 1.9Z" fill="#363BB3"/><path d="M7.57 6.77C7.53 7.84 8.45 8.03 8.9 8c.07 0 1.2.06 1.2-1.23 0-.22-.1-.67-.4-1.08-.23-.33-.68-1.26-.88-1.69-.35.93-1.2 1.67-1.24 2.77Z" fill="#FA0200"/></svg>