<!-- by TradingView --><svg width="18" height="18" viewBox="0 0 18 18" xmlns="http://www.w3.org/2000/svg"><path fill="#F0F3FA" d="M0 0h18v18H0z"/><path fill-rule="evenodd" d="M14.92 9.94A6 6 0 0 0 3.51 6.6a6 6 0 1 0 11.41 3.35Zm-9.37 2.5A4.89 4.89 0 0 0 13.88 9 4.86 4.86 0 0 0 9 4.13a4.9 4.9 0 0 0-4.87 4.88c0 1.29.52 2.53 1.43 3.44Zm6.67-6.77a4.58 4.58 0 0 1-3.17 7.9 4.65 4.65 0 0 1-4.7-4.54 4.58 4.58 0 0 1 4.57-4.66 4.66 4.66 0 0 1 3.3 1.3Z" fill="#415B3B"/><path d="M9.05 13.57a4.66 4.66 0 0 0 4.57-4.66 4.58 4.58 0 0 0-4.7-4.54 4.65 4.65 0 0 0-4.57 4.66 4.58 4.58 0 0 0 4.7 4.54Z" fill="#151617"/><path d="M12.16 7.41c-.15.09-.29.26-.49.4-.16.1-.25.27-.47.33a.12.12 0 0 1-.14-.08c-.02-.08 0-.16.07-.24.15-.18.3-.33.4-.54a.54.54 0 0 1 .1-.13c.08-.09.12-.2.11-.32 0-.02 0-.03-.02-.04-.07-.06-.12-.03-.17.04-.08.13-.2.24-.33.33h-.03l-.1-.14h-.04c-.32.12-.26.49-.54.59-.02 0-.04 0-.05-.02-.04-.05 0-.12.04-.18a.4.4 0 0 0 .11-.28c0-.01 0-.03.02-.04.18-.23.29-.5.48-.72a.06.06 0 0 0-.04-.1c-.33-.05-.59.36-.8.64-.14.18-.23.1-.38.17-.16.07-.27.34-.44.23a.06.06 0 0 1-.03-.03c-.15-.42-.4-.75-.83-.94-.76-.35-1.43-.26-2.02.29-.37.34-.56.74-.7 1.23-.03.1-.12.16-.25.15-.1.02-.17 0-.22-.04a.04.04 0 0 1-.01-.04c.08-.32.2-.54.36-.83a3.58 3.58 0 0 1 3.4-1.82c.43.05.73.1.9.16a4 4 0 0 1 2.13 1.65c.1.15.17.22-.02.32Z" fill="#A17F40"/><path d="M6.69 11.92A3.72 3.72 0 0 1 5.26 8.4c.03-.2.16-.26.35-.27.13.02.25 0 .35-.06l.02-.04c.16-.92.7-1.6 1.67-1.73h.3a1.8 1.8 0 0 1 1.46 1.28v.05c-.1.28-.28.5-.53.67a.07.07 0 0 1-.09-.02l-.01-.03c0-.11 0-.22.04-.33V7.9l-.03-.02c-.03-.01-.07 0-.12.03-.38.22-.66.52-.82.9l-.03.03c-.32.22-.65.41-.99.58-.32.17-.61.08-.9.38-.21.24.02.64.24.77.18.12.38.05.56.08.47.07 1.23.17.75.86a.04.04 0 0 1-.05.02.7.7 0 0 1-.33-.13.1.1 0 0 0-.12.02c-.14.18-.27.23-.23.5v.01l-.02.02c-.02 0-.03 0-.04-.02Z" fill="#F0F3FA"/><path d="M12.41 10.34c-.17-.01-.52-.09-.61-.25a.09.09 0 0 1 .03-.12l.33-.21a.08.08 0 0 0-.05-.14h-.27a.07.07 0 0 1-.06-.05.07.07 0 0 1 .03-.08c.12-.06.4-.19.39-.34a.03.03 0 0 0-.03-.03.33.33 0 0 1-.2-.11.05.05 0 0 0-.07-.01c-.07.04 0 .16.01.22v.04c-.08.14-.26-.07-.3-.14a.04.04 0 0 1 0-.04.44.44 0 0 0 .09-.23c0-.02 0-.03.02-.04l.14-.11a.03.03 0 0 0 .01-.03v-.02h-.02l-.15-.1h-.01v-.02c0-.04.03-.06.07-.07.02 0 .03-.01.04-.03a.35.35 0 0 1 .16-.16.05.05 0 0 0 .03-.03c.02-.1.15-.12.2-.24a.06.06 0 0 1 .04-.03l.04-.02a.05.05 0 0 0 .03-.03c.04-.2-.25-.22-.07-.42l.05-.03a.07.07 0 0 1 .1.03c.11.25.2.5.27.76.05.23-.29.38-.46.49a.07.07 0 0 0-.03.07c.01.07.02.23.07.27.08.07.33-.17.4-.22a.04.04 0 0 1 .07.03c0 .24.01.47-.04.7-.03.18-.09.65-.25.74Z" fill="#A17F40"/><path d="M9.77 12.58c-.2.07-.34.1-.57.08-.13 0-.24.04-.36.04a3.5 3.5 0 0 1-.61-.09c-.1-.14.12-.26.15-.4.05-.22-.08-.28-.13-.47-.04-.17-.05-.6-.31-.53a.1.1 0 0 1-.11-.06c-.03-.1-.07-.4-.17-.44-.23-.1-.47-.18-.72-.23-.15-.03-.3.03-.44-.1a.04.04 0 0 0-.05 0 .25.25 0 0 1-.17.04c-.05 0-.07-.02-.07-.07 0-.04.03-.07.06-.07a.85.85 0 0 0 .38-.13.07.07 0 0 0 .02-.08.07.07 0 0 0-.06-.04c-.05 0-.45.14-.46.05-.01-.3.13-.45.44-.43.01 0 .02 0 .03.02.02.02.04.08.07.09.14.02.21-.04.2-.16 0-.02.01-.03.03-.03a.4.4 0 0 0 .16-.04c.21-.15.79-.58.96-.48.2.13.42.19.66.18.02 0 .03 0 .03.02.02.07.07.1.16.08.2-.04.28-.21.35-.38 0-.02.02-.03.04-.03l.09-.02c.03 0 .06.02.06.04.02.15-.19.46-.25.6-.06.14-.12.11-.23.06a.05.05 0 0 0-.07.04c0 .07-.06.24-.03.3.1.23.47.26.44.57-.02.32-.05.62.03.93.1.38.25.76.45 1.14Z" fill="#E0394C"/><path d="M12.15 10.58c.07.18.04.34-.07.48-.27.37-.57.61-.86.88-.12.11-.25.13-.36.24a1.68 1.68 0 0 1-.7.31.24.24 0 0 1-.2.03 2.9 2.9 0 0 1-.48-1.73c.02-.18.02-.3 0-.46l.01-.04c.09-.17.54 0 .7.04.43.1.9.12 1.34.22.15.03.27-.03.4-.01.08 0 .15.02.22.04Zm-1.11-2.34c.19.17-.24.5-.36.6a.1.1 0 0 0-.02.04c-.08.19-.2.19-.32.3-.06.07-.1.12-.19.14-.24.07-.44.14-.69.14-.01 0-.02 0-.03-.02-.06-.2.05-.4.17-.6a.03.03 0 0 0 0-.04l-.08-.08.01-.04c.23-.15.54-.21.79-.32.06-.02.16-.03.24-.1.16-.14.3-.2.48-.02Zm-2.98.6a.08.08 0 0 1-.04-.1c.07-.23.27-.55.54-.59.02 0 .03.01.03.03 0 .14-.22.44-.3.58-.05.1-.12.13-.23.08Zm1.28-.32-.49.29c-.02.01-.04 0-.05-.01-.29-.4.68-.6.81-.37a.04.04 0 0 1-.02.07.37.37 0 0 1-.21 0c-.02 0-.03 0-.04.02Zm4.19 3.12.13.22.26.06-.17.2.02.26-.24-.1-.24.1.02-.26-.17-.2.25-.06.14-.22Zm-8.95 0 .14.22.25.06-.17.2.02.26-.24-.1-.24.1.02-.26-.17-.2.25-.06.14-.22Z" fill="#F0F3FA"/><path d="M14.2 11.22a5.65 5.65 0 1 0-10.37.08l.52-.24A5.06 5.06 0 0 1 9 3.92a5.08 5.08 0 0 1 4.71 6.98l.49.32Zm-1.39 1.95-.35-.45a5.06 5.06 0 0 1-6.91 0l-.5.32a5.64 5.64 0 0 0 7.76.13Z" fill="#D9D9D9" fill-opacity=".5"/><path fill-rule="evenodd" d="M9 13.45a4.45 4.45 0 1 0 0-8.9 4.45 4.45 0 0 0 0 8.9Zm0-.47a3.98 3.98 0 1 0 0-7.96 3.98 3.98 0 0 0 0 7.96Z" fill="#E0394C" fill-opacity=".6"/></svg>