<!-- by TradingView --><svg width="56" height="56" viewBox="0 0 56 56" xmlns="http://www.w3.org/2000/svg"><path fill="#F0F3FA" d="M0 0h56v56H0z"/><path fill-rule="evenodd" d="M4 27.6C4 26.16 5.27 25 6.83 25h3.34c1.56 0 2.83 1.16 2.83 2.6v.8c0 1.44-1.27 2.6-2.83 2.6H6.83C5.27 31 4 29.84 4 28.4v-.8Zm2-.03c0-.32.14-.57.57-.57h3.82c.44 0 .61.25.61.57v.86c0 .32-.17.57-.6.57H6.56c-.43 0-.57-.25-.57-.57v-.86Zm29 .03c0-1.44 1.27-2.6 2.83-2.6h3.34c1.56 0 2.83 1.16 2.83 2.6v.8c0 1.44-1.27 2.6-2.83 2.6h-3.34C36.27 31 35 29.84 35 28.4v-.8Zm2-.03c0-.32.35-.57.79-.57h3.42c.44 0 .79.25.79.57v.86c0 .32-.35.57-.79.57H37.8c-.44 0-.79-.25-.79-.57v-.86Zm-23 2.9V25h1.45c.3 0 .55.23.55.52V31h-1.45a.54.54 0 0 1-.55-.52ZM19 25v4h6v1.48c0 .29-.3.52-.61.52h-6.8c-.32 0-.59-.23-.59-.52v-4.9a.6.6 0 0 1 .58-.58H19Zm7 .52v4.96c0 .29.24.52.54.52h5.6c.62 0 1.86-.37 1.86-1.74 0-.7-.51-1.15-.77-1.28.26-.11.77-.53.77-1.37 0-1.04-1.04-1.61-1.67-1.61h-5.8c-.3 0-.53.23-.53.52Zm2 .98h3.6c.22 0 .4.22.4.5s-.18.5-.4.5H28v-1Zm0 2h3.5c.28 0 .5.22.5.5a.5.5 0 0 1-.5.5H28v-1ZM43.5 25l3.5 4v1.46c0 .29.25.54.56.54H49v-2l3-4h-2.2L48 27.59 45.74 25H43.5Z" fill="url(#aqsmezpby)"/><defs><linearGradient id="aqsmezpby" x1="5.94" y1="25" x2="52" y2="25" gradientUnits="userSpaceOnUse"><stop stop-color="#B12F27"/><stop offset=".58" stop-color="#CB362D"/><stop offset="1" stop-color="#B02F26"/></linearGradient></defs></svg>