<!-- by TradingView --><svg width="56" height="56" viewBox="0 0 56 56" xmlns="http://www.w3.org/2000/svg"><path fill="#F0F3FA" d="M0 0h56v56H0z"/><path d="m51.7 24.76-.76 1.77c-.17-.22-1.46-.53-2.01-.53-.55 0-.93-.01-.93.43 0 1.1 4 .74 4 2.92C52 30.9 50.44 32 48.87 32a5.95 5.95 0 0 1-2.87-.83l.68-1.82a8.7 8.7 0 0 0 2.28.65c.45 0 1.04.16 1.04-.28 0-1.26-4-.83-4-3.2 0-1.69 1.73-2.52 3.13-2.52 1.11 0 2.18.5 2.57.76Z" fill="#222020"/><path fill-rule="evenodd" d="M8 32a4 4 0 1 0 0-8 4 4 0 0 0 0 8Zm0-2a2 2 0 1 0 0-4 2 2 0 0 0 0 4Zm19 2a4 4 0 1 0 0-8 4 4 0 0 0 0 8Zm0-2a2 2 0 1 0 0-4 2 2 0 0 0 0 4Z" fill="#222020"/><path d="M19 30.28A3.8 3.8 0 0 1 15.84 32 3.92 3.92 0 0 1 12 28c0-2.2 1.72-4 3.84-4 1.22 0 2.3.59 3.01 1.5l-1.36 1.17A2 2 0 0 0 14 28a2 2 0 0 0 3.65 1.13L19 30.28Z" fill="#222020"/><path d="M24 24v.01A2.99 2.99 0 0 0 22.82 26H22v6h-2v-6h-.82A2.99 2.99 0 0 0 18 24.01V24h6Zm8 0h3a3 3 0 1 1 0 6h-1v2h-2v-8Zm3 2h-1v2h1a1 1 0 1 0 0-2Zm6-2h-2v4.86a3 3 0 0 0 6 0V24h-2v5a1 1 0 1 1-2 0v-5Z" fill="#222020"/></svg>