<!-- by TradingView --><svg width="18" height="18" viewBox="0 0 18 18" xmlns="http://www.w3.org/2000/svg"><path fill="#F0F3FA" d="M0 0h18v18H0z"/><path fill-rule="evenodd" d="M11.67 13.23a5 5 0 1 0-5.38-.03 4.5 4.5 0 0 0 1.5-2.17c.4-1.25.6-4.64.65-6.18l.56.18v-.67l.3.13v.65l.6.41v.28h-.2c.12 1.41.5 4.55 1.01 5.83.32.81.68 1.3.96 1.57Zm-.31.18a5.69 5.69 0 0 1-1.4-2.63 82.76 82.76 0 0 1-.55-5.08l-.12-.07V14a4.97 4.97 0 0 0 2.07-.58ZM9 14v-.33l-1.3-1.62a5 5 0 0 1-1.05 1.36c.7.38 1.5.59 2.35.59Zm-1.19-2.18L9 13.18V5.55l-.24-.08c-.05 1.48-.28 4.73-.77 5.96a6.3 6.3 0 0 1-.18.4ZM6.07 6.44c.13.1.25.27.3.34.2-.52 0-.84-.2-.84s-.27.35-.1.5Zm-.01.69c-.25 0-.33.32-.33.39.07-.06.22-.12.22.16 0 .13-.11.31-.24.53-.23.38-.53.89-.53 1.5 0 1 .55 1.13.84 1.13.3 0 .94-.14.94-1.06s-.49-1.22-.64-1.22c-.16 0-.3.1-.3.34 0 .2.1.34.16.38.15-.1.46-.15.46.35 0 .49-.39.61-.58.61-.16-.04-.49-.19-.49-.46 0-.34.03-.77.38-1.35.34-.58.36-1.3.11-1.3Zm5.65 3.46a1.67 1.67 0 0 0 1.02-1.5c0-.88-.48-1.42-.72-1.59-.32.37-.95 1.25-.95 1.79.02.19.16.57.51.57s.5-.38.53-.57a2.11 2.11 0 0 0-.4-.2l-.04-.02c-.11-.03-.2-.06-.2-.36 0-.33.58-.34.71-.17.14.17.3.39.3.82 0 .43-.43.9-.9.9-.46 0-.85-.32-.85-.97 0-.47.43-1.19.72-1.7l.27-.48c.12-.3.15-.57.14-.67h.25c.02.22.09.71.2.9l.1.15c.22.3.62.84.62 1.65 0 .99-.88 1.45-1.31 1.45Z" fill="#2491D0"/></svg>