<!-- by TradingView --><svg width="18" height="18" viewBox="0 0 18 18" xmlns="http://www.w3.org/2000/svg"><path fill="#F0F3FA" d="M0 0h18v18H0z"/><path d="m9.29 5.28-.28.1.02-1.35A.03.03 0 0 1 9.06 4l.32.02c.03 0 .04.02.04.04l-.13 1.22Zm-.64.24a.27.27 0 0 1-.23.08l-.25-1.51c0-.02 0-.04.03-.04l.32-.03c.02 0 .03 0 .03.02l.1 1.48Zm1.04-.34c.13 0 .23-.02.31-.05l.26-.92V4.2a.03.03 0 0 0-.02-.02l-.32-.07c-.02 0-.03 0-.04.03L9.7 5.18ZM7.67 4.16a.01.01 0 0 1 .01 0 .01.01 0 0 1 0 .01h.01a23.5 23.5 0 0 1 .39 1.57l-.01.14-.12.04c-.03 0-.11-.16-.23-.47-.11-.3-.25-.73-.38-1.17a.01.01 0 0 1 0-.02l.33-.1Zm2.77.95h.35l.27-.6a.03.03 0 0 0 0-.03h-.01l-.3-.13a.02.02 0 0 0-.03 0v.01l-.28.75ZM7.45 6.27l-.91-1.63a.02.02 0 0 1 0-.02l.32-.16a.02.02 0 0 1 .02 0l.75 1.67a.02.02 0 0 1 0 .02l-.15.13a.02.02 0 0 1-.03 0Zm3.8-1.13.37.08.19-.26v-.04l-.29-.18h-.04l-.22.4ZM6.1 4.9a.02.02 0 0 1 .03 0c.31.43.6.85.8 1.16.2.32.3.51.26.53l-.05.04c-.02.01-.06-.02-.14-.08a14.94 14.94 0 0 1-1.17-1.42v-.01a.02.02 0 0 1 0-.01.02.02 0 0 1 0-.01l.27-.2Zm-.66.56-.23.24a.03.03 0 0 0 0 .04l1.53 1.31a.03.03 0 0 0 .04 0l.09-.11a.03.03 0 0 0 0-.04L5.48 5.46a.03.03 0 0 0-.04 0Zm1.14 1.9-.07.12a.03.03 0 0 1-.04 0L4.71 6.46a.03.03 0 0 1 0-.03V6.4l.17-.28a.03.03 0 0 1 .04-.01l1.65 1.2a.03.03 0 0 1 0 .04Zm-.3.57.06-.14a.02.02 0 0 0 0-.02l-1.86-.9a.02.02 0 0 0-.02 0l-.14.33a.02.02 0 0 0 .01.02l1.93.72a.02.02 0 0 0 .02 0Zm-.13.33-.05.15a.02.02 0 0 1-.02.01L4.1 8.06a.02.02 0 0 1 0-.01.02.02 0 0 1-.01-.01l.07-.35a.02.02 0 0 1 .02-.02l1.96.57a.02.02 0 0 1 0 .01Zm-.17.65.03-.15a.02.02 0 0 0-.02-.03l-1.95-.2a.02.02 0 0 0-.03.02L4 8.9a.02.02 0 0 0 .02.02l1.94.02a.02.02 0 0 0 .02-.02Zm-.08.4a1 1 0 0 1 0 .12c0 .03-.01.04-.03.04a301.05 301.05 0 0 1-1.8.3.06.06 0 0 1-.02-.05L4 9.44c0-.02.01-.03.02-.03.61-.08 1.22-.12 1.84-.13.02 0 .03 0 .03.03Zm-1.74.96.1.33h.01a24.37 24.37 0 0 0 1.53-.54c.08-.04.11-.06.1-.08l-.03-.12a4.43 4.43 0 0 0-.51.07 14.77 14.77 0 0 0-1.19.33Zm.3.82a.01.01 0 0 1 0-.02c.37-.2.74-.36 1.01-.48.27-.11.44-.16.45-.13l.06.1c0 .02-.02.05-.09.1l-.28.2a11.54 11.54 0 0 1-.98.54h-.01l-.17-.31Zm.42.74.21.29a.02.02 0 0 0 .01 0 .02.02 0 0 0 .01 0l.99-.82a.02.02 0 0 0 0-.01l-.06-.24-.01-.01h-.01l-1.14.77a.02.02 0 0 0 0 .01Zm.57.69-.02-.02v-.03l.79-.77h.04l.1.22c.01.02 0 .04-.01.06l-.63.75h-.04a1.79 1.79 0 0 1-.23-.21Zm1.32.1-.18-.28-.5.68a.03.03 0 0 0 0 .03.03.03 0 0 0 .01.02l.27.18.04-.01.36-.63Zm.29.36.25.28-.13.36c0 .02-.02.02-.04.02l-.3-.14c-.02 0-.02-.02-.02-.03l.24-.49Zm.96.86-.33-.27-.06.18a.03.03 0 0 0 .02.04c.13.06.26.08.37.05Z" fill="#293658"/><path d="M8.19 13.9a4.44 4.44 0 0 1-1.72-1.8c.33.2 1.37.53 2.91.12a4.36 4.36 0 0 0 3.07-3.38c.35.89.8 2.9-.19 3.88A4.25 4.25 0 0 1 9.14 14c-.45 0-.83-.07-.95-.1Z" fill="url(#aieakbyxn)"/><path d="M12.13 5.36c-1.9-.57-3.46.01-3.9.4 3.42.24 4.5 3.32 4.5 4.65 0 1.06-.47 2.11-.7 2.5A4.92 4.92 0 0 0 14 8.86c0-1.8-1.18-3.17-1.77-3.63l-.1.13Z" fill="url(#bieakbyxn)"/><defs><linearGradient id="aieakbyxn" x1="6.91" y1="12.9" x2="10.33" y2="7.93" gradientUnits="userSpaceOnUse"><stop stop-color="#E77871"/><stop offset=".41" stop-color="#B31B1A"/><stop offset=".78" stop-color="#C13A34"/><stop offset="1" stop-color="#E66D72"/></linearGradient><linearGradient id="bieakbyxn" x1="8.87" y1="5.53" x2="12.35" y2="12.65" gradientUnits="userSpaceOnUse"><stop stop-color="#490200"/><stop offset=".45" stop-color="#B81029"/><stop offset="1" stop-color="#ED7B70"/></linearGradient></defs></svg>