<!-- by TradingView --><svg width="56" height="56" viewBox="0 0 56 56" xmlns="http://www.w3.org/2000/svg"><path fill="#F0F3FA" d="M0 0h56v56H0z"/><path d="m28.99 15.36-.95.32.05-4.59a.1.1 0 0 1 .06-.08l.04-.01 1.12.08c.07 0 .1.04.1.12L29 15.36Zm-2.17.8c-.22.22-.48.3-.79.27l-.85-5.12c-.01-.08.02-.13.1-.14l1.1-.1c.06 0 .09.02.1.08l.34 5.02Zm3.53-1.15c.44 0 .8-.06 1.06-.17l.88-3.12a.11.11 0 0 0-.08-.13l-1.08-.24c-.07-.02-.11.01-.13.08l-.65 3.58Zm-6.87-3.46h.02a.04.04 0 0 1 .03.02v.01l.02.03a79.94 79.94 0 0 1 1.07 4.05c.12.54.2.97.24 1.27.03.3.02.46-.03.47l-.4.12c-.1.03-.38-.54-.77-1.59a64.64 64.64 0 0 1-1.3-3.97l-.01-.03a.04.04 0 0 1 .03-.05l1.1-.33Zm9.43 3.2 1.17.02.93-2.02a.1.1 0 0 0 0-.08.1.1 0 0 0-.05-.06l-1.02-.43a.08.08 0 0 0-.07 0 .08.08 0 0 0-.04.05l-.92 2.53Zm-10.16 3.98-3.12-5.55a.06.06 0 0 1 0-.06l.02-.01 1.08-.55a.05.05 0 0 1 .07.01v.02l2.54 5.67v.03c0 .01 0 .02-.02.03l-.5.42a.05.05 0 0 1-.04.01h-.02l-.01-.02Zm12.92-3.84 1.25.25.63-.88c.04-.06.03-.1-.02-.14l-.96-.62c-.06-.03-.1-.02-.14.04l-.76 1.35Zm-17.51-.83a.05.05 0 0 1 .07 0l.01.02a67.42 67.42 0 0 1 2.72 3.93c.68 1.08 1 1.73.89 1.8l-.18.14c-.05.04-.21-.06-.46-.3-.25-.23-.6-.6-1-1.08a83.57 83.57 0 0 1-2.96-3.75l-.02-.01v-.02a.05.05 0 0 1 0-.04l.01-.02.92-.67Zm-2.27 1.91-.77.81a.1.1 0 0 0 0 .15l5.2 4.45a.1.1 0 0 0 .14-.02l.3-.38a.1.1 0 0 0-.02-.13l-4.7-4.88a.1.1 0 0 0-.12-.02.1.1 0 0 0-.03.02Zm3.87 6.44-.23.4a.1.1 0 0 1-.1.06.1.1 0 0 1-.03-.01l-5.97-3.54a.1.1 0 0 1-.03-.14l.6-.95a.1.1 0 0 1 .07-.04.1.1 0 0 1 .07.02l5.6 4.07a.1.1 0 0 1 .02.13Zm-1 1.96.2-.48a.07.07 0 0 0-.03-.08l-6.3-3.07a.07.07 0 0 0-.05 0 .07.07 0 0 0-.04.04l-.45 1.1a.07.07 0 0 0 .04.08l6.54 2.45a.07.07 0 0 0 .09-.04Zm-.46 1.11-.16.52a.06.06 0 0 1-.06.04l-6.73-1.25h-.02a.06.06 0 0 1-.03-.04v-.03l.23-1.18a.06.06 0 0 1 .03-.04.06.06 0 0 1 .05 0l6.65 1.9a.06.06 0 0 1 .04.08Zm-.57 2.2.1-.49a.08.08 0 0 0-.07-.1l-6.63-.69a.09.09 0 0 0-.06.02.09.09 0 0 0-.03.06L11 27.62a.08.08 0 0 0 .02.06.09.09 0 0 0 .06.03l6.57.04a.08.08 0 0 0 .08-.07Zm-.26 1.36v.43c0 .08-.05.13-.12.14a1015.47 1015.47 0 0 1-6.04 1.01.19.19 0 0 1-.15-.16l-.1-.98c-.01-.05 0-.08.06-.09 2.06-.27 4.15-.42 6.25-.45.06 0 .1.03.1.1Zm-5.92 3.27v.03l.33 1.1.02.02h.04a83.52 83.52 0 0 0 3.98-1.34 15 15 0 0 0 1.19-.5c.27-.14.4-.23.38-.28l-.12-.4c-.02-.06-.18-.06-.48-.02-.3.04-.73.13-1.26.25a50.83 50.83 0 0 0-4.04 1.12h-.02l-.02.02Zm1 2.78a.04.04 0 0 1 0-.05h.02A52.8 52.8 0 0 1 16 33.4c.93-.4 1.48-.56 1.54-.46l.2.38c.02.05-.08.16-.3.33-.21.17-.54.39-.97.65a39.63 39.63 0 0 1-3.32 1.84l-.02.01a.04.04 0 0 1-.05-.01l-.54-1.06Zm1.44 2.53.72.98a.06.06 0 0 0 .04.03.06.06 0 0 0 .04-.02l3.34-2.78a.06.06 0 0 0 .02-.06l-.22-.8-.01-.03a.06.06 0 0 0-.05-.01h-.03L14 37.53a.06.06 0 0 0-.02.04v.03l.01.02Zm1.94 2.33a.12.12 0 0 1-.07-.04c-.04-.04-.04-.08 0-.12l2.69-2.6c.05-.06.1-.05.13.02l.34.7a.2.2 0 0 1-.03.24l-2.14 2.52c-.04.05-.08.05-.13.02-.29-.23-.56-.48-.8-.74Zm4.49.33-.63-.94-1.68 2.34a.11.11 0 0 0 0 .12l.03.03.91.61c.05.04.1.03.13-.03l1.24-2.13Zm.97 1.27.85.93-.44 1.23c-.02.06-.06.07-.11.05l-1.04-.46c-.06-.02-.07-.06-.05-.12l.8-1.63Zm3.3 2.9-1.14-.9-.2.61a.1.1 0 0 0 .06.12c.45.21.87.27 1.27.16Z" fill="#293658"/><path d="M25.23 44.65c-2.82-1.33-5.07-4.65-5.84-6.14 1.12.73 4.67 1.84 9.9.42 7.59-2.49 10.13-8.68 10.45-11.46 1.18 3 2.7 9.84-.66 13.16A14.46 14.46 0 0 1 28.48 45a14.4 14.4 0 0 1-3.25-.35Z" fill="url(#ate5h441i)"/><path d="M38.65 15.64c-6.48-1.95-11.78.02-13.3 1.33 11.65.82 15.33 11.3 15.33 15.82 0 3.61-1.6 7.18-2.4 8.51C40.54 39.85 45 35.14 45 27.53c0-6.1-4.02-10.78-6.03-12.36l-.32.47Z" fill="url(#bte5h441i)"/><defs><linearGradient id="ate5h441i" x1="20.88" y1="41.25" x2="32.52" y2="24.36" gradientUnits="userSpaceOnUse"><stop stop-color="#E77871"/><stop offset=".41" stop-color="#B31B1A"/><stop offset=".78" stop-color="#C13A34"/><stop offset="1" stop-color="#E66D72"/></linearGradient><linearGradient id="bte5h441i" x1="27.57" y1="16.19" x2="39.38" y2="40.4" gradientUnits="userSpaceOnUse"><stop stop-color="#490200"/><stop offset=".45" stop-color="#B81029"/><stop offset="1" stop-color="#ED7B70"/></linearGradient></defs></svg>