<!-- by TradingView --><svg width="56" height="56" viewBox="0 0 56 56" fill="none" xmlns="http://www.w3.org/2000/svg">
<rect width="56" height="56" fill="#F0F3FA"/>
<path d="M28.1385 22.6135L35.7051 12.1214C35.7265 12.0917 35.7553 12.0681 35.7886 12.0528C35.822 12.0375 35.8587 12.031 35.8953 12.034L36.7163 12.0939C36.8364 12.1023 36.8614 12.1547 36.7914 12.2512L28.146 24.2807C28.091 24.3589 28.0367 24.358 27.9833 24.2782L19.9187 12.2437C19.857 12.1522 19.8795 12.0914 19.9863 12.0615C20.5119 11.9167 20.9349 12.0141 21.2578 12.4982C23.4988 15.8608 25.7598 19.2318 28.0409 22.611C28.0463 22.6189 28.0534 22.6254 28.0618 22.6299C28.0702 22.6345 28.0795 22.637 28.0891 22.6372C28.0986 22.6375 28.1081 22.6355 28.1167 22.6313C28.1253 22.6272 28.1328 22.6211 28.1385 22.6135Z" fill="#221F20"/>
<path d="M28.2465 19.5563C29.9552 17.1088 31.643 14.648 33.31 12.1739C33.4335 11.9925 33.6012 11.9742 33.8131 12.119C33.8715 12.1589 33.8807 12.2071 33.8407 12.2637L28.254 20.4223C28.1722 20.5421 28.093 20.5404 28.0162 20.4173L22.8625 12.2338C22.8025 12.1373 22.8283 12.0757 22.9401 12.0491C23.1479 12.0017 23.3707 12.1115 23.4883 12.3036C24.9868 14.7378 26.5136 17.1537 28.0688 19.5513C28.1255 19.6411 28.1847 19.6428 28.2465 19.5563Z" fill="#221F20"/>
<path d="M28.4362 27.6375C28.2994 27.8837 28.3094 28.1658 28.4663 28.4835L39.0539 43.8324C39.1207 43.9289 39.0956 43.9771 38.9788 43.9771H37.5521C37.4553 43.9771 37.3802 43.938 37.3269 43.8598C34.2448 39.3924 31.1545 34.9317 28.0558 30.4776C27.999 30.3961 27.9406 30.3953 27.8806 30.4751L17.9587 43.8998C17.9187 43.9513 17.8661 43.9771 17.801 43.9771L16.2617 43.9746C16.2498 43.9743 16.2382 43.9708 16.2282 43.9646C16.2181 43.9584 16.2099 43.9497 16.2045 43.9394C16.199 43.9291 16.1966 43.9177 16.1974 43.9063C16.1983 43.8949 16.2023 43.884 16.2091 43.8748L27.4475 28.6033C27.4519 28.5979 27.454 28.5911 27.4535 28.5842C27.453 28.5773 27.4499 28.5709 27.4449 28.5662C27.4398 28.5614 27.4332 28.5588 27.4262 28.5587C27.4193 28.5587 27.4126 28.5613 27.4075 28.5659L12.2018 39.7518C12.0783 39.8433 12.0166 39.8126 12.0166 39.6595V38.2694C12.0166 38.1695 12.0566 38.0905 12.1367 38.0323L25.5102 28.1541C25.5225 28.1451 25.5324 28.1334 25.5392 28.1198C25.5459 28.1062 25.5493 28.0912 25.5491 28.0761C25.5488 28.0609 25.545 28.0461 25.5378 28.0327C25.5306 28.0194 25.5203 28.0079 25.5077 27.9994L12.1192 18.7427C12.0508 18.6961 12.0166 18.6312 12.0166 18.548L12.0191 17.073C12.0193 17.0609 12.0228 17.0491 12.0291 17.0388C12.0355 17.0284 12.0446 17.02 12.0553 17.0144C12.0661 17.0088 12.0782 17.0062 12.0903 17.0068C12.1024 17.0075 12.1141 17.0114 12.1242 17.0181L27.3599 27.5077C27.3725 27.5159 27.3874 27.5195 27.4023 27.518C27.4172 27.5165 27.4311 27.5099 27.4416 27.4993C27.4522 27.4888 27.4588 27.4749 27.4604 27.4601C27.4619 27.4452 27.4583 27.4303 27.45 27.4179L16.965 12.2138C16.9083 12.1339 16.9291 12.094 17.0276 12.094H18.4818C18.5204 12.094 18.5584 12.1034 18.5924 12.1212C18.6264 12.139 18.6555 12.1648 18.6771 12.1963L27.9782 25.6184C27.9833 25.6266 27.9904 25.6333 27.9988 25.638C28.0072 25.6427 28.0167 25.6453 28.0265 25.6455C28.0363 25.6458 28.0462 25.6437 28.0552 25.6394C28.0642 25.6351 28.0721 25.6288 28.0783 25.6209L38.0727 12.0965C38.0889 12.0735 38.1106 12.0548 38.1359 12.0422C38.1613 12.0296 38.1894 12.0234 38.2179 12.0241L39.6621 12.0815C39.7973 12.0882 39.8248 12.1456 39.7447 12.2537L28.4362 27.6375Z" fill="#221F20"/>
<path d="M28.4665 28.4835C28.3096 28.1657 28.2996 27.8837 28.4364 27.6374L43.8474 17.0455C43.9425 16.9806 43.99 17.0064 43.99 17.1229L43.9925 18.5554C43.9942 18.642 43.9592 18.7093 43.8874 18.7576L30.4864 28.0293C30.4779 28.0354 30.471 28.0433 30.4662 28.0525C30.4613 28.0617 30.4587 28.0719 30.4584 28.0823C30.4582 28.0927 30.4604 28.103 30.4648 28.1124C30.4692 28.1219 30.4757 28.1301 30.4839 28.1366L43.8699 38.0172C43.9533 38.0771 43.9942 38.1578 43.9925 38.2593L43.99 39.7568C43.9904 39.7693 43.9872 39.7817 43.9807 39.7924C43.9742 39.8032 43.9647 39.8119 43.9532 39.8176C43.9418 39.8233 43.9289 39.8258 43.9159 39.8247C43.903 39.8237 43.8905 39.8192 43.8799 39.8117L28.4665 28.4835Z" fill="#941D20"/>
<path d="M12.0166 20.9913V20.0429C12.0165 20.028 12.0204 20.0133 12.0279 20.0004C12.0354 19.9876 12.0463 19.977 12.0594 19.9698C12.0725 19.9626 12.0874 19.9592 12.1023 19.9597C12.1172 19.9603 12.1317 19.9649 12.1443 19.973L24.2387 28.0467C24.2496 28.0543 24.2584 28.0644 24.2645 28.0761C24.2706 28.0879 24.2738 28.1009 24.2738 28.1141C24.2738 28.1273 24.2706 28.1403 24.2645 28.1521C24.2584 28.1638 24.2496 28.1739 24.2387 28.1815L12.1468 36.8567C12.1346 36.8653 12.1203 36.8704 12.1054 36.8715C12.0905 36.8726 12.0756 36.8697 12.0622 36.8631C12.0489 36.8564 12.0376 36.8463 12.0296 36.8337C12.0215 36.8212 12.017 36.8067 12.0166 36.7918V35.8185C12.0166 35.8053 12.0198 35.7922 12.0259 35.7805C12.032 35.7688 12.0408 35.7587 12.0516 35.7511L22.5117 28.2089C22.5224 28.2011 22.531 28.1909 22.5369 28.1791C22.5428 28.1672 22.5458 28.1541 22.5455 28.1409C22.5453 28.1277 22.5418 28.1147 22.5355 28.1031C22.5292 28.0915 22.5201 28.0816 22.5091 28.0742L12.0542 21.0611C12.0425 21.0536 12.033 21.0432 12.0264 21.031C12.0198 21.0188 12.0165 21.0051 12.0166 20.9913Z" fill="#221F20"/>
<path d="M33.522 28.2164L43.9595 35.7286C43.9705 35.7366 43.9794 35.7471 43.9855 35.7593C43.9916 35.7715 43.9947 35.7849 43.9945 35.7985L43.987 36.7743C43.9869 36.7897 43.9827 36.8047 43.9747 36.8179C43.9667 36.831 43.9553 36.8417 43.9417 36.8489C43.928 36.8561 43.9127 36.8594 43.8974 36.8586C43.882 36.8578 43.8671 36.8528 43.8544 36.8442L31.7924 28.1865C31.7812 28.1785 31.7721 28.1679 31.7659 28.1556C31.7597 28.1433 31.7566 28.1297 31.7568 28.116C31.7571 28.1022 31.7607 28.0887 31.7673 28.0767C31.774 28.0646 31.7834 28.0543 31.7949 28.0467L43.8468 19.988C43.8594 19.9795 43.8741 19.9745 43.8892 19.9736C43.9044 19.9727 43.9195 19.9758 43.9331 19.9827C43.9466 19.9896 43.9581 19.9999 43.9662 20.0127C43.9744 20.0255 43.979 20.0402 43.9795 20.0554L43.9995 21.0012C43.9999 21.0155 43.9966 21.0296 43.99 21.0422C43.9835 21.0549 43.9738 21.0657 43.962 21.0736L33.522 28.0767C33.5106 28.0845 33.5014 28.0949 33.4949 28.1071C33.4885 28.1193 33.4852 28.1328 33.4852 28.1466C33.4852 28.1603 33.4885 28.1739 33.4949 28.186C33.5014 28.1982 33.5106 28.2086 33.522 28.2164Z" fill="#941D20"/>
<path d="M19.4781 28.134C17.1069 26.5767 14.7082 25.0618 12.282 23.5893C12.0492 23.4495 11.9416 23.2549 12.0317 23.0053C12.0617 22.9204 12.1151 22.9021 12.1919 22.9504L20.4318 28.1216C20.4427 28.1287 20.4518 28.1383 20.4582 28.1498C20.4645 28.1612 20.468 28.174 20.4682 28.187C20.4685 28.2001 20.4655 28.213 20.4596 28.2246C20.4537 28.2363 20.445 28.2463 20.4343 28.2538L12.2019 33.8867C12.1035 33.9533 12.0451 33.9283 12.0267 33.8118C11.9883 33.5639 12.0809 33.3643 12.3045 33.2129C14.6991 31.584 17.0911 29.9484 19.4806 28.3062C19.5657 28.248 19.5649 28.1906 19.4781 28.134Z" fill="#221F20"/>
<path d="M36.0607 28.1166L43.8475 23.2174C43.8619 23.2086 43.8783 23.2037 43.8952 23.2033C43.9121 23.2029 43.9288 23.2069 43.9435 23.215C43.9583 23.2232 43.9707 23.2351 43.9793 23.2495C43.9879 23.264 43.9926 23.2805 43.9927 23.2973V33.5373C43.9927 33.5548 43.9879 33.5718 43.9788 33.5867C43.9698 33.6016 43.9568 33.6137 43.9412 33.6216C43.9257 33.6296 43.9083 33.6332 43.8909 33.632C43.8735 33.6308 43.8567 33.6248 43.8425 33.6147L36.0582 28.2763C36.0449 28.2675 36.034 28.2556 36.0266 28.2415C36.0192 28.2274 36.0154 28.2117 36.0156 28.1958C36.0159 28.1799 36.0201 28.1643 36.028 28.1504C36.0359 28.1366 36.0471 28.125 36.0607 28.1166Z" fill="#941D20"/>
<path d="M27.836 33.4475L20.2844 43.9321C20.2765 43.9424 20.2663 43.9508 20.2546 43.9564C20.2428 43.9621 20.2299 43.9648 20.2169 43.9645L19.2307 43.982C19.2153 43.9825 19.2002 43.9787 19.1869 43.9711C19.1736 43.9634 19.1627 43.9522 19.1554 43.9387C19.1481 43.9253 19.1447 43.91 19.1457 43.8947C19.1466 43.8795 19.1518 43.8647 19.1606 43.8522L27.871 31.7404C27.8788 31.7297 27.8891 31.7211 27.901 31.7152C27.9129 31.7093 27.926 31.7064 27.9392 31.7066C27.9525 31.7069 27.9655 31.7103 27.9771 31.7166C27.9888 31.7229 27.9988 31.7319 28.0062 31.7429L36.1134 43.8497C36.1215 43.8622 36.1261 43.8767 36.1267 43.8916C36.1272 43.9065 36.1237 43.9212 36.1165 43.9343C36.1093 43.9474 36.0987 43.9582 36.0858 43.9658C36.0729 43.9733 36.0582 43.9772 36.0433 43.977H35.0997C35.0858 43.9772 35.072 43.9738 35.0598 43.9673C35.0475 43.9607 35.0371 43.9512 35.0296 43.9396L27.9711 33.4475C27.9635 33.4367 27.9534 33.4278 27.9416 33.4217C27.9299 33.4157 27.9168 33.4125 27.9035 33.4125C27.8903 33.4125 27.8772 33.4157 27.8655 33.4217C27.8537 33.4278 27.8436 33.4367 27.836 33.4475Z" fill="#221F20"/>
<path d="M27.72 36.4924C26.0881 38.9049 24.4319 41.3233 22.7516 43.7475C22.5964 43.9696 22.4637 44.057 22.2034 43.9621C22.11 43.9289 22.0916 43.8715 22.1484 43.7899L27.7801 35.5639C27.7894 35.5502 27.802 35.5389 27.8168 35.5312C27.8315 35.5236 27.848 35.5197 27.8646 35.5199C27.8813 35.5202 27.8976 35.5245 27.9121 35.5327C27.9266 35.5408 27.9389 35.5524 27.9478 35.5664L33.119 43.7849C33.1774 43.8764 33.154 43.9372 33.0489 43.9671C32.8436 44.0245 32.6559 43.9646 32.5333 43.7725C31.0348 41.3865 29.5088 38.9607 27.9553 36.4949C27.9428 36.4752 27.9255 36.4589 27.9051 36.4475C27.8847 36.4362 27.8617 36.4301 27.8383 36.4298C27.815 36.4296 27.7919 36.4352 27.7712 36.4461C27.7505 36.457 27.7329 36.4729 27.72 36.4924Z" fill="#221F20"/>
</svg>
