<!-- by TradingView --><svg width="18" height="18" viewBox="0 0 18 18" xmlns="http://www.w3.org/2000/svg"><path fill="#F0F3FA" d="M0 0h18v18H0z"/><path d="M11.7 10.04C9.94 11.47 8.56 12 7.8 12 5.57 12 4 8.35 4 6.83S8.26 3 10.65 3C13.05 3 14 6.09 14 6.83c0 .74-.06 1.44-2.3 3.21Z" fill="url(#aut4nvo4g)"/><path d="M10 13.95c0-.54-1.13-.95-1.81-.95-.77 0-1.19.95-1.19 1.39 0 .43 1.05.61 1.75.61S10 14.62 10 13.95Z" fill="#BA0D2B"/><defs><linearGradient id="aut4nvo4g" x1="9" y1="3" x2="9" y2="12" gradientUnits="userSpaceOnUse"><stop stop-color="#0679C0"/><stop offset="1" stop-color="#95C3E7"/></linearGradient></defs></svg>