<!-- by TradingView --><svg width="18" height="18" viewBox="0 0 18 18" xmlns="http://www.w3.org/2000/svg"><path fill="#F0F3FA" d="M0 0h18v18H0z"/><path fill-rule="evenodd" d="M9 15A6 6 0 1 0 9 3a6 6 0 0 0 0 12Zm0-.7A5.3 5.3 0 1 0 9 3.7a5.3 5.3 0 0 0 0 10.6Z" fill="#0C3F21"/><path d="M8.1 6.19c-.14-.05-.17-.2-.04-.32l.18-.12c.22-.11.4-.1.65-.01.17.05.26 0 .47.1.1.03.33-.05.7.23.38.27-.09.65-.68.49-.19-.05-.41-.1-.6-.17l-.15-.05c-.14-.02-.35-.03-.44-.14.3-.03.27.14.69.14l-.1-.06c-.24-.14-.21 0-.61-.2 0-.22.03-.12.09-.27a.29.29 0 0 0-.2.13c-.1.13 0 .13.04.25Zm2.34.08c0-.51-.91-.76-1.25-.77-.45 0-1.3.06-1.55.57a.7.7 0 0 0-.07.27c0 .4.97.56 1.22.57.3.01 1.65-.17 1.65-.64ZM7.86 12c-.01-.76-.07-1.52-.08-2.28 0-.54-.05-1.23-.05-1.7 0-.22-.02-.19-.1-.27l-.06-.08c0 .83.08 3.03.2 3.86.01.14 0 .32.03.38.03.1.02.06.06.09Zm1.16-4.47c-.86 0-1.07-.17-1.73-.48.07.44 1.08.62 1.73.62.65 0 1.54-.23 1.7-.67-.55.1-.84.53-1.7.53Z" fill="#0C3F21"/><path d="M8.78 6.03c.1-.24.43-.12.43-.12.09.06.02.13-.06.19L9 6.21c-.11-.02-.17-.07-.22-.18Zm-.22.1c.07.05.39.13.49.12.08 0 .14-.04.22-.07.43-.19-.05-.44-.52-.4.15.2-.15.22-.19.36Z" fill="#0C3F21"/><path d="M8.92 7.36c1.15 0 1.38-.43 1.84-.66.07.32-.04 1.48-.04 1.92 0 .81-.07 1.64-.1 2.45-.05 1.05-.42 1.68-1.47 1.68-.63 0-1.46-.24-1.59-1.52-.14-1.4-.23-2.82-.36-4.23 0-.18.03-.24.07-.2.55.36.77.56 1.65.56ZM7.44 6.24c.23-.71 1.04-.8 1.61-.79.55.02 1.09.16 1.32.41.08.1.18.27.17.44 0 .18-.16.23-.28.32-.13.1-.25.12-.38.18-.25.1-.61.17-.98.16-.49 0-1-.11-1.3-.34-.2-.17-.16-.2-.16-.38Zm-.1-.12-.01-.08c-.04-.65 1.26-.9 1.67-.9.56 0 1.7.17 1.67.92-.11-.08-.07-.05-.15-.16-.3-.4-1.04-.53-1.47-.53-.62 0-1.36.1-1.72.75Zm2.8.7c-.18.2-1 .32-1.23.32-.24 0-1.03-.12-1.2-.3.57.11.85.2 1.19.2.3 0 .63-.06 1.24-.21Zm-3-.55c0 .06.05.02.02.14-.04.16-.14.26-.15.43-.04.61.07 1.25.12 1.86l.17 1.77c.1.9-.05 1.35.4 1.91.33.43 1.01.63 1.49.62.66 0 1.55-.5 1.6-1.28.08-1.52.14-3.04.2-4.56.04-.94-.18-.62-.17-1 0-.12 0-.22-.03-.32C10.6 5.13 9.54 4.99 9 5c-.56.01-1.14.15-1.55.49-.18.14-.38.51-.32.78Z" fill="#0C3F21"/></svg>