<!-- by TradingView --><svg width="18" height="18" viewBox="0 0 18 18" fill="none" xmlns="http://www.w3.org/2000/svg">
<rect width="18" height="18" fill="#F0F3FA"/>
<path fill-rule="evenodd" clip-rule="evenodd" d="M12.5355 12.5355C13.4732 11.5979 14 10.3261 14 9C14 8.34339 13.8707 7.69321 13.6194 7.08658C13.3681 6.47996 12.9998 5.92876 12.5355 5.46447C12.0712 5.00017 11.52 4.63188 10.9134 4.3806C10.3068 4.12933 9.65661 4 9 4C7.67392 4 6.40215 4.52678 5.46447 5.46447C4.52678 6.40215 4 7.67392 4 9C4 10.3261 4.52678 11.5979 5.46447 12.5355C5.92876 12.9998 6.47996 13.3681 7.08658 13.6194C7.69321 13.8707 8.34339 14 9 14C10.3261 14 11.5979 13.4732 12.5355 12.5355ZM12.7969 6.60053C13.1374 6.93113 13.3772 7.32205 13.5026 7.75096C13.7559 8.6172 13.528 9.58562 12.8691 10.4432C12.2102 11.3008 11.1743 11.9772 9.98915 12.3238C9.40234 12.4954 8.79656 12.5808 8.20642 12.5752C7.61628 12.5696 7.05332 12.4731 6.54969 12.2911C6.04607 12.1092 5.61163 11.8454 5.27119 11.5148C4.93075 11.1842 4.69097 10.7932 4.56555 10.3643C4.31225 9.4981 4.5401 8.52967 5.199 7.6721C5.8579 6.81453 6.89386 6.13806 8.07898 5.79151C8.66579 5.61991 9.27157 5.53448 9.86171 5.54008C10.4519 5.54569 11.0148 5.64222 11.5184 5.82417C12.0221 6.00612 12.4565 6.26993 12.7969 6.60053ZM8.68376 9.96476C8.68259 9.84804 8.68142 9.73141 8.68457 9.61485C8.68479 9.60294 8.70856 9.59637 8.71892 9.59512C8.8762 9.57767 9.05339 9.58468 9.23545 9.59187C9.48841 9.60187 9.75078 9.61223 9.98219 9.5579C10.6836 9.3941 11.1384 8.78282 10.9619 7.95191C10.8644 7.4929 10.5266 7.17237 10.1322 7.05287C10.032 7.02234 9.8697 7.00695 9.64538 7.00671C8.85455 7.00596 8.06382 7.00373 7.2732 7.00001C7.16743 6.99951 7.09042 7.03649 7.04216 7.11094C6.92747 7.28777 7.0696 7.39164 7.19619 7.4579C7.32344 7.52454 7.40277 7.63473 7.40277 7.79481C7.40387 8.67536 7.40398 9.55678 7.4031 10.4391C7.4031 10.4525 7.39781 10.4623 7.38723 10.4685C7.35994 10.4846 7.3269 10.5004 7.29223 10.5169C7.20094 10.5606 7.09843 10.6096 7.06034 10.6833C6.93243 10.9316 7.27717 10.9986 7.40343 10.999C7.82804 11.0005 8.25266 11.0003 8.67727 10.9986C8.83229 10.9982 9.1258 10.9684 9.07688 10.725C9.0551 10.6161 8.97511 10.5744 8.893 10.5316C8.78947 10.4777 8.68254 10.4219 8.68457 10.2276C8.68551 10.14 8.68463 10.0523 8.68376 9.96476ZM8.68457 8.94402V7.68424C8.6844 7.66631 8.70565 7.64946 8.72322 7.64925L9.14199 7.64516C9.5379 7.6412 9.66378 8.0328 9.66687 8.37853C9.66928 8.68197 9.45145 8.99704 9.15257 9H8.73379C8.71623 9.00021 8.68474 8.96195 8.68457 8.94402Z" fill="#017DC7"/>
</svg>
