<!-- by TradingView --><svg width="56" height="56" viewBox="0 0 56 56" xmlns="http://www.w3.org/2000/svg"><path fill="#F0F3FA" d="M0 0h56v56H0z"/><circle cx="28" cy="28" r="16" fill="url(#aefnqdss2)"/><path d="M33.08 15.3c2.31 3.85.11 9.52-4.9 12.67-5.02 3.14-10.96 2.57-13.26-1.27-2.31-3.85-.11-9.52 4.9-12.67 5.02-3.14 10.96-2.57 13.26 1.27Z" fill="url(#befnqdss2)" fill-opacity=".8"/><path d="M22.96 15.32c.22.51-.48 1.45-1.56 2.1-1.08.66-2.14.77-2.36.26-.22-.51.48-1.45 1.56-2.1 1.08-.66 2.14-.77 2.36-.26Z" fill="#fff"/><circle cx="17.5" cy="18.5" r=".5" fill="#fff"/><path d="M14.34 28.81c7.81 5.2 22.15 10.33 29.16-3.31l.5 1c-1.33 2.5-5.5 7.6-11.5 8-6.87.46-11.64-1.18-18.16-5.69Z" fill="url(#cefnqdss2)"/><path d="M33 43c-12-3.2-18.33-15-20-20.5 7.6 15.2 16.83 20 20.5 20.5H33Z" fill="url(#defnqdss2)"/><path d="M40 29c-.8-6.4-6.33-13.67-9-16.5h.5c2.5 2.5 7.8 9.3 9 16.5 1.2 7.2-4.17 12.33-7 14 2.5-2 7.3-7.6 6.5-14Z" fill="url(#eefnqdss2)"/><path d="M32 41.5c-7.6 1.2-14.5-3.5-17-6 5.2 8 13.5 8 17 7v-1Z" fill="url(#fefnqdss2)"/><path d="M20 24.5c0-5.22 5.83-10.5 9-12.5h.5c-2.96 3-9.5 7.5-9 12.5C20.85 27.98 32 34.78 32 39c0 1.5-1.5 3.5-1.5 4 0 .4.67.83 1 1H31c-.33 0-1-.2-1-1s1-3 1.5-4C32 35 20 29 20 24.5Z" fill="url(#gefnqdss2)"/><path d="M37.5 15C22.7 20.6 18.33 34 18 40c1.6-12.4 14-21.5 20-24.5l-.5-.5Z" fill="url(#hefnqdss2)"/><path d="M41 37a10.43 10.43 0 0 0-1.54-3.83 1.5 1.5 0 0 0-1.67-2.14c-2.7-2.93-6.74-5.36-10.82-7.22A1.5 1.5 0 0 0 25.5 22c-.51 0-.97.26-1.24.65A62.1 62.1 0 0 0 16 20c3 1.15 5.66 2.28 8 3.38v.12a1.5 1.5 0 0 0 2.5 1.11c5 2.55 8.3 4.93 10.4 7a1.5 1.5 0 0 0 1.91 2.21c1.46 2.08 1.62 3.7 1.19 4.68l1-1.5Z" fill="url(#iefnqdss2)"/><path d="M21.61 35.2A31.14 31.14 0 0 1 42 21.5l.5.5c-4.78 1.27-14.52 5.59-20.57 13.64a1 1 0 0 1-.96 1.36c-.74 1.1-1.4 2.27-1.97 3.5.32-1 .85-2.24 1.6-3.59a1 1 0 1 1 1.01-1.7Z" fill="url(#jefnqdss2)"/><defs><linearGradient id="aefnqdss2" x1="19.5" y1="15" x2="36" y2="41.5" gradientUnits="userSpaceOnUse"><stop stop-color="#D54375"/><stop offset=".47" stop-color="#F57E2A"/><stop offset=".72" stop-color="#FFCB54"/><stop offset="1" stop-color="#FCFFFF"/></linearGradient><linearGradient id="befnqdss2" x1="19.5" y1="15.5" x2="28.5" y2="27" gradientUnits="userSpaceOnUse"><stop stop-color="#FFBEB9"/><stop offset=".43" stop-color="#F48993"/><stop offset="1" stop-color="#FCE2AF"/></linearGradient><linearGradient id="cefnqdss2" x1="44.5" y1="26.5" x2="14" y2="29" gradientUnits="userSpaceOnUse"><stop stop-color="#87C2DA"/><stop offset="1" stop-color="#DEDE96"/></linearGradient><linearGradient id="defnqdss2" x1="12.5" y1="23" x2="31" y2="43" gradientUnits="userSpaceOnUse"><stop stop-color="#EBD8AF"/><stop offset="1" stop-color="#A4C191"/></linearGradient><linearGradient id="eefnqdss2" x1="35.84" y1="12.5" x2="35.84" y2="43" gradientUnits="userSpaceOnUse"><stop stop-color="#B4C17C"/><stop offset="1" stop-color="#97BAE4"/></linearGradient><linearGradient id="fefnqdss2" x1="15.81" y1="36" x2="31" y2="42.5" gradientUnits="userSpaceOnUse"><stop stop-color="#FFCA78"/><stop offset="1" stop-color="#FFF6DE"/></linearGradient><linearGradient id="gefnqdss2" x1="20.57" y1="14.15" x2="33.2" y2="15.03" gradientUnits="userSpaceOnUse"><stop stop-color="#D5D089"/><stop offset=".37" stop-color="#F3F9F7"/><stop offset=".6" stop-color="#BBCE41"/><stop offset="1" stop-color="#95B6DF"/></linearGradient><linearGradient id="hefnqdss2" x1="38" y1="15" x2="39.21" y2="37.9" gradientUnits="userSpaceOnUse"><stop stop-color="#BBCE46"/><stop offset=".18" stop-color="#F2F8F2"/><stop offset=".37" stop-color="#D5E3E6"/><stop offset="1" stop-color="#91CAF4"/></linearGradient><linearGradient id="iefnqdss2" x1="17.19" y1="21.24" x2="42.65" y2="27.92" gradientUnits="userSpaceOnUse"><stop stop-color="#F9F8F3"/><stop offset=".84" stop-color="#99BFCF"/><stop offset="1" stop-color="#B4BF93"/></linearGradient><linearGradient id="jefnqdss2" x1="20.5" y1="38.5" x2="31.55" y2="16.3" gradientUnits="userSpaceOnUse"><stop stop-color="#82C2F5"/><stop offset=".51" stop-color="#ECF7ED"/><stop offset="1" stop-color="#8BC7D1"/></linearGradient></defs></svg>