<!-- by TradingView --><svg width="18" height="18" viewBox="0 0 18 18" fill="none" xmlns="http://www.w3.org/2000/svg">
<rect width="18" height="18" fill="#F0F3FA"/>
<path d="M9.28532 13.5848C9.28532 14.7871 10.1792 15.696 10.6261 16.0001C10.0623 15.8684 9.33009 15.4714 9.03448 15.2894C8.89918 14.9777 8.62493 14.3434 8.61034 14.3005C8.59575 14.2575 8.7502 13.3522 8.82925 12.905L9.91368 11.9444C9.93005 11.9289 9.94565 11.9151 9.96029 11.9031L9.91368 11.9444C9.67863 12.1667 9.28532 12.7418 9.28532 13.5848Z" fill="#6F170D"/>
<path d="M8.15846 10.4106C7.92934 10.4855 6.85039 10.6983 6.26852 10.8008L5.5332 10.5443L5.61503 9.87556C5.80596 9.89562 6.23963 9.92371 6.44693 9.87556C6.65422 9.82741 9.61996 9.16893 11.0769 8.8457L9.86316 10.1096C9.39039 10.1787 8.38757 10.3357 8.15846 10.4106Z" fill="url(#paint0_linear_229_29318)"/>
<path d="M8.04765 9.7275C6.98291 10.0725 5.85337 10.009 5.7793 10.0181L6.31629 8.68328C6.57245 8.69236 7.37362 8.67238 8.5291 8.51984C9.97343 8.32915 10.8827 7.87073 11.4012 7.87073C11.816 7.87073 12.069 8.13847 12.1307 8.23835L10.5382 9.09189C10.0629 9.18874 8.89944 9.45146 8.04765 9.7275Z" fill="url(#paint1_linear_229_29318)"/>
<path d="M4.49076 10.2411C5.00548 10.9245 5.99202 10.8798 6.42095 10.7721C5.142 10.7721 6.28756 9.26387 7.26835 8.40971C8.24913 7.55556 9.25346 6.79375 10.0302 6.27818C10.807 5.76262 11.9055 4.44676 11.9055 3.48488C11.9055 2.71537 11.5917 2.19468 11.4347 2.03052L10.0852 4.00045C8.86376 4.93925 6.34092 6.90611 6.02079 7.26316C5.62063 7.70947 3.84737 9.38699 4.49076 10.2411Z" fill="url(#paint2_linear_229_29318)"/>
<path d="M4.7262 9.24108C4.46257 9.78896 4.55358 10.244 4.63205 10.403C4.42136 10.235 4 9.74011 4 9.10485C4 7.96599 4.63205 7.39133 5.29974 6.86891C5.96744 6.3465 7.36655 5.25987 8.59172 4.38222C9.57186 3.68009 10.8965 2.50152 11.4362 2C11.2871 3.94338 8.14718 5.98607 7.15855 6.68632C6.16992 7.38657 5.05574 8.55622 4.7262 9.24108Z" fill="url(#paint3_linear_229_29318)"/>
<path d="M12.9996 9.15903C12.9996 8.72199 12.5926 8.34926 12.3892 8.21753C11.5918 8.77901 9.98088 9.90827 9.91651 9.93353C9.85214 9.95878 8.58084 11.4381 7.95323 12.1746C7.87277 12.5481 7.77139 13.4624 8.00956 14.1316C8.24773 14.8008 8.96706 15.2837 9.29695 15.4415C9.13603 15.2758 8.81418 14.8039 8.81418 14.2421C8.81418 12.6086 10.6729 11.4013 11.2522 10.9909C11.8315 10.5806 12.9996 9.70533 12.9996 9.15903Z" fill="url(#paint4_linear_229_29318)"/>
<path d="M11.5572 8.35674C11.8425 8.14278 11.6761 7.95213 11.5572 7.88354C13.5799 8.35223 12.1456 9.19335 11.5284 9.63099C10.9113 10.0686 7.95852 11.7261 7.95852 13.1865C7.95852 14.3548 8.85385 15.1831 9.30151 15.4512C8.67269 15.131 7.41504 14.2296 7.41504 13.1865C7.41504 10.2564 11.2006 8.62419 11.5572 8.35674Z" fill="url(#paint5_linear_229_29318)"/>
<defs>
<linearGradient id="paint0_linear_229_29318" x1="6.15372" y1="10.4239" x2="10.401" y2="9.48004" gradientUnits="userSpaceOnUse">
<stop stop-color="#39743A"/>
<stop offset="0.743708" stop-color="#6EB356"/>
<stop offset="1" stop-color="#39743A"/>
</linearGradient>
<linearGradient id="paint1_linear_229_29318" x1="6.4274" y1="9.50049" x2="11.6595" y2="8.41653" gradientUnits="userSpaceOnUse">
<stop stop-color="#398142"/>
<stop offset="0.606911" stop-color="#4AA83A"/>
<stop offset="1" stop-color="#1A4E28"/>
</linearGradient>
<linearGradient id="paint2_linear_229_29318" x1="11.6697" y1="3.92167" x2="5.63437" y2="10.9508" gradientUnits="userSpaceOnUse">
<stop stop-color="#30ADE5"/>
<stop offset="0.435549" stop-color="#28B8EC"/>
<stop offset="1" stop-color="#0C4395"/>
</linearGradient>
<linearGradient id="paint3_linear_229_29318" x1="4.25164" y1="9.03977" x2="11.752" y2="3.05105" gradientUnits="userSpaceOnUse">
<stop stop-color="#183C90"/>
<stop offset="0.487531" stop-color="#009DE1"/>
<stop offset="1" stop-color="#0291D5"/>
</linearGradient>
<linearGradient id="paint4_linear_229_29318" x1="12.9996" y1="9.43732" x2="8.5406" y2="14.3724" gradientUnits="userSpaceOnUse">
<stop stop-color="#A11C17"/>
<stop offset="0.537353" stop-color="#E6302D"/>
<stop offset="1" stop-color="#AB1D19"/>
</linearGradient>
<linearGradient id="paint5_linear_229_29318" x1="12.1417" y1="8.48259" x2="7.50623" y2="13.1678" gradientUnits="userSpaceOnUse">
<stop stop-color="#9F1A15"/>
<stop offset="0.662402" stop-color="#BA1F1D"/>
<stop offset="1" stop-color="#9F1A15"/>
</linearGradient>
</defs>
</svg>
