<!-- by TradingView --><svg width="18" height="18" viewBox="0 0 18 18" xmlns="http://www.w3.org/2000/svg"><path fill="#F0F3FA" d="M0 0h18v18H0z"/><path d="m9.92 6.62-.4-.6a4.43 4.43 0 0 1 3.04-1c1.3.16 1.5 1.26 1.43 1.8a1.6 1.6 0 0 0-1.22-1.2c-1.47 0-2.51.66-2.85 1Z" fill="#7FBF14"/><path d="m11.55 6.22-.41.8c.13.06.4.28.4.6 0 .4-.2 2.19-.2 2.79 0 .6.2 1.2.82 1.2.6 0 .81-.4 1.22-.4.32 0 .54.26.6.4V11c-.06-.14-.28-.4-.6-.4-.4 0-.82.6-1.43.4-.6-.2 0-2.6 0-3.6 0-.8-.27-1.13-.4-1.2Z" fill="#7FBF14"/><path d="m12.36 12.4-.2-.4c.32 0 .81-.26 1.01-.4v.4c-.16 0-.6.27-.81.4ZM12.77 13l-.2-.2c.16-.16.47-.2.6-.2v.2l-.4.2ZM10.53 6.62l-.4.8c1.21.6.6 2.79.6 2.99 0 .2-.81.8-2.44.8C7 11.2 4.22 10 3 9.4c2.44 1.8 4.27 2.4 5.3 2.4 1 0 2.64-.6 2.64-1.2V8.2a4 4 0 0 0-.41-1.6Z" fill="#7FBF14"/><path d="m10.33 8.41-.41.4c.2.07.57.32.4.8-.16.48-2.37.86-3.45 1 .2.06.85.2 1.83.2 1.22 0 1.83-.8 1.83-1.2 0-.32-.14-.93-.2-1.2Z" fill="#7FBF14"/><path d="M9.51 7.02v.8c-.4 0-1.22 0-1.42.4-.2.4.2.4.81.4.61 0 .81.4.61.59-.2.2-1.22 1.2-2.85 1A10.08 10.08 0 0 1 3 8.6c1.02.6 3.46 1.2 4.27 1.2.82 0 1.83-.4 1.83-.6 0-.2-.2-.2-.8-.2-.5 0-.76-.27-.82-.4C7.3 7.5 8.77 7.08 9.5 7.01Z" fill="#7FBF14"/></svg>