<!-- by TradingView --><svg width="56" height="56" viewBox="0 0 56 56" fill="none" xmlns="http://www.w3.org/2000/svg">
<rect width="56" height="56" fill="#F0F3FA"/>
<path d="M25.9664 11H30.2207C32.64 11.3265 34.9394 12.2272 37.0446 13.4604C37.0112 13.4716 36.997 13.4883 37.0021 13.5106C36.2159 13.1445 35.2051 12.4975 34.3597 12.3836C33.8598 12.3168 33.3706 12.2034 32.892 12.0434C32.467 11.9022 31.8599 11.8141 31.4121 11.8885C30.4028 12.0571 29.4284 11.8384 28.4115 11.9675C27.7148 12.0571 26.9241 12.0525 26.2001 12.2636C25.9846 12.3259 25.804 12.2606 25.5793 12.3487C24.9935 12.5735 24.3181 12.5902 23.7884 12.8833C23.2587 13.1734 22.7123 13.3192 22.219 13.6518C21.5709 14.0923 21.0215 14.3565 20.4568 14.7681C20.2231 14.9398 19.8452 15.0932 19.6084 15.3969C19.5769 15.4372 19.5326 15.4661 19.4824 15.4789C19.1374 15.565 18.8247 15.7523 18.5445 16.0409C18.5708 16.0065 18.5561 15.9994 18.5004 16.0196L18.0269 15.4318C17.7628 14.9266 17.9358 14.3763 18.546 13.7809C20.7903 12.3036 23.2637 11.3767 25.9664 11Z" fill="#D0D3D6"/>
<path d="M37.0026 13.5106C37.3527 13.6797 37.5991 13.95 37.7417 14.3216C37.6871 14.8664 37.4908 15.2952 37.1528 15.608C35.9204 14.9803 34.6667 14.5201 33.3918 14.2274C32.9289 14.1211 32.3855 14.1029 31.877 14.0087C30.8465 13.8189 29.9571 13.8234 28.9796 14.0953C28.4924 14.2305 28.0189 14.0482 27.5605 14.1819C27.2084 14.2821 25.1837 15.0127 25.088 15.3028C25.0759 15.3382 25.0526 15.363 25.0182 15.3772C24.1076 15.766 22.8858 16.1882 22.2012 16.9127C22.1942 16.9206 22.1899 16.9305 22.189 16.9411C22.1882 16.9516 22.1908 16.9622 22.1964 16.9711C22.2021 16.9801 22.2105 16.9869 22.2204 16.9906C22.2303 16.9943 22.2412 16.9947 22.2513 16.9917L22.3819 16.9491C22.4385 16.9309 22.4572 16.9496 22.438 17.0053L22.2695 17.4792L20.8565 17.1329C20.0045 16.8919 19.234 16.5279 18.5449 16.0409C18.8252 15.7523 19.1379 15.565 19.4829 15.4789C19.5331 15.4661 19.5774 15.4373 19.6089 15.3969C19.8457 15.0932 20.2236 14.9398 20.4573 14.7681C21.0219 14.3565 21.5714 14.0923 22.2195 13.6518C22.7127 13.3192 23.2591 13.1734 23.7888 12.8833C24.3185 12.5902 24.9939 12.5735 25.5798 12.3487C25.8044 12.2606 25.985 12.3259 26.2006 12.2636C26.9245 12.0525 27.7153 12.0571 28.412 11.9675C29.4289 11.8384 30.4033 12.0571 31.4126 11.8885C31.8603 11.8141 32.4675 11.9022 32.8924 12.0434C33.371 12.2034 33.8603 12.3168 34.3601 12.3836C35.2055 12.4975 36.2164 13.1445 37.0026 13.5106Z" fill="#E0E8EC"/>
<path d="M37.0454 13.4604C37.9379 13.9536 38.7524 14.5611 39.4891 15.283L39.4299 15.3757C39.3934 15.4334 39.3509 15.4379 39.3024 15.3893C38.841 14.9205 38.3209 14.5646 37.7421 14.3216C37.5994 13.95 37.3531 13.6797 37.003 13.5106C36.9979 13.4883 37.0121 13.4716 37.0454 13.4604Z" fill="#257BA1"/>
<path d="M18.5465 13.7811C17.9363 14.3765 17.7633 14.9268 18.0274 15.4321C17.4395 15.8806 16.8415 16.0927 16.2334 16.0684L16.4747 15.4715C17.0586 14.8337 17.7491 14.2702 18.5465 13.7811Z" fill="#257BA1"/>
<path d="M37.7413 14.3215C38.3201 14.5645 38.8402 14.9204 39.3016 15.3892C39.3502 15.4378 39.3927 15.4333 39.4291 15.3756L39.4883 15.2829C40.1349 16.22 39.1908 17.2437 38.4486 17.7312C37.714 17.9955 37.025 18.2993 36.3814 18.6425C36.2661 18.7043 36.0946 18.7098 35.8669 18.6592C34.6618 18.3904 32.9437 18.0487 31.3272 17.9408C30.9812 17.9175 30.6397 17.8689 30.3027 17.795C32.628 17.5414 35.1581 17.0797 37.1524 15.608C37.4904 15.2951 37.6867 14.8663 37.7413 14.3215Z" fill="#0895D2"/>
<path d="M16.4749 15.4714L16.2335 16.0683C15.8045 16.852 15.805 17.6347 16.2351 18.4164C16.3656 18.6827 16.489 18.8584 16.6054 18.9434L17.129 19.4431C17.1877 19.4765 17.2343 19.516 17.2687 19.5616C17.0602 20.3199 16.6691 20.9958 16.0954 21.5891C15.5551 21.3269 15.0426 21.0054 14.5579 20.6247L14.2119 20.2951C13.794 19.9549 13.5931 19.4755 13.6093 18.8568C14.3641 17.5699 15.3193 16.4414 16.4749 15.4714Z" fill="#D0D3D6"/>
<path d="M18.0275 15.4319L18.5011 16.0197C17.7573 16.3356 16.9347 16.6074 16.2714 17.0631C16.2503 17.0776 16.2329 17.097 16.2208 17.1198C16.2087 17.1425 16.2021 17.1678 16.2016 17.1937C16.1971 17.5628 16.4991 18.108 16.235 18.4163C15.805 17.6346 15.8045 16.852 16.2335 16.0683C16.8416 16.0926 17.4396 15.8804 18.0275 15.4319Z" fill="#0987BE"/>
<path d="M18.5007 16.0197C18.5563 15.9994 18.571 16.0065 18.5447 16.0409C19.2337 16.528 20.0043 16.892 20.8562 17.133L20.8001 17.3274C20.7859 17.377 20.7545 17.4084 20.706 17.4215C19.3036 17.8113 17.9365 18.3186 16.605 18.9434C16.4886 18.8583 16.3651 18.6826 16.2346 18.4163C16.4987 18.108 16.1967 17.5628 16.2012 17.1937C16.2017 17.1678 16.2082 17.1425 16.2204 17.1198C16.2325 17.0971 16.2499 17.0776 16.271 17.0631C16.9343 16.6074 17.7569 16.3356 18.5007 16.0197Z" fill="#0895D2"/>
<path d="M20.8568 17.1329L22.2698 17.4792L23.651 17.7253L23.5918 17.8301C23.5645 17.8777 23.524 17.8994 23.4704 17.8954C21.4411 17.742 18.917 18.6973 17.1291 19.443L16.6055 18.9433C17.9371 18.3186 19.3041 17.8113 20.7065 17.4215C20.7551 17.4083 20.7864 17.377 20.8006 17.3273L20.8568 17.1329Z" fill="#0987BE"/>
<path d="M23.6508 17.7253C25.8758 17.9866 28.0933 18.0099 30.3032 17.7952C30.6401 17.8691 30.9816 17.9177 31.3277 17.941C32.9441 18.0488 34.6622 18.3906 35.8673 18.6594C36.095 18.71 36.2665 18.7045 36.3819 18.6427C37.0254 18.2994 37.7145 17.9957 38.4491 17.7314C37.4433 18.4847 36.352 19.0624 35.1752 19.4644C35.1894 19.4016 35.1904 19.3499 35.1783 19.3094C35.1641 19.2608 35.1317 19.2335 35.0811 19.2274C33.108 18.9844 31.2943 18.7429 29.2923 18.8979C26.5189 19.1125 23.7924 19.5945 21.1131 20.3437C20.8409 20.4197 20.4781 20.5817 20.0248 20.8298C19.0818 20.6151 18.163 20.1924 17.2685 19.5616C17.2341 19.516 17.1876 19.4765 17.1289 19.4431C18.9168 18.6974 21.4409 17.742 23.4702 17.8954C23.5238 17.8995 23.5643 17.8777 23.5916 17.8301L23.6508 17.7253Z" fill="#32A5DD"/>
<path d="M40.8665 23.9311C40.5447 23.3798 39.4231 23.1672 38.8418 22.8452C40.6328 22.0873 43.0809 20.3073 41.8379 18.0002C41.8351 17.994 41.8346 17.9868 41.8364 17.9801C41.8382 17.9734 41.8423 17.9675 41.8478 17.9637C41.8534 17.9598 41.86 17.9581 41.8666 17.959C41.8731 17.9598 41.8791 17.9631 41.8834 17.9683C42.2588 18.4067 42.5659 18.8831 42.8047 19.3975C43.685 21.293 42.3145 22.9166 40.8665 23.9311Z" fill="#0895D2"/>
<path d="M35.1748 19.4644C33.652 20.0496 32.0674 20.4987 30.4212 20.8116C30.3645 20.5878 30.1854 20.4906 29.8839 20.52C29.6036 20.5473 29.4164 20.5569 29.3223 20.5488C27.7165 20.4111 26.4952 20.3529 25.6584 20.3742C24.4887 20.4035 23.1267 20.6506 21.5725 21.1153C21.1951 21.1315 20.6791 21.0364 20.0244 20.8298C20.4777 20.5817 20.8405 20.4197 21.1127 20.3438C23.792 19.5945 26.5185 19.1125 29.2919 18.8979C31.2939 18.743 33.1076 18.9845 35.0807 19.2275C35.1313 19.2335 35.1637 19.2609 35.1779 19.3095C35.19 19.35 35.189 19.4016 35.1748 19.4644Z" fill="#0895D2"/>
<path d="M13.6088 18.8568C13.5926 19.4755 13.7934 19.9549 14.2113 20.2951L12.472 21.7121C12.3232 20.7948 13.0882 19.5965 13.6088 18.8568Z" fill="#257BA1"/>
<path d="M14.2116 20.2952L14.5576 20.6247C13.9733 21.3553 13.1218 22.0828 12.4373 22.7344C12.332 22.2109 12.3437 21.8702 12.4722 21.7122L14.2116 20.2952Z" fill="#0987BE"/>
<path d="M30.4219 20.8109C28.3091 21.2447 26.0259 21.4292 23.5721 21.3645C22.8214 21.3442 22.1551 21.2608 21.5732 21.1142C23.1274 20.6502 24.4894 20.4035 25.6591 20.3741C26.4959 20.3529 27.7172 20.411 29.323 20.5485C29.4171 20.5566 29.6043 20.547 29.8846 20.5197C30.1861 20.4904 30.3652 20.5875 30.4219 20.8109Z" fill="#32A5DD"/>
<path d="M14.5578 20.6248C15.0425 21.0055 15.555 21.3269 16.0953 21.5892L16.6721 21.8899C16.6751 21.9497 16.6691 22.0003 16.6539 22.0418C16.6357 22.0894 16.6038 22.1253 16.5583 22.1496C15.3612 22.7582 14.2548 23.5155 13.2389 24.4217C12.821 23.875 12.5539 23.3125 12.4375 22.7344C13.122 22.0828 13.9735 21.3553 14.5578 20.6248Z" fill="#0895D2"/>
<path d="M16.6715 21.8899L18.0481 22.4245C17.7552 22.5308 17.5305 22.5004 17.2589 22.663C16.4711 23.1323 14.3736 24.2197 13.9304 25.1432L13.2383 24.4217C14.2542 23.5155 15.3606 22.7581 16.5577 22.1496C16.6032 22.1253 16.6351 22.0894 16.6533 22.0418C16.6684 22.0003 16.6745 21.9496 16.6715 21.8899Z" fill="#0987BE"/>
<path d="M18.0484 22.4244L21.3936 23.3053C19.2727 24.1275 17.376 25.1573 15.7034 26.3946C15.1145 26.0989 14.5236 25.6818 13.9307 25.1431C14.3739 24.2197 16.4714 23.1322 17.2591 22.6629C17.5308 22.5004 17.7555 22.5308 18.0484 22.4244Z" fill="#32A5DD"/>
<path d="M42.7189 29.3654L41.6504 28.4359C42.9648 27.4882 44.1319 26.1532 44.4476 24.5265C44.604 23.7201 44.2913 23.4558 44.2534 22.8361C44.2473 22.7389 44.2615 22.7359 44.2959 22.827C44.7178 23.9448 44.9713 25.1766 44.6434 26.34C44.3196 27.4963 43.6781 28.5048 42.7189 29.3654Z" fill="#0895D2"/>
<path d="M38.8418 22.8451C39.4231 23.1671 40.5448 23.3797 40.8665 23.931L39.6781 24.6525C39.1089 24.13 38.3106 23.9523 37.6048 23.6774C37.583 23.669 37.5644 23.6537 37.5518 23.6337C37.5392 23.6138 37.5334 23.5902 37.535 23.5665C37.5431 23.4683 37.5305 23.3908 37.4971 23.3341L38.8418 22.8451Z" fill="#32A5DD"/>
<path d="M21.3942 23.3054L25.8322 23.8735C25.5398 23.9413 25.2317 23.9803 24.9079 23.9904C22.232 24.0694 19.2739 25.2829 17.0382 26.7106C16.9967 26.7369 16.9745 26.7749 16.9714 26.8245L16.9578 27.0158L15.7041 26.3947C17.3767 25.1573 19.2734 24.1276 21.3942 23.3054Z" fill="#0895D2"/>
<path d="M37.4972 23.3342C37.5306 23.3909 37.5432 23.4684 37.5351 23.5666C37.5335 23.5903 37.5393 23.6139 37.5519 23.6338C37.5645 23.6538 37.5831 23.6691 37.6049 23.6775C38.3107 23.9524 39.109 24.1301 39.6782 24.6525C38.717 25.2135 37.8468 25.62 37.0676 25.8721C35.9313 25.3254 34.8021 24.8915 33.68 24.5705C33.4908 24.5169 33.172 24.4521 32.7238 24.3761C32.403 24.3225 32.0843 24.248 31.7676 24.1529C33.7457 24.0557 35.6556 23.7828 37.4972 23.3342Z" fill="#0895D2"/>
<path d="M12.5997 26.1985C12.0604 26.7443 11.6733 27.4682 11.4386 28.3704C11.2473 27.8965 11.1204 27.4313 11.0576 26.9746C11.0617 25.8295 11.2291 24.6995 11.56 23.5847C11.5617 23.5764 11.5665 23.5693 11.5734 23.5648C11.5803 23.5603 11.5888 23.5588 11.597 23.5605C11.6053 23.5623 11.6127 23.5672 11.6176 23.5743C11.6226 23.5813 11.6248 23.59 11.6237 23.5984C11.5888 23.9811 11.5221 24.341 11.6769 24.7086C11.9197 25.2888 12.2273 25.7854 12.5997 26.1985Z" fill="#257BA1"/>
<path d="M25.8315 23.8734C27.8248 24.0354 29.8035 24.1286 31.7675 24.1529C32.0842 24.248 32.4029 24.3225 32.7237 24.3761C33.1719 24.4521 33.4906 24.5169 33.6799 24.5705C34.802 24.8915 35.9312 25.3254 37.0675 25.8721C35.7521 26.4361 34.5207 26.8584 33.3733 27.1388C33.2387 27.0173 33.0566 26.9733 32.8269 27.0067C31.9253 27.1343 30.8507 26.8123 29.9568 26.7774C27.3644 26.671 24.5171 27.0067 22.1675 28.0866C22.0512 28.1402 21.825 28.126 21.4891 28.044C21.4395 28.0319 21.391 28.0339 21.3434 28.0501C21.2452 28.0845 21.1936 28.1357 21.1886 28.2035C19.7113 27.9595 18.3008 27.5636 16.957 27.0158L16.9707 26.8244C16.9737 26.7748 16.996 26.7368 17.0375 26.7105C19.2732 25.2829 22.2313 24.0693 24.9071 23.9904C25.2309 23.9802 25.539 23.9413 25.8315 23.8734Z" fill="#32A5DD"/>
<path d="M12.5996 26.1987C13.4212 26.9976 14.2985 27.635 15.2314 28.1109C14.5469 28.89 13.4101 30.1005 13.5011 31.3064C12.5247 30.4286 11.8371 29.45 11.4385 28.3706C11.6732 27.4684 12.0603 26.7445 12.5996 26.1987Z" fill="#0987BE"/>
<path d="M33.3732 27.1388C29.3612 28.4096 25.2996 28.7644 21.1885 28.2035C21.1935 28.1357 21.2451 28.0845 21.3433 28.0501C21.3908 28.0339 21.4394 28.0319 21.489 28.044C21.8249 28.126 22.0511 28.1402 22.1674 28.0866C24.517 27.0067 27.3643 26.671 29.9567 26.7774C30.8506 26.8123 31.9252 27.1343 32.8268 27.0067C33.0565 26.9733 33.2386 27.0173 33.3732 27.1388Z" fill="#0895D2"/>
<path d="M11.0578 26.9747C11.1205 27.4314 11.2475 27.8966 11.4387 28.3705C11.8374 29.4499 12.5249 30.4285 13.5014 31.3063C14.4758 32.2126 15.6045 32.9208 16.8875 33.4311L17.4673 33.6362L18.9305 34.0903L18.7787 34.6948C18.7665 34.7434 18.7696 34.791 18.7878 34.8375L19.0838 35.5802L16.7373 34.71C15.2671 34.0741 13.9345 33.1765 12.7395 32.0171C12.0848 31.3823 11.5318 30.6057 11.0805 29.6873C10.9814 28.8631 10.9738 27.9589 11.0578 26.9747Z" fill="#E0E8EC"/>
<path d="M15.2315 28.1108C16.4751 28.7416 17.7576 29.2423 19.0791 29.6129C18.3399 30.1749 16.338 31.8501 16.1756 32.6885C16.1665 32.7341 16.1842 32.7634 16.2287 32.7766C16.4214 32.8373 17.1636 33.0697 16.8874 33.4312C15.6044 32.9209 14.4757 32.2126 13.5012 31.3064C13.4102 30.1005 14.547 28.89 15.2315 28.1108Z" fill="#0895D2"/>
<path d="M41.6503 28.4358L42.7188 29.3653C42.0561 30.0002 41.3437 30.5378 40.5818 30.9783C40.2236 30.473 39.7683 30.0594 39.2158 29.7374C40.0739 29.3881 40.8854 28.9542 41.6503 28.4358Z" fill="#32A5DD"/>
<path d="M19.0796 29.6128L21.0148 30.117C19.492 30.9858 18.3081 32.0778 17.4632 33.3931C17.4319 33.4417 17.4334 33.5227 17.4678 33.6361L16.888 33.431C17.1642 33.0696 16.422 32.8372 16.2293 32.7764C16.1847 32.7633 16.167 32.7339 16.1761 32.6884C16.3385 31.85 18.3405 30.1747 19.0796 29.6128Z" fill="#0987BE"/>
<path d="M44.6899 31.3002C43.2207 34.4851 40.2777 36.6099 36.9219 37.7353C36.7934 37.2979 36.7276 36.8736 36.7246 36.4626C40.2504 35.492 43.7155 33.3126 44.957 29.7221C44.9914 29.6219 45.0051 29.6249 44.998 29.7313C44.9606 30.2709 44.8579 30.7939 44.6899 31.3002Z" fill="#0895D2"/>
<path d="M16.7368 34.7099C16.5051 35.6769 16.3766 36.7142 16.3513 37.8219C14.36 36.7243 12.8802 35.1721 11.9118 33.1653C11.4828 32.1234 11.2055 30.9641 11.0801 29.6873C11.5314 30.6056 12.0843 31.3822 12.739 32.0171C13.934 33.1764 15.2666 34.074 16.7368 34.7099Z" fill="#0987BE"/>
<path d="M39.2157 29.7374C39.7682 30.0594 40.2235 30.473 40.5817 30.9783L38.4477 32.0414C37.9459 31.52 37.3767 31.0173 36.7402 30.5333C37.6347 30.3115 38.4599 30.0462 39.2157 29.7374Z" fill="#0895D2"/>
<path d="M21.0145 30.1169C22.8844 30.4784 24.9096 30.7609 27.0901 30.9644C24.7527 31.2302 21.8432 32.3146 20.4286 34.2405C20.3942 34.2881 20.3502 34.3012 20.2966 34.28C20.0689 34.1939 19.9424 34.2152 19.9171 34.3438L18.9306 34.0901L17.4674 33.636C17.433 33.5226 17.4315 33.4416 17.4629 33.393C18.3078 32.0777 19.4916 30.9857 21.0145 30.1169Z" fill="#32A5DD"/>
<path d="M36.7405 30.5333C37.377 31.0173 37.9461 31.52 38.448 32.0415C37.4443 32.4799 36.4703 32.8262 35.5263 33.0803C34.7269 32.3625 33.8203 31.8582 32.8064 31.5676C32.5464 31.4927 32.4235 31.3565 32.4376 31.1591C33.9554 31.0355 35.3897 30.827 36.7405 30.5333Z" fill="#32A5DD"/>
<path d="M27.09 30.9646C28.8567 31.0922 30.6391 31.157 32.4371 31.159C32.4229 31.3564 32.5459 31.4926 32.8059 31.5676C33.8198 31.8582 34.7264 32.3624 35.5258 33.0803L34.0293 33.498C30.2515 31.2441 25.3218 31.522 21.9129 34.3591C21.8724 34.3925 21.8572 34.435 21.8673 34.4867L21.9144 34.7525L19.917 34.3439C19.9423 34.2153 20.0688 34.1941 20.2964 34.2801C20.3501 34.3014 20.3941 34.2882 20.4285 34.2406C21.843 32.3148 24.7526 31.2304 27.09 30.9646Z" fill="#0895D2"/>
<path d="M44.69 31.3003C44.5038 32.735 44.0646 34.1045 43.3725 35.4086C40.0031 40.3948 33.4766 42.3769 27.7167 42.0443C25.4785 41.9136 23.1796 41.4707 20.8199 40.7153L19.6057 40.29C16.7963 39.3985 14.4195 37.8433 12.7636 35.4785C12.372 34.7566 12.0882 33.9855 11.9121 33.1654C12.8804 35.1722 14.3603 36.7244 16.3516 37.822C17.0902 38.2422 17.9286 38.6087 18.8665 38.9216L20.3874 39.3347C25.2291 40.404 30.0085 39.8056 34.7956 38.4842C35.5272 38.2817 36.236 38.0321 36.922 37.7354C40.2778 36.61 43.2208 34.4852 44.69 31.3003Z" fill="#E0E8EC"/>
<path d="M34.0292 33.4981C30.0678 34.5096 25.9547 35.269 21.9143 34.7526L21.8673 34.4868C21.8572 34.4351 21.8724 34.3926 21.9128 34.3592C25.3217 31.5221 30.2515 31.2442 34.0292 33.4981Z" fill="#32A5DD"/>
<path d="M16.7371 34.71L19.0836 35.5802L19.4691 35.7139C19.1311 36.4389 18.9545 37.1491 18.9394 37.8448C18.9282 38.3844 18.904 38.7434 18.8665 38.9216C17.9285 38.6087 17.0902 38.2422 16.3516 37.822C16.3769 36.7143 16.5054 35.6769 16.7371 34.71Z" fill="#0895D2"/>
<path d="M43.3729 35.4086C43.0056 36.2115 42.5432 36.9466 41.9857 37.6139C37.4399 42.5105 30.575 43.8713 24.167 43.0572C23.7258 43.0015 23.4081 42.9484 23.2138 42.8978C23.0186 42.7236 22.7803 42.6021 22.499 42.5332C22.4508 42.5215 22.408 42.4936 22.3775 42.4543C22.0558 42.032 21.6232 41.8513 21.3364 41.4397C21.1734 41.2058 21.0014 40.9643 20.8203 40.7152C23.1799 41.4706 25.4789 41.9136 27.7171 42.0442C33.477 42.3768 40.0035 40.3948 43.3729 35.4086Z" fill="#0895D2"/>
<path d="M12.7637 35.4784C14.4196 37.8432 16.7964 39.3984 19.6058 40.2899C19.5188 40.3517 19.4672 40.4135 19.451 40.4752C19.4378 40.5228 19.453 40.5578 19.4965 40.58C19.6341 40.6529 19.7227 40.7223 19.7621 40.7881C20.0222 41.2235 20.35 41.6022 20.7456 41.9242C20.7881 41.9586 20.8048 42.0026 20.7957 42.0563L20.7502 42.3297C19.2344 41.8771 17.7829 41.1962 16.3957 40.2869C14.8456 38.9787 13.6349 37.3759 12.7637 35.4784Z" fill="#257BA1"/>
<path d="M19.4697 35.7139L20.5337 36.0313C20.2524 37.0094 20.1366 37.9916 20.1861 38.9778C20.1875 39.0027 20.1949 39.0271 20.2075 39.049C20.2201 39.0708 20.2378 39.0896 20.259 39.1038C20.3531 39.1666 20.3961 39.2435 20.388 39.3347L18.8672 38.9216C18.9046 38.7434 18.9289 38.3844 18.94 37.8447C18.9552 37.1491 19.1318 36.4388 19.4697 35.7139Z" fill="#0987BE"/>
<path d="M20.5335 36.0315C24.0836 37.002 27.9084 37.6961 31.6133 37.3696C33.3638 37.2156 35.0677 36.9134 36.7251 36.4628C36.7282 36.8739 36.7939 37.2982 36.9224 37.7356C36.2364 38.0323 35.5276 38.2818 34.796 38.4844C30.009 39.8057 25.2295 40.4041 20.3878 39.3349C20.3959 39.2437 20.3529 39.1668 20.2588 39.104C20.2376 39.0898 20.22 39.071 20.2073 39.0492C20.1947 39.0273 20.1874 39.0029 20.1859 38.978C20.1364 37.9918 20.2522 37.0096 20.5335 36.0315Z" fill="#32A5DD"/>
<path d="M41.9852 37.6139C41.7727 38.1394 41.5637 38.5044 41.3583 38.7089C40.6298 39.4289 39.9134 40.287 39.1925 40.8945C32.9317 46.1617 24.1012 46.3865 17.5687 41.42C17.1124 41.0737 16.7213 40.696 16.3955 40.287C17.7828 41.1962 19.2343 41.8772 20.75 42.3298C21.5494 42.5839 22.3705 42.7732 23.2133 42.8978C23.4076 42.9484 23.7253 43.0016 24.1665 43.0573C30.5745 43.8713 37.4394 42.5105 41.9852 37.6139Z" fill="#D0D3D6"/>
<path d="M19.6057 40.2902L20.8199 40.7154C21.001 40.9645 21.173 41.206 21.3359 41.4399C21.6228 41.8515 22.0554 42.0322 22.3771 42.4544C22.4076 42.4938 22.4504 42.5217 22.4986 42.5334C22.7799 42.6023 23.0181 42.7238 23.2134 42.8979C22.3706 42.7734 21.5494 42.584 20.7501 42.3299L20.7956 42.0565C20.8047 42.0029 20.788 41.9588 20.7455 41.9244C20.3499 41.6024 20.0221 41.2237 19.762 40.7883C19.7226 40.7225 19.634 40.6532 19.4964 40.5802C19.4529 40.558 19.4377 40.523 19.4509 40.4755C19.4671 40.4137 19.5187 40.3519 19.6057 40.2902Z" fill="#0987BE"/>
</svg>
