<!-- by TradingView --><svg width="56" height="56" viewBox="0 0 56 56" xmlns="http://www.w3.org/2000/svg"><path fill="#F0F3FA" d="M0 0h56v56H0z"/><path d="M31 43.72A16 16 0 1 1 43.97 27h-1A15 15 0 1 0 31 42.7v-2.05A13 13 0 1 1 40.96 27h-1A12 12 0 1 0 31 39.62v-2.08A10 10 0 1 1 37.95 27h-1A9 9 0 1 0 31 36.49v-2.16A7 7 0 1 1 34.93 27h-1.01A6 6 0 1 0 31 33.2v-2.55A3.99 3.99 0 0 1 24 28a4 4 0 0 1 7.87-1h-1.04a3 3 0 1 0 .17 1h1v16h-1v-.28Zm3 .28V28h1v16h-1Zm3-16v16h1V28h-1Zm3 16V28h1v16h-1Zm3-16v16h1V28h-1Z" fill="#713E4E"/></svg>