<!-- by TradingView --><svg width="18" height="18" viewBox="0 0 18 18" xmlns="http://www.w3.org/2000/svg"><path fill="#F0F3FA" d="M0 0h18v18H0z"/><path d="M9.3 3.02c-.34.09-.38.5-.05.62a26.66 26.66 0 0 0 .43.19.1.1 0 0 1 .02.1.1.1 0 0 1-.02.03c-.15.13-.34.03-.37-.15 0-.02 0-.02-.02-.02h-.34a.03.03 0 0 0-.01 0 .02.02 0 0 0-.01.02c.01.4.5.5.83.43.4-.09.47-.58.07-.73a5.27 5.27 0 0 0-.4-.15.07.07 0 0 1-.02-.05c0-.13.25-.1.3.03 0 .01 0 .03.02.04l.01.02h.02l.3.01a.04.04 0 0 0 .03 0 .03.03 0 0 0 .01-.03c0-.36-.53-.42-.8-.36Zm-1.24.06.34-.04c.02 0 .03 0 .03.02l.16 1.15c0 .02-.01.03-.03.03l-.34.04c-.02 0-.03 0-.03-.02L8.03 3.1c0-.02.01-.03.03-.03ZM6.93 4.34l.1.24v.02h-.01l-.34.12h-.03l-.43-1.1v-.03l.35-.12h.01l.01.01.15.37a.02.02 0 0 0 .03 0l.21-.5v-.01H7l.46-.16a.02.02 0 0 1 .02 0v.02l-.25.52v.02l.7.53h.01v.03l-.43.14a.02.02 0 0 1-.02 0l-.41-.35h-.01a.02.02 0 0 0-.02 0l-.1.23v.02Zm3.7-.86.34.11.01.01v.02l-.32.81a.02.02 0 0 0 .01.03h.01l.33.11a.03.03 0 0 0 .02 0h.01v-.01l.33-.81v-.01a.03.03 0 0 1 .03 0l.33.11a.03.03 0 0 0 .03 0v-.01l.1-.24v-.01a.02.02 0 0 0 0-.02h-.01l-1.11-.37a.03.03 0 0 0-.02 0 .02.02 0 0 0-.01 0l-.1.25v.02h.02Zm2.37.8-.36 1.2a.02.02 0 0 1-.01.02.02.02 0 0 1-.02 0l-.31-.21-.01-.01v-.02l.07-.16v-.02L12 4.85h-.02l-.16.1a.02.02 0 0 1-.03 0l-.3-.2a.02.02 0 0 1 0-.02l1.13-.7a.02.02 0 0 1 .03 0l.33.23H13v.02Zm-.75.38a.01.01 0 0 0 0 .02l.2.13h.01l.13-.36v-.01h-.01l-.33.22Zm-6.14.41.28-.21.01-.01a.03.03 0 0 0 0-.03h-.01l-1.14-.63a.03.03 0 0 0-.04 0l-.31.23-.01.02v.01l.42 1.17v.02h.02a.03.03 0 0 0 .03 0l.26-.2.02-.02V5.4l-.08-.15v-.02l.01-.01.33-.24.02-.01h.02l.13.1a.03.03 0 0 0 .04 0Zm-.46-.25-.18.14h-.01a.02.02 0 0 1-.01 0l-.16-.35V4.6a.01.01 0 0 1 .02 0l.34.2a.01.01 0 0 1 0 .02ZM13.66 9a4.1 4.1 0 0 1-1.32 3.03A4.8 4.8 0 0 1 9.1 13.3a4.82 4.82 0 0 1-3.27-1.22 4.11 4.11 0 0 1-1.39-3 4.1 4.1 0 0 1 1.32-3.03A4.8 4.8 0 0 1 9 4.78c1.22 0 2.4.43 3.28 1.22.87.8 1.37 1.87 1.38 3Zm-.7-1.28a4.18 4.18 0 0 0-3.82-2.5l1.36 1.8c.02.03.05.05.09.06l2.36.66c.02 0 .02 0 .01-.02Zm-4.22-2.5a4.15 4.15 0 0 0-3.61 2.55l2.25-.71c.02 0 .03-.01.04-.03l1.33-1.8c.01-.01 0-.02-.01-.02Zm.27 6.05c.63 0 1.24-.23 1.69-.65a2.18 2.18 0 0 0 0-3.18 2.47 2.47 0 0 0-1.69-.66c-.63 0-1.24.23-1.69.65-.45.42-.7 1-.7 1.59 0 .6.25 1.17.7 1.6.44.41 1.05.65 1.69.65Zm4.01-3.34-1.53 1.8c-.04.04-.06.1-.05.19a920.03 920.03 0 0 1 .12 2.18.03.03 0 0 0 .03 0 3.69 3.69 0 0 0 1.43-4.17Zm-6.77 3.96.23.19c.02.02.03.01.03-.02L6.48 9.8l-.01-.05-1.41-1.73c-.02-.02-.03-.02-.04 0-.43 1.4.06 2.9 1.23 3.87Zm5.09.35-2.4-.77H8.9l-2.1.78h-.01a.01.01 0 0 0 0 .02 4.49 4.49 0 0 0 4.56-.03Zm3-6.64-.52.37a.01.01 0 0 1-.02 0v-.01l.26-.72a.01.01 0 0 0 0-.02l-.22-.26a.01.01 0 0 0-.01 0l-1.03.71a.01.01 0 0 0 0 .02l.22.26a.01.01 0 0 0 .02 0l.52-.36a.01.01 0 0 1 .01 0v.01l-.25.71v.01l.21.27h.02l1.03-.7v-.01a.01.01 0 0 0 0-.02l-.21-.26a.01.01 0 0 0-.02 0Zm-9.85.36.34.24.01.03v.02l-.2.25h-.02a.03.03 0 0 1-.03 0l-1-.69v-.03l.4-.49c.17-.2.4-.25.61-.06.27.23.08.49-.11.7a.02.02 0 0 0 0 .03Zm-.43-.3.16.12a.05.05 0 0 0 .07 0l.04-.06a.25.25 0 0 0 .04-.06l.01-.06v-.05a.09.09 0 0 0-.03-.04l-.03-.02a.1.1 0 0 0-.05-.02H4.2a.22.22 0 0 0-.06.04.27.27 0 0 0-.05.05l-.04.05a.04.04 0 0 0 0 .05Zm10.43 2.7a4.5 4.5 0 0 1-1.51 4.25c-.02.01-.02.03 0 .04l.26.27h.03a5.05 5.05 0 0 0 1.06-6.36l-.34.19v.02c.25.46.42.99.5 1.59ZM3.03 9.76a5.08 5.08 0 0 1 .7-3.18l.35.2a.02.02 0 0 1 0 .03 4.65 4.65 0 0 0-.62 1.98 4.5 4.5 0 0 0 1.58 3.82v.04l-.28.25-.01.01a.04.04 0 0 1-.03 0h-.01a5.08 5.08 0 0 1-1.68-3.14ZM8.8 7.25h.43l.02.01v3.5l-.02.01H8.8l-.02-.01v-3.5l.02-.01Zm-.92 0h.72l.01.01v.33l-.01.01h-.72l-.02-.01v-.33l.02-.01Zm2.64.22c.62.37.35 1.34-.35 1.5-.17.04-.37.04-.57.04h-.1c-.02 0-.03-.01-.03-.02v-.22c0-.02.01-.03.03-.03.46-.04.96-.33.75-.8-.1-.25-.47-.38-.74-.43H9.5v-.24l.01-.02c.4-.03.73.04 1.02.22ZM8.51 10.5H8.5c-.35-.03-.71-.18-.8-.5-.1-.44.38-.66.78-.73.01 0 .02 0 .02-.02v-.22c0-.02 0-.02-.03-.03-.39-.02-.9.07-1.15.35-.4.43-.15 1.22.47 1.38.16.03.35.03.54.03h.16c.01 0 .02 0 .02-.02v-.24Zm1.6-.09h-.72l-.02.01v.33l.03.01h.7l.03-.01v-.33h-.02Zm-4.18 2.76c-.14-.48-.75.04-.63.3.08.15.27.17.4.06h.04l.18.25v.04c-.2.13-.4.14-.63.02-.34-.18-.48-.48-.3-.81.15-.27.48-.47.81-.35.33.13.58.4.44.74 0 .01-.02.02-.03.01l-.27-.12c-.02-.01-.03-.02-.02-.04l.01-.06v-.04Zm6.77-.34c.02-.02.02-.04 0-.05-.17-.12-.31-.13-.5-.04-.18.08-.43.28-.42.49 0 .24.24.36.49.28l.1-.03c.15-.06.34-.14.42-.04.01.01.02.03.01.04-.02.12-.1.18-.23.19a.1.1 0 0 1-.04-.01l-.11-.06h-.05l-.24.2c-.01.01-.02.02 0 .03.18.17.4.19.63.05.2-.1.38-.26.38-.48a.36.36 0 0 0-.4-.37c-.13.01-.25.06-.36.1l-.15.06c-.07.02-.1 0-.12-.06v-.03c.07-.12.17-.15.3-.08h.05l.24-.19Zm-1.44 1.5.61-.24h.02l.11.24a.01.01 0 0 1 0 .02l-1 .38h-.01l-.5-1.1.98-.39h.01l.1.23-.01.01-.6.23v.01a.01.01 0 0 0 0 .01l.07.15h.02l.55-.2c0-.01 0-.01 0 0h.01l.1.2v.02l-.56.22a.01.01 0 0 0 0 .01l.09.2h.01Zm-4.29-.96-.94.91a.01.01 0 0 0 0 .01.01.01 0 0 0 0 .01l.36.15h.02l.12-.15h.02l.4.15.01.02-.03.18.01.01.36.15h.02v-.02l.06-1.26v-.01l-.4-.15Zm-.22.7.26-.28h.02l-.04.37h-.01l-.23-.08a.01.01 0 0 1 0-.01Zm2.09.28-.01.01v.03c.4.17.16.63-.26.6a18.23 18.23 0 0 1-.79-.1l.16-1.17v-.01h.01l.57.06c.3.04.6.09.49.44-.02.08-.1.13-.17.14Zm-.22-.26a.06.06 0 0 0-.01-.04l-.02-.02h-.02l-.2-.02a.07.07 0 0 0-.04 0l-.02.03v.02l-.02.1a.06.06 0 0 0 .01.04l.02.02h.03l.19.03h.02l.03-.02.01-.01.01-.03.01-.1Zm-.37.39-.03.18a.03.03 0 0 0 0 .02.04.04 0 0 0 .03.02l.17.02c.05 0 .1 0 .13-.02.04-.02.06-.04.07-.07v-.02a.12.12 0 0 0-.04-.09.23.23 0 0 0-.12-.05l-.17-.02h-.03l-.01.03Zm2.2.1-.58.07h-.01l-.01-.01-.13-.86-.01-.01h-.02l-.35.03-.02.01v.02l.17 1.15.01.02h.02l.98-.12.01-.01v-.02l-.03-.25-.01-.02h-.02Z" fill="#05A553"/></svg>