<!-- by TradingView --><svg width="56" height="56" viewBox="0 0 56 56" xmlns="http://www.w3.org/2000/svg"><path fill="#F0F3FA" d="M0 0h56v56H0z"/><path d="M20 34.63V21.4c0-.44.2-.6.3-.62l5.78-.78c.3-.05.6.11.68.36l.22.7c.09.28-.13.56-.48.61l-3.87.5c-.36.05-.63.3-.63.61v3.3c0 .24.22.45.52.48l1.83.18c.37.04.65.3.65.6v1.31c0 .34-.34.62-.75.62H22.6c-.33 0-.6.22-.6.5v3.8c.38.08 1.5.31 2.29.56.98.3.37 0 1.58 0 1.2 0 .75 1.35.75 1.72 0 .37-2.18-.06-4.44-.37-1.8-.25-2.2-.68-2.18-.86ZM35 24h-1.98c-.2 0-.36-.17-.37-.38-.05-.83-.29-1.11-.71-1.11-.38 0-.94.19-.94.63v9.16c0 .69.16 1.7 1 1.7 1.86 0 1.14-2 1.8-2 .66 0 1.2.8 1.2 1.68 0 .88-.72 2.32-2.76 2.32-2.6 0-3.24-2.64-3.24-3.95v-8.6c0-1.38.54-3.45 2.94-3.45 2.35 0 3.02 2.6 3.06 4Zm-22 8.72v-8.73c0-.49.33-.93.82-1.08l2.58-.8c.98-.3 2.05.04 2.3 1 .17.66.3 1.5.3 2.55 0 2.92-1.04 3.34-2.15 3.34H15v5c-.52-.1-1.82-.48-2-1.28Zm4-6.41c-.04-1.1-.25-3.31-.84-3.31-.74 0-1.16 1.13-1.16 2.02 0 .88.42 2.98 1.16 2.98.73 0 .84-1.05.84-1.7Z" fill="#006B96"/><path fill-rule="evenodd" d="M28 39c11.6 0 21-4.92 21-11s-9.4-11-21-11S7 21.92 7 28s9.4 11 21 11Zm0-2c10.5 0 19-4.03 19-9s-8.5-9-19-9-19 4.03-19 9 8.5 9 19 9Z" fill="#006B96"/><path fill-rule="evenodd" d="M43 25.54A3.8 3.8 0 0 0 39.1 22C37 22 37 24.58 37 25.36v7.02c.07.54.59 1.62 2.1 1.62 1.88 0 3.9-1.44 3.9-2.7v-5.76ZM40 24c-.55 0-1 .38-1 .85v6.3c0 .47.45.85 1 .85s1-.38 1-.85v-6.3c0-.47-.45-.85-1-.85Z" fill="#006B96"/></svg>