<!-- by TradingView --><svg width="56" height="56" viewBox="0 0 56 56" fill="none" xmlns="http://www.w3.org/2000/svg">
<rect width="56" height="56" fill="#F0F3FA"/>
<path fill-rule="evenodd" clip-rule="evenodd" d="M12 15H22V16.7568H12.0515V17.0496H22V18.4579H19.5396C18.5143 17.9996 17.3834 17.9998 16.5591 18L16.51 18C14.9763 18 13.7786 18.2176 13.3715 18.3263V18.4579H12.0515V18.7507H13.3715V19.1421C13.9935 19.2545 14.3835 19.5977 14.6253 20H12.0515V20.2928H14.7729C14.9433 20.699 14.9938 21.1225 15 21.4086V21.9722H12.0515V22.265H15V23.7H12.0515V24H15V25.3369H12.0515V25.6297H15V27.0193H12.0515V27.3121H15V28.7203H12.0515V29.0131H15V30.4028H12.0515V30.6956H15V32.2533H12.0515V32.5461H15V33.9358H12.0515V34.2286H15V34.8402C15 35.1465 14.9406 35.4375 14.8309 35.7H12.0515V36H14.6761C14.3201 36.5705 13.6958 36.9468 12.9298 36.9468V37.3567H12.0515V37.6495H12.9298V38H19.3448V37.6495H22V39H12.0515V39.3H22V41H12V15ZM23 39.3V41H33V39.3H23ZM34 39.3H43.9485V39H34V37.6495H34.5665V38H41.2944L41.3303 37.6495H43.9485V37.3567H41.3603L41.4993 36H43.9485V35.7H41.53L41.6808 34.2286H43.9485V33.9358H41.7108L41.8531 32.5461H43.9485V32.2533H41.8831L42.0325 30.7957H41.5783C41.5206 31.3289 41.4496 31.8133 41.368 32.2533H37.4337V30.6956H43.9485V30.4028H37.4337V29.0131H43.9485V28.7203H37.4337V27.3121H43.9485V27.0193H37.4337V25.6297H43.9485V25.3369H37.4337V24H43.9485V23.7H37.4337V22.265H43.9485V21.9722H37.4337V20.2928H43.9485V20H37.4418C37.5072 19.399 37.9599 18.9067 38.5596 18.7507H43.9485V18.4579H38.9666V18H34.5665V18.4579H34V17.0496H43.9485V16.7568H34V15H44V41H34V39.3ZM33 16.7568V15H23V16.7568H33ZM23 17.0496V18.4579H27.2412C27.7732 18.1425 28.2972 18 28.7517 18C29.4629 18 30.0843 18.2008 30.5782 18.4579H33V17.0496H23ZM33 18.7507H31.0604C31.3478 18.9524 31.5614 19.1564 31.6867 19.3078V20H33V18.7507ZM33 20.2928H31.6867V21.9722H33V20.2928ZM34 21.9722V20.2928H36V21.9722H34ZM33 22.265H31.6867V23.7H33V22.265ZM34 23.7V22.265H36V23.7H34ZM33 24H31.6867V24.7644H31.2536C31.2364 24.5349 31.21 24.2765 31.1732 24H25.9261C25.8603 24.4473 25.8101 24.8977 25.7737 25.3369H33V24ZM34 25.3369V24H36V25.3369H34ZM33 25.6297H25.7513C25.7171 26.1182 25.6998 26.5883 25.6969 27.0193H33V25.6297ZM34 27.0193V25.6297H36V27.0193H34ZM33 27.3121H25.6972C25.7015 27.7276 25.7225 28.2054 25.7622 28.7203H33V27.3121ZM34 28.7203V27.3121H36V28.7203H34ZM33 29.0131H32.8655V29.2666C32.2145 29.2666 31.6867 29.7613 31.6867 30.3715V30.4028H33V29.0131ZM34 30.4028V29.0131H36V30.4028H34ZM33 30.6956H31.6867V32.2533H33V30.6956ZM34 32.2533V30.6956H36V32.2533H34ZM33 32.5461H31.6867V33.9358H33V32.5461ZM34 33.9358V32.5461H36V33.9358H34ZM33 34.2286H31.6867V35.2266H32.4325C32.3633 35.3665 32.2719 35.5275 32.1595 35.7H33V34.2286ZM34 35.7V34.2286H36V35.7H34ZM33 36H31.9503C31.6043 36.4652 31.1259 36.9704 30.5345 37.3567H33V36ZM34 37.3567V36H35.999C35.9686 36.6482 35.2568 37.1667 34.5665 37.1667V37.3567H34ZM37.4337 36V36.1452C37.5851 36.2975 37.9957 36.6022 38.4272 36.6022C38.6662 36.6022 39.195 36.5441 39.7618 36H37.4337ZM40.0355 35.7C40.3128 35.3559 40.5895 34.8816 40.8371 34.2286H37.4337V35.7H40.0355ZM37.4337 33.9358H40.9419C41.0774 33.5354 41.2021 33.0751 41.3108 32.5461H37.4337V33.9358ZM33 37.6495V39H23V37.6495H27.2204C27.6215 37.8809 28.0461 38 28.487 38C29.0437 38 29.5543 37.8649 30.0121 37.6495H33ZM26.7975 37.3567C26.3905 37.0259 26.0131 36.571 25.6742 36H23V37.3567H26.7975ZM22 37.3567V36H17.4181C17.8506 36.5714 18.5703 36.9468 19.3448 36.9468V37.3567H22ZM17.2275 35.7H22V34.2286H17V34.7876C17 35.1137 17.0824 35.4229 17.2275 35.7ZM17 33.9358H22V32.5461H17V33.9358ZM17 32.2533H22V30.6956H17V32.2533ZM17 30.4028H22V29.0131H19.8799C19.2697 29.5023 18.6506 29.7816 18.1926 29.896L17.932 29.0131H17V30.4028ZM17 28.7203H18.2325C18.5418 28.4787 18.9044 28.0322 19.2108 27.3121H17V28.7203ZM17 27.0193H19.3265C19.4699 26.6279 19.5961 26.1675 19.692 25.6297H17V27.0193ZM17 25.3369H19.7399C19.8005 24.9326 19.8443 24.488 19.8665 24H17V25.3369ZM17 23.7H19.8772C19.8811 23.5551 19.883 23.4066 19.883 23.2544C19.883 22.8994 19.8465 22.5699 19.781 22.265H17V23.7ZM17 21.9722H19.7074C19.5066 21.2784 19.1534 20.7237 18.7533 20.2928H17V21.9722ZM17 20H18.4543C17.9348 19.5371 17.3821 19.2609 17 19.1421V20ZM21.4165 20.2928C21.6458 20.7538 21.828 21.3073 21.9464 21.9722H22V20.2928H21.4165ZM22 20H21.2575C20.9273 19.4427 20.521 19.0407 20.0776 18.7507H22V20ZM23 20.2928V21.9722H24.6643C24.8936 21.3252 25.1632 20.7679 25.4576 20.2928H23ZM25.6493 20H23V18.7507H26.811C26.4102 19.06 26.0142 19.4722 25.6493 20ZM27.089 20.2928C26.7923 20.7451 26.5516 21.325 26.359 21.9722H30.754C30.5725 21.3518 30.3382 20.7602 30.0427 20.2928H27.089ZM29.836 20H27.3041C27.6635 19.5663 28.0943 19.3078 28.6073 19.3078C29.0921 19.3078 29.4985 19.5747 29.836 20ZM30.8354 22.265H26.2764C26.1538 22.7224 26.0534 23.2073 25.9727 23.7H31.1302C31.06 23.2427 30.9631 22.7497 30.8354 22.265ZM24.199 23.7C24.3002 23.1817 24.4237 22.7041 24.5652 22.265H23V23.7H24.199ZM23 24V25.3369H23.97C24.0123 24.8652 24.0709 24.4199 24.1437 24H23ZM23.9462 25.6297H23V27.0193H23.8925C23.8954 26.5334 23.9138 26.0705 23.9462 25.6297ZM23.8925 27.3121H23V28.7203H23.9296C23.9073 28.2653 23.8947 27.7958 23.8925 27.3121ZM23.9455 29.0131H23V30.4028H24.0634C24.0135 29.9568 23.974 29.4934 23.9455 29.0131ZM24.098 30.6956H23V32.2533H24.3488C24.2501 31.7622 24.1661 31.2426 24.098 30.6956ZM26.2849 32.2533C26.168 31.7414 26.0702 31.2157 25.9901 30.6956H30V32.2533H26.2849ZM24.4102 32.5461H23V33.9358H24.7782C24.6411 33.5039 24.518 33.0403 24.4102 32.5461ZM26.7668 33.9358C26.6106 33.5001 26.4735 33.0311 26.3543 32.5461H30V33.9358H26.7668ZM24.8749 34.2286H23V35.7H25.5054C25.274 35.2665 25.0628 34.7751 24.8749 34.2286ZM27.6678 35.7C27.3653 35.3085 27.1028 34.8033 26.8768 34.2286H30V35.7H27.6678ZM27.93 36C28.2827 36.3526 28.6834 36.5569 29.1366 36.5569C29.6501 36.5569 29.8822 36.19 29.9959 36H27.93ZM29.997 30.4028H25.9467C25.879 29.9267 25.826 29.4584 25.7865 29.0131H28.487V29.2666H28.8101C29.5013 29.2666 29.956 29.7673 29.997 30.4028ZM22 28.7203V27.3121H21.2964C20.9852 27.8834 20.6092 28.3485 20.216 28.7203H22ZM21.4456 27.0193H22V25.6297H21.9178C21.8038 26.1454 21.6414 26.6073 21.4456 27.0193ZM21.9761 25.3369H22V25.1952C21.9924 25.2428 21.9845 25.2901 21.9761 25.3369ZM22 22.265H21.9933C21.9956 22.2808 21.9978 22.2968 22 22.3128V22.265ZM36 20H34V18.7507H34.951C35.5138 18.9011 36 19.3626 36 19.9086V20Z" fill="#1D3A66"/>
</svg>
