<!-- by TradingView --><svg width="56" height="56" viewBox="0 0 56 56" xmlns="http://www.w3.org/2000/svg"><path fill="#004E30" d="M0 0h56v56H0z"/><path d="M34.64 17.61c-.77-.2-1.5.07-2.3.4a.22.22 0 0 1-.17.01.26.26 0 0 1-.13-.11c-.07-.11-.05-.22.05-.33.58-.67 1.13-1.4 1.82-1.49a12.8 12.8 0 0 1 2.81-.03c.06 0 .12.03.16.07.05.04.09.1.1.16.02.06.03.13.01.2a.35.35 0 0 1-.1.16l-1.59 1.58a.85.85 0 0 0-.18.28c-.05.1-.12.22-.12.33a92.6 92.6 0 0 0 0 3.93c0 .27-.02.5-.2.7-.62.7-1.05 1.17-1.3 1.41a.41.41 0 0 1-.27.12c-.03 0-.05 0-.08-.02a.16.16 0 0 1-.06-.05.2.2 0 0 1-.02-.17c.15-.44.24-.73.24-1.17v-3.01c0-.53.05-1.04.45-1.48l.98-1.06a.26.26 0 0 0 .07-.12.28.28 0 0 0 0-.13.26.26 0 0 0-.07-.12.22.22 0 0 0-.1-.06Z" fill="#fff"/><path d="M21.41 35.1c-.09-.02-.6-.05-1.51-.1a9.19 9.19 0 0 1-3.57-.95c-1.64-.8-2.11-1.67-1.43-3.36.1-.27.17-.48.19-.64 0-.07-.03-.11-.11-.12a4.6 4.6 0 0 1-3.75-1.77c-.36-.48-.3-.96.2-1.43l2.1-1.87a4.8 4.8 0 0 1 1.36-.94c.92-.33 2.1-.25 3.3-.22.5 0 .76-.17 1.1-.41a.34.34 0 0 1 .1-.05c.32-.08.46.02.42.3-.03.22-.17.43-.4.65-.96.86-1.68 1.5-3.03 1.41-.92-.06-1.83-.06-2.74 0-.57.05-.81.34-.74.9a.5.5 0 0 0 .01.04c.11.56.47.47 1.07.47 5.42-.05 10.17-.06 14.26-.01.22 0 .6-.1 1.14-.29.07-.02.13 0 .18.05.1.12.09.23-.01.33-.76.76-1.26 1.98-1.5 2.19-.75.63-1.18.72-2.2.72h-9.69c-.08 0-.12.03-.14.1-.09.47.03.46.35.72 1.1.9 2.93 1.18 4.42 1.32 2.46.24 5.02.25 7.67.01 1.73-.15 5.53-.6 5.62-2.9.06-1.32-1.29-2.04-2.34-2.47a42 42 0 0 0-3.6-1.29 2.75 2.75 0 0 1-.63-.29.34.34 0 0 1-.15-.18.33.33 0 0 1 0-.22c.1-.21.26-.4.51-.59.12-.08.68-.52 1.7-1.32.62-.48.75-1.07.46-1.81a5.39 5.39 0 0 0-1.61-2.28.38.38 0 0 0-.5.02l-1.6 1.5c-.4.35-.57.28-.55-.21a.84.84 0 0 0-.13-.3.38.38 0 0 0-.16-.15c-1.4-.73-.54-2.57.4-3.3.22-.17.42-.27.61-.3.04 0 .09 0 .13.02l.1.08a.22.22 0 0 1 0 .23c-.08.16-.2.35-.36.57-.27.4-.28.93.13 1.18.98.59 1.83-.43 2.64-1.12.47-.4 1.3.26 1.57.6 1.07 1.27 1.8 3.45.44 4.78l-1 1c-.1.15-.08.26.09.35.38.2.92.42 1.64.69.58.22 1.2.53 1.84.92 1.56.97 1.97 2.32 1.25 4.05-.99 2.38-3.08 3.57-5.65 4.5a19.7 19.7 0 0 1-6.71 1.16.11.11 0 0 0-.04.04.1.1 0 0 0 0 .1c.7 1.25 2.18 1.53 3.55 1.57 3.89.12 8.08-.26 11.36-2.14 1.2-.7 2.41-1.9 2.33-3.28-.1-1.6-2-2.26-3.59-3a1.07 1.07 0 0 1-.57-.6.27.27 0 0 1 0-.21c.1-.25.25-.47.44-.65.99-.91 2.34-1.76 1.6-3.2a6.52 6.52 0 0 0-1.04-1.49c-.2-.2-.57-.16-.8-.16-.69 0-.78-.2-.28-.63l1.9-1.6a.42.42 0 0 1 .5-.02c1.34.96 2.7 2.71 1.48 4.31-.57.76-1.02 1.35-1.32 1.8a.44.44 0 0 0 .09.6 8.05 8.05 0 0 1 2.47 2.85c1.03 2.22-.7 4.54-2.4 6.05-1.81 1.59-4 2.71-6.32 3.58-2.53.96-5.4 1.33-8.03.7-1.78-.43-3.36-1.63-2.7-3.61l.27-.85c.01-.07-.02-.11-.09-.13Z" fill="#fff"/><path d="M25.22 23.2c0-.47-.11-.66.25-1.03l1.1-1.07c.05-.05.11-.08.18-.09.21-.04.3.03.23.22-.27.8-.2.77-.2 1.96 0 .47.12 1.27-.25 1.64l-1.1 1.07a.33.33 0 0 1-.17.09c-.22.04-.3-.03-.24-.22.27-.8.2-1.38.2-2.57ZM42.5 24.82c.12 0 .2-.02.25-.07l.82-.67a.38.38 0 0 1 .23-.08c.09 0 .17.03.23.08.32.24.6.47.85.71.08.07.12.14.12.21 0 .07-.04.14-.12.22-.25.23-.54.47-.85.7a.38.38 0 0 1-.24.08.38.38 0 0 1-.23-.08l-.8-.67c-.06-.05-.14-.07-.26-.07s-.2.02-.25.07l-.82.67a.38.38 0 0 1-.23.08.38.38 0 0 1-.23-.08c-.32-.24-.6-.47-.85-.71-.08-.07-.12-.14-.12-.21 0-.07.04-.14.12-.22.25-.23.54-.47.85-.7a.38.38 0 0 1 .23-.08c.1 0 .17.03.24.08l.8.67c.06.05.14.07.26.07Z" fill="#fff"/><path d="m43.46 26.6-.63-.63a.4.4 0 0 0-.55 0l-.59.59a.4.4 0 0 0 0 .56l.63.62c.16.16.4.16.56 0l.58-.58a.4.4 0 0 0 0-.56Z" fill="#fff"/></svg>