<!-- by TradingView --><svg width="18" height="18" viewBox="0 0 18 18" xmlns="http://www.w3.org/2000/svg"><path fill="#F0F3FA" d="M0 0h18v18H0z"/><path d="M14 4H4v10h10V4Z" fill="#15438E"/><path d="m14 9.82-.39-.14.13.65-.58-.31.03.66-.52-.4-.07.66-.46-.48-.17.64-.38-.53-.26.6-.3-.58-.35.56-.21-.63-.43.51-.11-.65-.5.44-.02-.67-.55.36.08-.66-.6.28.18-.64-.64.18.27-.6-.66.07.36-.55-.66-.02.44-.5-.65-.11.5-.43-.62-.2.56-.35-.59-.3.61-.26-.53-.4.64-.15-.48-.47.66-.06-.4-.53.67.03-.32-.58.65.13L8.19 4H14V9.82Z" fill="#27A8E0"/><path d="M11.17 9.04a2.2 2.2 0 1 0 0-4.4 2.2 2.2 0 0 0 0 4.4ZM8.16 13.24l.61-.26-.59-.3.57-.34-.63-.22.5-.42-.64-.12.43-.5-.66-.01.36-.56-.66.09.28-.6-.64.17.18-.64-.6.27.08-.65-.56.36-.02-.67-.5.44-.1-.65-.43.5-.22-.62-.34.56-.3-.59-.26.61L4 9.07v2.2c.14-.03.28-.05.43-.05A1.6 1.6 0 0 1 5.53 14h2.74l-.21-.2.64-.17-.54-.39Z" fill="#F0F3FA"/></svg>