<!-- by TradingView --><svg width="56" height="56" viewBox="0 0 56 56" fill="none" xmlns="http://www.w3.org/2000/svg">
<rect width="56" height="56" fill="#F0F3FA"/>
<path fill-rule="evenodd" clip-rule="evenodd" d="M27.9112 11H26.9911C22.6895 12.5366 26.2952 17.7261 29.0275 15.4166C30.7883 13.926 30.0036 11.7775 27.9112 11ZM18.2037 46H23.3122L25.1301 37.6093C25.215 37.2128 25.4558 37.0223 25.8528 37.0378C31.6475 37.2562 39.3466 34.7706 41.5054 28.7865C44.1505 21.4643 35.5788 17.873 30.1886 17.859C30.1279 17.8587 30.0691 17.8799 30.0219 17.9188C29.9747 17.9577 29.9421 18.0121 29.9295 18.0727L29.5341 20.0705C29.5038 20.2223 29.5629 20.309 29.7114 20.3307C32.5474 20.7256 36.0697 21.9522 36.4287 25.144C37.0196 30.3894 30.4113 33.6648 26.2618 33.8692C26.0618 33.8785 25.9846 33.7856 26.03 33.5905L29.5341 17.3061C29.5735 17.1296 29.5053 17.0367 29.3296 17.0274C22.7122 16.7207 16.2221 18.9369 15.1222 26.338C14.4814 30.6309 16.3857 34.0086 20.2353 35.6626C20.3746 35.7214 20.4277 35.8268 20.3943 35.9785L18.2037 46ZM23.753 20.3307L21.0079 32.9911C20.9715 33.1522 20.8761 33.2095 20.7216 33.163C12.468 30.6124 15.8131 20.1681 23.5121 20.0287C23.7182 20.0256 23.7985 20.1263 23.753 20.3307Z" fill="#BA2031"/>
</svg>
