<!-- by TradingView --><svg width="56" height="56" viewBox="0 0 56 56" fill="none" xmlns="http://www.w3.org/2000/svg">
<rect width="56" height="56" fill="#F0F3FA"/>
<path fill-rule="evenodd" clip-rule="evenodd" d="M22.3621 12.7063C22.1697 12.6971 21.7047 14.0163 21.4963 14.677C22.1216 14.62 23.3891 14.5061 23.4564 14.5061C23.6681 13.6859 24.8033 12.4936 25.3444 12C23.5646 12.5923 22.6026 12.7177 22.3621 12.7063ZM22.4102 13.0594C22.2579 13.3935 21.9532 14.0732 21.9532 14.1188L24.4184 12.524L22.4102 13.0594Z" fill="#11579A"/>
<path fill-rule="evenodd" clip-rule="evenodd" d="M20.2012 15.4182C20.0834 14.9193 19.9123 14.1234 19.9134 14.0245C19.9146 13.9256 20.3892 13.3704 20.6264 13.1052C20.6262 13.2931 20.6312 13.7163 20.6525 13.9052C20.6705 14.0652 20.7817 14.3395 20.8792 14.58L20.8795 14.5806C20.897 14.624 20.9142 14.6663 20.9303 14.7066C21.1041 14.7263 21.38 14.7988 21.6516 14.8702C21.9864 14.9582 22.3147 15.0445 22.4378 15.0283C22.6609 14.9988 22.9654 14.8762 23.0898 14.8186L22.4005 15.4375C22.2495 15.5202 21.8801 15.6851 21.6105 15.6829C21.4787 15.6818 21.2195 15.6214 20.9497 15.5585C20.6672 15.4927 20.373 15.4242 20.2012 15.4182ZM20.4622 13.7053L20.7355 14.8097L20.2934 15.2206L20.0915 14.0369L20.4921 13.4677L20.4622 13.7053Z" fill="#11579A"/>
<path fill-rule="evenodd" clip-rule="evenodd" d="M18.816 14.8867C18.8147 14.9972 19.0059 15.8866 19.1376 16.444C19.3296 16.4508 19.6583 16.5273 19.974 16.6009C20.2756 16.6711 20.5652 16.7386 20.7124 16.7398C21.0138 16.7423 21.4266 16.558 21.5953 16.4656L22.3655 15.7741C22.2265 15.8384 21.8862 15.9754 21.637 16.0083C21.4994 16.0265 21.1324 15.93 20.7584 15.8317C20.4548 15.7519 20.1466 15.6709 19.9523 15.6489C19.9343 15.6036 19.915 15.5561 19.8952 15.5074C19.7863 15.2386 19.6621 14.9321 19.6419 14.7534C19.6182 14.5422 19.6126 14.0694 19.6127 13.8594C19.3477 14.1558 18.8173 14.7761 18.816 14.8867ZM19.7347 15.7641L19.4293 14.53L19.4627 14.2644L19.0151 14.9005L19.2407 16.2233L19.7347 15.7641Z" fill="#11579A"/>
<path fill-rule="evenodd" clip-rule="evenodd" d="M18.1867 17.9257C17.9308 17.306 17.5442 16.314 17.5251 16.1865C17.5059 16.0591 18.0005 15.2557 18.2502 14.87C18.2893 15.1118 18.3842 15.6553 18.4511 15.8944C18.5077 16.0968 18.7081 16.4289 18.8838 16.72C18.9157 16.7728 18.9467 16.8243 18.976 16.8734C19.2038 16.8662 19.5739 16.9077 19.9383 16.9486C20.3874 16.999 20.8279 17.0485 20.983 17.0044C21.2638 16.9247 21.63 16.7098 21.778 16.6124L21.0205 17.538C20.8435 17.6727 20.4027 17.9542 20.0553 18.0019C19.8855 18.0252 19.5394 17.9962 19.1791 17.9659C18.8019 17.9342 18.409 17.9013 18.1867 17.9257ZM18.1645 15.6729L18.747 17.0426L18.2641 17.6542L17.7568 16.169L18.1532 15.3615L18.1645 15.6729Z" fill="#11579A"/>
<path fill-rule="evenodd" clip-rule="evenodd" d="M16.2133 17.8685C16.2576 18.0127 16.8759 19.0981 17.2789 19.7738C17.5314 19.711 17.9907 19.688 18.4318 19.6659C18.8531 19.6447 19.2578 19.6244 19.4498 19.5711C19.8427 19.4619 20.303 19.0684 20.484 18.8852L21.1982 17.6986C21.0442 17.8341 20.6585 18.1392 20.3481 18.275C20.1767 18.35 19.6595 18.3614 19.1321 18.373C18.7042 18.3825 18.2697 18.3921 18.0078 18.4359C17.9658 18.384 17.9212 18.3297 17.8755 18.274L17.8749 18.2733L17.8748 18.2732C17.6214 17.9643 17.3325 17.612 17.232 17.3871C17.1133 17.1214 16.9095 16.5086 16.8224 16.2354C16.601 16.7197 16.1691 17.7243 16.2133 17.8685ZM17.7727 18.6669L16.8626 17.1759L16.7956 16.8181L16.4779 17.8122L17.3212 19.4483L17.7727 18.6669Z" fill="#11579A"/>
<path fill-rule="evenodd" clip-rule="evenodd" d="M16.73 21.7068C16.2484 21.0788 15.5037 20.0672 15.4424 19.9287C15.3811 19.7902 15.6894 18.7456 15.8512 18.2406C15.9706 18.5026 16.2467 19.0894 16.3965 19.3406C16.5234 19.5532 16.8528 19.872 17.1417 20.1516C17.1941 20.2023 17.2451 20.2517 17.2934 20.2989C17.5483 20.2272 17.9788 20.1708 18.4028 20.1152C18.9253 20.0468 19.4378 19.9796 19.5991 19.8867C19.8912 19.7183 20.2377 19.3736 20.3744 19.2223L19.8074 20.4783C19.6496 20.6797 19.2397 21.1204 18.8624 21.2712C18.6781 21.3449 18.2785 21.4087 17.8625 21.4752C17.4269 21.5447 16.9733 21.6171 16.73 21.7068ZM16.0042 19.1706L17.0876 20.5537L16.7329 21.3788L15.6985 19.8443L15.8946 18.8224L16.0042 19.1706Z" fill="#11579A"/>
<path fill-rule="evenodd" clip-rule="evenodd" d="M14.7288 21.7085C14.7927 21.847 15.8131 23.1375 16.3152 23.7654C16.8114 23.5901 17.9021 23.2018 18.2955 23.051C18.689 22.9001 19.1165 22.4595 19.2811 22.258L19.8724 21.0021C19.7298 21.1534 19.3685 21.498 19.0638 21.6664C18.7592 21.8348 17.4962 22.1973 16.9028 22.3575C16.575 22.0498 15.8802 21.3715 15.7239 21.1204C15.5676 20.8692 15.2796 20.2823 15.1552 20.0203C14.9864 20.5253 14.6648 21.57 14.7288 21.7085ZM16.6882 22.6123L15.3147 20.9504L15.2004 20.6021L14.9958 21.624L16.3183 23.4374L16.6882 22.6123Z" fill="#11579A"/>
<path fill-rule="evenodd" clip-rule="evenodd" d="M16.0777 25.8019C15.4897 25.2449 14.2927 24.0986 14.2094 23.9696C14.1261 23.8407 14.2939 22.7642 14.3883 22.2421C14.5494 22.4856 14.9193 23.0296 15.1103 23.2582C15.3014 23.4868 16.0875 24.0688 16.4567 24.3312C17.0214 24.0957 18.2203 23.5731 18.4977 23.3668C18.7752 23.1606 19.0835 22.7724 19.2029 22.6041L18.7983 23.9248C18.6643 24.1457 18.3044 24.6375 17.9364 24.8379C17.5684 25.0382 16.5439 25.564 16.0777 25.8019ZM14.6805 23.1428L16.2809 24.6114L16.0334 25.4766L14.4618 23.8514L14.517 22.8126L14.6805 23.1428Z" fill="#11579A"/>
<path fill-rule="evenodd" clip-rule="evenodd" d="M14.0661 26.4598C14.1667 26.5814 15.5247 27.6115 16.1911 28.1113C16.6348 27.8177 17.6094 27.1694 17.9581 26.9248C18.3068 26.6803 18.611 26.1407 18.7195 25.9015L18.9658 24.5154C18.8655 24.6996 18.6008 25.1282 18.3448 25.3686C18.0888 25.609 16.9367 26.2735 16.3927 26.5758C15.9852 26.3506 15.1146 25.8476 14.8921 25.6369C14.6697 25.4261 14.2264 24.9151 14.0325 24.6859C14.0017 25.2266 13.9654 26.3382 14.0661 26.4598ZM16.2491 26.8799L14.4414 25.5677L14.2343 25.2508L14.3076 26.3116L16.1056 27.786L16.2491 26.8799Z" fill="#11579A"/>
<path fill-rule="evenodd" clip-rule="evenodd" d="M16.7695 30.6684C16.0391 30.2566 14.549 29.4061 14.4322 29.2982C14.3155 29.1903 14.196 28.0839 14.1508 27.5441C14.375 27.747 14.886 28.1978 15.1359 28.3788C15.3859 28.5598 16.3192 28.949 16.7546 29.1211C17.2515 28.7532 18.3005 27.9499 18.5206 27.6795C18.7408 27.4091 18.9431 26.9511 19.0167 26.7559L18.9665 28.1607C18.8924 28.4114 18.6664 28.9844 18.355 29.2706C18.0436 29.5567 17.1683 30.3216 16.7695 30.6684ZM14.6794 28.3668L16.6547 29.4405L16.6393 30.3567L14.6509 29.1209L14.4298 28.0787L14.6794 28.3668Z" fill="#11579A"/>
<path fill-rule="evenodd" clip-rule="evenodd" d="M14.911 31.5366C15.0384 31.6331 16.6094 32.341 17.379 32.6829C17.7399 32.3008 18.5318 31.4582 18.812 31.1444C19.0922 30.8307 19.2578 30.2395 19.3056 29.9831L19.2101 28.5804C19.157 28.7815 19.0031 29.2561 18.812 29.5457C18.6209 29.8353 17.6603 30.7322 17.2038 31.1444C16.7527 31.0137 15.7836 30.7131 15.5161 30.5562C15.2486 30.3994 14.6934 29.9982 14.4493 29.8172C14.5501 30.3501 14.7837 31.4401 14.911 31.5366ZM17.1376 31.4717L15.0606 30.5868L14.7823 30.3232L15.1103 31.3399L17.2171 32.3848L17.1376 31.4717Z" fill="#11579A"/>
<path fill-rule="evenodd" clip-rule="evenodd" d="M15.9548 34.0917C16.0824 34.156 17.4187 34.4941 18.2937 34.7103C19.1426 36.6228 20.0248 38.1692 20.7494 37.9851C21.3356 37.8361 21.6728 37.607 21.7682 37.511C21.4047 37.3643 20.4956 36.8711 19.7664 36.0719C19.1524 35.3991 18.8934 34.7875 18.8131 34.4579C19.1201 33.9753 19.5421 33.3076 19.7122 33.0239C19.9264 32.6665 19.9739 32.0565 19.9709 31.7961L19.6035 30.4343C19.5906 30.6412 19.5318 31.1346 19.4005 31.4526C19.2692 31.7706 18.4999 32.8202 18.1317 33.3052C17.6628 33.2557 16.6517 33.1297 16.3583 33.0223C16.0648 32.915 15.441 32.6178 15.1657 32.4826C15.3687 32.9887 15.8107 34.0191 15.9548 34.0917ZM18.1303 33.6384L15.9165 33.1321L15.5917 32.9217L16.1122 33.8635L18.3865 34.5219L18.1303 33.6384Z" fill="#11579A"/>
<path fill-rule="evenodd" clip-rule="evenodd" d="M33.6379 12.7063C33.8303 12.6971 34.2953 14.0163 34.5037 14.677C33.8784 14.62 32.6109 14.5061 32.5436 14.5061C32.3319 13.6859 31.1967 12.4936 30.6556 12C32.4354 12.5923 33.3974 12.7177 33.6379 12.7063ZM33.5898 13.0594C33.7421 13.3935 34.0468 14.0732 34.0468 14.1188L31.5816 12.524L33.5898 13.0594Z" fill="#11579A"/>
<path fill-rule="evenodd" clip-rule="evenodd" d="M35.7988 15.4182C35.9166 14.9193 36.0877 14.1234 36.0866 14.0245C36.0854 13.9256 35.6108 13.3704 35.3736 13.1052C35.3738 13.2931 35.3688 13.7163 35.3475 13.9052C35.3295 14.0652 35.2183 14.3395 35.1208 14.58L35.1207 14.5803C35.103 14.6238 35.0858 14.6662 35.0697 14.7066C34.8959 14.7263 34.62 14.7988 34.3484 14.8702C34.0136 14.9582 33.6853 15.0445 33.5622 15.0283C33.3391 14.9988 33.0346 14.8762 32.9101 14.8186L33.5995 15.4375C33.7505 15.5202 34.1199 15.6851 34.3895 15.6829C34.5213 15.6818 34.7805 15.6214 35.0503 15.5585C35.3328 15.4927 35.627 15.4242 35.7988 15.4182ZM35.5378 13.7053L35.2645 14.8097L35.7066 15.2206L35.9085 14.0369L35.5079 13.4677L35.5378 13.7053Z" fill="#11579A"/>
<path fill-rule="evenodd" clip-rule="evenodd" d="M37.184 14.8867C37.1853 14.9972 36.9941 15.8866 36.8624 16.444C36.6704 16.4508 36.3417 16.5273 36.026 16.6009C35.7244 16.6711 35.4348 16.7386 35.2876 16.7398C34.9862 16.7423 34.5735 16.558 34.4047 16.4656L33.6344 15.7741C33.7735 15.8384 34.1138 15.9754 34.363 16.0083C34.5006 16.0265 34.8676 15.93 35.2416 15.8317C35.5452 15.7519 35.8534 15.6709 36.0477 15.6489C36.0657 15.6036 36.085 15.5561 36.1048 15.5074C36.2137 15.2386 36.3379 14.9321 36.3581 14.7534C36.3818 14.5422 36.3874 14.0694 36.3873 13.8594C36.6523 14.1558 37.1827 14.7761 37.184 14.8867ZM36.2653 15.7641L36.5707 14.53L36.5373 14.2644L36.9849 14.9005L36.7593 16.2233L36.2653 15.7641Z" fill="#11579A"/>
<path fill-rule="evenodd" clip-rule="evenodd" d="M37.8133 17.9257C38.0692 17.306 38.4558 16.314 38.4749 16.1865C38.4941 16.0591 37.9995 15.2557 37.7498 14.87C37.7107 15.1118 37.6158 15.6553 37.5489 15.8944C37.4923 16.0968 37.2919 16.4289 37.1162 16.72C37.0843 16.7728 37.0533 16.8243 37.024 16.8734C36.7962 16.8662 36.4261 16.9077 36.0617 16.9486C35.6126 16.999 35.1721 17.0485 35.017 17.0044C34.7362 16.9247 34.37 16.7098 34.222 16.6124L34.9795 17.538C35.1565 17.6727 35.5973 17.9542 35.9447 18.0019C36.1145 18.0252 36.4606 17.9962 36.8209 17.9659C37.1981 17.9342 37.591 17.9013 37.8133 17.9257ZM37.8355 15.6729L37.253 17.0426L37.7359 17.6542L38.2432 16.169L37.8468 15.3615L37.8355 15.6729Z" fill="#11579A"/>
<path fill-rule="evenodd" clip-rule="evenodd" d="M39.7867 17.8685C39.7424 18.0127 39.1241 19.0981 38.7211 19.7738C38.4686 19.711 38.0093 19.688 37.5682 19.6659C37.1469 19.6447 36.7422 19.6244 36.5502 19.5711C36.1573 19.4619 35.697 19.0684 35.516 18.8852L34.8018 17.6986C34.9558 17.8341 35.3415 18.1392 35.6519 18.275C35.8233 18.35 36.3405 18.3614 36.8679 18.373C37.2958 18.3825 37.7303 18.3921 37.9922 18.4359C38.0342 18.384 38.0788 18.3297 38.1245 18.274L38.1247 18.2737L38.1251 18.2733L38.1252 18.2732C38.3786 17.9643 38.6675 17.612 38.768 17.3871C38.8867 17.1214 39.0905 16.5086 39.1776 16.2354C39.399 16.7197 39.8309 17.7243 39.7867 17.8685ZM38.2273 18.6669L39.1374 17.1759L39.2044 16.8181L39.5221 17.8122L38.6788 19.4483L38.2273 18.6669Z" fill="#11579A"/>
<path fill-rule="evenodd" clip-rule="evenodd" d="M39.27 21.7068C39.7516 21.0788 40.4963 20.0672 40.5576 19.9287C40.6189 19.7902 40.3106 18.7456 40.1488 18.2406C40.0294 18.5026 39.7533 19.0894 39.6035 19.3406C39.4766 19.5532 39.1472 19.872 38.8583 20.1516C38.8059 20.2023 38.7549 20.2517 38.7066 20.2989C38.4517 20.2272 38.0212 20.1708 37.5972 20.1152C37.0747 20.0468 36.5622 19.9796 36.4009 19.8867C36.1088 19.7183 35.7623 19.3736 35.6256 19.2223L36.1926 20.4783C36.3504 20.6797 36.7603 21.1204 37.1376 21.2712C37.3219 21.3449 37.7215 21.4087 38.1376 21.4752C38.5731 21.5447 39.0267 21.6171 39.27 21.7068ZM39.9958 19.1706L38.9124 20.5537L39.2671 21.3788L40.3015 19.8443L40.1054 18.8224L39.9958 19.1706Z" fill="#11579A"/>
<path fill-rule="evenodd" clip-rule="evenodd" d="M41.2712 21.7085C41.2073 21.847 40.1869 23.1375 39.6848 23.7654C39.1886 23.5901 38.0979 23.2018 37.7044 23.051C37.311 22.9001 36.8835 22.4595 36.7189 22.258L36.1276 21.0021C36.2702 21.1534 36.6315 21.498 36.9362 21.6664C37.2408 21.8348 38.5038 22.1973 39.0972 22.3575C39.425 22.0498 40.1198 21.3715 40.2761 21.1204C40.4324 20.8692 40.7204 20.2823 40.8448 20.0203C41.0136 20.5253 41.3352 21.57 41.2712 21.7085ZM39.3118 22.6123L40.6853 20.9504L40.7996 20.6021L41.0042 21.624L39.6817 23.4374L39.3118 22.6123Z" fill="#11579A"/>
<path fill-rule="evenodd" clip-rule="evenodd" d="M39.9223 25.8019C40.5103 25.2449 41.7073 24.0986 41.7906 23.9696C41.8739 23.8407 41.7061 22.7642 41.6117 22.2421C41.4506 22.4856 41.0807 23.0296 40.8897 23.2582C40.6986 23.4868 39.9125 24.0688 39.5433 24.3312C38.9786 24.0957 37.7797 23.5731 37.5023 23.3668C37.2248 23.1606 36.9165 22.7724 36.7971 22.6041L37.2017 23.9248C37.3357 24.1457 37.6956 24.6375 38.0636 24.8379C38.4316 25.0382 39.4561 25.564 39.9223 25.8019ZM41.3195 23.1428L39.7191 24.6114L39.9666 25.4766L41.5382 23.8514L41.483 22.8126L41.3195 23.1428Z" fill="#11579A"/>
<path fill-rule="evenodd" clip-rule="evenodd" d="M41.9339 26.4598C41.8333 26.5814 40.4753 27.6115 39.8089 28.1113C39.3652 27.8177 38.3906 27.1694 38.0419 26.9248C37.6932 26.6803 37.389 26.1407 37.2805 25.9015L37.0342 24.5154C37.1345 24.6996 37.3992 25.1282 37.6552 25.3686C37.9112 25.609 39.0633 26.2735 39.6073 26.5758C40.0148 26.3506 40.8854 25.8476 41.1079 25.6369C41.3303 25.4261 41.7736 24.9151 41.9675 24.6859C41.9983 25.2266 42.0346 26.3382 41.9339 26.4598ZM39.7509 26.8799L41.5586 25.5677L41.7657 25.2508L41.6924 26.3116L39.8944 27.786L39.7509 26.8799Z" fill="#11579A"/>
<path fill-rule="evenodd" clip-rule="evenodd" d="M39.2305 30.6684C39.9609 30.2566 41.451 29.4061 41.5678 29.2982C41.6845 29.1903 41.804 28.0839 41.8492 27.5441C41.625 27.747 41.114 28.1978 40.8641 28.3788C40.6141 28.5598 39.6808 28.949 39.2454 29.1211C38.7485 28.7532 37.6995 27.9499 37.4794 27.6795C37.2592 27.4091 37.0569 26.9511 36.9833 26.7559L37.0335 28.1607C37.1076 28.4114 37.3336 28.9844 37.645 29.2706C37.9564 29.5567 38.8317 30.3216 39.2305 30.6684ZM41.3206 28.3668L39.3453 29.4405L39.3607 30.3567L41.3491 29.1209L41.5702 28.0787L41.3206 28.3668Z" fill="#11579A"/>
<path fill-rule="evenodd" clip-rule="evenodd" d="M41.089 31.5366C40.9616 31.6331 39.3906 32.341 38.621 32.6829C38.2601 32.3008 37.4682 31.4582 37.188 31.1444C36.9078 30.8307 36.7422 30.2395 36.6944 29.9831L36.7899 28.5804C36.843 28.7815 36.9969 29.2561 37.188 29.5457C37.3791 29.8353 38.3397 30.7322 38.7962 31.1444C39.2473 31.0137 40.2164 30.7131 40.4839 30.5562C40.7514 30.3994 41.3066 29.9982 41.5507 29.8172C41.4499 30.3501 41.2163 31.4401 41.089 31.5366ZM38.8624 31.4717L40.9394 30.5868L41.2177 30.3232L40.8897 31.3399L38.7829 32.3848L38.8624 31.4717Z" fill="#11579A"/>
<path fill-rule="evenodd" clip-rule="evenodd" d="M40.0452 34.0917C39.9176 34.156 38.5813 34.4941 37.7063 34.7103C36.8574 36.6228 35.9752 38.1692 35.2506 37.9851C34.6644 37.8361 34.3272 37.607 34.2318 37.511C34.5953 37.3643 35.5044 36.8711 36.2336 36.0719C36.8476 35.3991 37.1066 34.7875 37.1869 34.4579C36.8799 33.9753 36.4579 33.3076 36.2878 33.0239C36.0736 32.6665 36.0261 32.0565 36.0291 31.7961L36.3965 30.4343C36.4094 30.6412 36.4682 31.1346 36.5995 31.4526C36.7308 31.7706 37.5001 32.8202 37.8683 33.3052C38.3372 33.2557 39.3483 33.1297 39.6417 33.0223C39.9352 32.915 40.559 32.6178 40.8343 32.4826C40.6313 32.9887 40.1892 34.0191 40.0452 34.0917ZM37.8697 33.6384L40.0835 33.1321L40.4083 32.9217L39.8878 33.8635L37.6135 34.5219L37.8697 33.6384Z" fill="#11579A"/>
<path fill-rule="evenodd" clip-rule="evenodd" d="M23.4529 19.0694C23.4149 19.2613 23.4415 19.6711 23.8526 19.7751C24.3665 19.905 24.6995 19.4872 24.6995 19.1344V18.7332H25.6383C25.7563 18.68 25.9924 18.477 25.9924 18.0914V14.7499C26.0486 14.392 26.3764 13.5623 27.2388 13.1065C27.8826 13.4352 29.1701 14.3117 29.1701 15.1881V19.1344C29.1776 19.348 29.3475 19.7751 29.9673 19.7751C30.7421 19.7751 30.9105 19.4057 30.9105 19.0694V18.0914H30.4726V18.9021C30.4801 19.0044 30.4142 19.2089 30.0908 19.2089C29.7064 19.2089 29.7079 18.7431 29.709 18.4147C29.709 18.3979 29.7091 18.3814 29.7091 18.3653V15.0238C29.6567 14.7134 29.3902 13.9939 28.7434 13.5995C27.935 13.1065 27.3511 12.4601 27.3511 12C27.3062 12.1826 27.0479 12.6595 26.3742 13.1065C25.5321 13.6653 25.3075 14.3445 25.3075 15.3196V18H24.3531V18.7332C24.3144 18.923 24.0803 19.2559 23.4529 19.0694ZM27.4428 19.0794H26.0376C26.0636 19.3333 26.2523 19.8411 26.7987 19.8411C27.3452 19.8411 27.6639 19.6697 27.755 19.5841V19H28.4381V18.7652H28.7308V15.2805H28.4381V18.7652H27.755V17.0324H27.2281C26.8475 17.0324 26.6036 17.2228 26.6036 18.0226C26.6036 18.6624 27.163 18.7843 27.4428 18.7652V19.0794ZM27.9256 20.8513C27.9652 20.8513 28.0033 20.8451 28.0389 20.8335C27.9641 20.8978 27.9169 20.9919 27.9169 21.0968C27.9169 21.2904 28.0778 21.4474 28.2762 21.4474C28.4747 21.4474 28.6356 21.2904 28.6356 21.0968C28.6356 20.9031 28.4747 20.7462 28.2762 20.7462C28.2366 20.7462 28.1986 20.7524 28.1629 20.7639C28.2377 20.6997 28.2849 20.6056 28.2849 20.5007C28.2849 20.3071 28.124 20.1501 27.9256 20.1501C27.7271 20.1501 27.5662 20.3071 27.5662 20.5007C27.5662 20.6943 27.7271 20.8513 27.9256 20.8513ZM28.6859 20.8513C28.8843 20.8513 29.0452 20.6943 29.0452 20.5007C29.0452 20.3071 28.8843 20.1501 28.6859 20.1501C28.4874 20.1501 28.3265 20.3071 28.3265 20.5007C28.3265 20.6943 28.4874 20.8513 28.6859 20.8513ZM29.9042 20.8335C29.8686 20.8451 29.8305 20.8513 29.7909 20.8513C29.5924 20.8513 29.4316 20.6943 29.4316 20.5007C29.4316 20.3071 29.5924 20.1501 29.7909 20.1501C29.9894 20.1501 30.1502 20.3071 30.1502 20.5007C30.1502 20.6056 30.1031 20.6997 30.0283 20.7639C30.0639 20.7524 30.102 20.7462 30.1416 20.7462C30.34 20.7462 30.5009 20.9031 30.5009 21.0968C30.5009 21.2904 30.34 21.4474 30.1416 21.4474C29.9431 21.4474 29.7822 21.2904 29.7822 21.0968C29.7822 20.9919 29.8294 20.8978 29.9042 20.8335ZM30.9106 20.5007C30.9106 20.6943 30.7497 20.8513 30.5512 20.8513C30.3528 20.8513 30.1919 20.6943 30.1919 20.5007C30.1919 20.3071 30.3528 20.1501 30.5512 20.1501C30.7497 20.1501 30.9106 20.3071 30.9106 20.5007Z" fill="#11579A"/>
<path fill-rule="evenodd" clip-rule="evenodd" d="M26.6807 23H28.447V24.0542C28.555 24.0843 28.6612 24.1183 28.7654 24.1561L29.3364 23.2245L30.4801 23.8465L29.9096 24.7773C30.1085 24.9281 30.2928 25.0954 30.4601 25.277L31.4356 24.7465L32.0959 25.8238L31.162 26.3316C31.2667 26.5619 31.3492 26.8032 31.407 27.0532H32.4457V28.2971H31.486C31.4582 28.5747 31.4005 28.844 31.3159 29.1023L32.0959 29.5265L31.4356 30.6037L30.7336 30.222C30.5512 30.4672 30.3405 30.6923 30.1059 30.8932L30.4801 31.5037L29.3364 32.1257L29.0015 31.5794C28.8229 31.656 28.6378 31.7214 28.447 31.7746V32.5601H26.6807V31.9067C26.3343 31.8647 26.0009 31.7837 25.6856 31.6684L25.4053 32.1257L24.9995 31.905V33.3734C24.9995 33.638 25.4332 34.2262 25.7564 34.6644C25.8517 34.7936 25.9374 34.9098 25.9995 35.0008V36.0001H21.5693V35.0008L22.2968 33.5447V28.2971H22.296V27.0532H22.2968V25.3793H21.7512V24.5799C22.0543 24.2182 22.8182 23.4949 23.4486 23.4949C23.7977 23.4949 24.0886 23.6466 24.3027 23.8241L25.4053 23.2244L25.9293 24.0793C26.1711 24.0065 26.4223 23.9534 26.6807 23.9221V23ZM30.1046 27.8377C30.1046 29.1877 28.9427 30.2821 27.5095 30.2821C26.0762 30.2821 24.9143 29.1877 24.9143 27.8377C24.9143 26.4877 26.0762 25.3933 27.5095 25.3933C28.9427 25.3933 30.1046 26.4877 30.1046 27.8377Z" fill="#11579A"/>
<rect opacity="0.7" x="26" y="35" width="8" height="1" fill="#11579A"/>
<path fill-rule="evenodd" clip-rule="evenodd" d="M24.0411 38.7789L24.0957 38.8575C24.3781 39.2639 24.5887 39.8159 24.7388 40.3364C25.3921 40.1648 26.7584 39.8831 27.9867 39.8831C29.2308 39.8831 30.6163 40.1721 31.2594 40.3429C31.4095 39.8205 31.6207 39.2656 31.9043 38.8575L31.9589 38.7789L32.0562 38.781C36.3809 38.8757 40.4064 41.1821 41.884 42.3253L42 42.4151L40.6077 45L40.4433 44.8957C39.093 44.0383 35.8357 42.4269 32.5295 42.0265V43.804L32.3075 43.7498C31.6117 43.5801 29.7016 43.2374 27.6787 43.2374C25.6561 43.2374 24.0695 43.58 23.5406 43.7466L23.3071 43.8202V42.0472C20.0574 42.4798 16.8848 44.0524 15.5567 44.8957L15.3923 45L14 42.4151L14.116 42.3253C15.5936 41.1821 19.6191 38.8757 23.9438 38.781L24.0411 38.7789ZM23.6644 42.0044V43.0328L24.4537 41.945C24.1911 41.9562 23.9277 41.9763 23.6644 42.0044ZM24.899 41.9346L23.9188 43.2855C24.695 43.1062 26.0512 42.8887 27.6787 42.8887C29.4137 42.8887 31.0651 43.1359 31.971 43.3186L31.0797 41.9344L30.9441 41.9335L30.9678 41.7399C30.9986 41.4874 31.0646 41.1025 31.1692 40.6803C30.5472 40.5147 29.1911 40.2317 27.9867 40.2317C26.7982 40.2317 25.4619 40.5073 24.8291 40.6737C24.9347 41.0985 25.0012 41.4861 25.0322 41.7399L25.0559 41.9335L24.899 41.9346ZM31.5074 41.9434L32.1722 42.9756V41.988C31.9503 41.9672 31.7285 41.9521 31.5074 41.9434ZM14.4547 42.5098L15.527 44.5006C17.1683 43.4977 20.9975 41.68 24.6507 41.5895C24.6052 41.2942 24.5249 40.8905 24.4067 40.4723C24.2695 39.9874 24.085 39.4965 23.8525 39.1321C19.78 39.254 15.973 41.3759 14.4547 42.5098ZM41.5453 42.5098L40.473 44.5006C38.8317 43.4977 35.0025 41.68 31.3493 41.5895C31.3948 41.2942 31.4751 40.8905 31.5933 40.4723C31.7305 39.9874 31.915 39.4965 32.1475 39.1321C36.22 39.254 40.027 41.3759 41.5453 42.5098Z" fill="#11579A"/>
<path opacity="0.7" fill-rule="evenodd" clip-rule="evenodd" d="M32.794 41.0901C34.04 41.4249 36.9528 42.3424 38.7623 43.3368L39.639 41.818C37.6317 40.7149 34.5451 39.7526 33.2683 39.4095L32.794 41.0901ZM15.854 43.9702C17.055 43.2789 20.3719 41.7649 23.7898 41.3557L23.5722 39.6255C19.839 40.0725 16.2862 41.6976 14.9463 42.4688L15.854 43.9702Z" fill="#11579A"/>
<path fill-rule="evenodd" clip-rule="evenodd" d="M26 40.6279L26.2094 41.2565H26.8868L26.3387 41.645L26.5481 42.2736L26 41.8851L25.452 42.2736L25.6613 41.645L25.1133 41.2565H25.7907L26 40.6279ZM27.8648 40.6279L28.0741 41.2565H28.7515L28.2035 41.645L28.4128 42.2736L27.8648 41.8851L27.3167 42.2736L27.5261 41.645L26.978 41.2565H27.6554L27.8648 40.6279ZM30.1636 41.2565L29.9543 40.6279L29.7449 41.2565H29.0675L29.6156 41.645L29.4062 42.2736L29.9543 41.8851L30.5023 42.2736L30.293 41.645L30.841 41.2565H30.1636Z" fill="#11579A"/>
</svg>
