<!-- by TradingView --><svg width="56" height="56" viewBox="0 0 56 56" xmlns="http://www.w3.org/2000/svg"><path fill="#F0F3FA" d="M0 0h56v56H0z"/><path d="M11.5 28.98c0-8.78 6.44-13.6 9.67-14.98l.19.32c-1.6 1.38-4.82 5.26-4.82 10.32 0 3.15 1.34 5.83 3.13 7.72 1.79 1.9 4.02 2.99 5.78 2.99v.38c-1.9 0-4.21-1.15-6.05-3.1a11.63 11.63 0 0 1-3.23-7.99 14.6 14.6 0 0 1 2.73-8.2c-2 2.28-4.08 5.84-4.08 10.25 0 3.97 2.07 7.04 4.57 9.14a15.83 15.83 0 0 0 3.82 2.37c1.23.54 2.34.8 3.12.8v.39c-.84 0-2-.29-3.27-.83a16.2 16.2 0 0 1-3.9-2.44c-2.56-2.14-4.71-5.31-4.71-9.43 0-5.32 2.93-9.43 5.23-11.6a16.37 16.37 0 0 0-7.8 13.9c0 5.35 2.47 9.33 5.73 11.98 3.26 2.66 7.3 3.96 10.42 3.96v.39c-3.2 0-7.33-1.34-10.65-4.05a15.45 15.45 0 0 1-5.88-12.29Z" fill="#034A28"/><path d="M44.5 28.98c0-8.78-6.44-13.6-9.67-14.98l-.19.32c1.6 1.38 4.82 5.26 4.82 10.32 0 3.15-1.34 5.83-3.13 7.72-1.79 1.9-4.02 2.99-5.78 2.99v.38c1.9 0 4.21-1.15 6.05-3.1a11.63 11.63 0 0 0 3.23-7.99 14.6 14.6 0 0 0-2.73-8.2c2 2.28 4.08 5.84 4.08 10.25 0 3.97-2.09 7.04-4.6 9.14a15.96 15.96 0 0 1-3.83 2.37c-1.24.54-2.36.8-3.13.8v.39c.84 0 2-.29 3.27-.83a16.32 16.32 0 0 0 3.93-2.44c2.56-2.14 4.73-5.31 4.73-9.43 0-5.32-2.93-9.43-5.23-11.6 3.3 2.05 7.8 6.63 7.8 13.9 0 5.35-2.47 9.33-5.73 11.98-3.26 2.66-7.3 3.96-10.42 3.96v.39c3.2 0 7.33-1.34 10.65-4.05a15.45 15.45 0 0 0 5.88-12.29ZM17.77 18.63l-.98-1.53.3-.21.99 1.53-.31.2Z" fill="#034A28"/><path d="m38.23 18.63.98-1.53-.3-.21-.99 1.53.31.2Zm-21.9 1.07-.98-.99.26-.27.98.98-.26.28Zm23.34 0 .98-.99-.26-.27-.98.98.26.28Zm-24.23 1.89-1.33-1.17.25-.3 1.32 1.18-.24.29Zm25.12 0 1.33-1.17-.25-.3-1.32 1.18.24.29Zm-25.65 1.79-1.83-1.12.19-.32 1.83 1.12-.19.32Zm26.18 0 1.83-1.12-.19-.32-1.83 1.12.19.32Zm-26.58 2.55-2.28-1.37.19-.33 2.28 1.36-.19.34Zm26.98 0 2.28-1.37-.19-.33-2.28 1.36.19.34Zm-26.87 2.22-2.76-1.12.14-.36 2.75 1.12-.13.36Zm26.76 0 2.76-1.12-.14-.36-2.75 1.12.13.36Zm-26.24 2.14-3.35-1.01.11-.37 3.35 1.01-.11.37Zm25.7 0 3.37-1.01-.11-.37-3.37 1.01.1.37Zm-24.68 2.16-4.2-.3.03-.38 4.2.3-.03.38Zm23.68 0 4.2-.3-.03-.38-4.2.3.03.38ZM17.98 35h-5.15v-.39h5.15v.38Zm19.94 0h5.25v-.39h-5.25v.38Zm-17.88 1.73-5.35 1.53-.1-.36 5.35-1.53.1.36Zm15.81 0 5.46 1.53.1-.36-5.45-1.53-.11.36Zm-12.68 1.82-5.61 2.81-.18-.34L23 38.21l.17.34Zm9.76 0 5.51 2.81.18-.34-5.51-2.81-.18.34Zm-6.43.93-4.96 4.24-.24-.3 4.96-4.23.24.3Zm3 0 4.96 4.24.24-.3-4.96-4.23-.24.3ZM20.5 15c0 .38-.3.68-.67.68a.67.67 0 0 1-.66-.68c0-.38.3-.68.66-.68.37 0 .66.3.66.68Zm15 0c0 .38.3.68.67.68.36 0 .66-.3.66-.68 0-.38-.3-.68-.66-.68-.37 0-.66.3-.66.68Zm-16.5.87c0 .38-.29.69-.65.69a.67.67 0 0 1-.67-.69c0-.37.3-.68.67-.68.36 0 .66.3.66.68Zm18 0c0 .38.29.69.65.69.37 0 .67-.31.67-.69 0-.37-.3-.68-.67-.68-.36 0-.66.3-.66.68Zm-19.42 1.15c0 .38-.3.68-.67.68a.67.67 0 0 1-.66-.68c0-.38.3-.68.66-.68.37 0 .67.3.67.68Z" fill="#034A28"/><path d="M38.42 17.02c0 .38.3.68.67.68.36 0 .66-.3.66-.68 0-.38-.3-.68-.66-.68-.37 0-.67.3-.67.68Zm-22.06 1.37c0 .37-.3.68-.67.68a.67.67 0 0 1-.66-.68c0-.38.3-.69.66-.69.37 0 .67.3.67.69Zm23.28 0c0 .37.3.68.67.68.36 0 .66-.3.66-.68 0-.38-.3-.69-.66-.69-.37 0-.67.3-.67.69Zm-24.87 1.63c0 .38-.3.69-.67.69a.67.67 0 0 1-.66-.69c0-.37.3-.68.66-.68.37 0 .67.3.67.68Zm26.46 0c0 .38.3.69.67.69.36 0 .66-.3.66-.69 0-.37-.3-.68-.66-.68-.37 0-.67.3-.67.68ZM13.65 22c0 .37-.3.67-.66.67a.67.67 0 0 1-.66-.68c0-.38.3-.68.66-.68.37 0 .66.3.66.68Zm28.7 0c0 .37.3.67.66.67.37 0 .66-.3.66-.68 0-.38-.3-.68-.66-.68-.37 0-.66.3-.66.68Zm-29.49 2.4c0 .37-.3.68-.67.68a.67.67 0 0 1-.66-.69c0-.37.3-.68.66-.68.37 0 .67.3.67.68Zm30.28 0c0 .37.3.68.67.68.36 0 .66-.3.66-.69 0-.37-.3-.68-.66-.68-.37 0-.67.3-.67.68Zm-30.81 2.34c0 .38-.3.69-.67.69a.67.67 0 0 1-.66-.69c0-.37.3-.68.66-.68.37 0 .67.3.67.68Zm31.34 0c0 .38.3.69.67.69.36 0 .66-.3.66-.69 0-.37-.3-.68-.66-.68-.37 0-.67.3-.67.68ZM12.33 29.1c0 .37-.3.68-.67.68a.67.67 0 0 1-.66-.69c0-.37.3-.68.66-.68.37 0 .67.3.67.68Zm31.34 0c0 .37.3.68.67.68.36 0 .66-.31.66-.69 0-.37-.3-.68-.66-.68-.37 0-.67.3-.67.68Zm-31.34 2.89c0 .38-.3.68-.67.68A.67.67 0 0 1 11 32c0-.38.3-.68.66-.68.37 0 .67.3.67.68Zm31.34 0c0 .38.3.68.67.68.36 0 .66-.3.66-.68 0-.38-.3-.68-.66-.68-.37 0-.67.3-.67.68Zm-30.39 2.84c0 .38-.3.68-.66.68a.67.67 0 0 1-.67-.68c0-.38.3-.68.67-.68.36 0 .66.3.66.68Zm29.44 0c0 .38.3.68.66.68.37 0 .67-.3.67-.68 0-.38-.3-.68-.67-.68-.36 0-.66.3-.66.68ZM15.03 38.1c0 .38-.3.69-.66.69a.67.67 0 0 1-.66-.68c0-.38.3-.69.66-.69.36 0 .66.3.66.69Zm25.94 0c0 .38.3.69.66.69.37 0 .66-.3.66-.68 0-.38-.3-.69-.66-.69-.36 0-.66.3-.66.69Zm-23.02 3.12c0 .38-.3.68-.66.68a.67.67 0 0 1-.67-.68c0-.38.3-.68.67-.68.36 0 .66.3.66.68Zm20.1 0c0 .38.3.68.66.68.37 0 .67-.3.67-.68 0-.38-.3-.68-.67-.68-.36 0-.66.3-.66.68Zm-16.28 2.51c0 .38-.3.69-.67.69a.67.67 0 0 1-.66-.69c0-.37.3-.68.66-.68.37 0 .67.3.67.68Zm12.46 0c0 .38.3.69.67.69.36 0 .66-.31.66-.69 0-.37-.3-.68-.66-.68-.37 0-.67.3-.67.68Zm-5.57 1.59c0 .37-.3.68-.66.68a.67.67 0 0 1-.66-.68c0-.38.3-.69.66-.69.37 0 .66.31.66.69Z" fill="#034A28"/><path fill-rule="evenodd" d="m25 35 .14.27a9.9 9.9 0 0 1 1.04 4.22c0 1.83-.53 4.09-.8 4.99l-.06.2L28 45l2.68-.32-.06-.2c-.27-.9-.8-3.16-.8-5 0-1.81.7-3.57 1.04-4.21L31 35h-6Zm.63.37c.38.81.95 2.43.95 4.12 0 1.75-.48 3.86-.76 4.88l2.18.26 2.18-.26a20.51 20.51 0 0 1-.76-4.88c0-1.69.57-3.3.95-4.12h-4.74Zm3.43-23.65-.6-1.72-.62 1.72h-1.96l1.59 1.06-.6 1.72 1.58-1.06 1.6 1.06-.62-1.72 1.6-1.06h-1.97Zm.7.38h-.96l-.35-.98-.35.98h-.97l.79.52-.33.93.86-.57.86.57-.33-.93.79-.52Zm-5.29 4.43L24 15l-.47 1.53H22l1.24.94-.48 1.53 1.24-.94 1.24.94-.48-1.53 1.24-.94h-1.53Zm.12.49h-.41l-.18-.57-.18.57h-.4l.32.25-.15.51.41-.31.41.31-.15-.5.33-.26Zm7.94-.49L33 15l.47 1.53H35l-1.24.94.48 1.53-1.24-.94-1.24.94.48-1.53-1.24-.94h1.53Zm-.12.49h.41l.18-.57.18.57h.4l-.32.25.15.51-.41-.31-.41.31.15-.5-.33-.26Z" fill="#034A28"/><path d="M27.63 29.5V13.65H28V29.5h-.37ZM29 31.3V13.6h.37v17.7H29ZM26.63 30V14.34H27V30h-.37Zm3.37.84v-16.3h.37v16.3H30Z" fill="#034A28"/><path d="M22.81 21c4.46 0 8.9 3.38 11.84 6.65.68-.26 1.44-.65 2.18-.65.71 0 1.83.52 2.26.64L39 28c-.42-.11-1.5-.63-2.17-.63-.8 0-1.55.43-2.28.71-2.98-3.36-7.15-6.7-11.74-6.7a4.47 4.47 0 0 0-4.46 4.49c0 3.56 3.83 5.07 6.62 5.46l.15.02v.16c0 .83.7 1.12 1.4 1.12 1.33 0 3.04-.26 3.5-1.81l.07-.26.2.16c.29.23.62.3.77.31l.82-.43-.83-.24.1-.36 1.7.5-1.7.9c-.3 0-.61-.09-.87-.24-.6 1.55-2.35 1.84-3.77 1.84-.82 0-1.66-.37-1.74-1.33-2.94-.43-6.77-2.1-6.77-5.8A4.84 4.84 0 0 1 22.81 21Z" fill="#034A28"/><path d="M19 25.88A4.16 4.16 0 0 1 23.26 22c4.28 0 8.58 3.62 11.43 6.62.49-.19 1.5-.62 2.32-.62.9 0 1.66.49 1.99.67l-.17.33c-.3-.17-.99-.63-1.82-.63-.83 0-1.88.47-2.3.64l-.12.05-.08-.1c-2.77-2.96-7.04-6.59-11.25-6.59a3.8 3.8 0 0 0-3.9 3.51c0 3.26 3.18 4.47 5.86 4.76.7-.25 1.33-.71 1.93-1.14h1.75c.25.22.47.48.61.79.63 1.37-1.57 2.3-2.46 2.71l-.15-.34c.64-.3 2.78-1.14 2.28-2.21a1.7 1.7 0 0 0-.42-.57h-1.5c-.6.42-1.26.89-1.96 1.13l-.03.01h-.04C22.34 30.7 19 29.37 19 25.88Z" fill="#034A28"/><path d="M23.41 24.53V22.7h.37v1.83h.16v.38h-2.5l-1.07.24-.07-.37 1.1-.25h2.01Z" fill="#034A28"/><path d="m21.33 22.92.18.33c-.16.1-.37.29-.35.5.02.33.24.68.42.95l-.31.21a2.48 2.48 0 0 1-.48-1.13c-.03-.37.25-.7.54-.86Z" fill="#034A28"/><path d="m22.14 23.22.26.27c-.15.16-.34.27-.49.44-.21.22-.38.5-.38.8h-.37c0-.45.25-.82.48-1.07.57-.61.5-.44.5-.44Zm-.5 3.61-.07.37c-.42-.08-1.15-.05-1.15.55 0 .63.4.8.93.8.44 0 .87-.28 1.24-.49-.12.47-.38 1.19.1 1.53.1.08.26.13.48.13.72 0 1.27-.48 1.45-1.17.47-.01 1.6-.1 1.6-.8h.37c0 .85-1.04 1.12-1.69 1.17-.18.46-.7 1.18-1.73 1.18-.76 0-1.17-.6-1.11-1.34-.23.1-.48.17-.72.17-.73 0-1.3-.35-1.3-1.18 0-.86.94-1.05 1.6-.92Z" fill="#034A28"/><path d="M25 24.7c.57-.2 1.24-.3 1.69-.33l.03.38a7.1 7.1 0 0 0-1.6.32c-.27.09-.86.29-.86.66 0 .32.19.72.46 1.1.27.39.6.72.8.92l-.2.32c-.8-.36-1.91-.93-2.83-.8-.08.02-.17.04-.17.14v.02c0 .03.02.07.06.12.18.2.5.3.75.34l-.07.38c-.4-.08-1.1-.31-1.1-.84-.03-.3.2-.49.48-.53.73-.11 1.56.24 2.23.49l-.25-.33a2.5 2.5 0 0 1-.53-1.33c0-.58.66-.87 1.11-1.03Zm2.76 5.28.37.02c-.01.3-.03.95.3 1.1l-.09.37h-1.63a.72.72 0 0 1-.35.6c-.33.2-.86.19-1.66-.12l.13-.36c.78.3 1.17.26 1.34.15.16-.09.2-.26.16-.43l-.04-.22h1.64a2.45 2.45 0 0 1-.17-1.1Z" fill="#034A28"/></svg>