<!-- by TradingView --><svg width="18" height="18" viewBox="0 0 18 18" xmlns="http://www.w3.org/2000/svg"><path fill="#F0F3FA" d="M0 0h18v18H0z"/><path d="M7.4 6c-.24 0-.4-.17-.4-.38 0-.1.04-.2.12-.3L8.6 3.17c.16-.22.43-.23.6-.03.19.21.2.58.04.81L8.5 5h4.01C13.86 5 15 5.91 15 7.65c0 1.74-1.1 2.85-2.44 2.85H8.5c-.28 0-.5-.14-.5-.5s.22-.5.5-.5h4.06c.8 0 1.44-.82 1.44-1.85C14 6.63 13.31 6 12.52 6H7.4Z" fill="url(#aef0kgdpq)"/><path d="M10.6 12c.24 0 .4.17.4.38 0 .1-.04.2-.12.3L9.4 14.83c-.16.22-.43.23-.6.03a.68.68 0 0 1-.04-.81L9.5 13H5.49C4.14 13 3 11.98 3 10.24 3 8.5 4.1 7.5 5.44 7.5H9.5c.28 0 .5.14.5.5s-.22.5-.5.5H5.44c-.8 0-1.44.72-1.44 1.74S4.69 12 5.48 12h5.12Z" fill="url(#bef0kgdpq)"/><defs><linearGradient id="aef0kgdpq" x1="8.52" y1="3.85" x2="11.79" y2="9.68" gradientUnits="userSpaceOnUse"><stop stop-color="#243164"/><stop offset=".19" stop-color="#6491BC"/><stop offset=".44" stop-color="#5A81AC"/><stop offset=".97" stop-color="#22224C"/></linearGradient><linearGradient id="bef0kgdpq" x1="5.09" y1="7.14" x2="8.02" y2="15.23" gradientUnits="userSpaceOnUse"><stop offset=".14" stop-color="#BFC2C9"/><stop offset=".38" stop-color="#E0E0E0"/><stop offset=".62" stop-color="#B0B1B3"/><stop offset=".82" stop-color="#D7D7D7"/><stop offset="1" stop-color="#A2A2A2"/></linearGradient></defs></svg>