<!-- by TradingView --><svg width="56" height="56" viewBox="0 0 56 56" xmlns="http://www.w3.org/2000/svg"><path fill="#F0F3FA" d="M0 0h56v56H0z"/><path d="M27.85 46h-.12c-1.58-.32-1.14-2.28-.87-3.33.32-1.29.28-2.63.15-3.94 0-.06-.04-.1-.1-.1a10.5 10.5 0 0 1-5.93-2.65c-.04-.04-.08-.04-.12 0-1.14 1.07-2.3 2.05-3.08 3.6-.32.63-1.45 1.59-2.25 1.22-1.23-.56-.43-2.2.4-2.66 1.8-1.01 2.66-1.97 3.87-3.28a.08.08 0 0 0 0-.1 10.94 10.94 0 0 1-2.37-6.1c0-.04-.04-.07-.08-.07-1.05 0-2.01-.14-3.13 0-1.4.17-3.4 1.2-4.22-.64v-.26c.36-1.23 2.04-1.24 3.04-.93 1.58.48 2.8.3 4.34.25.05 0 .08-.02.08-.07A10.73 10.73 0 0 1 20.04 21c.04-.05.04-.09 0-.13a16.8 16.8 0 0 0-2.01-2.08c-.56-.49-1.35-.85-1.99-1.34-2.23-1.75.3-3.92 1.92-1.44.38.58.7 1.24 1.16 1.74.63.72 1.32 1.39 2.07 2 .04.04.08.04.13 0a10.64 10.64 0 0 1 6.03-2.4c.07 0 .1-.04.1-.1.02-.81.12-1.69.05-2.42a14.1 14.1 0 0 0-.44-2.37c-.2-.8.22-3.01 1.57-2.33 1.31.66.65 2.62.45 3.63-.23 1.15-.14 2.36-.09 3.53 0 .05.03.08.08.09 2.3.23 4.3 1.11 6.04 2.62.04.04.08.04.13 0 .78-.73 1.63-1.44 2.21-2.29.26-.38.57-.86.93-1.44.47-.78 2.05-1.78 2.67-.51.75 1.5-1.88 2.59-2.63 3.23-.76.65-1.46 1.36-2.11 2.13-.04.04-.04.08 0 .13a10.85 10.85 0 0 1 2.4 6.11c.01.07.05.1.11.1.42 0 .83.03 1.23.05a9.99 9.99 0 0 0 3.26-.36c.76-.2 1.3-.19 1.96.11.74.34 1.01 1.1.37 1.7-1.09 1.01-2.58.22-3.8.05-1.15-.16-2.02.09-3.01-.02-.04 0-.08.01-.1.03a.14.14 0 0 0-.06.1 10.66 10.66 0 0 1-2.66 6c-.04.04-.04.08 0 .13 1.12 1.26 1.92 2.13 3.26 2.88.79.44 2.02 1.55 1.41 2.57-.58 1-1.8.28-2.34-.3a5.3 5.3 0 0 1-.6-.92c-.78-1.35-1.78-2.17-2.86-3.18a.07.07 0 0 0-.1 0 10.7 10.7 0 0 1-6.1 2.38c-.07 0-.1.03-.1.1-.1.94-.1 1.89-.03 2.85.08 1.06 1.28 4.15-.7 4.37ZM36 28a8 8 0 1 0-16 0 8 8 0 0 0 16 0Z" fill="#19479C"/><path fill-rule="evenodd" d="M30.02 21.05a7.26 7.26 0 0 1 4.63 10c-.53 1.18-1.89 1.43-2.97.87-.92-.48-1.5-.47-2.4.05-.5.3-.84.32-1.38.32-.41 0-.85-.21-1.23-.4a3.6 3.6 0 0 0-.58-.25c-.43-.12-1.11.06-1.81.26-1.05.29-2.14.59-2.54-.1a7.29 7.29 0 0 1 8.28-10.75Zm-.23.77h-.14a.04.04 0 0 0-.03.04v.04a11.3 11.3 0 0 0 .04.92c.01.05.02.07.03.07h.06a9.23 9.23 0 0 0 .08-.99v-.04a.04.04 0 0 0-.04-.04Zm-1.88 1.34c.1.06.1.11-.02.14a5.2 5.2 0 0 1-3.7-.19.03.03 0 0 0-.01.05v.01c1.17.78 2.4.93 3.71.45.18-.07.29-.24.32-.5 0-.06-.01-.1-.06-.12l-.34-.18a.07.07 0 0 1-.04-.07.07.07 0 0 1 .06-.06l1.43-.14c.04 0 .06-.03.06-.08-.01-.34-1.18-.1-1.52-.04l-.06.02c-.16.03-.26.15-.29.37 0 .04.01.08.05.1l.41.24Zm3.23 2.28a9.9 9.9 0 0 1-8.37-.26c-.13-.07-.14-.06-.03.04 2 1.78 6.98 2.15 8.89.05.54-.6-.25-.98-.68-1.19l-.03-.01a.12.12 0 0 1-.06-.14c.01-.08.04-.16.07-.25.05-.16.1-.32.08-.48-.04-.22-.18-.8-.53-.66a.16.16 0 0 0-.04.27c.2.2.33.43.35.7.01.07 0 .13-.04.17a.82.82 0 0 0-.14.55c0 .05.03.1.06.13.05.06.16.13.28.2.24.17.52.36.49.5a.53.53 0 0 1-.3.38Zm-3.41-1.3-.2-.08a.08.08 0 0 0-.1.06c-.2 1.34-2.86.16-3.46-.22h-.03a.04.04 0 0 0-.03.04l.01.02c.67.58 3.02 1.78 3.58.55a.19.19 0 0 1 .1-.1c.5-.18 1.02-.25 1.56-.2a.22.22 0 0 0 .17-.04c.23-.2.29-.46.16-.77-.04-.1-.1-.11-.17-.05l-.06.04a.07.07 0 0 0-.02.07v.03c.1.12.13.24.08.37a.16.16 0 0 1-.3 0l-.03-.1a.08.08 0 0 0-.06-.05.08.08 0 0 0-.08.03l-.26.3a.1.1 0 0 1-.1.04.1.1 0 0 1-.04-.03l-.2-.18c-.05-.05-.1-.04-.12.02a.52.52 0 0 1-.24.23.19.19 0 0 1-.16.02Zm2.53-.35-.17.02h-.01l-.01.02v.04a9.82 9.82 0 0 0 .18.92c.02.05.03.07.05.07h.04s.02-.03.02-.08v-.22a5.98 5.98 0 0 0-.06-.72v-.02l-.02-.02h-.02Zm-3.85.54a.2.2 0 0 0-.34-.14.2.2 0 1 0 .34.14Zm2.74.77h.44a.2.2 0 0 0 .14-.06c.26-.26.3-.54.12-.85a.06.06 0 0 0-.08-.03.06.06 0 0 0-.03.08c.08.22.05.4-.09.55a.23.23 0 0 1-.14.07.37.37 0 0 1-.33-.1.1.1 0 0 0-.13-.01.1.1 0 0 0-.03.04l-.2.36a.34.34 0 0 1-.13.15c-1.22.65-3.75 0-4.91-.58h-.05a.04.04 0 0 0 .01.06c1.18.76 4.36 1.95 5.3.38a.11.11 0 0 1 .1-.06Zm-.77-.58c-.13-.02-.19.05-.24.11-.07.08-.14.16-.33.09a.1.1 0 0 0-.12.03.1.1 0 0 0-.02.03l-.06.17c-.01.05 0 .08.05.1.18.05.31 0 .4-.14a.14.14 0 0 1 .15-.06c.17.05.26 0 .3-.16a.15.15 0 0 0-.13-.17Zm1.58 1c.15.03.23-.02.26-.15a.15.15 0 0 0-.18-.18.25.25 0 0 0-.2.22.07.07 0 0 1-.04.05.07.07 0 0 1-.07-.01c-.14-.14-.26-.14-.38 0a.12.12 0 0 0 .05.18c.15.07.3.04.43-.08a.15.15 0 0 1 .13-.03Zm1.76.98.05.23a.2.2 0 0 0 .12.15c.11.05.2.02.29-.07a.12.12 0 0 0 .02-.12.12.12 0 0 0-.1-.08c-.23-.04-.3-.18-.24-.42a.18.18 0 0 0-.13-.23h-.1c-.31.1-.22.34.01.44a.14.14 0 0 1 .08.1Zm.73-.12a.12.12 0 0 0 .02-.06v-.08a.29.29 0 0 0-.05-.08.37.37 0 0 0-.24-.14c-.06 0-.1.01-.14.05a.12.12 0 0 0-.02.06v.08l.05.08.07.07c.06.04.12.06.18.07.05 0 .1-.01.13-.05Zm1.21 6.04c-.88.39-1.67.07-2.52-.32-.64-.29-1.16-.06-1.7.17-.35.15-.7.3-1.08.32a3.77 3.77 0 0 1-1.79-.35c-1.04-.47-1.92-.16-2.84.17-.36.13-.72.26-1.1.35a.07.07 0 0 0-.05.07v.03c.25.48 1.36 0 2.05-.32l.26-.11c.51-.21 1.11-.07 1.65.22.96.52 1.91.54 2.87.06.69-.34.96-.4 1.72-.09.72.3 2.2.9 2.6-.14.03-.07 0-.1-.07-.06Zm-1.48 1.4c.09.06.09.11 0 .17a7.4 7.4 0 0 1-8.4-.04c-.06-.04-.06-.08 0-.11.59-.44 1.62-.9 2.36-.54.96.46 1.66.8 2.83.45.16-.04.32-.12.5-.2.36-.16.76-.34 1.17-.3.53.05 1.04.24 1.54.57ZM25 27v4h.65v-2.82L27.07 31h.82v-4h-.7v2.82L25.8 27H25Zm-3 3.78V27h1.55c.63 0 1.15.55 1.15 1.23 0 .67-.52 1.22-1.15 1.22h-.85v1.32H22Zm1.5-3.17h-.83v1.28h.84c.33 0 .6-.28.6-.64 0-.35-.27-.64-.6-.64Zm4.5 2.08h.69c.03.2.22.6.72.6.63 0 .75-.24.75-.47 0-.24-.3-.4-.71-.5-.42-.1-1.34-.43-1.34-1.25 0-.82.63-1.07 1.34-1.07.7 0 1.27.54 1.27 1.23h-.56a.7.7 0 0 0-.75-.68c-.72 0-.81.8.04.99.85.19 1.42.6 1.42 1.28 0 .67-.65 1.08-1.46 1.08-.81 0-1.41-.55-1.41-1.21Zm6-.18c-.17.86-.77 1.49-1.48 1.49-.84 0-1.52-.9-1.52-2s.68-2 1.52-2c.68 0 1.26.58 1.45 1.38h-.71c-.14-.43-.4-.72-.72-.72-.44 0-.8.6-.8 1.34 0 .74.36 1.34.8 1.34.34 0 .63-.34.75-.83H34Z" fill="#24AAE2"/></svg>