<!-- by TradingView --><svg width="18" height="18" viewBox="0 0 18 18" xmlns="http://www.w3.org/2000/svg"><path fill="#F0F3FA" d="M0 0h18v18H0z"/><path d="m9 4 6 1.71V6L9 4.29l-6 1.7V5.7L9 4Zm0 10 6-1.73V12l-6 1.7L3 12v.27L9 14Z" fill="#24A227"/><path fill-rule="evenodd" d="M15 6.23 9 4.67 3 6.23v5.54l6 1.56 6-1.56V6.23ZM4 11V7h1c.86 0 1.5.69 1.5 1.5S5.86 9.95 5 9.96V11H4Zm8.5-4h-1v4H14V9.1l-1.5.88V7ZM9 6l1.41 1.6c.4.44.6.98.59 1.53L9.45 7.95l-.08-.12v-.18l-.07-.06v-.2l-.05-.06V7l-.06-.07V6.6c.02-.02.07-.09.07-.15 0-.07-.1-.11-.15-.13l-.03-.2-.07.06h-.04l-.05.09-.16.18c.04.02.12.08.12.15a.2.2 0 0 1-.04.13v.23l-.64 1.3-1.2.92c-.03-.56.17-1.13.58-1.57L9 6Zm.62 2.22L11 9.26c0 .18-.04.36-.1.53L9.88 8.62l-.26-.4Zm.18.48 1.05 1.21-.06.16-1-1.37h.01Zm-.1.05 1.03 1.43c-.07.12-.14.24-.24.35a4.57 4.57 0 0 1-.81-1.77h.01Zm-.13-.02c.05.36.28 1.12.85 1.88-.1.1-.2.2-.3.27l-.13-.09v-.4h-.26c-.21-.18-.28-1.36-.3-1.94l.14.28Zm-1.2 2.05c-.03.12-.19.19-.31.22-.1-.06-.21-.13-.3-.22h.6Zm-.18-.2h-.63a2.23 2.23 0 0 1-.2-.26l.93-1.97.37-.28v.28c.02 0 .07.03.07.14 0 .11-.05.16-.07.17v.5l-.04.07v.49l-.06.03v.5c0 .25-.16.32-.29.34H8.2Zm-.08-2.1-.82 1.73A2.22 2.22 0 0 1 7 9.3l1.1-.83Zm.7-.52v-.09h.1V8h-.1v-.03Zm-.15-.03-.27.2.45-.94v.03c0 .1-.03.15-.05.16v.4l-.13.14v.01Zm.33-.64h.1v.1H9v-.1Zm.02.2h.1v.1h-.1v-.1Zm.1.24h-.1v.12h.1v-.12Zm-.26.4h-.1v.1h.1v-.1Zm-.08.25h.11v.1h-.1v-.1Zm.5-.23h-.1v.11h.1v-.1Zm-.07.23h.1v.1h-.1v-.1Zm.08.25h-.1v.11h.1v-.11Zm-.05.17h.1v.1h-.1v-.1Zm.15.16h-.1v.12h.1v-.12Zm-.13.26h.1v.1h-.1v-.1Zm.13.2h-.1v.1h.1v-.1Zm-.05.19h.1v.1h-.1v-.1Zm.1.14h-.1v.1h.1v-.1Zm-.07.39h.1v.11h-.1v-.11Zm-.16-.09h-.3v.12h.3v-.12Zm-.21-.2h.18v.12H9v-.11Zm.18-.19H9v.11h.18v-.1Zm-.24-.36h.19v.11h-.19V9.3Zm.22-.2h-.19v.12h.19V9.1Zm-.19-.2h.19v.12h-.19v-.11Zm.19-.19h-.19v.11h.19v-.1Zm-.22-.2h.19v.12h-.19v-.11Zm.24.96h-.32v.1h.32v-.1Zm-.45.28h.1v.1h-.1v-.1Zm.08-.53h-.1v.1h.1v-.1Zm-.16.75h.1v.11h-.1v-.1Zm.1.17h-.1v.11h.1v-.11Zm.22-2.18h.21v.1h-.21v-.1Z" fill="#24A227"/></svg>