<!-- by TradingView --><svg width="56" height="56" viewBox="0 0 56 56" xmlns="http://www.w3.org/2000/svg"><path fill="#F0F3FA" d="M0 0h56v56H0z"/><path d="M33.79 42c-5.87.67-10.3 3.23-11.79 4.42.19.07.72.27 1.34.58 3.22-3.38 8.45-4.49 10.66-4.62l-.21-.38Z" fill="#007216"/><path d="M22.21 42c5.87.67 10.3 3.23 11.79 4.42-.19.07-.72.27-1.34.58-3.22-3.38-8.45-4.49-10.66-4.62l.21-.38Z" fill="#007216"/><path fill-rule="evenodd" d="m21.54 11.16-.03-.16-.14.06c-.45.21-.71.56-.85.93a6.17 6.17 0 0 0-.04-.17l-.03-.16-.14.07c-.52.24-.79.67-.91 1.1a5.17 5.17 0 0 0-.1-.35l-.04-.15-.13.08c-.42.24-.66.6-.78.96a5.65 5.65 0 0 0-.08-.22l-.05-.16-.13.09c-.44.3-.65.72-.73 1.13l-.11-.26-.07-.15-.12.1c-.46.36-.63.84-.65 1.3l-.14-.28-.08-.15-.11.1a1.75 1.75 0 0 0-.57 1.4l-.18-.28-.1-.13-.1.11c-.35.4-.46.87-.44 1.3a5.73 5.73 0 0 0-.12-.2l-.1-.13-.1.12c-.35.4-.46.86-.43 1.28a5.73 5.73 0 0 0-.13-.19l-.09-.13-.1.12a1.78 1.78 0 0 0-.42 1.5 4.9 4.9 0 0 0-.22-.24l-.1-.12-.1.14a1.8 1.8 0 0 0-.2 1.46l-.19-.16-.11-.1-.08.14c-.24.48-.23.95-.11 1.34a5.14 5.14 0 0 0-.08-.05l-.13-.1-.06.16c-.18.49-.13.93 0 1.3l-.2-.15-.12-.08-.06.15c-.19.51-.13.98.04 1.36a5.3 5.3 0 0 0-.15-.08l-.13-.07-.04.16c-.16.59-.01 1.08.23 1.46l.01.02a5 5 0 0 0-.2-.09l-.15-.05-.03.16c-.09.59.1 1.05.36 1.4a5.1 5.1 0 0 0-.2-.05l-.15-.03v.16c0 .53.18.93.44 1.22l-.16-.04-.15-.03v.16c0 .6.25 1.04.56 1.33a5.03 5.03 0 0 0-.19-.02l-.15-.02.01.16c.04.56.29.96.6 1.23h-.12l-.15-.01.02.16c.08.49.3.83.58 1.07h-.23l.04.17c.1.5.35.83.65 1.05h-.31l.04.16c.12.58.44.94.8 1.15a5 5 0 0 0-.16.02l-.15.02.05.16c.18.58.55.9.94 1.07l-.12.04-.15.04.07.15a1.6 1.6 0 0 0 1.26.96l-.27.12-.14.07.1.13c.28.45.67.66 1.05.73a5.4 5.4 0 0 0-.13.07l-.13.08.1.13c.35.47.81.64 1.24.64h.02l-.18.13-.12.1.1.1c.4.42.85.54 1.27.5l-.17.12-.12.1.1.1a1.52 1.52 0 0 0 1.36.5 4.8 4.8 0 0 0-.25.19l-.12.1.11.1a1.52 1.52 0 0 0 1.37.43l-.17.17-.1.12.12.09c.48.34.96.35 1.37.23.4-.13.74-.39.93-.59h.09v-.16c.03-.3 0-.76-.16-1.2a1.63 1.63 0 0 0-1-1.04l-.15-.05v.17l-.01.04c-.14-.3-.36-.58-.7-.75l-.15-.08-.03.17-.04.2c-.1-.42-.33-.84-.77-1.1l-.14-.08-.04.17-.1.4v-.09a1.7 1.7 0 0 0-.8-1.22l-.14-.08-.04.17-.03.13a1.62 1.62 0 0 0-.62-.98l-.13-.1-.06.16-.02.04a1.62 1.62 0 0 0-.53-.94L16.7 36l-.07.15-.09.2a1.7 1.7 0 0 0-.4-1.18l-.1-.12-.1.14a7 7 0 0 0-.07.13 1.7 1.7 0 0 0-.26-1.07l-.1-.15-.1.13-.09.1c.08-.36.06-.76-.14-1.15l-.08-.15-.12.11-.05.05c.1-.38.09-.8-.13-1.23l-.08-.15-.12.11-.03.03c.07-.33.06-.7-.1-1.07l-.07-.15-.13.1-.1.09c.13-.34.16-.73.01-1.15l-.05-.16-.13.1-.15.1c.18-.35.27-.78.14-1.25l-.04-.16-.14.08-.12.07c.2-.36.3-.8.17-1.3l-.04-.16-.07.04c.11-.26.17-.55.13-.89l-.02-.17-.15.06-.1.04c.23-.28.39-.65.38-1.1v-.17l-.14.04c.2-.24.34-.55.38-.93l.01-.17-.14.02c.26-.25.47-.6.5-1.07l.02-.17-.16.03h-.03c.22-.21.4-.5.47-.87l.03-.17h-.21c.28-.18.52-.47.65-.88l.04-.16h-.07c.25-.15.47-.37.62-.7l.07-.15-.15-.04a6.1 6.1 0 0 0-.16-.04c.4-.11.77-.36 1-.85l.07-.15-.15-.04a6.1 6.1 0 0 0-.16-.04c.39-.12.77-.37 1-.85l.07-.15-.1-.03c.29-.1.57-.3.78-.65l.09-.14-.15-.06-.03-.01c.34-.07.69-.25.94-.62l.1-.14-.03-.01c.29-.07.57-.22.8-.5l.08-.1c.28-.06.55-.2.8-.44l.1-.12-.06-.05c.32 0 .65-.1.95-.37l.12-.11-.13-.1a6.87 6.87 0 0 0-.1-.1c.38.05.8-.03 1.17-.36l.12-.1-.13-.1a2.77 2.77 0 0 0-1.12-.62 1.27 1.27 0 0 0-.35-.02c.08-.12.14-.26.18-.4.11-.4.05-.86-.04-1.26Zm-.2 1.19c-.09.3-.28.57-.7.76-.03-.23-.03-.55.06-.85.09-.34.28-.66.63-.87.06.34.09.67 0 .96Zm-1.76 1.43c.42-.2.61-.47.7-.77a2.4 2.4 0 0 0-.01-.96c-.35.21-.54.54-.63.87-.09.3-.1.62-.06.86Zm-1.03.73c.4-.23.58-.52.64-.82.06-.3 0-.63-.08-.96-.33.24-.5.58-.56.92-.07.31-.05.63 0 .86Zm-5.72 8.33a1.86 1.86 0 0 0-.3-.38 2 2 0 0 1-.16-.32c-.12-.32-.16-.7 0-1.1.24.22.45.47.55.75.11.28.12.62-.1 1.05Zm-.18.2a2.67 2.67 0 0 1-.32-.4c-.1-.1-.2-.19-.32-.27-.11.42-.03.79.12 1.1.15.27.35.5.53.64.17-.45.12-.8-.01-1.06Zm-.8 2.24.12.12.1.13c.16.26.23.6.11 1.06a2.04 2.04 0 0 1-.58-.58 1.5 1.5 0 0 1-.23-1.08c.18.1.34.22.48.35Zm.3-.07a2.02 2.02 0 0 1-.4-.53c-.15-.3-.23-.68-.12-1.1.27.2.5.42.64.68.13.27.18.61 0 1.07a2.03 2.03 0 0 1-.12-.12Zm.7 7.7c.18.03.36.08.52.16l.05.01c-.08-.48-.27-.75-.52-.9a1.82 1.82 0 0 0-.88-.24 1.41 1.41 0 0 0 .83.98Zm.44.43h.01c.26.14.47.4.57.87a1.78 1.78 0 0 1-.78-.22 1.4 1.4 0 0 1-.67-.83c.12 0 .25 0 .37.02.17.08.35.13.5.16Zm7.48-19.95c.33-.29.64-.35.94-.29.3.07.59.24.87.46-.31.22-.67.24-1 .17a2.3 2.3 0 0 1-.81-.34Zm-.66 1.17a1.47 1.47 0 0 0-.5-.15c-.3-.03-.6.05-.9.36h.01c.33.01.65.14.95.29.3.01.6-.06.85-.27a3.5 3.5 0 0 0-.4-.23Zm-.06-.31a2.41 2.41 0 0 1-.34-.2c.33-.29.64-.34.94-.28.3.06.59.24.87.45-.32.22-.67.25-1 .18a2.02 2.02 0 0 1-.47-.15Zm-.55 1.07a2 2 0 0 0 .1 0l.04.03a1.3 1.3 0 0 1-1 .33 2.32 2.32 0 0 0-.68-.15l-.13-.06c.26-.3.53-.42.81-.43.23.12.54.24.86.28Zm-.92.63a2.47 2.47 0 0 1-.66-.15h-.1c-.3.01-.6.14-.85.5.23.09.54.16.86.15.34-.02.68-.13.94-.42a4.28 4.28 0 0 0-.19-.08Zm-1.62.77c-.3.04-.59.2-.82.57.23.07.54.11.86.08.34-.04.67-.18.92-.49a2.2 2.2 0 0 0-.96-.16Zm-1.52 1.64c.2-.4.46-.58.76-.66.3-.07.63-.03.97.05-.21.34-.53.51-.86.59-.31.07-.63.06-.87.02Zm0 .43c-.3.07-.56.25-.76.65.24.04.56.06.87-.02.33-.08.65-.25.86-.59a2.18 2.18 0 0 0-.97-.04Zm-1.52 1.73c.2-.4.46-.58.76-.65.3-.07.63-.03.97.05-.2.33-.53.5-.86.58-.31.08-.63.07-.87.02Zm.18.43c-.28.12-.52.34-.65.77.24 0 .56-.04.85-.17.32-.13.6-.36.77-.73-.35-.01-.69 0-.97.13Zm-1.01 2.03c.08-.45.3-.7.57-.85.26-.15.6-.2.95-.23-.13.39-.39.64-.7.81-.28.16-.59.24-.82.27Zm.44 1.3-.33.13a1.18 1.18 0 0 0-.65 1.01c.16-.03.34-.1.52-.2h.02c.09-.04.18-.1.26-.16.28-.2.52-.5.6-.89l-.42.1Zm-.42-.12-.18.04c.04-.44.23-.72.48-.9.25-.19.57-.28.92-.35-.08.4-.32.69-.6.9l-.3.17c-.1.04-.22.08-.32.14Zm.07 1.32.02-.02c.17-.08.35-.14.53-.2-.04.4-.25.71-.5.95a2.6 2.6 0 0 1-.77.45c0-.46.16-.75.4-.96.09-.09.2-.16.32-.22Zm-.09 2.47c.09-.07.17-.14.25-.23l.31-.21c.06.4-.06.76-.26 1.06-.18.28-.42.5-.62.64a1.23 1.23 0 0 1 .32-1.26Zm-.57.05a2.45 2.45 0 0 0 .71-.54c.24-.26.41-.6.41-1-.32.14-.62.3-.83.54-.21.24-.34.55-.29 1Zm.38 2.52c-.11-.43-.03-.76.14-1.03s.45-.48.75-.67c.05.4-.07.76-.27 1.06-.18.28-.42.5-.62.64Zm.4.26c-.15.28-.2.61-.06 1.04.19-.16.41-.4.57-.7.17-.31.27-.68.19-1.07-.29.21-.54.45-.7.73Zm.4 2.23c-.18-.4-.15-.75-.03-1.04.13-.3.36-.55.63-.8.12.39.06.76-.09 1.1-.13.3-.34.56-.51.74Zm.36.08c-.1.3-.12.64.08 1.04.17-.19.36-.46.48-.78.12-.34.17-.72.03-1.1-.26.27-.47.54-.59.84Zm.46 2.26c-.2-.4-.19-.74-.08-1.04.12-.3.33-.58.59-.84.14.38.1.76-.03 1.1-.12.32-.31.59-.48.78Zm.46.1c-.09.31-.06.65.17 1.02.15-.2.31-.5.4-.82.1-.35.1-.73-.07-1.1-.22.3-.42.59-.5.9Zm1 2a1.22 1.22 0 0 1-.3-.99c.04-.32.2-.64.38-.96.22.33.26.71.21 1.08-.04.33-.16.65-.28.87Zm.56 0c0 .33.11.65.44.93.08-.24.16-.57.16-.9 0-.37-.1-.74-.36-1.03-.14.34-.25.68-.24 1Zm1.33 1.75a1.18 1.18 0 0 1-.5-.89 2.7 2.7 0 0 1 .17-1.02c.29.27.4.63.43 1 .03.33-.03.67-.1.91Zm1.06.72c-.37-.22-.53-.5-.59-.83-.06-.32-.01-.67.07-1.04.3.24.46.58.53.94.06.34.04.68 0 .93Zm1.08.82c-.37-.22-.53-.5-.59-.83-.06-.31-.01-.67.07-1.03.3.23.46.58.53.93.06.34.04.68 0 .93Zm1.09.77c-.38-.2-.56-.48-.63-.8a2.4 2.4 0 0 1 .02-1.03c.32.22.49.55.57.9a3 3 0 0 1 .04.93Zm.42-.21c.1.3.32.55.72.7 0-.27-.04-.6-.16-.92a1.42 1.42 0 0 0-.68-.82c-.01.38 0 .74.12 1.04Zm-.4.74c.28-.09.6-.06.98.22a1.9 1.9 0 0 1-.7.4c-.32.1-.68.1-1.03-.1.23-.24.48-.44.75-.52Zm-1.14-.64c.29-.05.6.03.94.36a1.9 1.9 0 0 1-.75.3c-.32.05-.68 0-1-.26.26-.2.53-.36.81-.4Zm-1.08-.83c.3-.03.6.06.92.4a1.8 1.8 0 0 1-.76.26c-.32.04-.67-.03-.99-.3.27-.19.55-.34.83-.36Zm-1.08-.83c.3-.02.6.07.92.41a1.8 1.8 0 0 1-.76.26 1.3 1.3 0 0 1-.99-.3c.27-.2.55-.34.83-.37Zm-1.03-.84c.29 0 .58.13.87.51-.2.1-.49.18-.79.17-.32 0-.66-.11-.95-.42.3-.15.59-.27.87-.26Zm-.04-.33c-.26-.4-.55-.55-.83-.58-.29-.03-.59.06-.89.2.27.32.6.46.92.49.3.03.59-.03.8-.1Zm-1.76-1.67c.28.07.54.27.75.7-.22.05-.52.06-.8-.02a1.34 1.34 0 0 1-.85-.63c.32-.09.63-.13.9-.05Zm-.1-.31c-.15-.47-.38-.7-.65-.81a1.8 1.8 0 0 0-.9-.09c.17.4.45.63.75.76.28.12.57.15.8.14Zm-1.21-2.03c.26.14.47.4.57.87a1.78 1.78 0 0 1-.78-.22 1.4 1.4 0 0 1-.67-.83c.32 0 .63.04.88.18Zm-.73-2.7c-.03-.49-.2-.78-.44-.96a1.84 1.84 0 0 0-.85-.31c.07.42.3.72.56.93.24.18.51.29.73.34Zm-.7-2.31c.21.2.37.5.36.99-.21-.07-.48-.2-.7-.4a1.46 1.46 0 0 1-.49-.98 2 2 0 0 1 .83.39Zm.23-.32c0-.49-.15-.8-.37-1-.21-.19-.5-.3-.82-.38.03.43.23.75.48.97.23.21.5.34.7.4Zm-.47-2.3c.2.23.3.55.23 1.03a2 2 0 0 1-.64-.51 1.4 1.4 0 0 1-.34-1.04c.3.13.57.29.75.52Zm1.4-6.4c.07.29.05.63-.2 1.04-.15-.19-.3-.45-.39-.76-.1-.33-.1-.71.1-1.1.22.26.4.52.48.81Zm.65-1.2c.03.31-.05.64-.36 1a2.2 2.2 0 0 1-.26-.81 1.5 1.5 0 0 1 .26-1.07c.18.29.33.58.36.88Zm1.16-1.17c.31-.35.39-.68.36-1-.04-.3-.18-.59-.36-.87-.25.34-.3.72-.26 1.06.03.32.14.6.26.81Zm-.4.1c.03.3-.05.63-.36.99a2.2 2.2 0 0 1-.26-.81 1.5 1.5 0 0 1 .26-1.07c.18.29.32.58.36.88Zm1.12-1.2c.34-.31.46-.63.45-.94 0-.3-.11-.61-.26-.92-.28.31-.38.68-.37 1.03 0 .32.08.62.18.84Zm2.3-2.7c-.04.3-.2.6-.58.86-.06-.23-.1-.54-.07-.85.05-.35.19-.7.5-.96.12.32.19.65.15.95Zm-.94.8c-.02.3-.15.62-.52.9a2.25 2.25 0 0 1-.12-.84c.02-.35.13-.7.43-1 .13.32.23.63.21.94Zm17.16-4 .03-.16.14.06c.45.21.71.56.85.93l.04-.17.03-.16.14.07c.52.24.79.67.91 1.1l.1-.35.04-.15.13.08c.42.24.66.6.78.96l.08-.22.05-.16.13.09c.44.3.65.72.73 1.13l.11-.26.07-.15.12.1c.46.36.63.84.65 1.3l.14-.28.08-.15.11.1a1.75 1.75 0 0 1 .57 1.4l.18-.28.1-.13.1.11c.35.4.46.87.44 1.3l.12-.2.1-.13.1.12c.35.4.46.86.43 1.28l.13-.19.09-.13.1.12a1.78 1.78 0 0 1 .42 1.5l.22-.24.1-.12.1.14c.31.5.32 1.02.2 1.46l.19-.16.11-.1.08.14c.24.48.23.95.11 1.34l.08-.05.13-.1.06.16c.18.49.13.93 0 1.3l.2-.15.12-.08.06.15c.19.51.13.98-.04 1.36l.15-.08.13-.07.04.16c.16.59.01 1.08-.23 1.46l-.01.02a5 5 0 0 1 .2-.09l.15-.05.03.16c.09.59-.1 1.05-.36 1.4l.2-.05.15-.03v.16c0 .53-.18.93-.44 1.22l.16-.04.15-.03v.16c0 .6-.25 1.04-.56 1.33l.19-.02.15-.02-.01.16c-.04.56-.29.96-.6 1.23h.12l.15-.01-.02.16c-.08.49-.3.83-.58 1.07h.23l-.04.17c-.1.5-.35.83-.65 1.05h.31l-.04.16c-.12.58-.44.94-.8 1.15a5 5 0 0 1 .16.02l.15.02-.05.16c-.18.58-.55.9-.94 1.07l.12.04.15.04-.07.15a1.6 1.6 0 0 1-1.26.96l.27.12.14.07-.1.13c-.28.45-.67.66-1.05.73l.13.07.13.08-.1.13a1.5 1.5 0 0 1-1.24.64h-.02l.18.13.12.1-.1.1c-.4.42-.85.54-1.27.5l.17.12.12.1-.1.1a1.52 1.52 0 0 1-1.36.5l.25.19.12.1-.11.1a1.52 1.52 0 0 1-1.37.43l.17.17.1.12-.12.09a1.5 1.5 0 0 1-1.37.23 2.2 2.2 0 0 1-.93-.59h-.09v-.16c-.03-.3 0-.76.16-1.2.16-.44.47-.86 1-1.04l.15-.05v.17l.01.04c.14-.3.36-.58.7-.75l.15-.08.03.17.04.2c.1-.42.33-.84.77-1.1l.14-.08.04.17.1.4v-.09c.09-.46.31-.94.8-1.22l.14-.08.04.17.03.13c.09-.37.27-.72.62-.98l.13-.1.06.16.02.04c.06-.34.22-.68.53-.94l.12-.11.07.15.09.2c-.01-.4.09-.82.4-1.18l.1-.12.1.14a7 7 0 0 1 .07.13 1.7 1.7 0 0 1 .26-1.07l.1-.15.1.13.09.1c-.08-.36-.06-.76.14-1.15l.08-.15.12.11.05.05c-.1-.38-.09-.8.13-1.23l.08-.15.12.11.03.03a1.7 1.7 0 0 1 .1-1.07l.07-.15.13.1.1.09a1.71 1.71 0 0 1-.01-1.15l.05-.16.13.1.15.1a1.73 1.73 0 0 1-.14-1.25l.04-.16.14.08.12.07c-.2-.36-.3-.8-.17-1.3l.04-.16.07.04a1.68 1.68 0 0 1-.13-.89l.02-.17.15.06.1.04a1.65 1.65 0 0 1-.38-1.1v-.17l.14.04a1.7 1.7 0 0 1-.38-.93l-.01-.17.14.02a1.6 1.6 0 0 1-.5-1.07l-.02-.17.16.03h.03a1.6 1.6 0 0 1-.47-.87l-.03-.17h.21a1.6 1.6 0 0 1-.65-.88l-.04-.16h.07a1.54 1.54 0 0 1-.62-.7l-.07-.15.15-.04c.05 0 .1-.02.16-.04a1.5 1.5 0 0 1-1-.85l-.07-.15.15-.04.16-.04a1.58 1.58 0 0 1-1-.85l-.07-.15.1-.03c-.29-.1-.57-.3-.78-.65l-.09-.14.15-.06.03-.01a1.5 1.5 0 0 1-.94-.62l-.1-.14.03-.01a1.47 1.47 0 0 1-.8-.5l-.08-.1a1.45 1.45 0 0 1-.8-.44l-.1-.12.06-.05c-.32 0-.65-.1-.95-.37l-.12-.11.13-.1.1-.1c-.38.05-.8-.03-1.17-.36l-.12-.1.13-.1c.33-.28.7-.54 1.12-.62.11-.02.23-.03.35-.02a1.36 1.36 0 0 1-.18-.4c-.11-.4-.05-.86.04-1.26Zm.2 1.19c.09.3.28.57.7.76.03-.23.03-.55-.06-.85a1.4 1.4 0 0 0-.63-.87 2.2 2.2 0 0 0 0 .96Zm1.76 1.43a1.2 1.2 0 0 1-.7-.77 2.2 2.2 0 0 1 .01-.96c.35.21.54.54.63.87.09.3.1.62.06.86Zm1.03.73a1.2 1.2 0 0 1-.64-.82c-.06-.3 0-.63.08-.96.33.24.5.58.56.92.07.31.05.63 0 .86Zm5.72 8.33c.09-.14.19-.27.3-.38a2 2 0 0 0 .16-.32c.12-.32.16-.7 0-1.1-.24.22-.45.47-.55.75-.11.28-.12.62.1 1.05Zm.18.2c.11-.11.22-.25.32-.4.1-.1.2-.19.32-.27.11.42.03.79-.12 1.1-.15.27-.35.5-.53.64-.17-.45-.12-.8.01-1.06Zm.8 2.24-.12.12-.1.13c-.16.26-.23.6-.11 1.06a2 2 0 0 0 .58-.58c.19-.3.3-.65.23-1.08-.18.1-.34.22-.48.35Zm-.3-.07.12-.12c.1-.12.2-.26.28-.41.15-.3.23-.68.12-1.1-.27.2-.5.42-.64.68-.13.27-.18.61 0 1.07l.12-.12Zm-.7 7.7c-.18.03-.36.08-.52.16l-.05.01c.08-.48.27-.75.52-.9.25-.16.55-.22.88-.24a1.41 1.41 0 0 1-.83.98Zm-.44.43h-.01c-.26.14-.47.4-.57.87.23-.01.51-.07.78-.22.29-.16.55-.42.67-.83-.12 0-.25 0-.37.02-.17.08-.35.13-.5.16Zm-7.48-19.95c-.33-.29-.64-.35-.94-.29-.3.07-.59.24-.87.46.31.22.67.24 1 .17.32-.06.6-.2.81-.34Zm.66 1.17.15-.06a1.09 1.09 0 0 1 1.26.27h-.02c-.33.01-.65.14-.95.29-.3.01-.6-.06-.85-.27.13-.09.27-.17.4-.23Zm.06-.31c.13-.06.24-.13.34-.2a1.03 1.03 0 0 0-.94-.28c-.3.06-.59.24-.87.45.32.22.67.25 1 .18a2.02 2.02 0 0 0 .47-.15Zm.55 1.07a2 2 0 0 1-.1 0l-.04.03a1.3 1.3 0 0 0 1 .33c.23-.08.45-.14.68-.15l.13-.06a1.1 1.1 0 0 0-.81-.43 2.5 2.5 0 0 1-.86.28Zm.92.63c.24-.02.47-.08.66-.15h.1c.3.01.6.14.85.5-.23.09-.54.16-.86.15a1.31 1.31 0 0 1-.94-.42l.19-.08Zm1.62.77c.3.04.59.2.82.57-.23.07-.54.11-.86.08a1.32 1.32 0 0 1-.92-.49c.33-.11.66-.2.96-.16Zm1.52 1.64c-.2-.4-.46-.58-.76-.66-.3-.07-.63-.03-.97.05.21.34.53.51.86.59.31.07.63.06.87.02Zm0 .43c.3.07.56.25.76.65-.24.04-.56.06-.87-.02a1.35 1.35 0 0 1-.86-.59c.34-.07.68-.11.97-.04Zm1.52 1.73c-.2-.4-.46-.58-.76-.65-.3-.07-.63-.03-.97.05.2.33.53.5.86.58.31.08.63.07.87.02Zm-.18.43c.28.12.52.34.65.77-.24 0-.56-.04-.85-.17a1.4 1.4 0 0 1-.77-.73c.35-.01.69 0 .97.13Zm1.01 2.03c-.08-.45-.3-.7-.57-.85a2.2 2.2 0 0 0-.95-.23c.13.39.4.64.7.81.28.16.58.24.82.27Zm-.44 1.3.33.13.17.1c.25.19.44.46.48.91-.16-.03-.34-.1-.52-.2h-.02a2.1 2.1 0 0 1-.26-.16c-.28-.2-.52-.5-.6-.89l.42.1Zm.42-.12.18.04a1.18 1.18 0 0 0-.48-.9 2.23 2.23 0 0 0-.92-.35c.08.4.32.69.6.9l.3.17c.1.04.22.08.32.14Zm-.07 1.32-.02-.02a3.15 3.15 0 0 0-.53-.2c.04.4.25.71.5.95.25.22.54.36.77.45 0-.46-.16-.75-.4-.96a1.6 1.6 0 0 0-.32-.22Zm.09 2.47a3.88 3.88 0 0 0-.56-.44c-.06.4.06.76.26 1.06.18.28.42.5.62.64a1.23 1.23 0 0 0-.32-1.26Zm.57.05a2.45 2.45 0 0 1-.71-.54 1.5 1.5 0 0 1-.41-1c.32.14.62.3.83.54.21.24.34.55.29 1Zm-.38 2.52c.11-.43.03-.76-.14-1.03a2.38 2.38 0 0 0-.75-.67c-.05.4.07.76.27 1.06.18.28.42.5.62.64Zm-.4.26c.15.28.2.61.06 1.04a2.5 2.5 0 0 1-.57-.7 1.53 1.53 0 0 1-.19-1.07c.3.21.54.45.7.73ZM42.3 33c.18-.4.16-.75.03-1.04-.13-.3-.36-.55-.63-.8-.12.39-.06.76.09 1.1.13.3.34.56.51.74Zm-.36.08c.1.3.12.64-.08 1.04a2.57 2.57 0 0 1-.48-.78 1.54 1.54 0 0 1-.03-1.1c.25.27.47.54.59.84Zm-.46 2.26c.2-.4.19-.74.08-1.04a2.5 2.5 0 0 0-.59-.84c-.14.38-.1.76.03 1.1.12.32.31.59.48.78Zm-.46.1c.09.31.06.65-.17 1.02-.15-.2-.31-.5-.4-.82-.1-.35-.1-.73.07-1.1.22.3.42.59.5.9Zm-1 2c.28-.33.34-.67.3-.99-.04-.32-.2-.64-.38-.96-.22.33-.26.71-.21 1.08.04.33.16.65.28.87Zm-.56 0c0 .33-.11.65-.44.93a2.7 2.7 0 0 1-.16-.9c0-.37.1-.74.36-1.03.14.34.25.68.24 1Zm-1.33 1.75c.34-.26.48-.56.5-.89a2.7 2.7 0 0 0-.17-1.02c-.29.27-.4.63-.43 1-.03.33.03.67.1.91Zm-1.06.72c.37-.22.53-.5.59-.83.06-.32.01-.67-.07-1.04-.3.24-.46.58-.53.94-.06.34-.04.68 0 .93Zm-1.08.82c.37-.22.53-.5.59-.83.06-.31.01-.67-.07-1.03-.3.23-.46.58-.53.93-.06.34-.04.68 0 .93Zm-1.09.77c.38-.2.56-.48.63-.8.08-.3.05-.66-.02-1.03-.32.22-.49.55-.57.9a3 3 0 0 0-.04.93Zm-.42-.21c-.1.3-.32.55-.72.7 0-.27.04-.6.16-.92.12-.34.33-.65.68-.82.01.38 0 .74-.12 1.04Zm.4.74c-.28-.09-.6-.06-.98.22.17.15.42.32.7.4.32.1.68.1 1.03-.1a1.9 1.9 0 0 0-.75-.52Zm1.14-.64c-.29-.05-.6.03-.94.36.19.12.46.25.75.3.32.05.68 0 1-.26-.26-.2-.53-.36-.81-.4Zm1.08-.83c-.3-.03-.6.06-.92.4.19.12.46.23.76.26.32.04.67-.03.99-.3a1.85 1.85 0 0 0-.83-.36Zm1.08-.83c-.3-.02-.6.07-.92.41.19.12.46.23.76.26.32.03.67-.03.99-.3a1.85 1.85 0 0 0-.83-.37Zm1.03-.84c-.29 0-.58.13-.87.51.2.1.49.18.79.17.32 0 .66-.11.95-.42a1.82 1.82 0 0 0-.87-.26Zm.04-.33c.26-.4.55-.55.83-.58.29-.03.59.06.89.2-.27.32-.6.46-.92.49-.3.03-.59-.03-.8-.1Zm1.76-1.67c-.28.07-.54.27-.75.7.22.05.52.06.8-.02.32-.08.63-.27.85-.63a1.8 1.8 0 0 0-.9-.05Zm.1-.31c.15-.47.38-.7.65-.81.26-.12.57-.12.9-.09-.17.4-.45.63-.75.76-.28.12-.57.15-.8.14Zm1.21-2.03c-.26.14-.47.4-.57.87.23-.01.51-.07.78-.22.29-.16.55-.42.67-.83-.32 0-.63.04-.88.18Zm.73-2.7c.03-.49.2-.78.44-.96.23-.17.53-.26.85-.31-.07.42-.3.72-.56.93-.24.18-.52.29-.73.34Zm.7-2.31c-.21.2-.37.5-.36.99.21-.07.48-.2.7-.4.25-.23.45-.55.49-.98a2 2 0 0 0-.83.39Zm-.23-.32c0-.49.15-.8.37-1 .21-.19.5-.3.82-.38a1.4 1.4 0 0 1-.48.97c-.23.21-.5.34-.7.4Zm.47-2.3c-.2.23-.3.55-.23 1.03a2 2 0 0 0 .64-.51c.22-.26.37-.6.34-1.04-.3.13-.57.29-.75.52Zm-1.4-6.4c-.07.29-.05.63.2 1.04.15-.19.3-.45.39-.76.09-.33.1-.71-.1-1.1-.22.26-.4.52-.48.81Zm-.65-1.2c-.03.31.05.64.36 1 .11-.2.23-.5.26-.81a1.5 1.5 0 0 0-.26-1.07c-.18.29-.32.58-.36.88Zm-1.16-1.17a1.26 1.26 0 0 1-.36-1c.04-.3.18-.59.36-.87.25.34.3.72.26 1.06-.03.32-.14.6-.26.81Zm.4.1c-.03.3.05.63.36.99.11-.2.23-.5.26-.81a1.5 1.5 0 0 0-.26-1.07c-.18.29-.32.58-.36.88Zm-1.12-1.2a1.23 1.23 0 0 1-.45-.94c0-.3.11-.61.26-.92.28.31.38.68.37 1.03 0 .32-.08.62-.18.84Zm-2.3-2.7c.04.3.2.6.58.86.06-.23.1-.54.07-.85-.05-.35-.19-.7-.5-.96-.12.32-.19.65-.15.95Zm.94.8c.02.3.15.62.52.9.07-.21.14-.52.12-.84-.02-.35-.13-.7-.43-1-.13.32-.23.63-.21.94Z" fill="#007216"/><path fill-rule="evenodd" d="M28 41a13.5 13.5 0 1 0 0-27 13.5 13.5 0 0 0 0 27Zm0-.57a12.93 12.93 0 1 0 0-25.86 12.93 12.93 0 0 0 0 25.86Z" fill="#C20E1E"/><path fill-rule="evenodd" d="M28 37c4.97 0 9-4.25 9-9.5S32.97 18 28 18s-9 4.25-9 9.5 4.03 9.5 9 9.5Zm0-.56c4.68 0 8.47-4 8.47-8.94 0-4.94-3.8-8.94-8.47-8.94-4.68 0-8.47 4-8.47 8.94 0 4.94 3.8 8.94 8.47 8.94Z" fill="#C20E1E"/><path d="m17.33 28.39.04.49.82-.07.04.48-2.3.17-.07-1a.82.82 0 0 1 .14-.56c.1-.15.28-.23.53-.25.27-.02.47.04.59.16.12.13.2.32.21.58Zm-.5-.19c-.05-.06-.14-.08-.26-.07-.12 0-.2.04-.25.11a.4.4 0 0 0-.06.27l.04.45.67-.05-.03-.45a.4.4 0 0 0-.1-.26Zm.64-2.94-1.4-.23.09-.48 1.4.23c.23.04.42.1.54.2.22.18.3.47.24.86-.06.4-.23.64-.5.74a1.2 1.2 0 0 1-.58.02l-1.4-.22.08-.49 1.4.23a.8.8 0 0 0 .35 0c.13-.04.22-.15.25-.34.03-.2-.01-.33-.13-.4a.8.8 0 0 0-.34-.12Zm2.03-2.87-.2.44-1.88.16 1.49.69-.2.4-2.08-.96.21-.46 1.84-.16-1.45-.67.18-.4 2.1.96Zm.53-1.8-1.22-1.04.31-.36 1.22 1.04c.15.13.24.25.28.38.08.21.01.43-.18.66-.2.22-.39.33-.57.3a1.17 1.17 0 0 1-.59-.3l-.04-.04.3-.34.04.04a1 1 0 0 0 .32.2c.08.02.16-.02.23-.1.08-.09.1-.17.06-.25a.6.6 0 0 0-.16-.18Zm2.3-1.73-.7.48.13.48-.4.29-.65-2.36.45-.3 1.98 1.42-.43.3-.39-.31Zm-.34-.25-.76-.58.28.91.48-.33Zm2.77-.47-.97.4-.88-2.13 1.04-.43c.26-.1.48-.1.64 0 .1.06.18.16.24.29.05.12.06.24.03.35a.56.56 0 0 1-.11.19c.12 0 .23.02.32.08.1.06.16.16.21.28a.67.67 0 0 1-.23.81c-.09.06-.18.11-.3.16Zm-.4-.93-.53.21.23.57.53-.21a.69.69 0 0 0 .2-.13c.07-.09.08-.2.03-.33a.26.26 0 0 0-.23-.17.6.6 0 0 0-.23.06Zm.05-.5c.05-.06.05-.13.01-.22-.04-.1-.1-.15-.2-.15a.89.89 0 0 0-.26.07l-.47.2.2.46.52-.21a.46.46 0 0 0 .2-.15Zm3.88.94c-.33 0-.58-.1-.75-.27a1.22 1.22 0 0 1-.34-.95c0-.42.12-.74.36-.95.17-.18.42-.26.75-.26s.58.1.75.28c.23.21.35.53.34.95 0 .41-.12.73-.35.94-.18.18-.43.27-.76.26Zm.46-.6a.94.94 0 0 0 .17-.6.94.94 0 0 0-.16-.6.55.55 0 0 0-.45-.22.56.56 0 0 0-.46.2.93.93 0 0 0-.18.6c0 .26.06.46.17.6.11.14.26.21.45.22.2 0 .35-.07.46-.2Zm1.89-1.5.47.1-.51 2.24-.47-.1.51-2.25Zm1.78.48.44.2-.8 1.7 1.04.49-.18.37-1.47-.68.97-2.08Zm2.17 3.93-.33-.3 1.58-1.68.5.48-.93 1.6 1.54-1.03.5.47-1.57 1.68-.33-.3 1.07-1.14a15.31 15.31 0 0 1 .26-.27l-1.64 1.1-.34-.31 1-1.7a14.2 14.2 0 0 0-.25.27l-1.06 1.13Zm3.66.68.26.4-1.92 1.26-.27-.4 1.93-1.26Zm.92 1.53.19.44-1.75.72.44 1.05-.38.16-.62-1.5 2.12-.87Zm.95 2.74.07.48-1.86.3.18 1.12-.4.07-.27-1.6 2.28-.37Zm-1.74 3.6c-.01.1 0 .2.01.27.04.14.12.21.25.22a.2.2 0 0 0 .19-.09c.04-.06.09-.16.13-.3l.07-.24c.07-.23.15-.4.22-.48.11-.15.28-.21.51-.2.2.02.37.1.5.27.12.16.17.38.15.67a1 1 0 0 1-.24.6.69.69 0 0 1-.58.23l.04-.46c.14 0 .24-.05.3-.16a.6.6 0 0 0 .08-.27c.01-.12 0-.22-.05-.3a.24.24 0 0 0-.2-.13.2.2 0 0 0-.2.1c-.02.04-.06.14-.1.29l-.13.39a.9.9 0 0 1-.2.37.56.56 0 0 1-.48.17.66.66 0 0 1-.5-.28 1 1 0 0 1-.16-.69c.02-.3.1-.53.25-.69a.68.68 0 0 1 .59-.21l-.04.45a.49.49 0 0 0-.24.07c-.1.07-.16.2-.17.4ZM21.79 35.3l.39.27-1.08 1.5.92.65-.24.32-1.31-.91 1.32-1.83Zm1.84 1.18.43.2-.95 2.04-.43-.2.95-2.04Zm.99 2.82-.44-.1.51-2.18.68.15v1.8l.8-1.62.67.15-.5 2.19-.44-.1.34-1.48a13.86 13.86 0 0 1 .09-.35l-.85 1.74-.45-.1.01-1.93a16.03 16.03 0 0 0-.08.35l-.34 1.48Zm2.9-1.77h.47l-.05 2.25-.47-.01.05-2.24Zm2.95-.2.05.39-.68.08.25 1.83-.48.06-.24-1.83-.68.1-.05-.4 1.83-.24Zm2.38.47-1.03.4.22.54 1.17-.46.15.37-1.6.63-.85-2.08 1.56-.61.15.37-1.12.44.17.44 1.03-.4.15.36Zm2.3-.21-.8.56-1.32-1.83.8-.56c.12-.08.22-.13.32-.16a.77.77 0 0 1 .48 0c.13.05.25.12.35.21.1.1.18.18.25.28.18.24.27.48.3.72a.8.8 0 0 1-.38.78Zm-.7-1.57c-.13-.05-.28-.02-.46.1l-.36.25.86 1.2.36-.25c.19-.13.25-.3.2-.54a1.45 1.45 0 0 0-.6-.76Z" fill="#C20E1E"/><path d="M26.53 27.46c.02.02.06.06-.03.21.53.34.52.19.52.02l.01-.15c-.1-.05-.05-.1-.03-.12.03-.02.03-.02-.27.02l-.18.02h-.02Zm-1.99-6.26a.4.4 0 0 1 .15-.04c.06 0 .14 0 .24-.04l.05.24c.17.8.45 2.17.8 2.64a.78.78 0 0 0 .45-.19c.15-.12.26-.2.94.05.63.24.87.24 1.59.21.68-.02.88-.12 1.3-.33l.09-.04c.55-.27.78-.2 1.14-.1l.48.1a8 8 0 0 0-.15-2.08 5.17 5.17 0 0 1-.1-1.62c.68.04.72.85.75 1.7.02.45.04.92.16 1.27l1-.1c.43.72.46 1.17-.21 1.66-.42.03-.66-.1-.84-.2-.24-.13-.4-.23-.79.07-.43.05-.52-.03-.6-.1-.09-.09-.16-.16-.77.05-.9.3-1.92.57-2.97.28l-.31-.11c-.36-.14-.62-.24-.99.24-.38.02-.46-.04-.58-.12-.1-.07-.2-.15-.48-.22.08.6.1 1.22.1 1.83.01.58.02 1.16.1 1.73.5-.06.73-.35.95-.61.26-.32.5-.63 1.2-.49.25.42.26.9.13 1.48-.23.05-.5.01-.76-.02-.5-.06-.95-.12-1.05.36-.8 0-.85-.06-.92-.15-.05-.07-.11-.16-.58-.26l-.36 1.23-.4.28c-.6.44-1.34 1-2.3.5.07-.22.36-.31.73-.43.49-.15 1.1-.35 1.5-.91.6-.82.02-.88-.03-.88l.08-.65c.17 0 .34.05.49.09.5.15.85.25.65-1.62l-.27-.87c-.33.12-.45.19-.55.38-.57.13-1.12.19-1.64-.03l-.12-.31c-.11-.3-.19-.48-.11-1.12.06-.58.27-.88.66-1.12.07.14.03.36-.02.62-.07.34-.15.76 0 1.21.48.17.6.13.89.05l.33-.09c.84-.48.74-.8.63-1.16-.08-.25-.16-.52.06-.89.38.17.34.32.3.47-.04.14-.08.3.25.47.2-.28.15-.43.06-.69a3.3 3.3 0 0 1-.12-.38l-.11-.45c-.14-.56-.18-.73-.12-.79Zm9.4 10.11c-1.48.72-2.82.22-2.5-1.57v-.14c-.01-1.05-.04-3.12-.39-3.84-.44.01-.7.18-.96.35a9 9 0 0 1-.12.08c-.06-.1-.13-.27-.2-.41a8.63 8.63 0 0 0-.07-.19c-.24.01-.41.07-.55.11-.24.08-.35.12-.53-.23.18-.36.77-.42 1.16-.46h.05l.4.54.34-.12.16-.06c.1-.03.2-.03.54-.04h.05l.1.13c.11.17.3.44.36.49-.05.55.04 1.22.12 1.85.04.3.08.58.1.85.03.35.03.63.02.86-.01.57-.02.91.5 1.46l.25.03c.37.05.52.07.88-.15-.16-.36-.2-.36-.42-.37-.1 0-.25 0-.47-.04-.28-.84.88-1.86 1.68-1.87.45 0 .46.02.5.11.03.07.07.18.3.34.33-.17.26-.24.21-.29-.05-.05-.07-.08.53-.17l.02.8c-.94.62-1.01.5-1.16.27-.05-.08-.1-.17-.2-.24-.5-.4-.91.01-1.09.5.42.35.77.35 1.1.35.2 0 .38 0 .58.07l.38.26c-.2.31-.24.32-.42.34-.18.01-.5.04-1.25.4Zm-6-4.05c.01.4.06.8.1 1.17.12 1.21.22 2.23-.49 2.5-.27.33-1.22.8-1.96.79-.46 0-.84-.19-.94-.68-.15-.47-.05-.94.04-1.4l.08-.53c-.63.17-.92.6-.97 1.6-.04.9.21 1.28.87 1.57 1.16.52 2.07-.1 2.8-.58.25-.16.47-.31.68-.4.2-.19.51-.2.76-.2.09 0 .16 0 .22-.02.85-.13 1.19-1.43.43-1.86a.74.74 0 0 0-.06.68c.06.2.1.35-.34.53-.73-.01-.75-1.69-.76-2.6l-.01-.43-.03-.47c-.05-1-.08-1.44-.61-1.6-.05.39 0 .7.07 1.05.05.25.1.53.12.88Zm.61 6.35c-.47.1-.96.2-1.44.25-1.16.13-2.7.13-3.71-.44-.77-.42-1.84-1.16-1.42-2.25.26.06.31.17.4.3.05.11.12.23.28.37-.01.97 2.24 1.43 3.38 1.42 1.21 0 1.97-.19 2.85-.4.4-.1.83-.2 1.33-.3l1.48-.36c-.07.3-.16.46-.25.61-.1.2-.2.37-.26.86-.21-.26-.21-.29-.2-.35 0-.05 0-.12-.07-.32l-.1.01c-.4.04-.49.05-.81.36-.47.04-.96.14-1.46.24Zm1.84-2.22c.03 0 .12-.02.37 0 .05-.97 0-1.99-.06-3a66.4 66.4 0 0 1-.07-1.36c-.06-.53-.07-.53-.2-.54-.05 0-.1 0-.2-.03-.18.25-.1.85-.01 1.4.04.29.08.56.08.78v.8c0 .6 0 1.15.06 1.78.08.12.04.16.03.17Zm2.3-4.92a13 13 0 0 0 .03-.1c.41-.05.68-.28.94-.52.29-.26.57-.52 1.05-.54-.05.58-.39.79-.74 1-.24.15-.48.3-.66.56l-.73.2c0-.3.03-.4.1-.6Zm-7.08 3.85c.66-.05 1.46-.39 1.44-1.05a1.2 1.2 0 0 0-.83.2l-.03.01-.16.08c-.36.2-.39.2-.42.76Zm8.26 1.9.03-.5c.28-.04.45-.09.62-.14l.28-.07c.36-.08.48.08.44.47l-1.37.24Zm.93-4.93c-.07-.41-.99-.5-.9.1.09.54.99.41.9-.1Zm-2.19 5.26c-.01-.1-.03-.22.46-.1.3.07.3.1.28.16 0 .04-.02.09.02.17a.37.37 0 0 0-.03.1c-.02.13-.05.27-.4.22-.22-.03-.29-.04-.31-.08-.02-.02-.01-.05-.01-.1s0-.14-.02-.27c.02-.03.02-.06.01-.1Zm-5.63 2.47c.3-.04.3-.07.3-.22l.04-.22c-.05-.05-.04-.09-.02-.12.03-.07.04-.1-.44-.1-.34.02-.34.02-.3.05.02.03.08.08-.03.17l.02.16c.01.18.02.33.43.28Zm2.77-12.87-.11.14-.49.04-.06-.82.27.03c.16.02.25.03.3.08.04.05.05.15.07.35l.02.18Zm-.72 5.28.04.74c.58-.04.65-.4.48-.9l-.16.02c.12-.03.1-.04.06-.03a6 6 0 0 1-.12.05c-.01 0-.28.1-.3.12Zm-6-1c-.16-.38-.27-.42-.69-.33-.26.73.3.9.69.33Zm3.87-4.33-.6-.14-.04.78.18-.04c.16-.04.23-.05.28-.1.05-.05.08-.13.12-.29l.06-.2Zm7.67 10.44s.06.03.38-.01l-.04.46c-.33.02-.4.03-.41.02 0-.01.16-.08 0-.23.14-.2.07-.24.07-.24Z" fill="#007216"/></svg>