<!-- by TradingView --><svg width="56" height="56" viewBox="0 0 56 56" xmlns="http://www.w3.org/2000/svg"><path fill="#F0F3FA" d="M0 0h56v56H0z"/><path d="M49.25 33.19a.58.58 0 0 0-.2-.2l-4.5-3.04a.05.05 0 0 0-.05 0 .05.05 0 0 0-.02.06l.09.25v.02a.04.04 0 0 1-.04.03l-.02-.01-6.63-4.79a.12.12 0 0 0-.16.02l-.89.83a.21.21 0 0 1-.27.02l-3.52-2.68a.18.18 0 0 0-.16-.03.18.18 0 0 0-.12.12c-.08.22.1.33.25.44l2.4 1.85c1.3 1 2.49 2.15 3.7 3.26a.04.04 0 0 1 0 .06.04.04 0 0 1-.05 0 .6.6 0 0 0-.32-.06c-.14-.1-.56-.37-.8-.23-.03.03-.04.06-.02.1a76.96 76.96 0 0 0 1.22 2.22h-.02l-3-2.43a.2.2 0 0 0-.14-.04c-.17.02-.23.11-.18.28a26.99 26.99 0 0 1 .23 1.06l-4.4-6.17a2.6 2.6 0 0 0-.37-.38.12.12 0 0 0-.14.06c-.13.24.05.7.15.94v.03l-.01.02a.03.03 0 0 1-.05-.01l-2.78-3.2-.3-.3a.13.13 0 0 0-.09-.04c-.33 0-.68.38-.9.55a.07.07 0 0 0-.02.04v.04l.43 1.18a.03.03 0 0 1-.02.03.03.03 0 0 1-.04 0 74.99 74.99 0 0 0-1.92-1.52l-.04.01a.07.07 0 0 0-.02.07l.22 1.08c-.35-.37-2.74-3.02-2.92-3.03a.1.1 0 0 0-.08.03.1.1 0 0 0-.02.09l.39 1.53a.02.02 0 0 1-.01.03.02.02 0 0 1-.03 0 98.5 98.5 0 0 0-1.63-1.82c-.13-.14-.33-.1-.48 0l-2.05 1.55a.05.05 0 0 1-.07 0l-1.18-1c-.03-.02-.05-.02-.08 0a992.22 992.22 0 0 0-3.77 4c-.63.65-1.1 1.52-1.6 2.29-.07.11-.09.34.01.42a.1.1 0 0 0 .07.03.1.1 0 0 0 .06-.04l2.97-3.5a.02.02 0 0 1 .02-.01h.01v.02c.04.15-2.12 3.28-2.38 3.68-.05.07-.06.23.02.27a.22.22 0 0 0 .27-.07 21 21 0 0 1 1.08-1.17l-2.81 3.8c-.05.05-.06.05-.06-.02l.17-1.53-.01-.09a.14.14 0 0 0-.07-.06.14.14 0 0 0-.15.03L5.43 33.9a.1.1 0 0 1-.08.02l-.31-.02c-.04 0-.05-.02-.02-.06L17.4 19.07c.06-.07.12-.08.18 0 .35.4.73.8 1.11 1.19.22.23.3.34.6.09l2.66-2.26c.14-.12.27-.12.4-.01l3.89 2.97c.12.1.24.16.35.2.03 0 .06 0 .1-.02.44-.26 1.13-.78 1.38-.54l2.53 2.46c.14.14.28.15.44.04.3-.22.63-.41.95-.61.18-.12.2-.06.35.05 1.35 1.05 2.7 2.1 4.03 3.17.21.16.4.11.59-.07a33.42 33.42 0 0 0 1.08-1.07l.06.01a814.17 814.17 0 0 0 12.9 9.2.1.1 0 0 1-.02.1.09.09 0 0 1-.05.02.69.69 0 0 1-.5-.13 8.34 8.34 0 0 0-1.17-.67Z" fill="#ED2427"/><path d="M28.44 21.58c-.19.1-.33.19-.22.43l2.29 5.28c.01.04 0 .05-.03.01a6533.1 6533.1 0 0 1-4.7-4.56.22.22 0 0 0-.04-.01l-.22-1.08v-.03l.02-.04a.07.07 0 0 1 .08 0l.05.03a74.99 74.99 0 0 1 1.87 1.48.03.03 0 0 0 .02-.03l-.43-1.18v-.04l.02-.04c.22-.17.57-.55.9-.55.04 0 .07.01.09.04l.3.3Zm20.81 11.61c-3-1.37-5.97-2.8-8.9-4.3-.1-.04-.16-.02-.2.07a.11.11 0 0 0 .01.1l1.38 2.42c.03.06.02.06-.03.02l-2.77-2.16a.6.6 0 0 1 .32.07.04.04 0 0 0 .05-.01.04.04 0 0 0 0-.06c-1.21-1.11-2.4-2.25-3.7-3.26L33 24.23c-.15-.11-.33-.22-.25-.44a.19.19 0 0 1 .12-.12.18.18 0 0 1 .16.03l3.52 2.68a.2.2 0 0 0 .27-.02l.9-.83a.12.12 0 0 1 .15-.02l6.63 4.79a.03.03 0 0 0 .05 0 .04.04 0 0 0 0-.04l-.08-.25a.05.05 0 0 1 .02-.05.05.05 0 0 1 .05 0l4.5 3.02c.09.06.15.13.2.2Z" fill="#262262"/></svg>