<!-- by TradingView --><svg width="18" height="18" viewBox="0 0 18 18" xmlns="http://www.w3.org/2000/svg"><path fill="#F0F3FA" d="M0 0h18v18H0z"/><path d="M15.47 10.75a.18.18 0 0 0-.06-.07l-1.37-.94a.01.01 0 0 0-.02 0 .02.02 0 0 0 0 .01l.02.08v.01a.01.01 0 0 1-.01 0L12 8.34a.04.04 0 0 0-.05.01l-.27.26a.06.06 0 0 1-.08 0l-1.08-.83a.05.05 0 0 0-.04 0h-.03l-.01.03c-.02.07.03.1.08.14l.72.58c.4.31.76.67 1.13 1.01a.01.01 0 0 1 0 .02h-.02a.18.18 0 0 0-.1-.01c-.03-.04-.16-.12-.23-.08a23.97 23.97 0 0 0 .36.72l-.91-.75-.02-.01h-.03c-.05 0-.07.03-.05.08a8.48 8.48 0 0 1 .07.33A812.62 812.62 0 0 1 10 7.81V7.8a.04.04 0 0 0-.04 0v.02c-.05.07 0 .22.04.29v.01a.01.01 0 0 1-.02 0l-.84-1-.1-.1h-.02c-.1 0-.21.12-.28.17v.02l.12.37v.01a.01.01 0 0 1-.01 0 22.93 22.93 0 0 0-.6-.47v.02l.06.34c-.1-.12-.83-.95-.89-.95l-.02.01a.03.03 0 0 0 0 .03l.11.48L7 6.5c-.05-.05-.1-.04-.15 0a129.13 129.13 0 0 0-.65.48l-.36-.31h-.02L4.68 7.91c-.19.2-.33.48-.48.71-.03.04-.03.11 0 .14a.03.03 0 0 0 .02 0h.02l.9-1.1h.01c.01.05-.65 1.03-.72 1.15-.02.02-.02.07 0 .09h.05l.03-.02a6.5 6.5 0 0 1 .33-.37L4 9.7c-.02.01-.02.01-.02-.01l.05-.48V9.2L4 9.17a.04.04 0 0 0-.05 0l-1.82 1.8h-.12v-.02l3.77-4.62c.01-.02.03-.02.05 0l.34.38c.07.07.09.1.18.02l.81-.7c.04-.04.08-.04.12 0a167.73 167.73 0 0 0 1.3.98h.02c.14-.08.35-.24.42-.17l.77.77c.05.04.1.05.14.01l.29-.19c.05-.04.06-.02.1.02l1.23.99c.07.05.12.03.18-.02a10.34 10.34 0 0 0 .35-.33A248.43 248.43 0 0 0 16 10.98v.01h-.02a.2.2 0 0 1-.15-.03 2.52 2.52 0 0 0-.36-.21Z" fill="#ED2427"/><path d="M9.14 7.12c-.06.03-.1.06-.07.13a323.1 323.1 0 0 1 .69 1.66A2064.99 2064.99 0 0 1 8.3 7.48l-.06-.34v-.02h.04a22.96 22.96 0 0 1 .57.46l-.13-.37V7.2l.01-.01c.07-.05.17-.18.28-.17h.02l.1.1Zm6.33 3.63a67.6 67.6 0 0 1-2.71-1.35c-.03 0-.05 0-.06.03v.03l.42.75v.01l-.85-.67c.03 0 .07 0 .1.02h.01v-.02c-.37-.35-.73-.71-1.13-1.02l-.72-.58c-.05-.04-.1-.07-.08-.14a.06.06 0 0 1 .04-.04.05.05 0 0 1 .04.01l1.08.84a.06.06 0 0 0 .08 0l.27-.27H12l2.02 1.5a.01.01 0 0 0 .01-.02l-.02-.08v-.01h.02l1.37.94.06.07Z" fill="#262262"/></svg>