<!-- by TradingView --><svg width="18" height="18" viewBox="0 0 18 18" xmlns="http://www.w3.org/2000/svg"><path fill="#F0F3FA" d="M0 0h18v18H0z"/><path d="M13.34 9.46c0-1.05-.37-2-.99-2.75l.18-.14A4.56 4.56 0 0 1 9 14a4.56 4.56 0 0 1-3.53-7.43l.18.14A4.33 4.33 0 0 0 9 13.77c2.4 0 4.34-1.93 4.34-4.31Z" fill="#008436"/><path d="M4.78 8.24c-.49.18-.78.39-.78.62C4 9.49 6.32 10 9 10s5-.5 5-1.14c0-.23-.3-.44-.79-.62a6.04 6.04 0 0 0-.04-.24c1.13.32 1.83.76 1.83 1.25 0 .97-2.69 1.75-6 1.75s-6-.78-6-1.75c0-.49.7-.93 1.83-1.25l-.05.24Zm7.38 4.35a5.63 5.63 0 0 0-6.32 0c.28.3.6.57.96.79a4.52 4.52 0 0 1 4.4 0c.35-.22.68-.48.96-.8Z" fill="#008436"/><path d="M9.05 9C7.17 9 5.52 8.2 4.9 7.81l.1-.15c.6.37 2.2 1.16 4.05 1.16 1.84 0 3.5-.67 4.06-.98l.09.15A9.56 9.56 0 0 1 9.05 9Zm-.09 1.41c-1.84 0-3.26.83-3.73 1.24l-.11-.14a6.28 6.28 0 0 1 7.72.09l-.12.14a6 6 0 0 0-3.76-1.33ZM9 13.19c-.82 0-1.4.33-1.56.49l-.13-.13c.19-.2.83-.55 1.69-.55s1.36.35 1.54.55l-.13.13c-.15-.16-.6-.5-1.41-.5Z" fill="#008436"/><path d="M6.9 7.78c-.2.2-.73.94-.73 2.14 0 1.2 1.17 2.69 1.69 3.37l-.13.12C7.06 12.53 6 11.17 6 9.92c0-1.24.55-2.03.78-2.27l.12.13Zm4.46.06c.17.38.47 1.12.47 1.9 0 1.79-1.46 3.23-1.69 3.54l.13.13c.25-.35 1.73-1.83 1.73-3.68a5 5 0 0 0-.5-1.97l-.14.08Z" fill="#008436"/><path d="M7.3 9.52c.06-.93.33-2 .55-2.52l.15.08a9.4 9.4 0 0 0-.53 2.45 6.3 6.3 0 0 0 .98 3.57l-.14.11a6.3 6.3 0 0 1-1.01-3.7Zm2.8 1.38c.13-.82.14-1.57.11-2.1h.2c.03.53.02 1.3-.12 2.14-.13.83-.4 1.77-.88 2.26l-.14-.16c.43-.43.69-1.31.82-2.14Z" fill="#008436"/><path d="M8 10.28 5.04 4.94a.28.28 0 0 1 .13-.39l1.23-.52c.2-.09.42.03.48.24l.57 2.26a.3.3 0 0 1-.15.33l-.4.22a.26.26 0 0 0-.11.34l1.35 2.86H8ZM5.87 5.25l.57 1.14c.04.1.14.15.23.1l.07-.03c.09-.04.13-.15.1-.26L6.44 5c-.03-.13-.14-.2-.24-.15l-.22.1c-.1.05-.14.18-.1.3Zm2.75 5.13-.76-6.82c-.03-.3.19-.56.47-.56h1.34c.3 0 .52.28.47.59l-.42 2.53a.5.5 0 0 1-.5.44h-.35a.25.25 0 0 0-.24.26l.13 3.56h-.14Zm.1-6.24.06 1.32c.01.13.1.22.18.22h.08c.08-.01.15-.1.16-.22l.09-1.32c0-.13-.08-.25-.18-.25H8.9c-.1 0-.18.12-.18.25Zm2.44.06-1.59 6.1.1.1 1.06-3.16c.04-.13.18-.2.31-.16l.44.13a.3.3 0 0 0 .34-.14l1.13-2.04a.36.36 0 0 0-.18-.5l-1.25-.5a.27.27 0 0 0-.36.19Zm-.04 2.04.32-1c.04-.1.18-.15.3-.1l.27.09c.12.04.17.16.1.25l-.5.94c-.05.08-.16.12-.27.08l-.09-.02c-.11-.04-.17-.14-.13-.24Z" fill="#008436"/></svg>