<!-- by TradingView --><svg width="56" height="56" viewBox="0 0 56 56" xmlns="http://www.w3.org/2000/svg"><path fill="#F0F3FA" d="M0 0h56v56H0z"/><path fill-rule="evenodd" d="M19.85 29.71v-1.15c.52.93 1.46.66 1.46.1 0-.24-.29-.53-.6-.85-.4-.41-.86-.87-.86-1.35 0-.87.8-1.46 1.59-1.46.62 0 .87.25.91.38v.91a1.05 1.05 0 0 0-.69-.48c-.2 0-.6.1-.6.52 0 .32.32.59.67.89.43.36.9.77.9 1.34 0 1.06-1.02 1.44-1.73 1.44-.56 0-.93-.2-1.05-.29ZM42.6 25h1.45l1.22 3.58L46.53 25H48l-2.12 4.73V30h-1.14v-.27L42.6 25ZM4.2 30l.27-.39v-4.14L4 25h2.45C7.3 25 8 25.7 8 26.56 8 27.42 7.3 28 6.45 28h-.7v1.61l.4.39H4.18Zm1.66-4.26h-.09v1.6h.09a.8.8 0 1 0 0-1.6ZM38.72 30l.28-.39v-4.14l-.47-.47h2.37c.83 0 1.5.7 1.5 1.56 0 .86-.67 1.44-1.5 1.44H40v1.61l.46.39h-1.74Zm1.7-4.26H40v1.6h.42c.68 0 .94-.35.94-.8 0-.44-.26-.8-.94-.8ZM8.55 30H7.11l2.13-4.73V25h1.15v.27L12.5 30h-1.47l-.36-1H8.9l-.34 1Zm1.22-3.58.56 1.58h-1.1l.54-1.58ZM25.87 30h1.44l.35-1h1.79l.35 1h1.47l-2.12-4.73V25h-1.14v.27L25.87 30Zm3.22-2-.55-1.58L28 28h1.1ZM14 27l1.5-1.67V25h1.69l-.46.33-1.8 2.05 1.8 2.22.46.4H15.5v-.3L14 27.95v1.65l.4.41h-1.64l.24-.4v-4.02l-.24-.58h1.64l-.4.58V27Zm3.74 3 .26-.43v-4.3l-.26-.27h1.52l-.26.28v4.3l.26.42h-1.52Zm5.08-5-.35 1.23.46-.23H24v3.45l-.35.55h1.72l-.37-.55V26h1.09s.2.14.3.23l.3-1.23h-3.87Zm9.18.88-.67-.88H33v.51l2 2.43v-2.43l-.25-.51h1.4l-.15.51v3.97l.16.52H35v-.44l-2-2.25v2.17l.3.52h-1.52l.22-.52v-3.6Zm20 .5v-.96c-.4-.26-.9-.42-1.43-.42A2.54 2.54 0 0 0 48 27.5c0 1.38 1.15 2.5 2.57 2.5.53 0 1.02-.16 1.43-.42v-1.01h-.45A1.5 1.5 0 0 1 49 27.5a1.5 1.5 0 0 1 2.5-1.13h.5Z" fill="#363B1D"/></svg>