<!-- by TradingView --><svg width="18" height="18" viewBox="0 0 18 18" fill="none" xmlns="http://www.w3.org/2000/svg">
<rect width="18" height="18" fill="#F0F3FA"/>
<path fill-rule="evenodd" clip-rule="evenodd" d="M8.05135 9.97927C8.03797 9.97032 8.02856 9.95757 8.02474 9.9432C7.59296 8.50768 5.9574 7.35375 4.26992 7.91334C3.17681 8.27522 2.67944 9.49385 3.21917 10.4009C3.65778 11.1379 4.71126 11.4255 5.60487 11.4219C5.61907 11.422 5.63299 11.4253 5.64527 11.4316C5.65756 11.4378 5.66778 11.4467 5.67494 11.4575C5.68211 11.4682 5.68596 11.4804 5.68613 11.4929C5.68631 11.5053 5.68279 11.5176 5.67593 11.5285C5.34526 12.0454 4.87568 12.4276 4.26718 12.6752C4.26094 12.6783 4.25607 12.6832 4.25339 12.689C4.25072 12.6948 4.25038 12.7013 4.25246 12.7073C4.25453 12.7133 4.25888 12.7185 4.26479 12.722C4.27069 12.7256 4.27781 12.7273 4.28495 12.7268C5.09385 12.6149 5.68458 12.2471 6.05715 11.6232C6.18829 11.4044 6.57418 11.2768 6.95087 11.1522C7.1786 11.0769 7.40296 11.0028 7.56564 10.9102C7.57677 10.9037 7.58986 10.9003 7.60322 10.9004C7.61659 10.9006 7.62962 10.9043 7.64064 10.9112C7.65166 10.918 7.66017 10.9276 7.66506 10.9387C7.66996 10.9499 7.67102 10.9621 7.66811 10.9737C7.46225 11.7678 6.99768 12.4192 6.2744 12.9281C6.26591 12.9344 6.2602 12.9432 6.25833 12.9529C6.25646 12.9626 6.25855 12.9726 6.26422 12.9809C6.26989 12.9893 6.27875 12.9954 6.28917 12.9983C6.29958 13.0011 6.31084 13.0004 6.32086 12.9964C7.383 12.5986 7.96872 11.9004 8.07803 10.9018C8.1102 10.6129 8.23871 10.4054 8.37878 10.1791C8.41125 10.1267 8.44435 10.0732 8.47701 10.0175C8.48367 10.0057 8.49409 9.99579 8.50702 9.98905C8.51994 9.9823 8.53481 9.97899 8.54984 9.97949C8.56487 9.98 8.5794 9.98431 8.5917 9.9919C8.60399 9.9995 8.61351 10.0101 8.61912 10.0223L9.76142 12.4032C9.87528 12.6405 9.92356 12.6309 9.90625 12.3745L9.78328 10.528C9.78298 10.5209 9.78503 10.5138 9.78916 10.5077C9.7933 10.5016 9.79934 10.4966 9.80652 10.4936C9.81369 10.4905 9.82168 10.4894 9.82947 10.4904C9.83725 10.4914 9.84448 10.4944 9.85023 10.4992C10.3849 10.9234 11.0085 11.1982 11.7208 11.3236C11.7737 11.333 11.8219 11.3568 11.8587 11.3916C11.8954 11.4264 11.9189 11.4705 11.9258 11.5177L12.1075 12.7699C12.1095 12.785 12.1177 12.7987 12.1306 12.8087C12.1434 12.8187 12.1601 12.8242 12.1774 12.8242C12.1947 12.8242 12.2116 12.8187 12.2248 12.8087C12.2381 12.7987 12.2469 12.785 12.2496 12.7699L12.4423 11.4902C12.4477 11.4574 12.4691 11.4386 12.5065 11.4338C12.5449 11.429 12.583 11.4242 12.6209 11.4194C13.483 11.3108 14.2042 11.22 14.6872 10.5244C14.9724 10.1138 15.0625 9.65762 14.9578 9.15594C14.6708 7.78633 13.0052 7.48796 11.7454 8.03197C11.7356 8.0362 11.7248 8.03849 11.7138 8.03868C11.7029 8.03887 11.692 8.03696 11.682 8.03308C11.672 8.02919 11.663 8.02344 11.6558 8.01621C11.6486 8.00898 11.6433 8.00045 11.6402 7.99123L10.681 5.0423C10.679 5.03575 10.6747 5.02994 10.6686 5.02575C10.6625 5.02156 10.6551 5.01922 10.6473 5.01909C10.6396 5.01895 10.6321 5.02103 10.6258 5.025C10.6195 5.02897 10.6149 5.03462 10.6127 5.0411L10.2752 5.95418C10.2628 5.98772 10.2623 6.02329 10.2738 6.05603L11.0376 8.29799C11.0513 8.33793 11.0426 8.37428 11.0117 8.40703L10.2738 9.19069C10.2401 9.22664 10.2192 9.22185 10.211 9.17631C9.90663 7.43062 9.24538 5.83531 8.57256 4.21209C8.54756 4.15175 8.52253 4.09138 8.49751 4.03096C8.49367 4.02207 8.4869 4.01438 8.47806 4.00887C8.46922 4.00335 8.45871 4.00027 8.44787 4.00002C8.43703 3.99976 8.42635 4.00234 8.41718 4.00742C8.40801 4.01251 8.40078 4.01987 8.3964 4.02857L8.03977 4.76909C8.02337 4.80344 8.02337 4.83779 8.03977 4.87215C8.79584 6.46344 9.38976 8.09987 9.82154 9.78144C9.83338 9.82617 9.81288 9.84934 9.76005 9.85094C9.74775 9.85094 9.65757 9.76466 9.65074 9.74429C9.52139 9.38801 9.31734 9.06847 9.0386 8.78568C8.98212 8.72816 8.96071 8.73695 8.97438 8.81204C9.08642 9.42395 9.26132 10.1904 9.49907 11.1115C9.50818 11.1443 9.49178 11.163 9.44988 11.1678C9.4098 11.1734 9.38202 11.1594 9.36653 11.1259C9.29507 10.9699 9.22101 10.753 9.14036 10.5168C8.95268 9.96709 8.72927 9.31272 8.41963 9.07806C8.38137 9.0493 8.35768 9.05689 8.34857 9.10082L8.16685 9.93841C8.16429 9.95299 8.15603 9.96634 8.14348 9.97616C8.13092 9.98599 8.11486 9.99167 8.09805 9.99224C8.08124 9.9928 8.06472 9.98822 8.05135 9.97927ZM5.58414 8.61185C5.58064 8.65212 5.59383 8.69214 5.62127 8.72457C6.1487 9.36205 6.29535 10.0906 6.06125 10.9102C5.92871 11.3787 4.88069 11.0492 4.60878 10.8946C3.00328 9.98754 4.0308 7.83066 5.86449 8.22249C7.05324 8.47653 7.76376 9.29135 7.72824 10.4129C7.72734 10.4328 7.72136 10.4522 7.71072 10.4699C7.70008 10.4875 7.68505 10.5028 7.66675 10.5148C7.30784 10.7496 6.90932 10.9098 6.47116 10.9953C6.40922 11.0073 6.38417 10.9861 6.39601 10.9318C6.52855 10.3195 6.53675 8.9091 5.89045 8.49091C5.85375 8.46651 5.80825 8.45454 5.7623 8.45719C5.71635 8.45985 5.67303 8.47695 5.64031 8.50536C5.60758 8.53377 5.58763 8.57158 5.58414 8.61185ZM12.4231 11.0588L11.8165 8.39624C11.8096 8.3651 11.8172 8.33287 11.8374 8.30659C11.8576 8.28031 11.8889 8.26214 11.9244 8.25605L12.2387 8.20093C12.6718 8.12493 13.1219 8.20394 13.4899 8.42057C13.8578 8.6372 14.1136 8.9737 14.2008 9.35605L14.2035 9.37043C14.2906 9.75281 14.2021 10.1497 13.9574 10.4737C13.7127 10.7978 13.3318 11.0224 12.8986 11.0983L12.5844 11.1535C12.5667 11.1566 12.5485 11.1566 12.5308 11.1536C12.5131 11.1505 12.4963 11.1444 12.4813 11.1356C12.4663 11.1268 12.4534 11.1155 12.4434 11.1023C12.4335 11.0891 12.4266 11.0743 12.4231 11.0588ZM11.6416 11.024C11.1469 10.8707 10.6892 10.6602 10.2683 10.3926C10.1645 10.3262 10.1294 10.2392 10.1631 10.1313C10.3298 9.59451 10.635 9.12878 11.0786 8.73415C11.0863 8.72724 11.096 8.72227 11.1066 8.71974C11.1172 8.71722 11.1284 8.71725 11.139 8.71982C11.1496 8.72239 11.1593 8.72741 11.1669 8.73436C11.1745 8.74131 11.1799 8.74993 11.1825 8.75932L11.7864 10.909C11.8192 11.0256 11.7709 11.064 11.6416 11.024ZM7.21997 6.38437C5.86452 5.97097 5.82352 8.23688 7.65585 7.5359C7.72052 7.51034 7.74648 7.52831 7.73373 7.58982C7.71722 7.67419 7.62904 7.78799 7.55104 7.88865C7.48059 7.97958 7.41844 8.05978 7.42493 8.09789C7.43404 8.14502 7.46 8.15381 7.50281 8.12425C8.23793 7.63176 8.13681 6.66476 7.21997 6.38437ZM6.62423 7.32381C6.00115 6.4335 7.87857 6.27532 7.79522 7.29026C7.79157 7.33659 7.76516 7.36774 7.71597 7.38372C7.37984 7.49396 7.04826 7.49716 6.72124 7.39331C6.67934 7.37973 6.647 7.35656 6.62423 7.32381Z" fill="#2D8213"/>
</svg>
