<!-- by TradingView --><svg width="18" height="18" viewBox="0 0 18 18" xmlns="http://www.w3.org/2000/svg"><path fill="#F0F3FA" d="M0 0h18v18H0z"/><path fill-rule="evenodd" d="M7 8a2 2 0 1 0 0-4 2 2 0 0 0 0 4Zm0-.3a1.7 1.7 0 1 0 0-3.4 1.7 1.7 0 0 0 0 3.4Z" fill="#838383"/><path fill-rule="evenodd" d="M11 8a2 2 0 1 0 0-4 2 2 0 0 0 0 4Zm0-.3a1.7 1.7 0 1 0 0-3.4 1.7 1.7 0 0 0 0 3.4ZM7 12a2 2 0 1 0 0-4 2 2 0 0 0 0 4Zm0-.3a1.7 1.7 0 1 0 0-3.4 1.7 1.7 0 0 0 0 3.4Z" fill="#838383"/><path fill-rule="evenodd" d="M13 10a2 2 0 0 1-3.72 1.02V15H9v-5a2 2 0 1 1 4 0Zm-.3 0a1.7 1.7 0 1 1-3.4 0 1.7 1.7 0 0 1 3.4 0Z" fill="#1295D2"/></svg>