<!-- by TradingView --><svg width="18" height="18" viewBox="0 0 18 18" xmlns="http://www.w3.org/2000/svg"><path fill="#F0F3FA" d="M0 0h18v18H0z"/><path d="M9.45 3.53A7.5 7.5 0 0 0 9.27 2c.24.5.73 1.68.73 2.29 0 .76.09 1.78-2.18 3.9C6 9.89 5.48 11.44 5.45 12A8.25 8.25 0 0 1 5 10.3c0-3.04 4.45-4.9 4.45-6.76Z" fill="url(#au3ixiapa)"/><path d="M8.66 7.86c1.77-1.74 2.27-3.3 2.3-3.86.12.22.36.89.36 1.76C11.32 7.78 9 9.3 9 10.9s1.25 2.1 2.14 2.1c.89 0 .89-.17 1.86-.59-.44 1.01-1.6 2.59-3.46 2.59C7.68 15 6 13.49 6 11.98s.44-1.93 2.66-4.12Z" fill="#CC1318"/><path d="M13 10.13C13 8.8 12.11 7.5 11.67 7c0 1.6-1.67 2.6-1.67 3.53 0 .94.67 1.47 1.47 1.47.8 0 1.53-.73 1.53-1.87Z" fill="url(#bu3ixiapa)"/><defs><linearGradient id="au3ixiapa" x1="7.5" y1="2" x2="7.5" y2="12" gradientUnits="userSpaceOnUse"><stop stop-color="#34774E"/><stop offset="1" stop-color="#023919"/></linearGradient><linearGradient id="bu3ixiapa" x1="11.5" y1="7" x2="11.5" y2="12" gradientUnits="userSpaceOnUse"><stop stop-color="#34774E"/><stop offset="1" stop-color="#023919"/></linearGradient></defs></svg>