<!-- by TradingView --><svg width="18" height="18" viewBox="0 0 18 18" xmlns="http://www.w3.org/2000/svg"><path fill="#F0F3FA" d="M0 0h18v18H0z"/><path d="M4.2 5.3h2.92c.14 0 .26.07.36.14.08.05.15.04.22.04s.15-.05.26-.13c.2-.14.5-.35.98-.35.31 0 .81.3 1.06.3h2.7c.04 0 .13.02.13.11v.07c0 .05-.02.1-.13.1h-.26c-.08 0-.44.08-.44.28v5.96c0 .26.28.4.6.4.38 0 .78-.25.78-.55v-.55c0-.04.02-.12.12-.12h.37c.04 0 .13.02.13.12v1.26c0 .04-.03.12-.13.12H9.5c-.15.08-.58.5-1.15.5-.5 0-.75-.4-.9-.5-.05-.05-.1-.08-.14-.08-.12 0-.13.08-.32.08H4.13c-.04 0-.13.02-.13-.08v-.12c0-.04.03-.12.13-.12h.13c.09 0 .24-.02.24-.21V6c0-.06-.05-.22-.3-.27-.07 0-.2-.05-.2-.25 0-.19.13-.19.2-.19Zm6.8.55c0-.28-.15-.28-.3-.28-.17 0-.32.01-.32.29v1c0 .12-.21.14-.31.14s-.32-.02-.32-.14v-.7c0-.23.08-.72-.75-.72-.26 0-.71.19-.71.77 0 .3.2.96.64 1.72.64 1.1 1.45 2.3 1.45 3.21 0 .2-.2.55-.46.8-.1.09.15.27.3.27.41 0 .78-.35.78-.66 0-1.11.04-4.12 0-5.7Zm-4.92-.28c-.31 0-.58.4-.58.52v2.77c0 .29.45.43.58.43.83 0 .92-.9.92-1.43V6.7c0-.71-.53-1.14-.92-1.14Zm0 4.14c-.31 0-.58.26-.58.38v1.73c0 .24.14.4.53.4.31 0 .7-.16.7-.4v-1.27c0-.1.08-.12.13-.12h.35c.1 0 .14.08.14.12v1.12c0 .66.65.83 1.15.83.5 0 .78-.1.78-1.07 0-.78-.96-2.14-1.22-2.14-.2 0-.28.42-.88.42h-1.1Z" fill="#293A92"/></svg>