<!-- by TradingView --><svg width="18" height="18" viewBox="0 0 18 18" xmlns="http://www.w3.org/2000/svg"><path fill="#F0F3FA" d="M0 0h18v18H0z"/><path d="M8.75 4h.49l.34.04c.57.08 1.14.22 1.64.5a1.61 1.61 0 0 0 .23 1.07c-.37.01-.73-.12-1.04-.31l-.18-.1c-.25-.12-.54-.05-.77.07.23.06.5.1.6.35.16.4.53.56.88.74-.25.18-.57.16-.85.19-.44.03-.75.28-.99.64h.16c-.2.23-.3.48-.3.78 0 .24.1.47.26.64.15.13.35.2.53.26.06.02.28.11.3.17.09.28-.25.42-.46.37h-.01a.92.92 0 0 1-.15-.54s0-.01 0 0l-.67.06h-.01c.01.25.03.5.12.73.13.37.46.52.83.52.48 0 .9-.29 1.03-.84.07-.31.04-.62-.1-.91a5.6 5.6 0 0 1 .33-.06 2.49 2.49 0 0 0 .13 1.34v.02c.05.28.27.48.47.64l-.07-.3a1.1 1.1 0 0 0 1.26-.23c.13.3.32.49.64.56l.02-.01a3.84 3.84 0 0 1-.07-.22.38.38 0 0 1 .03-.3 1.46 1.46 0 0 0 .07-1.22l.28.08c.07.03.23.26.28.34a5.05 5.05 0 0 1-2.57 4.3A5 5 0 1 1 8.74 4Zm-4.4 4.5a4.78 4.78 0 0 0 1.95 4.34c.6.43 1.28.69 2.02.78a5.02 5.02 0 0 0 3.6-.94c.47-.35.97-.7 1.23-1.27-.54.31-1.08.64-1.64.86a3.8 3.8 0 0 1-1.2.26 4.29 4.29 0 0 1-3.83-6.35c.48-.86 1.37-1.33 2.1-1.94a4.66 4.66 0 0 0-4.23 4.25Zm4.44-.88c-.05-.46-.4-.66-.8-.68H7v.03l-.33 3.2h.68l.13-1.16h.01c.25 0 .54.02.78-.1a.88.88 0 0 0 .37-.37c.14-.28.18-.6.15-.92Z" fill="#22356D"/><path d="M11.22 4.54A5 5 0 0 1 14 9.07c-.05-.08-.2-.31-.28-.34a2.48 2.48 0 0 0-.28-.07c.15.41.12.81-.07 1.2-.06.1-.06.2-.03.31a3.81 3.81 0 0 0 .05.23c-.32-.07-.51-.26-.64-.56l.05-.07c.35-.37.47-.88.48-1.38a8.57 8.57 0 0 0-.01-.6 1.2 1.2 0 0 0-.4-.69.52.52 0 0 0-.15-.09 1.16 1.16 0 0 0-1.1.11c-.38.29-.6.78-.66 1.26l-.02.01a5.63 5.63 0 0 0-.37.05l.03-.01c.01 0 .01 0 0 0a1.92 1.92 0 0 0-.43-.33c.15-.03.29-.03.43-.04.76-.1-.34-1.93-1.31-.87H9.1c.23-.36.54-.6.98-.64.28-.03.6-.01.85-.18-.35-.19-.72-.35-.88-.75-.1-.25-.37-.29-.6-.35.23-.12.52-.19.77-.08l.18.1a1.88 1.88 0 0 0 1.05.31c-.19-.33-.3-.67-.24-1.06Z" fill="#FDD00A"/><path d="M4.43 9a4.6 4.6 0 0 0 2.78 4.22 5 5 0 0 0 5.6-1.48l-.4.2a5.23 5.23 0 0 1-.68.35l-.2.09c-1.1.43-2.33.3-3.35-.25A4.56 4.56 0 0 1 5.95 9.3a4.27 4.27 0 0 1 .39-3.09c.35-.67.97-1.14 1.57-1.58l.28-.21V4.4A4.6 4.6 0 0 0 4.43 9Zm6.6-.2c-.02.37.06.8.35 1.06.21.2.51.25.79.19.34-.08.6-.3.76-.6.28-.57.4-1.23.18-1.84a.84.84 0 0 0-.49-.52c-.46-.2-.94 0-1.22.4a2.4 2.4 0 0 0-.38 1.3Zm1.65-.26c-.02.4-.23.99-.72.96a.28.28 0 0 1-.11-.03c-.4-.2-.32-.84-.25-1.19.06-.3.25-.69.6-.71.43-.03.54.52.5.84l-.02.13Zm-3.2.89c.07.06.14.07.22.08h.02c.1.01.18-.01.27-.07.14-.1.23-.27.15-.44-.03-.07-.17-.14-.23-.17l-.16-.06a2.1 2.1 0 0 1-.37-.17c-.26-.16-.34-.5-.3-.8.04-.21.13-.4.28-.58a.25.25 0 0 1 .07-.05c.3-.17.76-.24 1.06 0 .22.17.27.5.25.76l-.46.06c-.06 0-.06-.05-.06-.13 0-.1 0-.23-.16-.28-.22-.07-.58.03-.5.34l.06.06c.08.1.22.14.36.18l.2.07c.12.06.28.16.36.28.22.33.16.8-.04 1.13-.26.44-.87.54-1.29.3-.3-.16-.35-.62-.35-.92l.47-.06h.01v.01c.01.14.04.36.14.46Zm-2.7.65v.01h.48c.03-.19.05-.4.06-.6l.06-.55a.01.01 0 0 1 .01-.01h.4c.26 0 .51-.09.66-.3.2-.28.31-.65.25-1a.78.78 0 0 0-.3-.5 4.3 4.3 0 0 0-.95-.07H7.1v.01c-.12.97-.24 2.04-.34 3.01Zm.77-1.71h-.1v-.01l.08-.75h.37c.38.03.36.46.16.66-.1.12-.34.1-.51.1Z" fill="#0D8241"/><path d="M9.6 7.86v-.01c.06-.13.16-.2.29-.2.12 0 .22.07.26.2.02.07 0 .16-.03.24a1.06 1.06 0 0 1-.52-.23Z" fill="#22356D"/><path d="M12.23 7.67c.14.01.27.1.3.25.13.43.05.95-.2 1.32-.16.22-.52.2-.63-.06a2.22 2.22 0 0 1 .03-1c.05-.2.25-.53.5-.51Z" fill="#FDD00A"/><path d="M7.87 7.71c.05 0 .2.04.21.1.02.16 0 .3-.1.42-.04.05-.36.04-.43.04a8.42 8.42 0 0 1 .07-.57l.25.01Z" fill="#22356D"/><path d="M11.1 9.72c.13.12.25.24.39.35l.08.3c-.21-.16-.43-.36-.48-.64Z" fill="#FDD00A"/></svg>