<!-- by TradingView --><svg width="18" height="18" viewBox="0 0 18 18" fill="none" xmlns="http://www.w3.org/2000/svg">
<rect width="18" height="18" fill="#F0F3FA"/>
<path fill-rule="evenodd" clip-rule="evenodd" d="M6.64671 9.02847V6.65946L7.67611 6.13046V8.47646L6.64671 9.02847ZM5.32324 9.64949V7.60249L6.35265 7.07349V9.09749L5.32324 9.64949Z" fill="#0F6A36"/>
<path fill-rule="evenodd" clip-rule="evenodd" d="M11.3527 9.02847V6.65946L10.3233 6.13046V8.47646L11.3527 9.02847ZM12.8232 9.83466V7.78766L11.7938 7.25866V9.28266L12.8232 9.83466Z" fill="#5ABA47"/>
<path fill-rule="evenodd" clip-rule="evenodd" d="M8 8.34671L8.85714 7.92288V4L8 4.43369V8.34671ZM9.99997 8.34671L9.14283 7.92288V4L9.99997 4.43369V8.34671Z" fill="#119548"/>
<path fill-rule="evenodd" clip-rule="evenodd" d="M6 11.8783V9.62199L6.94037 9.17972C7.21853 9.05281 7.76469 8.9105 7.76469 9.54604C7.76469 10.1964 7.25945 10.5066 6.75211 10.8181C6.63976 10.8871 6.5273 10.9562 6.42021 11.029V11.638L6 11.8783ZM6.43463 10.5964V9.80642L6.93507 9.54603C7.06263 9.50189 7.31775 9.48071 7.31775 9.74904C7.31775 10.0845 6.98974 10.2963 6.43463 10.5964Z" fill="#0F6A36"/>
<path d="M9.4429 9.40513L9.73183 8.9797C9.10221 8.43658 8.11896 8.65383 8.11896 9.35082C8.11896 10.0478 8.67527 10.1157 8.98146 10.2062C9.28765 10.2967 9.30058 10.3918 9.30058 10.5004C9.30058 10.609 9.22296 10.7267 8.8909 10.7267C8.62525 10.7267 8.41221 10.5336 8.3389 10.437L8.00684 10.7855C8.32165 11.125 8.67958 11.1793 8.8909 11.1793C9.10221 11.1793 9.77927 11.1205 9.77927 10.4733C9.77927 9.82604 9.21865 9.77626 8.8909 9.67216C8.56315 9.56807 8.57177 9.4685 8.57177 9.40513C8.57177 9.34177 8.57177 9.12453 8.8909 9.12453C9.1462 9.12453 9.36527 9.3116 9.4429 9.40513Z" fill="#119548"/>
<path fill-rule="evenodd" clip-rule="evenodd" d="M11.0704 10.7453L11.4039 11.4617L12.0558 11.8261L11.3574 10.4186L11.9566 9.73656L11.4322 9.4763L11.0731 9.84575L10.7237 9.14165L10.1852 8.84421L10.7881 10.139L10.001 10.9487L10.6174 11.261L11.0704 10.7453Z" fill="#5ABA47"/>
<path fill-rule="evenodd" clip-rule="evenodd" d="M8.99994 13.5501C11.6841 13.5501 13.86 11.2665 13.86 8.44949C13.8922 8.10223 13.8847 7.76432 13.8419 7.4386C13.9451 7.85849 13.9999 8.29874 13.9999 8.75243C13.9999 11.6505 11.7614 13.9998 8.99996 13.9998C6.23856 13.9998 4 11.6505 4 8.75243C4 8.36773 4.03945 7.99269 4.11433 7.63153C4.09582 7.89819 4.10342 8.17145 4.13988 8.44949C4.13988 11.2665 6.3158 13.5501 8.99994 13.5501Z" fill="#CEA245"/>
</svg>
