<!-- by TradingView --><svg width="18" height="18" viewBox="0 0 18 18" xmlns="http://www.w3.org/2000/svg"><path fill="#F0F3FA" d="M0 0h18v18H0z"/><path d="M9.4 6.86a2.42 2.42 0 1 0-.75 4.73c1.14 0 2.1-.76 2.36-1.81a2.66 2.66 0 0 1-2.87 2.34s-1.5.02-2.54-1.58A4.23 4.23 0 0 1 9.08 4 4.91 4.91 0 0 1 14 9a5 5 0 1 1-9.53-2.12 6.8 6.8 0 0 0-.25 1.42A4.47 4.47 0 0 0 8.9 13c2.25-.19 4.05-1.83 4.05-4 0-1.6-.96-2.98-2.33-3.6a3.65 3.65 0 0 0-5.1 3.36c0 .13 0 .21.02.4a2.75 2.75 0 0 1 3.87-2.3Z" fill="#A6CC4D"/><path d="M9.16 7.9a1.1 1.1 0 1 1 0 2.2 1.1 1.1 0 0 1 0-2.2Z" fill="#006433"/></svg>