<!-- by TradingView --><svg width="18" height="18" viewBox="0 0 18 18" xmlns="http://www.w3.org/2000/svg"><path fill="#F0F3FA" d="M0 0h18v18H0z"/><path d="M4.27 10.69c-.11.19-.06.16 0 .35.05.16.14.28-.02.4-.17.14-.25.01-.42-.03-.17-.04-.3.01-.31.16-.03.2.05.23-.18.32-.54.24-1.05-.07-1.15-.09-.08-.01-.14 0-.18.05-.12.25.62.51.88.54.38.03.9-.12 1.23-.2a4.18 4.18 0 0 1 1.21-.09c.26.02.52.03.81.03h.07l.08.13c.45.8 1.15 1.94 2.36 1.7.14-.02.19-.06.3-.08.1-.03.16 0 .28 0 1.36.08 2.03-1.68 2.18-2.8.02-.21.05-.43.06-.66 0-.18-.03-.5.06-.6l-.06-.04c-.06-.74-.18-1.79.12-2.44-.05-.11-.07-.07-.1-.2.1.03.14.04.21-.04h-.02c-1.23.4-.9-.7-1.93-1.44-.28-.2-.6-.38-1.06-.37-.3 0-.37.08-.58.12-.3.05-1.3-.3-2.05 1.4-.43.99-.32 1.53-.44 2.32-.52.18-.55-.2-.8-.14-.02.04-.26 1.11-.55 1.7Zm3.38 2.2c-.24-.15-.56-.7-.66-1.04.19-.02.06-.05.34.48.1.17.26.4.32.55Zm1.07-1.42.14-.09c-.02.32-.14.72-.26 1.02-.05.13-.07.2-.17.26-.07-.14-.57-.78-.5-.98.14-.16.67.1.8-.2Zm-1.28-2.6c-.02-.36.01-.69.06-1.04.04-.38.14-.55.23-.85.3.15.8 1.15.9 1.6-.16.1-.28.2-.52.25-.17.04-.23.01-.38 0-.21-.02-.15.02-.3.04Zm-.95-.11c0-.45.08-1.38.36-1.74.01 0-.24 1.22-.26 1.55-.01.33-.1.87-.1.19Z" fill="#3F3C3D"/><path d="M6.02 9.25c-.14.01-.08-.02-.16.01-.1.04-.01.05-.2.05-.09 0-.02-.01-.05.06 0 0 1.46.46 1.31.82-.55 0-.98.37-1.58.43-.2.23-.13.26.16.28l.05.2c1.42-.15-.3-1.07 1.27-.29-.04.69-.35.41-.77.32.01.02-.68.5-.73.5-.13-.17-.13-.35-.16.02-.54.08-.75.23-1.2.19.06.11.04.03.13.13l-.03.14c.38.08.62-.45.95-.3.14.1.03.1.12.25.44 0 .89.08 1.54-.12.43-.13 1.24-.59 1.67-.36.26.13-.04-.2.38-.1.07-.14.27-.77.25-.93l-.06.05c-.14.08-.33.03-.46-.03-.03.19-.6-.52-.6-.56-.08-.24-.58-.63-.5-.86-.23.03-.07 0-.22-.08-.18.23-.58.1-.82.05.08.5-.46.45-.29.13Z" fill="#EC9D2B"/><path d="M14.8 4.86c-.28.26-.43.54-.79.72-.23.14-.65.24-.8.43l.19-.1c.08.16-.05.1.12.22l-.05.06c.17-.04.85-.4 1-.5.17-.12.61-.6.7-.8-.1-.02 0 .04-.1-.06.1-.1.11-.02.15-.13.08.03.06-.02.1.04.12-.1.19-.24.39-.35.17-.1.4-.12.23-.38-.55-.1-.9.65-1.14.85ZM11.68 7.1h.02c-.17.45.3.9.3.9.2.08.4-.25.6-.27-.05-.1.01-.02-.08-.1l-.1-.08c0-.19.1-.26.12-.43l-.06.04c-.2-.09-.04-.08-.2-.08-.15.01-.03.02-.09.04-.08.02 0 .03-.06 0 0-.02.02-.05.02-.12-.01-.13-.05-.03-.02-.13l-.45.23Z" fill="#3F3C3D"/><path d="M12.13 6.87c.25 0 .2.05.32.15.1.08.05-.05.1.1l.05-.07c.44-.6.73-.7.87-.86l-.11.01c-.08-.15-.1-.07-.15-.2-.08.03-.85.7-1.08.87Zm1.75 1.92a.81.81 0 0 0-.29-.43c-.13.05-.15.16-.32.09-.12-.05-.15-.13-.22-.24a1.8 1.8 0 0 0-.44-.48C12 7.5 12 8.5 13.88 8.8Z" fill="#3F3C3D"/><path d="M13.48 9.38c-.02.22-.63.37-.81.4.06.07.16.13.26.14.4.06.45-.27.68-.45.1.03.16.11.24.18.3.19.42.12.25-.24-.04-.19-.09-.5-.22-.62l.09.26c-.06.07 0 .01-.11.06-.1.05-.38.2-.38.27Z" fill="#3F3C3D"/><path d="M13.85 9.65c.03.12.1.19.17.3.06.12.1.19.19.25.25.16.46 0 .42-.32-.13-.11-.16-.05-.3-.2l-.23-.27c.01.15-.08.23-.25.24Zm-1.41.01.06.04a1 1 0 0 0 .17.08c.02-.26.27-.06.35-.4-.2-.22-.56-.16-.6.07-.01.1.03.1.08.18l-.06.03Z" fill="#3F3C3D"/><path d="M12.54 7.12c-.04-.15.01-.02-.09-.1-.13-.1-.07-.15-.32-.15-.03.1 0 0 .02.13 0 .07-.02.1-.02.11.06.04-.02.03.06 0 .07-.01-.06-.02.1-.03.15 0-.01 0 .19.08l.06-.04ZM13.21 6c.05.13.07.05.14.2h.12l.05-.07c-.17-.12-.04-.06-.12-.22l-.19.1Zm1.96-1.11c.1-.06.09-.06.14-.15-.03-.06 0 0-.09-.04-.04.11-.05.04-.15.13.1.1 0 .04.1.06Zm-3.71 4.94c.23-.08.4-.28.48-.32l.44.12c.07.02.03 0 .06.03l.06-.02c-.05-.08-.1-.09-.08-.2.04-.22.4-.28.6-.07-.08.35-.33.15-.35.4.47-.05.31.03.5.07.34-.46.27-.1.3-.46.01-.08.1-.06.15-.07-.02-.04-.01-.04-.01-.07l.25-.13c.11-.05.05 0 .11-.06l-.09-.26c-.51-.44-.17.06-.7-.36-.08.1-.07.12-.21.1l-.06-.2c.1-.15.16.03.08-.13-.11-.03-.04.14-.18.02-.37-.31-.1-.4-.44-.54-.1.28-.31.15-.37-.13l.23-.1-.13-.1-.29.27-.1-.12c-.06-.16 0-.26.1-.36l-.1-.04c-.08.08-.12.07-.22.05.03.12.05.08.1.19-.2.42-.07.07-.32.4-.05.06-.08.08-.13.12.06.3.24.81.24.85-.03.44.06.96.08 1.12Z" fill="#EC9D2B"/></svg>