<!-- by TradingView --><svg width="56" height="56" viewBox="0 0 56 56" xmlns="http://www.w3.org/2000/svg"><path fill="#004B88" d="M0 0h56v56H0z"/><path d="M33.68 13H22.32c-1.56 0-2.95.98-3.46 2.45l-2.53 7.22 20.34-8.13A3.66 3.66 0 0 0 33.68 13Zm3.82 3.46L16.22 23l-.67 1.92 22.01-8.27-.06-.19Zm3.16 9.06.05.15-28.7 9.75c.04-.35.1-.7.23-1.04l.52-1.48 27.9-7.38Zm-.74-2.12.03.08-26.91 8.62.52-1.5 26.36-7.2Zm-.77-2.2.01.02-25.22 8.3.55-1.58 24.66-6.74Zm-24.53 6.36 22.77-8.55-21.99 6.32-.78 2.23ZM12 35.83l29.49-7.95 2.27 6.5a4.23 4.23 0 0 1-4 5.62H16.24A4.24 4.24 0 0 1 12 35.83Z" fill="#B2E3FA"/></svg>