<!-- by TradingView --><svg width="56" height="56" viewBox="0 0 56 56" fill="none" xmlns="http://www.w3.org/2000/svg">
<rect width="56" height="56" fill="#F0F3FA"/>
<path d="M19.281 35.7326C14.4537 35.7326 10.5716 34.6247 8.22466 33.623C7.07436 33.1321 6.69668 31.7734 7.25287 30.6446C9.10021 26.8952 11.719 21.6752 12.1511 20.9391C12.6671 20.06 13.5487 20.0573 13.9249 20.1658C14.9732 20.7356 18.0463 21.2749 19.7993 21.2749C21.5524 21.2749 23.7628 21.1595 26.5829 20.5439C29.4031 19.9283 35.3494 19 37.2286 19C39.1077 19 41.9264 19.2932 43.3101 19.8278C44.4171 20.2555 45.1636 21.509 45.3985 22.0823L48.9831 36.2721C49.1003 36.7364 48.5857 37.1429 48.1505 36.9516C45.9996 36.0061 41.909 34.7876 36.5842 34.7876C28.4277 34.7876 27.5385 35.7326 19.281 35.7326Z" fill="url(#paint0_linear_229_27181)"/>
<path fill-rule="evenodd" clip-rule="evenodd" d="M44 31.796H37.7474V31.2029C38.1481 31.0535 38.2646 30.8171 38.2728 30.7176V25.6688C38.2728 25.3029 37.9225 25.0746 37.7474 25.0062V24.4H43.6521V26.0626H43.0231C42.7237 25.9199 42.5533 25.6084 42.5056 25.4706H40.0691V27.1713H41.8551L42.1208 26.7046H42.698V28.8511H42.1208L41.8551 28.3751H40.0691V30.3368C40.7698 30.3368 42.1409 30.6703 42.7388 30.837L43.0941 29.9505H44V31.796ZM36.7759 29.8848V31.4693C36.3648 31.7017 35.2826 32.1664 34.2425 32.1664C31.6289 32.1664 30.906 29.877 30.8712 28.7324C30.8712 25.5684 32.3829 24.5459 34.2337 24.5459C35.7144 24.5459 36.8496 25.5228 37.2322 26.0113L35.9714 27.4437L35.3975 26.9169C35.4191 26.8675 35.4735 26.7292 35.5188 26.5711C35.5753 26.3735 35.4056 25.7478 34.4358 25.7478C33.4659 25.7478 32.493 26.8127 32.493 28.0526C32.493 29.2924 33.5138 30.7126 34.7211 30.7126C35.687 30.7126 36.1916 30.1607 36.3232 29.8848H36.7759ZM20.2003 24.7639V25.3176C20.3529 25.3662 20.6581 25.5177 20.6581 25.7353C20.6581 25.8086 20.5723 25.9249 20.4469 26.0948C20.1068 26.5556 19.4755 27.411 19.4755 28.873C19.4755 31.8165 21.2875 32.3119 22.4892 32.3119C23.158 32.3119 23.5727 32.2156 23.9405 32.1302C24.2336 32.0622 24.497 32.001 24.8353 32.001C25.4457 32.001 26.0306 32.0528 26.2468 32.0787V31.5153C25.9034 31.4531 25.7477 31.198 25.7127 31.0782V25.9296C25.7127 25.5488 26.0688 25.363 26.2468 25.3176V24.7639H23.5192V25.3176C23.8702 25.4498 23.9897 25.7807 24.0056 25.9296V31.0782C23.9261 31.1073 23.6794 31.1656 23.3285 31.1656C22.8898 31.1656 21.2112 30.7576 21.2112 28.737C21.2112 27.1206 22.2158 25.7839 22.7181 25.3176V24.7639H20.2003ZM16.2936 31.6737C15.7691 32.0023 15.1556 32.1912 14.5 32.1912C12.567 32.1912 11 30.5493 11 28.5239C11 26.4986 12.567 24.8567 14.5 24.8567C16.433 24.8567 18 26.4986 18 28.5239C18 29.4136 17.6977 30.2292 17.1948 30.8642C17.406 30.97 17.6195 31.0413 17.8187 31.0413C18.1203 31.0413 18.2489 30.9187 18.3539 30.8187C18.4375 30.739 18.5061 30.6737 18.635 30.6955C18.926 30.7449 19.3301 31.2883 18.9421 31.6834C18.5542 32.0786 18.1662 32.3914 17.649 32.3914C17.312 32.3914 16.7589 32.049 16.2936 31.6737ZM15.5434 30.9518C15.2134 31.1876 14.8266 31.3233 14.4129 31.3233C13.2041 31.3233 12.2241 30.1643 12.2241 28.7345C12.2241 27.3048 13.2041 26.1458 14.4129 26.1458C15.6218 26.1458 16.6017 27.3048 16.6017 28.7345C16.6017 29.2806 16.4588 29.7872 16.2147 30.2048L16.2104 30.2016C16.1253 30.1382 16.0401 30.0692 15.954 29.9993C15.6149 29.724 15.2602 29.436 14.8283 29.436C14.2868 29.436 13.818 29.4771 13.818 29.9464C13.818 30.3218 14.0659 30.5364 14.1898 30.5968C14.3029 30.5419 14.5761 30.4321 14.7636 30.4321C14.9745 30.4321 15.1854 30.5654 15.5434 30.9518ZM27.5 32.2655H30.1279V31.5962H30.0814C29.7864 31.5962 29.5473 31.3526 29.5473 31.0522V26.0548C29.5473 25.7543 29.7864 25.5107 30.0814 25.5107H30.1279V24.8103H27.5V25.5107H27.5312C27.8262 25.5107 28.0654 25.7543 28.0654 26.0548V31.0522C28.0654 31.3526 27.8262 31.5962 27.5312 31.5962H27.5V32.2655Z" fill="#290F0F"/>
<path fill-rule="evenodd" clip-rule="evenodd" d="M44 31.5H37.7474V30.8985C38.1481 30.7471 38.2646 30.5074 38.2728 30.4064V25.2866C38.2728 24.9156 37.9225 24.6841 37.7474 24.6147V24H43.6521V25.686H43.0231C42.7237 25.5413 42.5533 25.1398 42.5056 25H40V26.7814L40.0044 26.7713H41.8551L42.1208 26.3046H42.698V28.4511H42.1208L41.8551 27.9751H40V30.0203C40.7007 30.0203 42.1409 30.3585 42.7388 30.5276L43.0941 29.6285H44V31.5ZM36.7759 29.4848V31.0693C36.3648 31.3017 35.2826 31.7664 34.2425 31.7664C31.6289 31.7664 30.906 29.477 30.8712 28.3324C30.8712 25.1684 32.3829 24.1459 34.2337 24.1459C35.7144 24.1459 36.8496 25.1228 37.2322 25.6113L35.9714 27.0437L35.3975 26.5168C35.4191 26.4675 35.4735 26.3291 35.5188 26.1711C35.5753 25.9735 35.4056 25.3478 34.4358 25.3478C33.4659 25.3478 32.493 26.4127 32.493 27.6526C32.493 28.8924 33.5138 30.3125 34.7211 30.3125C35.687 30.3125 36.1916 29.7607 36.3232 29.4848H36.7759ZM27.4322 31.8655H30.1979V31.1962H30.1514C29.8564 31.1962 29.6172 30.9526 29.6172 30.6522V25.6548C29.6172 25.3543 29.8564 25.1107 30.1514 25.1107H30.1979V24.4103H27.4322V25.1107H27.4634C27.7584 25.1107 27.9976 25.3543 27.9976 25.6548V30.6522C27.9976 30.9526 27.7584 31.1962 27.4634 31.1962H27.4322V31.8655ZM16.2936 31.2737C15.7691 31.6023 15.1556 31.7912 14.5 31.7912C12.567 31.7912 11 30.1493 11 28.1239C11 26.0986 12.567 24.4567 14.5 24.4567C16.433 24.4567 18 26.0986 18 28.1239C18 29.0136 17.6977 29.8292 17.1948 30.4642C17.406 30.57 17.6195 30.6413 17.8187 30.6413C18.1203 30.6413 18.2489 30.5187 18.3539 30.4187C18.4375 30.339 18.5061 30.2736 18.635 30.2955C18.926 30.3449 19.3301 30.8883 18.9421 31.2834C18.5542 31.6786 18.1662 31.9914 17.649 31.9914C17.312 31.9914 16.7589 31.649 16.2936 31.2737ZM15.5434 30.5518C15.2134 30.7876 14.8266 30.9233 14.4129 30.9233C13.2041 30.9233 12.2241 29.7643 12.2241 28.3345C12.2241 26.9048 13.2041 25.7458 14.4129 25.7458C15.6218 25.7458 16.6017 26.9048 16.6017 28.3345C16.6017 28.8806 16.4588 29.3872 16.2147 29.8048L16.2104 29.8016C16.1253 29.7382 16.0401 29.6692 15.954 29.5993C15.6149 29.324 15.2602 29.036 14.8283 29.036C14.2868 29.036 13.818 29.0771 13.818 29.5464C13.818 29.9218 14.0659 30.1364 14.1898 30.1967C14.3029 30.1419 14.5761 30.0321 14.7636 30.0321C14.9745 30.0321 15.1854 30.1654 15.5434 30.5518ZM20.2003 24.5V25.0502C20.3529 25.0985 20.6581 25.249 20.6581 25.4652C20.6581 25.5381 20.5723 25.6536 20.4469 25.8224C20.1068 26.2803 19.4755 27.1302 19.4755 28.583C19.4755 31.5077 21.2875 32 22.4892 32C23.158 32 23.5727 31.9043 23.9405 31.8195C24.2336 31.7519 24.497 31.6911 24.8353 31.6911C25.4457 31.6911 26.0306 31.7426 26.2468 31.7683V31.2085C25.9034 31.1467 25.7477 30.8932 25.7127 30.7741V25.6583C25.7127 25.2799 26.0688 25.0952 26.2468 25.0502V24.5H23.5192V25.0502C23.8702 25.1815 23.9897 25.5103 24.0056 25.6583V30.7741C23.9261 30.8031 23.6794 30.861 23.3285 30.861C22.8898 30.861 21.2112 30.4556 21.2112 28.4479C21.2112 26.8417 22.2158 25.5135 22.7181 25.0502V24.5H20.2003Z" fill="white"/>
<defs>
<linearGradient id="paint0_linear_229_27181" x1="8.27298" y1="30.5526" x2="47.1368" y2="30.5526" gradientUnits="userSpaceOnUse">
<stop stop-color="#B0171C"/>
<stop offset="0.382129" stop-color="#E01F27"/>
<stop offset="0.912547" stop-color="#8B0F12"/>
</linearGradient>
</defs>
</svg>
