<!-- by TradingView --><svg width="18" height="18" viewBox="0 0 18 18" xmlns="http://www.w3.org/2000/svg"><path fill="#F0F3FA" d="M0 0h18v18H0z"/><path d="M7.61 7.28c.02-.03.06-.05.1-.03.09.04.31.1.52 0 .04-.02.08 0 .1.03.02.03 0 .07-.03.09a.86.86 0 0 1-.66 0c-.03-.02-.05-.06-.03-.1Zm0 .4c.02-.04.06-.05.1-.03.09.04.31.09.52 0 .04-.02.08 0 .1.03.02.03 0 .07-.03.09a.86.86 0 0 1-.66 0c-.03-.02-.05-.06-.03-.1Zm-.15.4c.01-.03.05-.05.1-.04.06.02.18.05.3.05a.8.8 0 0 0 .37-.05c.04-.01.08 0 .1.03.02.04 0 .08-.03.1a.96.96 0 0 1-.44.06c-.14-.01-.27-.04-.35-.06-.04-.02-.06-.05-.05-.09Zm0 .4c.01-.04.05-.05.1-.04l.3.05a.8.8 0 0 0 .37-.05c.04-.02.08 0 .1.03.02.03 0 .07-.03.09a.96.96 0 0 1-.44.06c-.14 0-.27-.03-.35-.06-.04 0-.06-.05-.05-.08Zm3.9 1.8c.03 0 .07.04.07.07 0 .06-.04.1-.07.13a.66.66 0 0 1-.14.09c-.1.05-.2.09-.29.11-.03.01-.08 0-.09-.04-.01-.04.01-.07.05-.09.07-.02.17-.05.26-.1a.52.52 0 0 0 .1-.06l.03-.04c0-.03.03-.06.07-.06Zm-4.49.31c.02-.03.06-.05.1-.03.11.04.31.09.52.1.22.02.43 0 .59-.1a.08.08 0 0 1 .1.02c.02.03.01.07-.02.1-.2.11-.45.13-.68.12a2.25 2.25 0 0 1-.57-.12c-.03-.01-.05-.05-.04-.09Zm4.78-.04c.04 0 .07.03.07.07 0 .14-.13.25-.26.32s-.28.12-.38.14c-.04 0-.08-.01-.1-.05 0-.03.02-.07.06-.08.1-.02.23-.06.35-.13.12-.06.18-.13.18-.2 0-.04.04-.07.08-.07Zm.3.27c.03 0 .06.03.06.06 0 .2-.15.32-.32.38-.16.06-.36.09-.48.09-.04 0-.08-.03-.08-.07 0-.04.04-.07.08-.07.11 0 .29-.02.43-.07.14-.06.23-.14.23-.26 0-.03.03-.06.07-.06Zm-5.23.17c.02-.03.06-.05.1-.04a3 3 0 0 0 .65.11c.26.02.54 0 .76-.1.04-.02.08 0 .1.03.02.03 0 .07-.03.08-.25.12-.56.14-.84.12a3.17 3.17 0 0 1-.69-.11c-.04-.01-.06-.05-.05-.09Zm0 .53c.02-.03.06-.05.1-.04.24.09.85.2 1.42 0 .03-.01.08 0 .1.04 0 .03-.01.07-.05.09-.61.22-1.27.09-1.52 0-.04-.02-.06-.06-.04-.09Zm-.14.4c0-.03.05-.05.09-.04a4 4 0 0 0 .74.1c.3.02.6 0 .82-.1.04-.01.08 0 .1.03.02.03 0 .07-.03.09-.26.11-.59.14-.9.12-.3-.02-.6-.07-.77-.12-.04 0-.06-.04-.05-.08Zm-.15.53c0-.03.05-.05.09-.04.19.04.5.1.84.1.33.02.65 0 .87-.1.04-.02.08 0 .1.03.02.03 0 .07-.03.09-.26.11-.62.13-.95.12a5.34 5.34 0 0 1-.87-.12c-.04 0-.06-.04-.05-.08Zm2.05.4c.01.04-.01.07-.05.08-.25.06-.65.07-1.04.06-.4 0-.8-.03-1.04-.06-.04 0-.07-.03-.07-.07 0-.04.04-.06.08-.06.24.02.64.05 1.03.06.4 0 .78 0 1-.06.04 0 .08.02.1.05Z" fill="#BF7313"/><path d="m10.98 10-.75-.7c.84-.22.75-.98.6-1.33l-.64-1.59c-.06-.17.09-.38.29-.38h1.32c.14 0 .26.12.3.24l.38 1.26c-.25 0-.75-.3-.75.34 0 .35.24.55.53.67.37.15.75.37.85.72l.87 2.98c.12.53-.45.75-.75.79h-1.35l-.38-1.02c-.04-.1 0-.22.1-.29l.58-.41-.6-1.28h-.6Z" fill="#00125E"/><path d="M6.94 4.53a5.7 5.7 0 0 1 4.85 0 6.5 6.5 0 0 1-2.5.66c-.94 0-1.96-.44-2.35-.66Zm2.35.4c.5 0 .89-.15.89-.33 0-.19-.4-.34-.89-.34-.48 0-.88.15-.88.34 0 .18.4.33.88.33ZM8.41 5.46c-.59 0-1.32-.45-1.62-.67l-.14.4c.7.32 1.47.31 1.76.27ZM10.18 5.46c.58 0 1.32-.45 1.61-.67l.15.4c-.7.32-1.47.31-1.76.27Z" fill="#C17213"/><path d="m6.32 6.19-2.3 6.47c-.06.17.08.34.27.34h1.36l1.76-6.26h.43c.47 0 .59.27.59.4V8.5c0 .32-.3.4-.44.4h-.22a.29.29 0 0 0-.28.19l-.38 1.13c1.06-.1 1.42.75 1.46 1.2L9.01 13h2.05a35.5 35.5 0 0 1-.44-2.38c-.12-.85-.73-1.15-1.02-1.2l.38-.34c.21-.2.3-.48.23-.75L9.5 6.2a.29.29 0 0 0-.29-.2H6.6a.29.29 0 0 0-.28.19Z" fill="#00125E"/></svg>