<!-- by TradingView --><svg width="56" height="56" viewBox="0 0 56 56" xmlns="http://www.w3.org/2000/svg"><path fill="#F0F3FA" d="M0 0h56v56H0z"/><path d="M41.6 31H21.2l-2.27 5H41.6c2.72 0 3.4-4.8 3.4-7.2-.45 1.92-2.46 2.2-3.4 2.2Z" fill="#00945A"/><path d="M11 30c0 3.36 2.27 7 3.4 8.4-.45-1.44-.19-3 0-3.6l10.2-18-4.53-3.6c-1.51 2.6-4.99 8.52-6.8 11.4C11.45 27.48 11 29.4 11 30Z" fill="url(#al1ij0wb4)"/><path d="M41.6 36H18.93l-3.4 3.6c0 .6 2.46 2.4 3.4 2.4H38.2c3.4 0 5.1-4.8 5.38-7.2-.45.96-1.6 1.2-1.98 1.2Z" fill="url(#bl1ij0wb4)"/><path d="M20.07 36a9.7 9.7 0 0 0-1.14 6c-1.7 0-3.4-1.8-4.53-3.6-.9-1.44-.38-3 0-3.6l10.2-18 3.97 5.4a610.8 610.8 0 0 0-8.5 13.8Z" fill="url(#cl1ij0wb4)"/><path d="M22.33 12c-1.81 0-2.64 1.6-2.83 2.4 1.36-.48 2.46.6 2.83 1.2L31.28 31H39L28 12h-5.67Z" fill="#D71A20"/><path d="M32.53 12H28l11 19h3.73c1.82 0 2.27-1.4 2.27-2.2A610.8 610.8 0 0 1 36.5 15c-1.36-2.4-3.21-3-3.97-3Z" fill="url(#dl1ij0wb4)"/><defs><linearGradient id="al1ij0wb4" x1="21.77" y1="14.4" x2="12.99" y2="37.48" gradientUnits="userSpaceOnUse"><stop stop-color="#FFCFBA"/><stop offset=".22" stop-color="#EF2928"/><stop offset="1" stop-color="#D61C1D"/></linearGradient><linearGradient id="bl1ij0wb4" x1="20.07" y1="40.2" x2="40.47" y2="40.2" gradientUnits="userSpaceOnUse"><stop stop-color="#F7F7F5"/><stop offset=".55" stop-color="#E6E5E8"/><stop offset="1" stop-color="#DADBDD"/></linearGradient><linearGradient id="cl1ij0wb4" x1="25.17" y1="20.4" x2="16.43" y2="40.45" gradientUnits="userSpaceOnUse"><stop stop-color="#E5E6E8"/><stop offset="1" stop-color="#E5E4E7"/></linearGradient><linearGradient id="dl1ij0wb4" x1="30.27" y1="12" x2="44.3" y2="30.44" gradientUnits="userSpaceOnUse"><stop stop-color="#02975D"/><stop offset=".56" stop-color="#018F5D"/><stop offset=".73" stop-color="#4AAB8A"/><stop offset="1" stop-color="#DDF1E5"/></linearGradient></defs></svg>