<!-- by TradingView --><svg width="56" height="56" viewBox="0 0 56 56" xmlns="http://www.w3.org/2000/svg"><path fill="#F0F3FA" d="M0 0h56v56H0z"/><path fill-rule="evenodd" d="M44 14H12v28h32V14Zm-1 1H13v26h30V15Z" fill="#282973"/><path fill="#282973" d="M26 14h6v18h-6zm9 7.08c0-4.1 3.32-6.27 4.98-7.08H44v4c-2.32 0-4.02.92-4.02 5.5 0 3.67 2.82 4.54 4.02 4.5v4h-3.14c-4.3 0-5.7-4.94-5.86-7.42v-3.5Zm-16.96-6.69c1.46.09 3.96 1 3.96 3.99v2.06c0 1.06-.16 2.57-2.67 3.32-.2 0-.33.13-.33.4 0 .05.06.1.2.23.5.45 2.03 1.84 4.8 7.61h-6.42a123.9 123.9 0 0 0-3.87-7h-1.44v-3h3.38c.74 0 1.35-.62 1.35-1.38v-1.24c0-.76-.6-1.38-1.35-1.38h-3.38v-3.61h5.77Z"/></svg>