<!-- by TradingView --><svg width="18" height="18" viewBox="0 0 18 18" xmlns="http://www.w3.org/2000/svg"><path fill="#F0F3FA" d="M0 0h18v18H0z"/><path d="M2.02 6v.28a.4.4 0 0 1 .41.4v4.61a.4.4 0 0 1-.41.4H2V12h1.92v-.3a.38.38 0 0 1-.38-.37V9.4h.97L6.12 12h1.55v-.3a.53.53 0 0 1-.44-.24l-1.5-2.2c.83-.2 1.45-.67 1.45-1.65 0-1.19-1.17-1.57-1.76-1.61h-3.4Zm1.51.74h1.45a1 1 0 0 1 1.01 1 1 1 0 0 1-1 .98H3.52V6.74Z"/><path d="M10.18 12H8.41v-.32h.05c.22 0 .4-.16.44-.36l.69-4.95h-.4V6h2.04l1.02 2.88.96-2.88h2.1v.37h-.4l.75 5.03c.02.16.17.28.34.28V12h-1.96v-.32c.22 0 .38-.18.35-.38l-.59-4.34-1.32 3.68h-.78l-1.27-3.68-.65 4.33c-.03.2.14.39.36.39h.04V12Z" fill="#1F1A17"/></svg>