<!-- by TradingView --><svg width="18" height="18" viewBox="0 0 18 18" fill="none" xmlns="http://www.w3.org/2000/svg">
<rect width="18" height="18" fill="#F0F3FA"/>
<path d="M4.42091 9.29122C4.35607 9.2369 4.30152 9.09971 4.28235 9.0379C4.27015 8.98654 4.24575 8.85718 4.24575 8.75064C4.24575 8.61745 4.14379 8.57827 4.08366 8.35368C4.02353 8.12909 4.08366 8.00374 4.08366 7.85227C4.08366 7.7008 4 7.5859 4 7.37698C4 7.16805 4.01568 7.18633 4.0549 6.99308C4.09412 6.79983 4.05229 6.71887 4.0549 6.54912C4.05751 6.37937 4.13595 6.28797 4.20392 6.16262C4.27189 6.03726 4.28235 5.85707 4.3111 5.74739C4.33986 5.6377 4.39999 5.53585 4.49411 5.44967C4.58822 5.36349 4.62744 5.08667 4.81567 5.08667C5.0039 5.08667 5.06926 5.16501 5.13461 5.20941C5.19997 5.25381 5.25749 5.26164 5.36729 5.34521C5.47709 5.42878 5.43526 5.53063 5.46402 5.61681C5.49278 5.70299 5.57382 5.78917 5.67316 5.88318C5.77251 5.9772 5.75159 6.04249 5.78819 6.1809C5.82479 6.31931 5.90584 6.32453 5.98688 6.50472C6.06793 6.68492 6.0078 6.89123 5.98688 7.07404C5.96597 7.25684 6.02871 7.30907 6.06531 7.53367C6.10191 7.75826 5.98688 7.99329 5.93459 8.07164C5.88231 8.14998 5.99995 8.34063 5.98688 8.49993C5.97381 8.65923 5.80649 8.77414 5.75944 8.88382C5.71238 8.99351 5.79081 9.08752 5.75944 9.20243C5.72806 9.31733 5.61303 9.39829 5.56336 9.44008C5.51369 9.48186 5.50062 9.62027 5.45095 9.68556C5.40127 9.75085 5.29932 9.7848 5.23134 9.7848C5.16337 9.7848 5.0954 9.8762 5.00651 9.8762C4.91763 9.8762 4.90717 9.82136 4.86795 9.79785C4.82874 9.77435 4.64051 9.72473 4.57776 9.62027C4.51502 9.51581 4.50195 9.35912 4.42091 9.29122Z" fill="url(#paint0_linear_229_28621)"/>
<path d="M5.48321 5.39718C5.37869 5.21222 5.12859 5.10135 5.0166 5.06904C6.49858 4.7409 7.29052 5.62791 7.82322 6.76902C8.24938 7.68191 8.59454 8.87073 8.71385 9.35103L8.49854 12.1471L7.361 13.8415C7.32135 13.3311 7.40945 12.4643 7.4535 12.3015C7.49755 12.1387 7.40945 11.8307 7.33016 11.6459C7.25088 11.4611 7.39624 11.2499 7.40945 11.1003C7.42266 10.9507 7.33016 10.7175 7.29052 10.5503C7.25088 10.3831 7.41385 10.1147 7.33016 9.92107C7.24647 9.72746 7.15838 9.45466 7.176 9.25225C7.19362 9.04985 7.11873 8.87825 7.02183 8.71544C6.92492 8.55264 6.97778 8.39864 6.97778 8.29304C6.97778 8.18743 6.93373 8.14783 6.82361 7.92343C6.71349 7.69903 6.73111 7.68142 6.67385 7.38662C6.61659 7.09181 6.4492 7.06541 6.37432 6.86741C6.31442 6.70901 6.24057 6.55212 6.21113 6.49348C6.02448 6.2772 6.03941 6.33686 5.94609 6.26601C5.85277 6.19516 5.86023 5.9938 5.70345 5.82973C5.54667 5.66566 5.61386 5.62837 5.48321 5.39718Z" fill="url(#paint1_linear_229_28621)"/>
<path d="M10.4703 5.32141C8.7248 7.54886 7.65071 12.0753 7.32324 14H9.51034C9.77389 9.62805 10.6143 7.57587 11.0015 7.09627L10.4703 5.32141Z" fill="#FFCC2B"/>
<path d="M14.0978 10.4643C11.2008 9.75278 10.4766 6.73054 10.4766 5.32141H11.3592C11.3626 5.36181 11.3736 5.49772 11.3899 5.61369C11.4104 5.75866 11.5128 5.81044 11.5589 5.9347C11.605 6.05896 11.564 6.27123 11.6921 6.40067C11.8201 6.5301 11.7945 6.61294 11.8201 6.72167C11.8457 6.8304 11.8662 6.86664 12.0761 7.00643C12.286 7.14622 12.2348 7.36885 12.4243 7.44651C12.6138 7.52417 12.6138 7.62772 12.7571 7.75716C12.9005 7.8866 12.9415 7.86589 13.1463 7.86589C13.3511 7.86589 13.3614 7.9539 13.5559 7.9539C13.7505 7.9539 13.6942 7.86589 14.0978 7.86589C14.4206 7.86589 14.8339 7.4575 15.0002 7.25331L14.0978 10.4643Z" fill="url(#paint2_linear_229_28621)"/>
<defs>
<linearGradient id="paint0_linear_229_28621" x1="5.03619" y1="5.08667" x2="5.03619" y2="9.8762" gradientUnits="userSpaceOnUse">
<stop stop-color="#578EC9"/>
<stop offset="1" stop-color="#3D5D96"/>
</linearGradient>
<linearGradient id="paint1_linear_229_28621" x1="6.86523" y1="5" x2="6.86523" y2="13.8415" gradientUnits="userSpaceOnUse">
<stop stop-color="#578DC8"/>
<stop offset="1" stop-color="#325B7D"/>
</linearGradient>
<linearGradient id="paint2_linear_229_28621" x1="12.7384" y1="5.32141" x2="12.7384" y2="10.4643" gradientUnits="userSpaceOnUse">
<stop stop-color="#5994D8"/>
<stop offset="1" stop-color="#2F4E7C"/>
</linearGradient>
</defs>
</svg>
