<!-- by TradingView --><svg width="56" height="56" viewBox="0 0 56 56" xmlns="http://www.w3.org/2000/svg"><path fill="#6E6E6E" d="M0 0h56v56H0z"/><path d="M9.31 26H7.62c-.44-.78-.92-1.42-1.45-2.14H6v1.4c0 .35.3.43.6.47V26H4.37v-.27c.31-.04.63-.06.63-.45v-3.52c0-.37-.33-.43-.63-.49V21h2.35c1.11 0 1.81.46 1.81 1.25 0 .7-.46 1.04-1.19 1.28l.5.72c.27.4.53.8.84 1.17.18.2.37.28.63.3V26Zm-2.04-3.72c0-.66-.42-.96-1.02-.96H6v2.18h.24c.6 0 1.03-.43 1.03-1.22Zm6.35 3.61-1.56.11-.05-.05-.02-.6c-.41.4-.49.65-1.06.65-.75 0-.93-.49-.93-1.35v-1.74c0-.37-.31-.5-.62-.53v-.28l1.58-.1.04.06v2.57c0 .53-.05.78.3.78s.57-.24.7-.45v-2.09c0-.4-.32-.47-.64-.49v-.28l1.58-.1.06.06v2.98c0 .25.16.5.39.55l.23.02v.28ZM18 23.96c0 .9-.2 2.14-1.33 2.14-.38 0-.82-.15-1.13-.41l-.37.41-.17-.07V21.8c0-.32-.23-.46-.51-.48v-.23l1.47-.09.04.06v1.37c.28-.3.59-.44.88-.44 1.14 0 1.12 1.12 1.12 1.96ZM17 24c0-.65-.02-1.52-.5-1.52a.55.55 0 0 0-.5.25v2.55c.07.27.24.56.52.56.39 0 .48-.98.48-1.84Zm31 9.13c0 .88.25 1.87 1.35 1.87.37 0 1-.15 1.3-.4l.19.4.16-.07v-4.15c0-.32.23-.45.5-.47v-.23L50.04 30l-.04.05v1.38c-.27-.3-.57-.43-.85-.43-1.11 0-1.15 1.3-1.15 2.13Zm1 .03c0-.64.05-1.68.52-1.68.23 0 .36.08.48.24v2.48c-.07.26-.23.54-.5.54-.38 0-.5-.73-.5-1.58ZM23 22.25a.7.7 0 0 0-.52.41c-.38.85-.76 1.79-1.25 2.9-.13.31-.26.56-.4.75-.24.36-.45.54-.66.63a.85.85 0 0 1-.31.06c-.36 0-.7-.25-.7-.6 0-.06 0-.12.02-.18a.5.5 0 0 1 .5-.36c.25 0 .46.2.7.51a2.99 2.99 0 0 0 .5-.8c-.44-1-.9-1.97-1.37-2.94a.66.66 0 0 0-.51-.38V22h2.01v.25c-.26.01-.46.1-.36.34.15.32.44.91.8 1.7l.63-1.56c.09-.24-.05-.4-.31-.45l-.13-.03V22H23v.25Zm6.5 0h-.22c-.25-.88-.6-.94-1.28-.94v3.93c0 .42.37.45.63.49V26h-2.26v-.27c.26-.04.63-.02.63-.46v-3.96c-.67 0-1.03.06-1.28.94h-.22V21h4v1.25ZM47 33.97c-.4.65-1.1 1.03-1.85 1.03-1.18 0-2.15-.76-2.15-2.02A2 2 0 0 1 45.06 31c1.01 0 1.94.54 1.94 1.61v.37h-3c0 1.04.73 1.47 1.6 1.47.47 0 .85-.29 1.11-.69l.29.21Zm-1-1.44c0-.4-.24-1-.94-1-.39 0-1.04.16-1.06 1.01l2-.01Zm6-7.56c-.4.65-1.1 1.03-1.85 1.03-1.18 0-2.15-.76-2.15-2.02A2 2 0 0 1 50.06 22c1.01 0 1.94.54 1.94 1.61v.37h-3c0 1.04.73 1.47 1.6 1.47.47 0 .85-.29 1.11-.69l.29.21Zm-1-1.44c0-.4-.24-1-.94-1-.39 0-1.04.16-1.06 1.01l2-.01Zm-17 1.44c-.4.65-1.1 1.03-1.85 1.03-1.18 0-2.15-.76-2.15-2.02A2 2 0 0 1 32.06 22c1.01 0 1.94.54 1.94 1.61v.37h-3c0 1.04.73 1.47 1.6 1.47.47 0 .85-.29 1.11-.69l.29.21Zm-1-1.44c0-.4-.24-1-.94-1-.39 0-1.04.16-1.06 1.01l2-.01ZM39 26h-2.1v-.3c.35-.02.45-.06.3-.37a9.03 9.03 0 0 0-.52-.9l-.32.47c-.17.24-.66.8-.03.8v.3H35v-.3c.5-.12.76-.59 1.06-.96l.46-.59-.46-.77c-.26-.44-.45-1.02-1.01-1.09V22h2.04v.3c-.12 0-.37-.03-.3.15 0 .03.02.06.04.1a10.6 10.6 0 0 0 .5.9 20.77 20.77 0 0 1 .5-.76.64.64 0 0 0 .1-.2c0-.05-.03-.1-.07-.13a.7.7 0 0 0-.29-.07V22h1.34v.3c-.47.09-.75.57-1.02.92l-.4.5a224.24 224.24 0 0 1 .95 1.6c.12.21.24.34.56.39V26Zm3 8.72c-.29.15-.6.28-1.08.28-.7 0-.93-.4-.93-1.11v-2.23h-.62v-.41H40V30h1v1.25h.96v.41h-.95v1.98c0 .6.13.81.5.81.16 0 .35 0 .5-.05v.32Zm0-9c-.29.15-.6.28-1.08.28-.7 0-.93-.4-.93-1.11v-2.23h-.62v-.41H40V21h1v1.25h.96v.41h-.95v1.98c0 .6.13.81.5.81.16 0 .35 0 .5-.05v.32ZM15.67 35h-2.34v-.24c.3-.01.67-.03.67-.35v-3.58c0-.38-.47-.5-.84-.51v-.24l1.77-.08.07.05v4.32c0 .3.37.37.67.4V35Zm3 0h-2.34v-.24c.3-.01.67-.03.67-.35v-3.58c0-.38-.47-.5-.84-.51v-.24l1.77-.08.07.05v4.32c0 .3.37.37.67.4V35Zm29-9h-2.34v-.24c.3-.01.67-.03.67-.35v-3.58c0-.38-.47-.5-.84-.51v-.24l1.77-.08.07.05v4.32c0 .3.37.37.67.4V26ZM9.6 35H7.34v-.27l.25-.04c.24-.04.41-.15.41-.43v-3.73L6.72 35h-.38C6 33.5 5.46 31.94 5 30.47v3.04c0 .63.12 1.12.8 1.22V35H4v-.27c.68-.1.6-.52.6-1.18v-2.48c0-.48-.16-.76-.6-.8V30h1.87l1.05 3.3.7-2.68c.06-.2.12-.41.13-.62H9.6v.27c-.3.03-.6.09-.6.45v3.54c0 .37.32.42.6.47V35Zm10.88 0c-.36 0-.76-.1-1.08-.34l-.15.34H19v-1.5h.24c.18.64.68 1.18 1.2 1.18.4 0 .56-.18.56-.55 0-1.03-2-.5-2-1.93 0-.93.95-1.2 1.5-1.2.4 0 .74.11.96.22l.07-.22h.25l.05 1.33h-.23c-.16-.54-.53-1-.99-1-.33 0-.61.17-.61.46 0 1.08 2 .4 2 1.9 0 1.03-.9 1.31-1.52 1.31Zm8.28-1.6V35h-4.62v-.27c.35-.03.86-.02.86-.45v-3.52c0-.4-.52-.44-.86-.49V30h2.75v.27c-.35.03-.89.02-.89.45v3.29c0 .34.06.6.48.65l.53.02c1.06 0 1.02-.42 1.45-1.28h.3Zm9.68 1.6h-1.8v-.29c.25-.04.36-.1.36-.42v-1.84c0-.54-.13-.8-.4-.8-.3 0-.46.23-.6.48v2.11c0 .28.12.43.36.47V35h-1.72v-.29c.27-.03.36-.1.36-.42v-1.84c0-.54-.2-.8-.47-.8-.3 0-.39.23-.53.48v2.11c0 .28.12.43.37.47V35h-1.82v-.29c.26-.02.45-.1.45-.42V32c0-.33-.22-.52-.5-.55v-.29l1.45-.1.05.06v.55c.31-.36.53-.67 1-.67.46 0 .82.28.95.71h.02c.32-.38.62-.71 1.1-.71.62 0 .93.49.93 1.34v1.91c0 .3.18.43.44.46V35Zm-25.98 0h-1.92v-.3c.22-.01.46-.05.46-.43v-2.31c0-.39-.3-.53-.54-.57v-.29l1.5-.1.04.06v3.16c0 .35.25.46.46.49V35Z" fill="#fff"/><circle cx="11.5" cy="30.5" r=".5" fill="#fff"/><path d="M30.5 31a.5.5 0 1 0 0-1 .5.5 0 0 0 0 1Zm-.96 3.7v.3h1.92v-.3c-.21-.02-.46-.13-.46-.48v-3.16l-.05-.06-1.49.1v.3c.24.03.54.17.54.56v2.31c0 .38-.24.42-.46.44ZM43.5 22a.5.5 0 1 0 0-1 .5.5 0 0 0 0 1Zm-.96 3.7v.3h1.92v-.3c-.21-.02-.46-.13-.46-.48v-3.16l-.05-.06-1.49.1v.3c.24.03.54.17.54.56v2.31c0 .38-.24.42-.46.44Z" fill="#fff"/></svg>