<!-- by TradingView --><svg width="18" height="18" viewBox="0 0 18 18" xmlns="http://www.w3.org/2000/svg"><path fill="#F0F3FA" d="M0 0h18v18H0z"/><path fill-rule="evenodd" d="M3 12.12V5.85C3.86 5.23 6.26 4 8.95 4c2.7 0 5.16 1.23 6.05 1.85v6.27c-1.16.63-4 1.88-6.05 1.88S4.13 12.75 3 12.12Zm1-.62V6.48A9.63 9.63 0 0 1 8.96 5c2.25 0 4.3.99 5.04 1.48v5.02c-.97.5-3.33 1.5-5.04 1.5S4.94 12 4 11.5Zm2 .5V6h4.27c.98 0 1.73.7 1.73 1.55a1.5 1.5 0 0 1-.93 1.4l-.12.04v.1h.06c.58 0 .99.42.99.93v1.43c0 .32.35.5.5.55h-2.33c-.14-.08-.17-.25-.17-.32v-1.35c0-.44-.47-.67-.75-.75H8V12H6Zm2-5h1.05c.53 0 .95.38.95.84 0 .46-.42.83-.95.83H8V7Z" fill="#342067"/></svg>