<!-- by TradingView --><svg width="18" height="18" viewBox="0 0 18 18" xmlns="http://www.w3.org/2000/svg"><path fill="#F0F3FA" d="M0 0h18v18H0z"/><path fill="#D9241B" d="M5 5h8v8H5z"/><path fill="#BDC1C4" d="M6 6h6v6H6z"/><path d="M8.48 6.23c-.3.54-.38 1.1-.22 1.67.17.62.77 1.51 1.14 2.2.01.03.03.03.05.02.41-.18.84-.3 1.3-.33.02 0 .03-.02.03-.04V9.6c0-.03-.02-.04-.04-.03-.34.17-.66.22-.96.17-.46-.08-.7-.5-.42-.88.3-.42.74-.67 1.32-.73.02 0 .03-.02.03-.04V7.9c0-.03.01-.04.04-.04h.13c.03 0 .04.01.04.03l.01.2c0 .03.01.04.04.04.39.01.69.32.53.71-.1.24-.25.42-.48.56a.05.05 0 0 0-.02.05v.31a.05.05 0 0 0 .04.05c.3.02.55.16.74.41.05.2.06.39.02.59-.13.32-.31.6-.55.86-.35.34-.76.63-1.2.86a.08.08 0 0 0-.05.06l-.12.43a2.39 2.39 0 0 1-.87.98.03.03 0 0 1-.02-.02l-.08-.13v-.05c.31-.2.55-.46.71-.77l.12-.3a.02.02 0 0 0 0-.03.02.02 0 0 0-.03 0c-.36.12-.72.2-1.09.25-.85.1-1.46-.4-1.03-1.28.4-.62.93-1.09 1.6-1.41.02-.01.03-.03.02-.05l-.88-1.59a2.49 2.49 0 0 1-.1-2.4 2.96 2.96 0 0 1 .86-.93h.04c.05.03.08.07.07.13 0 .03 0 .05-.03.06-.27.2-.5.45-.69.75Zm2.82 2.31a.3.3 0 0 0-.14-.14.65.65 0 0 0-.26-.06c-.1 0-.22 0-.34.03a1.87 1.87 0 0 0-.94.52c-.13.16-.18.32-.12.43.02.06.07.11.14.15a.9.9 0 0 0 .26.06c.1 0 .21 0 .33-.03a1.87 1.87 0 0 0 .95-.52c.13-.16.17-.32.12-.44Zm-1.32 3.13.07.55c0 .03.01.04.04.02.28-.14.54-.32.79-.56.49-.36 1.34-1.58.03-1.66-.45-.02-.95.13-1.37.3-.02.01-.02.03-.01.05.2.42.34.85.45 1.3Zm-2.13 0c-.5.78.09 1.12.8 1.04a3.64 3.64 0 0 0 1.14-.32v-.04c.01-.23 0-.45-.04-.68a4.95 4.95 0 0 0-.42-1.2c-.02-.01-.03-.02-.05 0a3.6 3.6 0 0 0-1.43 1.2Z" fill="#1C1918"/></svg>