<!-- by TradingView --><svg width="56" height="56" viewBox="0 0 56 56" xmlns="http://www.w3.org/2000/svg"><path fill="#BCBA93" d="M0 0h56v56H0z"/><path fill-rule="evenodd" d="M4 33v-3.42l1.5-1.26V33H4Zm2.5 0H8v-6.79l-1.5 1.26V33ZM9 25.37V33h1.35v-8.77L9 25.37Zm2.35-1.98V33H13V22l-1.65 1.39ZM41 22H15v11h26V22Zm-8 1v9h1.69v-5.19l.66 5.19h1.24l.7-5.19V32H39v-9h-2.54L36 26.81 35.5 23H33Zm-17 7.3V29h1.83v1.24c0 .22.2.4.46.4.25 0 .45-.18.45-.4V29.1a.46.46 0 0 0-.2-.37l-1.62-1.1c-.58-.4-.92-1-.92-1.66V24.7c0-.94.84-1.7 1.88-1.7h.74c1.04 0 1.88.76 1.88 1.7v.92h-1.76v-.84c0-.23-.2-.41-.45-.41-.26 0-.46.18-.46.41v.63c0 .13.06.26.18.35l1.7 1.33c.5.4.79.97.79 1.57v1.64c0 .94-.84 1.7-1.88 1.7h-.74c-1.04 0-1.88-.76-1.88-1.7Zm11 0V29h1.83v1.24c0 .22.2.4.46.4.25 0 .45-.18.45-.4V29.1a.46.46 0 0 0-.2-.37l-1.62-1.1c-.58-.4-.92-1-.92-1.66V24.7c0-.94.84-1.7 1.88-1.7h.74c1.04 0 1.88.76 1.88 1.7v.92h-1.76v-.84c0-.23-.2-.41-.45-.41-.26 0-.46.18-.46.41v.63c0 .13.06.26.18.35l1.7 1.33c.5.4.79.97.79 1.57v1.64c0 .94-.84 1.7-1.88 1.7h-.74c-1.04 0-1.88-.76-1.88-1.7ZM22.67 23l-1.19 9h1.96l.1-1.47h.93l.16 1.47h1.81l-1.21-9h-2.56Zm1.64 6h-.65l.27-3.64.38 3.64Zm27.69.58V33h-1.5v-4.68l1.5 1.26ZM48 33h1.5v-5.53L48 26.21V33Zm-1 0v-7.63l-1.35-1.14V33H47Zm-2.35 0v-9.61L43 22v11h1.65Z" fill="#0A1254"/></svg>