<!-- by TradingView --><svg width="18" height="18" viewBox="0 0 18 18" xmlns="http://www.w3.org/2000/svg"><path fill="url(#aixzd5f42)" d="M0 0h18v18H0z"/><path fill-rule="evenodd" d="M9 13c3.31 0 6-1.79 6-4 0-2.2-2.69-4-6-4S3 6.8 3 9c0 2.21 2.69 4 6 4Zm0-.36c3.07 0 5.55-1.63 5.55-3.64 0-2-2.48-3.64-5.55-3.64S3.45 7 3.45 9c0 2.01 2.48 3.64 5.55 3.64Z" fill="url(#bixzd5f42)"/><path fill-rule="evenodd" d="M9 12.64c3.07 0 5.55-1.63 5.55-3.64 0-2-2.48-3.64-5.55-3.64S3.45 7 3.45 9c0 2.01 2.48 3.64 5.55 3.64Zm0-.36c2.77 0 5.01-1.47 5.01-3.28 0-1.81-2.24-3.28-5.01-3.28-2.77 0-5.01 1.47-5.01 3.28 0 1.81 2.24 3.28 5.01 3.28Z" fill="url(#cixzd5f42)"/><path d="M6.48 12.07c-.44 0-.9-.18-1.06-.27-.18-.29-.44-.8-.04-.5.4.3.98.36 1.22.35 1.87-.03 1.88-4.36 2.7-5.28.65-.73 1.38-.79 2.1-.58-1.3.11-1.81 1.25-2.06 2.07-.25.81-.32 1.49-.8 2.68a2.31 2.31 0 0 1-2.06 1.53Z" fill="url(#dixzd5f42)"/><defs><linearGradient id="aixzd5f42" x1="3.35" y1="3.12" x2="21.9" y2="24.43" gradientUnits="userSpaceOnUse"><stop stop-color="#1A1E21"/><stop offset="1" stop-color="#06060A"/></linearGradient><linearGradient id="bixzd5f42" x1="9" y1="5" x2="9" y2="13" gradientUnits="userSpaceOnUse"><stop stop-color="#EDEDED"/><stop offset="1" stop-color="#48484A"/></linearGradient><linearGradient id="cixzd5f42" x1="4.16" y1="10.74" x2="7.72" y2="9.43" gradientUnits="userSpaceOnUse"><stop stop-color="#A4A5A9"/><stop offset="1" stop-color="#5E5F61"/></linearGradient><linearGradient id="dixzd5f42" x1="11.4" y1="5.91" x2="5.71" y2="12.3" gradientUnits="userSpaceOnUse"><stop stop-color="#D1D2D4"/><stop offset=".22" stop-color="#F9F9F9"/><stop offset=".65" stop-color="#838488"/><stop offset=".81" stop-color="#D9DADC"/><stop offset=".96" stop-color="#A4A5A9"/></linearGradient></defs></svg>