<!-- by TradingView --><svg width="18" height="18" viewBox="0 0 18 18" xmlns="http://www.w3.org/2000/svg"><path fill="#F0F3FA" d="M0 0h18v18H0z"/><path d="M6.8 4h4.37c.1 0 .2.04.26.11l2.5 2.75c.04.05.07.12.07.18v3.94c0 .05-.02.1-.05.15l-1.85 2.73a.34.34 0 0 1-.29.14H9.85a.35.35 0 0 1-.28-.14l-2.03-2.81a.53.53 0 0 1-.04-.58l.5-.88 2.24 3.27c.06.09.16.14.28.14h.62c.12 0 .23-.06.29-.15l1.53-2.02c.02-.04.04-.1.04-.14V7.33a.27.27 0 0 0-.06-.17L11.1 5.12a.35.35 0 0 0-.27-.12h-3.7a.36.36 0 0 0-.23.09L5.1 7.15a.28.28 0 0 0-.1.2v3.3c0 .06.02.12.06.17l.02.02.02.04 1.45 1.99.04.05c.06.05.15.08.23.08h1.04c.09 0 .18-.03.24-.09l.23-.2.67 1-.24.2a.36.36 0 0 1-.23.09H6.16a.36.36 0 0 1-.23-.08.28.28 0 0 1-.05-.06l-1.79-2.69-.02-.03a.8.8 0 0 1-.02-.03.27.27 0 0 1-.05-.15v-3.9c0-.07.04-.15.1-.2l2.47-2.77A.36.36 0 0 1 6.8 4Zm3.88 7.63-.35.6s-3-3.52-3-4.7c0-1.18.75-1.77 1.67-1.77.92 0 1.67.76 1.67 1.77 0 .53-.34 1.06-.71 1.48l-.74-1.14a.68.68 0 0 0 .11-.34c0-.15 0-.59-.33-.59s-.33.3-.33.59c0 .59 1.97 2.98 1.97 2.98.22.34.24.76.04 1.12Z" fill="#0E4CA3"/></svg>