<!-- by TradingView --><svg width="18" height="18" xmlns="http://www.w3.org/2000/svg"><path fill="#F0F3FA" d="M0 0h18v18H0z"/><path d="M6.382 4.9c-.668.397-1.091.937-1.091 1.762 0 .896.576 1.41 1.5 1.807l4.576 1.962c.54.236.71.514.71.864 0 .198-.117.398-.283.535l.269-.164c.575-.348.937-.822.937-1.572 0-.961-.656-1.489-1.465-1.837l-4.452-1.91c-.436-.186-.87-.396-.87-.907a.93.93 0 01.17-.54z" fill="#086DA9"/><path d="M9.575 3L6.383 4.9a.93.93 0 00-.169.54c0 .51.434.721.87.908l1.477.633c-.242-.112-.514-.246-.514-.42 0-.154.141-.253.246-.315l1.182-.695c.537-.315.856-.724.856-1.338 0-.573-.373-1.002-.755-1.213zm.35 6.815c.235.104.314.186.314.315 0 .124-.112.238-.459.425l-.414.226 2.429 1.05c.166-.138.282-.338.282-.537 0-.349-.169-.627-.71-.863l-1.441-.616zm-3.379 2.777L5 13.491c.038.763.7 1.395 1.496 1.395.308 0 .6-.11.924-.297l1.537-.947-2.41-1.05z" fill="#80B0D5"/><path d="M12.086 5.25L9.253 6.91l2.438 1.05.295-.164c.55-.302.86-.724.86-1.337 0-.573-.377-.994-.76-1.21zM6.42 8.686a.754.754 0 00-.227.585c0 .551.486.737 1 .96l1.151.492c-.213-.094-.373-.206-.373-.34 0-.125.116-.216.282-.315l.605-.337L6.42 8.686z" fill="#A2D993"/><path d="M12.497 15c-.614-.46-1.268-.772-2.065-1.123l-3.68-1.586c-.924-.4-1.537-.935-1.537-1.835 0-.875.435-1.299 1-1.647l.205-.124a.756.756 0 00-.23.584c0 .552.486.738 1 .962l4.281 1.837c.745.311 1.427.847 1.427 1.759 0 .5-.196.95-.4 1.173z" fill="#35AF3B"/></svg>