<!-- by TradingView --><svg width="18" height="18" viewBox="0 0 18 18" xmlns="http://www.w3.org/2000/svg"><path fill="#F0F3FA" d="M0 0h18v18H0z"/><path d="m13.62 4.89-1.7 1.42A5.5 5.5 0 0 0 8.1 5.25c-1.18.1-2.24.71-2.34 1.92-.13 1.6 1.04 1.94 2.35 2.3l-.58.47-1.44 1.2-1.33 1.15a1.67 1.67 0 0 1-.65-.82c-.07-.2-.1-.51-.1-.97V5.1c0-.04.01-.07.06-.1a12.52 12.52 0 0 1 9.55-.11Z" fill="#0180C8"/><path d="m13.62 4.89.33.13c.02 0 .03.03.03.05-.02 1.76.07 4.41-.01 6.05-.02.4-.27.75-.59 1.04-.87.8-1.8 1.52-2.8 2.17-.43.29-1.08.66-1.59.67-.48.01-1.25-.44-1.65-.71-.92-.6-1.78-1.27-2.58-2l1.33-1.14a5.48 5.48 0 0 0 3.77 1.05c1.42-.1 2.6-1 2.36-2.46-.2-1.17-1.2-1.47-2.29-1.75l.55-.48 1.44-1.2 1.7-1.42Z" fill="#DD232B"/><path d="M10.48 7.51 9.93 8c-.34-.05-.8-.15-1.4-.28-.23-.05-.7-.16-.8-.39-.1-.28.2-.47.48-.49a3.5 3.5 0 0 1 2.27.68Z" fill="#0180C8"/><path d="M8.1 9.47c.7.1 1.33.23 1.9.42.32.1.35.49.08.65a.76.76 0 0 1-.34.07c-.8.05-1.54-.18-2.2-.67l.57-.47Z" fill="#DD232B"/></svg>