<!-- by TradingView --><svg width="18" height="18" viewBox="0 0 18 18" xmlns="http://www.w3.org/2000/svg"><path fill="#F0F3FA" d="M0 0h18v18H0z"/><path d="M5.06 11h2.26c-.07.42.01.74.24.95.23.21.58.32 1.04.32.46 0 .83-.1 1.1-.28.27-.19.43-.44.48-.75.06-.35 0-.61-.2-.78-.2-.17-.73-.36-1.6-.59a4.31 4.31 0 0 1-2.09-1.05c-.46-.48-.62-1.12-.48-1.95.15-.88.6-1.58 1.33-2.1A4.63 4.63 0 0 1 9.88 4c1.57 0 3.43.9 3.08 3H10.7c.11-.74-.24-1.26-1.13-1.26-.45 0-.79.08-1.02.25a.91.91 0 0 0-.41.65c-.05.3.03.53.22.67.2.13.71.3 1.54.53.92.25 1.62.62 2.1 1.1.49.48.66 1.18.5 2.09a3.19 3.19 0 0 1-1.4 2.2c-.75.51-1.7.77-2.81.77a4.01 4.01 0 0 1-2.6-.76c-.62-.5-.81-1.27-.64-2.24Z" fill="#5E97B4"/></svg>