<!-- by TradingView --><svg width="18" height="18" viewBox="0 0 18 18" xmlns="http://www.w3.org/2000/svg"><path fill="#F0F3FA" d="M0 0h18v18H0z"/><path fill-rule="evenodd" d="M9 15A6 6 0 1 0 9 3a6 6 0 0 0 0 12Zm0-.18A5.82 5.82 0 1 0 9 3.18a5.82 5.82 0 0 0 0 11.64Z" fill="#006C43"/><path fill-rule="evenodd" d="M9 13a4 4 0 1 0 0-8 4 4 0 0 0 0 8Zm0-.21A3.79 3.79 0 1 0 9 5.2a3.79 3.79 0 0 0 0 7.58Z" fill="#006C43"/><path d="M5.49 8.15c.17.25.15.44.12.5.2-.28.38-.26.46-.24.07.01.09-.05.09-.08-.11-.02-.32-.07-.3-.12.26-.04.32-.16.32-.28-.17.1-.29.16-.33.1.13-.1.18-.34.18-.44a.41.41 0 0 1-.12.18.53.53 0 0 0-.12.22l-.14-.28a.47.47 0 0 0-.1.14c-.02.06.16.18.2.24.03.05-.01.16-.04.22a3.2 3.2 0 0 0-.1-.24c-.04-.08-.19-.06-.12.08Zm.11 2.01a4.79 4.79 0 0 1-.6-.12l.6-.4-.34-.28h.72L6.4 9v.36l.6.4-.68.16.08.56-.3-.28v.48h.39c-.2.12-.61.35-.68.32.17-.16.15-.47.13-.6l-.34.24v-.48Zm1.07.84-.03.38.36.15-.38.09-.03.38-.2-.33-.39.1.25-.3-.2-.33.36.15.26-.29Zm1.9-5.53.16.22L9 5.6l-.17.21.16.22-.27-.08-.17.22V5.9l-.26-.09.27-.08.01-.27Z" fill="#006C43"/><path d="M9.69 6.67c.78-.89-.1-1.48-.64-1.67.84.56.82 1.14.43 1.52-.32.31-.98.29-1.48-.3 0 .32.89 1.28 1.69.45ZM11.6 11l.02.38.38.1-.38.14.01.38-.24-.3-.37.13.22-.32-.24-.3.38.1.23-.31Zm.65-2.54c.08-.02.13.12.15.19.07 0 .02-.2-.05-.26.05-.12.22-.36.17-.5-.12.15-.2.3-.22.35-.05-.03-.13-.11-.13-.16 0-.06.13-.28.2-.39-.02-.02-.05-.06-.07-.06-.03 0-.18.23-.25.34a.79.79 0 0 0-.45-.38c.05.27.35.42.47.5-.25.03-.4-.12-.6-.1.16.25.48.23.63.2l.15.14a.35.35 0 0 1-.25.02l-.33-.08c.08.07.25.23.33.23.1 0 .15-.02.25-.04ZM7 8h3.75l-.01.05c-.1.35-.17 1.36.26 2.56a.43.43 0 0 1-.05.24.52.52 0 0 1-.1.14V11H7.4a.44.44 0 0 1-.22-.38c0-.06.01-.1.03-.16v-.04l.04-.14a3.73 3.73 0 0 0-.23-2.22L7 8Zm.13.08a3.75 3.75 0 0 1 .17 2.4.52.52 0 0 0-.02.14c0 .16.1.26.16.3h3.37a.46.46 0 0 0 .07-.11.35.35 0 0 0 .03-.18 5.02 5.02 0 0 1-.27-2.55H7.13Zm4.23 1.57-.27-.53.75.46.45-.58-.05.38.18.2.58.11-.49.31.36.3-.71-.1.26.38.1-.16.17.12-.4.46-.13-.08.13-.23-.36-.38-.44.34.18-.61-.67.27.36-.66Z" fill="#006C43"/><path d="M9 8.68V8h-.2v.24h-.33c-.25 0-.47.13-.47.54 0 .4.22.4.46.4.23 0 .22.14.22.24 0 .2-.14.24-.2.24H8.2V9.5H8v.5h.2v-.17h.3c.16 0 .5-.03.5-.47C9 9 8.74 9 8.55 9s-.35-.05-.35-.22c0-.3.17-.34.37-.34.17 0 .23.07.23.1l.2.14Z" fill="#006C43"/><path d="M9.68 9H9v.33c.3 0 .67.09.67.3 0 .4-.87.41-1.34.37v.8H8v.2h1.12v-.2h-.28v-.6c.8-.03 1.16-.2 1.16-.7 0-.4-.21-.5-.32-.5ZM8.4 12.45c.09-.06.2-.17.22-.34.21.15.3.1.36-.1.14.22.26.2.38.05 0 .22.06.36.18.38l-.21.18c-.12.1-.23.22-.28.33a1.7 1.7 0 0 0-.65-.5Zm-.1 0 .03.03h.01a1.63 1.63 0 0 1 .69.53l.02.04.02-.04c.05-.11.16-.24.29-.36l.28-.22.05-.02c.24-.05.72-.16.72-.47 0-.28-.37-.5-.55-.57-.04-.12-.2-.37-.5-.37s-.42.2-.43.3a.9.9 0 0 0-.46-.15c-.19 0-.48.33-.6.5-.1.05-.28.2-.28.36 0 .13.12.16.26.2l.2.07.25.17Z" fill="#006C43"/><path d="M12.94 12.84a5.48 5.48 0 0 1-8.07-.2l.69-.7a4.52 4.52 0 0 0 6.8.09l.58.81Zm1.13-1.72A5.48 5.48 0 0 0 9 3.5a5.5 5.5 0 0 0-4.9 8l.84-.5a4.53 4.53 0 1 1 8.32-.46l.81.58Z" fill="#006C43" fill-opacity=".5"/></svg>