<!-- by TradingView --><svg width="56" height="56" viewBox="0 0 56 56" xmlns="http://www.w3.org/2000/svg"><path fill="#F0F3FA" d="M0 0h56v56H0z"/><path d="M18.86 12h8.7v.57h-8.5A74.2 74.2 0 0 0 15 16.25a24 24 0 0 0-1.75 1.89c-.22.27-.4.51-.5.71a.97.97 0 0 0-.17.4v16.97c.54 1.63 2.55 5.3 6.46 7.2h8.53V44H18.9l-.06-.03A13.9 13.9 0 0 1 12 36.35v-17.1c0-.22.1-.45.23-.68.14-.24.33-.5.56-.8.47-.56 1.1-1.23 1.8-1.92a74.95 74.95 0 0 1 4.19-3.78l.08-.07Z" fill="#746A6B"/><path d="M15 28.72c0-8.46 5.09-14.66 7.65-16.72l.35.45a22.16 22.16 0 0 0-7.43 16.27c0 8.25 4.37 13.32 6.52 14.8l-.32.48C19.48 42.42 15 37.18 15 28.72ZM37.14 12h-9.83v.57h9.62a74.2 74.2 0 0 1 4.08 3.68 24 24 0 0 1 1.75 1.89c.22.27.4.51.5.71.13.21.17.34.17.4v16.97a13.36 13.36 0 0 1-6.46 7.2h-9.66V44h9.8l.05-.03c4.16-2 6.28-5.9 6.83-7.62l.01-.05V19.25c0-.22-.1-.45-.23-.68-.14-.24-.33-.5-.56-.8-.47-.56-1.1-1.23-1.8-1.92a74.95 74.95 0 0 0-4.19-3.78l-.08-.07Z" fill="#746A6B"/><path d="M26.43 19.62H12.35V19h14.08v.62Zm0 9H12.35V28h14.08v.62Zm0 8H12.35V36h14.08v.62Z" fill="#746A6B"/><path d="M21 27.87c0-9.39 3.7-14.47 5.63-15.87l.37.5c-1.73 1.25-5.38 6.13-5.38 15.37 0 9.26 3.03 14.33 4.47 15.68l-.42.45C24.07 42.5 21 37.24 21 27.87Zm20 .85c0-8.46-5.09-14.66-7.65-16.72l-.35.45a22.16 22.16 0 0 1 7.43 16.27c0 8.25-4.37 13.32-6.52 14.8l.32.48C36.52 42.42 41 37.18 41 28.72Z" fill="#746A6B"/><path d="M29.57 19.62h14.08V19H29.57v.62Zm0 9h14.08V28H29.57v.62Zm0 8h14.08V36H29.57v.62Z" fill="#746A6B"/><path d="M35 27.87c0-9.39-3.7-14.47-5.63-15.87l-.37.5c1.73 1.25 5.38 6.13 5.38 15.37 0 9.26-3.03 14.33-4.47 15.68l.42.45c1.6-1.5 4.67-6.76 4.67-16.13Z" fill="#746A6B"/><path d="M25 17h6v2h5.82c.63 4.7 1.95 14.36 2.18 15.68-.77.84-2.22 1.1-2.85 1.32H33v2H23v-2h-3.15c-.63-.23-2.08-.48-2.85-1.32.23-1.32 1.55-10.98 2.18-15.68H25v-2Z" fill="#2C2A2D"/><path d="M36.15 20.61c.26-.03.52-.02.77.02.09 0 .1.08.04.1a2.2 2.2 0 0 1-1.88.11.15.15 0 0 1-.06-.04.07.07 0 0 1-.02-.05.94.94 0 0 1 .38-.68.4.4 0 0 1 .3-.07c.1.02.19.08.2.15l.13.4c.01.04.08.07.14.06ZM25 20.33c.01-.27.4-.24.67-.32.05-.02.1 0 .11.08l.2.7c.04.11.01.18-.08.18l-.41.03c-.06 0-.1-.03-.12-.1a1.55 1.55 0 0 0-.37-.57Zm-1.35 1.06a.43.43 0 0 1-.42-.18.11.11 0 0 1-.02-.09.1.1 0 0 1 .04-.07c.39-.26 1.72.5 1.75.97 0 .07-.02.11-.07.15-.35.25-1.1.94-1.5.82a.17.17 0 0 1-.11-.14c-.01-.07.02-.14.06-.17l.7-.5a.08.08 0 0 0 .03-.07.08.08 0 0 0-.03-.06l-.3-.18a.24.24 0 0 0-.15-.03l-.54.07h-.03c-.04-.01-.06-.04-.06-.08-.02-.48.45-.16.6-.06.07.04.11.02.12-.08l.02-.2c0-.07-.03-.1-.1-.1Zm2.36.15c.18-.34.67-.74.96-.43.04.05.04.16-.01.2-.2.15-.35.36-.46.63-.03.06-.08.08-.11.05l-.35-.3c-.04-.03-.05-.1-.03-.15Zm-.28.49-.67.57c-.07.05-.08.16-.03.24l.04.08c.05.08.14.1.2.05l.67-.57c.07-.05.08-.16.03-.24l-.04-.08c-.05-.08-.14-.1-.2-.05Zm9.57 2.88-.28-.42a.1.1 0 0 1 .01-.13c.24-.27.34-.6.27-1 0-.05 0-.1.03-.16.17-.33.22-.68.15-1.06a.1.1 0 0 1 .1-.13l1.19-.01c.05 0 .1.06.09.11-.1.51-.1 1 .03 1.49s.11.8.1 1.25c0 .06-.03.1-.09.1l-1.43.05a.18.18 0 0 1-.16-.09Zm-8.03-2.09c.25.21.55.24.68.07.12-.18.02-.5-.22-.7-.25-.22-.55-.25-.68-.08-.12.18-.02.5.22.7Zm-5.21.18c-.04 0-.05-.04-.05-.08-.05-.4.12-.82.4-.9.27-.09.54.2.59.61 0 .04 0 .1-.03.1l-.91.27Z" fill="#F8F8F8"/><path d="M24.06 23.8a.17.17 0 0 0-.06-.15.12.12 0 0 0-.13-.01l-.68.42c-.13.07-.25-.12-.16-.24l.53-.7a.3.3 0 0 1 .26-.12c.1 0 .18.06.24.15.28.46.64.8 1.08 1.03.05.03.07.08.06.15l-.07.28c-.01.06.02.12.07.12l.75.05c.05 0 .09-.01.12-.04l.78-.57c.04-.04.1-.03.13.02s.02.13-.02.17c-.84.83-1.52 1.84-2.38 2.62-.05.04-.08.03-.1-.03 0-.01.44-.76.5-.93.03-.12-.08-.22-.17-.16a.84.84 0 0 1-.52.18.24.24 0 0 1-.2-.1l-.85-1.22c-.04-.05-.04-.1.02-.13.26-.14.78-.43.8-.8Z" fill="#F8F8F8"/><path d="M26.24 23.24c-.23.24-.31.55-.17.69.15.14.45.07.69-.17.23-.24.31-.54.17-.69-.15-.14-.45-.06-.69.17Zm11.36 8.5.2.18c.03.02.04.05.03.08 0 .03-.03.05-.06.06l-.3.11c-.05.02-.09.07-.08.12 0 .06.05.1.11.1l.4.06a.1.1 0 0 1 .07.05c.02.03.01.06 0 .08l-.27.38c-.03.05-.07.05-.12.02a2.3 2.3 0 0 0-1.25-.33c-.2 0-.28-.1-.23-.3v-.07a.13.13 0 0 0-.05-.06c-.28-.2-.36-.45-.25-.76v-.05c-.02-.06-.11-.1-.17-.13a.14.14 0 0 1-.07-.11l-.06-.95c0-.08-.06-.12-.12-.17-.06-.06-.05-.09.04-.1l.63-.08c.05 0 .1-.05.1-.1s-.04-.1-.1-.1l-.51-.07a.24.24 0 0 1-.15-.08c-.3-.35-.3-.67 0-.96a.4.4 0 0 0 .09-.12c.07-.15.04-.26-.09-.32a.34.34 0 0 1-.12-.1c-.4-.52-.43-1.28.43-1.43.05 0 .09-.05.08-.1-.01-.1-.08-.17-.19-.22a.11.11 0 0 1-.07-.1c0-.05.04-.09.1-.1.28-.09.57-.1.86-.02.06.01.1.06.1.11v.26c0 .05.03.09.08.12.26.14 1.3.69.5.99-.08.03-.08.06 0 .1l.17.1c.04.02.06.06.06.1l.02.83c0 .14.23.18.22.33l-.05.66c0 .06.01.1.04.15.1.17.17.35.19.55 0 .04-.02.08-.06.1l-.24.12c-.06.04-.07.08-.03.13l.47.52c.04.04.06.1.04.16-.04.16-.16.24-.35.26-.04 0-.07.04-.06.07 0 .01 0 .02.02.03Zm-11.57-5.23c-.05-.08-.03-.2.03-.25l.94-.83c.16-.14.75-.65.94-.32l.03.05c.18.3-.4.84-.55.98l-.94.83a.13.13 0 0 1-.2-.05l-.25-.4Zm-1.43 1.4c.28-.15.45-.46.39-.69-.06-.23-.33-.29-.6-.13-.27.15-.44.46-.38.69.06.23.33.29.6.13Zm5.18.41c2.03-.32 2.83 1.69 1.72 3.2a.15.15 0 0 0-.02.16c.52 1.27.5 2.73-.91 3.3-.7.27-1.63.12-2.45.2-.06 0-.09.03-.1.09-.03.63.17 1.38-.32 1.7a.15.15 0 0 1-.14.02c-.6-.25-.56-1.04-.56-1.6a.28.28 0 0 0-.26-.27c-.68-.04-1.65.03-2.21-.15a2.14 2.14 0 0 1-1-3.47.15.15 0 0 0 .04-.14c-.25-.85-.2-1.63.12-2.34.43-.94 1.4-.98 2.37-.97.06 0 .1-.03.12-.08.6-1.36 2.3-1.16 3.07-.18l.37.48c.04.04.1.06.16.05Zm7.35 4.92c.26-.04.91.12.87.52-.02.16-.17.27-.3.23a.86.86 0 0 1-.56-.45.23.23 0 0 0-.2-.14l-.83-.1c-.06 0-.1-.06-.11-.12 0-.07.04-.13.1-.15a.9.9 0 0 1 .8.16c.08.05.15.07.23.05Zm.83 1.66c.03 0 .04.03.04.05 0 .03-.03.04-.06.04-.13.01-.24.02-.37-.04a3.7 3.7 0 0 0-1.45-.38c-.1 0-.15-.1-.1-.16l.24-.36c.03-.05.08-.06.15-.04l.89.35c.05.02.1.05.12.1.12.2.3.35.54.44Z" fill="#F8F8F8"/><path d="M27.86 34.22c.17-.02.3-.08.4-.18.76-.67 1.43-1.3 2.66-1.34a.1.1 0 0 1 .04.01l.03.02.01.03-.01.03-1.12 1.22a.28.28 0 0 1-.14.08c-.83.19-1.38.32-1.65.4-.55.14-.44 1.12-.39 1.44 0 .04-.03.07-.08.07-.34 0-.34-1.08-.36-1.26-.07-.76-1.98-.18-2.19-1.15a.16.16 0 0 0-.08-.1l-.94-.59c-.07-.04-.04-.12.04-.14 1.8-.3 1.76.91 2.99 1.4.06.03.1.01.1-.04.02-.5-.07-1.01.1-1.48l.23-.6c.02-.05.04-.05.08 0 .64.83.03 1.35.19 2.14 0 .03.05.05.09.04Z" fill="#716768"/></svg>