<!-- by TradingView --><svg width="56" height="56" viewBox="0 0 56 56" xmlns="http://www.w3.org/2000/svg"><path fill="#F0F3FA" d="M0 0h56v56H0z"/><path d="M13 13h30v30H13V13Z" fill="#000031"/><path d="m23 21-.47-5c-2.51 0-7.09.16-8.53 2.56V14h16.9c-3.37 1.03-7.49 3.83-7.98 9l-.04.02c-.8.35-2.24.98-3.53.98-1.3 0-2.36-.5-2.36-1.31 0-1.03 1.41-1.69 3.47-1.69H23Zm13.83-7A7.3 7.3 0 0 1 39 15l-4.19 4.54a5.52 5.52 0 0 0-2.06-.54c-.95 0-3.76.6-3.76 3.68S32.4 28 34.82 28s3.2-1.2 3.2-1.74c0-.43-.4-.9-.6-1.08L35 26.46l-2-3.96.86-.5c2.3-1.3 5.74-3.26 6.66-3.72.58.37 1.07.98 1.47 1.76V14h-5.17ZM42 29.8c-1.84 2.67-6.02 4.7-9.36 4.7-3.14 0-4.45-.77-5.64-1.5-2.06 3.55-6.1 5-8.88 5-1.57 0-3.09-.53-4.12-.96V42h28V29.8Zm-28 1.65a14.3 14.3 0 0 0 4.48 1.05C21 32.5 21 31.12 21 30.48v-.05c0-.62-.12-1.43-.75-1.43-.24 0-.6.14-1.08.31-.78.3-1.82.69-2.94.69a4.54 4.54 0 0 1-2.22-.52v1.97Z" fill="#CE0000"/><path fill="#F0F3FA" fill-opacity=".7" d="M14 39h28v3H14z"/></svg>