<!-- by TradingView --><svg width="56" height="56" viewBox="0 0 56 56" xmlns="http://www.w3.org/2000/svg"><path fill="#F0F3FA" d="M0 0h56v56H0z"/><path d="M29.27 18C21.7 18 15.5 23.02 9 28c6.27-3.63 12.44-8 20.27-8S41.8 23.42 47 28c-6.56-7.64-12.54-10-17.73-10Z" fill="url(#an43pn2r3)"/><path d="m9 28 1.68-1.28C15.06 23.66 22.79 19 29.08 19c8.52 0 14.23 5.25 17.43 8.57-5-4.37-9.66-7.57-17.24-7.57-6.93 0-12.55 3.44-18.1 6.72L9 28Z" fill="#284B8B"/><circle cx="28.5" cy="14.5" r="1.5" fill="#284B8A"/><circle cx="28.09" cy="14.09" r=".91" fill="#7AA4CE"/><path d="M31.2 16c1.99.45 8.23 2.21 8.23 6.14 0 2.25-2.24 4.5-3.83 5.72l.03-.03c1.63-1.45 3.12-2.77 3.12-4.87 0-2.19-2.25-4.8-7.75-6.96h.2Z" fill="#284B8B"/><path d="M31.2 16c1.99.45 8.23 2.21 8.23 6.14 0 2.25-2.23 4.5-3.83 5.72l-.16.14c1.73-.72 4.56-2.7 4.56-6.16 0-4.65-5.74-5.82-8.8-5.84Z" fill="url(#bn43pn2r3)"/><path d="M12 33.66c0 1.4-1.12 2.34-2.56 2.34-1.19 0-2.15-.66-2.44-1.77l.86-.4c.2.76.7 1.4 1.58 1.4.87 0 1.6-.55 1.6-1.42 0-1.75-3.78-1.63-3.78-3.94C7.26 28.7 8.36 28 9.5 28c.88 0 1.67.38 2.07 1.15l-.79.48c-.29-.48-.74-.87-1.35-.87-.67 0-1.21.45-1.21 1.1 0 1.98 3.78 1.4 3.78 3.8ZM13 36v-8h1v3.9c.37-.6.68-.9 1.34-.9.96 0 1.66.73 1.66 1.78V36h-1v-2.59c0-.8-.12-1.41-.92-1.41-1.05 0-1.08.82-1.08 1.75V36h-1Z"/><path fill-rule="evenodd" d="M23 36v-5h-1.02v1.04c-.36-.66-.86-1.04-1.65-1.04-1.51 0-2.33 1.18-2.33 2.5s.86 2.5 2.38 2.5c.77 0 1.25-.41 1.62-1.04V36h1Zm-2.51-4c-.96 0-1.49.65-1.49 1.46 0 .85.5 1.54 1.51 1.54.97 0 1.49-.66 1.49-1.47 0-.8-.56-1.53-1.51-1.53ZM44 36v-5h-1.02v1.04c-.36-.66-.86-1.04-1.65-1.04-1.51 0-2.33 1.18-2.33 2.5s.86 2.5 2.38 2.5c.77 0 1.25-.41 1.62-1.04V36h1Zm-2.51-4c-.97 0-1.49.65-1.49 1.46 0 .85.5 1.54 1.51 1.54.97 0 1.49-.66 1.49-1.47 0-.8-.56-1.53-1.51-1.53ZM29 36v-8h-1.02v4.04c-.36-.66-.86-1.04-1.65-1.04-1.51 0-2.33 1.18-2.33 2.5s.86 2.5 2.38 2.5c.77 0 1.25-.41 1.62-1.04V36h1Zm-2.51-4c-.96 0-1.49.65-1.49 1.46 0 .85.5 1.54 1.51 1.54.97 0 1.49-.66 1.49-1.47 0-.8-.56-1.53-1.51-1.53Z"/><path d="M37 36v-2.57c0-.8-.22-1.45-1.14-1.45-1.14 0-1.36.91-1.36 1.8V36h-1v-2.57c0-.8-.29-1.45-1.21-1.45-1.16 0-1.29.9-1.29 1.8V36h-1v-5h1v.92c.4-.6.9-.92 1.64-.92.74 0 1.4.32 1.72.98a2.13 2.13 0 0 1 1.82-.98c1.1 0 1.82.69 1.82 1.71V36h-1Zm8 0v-5h1v.92c.37-.6.68-.92 1.34-.92.96 0 1.66.64 1.66 1.71V36h-1v-2.55c0-.83-.12-1.45-.92-1.45-1.02 0-1.08.85-1.08 1.8V36h-1Z"/><defs><linearGradient id="an43pn2r3" x1="28" y1="18" x2="28" y2="28" gradientUnits="userSpaceOnUse"><stop stop-color="#669DF0"/><stop offset=".11" stop-color="#426EB7"/></linearGradient><linearGradient id="bn43pn2r3" x1="35.6" y1="16" x2="35.6" y2="28" gradientUnits="userSpaceOnUse"><stop stop-color="#4B7EBF"/><stop offset="1" stop-color="#365FA0"/></linearGradient></defs></svg>