<!-- by TradingView --><svg width="56" height="56" viewBox="0 0 56 56" xmlns="http://www.w3.org/2000/svg"><path fill="#F0F3FA" d="M0 0h56v56H0z"/><path d="M27.85 23 27 24.3h.46c0 .15.06.5.32.7.36-.9.2-1.71.07-2ZM30 26.57v-3.8l-.04-.42c-.02-.2-.16-.35-.33-.35a.3.3 0 0 0-.28.23 7.67 7.67 0 0 0 0 4.53.3.3 0 0 0 .3.24c.2 0 .35-.2.35-.43ZM24 10h8v2h-8zm-3 31h14v3H21z" fill="#3A275E"/><path d="M35.2 13H20.8a4.64 4.64 0 0 0-4.44 3.72l-4.3 20.26c-.33 1.53.8 3 2.35 3.02h27.18a2.48 2.48 0 0 0 2.35-3.02l-4.3-20.26A4.64 4.64 0 0 0 35.2 13Zm-7.42 3c.49.03 1.58.38 2.02 1.52A5.15 5.15 0 0 1 31.72 16c.12.15.36.57.36 1.07 0 .24-.13.46-.29.74a3.8 3.8 0 0 0-.62 2.12c0 .91.26 1.72.5 2.47.22.64.41 1.24.41 1.81 0 1.25-.36 3.49-2.1 4.91a22.2 22.2 0 0 1-2-2.3c-.8-.98-1.55-1.93-1.94-2.16-.46 0-1.04.36-1.04 1.34 0 .98.31 1.34 1.04 1.34.4 0 .6-.13.76-.23A.75.75 0 0 1 27 27c0 .85-.32 1.32-.6 1.72-.21.31-.4.58-.4.96 0 .45.4 1.32 1.42 1.32.8 0 1.92-.67 2.38-1 .3.36 1.08 1 1.74 1h.83c.33-.02.63.13.63.46 0 .3-.25.54-.55.54h-6.77C25 31.94 24 31.55 24 29.48v-2.94c-.03-.33-.41-1.25-1-1.54-.06.1-.13.19-.22.3-.32.41-.78 1-.78 2.13v1.7c.7.8 2.12 2.58 2.49 3.87h5.96c.3 0 .55.24.55.54 0 .22-.25.46-.55.46h-5.14c-.98 0-3.3-.21-3.3-1.93V31H21v1.79c.12.56 1.23 1.75 4.31 1.96 2.32.16 3.58.27 4.24.32.24.02.43.22.43.46 0 .26-.22.47-.48.47H22c-.67-.03-2.01-.71-2.01-3.21v-5.72c.15-1.67 1.19-5.05 4.12-5.27 3.66-.26 4.03-.53 4.94-2.4a4.82 4.82 0 0 1-1.28-3.4Z" fill="#3A275E"/></svg>