<!-- by TradingView --><svg width="18" height="18" viewBox="0 0 18 18" xmlns="http://www.w3.org/2000/svg"><path fill="#F0F3FA" d="M0 0h18v18H0z"/><g clip-path="url(#aka0vorwc)"><path d="M5.13 5.34c.85-1.49 2.61-1.79 3.85-.64l.02.01h.03c1.25-1.15 2.98-.87 3.85.63l.02.02.03.01c1.26.18 2.15.84 2.7 1.97.97 2.05-.04 4.55-2.1 5.16-.17.05-.4.08-.6.12a.07.07 0 0 0-.05.04c-.86 1.48-2.61 1.79-3.85.64h-.05c-1.27 1.14-3 .85-3.87-.65a.07.07 0 0 0-.05-.04c-2.27-.23-3.69-2.74-2.78-5.03.51-1.32 1.5-2 2.8-2.2.02 0 .04-.02.05-.04Zm3.84 7.67c.03-.02.05-.02.07 0 1.16 1.24 2.95.94 3.73-.58a.06.06 0 0 1 .05-.03c2.2-.15 3.6-2.54 2.71-4.75a3.14 3.14 0 0 0-2.72-2.07.06.06 0 0 1-.04-.03C11.9 4 10.23 3.8 9.02 4.99a.04.04 0 0 1-.06 0c-1.15-1.23-2.92-.94-3.72.56a.1.1 0 0 1-.03.03.09.09 0 0 1-.05.02c-2.7.15-3.92 3.72-2.06 5.79a3.07 3.07 0 0 0 2.12 1.03l.02.02c.79 1.53 2.57 1.78 3.73.57Z" fill="#CE000C"/><path d="M8.97 13.01c-1.16 1.21-2.94.96-3.73-.57a.07.07 0 0 0-.02-.02l-.03-.01a3.07 3.07 0 0 1-2.09-1.02c-1.86-2.07-.64-5.64 2.06-5.8h.05a.1.1 0 0 0 .03-.04c.8-1.5 2.57-1.79 3.72-.56l.03.02c.01 0 .02 0 .03-.02 1.2-1.19 2.9-1 3.75.56 0 .02.02.03.04.03 1.33.16 2.24.85 2.72 2.07.89 2.2-.52 4.6-2.7 4.75a.06.06 0 0 0-.06.03c-.78 1.52-2.57 1.82-3.72.58-.03-.02-.05-.02-.08 0Zm0-.88.02-.01h.03c.81 1.63 2.81 1.5 3.45-.19 0-.02.02-.03.04-.03.86.02 1.56-.28 2.09-.9 1.67-1.96.33-4.94-2.09-4.9-.02 0-.03-.01-.04-.03-.64-1.7-2.63-1.8-3.44-.2l-.01.01a.03.03 0 0 1-.04 0v-.01c-.78-1.62-2.84-1.49-3.45.21 0 .01 0 .02-.02.02l-.02.01c-2.96-.16-3.88 4.15-1.3 5.52a2.36 2.36 0 0 0 1.32.26l.02.03c.6 1.68 2.68 1.85 3.44.21Z" fill="#FDF21E"/><path d="M8.97 12.13c-.76 1.64-2.83 1.47-3.44-.21a.05.05 0 0 0-.02-.03h-.03c-.47.03-.9-.06-1.28-.26-2.6-1.37-1.67-5.68 1.28-5.53h.03l.02-.03c.61-1.7 2.67-1.83 3.44-.21l.01.01a.03.03 0 0 0 .03 0l.02-.01c.81-1.6 2.8-1.5 3.44.2 0 .02.02.03.04.03 2.42-.04 3.76 2.94 2.09 4.9-.53.62-1.23.92-2.09.9-.02 0-.03 0-.04.03-.64 1.7-2.64 1.82-3.44.2l-.01-.01h-.03l-.02.01Z" fill="#CE000C"/><path d="m5.76 9.85.08.11a.05.05 0 0 1 0 .07l-.34.36-.03.01h-.02l-.17-.15a.05.05 0 0 0-.05-.01c-.52.17-1.15.32-1.6-.09-.34-.3-.41-.8 0-1.09.5-.35 1.4.14 1.83.48l.03.02.03-.01.03-.03V9.5a.5.5 0 0 0-.2-.4c-.45-.34-2.06-1.2-1.16-2 .42-.36.9-.38 1.41-.05.02 0 .02.02.01.04l-.3.45-.03.03-.03-.01c-.2-.15-.82-.42-.96-.06a.2.2 0 0 0 0 .14c.01.05.04.08.08.1.45.23 1.15.63 1.39 1.02.17.3.17.63 0 1.01a.06.06 0 0 0 0 .07Zm-.86.04c-.29-.26-.67-.54-1.05-.5a.11.11 0 0 0-.06.02.13.13 0 0 0-.04.06.14.14 0 0 0 .02.13c.28.38.71.39 1.12.33h.01l.01-.01V9.9Zm1.8-.61.64-.52a.02.02 0 0 1 .02 0l.45 1.09v.02l-.39.38a.02.02 0 0 1-.02 0h-.01l-.32-.65h-.02a.02.02 0 0 0-.02 0l-.84.7h-.02l-.01-.02V7.46h.01l.47-.2a.02.02 0 0 1 .02 0v2l.01.01.01.01a.02.02 0 0 0 .02 0Zm1.61.29c0 .4.44.43.63.2A.07.07 0 0 1 9 9.75h.55c.03 0 .04.01.03.05-.34.86-1.6.87-1.69-.16-.1-1.22 1.52-1.38 1.6-.15l-.01.02v.01l-.02.01H8.34c-.02 0-.03.02-.03.04Zm.03-.37.46-.02v-.01a.2.2 0 0 0-.13-.19.2.2 0 0 0-.08-.01h-.06a.21.21 0 0 0-.2.22Z" fill="#FDF21E"/><path d="M9.85 10.52a5.51 5.51 0 0 1 2.9.1l-.01.02-.48.48a.05.05 0 0 1-.05.01 5.56 5.56 0 0 0-3.28-.1.03.03 0 0 1 0-.03l1.23-1.82a.02.02 0 0 0 0-.02v-.01H9.6c-.03 0-.04-.02-.04-.05v-.4c0-.03.01-.05.04-.05h1.34c.03 0 .06.05.04.07L9.83 10.5a.02.02 0 0 0 0 .02v.01h.01Z" fill="#FDF21E"/><path d="M12.3 9.39a.82.82 0 0 1 .5.03.1.1 0 0 1 .05.03.1.1 0 0 1 .02.05v.55c0 .02 0 .03-.03.01-.29-.17-.55-.15-.87-.09-.2.05-.69.14-.88.04-.35-.2-.37-.7-.14-.98.36-.43 1.02-.47 1.5-.28a.05.05 0 0 1 .03.02.06.06 0 0 1 0 .05l-.2.54a.03.03 0 0 0 .02.03Zm-.18 0a.93.93 0 0 0-.92-.1c-.07.03-.1.1-.08.18 0 .02 0 .04.02.05.3.24.69.04.97-.1.03 0 .03-.02 0-.04Zm1.74.16-.82.6h-.02l-.02-.02V8.66a.03.03 0 0 1 .02-.02l.43.02.02.01v.5l.01.01.01.01a.03.03 0 0 0 .03 0l.64-.48h.01a.02.02 0 0 1 .02 0l.01.01.42 1.08v.04l-.37.36a.03.03 0 0 1-.02 0h-.01l-.01-.01-.32-.63-.01-.01a.02.02 0 0 0-.03 0Z" fill="#FDF21E"/><path d="M8.34 9.18h-.01c0-.06.02-.1.05-.15a.22.22 0 0 1 .15-.06h.06a.22.22 0 0 1 .15.05l.05.06.02.07v.01l-.47.02Z" fill="#CE000C"/></g><defs><clipPath id="aka0vorwc"><path transform="translate(2 4)" d="M0 0h14v10H0z"/></clipPath></defs></svg>