<!-- by TradingView --><svg width="18" height="18" viewBox="0 0 18 18" fill="none" xmlns="http://www.w3.org/2000/svg">
<rect width="18" height="18" fill="#F0F3FA"/>
<path d="M8.76489 4H8.90551C11.6397 4.07244 13.834 6.05511 14 8.81244V9.21467C13.826 11.8898 11.7438 13.8436 9.0893 14H8.57042C6.58833 13.8813 4.8746 12.736 4.07847 10.9329C4.06868 10.911 4.06408 10.8924 4.06467 10.8773C4.06486 10.8724 4.06669 10.8676 4.06987 10.8637C4.07306 10.8599 4.07742 10.8572 4.08228 10.8561C4.08715 10.855 4.09225 10.8555 4.09679 10.8576C4.10132 10.8596 4.10505 10.8632 4.1074 10.8676C5.00543 12.5484 6.82152 13.448 8.70481 13.1453C10.6411 12.8338 12.2084 11.2191 12.2934 9.21333C12.377 7.25022 11.0456 5.53911 9.17074 5.02178C7.14371 4.46222 5.00543 5.38933 4.07491 7.27644C4.06022 7.30667 4.03931 7.32667 4.00949 7.29867C4 7.28978 3.99763 7.27926 4.00237 7.26711C4.79449 5.26622 6.61504 4.08044 8.76489 4Z" fill="#ED3237"/>
<path fill-rule="evenodd" clip-rule="evenodd" d="M10.2161 5.80177C10.2147 5.79922 10.2127 5.79709 10.2103 5.79556C9.89937 5.59349 9.5662 5.43867 9.21079 5.33112C9.19565 5.32638 9.18186 5.32904 9.1694 5.33912C8.4734 5.89156 7.62254 5.80179 6.91631 5.31645C6.90296 5.30727 6.88842 5.30475 6.8727 5.3089C6.52974 5.40401 6.20651 5.54342 5.90302 5.72712C5.88788 5.7363 5.88803 5.74519 5.90346 5.75379C7.25986 6.51467 8.85789 6.55601 10.2094 5.82401C10.2119 5.82264 10.2141 5.82063 10.2156 5.81818C10.2171 5.81573 10.218 5.81292 10.218 5.81004C10.2181 5.80716 10.2175 5.80431 10.2161 5.80177ZM5.6378 5.86356C5.40417 6.02623 5.15719 6.24534 4.9734 6.46756C4.96242 6.4809 4.96465 6.49127 4.98007 6.49868C6.91899 7.4209 9.1387 7.38801 11.0905 6.57334C11.0942 6.57185 11.0974 6.56953 11.1 6.56658C11.1025 6.56363 11.1044 6.56012 11.1054 6.55633C11.1064 6.55254 11.1065 6.54857 11.1057 6.54474C11.1049 6.5409 11.1032 6.53731 11.1008 6.53423C10.9189 6.30075 10.7066 6.09868 10.4639 5.92801C10.4572 5.92324 10.4492 5.92053 10.4409 5.92021C10.4326 5.9199 10.4244 5.92199 10.4172 5.92623C8.93578 6.79379 7.17264 6.68712 5.69743 5.86045C5.68823 5.85538 5.67777 5.85299 5.66724 5.85354C5.65671 5.85409 5.64651 5.85756 5.6378 5.86356ZM11.2725 6.75467C11.4873 7.0249 11.647 7.32415 11.7518 7.65245C11.7529 7.6561 11.7533 7.65994 11.7528 7.66374C11.7524 7.66754 11.7512 7.6712 11.7493 7.6745C11.7473 7.67781 11.7448 7.68067 11.7417 7.68292C11.7386 7.68517 11.735 7.68675 11.7313 7.68756C9.30777 8.20312 6.72492 8.21067 4.32854 7.54801C4.32571 7.54721 4.32307 7.54583 4.32082 7.54396C4.31857 7.54208 4.31675 7.53976 4.31548 7.53714C4.31421 7.53453 4.31353 7.53168 4.31348 7.5288C4.31343 7.52592 4.31401 7.52307 4.31519 7.52045C4.44276 7.21527 4.60711 6.93156 4.80826 6.66934C4.81894 6.65512 4.83229 6.65201 4.84831 6.66001C6.53223 7.46667 8.47693 7.5849 10.2632 7.0809C10.5676 6.99467 10.9103 6.86801 11.2293 6.74312C11.2465 6.7363 11.2609 6.74015 11.2725 6.75467ZM11.787 7.8609C10.7484 8.12801 9.60291 8.19245 8.50685 8.23023C7.10684 8.27779 5.63118 8.06845 4.26099 7.76356C4.25092 7.76135 4.2404 7.76278 4.23134 7.76759C4.22228 7.7724 4.21527 7.78027 4.2116 7.78979C4.06919 8.15749 4.00215 8.53897 4.01045 8.93423C4.01075 8.94845 4.01802 8.95556 4.03226 8.95556H11.9668C11.9751 8.95557 11.9831 8.95235 11.989 8.94661C11.9949 8.94087 11.9983 8.93307 11.9984 8.9249C12.0064 8.5646 11.9472 8.21586 11.8208 7.87867C11.8149 7.86267 11.8036 7.85675 11.787 7.8609ZM8.76734 9.8649C7.7496 9.78801 6.73942 9.85912 5.67807 9.96712C5.12655 10.0231 4.6406 10.101 4.22021 10.2009C4.21443 10.2024 4.20832 10.2016 4.20305 10.1988C4.19779 10.196 4.19376 10.1914 4.19173 10.1858C4.06683 9.8486 4.01016 9.50015 4.02174 9.14045C4.02197 9.13259 4.02526 9.12513 4.03091 9.11965C4.03656 9.11418 4.04412 9.11111 4.052 9.11112H11.9874C12.0023 9.11112 12.0098 9.11853 12.0101 9.13334C12.0164 9.53097 11.9471 9.91453 11.8023 10.284C11.7992 10.2919 11.7934 10.2985 11.7859 10.3025C11.7784 10.3065 11.7697 10.3076 11.7614 10.3058C10.7752 10.088 9.77722 9.94104 8.76734 9.8649ZM11.6824 10.5338C11.68 10.5335 11.6748 10.5322 11.6668 10.5298C9.28914 9.86356 6.68582 9.87912 4.2832 10.3947C4.26481 10.3985 4.25843 10.4096 4.26407 10.428C4.36672 10.7522 4.52336 11.0482 4.734 11.316C4.74241 11.3267 4.75412 11.3343 4.76732 11.3377C4.78051 11.3411 4.79446 11.34 4.80698 11.3347C6.83089 10.4689 9.16231 10.4787 11.1626 11.4147C11.1716 11.4189 11.1818 11.42 11.1914 11.4176C11.2011 11.4153 11.2096 11.4097 11.2156 11.4018C11.4114 11.1434 11.5726 10.8647 11.6993 10.5658C11.7006 10.5626 11.7012 10.5592 11.7011 10.5557C11.7009 10.5523 11.7 10.5489 11.6984 10.5458C11.6968 10.5428 11.6945 10.5401 11.6917 10.538C11.689 10.536 11.6858 10.5345 11.6824 10.5338ZM11.0287 11.5725C11.0503 11.5822 11.0533 11.596 11.0376 11.6138C10.8418 11.8325 10.6279 12.0314 10.3959 12.2107C10.3846 12.2195 10.3709 12.2248 10.3565 12.2259C10.3422 12.227 10.3279 12.2239 10.3153 12.2169C8.86726 11.4098 7.06407 11.2773 5.60888 12.1489C5.59886 12.155 5.58726 12.158 5.57555 12.1575C5.56384 12.157 5.55252 12.1531 5.54302 12.1462C5.30361 11.9773 5.09504 11.7766 4.91734 11.544C4.91531 11.5413 4.91391 11.5382 4.91326 11.5349C4.91261 11.5316 4.91272 11.5282 4.91357 11.525C4.91443 11.5217 4.91602 11.5187 4.91821 11.5161C4.9204 11.5136 4.92315 11.5116 4.92624 11.5102C6.8874 10.6645 9.08754 10.6889 11.0287 11.5725ZM10.1066 12.3147C10.1021 12.3132 10.0983 12.3122 10.095 12.3116C10.0869 12.3094 10.0794 12.3073 10.0736 12.3055C10.0678 12.3037 10.0638 12.3023 10.0621 12.3013C8.7177 11.5769 7.13301 11.5325 5.80555 12.256C5.78419 12.2679 5.78374 12.2803 5.80421 12.2933C6.11127 12.4916 6.43998 12.6443 6.79036 12.7516C6.80608 12.7563 6.82017 12.7538 6.83263 12.744C7.53353 12.1933 8.38572 12.2809 9.09374 12.7707C9.09954 12.7748 9.10625 12.7776 9.11334 12.7787C9.12044 12.7799 9.12774 12.7794 9.13468 12.7773C9.47704 12.6748 9.80264 12.535 10.1115 12.3578C10.1155 12.3555 10.1188 12.3521 10.1209 12.348C10.123 12.3439 10.1239 12.3392 10.1233 12.3346C10.1228 12.33 10.1209 12.3257 10.118 12.3221C10.115 12.3186 10.111 12.316 10.1066 12.3147Z" fill="#009CDB"/>
</svg>
