<!-- by TradingView --><svg width="18" height="18" viewBox="0 0 18 18" xmlns="http://www.w3.org/2000/svg"><path fill="#181B1E" d="M0 0h18v18H0z"/><path d="M4.4 11.6 3 8.63c3.4.67 5.12-.96 5.65-1.82v2.76h-1.8v-.82l-1.55.57.48 1.24c.33-.17 1.36-.5 2.87-.52v1.99c-1.98 0-3.22.63-3.6.95l-.48-1.03 1.54-.67.37.68.85-.38-.13-.95c-.45.09-1.62.4-2.8.95Zm8.5 1.4.77-1.61c-1.3-.76-2.33-1-2.69-1.03l.18-1.33 1.6.31-.39.7 1.5.92L15 8.64c-3.35.67-5.12-.95-5.65-1.82v3.71c1.26.13 2.4.47 2.81.62l-.34.9-.9-.12v-.78l-1.57-.2v1.1c1.95 0 3.17.63 3.54.95ZM9.5 5.5a.5.5 0 1 1-1 0 .5.5 0 0 1 1 0Z" fill="#D69C45"/><circle cx="15.5" cy="7.5" r=".5" fill="#D69C45"/><circle cx=".5" cy=".5" r=".5" transform="matrix(-1 0 0 1 3 7)" fill="#D69C45"/><circle cx=".24" cy=".24" transform="matrix(-1 0 0 1 3.95 7.78)" fill="#D69C45" r=".24"/><path d="M4.76 8.24c0 .14.11.25.24.25A.25.25 0 0 0 5 8c-.13 0-.24.1-.24.24ZM6 7.76c0 .13.1.24.24.24.13 0 .23-.1.23-.24 0-.14-.1-.25-.23-.25S6 7.62 6 7.76Zm1-1c0 .13.1.24.24.24.13 0 .23-.1.23-.24 0-.14-.1-.25-.23-.25S7 6.62 7 6.76Z" fill="#D69C45"/><circle cx="14.31" cy="8.03" fill="#D69C45" r=".24"/><path d="M13.25 8.24c0 .14-.1.25-.23.25a.24.24 0 0 1-.24-.25c0-.13.1-.24.24-.24.13 0 .23.1.23.24Zm-1.23-.48c0 .13-.1.24-.24.24a.24.24 0 0 1-.23-.24c0-.14.1-.25.23-.25s.24.11.24.25Zm-1-1c0 .13-.1.24-.24.24a.24.24 0 0 1-.23-.24c0-.14.1-.25.23-.25s.24.11.24.25Z" fill="#D69C45"/></svg>