<!-- by TradingView --><svg width="56" height="56" viewBox="0 0 56 56" xmlns="http://www.w3.org/2000/svg"><path fill="#F0F3FA" d="M0 0h56v56H0z"/><path fill-rule="evenodd" d="M28 43.6c8.55 0 15.48-6.99 15.48-15.6S36.55 12.4 28 12.4A15.54 15.54 0 0 0 12.52 28c0 8.61 6.93 15.6 15.48 15.6Zm0-4.17c6.26 0 11.34-5.12 11.34-11.43S34.26 16.57 28 16.57A11.39 11.39 0 0 0 16.66 28c0 6.31 5.08 11.43 11.34 11.43Z" fill="#0A2D63"/><path d="M14.42 27.99c.34 0 .61-.28.61-.63a.62.62 0 0 0-.61-.62.62.62 0 0 0-.62.62c0 .35.27.63.62.63Zm26.94.01a.63.63 0 0 0 0-1.27.63.63 0 0 0-.63.64c0 .35.28.63.63.63Z" fill="#fff"/><path fill-rule="evenodd" d="M43.88 28c0 8.84-7.1 16-15.88 16a15.94 15.94 0 0 1-15.88-16c0-8.84 7.1-16 15.88-16 8.77 0 15.88 7.16 15.88 16Zm-.53 0c0 8.54-6.87 15.47-15.35 15.47A15.41 15.41 0 0 1 12.65 28c0-8.54 6.87-15.47 15.35-15.47S43.35 19.46 43.35 28Zm-3.7 0A11.7 11.7 0 0 1 28 39.73 11.69 11.69 0 0 1 16.35 28 11.7 11.7 0 0 1 28 16.27 11.7 11.7 0 0 1 39.65 28Zm-.53 0c0 6.19-4.98 11.2-11.12 11.2A11.16 11.16 0 0 1 16.88 28c0-6.19 4.98-11.2 11.12-11.2 6.14 0 11.12 5.01 11.12 11.2Z" fill="#C1AF8B"/><path d="M26.94 15.85V13.4h.64v.96h.84v-.96h.64v2.45h-.64v-.96h-.84v.96h-.64Zm-4.63 1.28-.9-2.16.58-.25.35.85.77-.33-.35-.84.58-.25.9 2.16-.58.25-.35-.85-.77.33.35.84-.58.25Zm13.03 1.45 1.51-2.02-.54-.41-.8 1.05h-.01l.08-1.6-.46-.36-1.52 2.02.54.41.8-1.06.01.01-.07 1.62.46.34Zm-5.82-2.72.6-2.4 1.72.44-.13.53-1.07-.28-.1.41.97.26-.13.52-.98-.25-.1.41 1.06.27-.13.53-1.7-.44Zm3.18-1.7-1.05 2.24 1.6.76.22-.49-.99-.47.18-.38.91.43.23-.49-.91-.43.18-.39 1 .48.23-.49-1.6-.76Zm-7.62 2-.67.14.27-2.55.85-.17 1.23 2.25-.67.13-.22-.43-.75.15-.04.49Zm.55-1.1-.39-.74h-.01l-.07.84.47-.1Zm-5.16.95c.07.01.13.06.18.13l.58-.34a.8.8 0 0 0-.33-.33.8.8 0 0 0-.46-.08 1.47 1.47 0 0 0-.94.55.9.9 0 0 0-.18.44c-.01.15.02.3.1.44.1.18.24.29.42.32.17.04.37.02.6-.05l.24-.09.24-.05h.14c.04.02.07.04.09.08.02.04.03.08.02.12 0 .04-.03.08-.06.12a.55.55 0 0 1-.15.12.58.58 0 0 1-.22.08.34.34 0 0 1-.2-.03.4.4 0 0 1-.15-.14l-.57.33c.1.2.23.32.38.4.15.07.32.1.5.07.17-.03.36-.1.56-.2.19-.12.33-.24.44-.37.1-.14.16-.28.18-.42a.74.74 0 0 0-.11-.44.8.8 0 0 0-.18-.22.63.63 0 0 0-.23-.12.87.87 0 0 0-.31-.03c-.11 0-.24.04-.38.08l-.2.07-.17.04a.5.5 0 0 1-.12.01.2.2 0 0 1-.09-.03.17.17 0 0 1-.05-.06.17.17 0 0 1-.02-.1.2.2 0 0 1 .05-.12.51.51 0 0 1 .14-.11.4.4 0 0 1 .26-.07Z" fill="#fff"/><path fill-rule="evenodd" d="m14.4 32.35 1.61-.61-.16-.45-1.61.61.16.45Zm.7 1.78 1.56-.64-.17-.43-.81.34v-.02l.58-.9-.14-.36-1.55.64.17.43.81-.34v.01l-.58.91.14.36Zm26.06-.68-.22.56-1.41-.6.22-.55a.87.87 0 0 1 .24-.35c.1-.09.22-.14.35-.15a.91.91 0 0 1 .75.32c.08.1.13.23.14.36a.89.89 0 0 1-.07.41Zm-.39.03.06-.15a.48.48 0 0 0 .04-.2.26.26 0 0 0-.07-.16.59.59 0 0 0-.2-.14.57.57 0 0 0-.26-.06.24.24 0 0 0-.16.07.5.5 0 0 0-.11.17l-.06.14.76.33ZM39 35.04l-.3-.19.73-1.23.3.19-.25.42 1.08.68-.22.39-1.09-.68-.25.42Zm-1.02.89 1.32 1.1.72-.92-.29-.24-.43.55-1.03-.86-.29.37Zm-1.75 1.9.36-.34.68.28v-.01l-.2-.72.35-.35.32 1.26.35.38-.32.31-.35-.38-1.2-.42Zm.74 1.38-.87-1.28-.39.28.46.67h-.01l-.97-.3-.33.24.87 1.28.39-.28-.46-.67.01-.01.98.3.32-.23Zm-6.96 1.47.52-.13.58.8h.02l.14-.99.52-.13.39 1.59-.41.1-.22-.92h-.02l-.12 1-.25.06-.57-.82.22.93-.41.1-.39-1.59Zm-.14 1.38c.06-.14.08-.3.06-.49a.96.96 0 0 0-.16-.45.7.7 0 0 0-.32-.26.82.82 0 0 0-.4-.05.83.83 0 0 0-.4.15.72.72 0 0 0-.25.32.97.97 0 0 0-.05.48c.02.18.07.34.15.45.09.12.2.2.32.26.13.05.26.07.41.05a.83.83 0 0 0 .39-.14c.11-.08.2-.19.25-.32Zm-.46-.68c.03.07.05.15.06.25v.26a.33.33 0 0 1-.1.16.31.31 0 0 1-.18.08c-.08 0-.14 0-.2-.03a.33.33 0 0 1-.12-.15.74.74 0 0 1-.07-.24c-.01-.1 0-.19.01-.26a.33.33 0 0 1 .1-.17c.04-.04.1-.07.18-.07a.3.3 0 0 1 .18.03c.06.03.1.07.14.14Zm-5.35.6.38-1.75 1.23.28-.08.38-.77-.17-.07.3.7.16-.08.38-.7-.16-.06.3.76.18-.08.38-1.23-.28Zm-.48-1.33.4.17c.04-.1.05-.2.05-.3a.67.67 0 0 0-.21-.46.82.82 0 0 0-.63-.21.7.7 0 0 0-.37.17c-.11.1-.2.23-.28.41-.07.18-.1.34-.1.5a.76.76 0 0 0 .45.64.76.76 0 0 0 .57.01.72.72 0 0 0 .34-.33l-.4-.18a.32.32 0 0 1-.06.09.24.24 0 0 1-.18.06.32.32 0 0 1-.1-.03.3.3 0 0 1-.14-.12.35.35 0 0 1-.04-.2.82.82 0 0 1 .2-.49c.05-.05.1-.09.17-.1.06-.02.12-.01.19.01a.3.3 0 0 1 .09.07l.05.08c.02.03.02.06.02.1 0 .03 0 .07-.02.1Zm4.38.83h-.44a.36.36 0 0 0-.02-.1.25.25 0 0 0-.25-.16.29.29 0 0 0-.18.06.36.36 0 0 0-.11.17.8.8 0 0 0-.04.26c0 .1.02.2.04.27a.4.4 0 0 0 .12.16c.05.03.1.05.18.05.04 0 .07 0 .1-.02a.24.24 0 0 0 .14-.12.33.33 0 0 0 .03-.1h.43a.71.71 0 0 1-.4.6.73.73 0 0 1-.3.05.74.74 0 0 1-.4-.1.72.72 0 0 1-.27-.3 1.1 1.1 0 0 1-.1-.49c0-.2.02-.36.09-.5a.72.72 0 0 1 .65-.4c.1 0 .2 0 .28.03a.64.64 0 0 1 .37.35c.04.08.07.18.08.29Zm-9.2-2.42.38.3.26-.19.42.34-.12.31.37.3.6-1.64-.48-.38-1.43.96Zm1.19.13.2-.54-.47.32.27.22Zm14.45 1.68-.42.23-.3-1.72.53-.3 1.24 1.2-.41.23-.24-.23-.47.26.07.33Zm-.24-1.24.4.4-.3.17-.1-.57Zm-15.39-2.95-1.26 1.14.33.38.41-.38.11.13-.2.62.35.4.22-.7c.1.04.19.06.28.04.1 0 .2-.05.29-.14a.57.57 0 0 0 .17-.27c.03-.1.03-.2 0-.31a.86.86 0 0 0-.19-.32l-.5-.59Zm-.25.9.11.13c.04.04.07.08.11.1l.11.03c.04 0 .07-.02.11-.06a.2.2 0 0 0 .07-.1.2.2 0 0 0-.02-.12.44.44 0 0 0-.08-.13l-.1-.13-.31.28Zm14.05 4.1-.65-1.6.72-.3a.82.82 0 0 1 .35-.08c.1 0 .2.04.29.1.08.06.14.14.19.26.05.11.06.22.04.32a.52.52 0 0 1-.15.27.93.93 0 0 1-.3.2l-.26.1.22.53-.45.2Zm.26-1.13-.16.07-.16-.39.16-.06c.05-.03.1-.04.14-.04.05 0 .08 0 .12.03a.2.2 0 0 1 .07.1.2.2 0 0 1 .02.12.2.2 0 0 1-.07.1.47.47 0 0 1-.12.07ZM18.4 36.5l-.26-.38-.85.62a.28.28 0 0 1-.13.05c-.05 0-.09 0-.13-.02a.28.28 0 0 1-.11-.1.3.3 0 0 1-.05-.14c0-.05 0-.1.02-.13a.29.29 0 0 1 .1-.12l.84-.61-.26-.38-.88.64a.61.61 0 0 0-.22.27.63.63 0 0 0-.03.34c.02.12.07.24.16.36a.9.9 0 0 0 .28.28c.1.06.21.09.32.08.11 0 .22-.04.33-.12l.87-.64Zm-1.6-1.63a.2.2 0 0 0 .08-.14c.01-.05 0-.11-.05-.18a.37.37 0 0 0-.08-.1.15.15 0 0 0-.08-.04c-.02 0-.05 0-.07.02a.12.12 0 0 0-.05.04.15.15 0 0 0-.01.07v.09l.04.11.05.15c.04.1.06.19.06.27v.22a.46.46 0 0 1-.09.18.56.56 0 0 1-.45.22.63.63 0 0 1-.3-.12 1.1 1.1 0 0 1-.26-.32 1.17 1.17 0 0 1-.16-.4.61.61 0 0 1 .04-.35.76.76 0 0 1 .27-.3l.24.42a.28.28 0 0 0-.1.11.25.25 0 0 0-.01.14c0 .05.03.1.06.16a.4.4 0 0 0 .09.1.2.2 0 0 0 .09.05c.02 0 .05 0 .08-.02a.12.12 0 0 0 .05-.07v-.1c0-.05-.02-.1-.05-.17l-.06-.18a.88.88 0 0 1-.05-.43c.02-.12.1-.23.22-.3.1-.07.2-.1.3-.09.11.01.21.05.31.12.1.07.2.17.27.3a1 1 0 0 1 .14.37.57.57 0 0 1-.27.58l-.25-.41Zm5.69 4.66-.8 1.5-.33-.17-.11-1.1-.43.8-.4-.22.8-1.51.34.19.1 1.07.01.01.42-.79.4.22Z" fill="#F0F3FA"/><path d="M28.6 41.6c.05.26.22.44.4.41.17-.03.28-.25.24-.5-.04-.26-.21-.44-.39-.41-.17.03-.28.25-.24.5Z" fill="#0A2D63"/><path d="m13.65 17.1-2.14-2.62-.4-.35-.22-.03.5 1.22.12.6-.27-.1-.63-.38.14.43.76 1.5-.15.05-1-.46-.2.1.55.94.5.8-.34.03-.65-.2.52.82 1.22 1.09-.29.18-.13.29.64.7 1.45.74.03.2-.38.2.38.38.73.37.22.44.35.22.9.27c-.28.16-.67.54-.05.76.61.23 1.75 0 2.24-.13l.61.03.03.62-.9.13-.22.32.54.16.1.27.55.32.13.33.3.17.11.12-.06.33.6.22c.06.08.2.27.31.37.1.1.6.08.82.05l-.2.65.46.03-.07.32.81.15-.09.36.27.37-.68.84.3.5.72.42.53.05.87-.5.86-.3.42.63.38-.26.46 1.44c-.73.92-2.77 2.16-3.69 2.67l.03.1.61.13.6.34.33.07.5.3.44-.06.42-.08.13.35a.7.7 0 0 1 .46-.05c.19.06.3.28.34.38l.67-.18.17.3.41-.25.31.15.33-.19.32.16.3-.08a2 2 0 0 1 .21-.17l.25.21.4-.3.42.15.24-.4.15.06a.6.6 0 0 0 .32.07c.15 0 .32-.31.38-.46.08.04.3.15.52.2.22.05.28-.28.28-.45.1.03.33.07.51.06.18-.02.18-.3.16-.43.15.03.52.06.78-.03s.14-.27.06-.34l-1.71-.75-1.52-1.06.11-.43.07-.46.03-.64.2-.1c.13.04.42.1.6.13.17.01-.01-.3-.13-.45l.34-.11-.11-.33.44-.04.26-.18.03-.28.8.05-.02-.3.63-.12-.06-.45.85-.05c.11 0 .1-.28.09-.42l.41-.12.07-.48.8-.18-.16-.3.1-.12h.46l.08-.2-.02-.25.08-.12c.14-.02.46-.08.65-.16.25-.11-.22-.38.08-.41.24-.04.3-.24.3-.35L37 26.5c.16-.06.54-.2.73-.24.19-.06.11-.21.05-.28l.2-.1c.22-.02.7-.1.85-.3.15-.22-.1-.3-.24-.31.2-.04.65-.15.9-.26.25-.1.2-.2.14-.24l-.45-.24 1.33-.34.3-.37-.46-.2 1.08-.33.66-.32.14-.18-.19-.25-.2-.21 1.6-.8.43-.4-.26-.17-.48-.09v-.07l.35-.25 1.17-.7.27-.44-1.09.21-.64.19v-.16l.36-.3 1.26-1.13.52-.88.18-.5-1.07.68-.35.12.12-.3.82-1.13.56-.9.07-.46-1.45 1.36-.2-.04.77-1.75.25-.75-2.97 3.02-2.28 2.08-1.08.62-2.2 1.5-.93.84-1.38 1.26-.91 1.35-.86 1.32-.93 1.12-.8.75-1.57 1.21-.61-.06.38-.34-.64-.1h-.53l-.17-.15h-1.39l-.41.08-1.73-1.93-2.48-2.58-1.32-1.2-1.54-1.02-1.62-1.3-.98-.79-.6-.26-1.83-1.99Z" fill="#C8A468"/><path d="M24.02 29.7c.13-.1.83-.7 1.16-1l.54-.38c.02 0 .32-.17.68-.25.36-.09.54-.02 1 .08.47.1.16.08.55.08.31 0 .63.06.75.1 0 .03-.03.14-.13.3-.09.15.33.12.55.08.15.46.44 1.4.44 1.44v.36c.01.1.28.28.41.36 0 .11-.04.36-.06.52-.02.17.25.45.39.58 0 .08.02.3.06.52.03.2-.14.87-.23 1.18.45.32 1.35.98 1.38 1.03.03.06 1 .48 1.48.69.09.01.3.1.45.36.15.25-.51.23-.86.19 0 .01-.01.1-.15.35-.13.25-.46.13-.61.04 0 .1-.05.3-.24.37-.2.07-.44-.13-.54-.24 0 .12-.07.38-.29.5-.21.1-.48-.05-.59-.15-.02.1-.1.3-.24.42-.14.12-.33-.1-.4-.22a2 2 0 0 1-.35.43c-.15.13-.32-.13-.39-.27-.03.06-.14.2-.32.36-.18.15-.3-.18-.35-.36a.66.66 0 0 1-.24.3c-.16.14-.33-.14-.4-.3-.05.09-.2.27-.41.27-.21 0-.25-.1-.24-.16l.95-2.42c-.12.03-.38.07-.42 0-.06-.07-.26-.37-.53-.4-.27-.04-.02.24-.36.7-.35.46-.49-.27-.49-.3 0-.02.36-.62.44-.7.09-.1.03-.35.05-.4.01-.06-.22-.36-.49-.72-.26-.36-.25-.63-.27-.67a2 2 0 0 0-.18-.46c-.05-.03-.05.06-.19.17-.14.12-.3-.28-.35-.37-.05-.1.07-.24-.11-.27-.18-.04-.85.13-1.2.12-.33-.01-.21-.11-.3-.24-.09-.12-.56-.26-.64-.38-.07-.13.04-.31.29-.45.25-.14.82-.69 1-.8Z" fill="#E3CB85"/><path d="M44 17.92c.1-.08.2-.26.3-.53a8.05 8.05 0 0 0 1.69-3.05.03.03 0 0 0-.04 0l-1.64 1.68a.08.08 0 0 1-.11.01.08.08 0 0 1-.02-.1 14.36 14.36 0 0 0 1.15-2.7.05.05 0 0 0-.02-.02h-.06a39.6 39.6 0 0 1-5.62 5.5c-.14.15-.27.2-.41.16l-3.23 2.22c.07.05-.02.16-.25.34-.4.33-.78.67-1.18 1.02-.5.44-.83 1-1.16 1.57l-.38.63a12.9 12.9 0 0 1-3.93 3.98c-.11.08-.21.07-.28-.02a.08.08 0 0 1-.02-.08.08.08 0 0 1 .05-.05l.2-.09a.09.09 0 0 0 .06-.1.1.1 0 0 0-.1-.07h-.32c-.21-.01-.42-.02-.63 0-.14.02-.24-.04-.3-.17a.12.12 0 0 0-.12-.08l-1.61.1.2.2c.06.04.06.1 0 .14a.72.72 0 0 0-.27.58c.25-.25.88-.85 1.22-.76.09.03.1.07.03.13l-.36.36a.08.08 0 0 0 0 .1c.01.02.03.03.05.03l.05-.01c.43-.35.92-.51 1.48-.48.15 0 .16.05.05.14-.17.13-.36.23-.57.3a.1.1 0 0 0-.06.05.1.1 0 0 0 0 .08 3.61 3.61 0 0 0 .02.06h.01V29h.01c.42-.2.86-.26 1.31-.2a14.1 14.1 0 0 0 3.94-4.04l.34-.53c.35-.59.7-1.16 1.22-1.62a32.82 32.82 0 0 1 4.7-3.46c.13-.06.24-.12.36-.2a40.73 40.73 0 0 0 5.01-4.79h.03a.04.04 0 0 1 .01.06l-.15.32c-.38.8-.76 1.6-1.42 2.24a41.7 41.7 0 0 1-3.18 2.77.26.26 0 0 1-.16.05.21.21 0 0 0-.15.07 15.07 15.07 0 0 1-5.3 3.93v.02a.05.05 0 0 0 .05.05h.02l.66-.26a.1.1 0 0 1 .1.14c-.14.18-.34.34-.61.47a.4.4 0 0 0-.2.02c-.14.05-.15.09-.04.12.08.01.2 0 .4-.06a.77.77 0 0 1-.45.58.12.12 0 0 0-.06.07.12.12 0 0 0 0 .08c.04.12.03.22-.04.3-.04.04-.13.07-.25.09-.27.04-.4.15-.38.35.1-.04.2-.02.3.05.06.04.1.03.15-.03.28-.42.55-.86.8-1.31.06-.12.15-.22.24-.32.15-.17.3-.35.35-.63.01-.06.1-.14.26-.24 1.1-.62 2.14-1.36 3.1-2.22.14-.12.3-.18.46-.25h.03a.54.54 0 0 1 .2-.37c1.31-1 2.57-2.06 3.77-3.18l.77-.64a11.77 11.77 0 0 0 1.33-1.16.06.06 0 0 1 .07.05l-.01.04c-.34.58-.7 1.14-1.12 1.68-.83 1.1-2.03 2-3.15 2.86l-.41.31c-.06.05-.17.11-.33.2-.15.07-.24.16-.28.27-.5.75-2.03 1.46-3.19 2-.33.17-.64.3-.88.43.04.1.1.13.17.09.71-.34 1.49-.73 2.32-1.18.66-.36 1.31-.8 1.95-1.3l3.46-2.8Z" fill="#010102"/><path d="M39.32 22.41c.15-.07.3-.1.44-.08.02.82-2.67 1.28-3.3 1.36 0 .04-.04.07-.1.1a.15.15 0 0 1-.14 0 .4.4 0 0 0-.33-.03.12.12 0 0 0-.07.14.12.12 0 0 0 .13.09l2.76-.57a.05.05 0 0 1 .04 0 .05.05 0 0 1 .01.05c-.02.08-.08.14-.18.19-.85.38-1.75.57-2.68.57-.14 0-.17.03-.08.1l.04.04.05.02h1.82c.29-.59 2-.6 2.76-.59.1 0 .1.02.03.07-.73.5-1.92.64-2.75.68l-.54.14c-.53.15-1.06.29-1.57.2-.26-.05-.33-.01-.55.08-.07.03-.06.05 0 .07.4.06.86.09 1.4.06.15 0 .23.06.25.2.02.07.06.1.12.1.04 0 .06-.03.09-.05l1.69.1c.08.01.1.05.06.13a.26.26 0 0 1-.22.14c-.5.04-1.03.03-1.55-.05a.96.96 0 0 0-.55-.13c-.41.03-.81-.03-1.21-.09l-.57-.07c-.08 0-.1.02-.04.08.03.04.08.07.14.08l1.55.23 1.2.26a.13.13 0 0 1 .1.2.13.13 0 0 1-.07.05c-.5.18-.96.14-1.4-.11l.07-.05a.11.11 0 0 0 .04-.13.3.3 0 0 0-.08-.13l-.25.26L34 25.9l-.44-.12a.68.68 0 0 0-.37.03c-.1.05-.09.07.01.07a.6.6 0 0 1 .45.15c.04-.11.14-.13.3-.04l.87.19c.73.14 1.42.29 2.15.58a.15.15 0 0 1 .08.2.15.15 0 0 1-.05.06c-.31.22-.96 0-1.57-.24.03 0 .04 0 .04-.02l.3-.17c.07-.04.07-.08 0-.12-.09-.06-.2.01-.31.2l-1.52-.34c-.07-.02-.08 0-.05.06a.1.1 0 0 0 .07.05c.43.09.85.2 1.26.35.06.02.1.07.11.14.04.18.16.23.36.16a.2.2 0 0 1 .16 0c.3.16.6.24.89.25l.43-.18c.06-.03.1-.07.12-.14.02-.12 0-.22-.08-.28-.1-.08-.08-.14.04-.17l.5-.13c.08-.02.12-.07.12-.15v-.25c0-.05.03-.08.08-.09.22-.03.39-.02.5.02.22-.05.46-.16.5-.33.07-.24-.08-.32-.17-.33.4-.06 1.16-.24 1.03-.47-.13-.24-.29-.3-.35-.3.58-.1 1.7-.4 1.52-.65-.17-.26-.3-.3-.34-.29.28-.08.9-.27 1.28-.41.01-.12.13-.2.35-.25.14-.09.2-.17.2-.26a.11.11 0 0 0-.07-.1l-.4-.12a.07.07 0 0 1-.06-.07.07.07 0 0 1 .05-.06 4.7 4.7 0 0 0 2.2-1.37.08.08 0 0 0-.04-.08.08.08 0 0 0-.04-.01h-.86c0-.06.01-.1.06-.13a4.6 4.6 0 0 0 1.94-1.5c.06-.09.04-.12-.06-.1-.6.12-1.18.3-1.74.57-.05.02-.09 0-.1-.05-.02-.06 0-.1.06-.14a5.75 5.75 0 0 0 2.31-2.81.06.06 0 0 0-.05-.05l-.03.01-1.17.81-.14.16c-.05.06-.04.1.04.12.08.02.16-.01.23-.1.17-.2.38-.4.65-.58.1-.06.12-.04.07.06-.74 1.71-3.08 3.07-4.77 4.05l-.48.28c-.1.06-.14.19-.11.38a14.7 14.7 0 0 1 4.42-2.3c.36-.1.39-.04.1.19a12.09 12.09 0 0 1-4.6 2.2c-1.1.48-2.25.95-3.42 1.4-.2.08-.35.05-.44-.08l-.36-.06c.35.35.63.45.84.29 1.08-.36 2.02-.71 2.82-1.07Zm.64-.16 3.2-1.27.44.17c.08.03.08.07.01.12a7.78 7.78 0 0 1-3.57 1.4c-.07 0-.11-.03-.13-.1a.64.64 0 0 1 .05-.32Zm.68 1.34Zm.94-1.03c.12-.02.25.02.4.13a.06.06 0 0 1 .02.05.06.06 0 0 1-.03.05 4.6 4.6 0 0 1-2.88.84.23.23 0 0 1-.22-.2.23.23 0 0 1 .17-.26 30.6 30.6 0 0 1 2.54-.61Zm-2.15 2.2c.07.02.1.05.1.08.01.04-.02.07-.08.11a4.09 4.09 0 0 1-1.22.25 6.55 6.55 0 0 1-.95 0 1.32 1.32 0 0 1-.3-.07c-.07-.02-.1-.05-.1-.09-.01-.03.02-.07.09-.1a4.06 4.06 0 0 1 1.22-.25 6.5 6.5 0 0 1 .95 0l.3.06Z" fill="#010102"/><path fill-rule="evenodd" d="M11.85 20.56c-.14.18-.36.17-.65-.03a.07.07 0 0 0-.09.01.07.07 0 0 0 0 .1 5.07 5.07 0 0 0 2.4 1.83c.02 0 .03.02.03.05v.06a.1.1 0 0 1-.15.09.4.4 0 0 0-.35-.02c-.08.03-.1.08-.04.15l.33.4c.1 0 .19.02.27.09.06.03.07.08.05.14v.03l.09.03v.05a.17.17 0 0 0 .19.12c.37-.04.58.11.62.45 0 .07.04.11.1.15l.54.28a.18.18 0 0 1 .1.13c.1.63.65.88 1.67.78.44-.06.92-.14 1.44-.24.17-.03.25.07.24.28.28-.23.63-.22 1-.21.31 0 .64.01.95-.12a.04.04 0 0 0-.03-.09c-.74.16-1.49.13-2.23-.09a.17.17 0 0 1-.11-.14l-.03-.23c-.11.05-.15.16-.12.33.01.06-.01.1-.07.12a5.18 5.18 0 0 1-2.37-.03.1.1 0 0 1 .04-.16 6.7 6.7 0 0 1 2.58-.33l1.65-.01c.05 0 .06-.03.03-.07-.07-.09-.37-.1-.76-.1-.71-.02-1.7-.04-2.12-.56.02-.12-.08-.18-.27-.18h-.6c-.78 0-1.6 0-2.29-.43a.94.94 0 0 1-.42-.24.08.08 0 0 1 .06-.13c1.4-.04 2.4.16 3.66.75.74.1 1.5.17 2.26.2.05 0 .08-.02.1-.06 0-.06-.02-.1-.08-.09-1.02.06-2-.1-2.94-.44a.2.2 0 0 1-.1-.1l-.06-.09a.17.17 0 0 0-.13-.08.98.98 0 0 1-.7-.36.3.3 0 0 0 .06-.1v-.04l-.2-.09c0-.04.02-.08.08-.1l.1-.05.01-.02a.03.03 0 0 0 0-.04h-.02c-.02-.01-.05-.02-.07 0a.26.26 0 0 1-.17-.03l-3.19-1.52h-.29Zm3.55 1.76-3.62-1.65h-.02l-.01.01v.01c-.09.18.02.43.28.7.27.27.68.54 1.13.75l.42.2c.46.2.93.33 1.3.35.31.02.54-.03.66-.14l-.12-.16a.17.17 0 0 1-.02-.07Zm1.44 1.52c.08.02.14.05.18.12.04.05.09.1.14.13l.23.12c.1.06.1.1-.02.12-.82.17-1.6.12-2.38-.15-.33-.12-.32-.2.02-.27a5.95 5.95 0 0 1 1.83-.07Z" fill="#010102"/><path d="m33.57 26.09-.82.98c.04-.47.32-.8.82-.98Zm-11.23.27.62.48c0 .24.12.4.36.5.07.03.1.07.11.14.04.34.23.51.57.53a.16.16 0 0 1 .14.1c.13.36.4.55.8.58-.14.23-.3.31-.51.26a.29.29 0 0 0-.19 0 2.43 2.43 0 0 1-1.72 0 .06.06 0 0 1 .04-.09 4.56 4.56 0 0 0 1.53-.5c.02-.02.03-.03.02-.06l-.01-.03a1.4 1.4 0 0 1-.01-.02.02.02 0 0 0-.02 0c-.52.26-1.05.42-1.6.46.06.12 0 .22-.16.27a6.4 6.4 0 0 1-1.1.18.1.1 0 0 0-.08.03.11.11 0 0 0-.03.08.4.4 0 0 1-.03.2.29.29 0 0 0 0 .23c.03.05.08.08.17.1.18.03.37.04.57.03.1 0 .12.03.05.1l-.08.12a.12.12 0 0 0-.02.12.12.12 0 0 0 .11.07H22c.13-.42.36-.55.7-.37l.35-.19c.27-.15.54-.3.87-.38.7-.2 1.36-.51 1.96-.95.03-.02.04-.05.03-.08l-.02-.05a69.82 69.82 0 0 0-4.98-5.31 9.5 9.5 0 0 0-1.38-1.07l-.29-.14a76.35 76.35 0 0 1-3.11-2.52l-.47-.07a63.9 63.9 0 0 1-3.18-3.54l-1.65-1.89c-.07-.07-.1-.06-.08.04.09.7.32 1.36.7 1.96l.13.03c.06.02.08 0 .05-.06l-.57-1.27v-.02a.04.04 0 0 1 .06-.02l4.1 4.68c.04.05.06.1.07.15 0 .09.04.14.08.16h.02c.14-.06.22-.08.36-.01.83.42 1.56 1.04 2.29 1.65.52.44 1.03.87 1.6 1.24l.07.05c.41.27.77.5 1.13.86a76.66 76.66 0 0 1 4.76 5.02c.12.13.1.23-.07.3l-.6.25a.85.85 0 0 0-.47-.23.2.2 0 0 1-.17-.17.2.2 0 0 1 .12-.21l.26-.13a.04.04 0 0 0 .03-.06.04.04 0 0 0-.06-.02l-.22.1a.25.25 0 0 1-.2 0l-.64-.24a.12.12 0 0 1 .02-.23l.37-.06c.1-.02.11-.05.02-.1-.13-.07-.26-.07-.38-.07-.23 0-.44 0-.61-.44-.06-.28-.28-.44-.66-.47Zm.73 2.81c.2.02.3.05.31.1 0 .05-.1.11-.27.17a4.07 4.07 0 0 1-1.42.19c-.19-.02-.3-.05-.3-.1-.01-.05.09-.11.27-.17a4.07 4.07 0 0 1 1.41-.19Zm9.52-1.85c0-.02.02-.04.07-.06-.06-.14-.2-.18-.41-.1-.06.01-.06.03 0 .06.12.04.19.11.2.2l.14-.1Z" fill="#010102"/><path d="m35.11 27.63.87.3-.02.19c0 .06-.04.1-.1.1-.58.1-1-.1-1.25-.58a.25.25 0 0 0-.14-.12c-.3-.11-.6-.23-.89-.37a.26.26 0 0 0-.14-.02 1.77 1.77 0 0 1-.15.01.03.03 0 0 0 0 .05l.01.01 1.22.5a.1.1 0 0 1 .02.18c-.16.13-.35.14-.54.03a5.6 5.6 0 0 0-1.2-.5l1.28.76c.42-.14.82-.04 1.2.3.2.2.17.3-.11.34-.38.04-.8-.09-1.22-.4a4.36 4.36 0 0 1-1.59-.86c-.37 0-.57.13-.6.43 0 .06-.03.1-.1.11l-.42.08c-.05.01-.07.04-.07.1l.01.07c.02.08-.02.12-.1.1a.8.8 0 0 0-.44.09c-.05.02-.05.04 0 .06l.5.1a.4.4 0 0 0 .04-.01c.06-.21.22-.35.45-.42a.2.2 0 0 0 .1-.07l.37-.5a.13.13 0 0 1 .2-.02l1.03.84.03.31h.1c.08 0 .12-.04.1-.11l-.03-.15c0-.04.01-.06.05-.07l.06.01c.27.22.55.37.86.44a.19.19 0 0 1 .14.22c-.05.28-.24.36-.5.26-.4-.15-.8-.25-1.2-.28h-.55a2.7 2.7 0 0 0-.97-.45l1.01.85c-.52.08-.98-.17-1.38-.74-.06.13-.18.17-.35.13a1.03 1.03 0 0 0-.57 0c.27.16.53.22.77.17a.2.2 0 0 1 .17.04l.65.53c.53.02 1.01.17 1.45.44.04.03.08.04.11.04.05 0 .1 0 .13-.03.23-.02.47-.03.71-.02.1 0 .17-.02.2-.07.05-.07.03-.16-.05-.28-.54.26-1.14.18-1.8-.23a.13.13 0 0 1-.05-.06v-.08a.13.13 0 0 1 .12-.1c.52 0 1.01.11 1.47.36a.23.23 0 0 0 .17.02.25.25 0 0 0 .1-.06l.56-.04a.1.1 0 0 0 .09-.08v-.04l-.07-.21a.18.18 0 0 1 .09-.22.18.18 0 0 1 .08-.02l.54-.03c.12 0 .15-.06.09-.16l-.15-.23a.11.11 0 0 1 .1-.17h.38c.06 0 .11-.03.15-.08.09-.1.07-.25-.04-.42l.16-.02c.17-.02.39-.04.5-.13.1-.08.12-.16.05-.24a2 2 0 0 1-1.7-.09.1.1 0 0 1-.05-.1l.01-.08c0-.04-.01-.08-.05-.1l-1.03-.35a.06.06 0 0 0-.08.03.06.06 0 0 0 .04.08l.22.08c.33.1.76.23.84.53.01.06.05.1.1.12Zm-11.99.33a2 2 0 0 1-1.28.16l-.1-.08a.1.1 0 0 1 .04-.16l1.2-.25c.02 0 .03-.01.03-.02a.05.05 0 0 0-.02-.08 3.3 3.3 0 0 0-.87.1 6.1 6.1 0 0 1-1 .14.25.25 0 0 0-.12.03c-.52.3-1.06.36-1.63.16a.13.13 0 0 1 .03-.25l3.43-.5c.06 0 .07-.03.03-.07-.02-.02-.05-.02-.08-.01a2636.27 2636.27 0 0 1-3.27.36c-.25.02-.43-.04-.55-.19-.06-.07-.04-.1.04-.13l.32-.06c.35-.08.68-.16 1.06-.15.54 0 1.07-.04 1.6-.15.1-.02.17-.1.21-.21-.67.23-1.3.29-1.87.16-.16.01-.35.05-.55.09-.46.1-.97.2-1.27-.05-.04-.04-.04-.07.01-.1.6-.35 1.23-.44 1.88-.26a2.7 2.7 0 0 0 1.5-.38c-.78.28-1.54.32-2.28.1a.25.25 0 0 0-.18.02c-.53.24-1.07.27-1.62.08a.09.09 0 0 1 0-.17c.9-.22 1.78-.22 2.69-.22h.6c.01 0 .03-.02.05-.06.02-.03 0-.04-.03-.04l-2.46-.12-1.07.24c-.18.28-.19.46-.02.55l.5.13a.06.06 0 0 1 .05.04.06.06 0 0 1-.02.07l-.09.09a.1.1 0 0 0 .07.17c.21 0 .4.06.6.16.1.06.09.12-.01.17l-.14.06a.1.1 0 0 0 .04.19l.51-.01a.15.15 0 0 1 .14.09.15.15 0 0 1-.03.17l-.1.1a.13.13 0 0 0-.04.13.13.13 0 0 0 .1.1l.69.19c.05.02.09.05.1.1.02.2.26.3.72.33.13 0 .15.06.07.16l-.2.24c-.04.06-.03.1.05.13.1.04.2.04.33.01l.2-.4c.02-.07.07-.1.14-.11l.88-.13a.17.17 0 0 0-.09-.15 4.3 4.3 0 0 0-.6 0c-.46.01-1.04.03-1.24-.02a.08.08 0 0 1-.07-.07.08.08 0 0 1 .06-.08l1.3-.45h.08c.03 0 .05.02.07.03.02.02.03.04.02.07 0 .02-.01.03-.03.05-.05.03-.05.08 0 .14.04.05.1.07.16.07a.9.9 0 0 0 .06 0c.32.18.54.12.83.04l.36-.08c.1-.01.15-.07.16-.16 0-.06-.02-.07-.08-.05Zm5.31 1.58c.05.04.05.09 0 .14l-.05.04c-.03.04-.06.04-.08-.01-.05-.15-.25-.27-.6-.37a.06.06 0 0 1-.03-.07.06.06 0 0 1 .05-.04c.27.03.5.13.7.31Zm-4.88 1.19c-.1.1-.27.11-.49.06.3.24.54.2.71-.1.04-.06.09-.1.16-.1l.36-.06c.04-.01.05-.03.02-.06a.13.13 0 0 0-.1-.04 6.35 6.35 0 0 1-.65-.01.11.11 0 0 1-.05-.11l.02-.06c.26-.33.59-.56.98-.71.11-.04.1-.07-.01-.07a.7.7 0 0 0-.48.17c-.47.44-1 .78-1.6 1.02.27.15.29.3.3.43.02.12.04.23.17.36.05.03.09.04.13 0 .04-.04.08-.05.13-.03.08.02.1.06.04.13l-.25.28c-.03.02-.03.05-.01.08l.02.05c0 .02.01.03.03.01l.44-.32c.06-.08.16-.11.31-.11a.1.1 0 0 0 .11-.09.1.1 0 0 0-.09-.1l-.72-.14a.15.15 0 0 1-.11-.08l-.2-.38a.12.12 0 0 1 .01-.12.11.11 0 0 1 .13-.04c.04.02.09.06.13.11.2-.22.4-.26.56-.12.06.05.06.1 0 .15Zm1.86-1.06c.08.02.09.06.02.1l-.2.16c-.07.04-.1.03-.1-.05v-.11c0-.06-.03-.1-.1-.1a.22.22 0 0 1-.17-.1c-.03-.06-.01-.07.04-.06l.51.16Z" fill="#010102"/><path fill-rule="evenodd" d="M29.97 31.12c0-.06.05-.1.15-.1l.77.83.73-.05a.07.07 0 0 0 .06-.05.07.07 0 0 0-.03-.08l-.24-.15a.09.09 0 0 1-.03-.1.09.09 0 0 1 .09-.06l.56.04a.1.1 0 0 0 .1-.14l-.1-.18c-.03-.09 0-.12.09-.12l.64.05a.11.11 0 0 0 .08-.03.11.11 0 0 0 .04-.08v-.22a.09.09 0 0 1 .06-.08h.04l.42.05c.1 0 .13-.03.1-.12l-.13-.33c-.3.4-.95.03-1.4-.23l-.23-.13a.36.36 0 0 0-.07.12c0 .05 0 .08.05.1l.94.53a.08.08 0 0 1 .04.07.08.08 0 0 1-.05.07c-.43.2-.79-.13-1.07-.4a6.08 6.08 0 0 0-.12-.1.17.17 0 0 0-.18-.03c-.33.11-.6-.13-.87-.37-.28-.24-.56-.5-.92-.4-.05.01-.06.03 0 .06l1.11.58a.12.12 0 0 1-.08.22 3.76 3.76 0 0 1-1.52-.72c-.08-.07-.2-.07-.34 0a.01.01 0 0 0 0 .02c.3.08.57.23.8.46a.13.13 0 0 1-.14.22l-.5-.19c-.02 0-.04 0-.04.02l-.02.05v.06c0 .02.02.03.04.04l.41.21a.08.08 0 0 0 .07 0 .08.08 0 0 0 .05-.03l.03-.08.01-.01h.03a.04.04 0 0 1 .03.02l.03.09c0 .03 0 .05-.02.08a.45.45 0 0 0-.1.4.08.08 0 0 1-.1.09.08.08 0 0 1-.04-.03.8.8 0 0 0-.42-.26h-.03l-.02.02a.04.04 0 0 0 .02.05c.3.18.5.44.6.77a.1.1 0 0 0 .12.06.1.1 0 0 0 .05-.02l.06-.06c.08 0 .15 0 .2.03a.11.11 0 0 1 .04.13l-.02.04-.17.19-.01.03V32a.05.05 0 0 0 .07 0c.28-.2.52-.07.55.26.04.3.03.63 0 .97a.1.1 0 0 1-.19 0 1 1 0 0 0-.34-.73l-.2.24-.12.87c.25.12.36.27.33.45a.16.16 0 0 1-.1.13c-.08.03-.1.1-.07.2l.07.18c.11.2.13.44.06.7a.15.15 0 0 1-.17.1.15.15 0 0 1-.12-.16l.06-.52a.23.23 0 0 0-.06-.19c-.14-.14-.14-.29 0-.44a.2.2 0 0 0 .04-.19c-.02-.1-.08-.14-.18-.14-.25-.44-.27-.85-.07-1.24-.24.14-.31.4-.21.8.01.08-.01.12-.09.11h-.1c-.03 0-.05-.01-.05-.05l-.08-.58-.02-.04a.06.06 0 0 0-.04-.01l-.03.01a.06.06 0 0 0-.03.03c-.01.08 0 .18.02.28.03.15.06.32-.03.43a.08.08 0 0 1-.08.03.08.08 0 0 1-.06-.05c-.14-.39-.07-.7 0-1 .07-.27.13-.54.03-.84l-.13-.29-.53-.34-.15.05a.1.1 0 0 0-.06.05.1.1 0 0 0 0 .09c.1.24.16.49.18.74.04.44.15.69.32 1.05l.23.88c.02.06.05.07.1.03a.64.64 0 0 1 .34-.12c.14 0 .24.04.28.15a.09.09 0 0 1-.01.09.1.1 0 0 1-.08.04c-.94 0-.9 1.03-.85 1.94.03.61.06 1.17-.2 1.33a.14.14 0 0 1-.22-.13l.31-2.83c.01-.08-.02-.11-.1-.1l-.22.04-.4-.25a.14.14 0 0 1-.05-.06.14.14 0 0 1-.01-.09 1.9 1.9 0 0 0-.29-1.56l.14 1.04c0 .05-.02.07-.06.04-.24-.1-.25-.53-.27-.9v-.17c-.05-.1-.1-.14-.2-.14-.07 0-.1.03-.07.1.13.35.19.68.17.97-.01.2.07.3.23.35.06.01.1.05.11.11.07.36.28.58.62.66.04.2-.01.33-.15.4a.1.1 0 0 1-.12-.06.56.56 0 0 0-.43-.4.13.13 0 0 0-.15.07l-.42.83a.1.1 0 0 1-.06.04.09.09 0 0 1-.07 0l-.07-.05c-.09-.05-.1-.11-.04-.2l.3-.41a.07.07 0 0 0-.01-.09.07.07 0 0 0-.08-.02c-.19.09-.35.25-.48.5 0 .03-.04.06-.12.08a.24.24 0 0 0-.16.11c-.4.64-.95 1.08-1.67 1.32a.17.17 0 0 1-.2-.08.16.16 0 0 1 .05-.21l1.84-1.4c.15-.36.34-.41.54-.46a.77.77 0 0 0 .4-.2.39.39 0 0 0 .1-.46 3.94 3.94 0 0 1-.35-1.8c0-.04.02-.07.04-.1.09-.13.03-.25-.18-.38-.16 0-.22.02-.16.03.15.4.17.86.05 1.38a2.75 2.75 0 0 1-.35-1.36c.01-.06-.03-.1-.13-.1a.15.15 0 0 0-.15.1c.09.13.1.26.01.37a.15.15 0 0 1-.27-.05c-.04-.18.02-.3.19-.37-.43-.06-.75.08-1.05.21-.23.1-.44.2-.67.18a.88.88 0 0 1-.59.4c-.3.04-.47-.26-.36-.52.03-.07 0-.12-.05-.15l-.47-.23c.27-.23.33-.36.17-.4l-.2.36-.27.24c-.05.04-.1.04-.14-.01a.15.15 0 0 1-.04-.09c0-.04.02-.1.07-.15.34-.38.65-.78.93-1.2-.14-.08-.3.03-.48.32-.17.2-.35.4-.53.63-.34.42.02.98.48 1.05.06.01.1.04.14.09.4.54 1.37-.01 2-.36a7.89 7.89 0 0 1 .41-.2.26.26 0 0 1 .26.14l.24.5a.1.1 0 0 0 .07.05.1.1 0 0 0 .09-.01l.22-.15c.06-.05.1-.03.1.05-.02.4.06.76.25 1.07.04 0 .05.02.03.07 0 .02-.02.04-.04.06a14.2 14.2 0 0 1-3.67 2.57c-.1.05-.12.12-.05.2.1.13.25.17.46.14.31 0 .52.07.63.19a.7.7 0 0 0 .6.2c.06-.01.11 0 .15.05.33.38.71.44 1.17.18.06-.04.1-.02.1.06l.03.33a.12.12 0 0 0 .18.1l.4-.2c.04-.03.07-.02.1.02l.23.35a.1.1 0 0 0 .06.04.1.1 0 0 0 .07 0l.35-.2a.13.13 0 0 1 .16.01c.02.02.03.03.03.05l.12.32a.1.1 0 0 0 .07.06.09.09 0 0 0 .08-.03l.3-.36c.06-.06.1-.06.15 0l.16.2a.1.1 0 0 0 .12.03c.02 0 .03-.02.04-.03l.2-.2c.05-.05.1-.05.17 0l.18.2a.1.1 0 0 0 .11.01.1.1 0 0 0 .04-.02l.2-.26c.06-.08.13-.08.2 0l.19.22a.1.1 0 0 0 .08.03.1.1 0 0 0 .07-.05l.15-.27c.04-.08.1-.1.16-.06l.3.15a.1.1 0 0 0 .14-.05l.18-.34c.04-.08.1-.1.16-.03.13.13.3.18.49.14.08-.01.12-.06.12-.15v-.17c0-.09.04-.12.12-.1l.47.13c.05.01.1 0 .14-.01.13-.07.18-.18.14-.34a.1.1 0 0 1 .15-.13c.3.16.5.1.6-.17a.18.18 0 0 1 .16-.12c.37-.04.72-.16 1.04-.35.07-.04.07-.08 0-.1l-.58-.25c-1-.42-1.89-.8-2.83-1.51a.24.24 0 0 1-.08-.27c.14-.4.19-.82.14-1.24a.12.12 0 0 1 .08-.14c.04-.01.07 0 .1.02.2.13.42.18.62.15a.09.09 0 0 0 .08-.1l-.02-.04a.94.94 0 0 0-.42-.26c-.03-.01-.1.04-.18.14-.48-.21-.73-.54-.75-.98Zm-.45 1.62c.29.15.4.4.33.73-.02.1-.06.1-.12.03-.13-.17-.2-.43-.21-.76Zm.41-1.76c.03.3-.08.44-.33.44-.14-.22-.19-.4-.15-.55.02-.08.07-.11.14-.11.13 0 .25.08.34.22Zm-6.7 5.1c.78-.44 1.5-.97 2.17-1.59.28-.26.5-.31.87-.35a.13.13 0 0 0 .12-.15.41.41 0 0 0-.1-.22.23.23 0 0 1-.06-.16v-.22a.06.06 0 0 0-.04-.05h-.03l-.03.01a15.09 15.09 0 0 1-3.53 2.6c-.08.05-.08.1 0 .13l.11.01.53-.01Zm4.48-4.72c-.08-.21-.03-.26.16-.15.54.3.63.73.28 1.27-.04.06-.08.07-.12.01a.72.72 0 0 1-.18-.65.3.3 0 0 0-.02-.2l-.12-.28Zm2.34 2.44a9.75 9.75 0 0 0 3.16 1.88.06.06 0 0 1-.03.1c-.73.16-2.08-.8-2.84-1.35l-.24-.17c-.17-.12-.24-.23-.17-.43.03-.06.07-.07.12-.03Zm-1.8 3.25c0-.87.05-1.72.14-2.57.17-.16.32-.24.46-.23.08 0 .1.04.04.1-.07.09-.2.15-.39.19 0 .4.04.77.08 1.14a5.74 5.74 0 0 1 .03 1.62.1.1 0 0 1-.1.04.34.34 0 0 1-.2-.1.3.3 0 0 1-.05-.19Zm3.86-.77a5.43 5.43 0 0 1-1.61-1.39.95.95 0 0 1-.43.36.07.07 0 0 1-.09-.1c.1-.28.01-.51-.25-.67a.12.12 0 0 1-.04-.05.11.11 0 0 1-.01-.06l.01-.08a.03.03 0 0 1 .02-.02h.03l.77.5L32.35 36a.1.1 0 0 1 .05.05.1.1 0 0 1 0 .08l-.05.09a.17.17 0 0 1-.1.09h-.07a.17.17 0 0 1-.07-.02Zm-5.96.94c.07-.67.34-1.27.81-1.8.06-.07.05-.13-.02-.18a.25.25 0 0 0-.14-.04h-.07c-.07 0-.1-.04-.07-.1l.14-.54a.07.07 0 0 1 .12-.02c.2.29.27.6.21.9 0 .07-.02.13-.03.2-.12.58-.3 1.55-.84 1.68a.1.1 0 0 1-.1-.06l-.01-.04Zm3.07-2.61-.27.65a.04.04 0 0 1-.02.02h-.04a.24.24 0 0 1-.09-.08.3.3 0 0 1-.06-.1.38.38 0 0 1-.01-.14c0-.05.01-.1.03-.14l.02-.04c.03-.09.1-.16.17-.2a.26.26 0 0 1 .23-.02h.02a.04.04 0 0 1 .02.03v.02Zm-1.96 2.73-.31-.07a.04.04 0 0 1-.03-.05l.08-.37c.1-.51.23-1 .34-1.35.12-.35.21-.55.26-.54.03 0 .04.06.05.16 0 .1 0 .25-.03.43a11.07 11.07 0 0 1-.23 1.38l-.08.38a.04.04 0 0 1-.05.03Zm3.21-2.14 1.23 1.29a.02.02 0 0 1 0 .03c-.07.06-.19.05-.35-.03a1.94 1.94 0 0 1-.5-.4l-.03-.02a2.34 2.34 0 0 1-.36-.52.61.61 0 0 1-.06-.21c0-.06.01-.1.04-.14a.02.02 0 0 1 .01 0h.02Zm-5.06 1.52.82-1.2.01-.17a.08.08 0 0 1 .05-.07.08.08 0 0 1 .09.03c.05.06.07.14.04.23l.04.1c.03.07.02.13 0 .2l-.48.9a.29.29 0 0 1-.15.13l-.23.1a.16.16 0 0 1-.22-.15c0-.03 0-.07.03-.1Zm-1.05-.03 1.42-1.32h.04c.08.09.08.24 0 .42-.08.19-.23.4-.42.57l-.03.02a2.1 2.1 0 0 1-.59.39.65.65 0 0 1-.25.04.24.24 0 0 1-.17-.07.03.03 0 0 1 0-.05Zm6.5.07-.28.17a.13.13 0 0 1-.18-.04l-.02-.03c-.18-.3-.33-.62-.42-.86-.09-.25-.1-.4-.04-.45l.04-.01c.06-.04.2.05.37.24.17.19.38.47.56.78l.02.02a.13.13 0 0 1-.01.15.13.13 0 0 1-.04.03Zm-1.47.2-.08.15a.27.27 0 0 1-.1.1.5.5 0 0 1-.17.06c-.03 0-.06-.08-.09-.26a25.56 25.56 0 0 1-.14-1.41.08.08 0 0 1 .06-.05h.03c.15.06.23.15.27.27l.24.97c.02.06.01.11-.02.17Zm.6.04c-.02.04-.04.07-.06.08-.06.01-.13-.05-.2-.18a2.37 2.37 0 0 1-.3-.82l-.03-.26c0-.07 0-.14.02-.18 0-.05.03-.07.05-.08.06-.02.13.05.2.18a2.37 2.37 0 0 1 .3.81l.03.26c0 .08 0 .14-.02.19Zm.22-6.14c.23.31.5.54.82.7a.1.1 0 0 0 .12-.02.1.1 0 0 0 0-.13l-.71-.77a.33.33 0 0 0-.14-.09c-.22-.07-.4-.18-.54-.32a.13.13 0 0 0-.22.13c.08.26.26.4.55.43.05 0 .09.03.12.07Zm1.67.24c.03-.07 0-.17-.09-.28a1.58 1.58 0 0 0-.86-.47l-.18.01a.16.16 0 0 0-.1.07c-.03.07 0 .17.09.28a1.59 1.59 0 0 0 .86.47l.18-.01a.16.16 0 0 0 .1-.07Zm-9.56.64v-.06a.16.16 0 0 0-.04-.05.31.31 0 0 0-.07-.05.44.44 0 0 0-.18-.06h-.09a.17.17 0 0 0-.06.03.08.08 0 0 0-.03.04v.06c0 .02.02.04.04.05l.07.06a.43.43 0 0 0 .26.05c.03 0 .05-.02.06-.03a.08.08 0 0 0 .04-.04Z" fill="#010102"/><path d="M39.96 19.04c-.07.09-.08.2-.02.24.05.04.15 0 .22-.08.07-.09.08-.2.03-.24-.06-.04-.16 0-.23.08Zm.14 1.52-.6.06c.2-.23.4-.28.62-.16.03.02.03.06-.02.1Zm-18.58 4c-.57.1-1-.09-1.28-.58.04.29.23.5.56.66a.2.2 0 0 1 .12.16c.06.3.24.47.55.5.07 0 .1.04.1.1.02.2.1.34.26.43.1.09.11.16.06.23h.88c.02 0 .02-.01.03-.03v-.05c0-.02-.02-.02-.04-.02-.38.06-.66.02-.85-.12-.15-.16-.24-.3-.29-.43a.1.1 0 0 1 .12-.13l.24.06c.04.01.06 0 .04-.05a.16.16 0 0 0-.09-.1.15.15 0 0 0-.1-.02c-.34.09-.6 0-.78-.26a.14.14 0 0 1 .05-.2c.15-.08.28-.08.4.02.02.02.04.02.05 0l.04-.07c.05-.09.03-.12-.07-.1Zm1.98 2.06c.08.04.08.07 0 .08a.87.87 0 0 1-.35-.01c-.1-.02-.1-.05-.02-.1a.4.4 0 0 1 .38.03Zm5.78 2.22c.26 0 .48.1.67.3a.85.85 0 0 1-.67-.3Zm-2.73.54-.12.13a.05.05 0 0 1-.1-.04v-.17c0-.06.02-.08.08-.06l.11.04c.06.02.07.05.03.1ZM11.73 15.97c-.07-.1-.22-.19-.45-.23l-.87-.82a.06.06 0 0 0-.09.05 8.06 8.06 0 0 0 1.09 2.32.05.05 0 0 1-.04.05h-.03l-1.16-.54a.13.13 0 0 0-.15.03.13.13 0 0 0-.01.16l1 1.7a.05.05 0 0 1 0 .06.05.05 0 0 1-.06.01l-.8-.29a.08.08 0 0 0-.12.07l.01.05c.44.8 1.04 1.45 1.8 1.97h.3a7.34 7.34 0 0 1-1.73-1.71.08.08 0 0 1 .1-.06c.18.1.38.15.6.13.06 0 .12.02.17.06.95.82 1.99 1.52 3.11 2.09.28.14.52.33.76.52.3.23.59.46.93.6.18.06.35.12.52.2.78.3 1.56.6 2.41.62a.32.32 0 0 0-.02-.05.13.13 0 0 0-.1-.06c-1.49-.22-3.14-.71-4.15-1.93-1.8-.78-3.51-1.95-4.4-3.76a.07.07 0 0 1 .04-.1h.04c.57.2 1 .36 1.4.86.9 1.12 1.96 2.07 3.15 2.85a.08.08 0 0 0-.01.06c0 .03.03.05.06.05a2.8 2.8 0 0 1 1.8.7c.05.04.11.06.17.06.46 0 1.54.63 2.13.98l.22.12c.11.07.24.1.36.14.12.04.24.07.36.14.09.04.1.03.05-.05a.63.63 0 0 0-.06-.08 13.6 13.6 0 0 1-4.24-2.71c-.11-.34-.26-.57-.46-.69-.36 0-.72-.04-1-.32-.98-1-1.86-2.07-2.63-3.25Zm4.09 4.26c.12.36.44.66.95.9l.49.36c.07.05.06.09-.02.11-.23.07-.42-.03-.59-.3a4.15 4.15 0 0 1-2.02-1.64c-.05-.08-.03-.12.07-.1.45.06.82.28 1.12.67Zm-1.17-.35c.16.22.32.44.53.63.04.03.08.05.13.06.09 0 .17.05.23.14a.1.1 0 0 1-.01.13.1.1 0 0 1-.13.02 11.42 11.42 0 0 1-4.63-5.13c0-.01 0-.02.02-.03a.06.06 0 0 1 .06 0l.1.05c.3.16.57.31.79.62a23.3 23.3 0 0 0 2.51 3.01c.15.15.27.32.4.5Zm4.67 3.22 1.02.7a.22.22 0 0 0 .19.04c.14-.05.25-.02.34.09a.05.05 0 0 1 0 .05l-.01.02h-.03l-.57-.1-.94-.8Zm13.66 5.8c.05.04.1 0 .16-.11l-.83-.45c-.12-.07-.13-.05-.04.04.21.2.44.38.7.52ZM31.44 30l.09.06c.04.02.04.03 0 .04a.44.44 0 0 1-.36-.08 1.24 1.24 0 0 1-.13-.11c-.21-.34-.52-.5-.92-.5a.1.1 0 0 1-.1-.09.1.1 0 0 1 0-.05 1.5 1.5 0 0 0 .02-.07.05.05 0 0 1 .04-.02.05.05 0 0 1 .02 0c.5.13.93.39 1.28.78a.2.2 0 0 0 .06.05Zm-4.54.6c.15.14.33.24.55.3.12-.25.33-.35.63-.31.06 0 .12 0 .17-.03.17-.08.31-.04.42.12h.01a2.78 2.78 0 0 1 .07-.07v-.01a.04.04 0 0 0-.02-.03.41.41 0 0 1-.25-.3.38.38 0 0 0-.12-.19l-.39-.35a.22.22 0 0 0-.19-.05c-.24.04-.38-.06-.52-.17-.12-.09-.24-.18-.44-.19-.08 0-.09.02-.01.06l.47.25a.09.09 0 0 1-.04.16l-.57.01-.14.18a.21.21 0 0 1-.18.07.61.61 0 0 0-.45.15.04.04 0 0 0 0 .05.04.04 0 0 0 .04.02l1.46-.37c.44-.16.77-.03.99.38.04.07.02.11-.06.13a.92.92 0 0 1-.92-.27.11.11 0 0 0-.06.04l-.01.03v.03l.21.25a.15.15 0 0 1-.21.2.6.6 0 0 0-.42-.14.03.03 0 0 0-.02.05Z" fill="#010102"/><path d="m26.46 29.7-.51-.08a.3.3 0 0 0-.11.07c-.04.05-.03.08.03.09.19.02.38 0 .59-.07Zm-1.33.7c-.04 0-.06.01-.05.05 0 .05-.02.08-.06.1l-.25.07a.05.05 0 0 0-.04.05.05.05 0 0 0 .04.04.7.7 0 0 0 .42 0c.06-.02.1-.05.12-.1a.16.16 0 0 0-.01-.16c0-.02-.03-.03-.06-.04a.45.45 0 0 0-.11-.02Zm2.82 2.58-.4.7a.16.16 0 0 1-.12.07c-.1.02-.15-.04-.13-.16a.11.11 0 0 1 .05-.08l.19-.13c.06-.04.08-.1.06-.17l-.57-1.83a.22.22 0 0 0-.12-.13l-.57-.24c0-.14-.11-.24-.34-.3l-.03-.02a.04.04 0 0 1 .02-.07l.05-.03h.04c.33.27.7.48 1.09.65.06.03.07.07.04.13l-.03.05a.17.17 0 0 0 0 .17c.06.11.12.26.18.43.14.37.3.81.6.96Zm1.25-.73c.13.19.24.23.33.13 0-.19-.13-.29-.24-.38l-.14-.13a19.2 19.2 0 0 1-.4-.56c-.2-.29-.4-.57-.42-.57a.06.06 0 0 0-.05.03.06.06 0 0 0 0 .06l.2.36c.03.1.08.16.15.21l.57.85Zm-3.77-1.43c.03-.01.06 0 .08.02.04.05.04.08-.02.1l-.6.18a.2.2 0 0 1-.13 0c-.07-.02-.07-.05 0-.08.3-.11.52-.19.67-.22Z" fill="#010102"/></svg>