<!-- by TradingView --><svg width="18" height="18" viewBox="0 0 18 18" xmlns="http://www.w3.org/2000/svg"><path fill="#F0F3FA" d="M0 0h18v18H0z"/><path d="M12.33 10.4c0 1.83-1.73 3.66-2.64 4.38-.06.05-.1.11-.04.17.06.05.18.07.24.02C12.32 13.11 13 11.74 13 10c0-1.2-1.1-2.83-1.94-4.08-.31-.46-.6-.88-.77-1.2-.73-1.34-.9-2.1-.9-2.54 0-.1-.1-.18-.2-.18S9 2.07 9 2.16v.23c0 .81.63 1.84 1.35 3 .92 1.52 1.98 3.25 1.98 5.01Zm-6.4 1.67a4.08 4.08 0 0 1-.81-1.4.06.06 0 0 0-.06-.04c-.03 0-.06.02-.06.06-.04.82.41 1.64.98 2.15.05.05.1.08.16.1-.08.01-.14.05-.14.11 0 .03 0 .05.03.08.32.5.84.87 1.34.87 1 0 1.62-1.57 1.62-3.26C9 9.73 8.93 8.9 8.9 8.5v-.1c-.01-.11.09-.2.22-.2.14 0 .23.1.24.2v.04c.07 1.4.2 4.03.93 4.03.96 0 1.23-1.8 1.23-2.44 0-.64-.4-2.46-1.84-4.54a6.48 6.48 0 0 1-.95-2.42c0-.05-.05-.08-.08-.07-.03 0-.05.03-.05.06-.05.64.1 1.64 1 3.37 1.1 2.07 1.23 3.04 1.23 3.74 0 .7-.02 1.7-.28 1.7s-.4-1.56-.4-1.96c0-.4 0-2.33-1.02-2.33-.53 0-.81.67-.87.96a1.1 1.1 0 0 0-.28-.04c-.43 0-.94.26-.94 1.24 0 1.24.58 1.82 1.03 1.82.1 0 .2-.03.29-.09 0 .33-.27 1.92-1.22 1.92-.29 0-.6-.2-.82-.38L6.3 13c.39.04.72-.39.55-.87a8.47 8.47 0 0 1-.7-3.01c0-1.09.49-2.85.85-4.01.02-.1-.1-.15-.15-.07-.8 1.25-1.28 3-1.28 4.08 0 1.03.3 2.2.47 2.82l.01.04c.02.06-.02.1-.07.1l-.05-.01Zm2.49-2.35c0 .26-.08.61-.18.61-.1 0-.17-.35-.17-.6 0-.26.08-.31.17-.31.1 0 .18.05.18.3Z" fill="url(#a4qsvcamn)"/><path d="M8 4.86c0-.5.06-1.29.15-1.83.01-.05.07-.04.07.01.03 1.21.4 2.54.74 3.45.07.18.05.37-.1.46a.28.28 0 0 1-.38-.07A3.5 3.5 0 0 1 8 4.86Z" fill="url(#b4qsvcamn)"/><defs><linearGradient id="a4qsvcamn" x1="5.7" y1="6.15" x2="9.82" y2="10.52" gradientUnits="userSpaceOnUse"><stop stop-color="#BF8F66"/><stop offset="1" stop-color="#86563A"/></linearGradient><linearGradient id="b4qsvcamn" x1="8.09" y1="4.28" x2="9.01" y2="4.67" gradientUnits="userSpaceOnUse"><stop stop-color="#BF8F66"/><stop offset="1" stop-color="#86563A"/></linearGradient></defs></svg>