<!-- by TradingView --><svg width="56" height="56" viewBox="0 0 56 56" xmlns="http://www.w3.org/2000/svg"><path fill="#F0F3FA" d="M0 0h56v56H0z"/><path d="M29 21v4.46h-.39c-.3-1.83-1.35-3.72-3.46-3.72-1.03 0-2.15.65-2.15 1.78 0 3.6 7 2.98 7 7.39 0 2.41-2.13 4.09-4.44 4.09-1.16 0-2.15-.8-3.24-.8-.46 0-.8.4-.97.79H21V30h.35a5.73 5.73 0 0 0 1.6 3.2 3.7 3.7 0 0 0 2.56 1.1c1.15 0 2.49-.74 2.49-2 0-3.79-7-3.3-7-7.45A3.9 3.9 0 0 1 24.97 21c.42 0 .83.05 1.22.16.64.17 1.1.84 1.77.84.46 0 .68-.62.76-1H29Z" fill="#0367B8"/><path d="M13.07 21H6v14h7.38l-.06-.03-.18-.08c-2.38-1.13-5.03-2.39-6.4-4.75a5.63 5.63 0 0 1-.72-2.82c0-3.81 3.45-6.32 7.05-6.32Z" fill="#FEA901"/><path d="M19.9 21v.02c-.16.67-.34 1.49-1.16 1.49-.3 0-.84-.18-1.6-.52a9.36 9.36 0 0 0-4.07-.99h6.83Zm.1 7c-.5-2.87-3.58-6.01-6.63-6.01-1.7 0-3.37 1.2-3.37 3.14 0 1.26.6 2.14 1.57 2.8.53.36 1.74 1 3.65 1.9A19.9 19.9 0 0 1 20 32.77V28Z" fill="#FEA901"/><path d="M37 34.62V35h-7v-.38h.5c1.4 0 1.5-.76 1.5-2.02v-9.2c0-1.25-.1-2.02-1.5-2.02H30V21h7v.38h-.5c-1.4 0-1.5.76-1.5 2.02v9.2c0 1.27.09 2.02 1.5 2.02h.5Zm9.52-7.04c1.87.46 3.48 1.37 3.48 3.56C50 34 47.22 35 44.8 35H38v-.38c1.55 0 2-.62 2-2.08v-9.08c0-1.46-.45-2.08-2-2.08V21h6.43c2.33 0 5.07.63 5.07 3.52 0 1.78-1.45 2.64-2.98 3.06ZM43 27.3c1.82 0 3.52-.72 3.52-2.79 0-2.06-1.66-2.52-3.52-2.51v5.3Zm0 .7-.01 4.87c0 .75.39 1.13 1.08 1.13 1.68 0 2.93-1.13 2.93-2.75 0-2.37-1.94-3.26-4-3.25Z" fill="#0367B8"/></svg>