<!-- by TradingView --><svg width="56" height="56" viewBox="0 0 56 56" fill="none" xmlns="http://www.w3.org/2000/svg">
<rect width="56" height="56" fill="#F0F3FA"/>
<path fill-rule="evenodd" clip-rule="evenodd" d="M29.3507 39.9378C37.5403 39.9378 44.2607 33.703 44.943 25.7614C44.9807 26.2198 45 26.6834 45 27.1514C45 36.4566 37.3888 44 28 44C18.6112 44 11 36.4566 11 27.1514C11 21.2186 14.0941 16.0019 18.7702 13C15.6544 15.8351 13.7014 19.9055 13.7014 24.428C13.7014 32.9938 20.7078 39.9378 29.3507 39.9378ZM29.1803 25L28 21L26.8197 25H23L26.0902 27.1803L24.9098 31L28 28.6393L31.0902 31L29.9098 27.1803L33 25H29.1803Z" fill="#00351E"/>
</svg>
