<!-- by TradingView --><svg width="18" height="18" viewBox="0 0 18 18" xmlns="http://www.w3.org/2000/svg"><path fill="#F0F3FA" d="M0 0h18v18H0z"/><path d="M13.6 4.79A6.32 6.32 0 0 0 4 5.7l.01.05.2.22c.03.03.04.02.06 0 2-2.9 6.04-3.5 8.78-1.18l.3.24h.04l.2-.2c.02-.02.02-.03 0-.04ZM7.88 12.2a3.22 3.22 0 0 1-1.35-.9.06.06 0 0 0-.08 0L5.1 12.52c-.03.03-.03.05 0 .08a5.68 5.68 0 0 0 8.4-.23c.02-.02.02-.03 0-.05a73.9 73.9 0 0 1-3.12-3.44V8.8l1.21-1.88c.11-.16.23-.32.38-.46a100.47 100.47 0 0 0 1.22-1.24V5.2a5.67 5.67 0 0 0-8.62.8v.05l2.27 2.4a.04.04 0 0 1 .01.03.03.03 0 0 1-.02.03l-1.74.68h-.01a.02.02 0 0 0 0 .03l2.66.64c.02 0 .03.01.03.03l.16 2.29c0 .02-.01.03-.04.02Zm-.15-6.44a3.73 3.73 0 0 1 4.03.75c.03.03.02.05-.02.06l-2.47.97a.05.05 0 0 1-.06-.01l-1.5-1.72c-.01-.02 0-.04.02-.05Zm.22 2.62v-.01l-.14-1.94v-.01l.01-.01a.02.02 0 0 1 .03 0l1.3 1.49h.02l1.86-.72a.02.02 0 0 1 .02 0v.03L10 8.86a.02.02 0 0 0 0 .02l1.3 1.5a.02.02 0 0 1-.01.02h-.01l-1.96-.47-.02.01-1.07 1.65v.01H8.2v-.02l-.15-1.93v-.02h-.01l-1.96-.47a.02.02 0 0 1 0-.04l1.87-.73v-.01Zm2.4 3.88a3.97 3.97 0 0 1-2.2.03.03.03 0 0 1 0-.03l.9-1.38c0-.02.02-.02.04 0l1.27 1.35c.02.01.01.02 0 .03Zm-5.5.5a5.98 5.98 0 0 0 8.86-.18c.02-.03.05-.03.07 0l.2.19v.04a6.33 6.33 0 0 1-9.38.22c-.02-.02-.02-.03 0-.05l.2-.22c.01-.03.03-.03.05 0ZM8.2 7.52c0 .27.02.67.05 1l-.97.4-.3.12.31.1 1.03.28.09 1.3.09-.12.1-.14c.2-.31.55-.8.57-.83a869.84 869.84 0 0 0 1.36.27 38.88 38.88 0 0 1-.87-1.03l.52-.87.08-.14.08-.14-.15.06-.15.06-.98.37-.87-1 .01.31Zm.8.93.13-.05.6-.22.15-.06-.04.05-.23.4-.09.13-.02.04v.01h-.01l-.08.13.1.12.39.46.1.13-.17-.04-.62-.12-.14-.03-.07.12-.01.01-.03.04-.09.13-.26.38-.04.06-.05-.73a.36.36 0 0 0-.09-.15l-.02-.02h-.04l-.01-.01-.04-.02-.16-.04-.46-.13-.1-.03.14-.06.58-.24.14-.05-.01-.15a21.1 21.1 0 0 1-.04-.75l.6.69Z" fill="#55766F"/></svg>