<!-- by TradingView --><svg width="56" height="56" viewBox="0 0 56 56" xmlns="http://www.w3.org/2000/svg"><path fill="#F0F3FA" d="M0 0h56v56H0z"/><path fill-rule="evenodd" d="M33.35 21A3.32 3.32 0 0 0 30 24.3v11.4c0 1.82 1.5 3.3 3.35 3.3h11.3A3.32 3.32 0 0 0 48 35.7V24.3c0-1.82-1.5-3.3-3.35-3.3h-11.3Zm.95 1a3.28 3.28 0 0 0-3.3 3.25v9.5c0 1.8 1.48 3.25 3.3 3.25h9.4c1.82 0 3.3-1.45 3.3-3.25v-9.5c0-1.8-1.48-3.25-3.3-3.25h-9.4Z" fill="url(#adtd3gvhl)"/><path fill-rule="evenodd" d="M43.09 23.1H34.9a2.79 2.79 0 0 0-2.81 2.76v8.28a2.79 2.79 0 0 0 2.81 2.77h8.18a2.79 2.79 0 0 0 2.81-2.77v-8.28a2.79 2.79 0 0 0-2.81-2.77Zm-8.18-.44a3.23 3.23 0 0 0-3.25 3.2v8.28c0 1.77 1.45 3.2 3.25 3.2h8.18c1.8 0 3.25-1.43 3.25-3.2v-8.28c0-1.77-1.45-3.2-3.25-3.2H34.9Z" fill="url(#bdtd3gvhl)"/><path d="M33 25.06c0-.59.48-1.06 1.08-1.06h9.84c.6 0 1.08.47 1.08 1.06v2.37H33v-2.37Zm0 3.23h12v3.42H33V28.3Zm0 4.28v2.37c0 .59.48 1.06 1.08 1.06h9.84c.6 0 1.08-.47 1.08-1.06v-2.37H33Z" fill="url(#cdtd3gvhl)"/><path d="m12 14 2 1.68V41h-2V14Z" fill="url(#ddtd3gvhl)"/><path d="m22 16 2 1.68V41h-2V16Z" fill="url(#edtd3gvhl)"/><path d="m20 12-2 1.66V41h2V12Z" fill="url(#fdtd3gvhl)"/><path d="m16 16-4 6.35 1.97.65L16 16Z" fill="url(#gdtd3gvhl)"/><path d="m9 24 5 8h-1.93L9 24Z" fill="url(#hdtd3gvhl)"/><path d="m23 23-5 9h1.98L23 23Z" fill="url(#idtd3gvhl)"/><path d="m17 17 3 6h-1.64L17 17Z" fill="url(#jdtd3gvhl)"/><path d="m20 29 4 7h-2l-2-7Z" fill="url(#kdtd3gvhl)"/><path d="m25 19-3 6h1.64L25 19Z" fill="url(#ldtd3gvhl)"/><path d="M15.02 26.34 14 31v-4.66l.72-2.34.91.6.37 6.32-.98-4.58Z" fill="url(#mdtd3gvhl)"/><path d="M25.02 28.34 24 33v-4.66l.72-2.34.92.6.36 6.32-.98-4.58Z" fill="url(#ndtd3gvhl)"/><path d="M16.98 26.34 18 31v-4.66L17.28 24l-.92.6-.36 6.32.98-4.58Z" fill="url(#odtd3gvhl)"/><defs><linearGradient id="adtd3gvhl" x1="48" y1="30.76" x2="30" y2="30.76" gradientUnits="userSpaceOnUse"><stop stop-color="#AFD4D0"/><stop offset="1"/></linearGradient><linearGradient id="bdtd3gvhl" x1="46.34" y1="30.62" x2="31.66" y2="30.62" gradientUnits="userSpaceOnUse"><stop stop-color="#AFD4D0"/><stop offset="1"/></linearGradient><linearGradient id="cdtd3gvhl" x1="33" y1="29.34" x2="45" y2="29.34" gradientUnits="userSpaceOnUse"><stop/><stop offset=".11" stop-color="#3A9598"/><stop offset=".88" stop-color="#3A9598"/><stop offset="1" stop-color="#B8E4E3"/></linearGradient><linearGradient id="ddtd3gvhl" x1="12" y1="20.3" x2="14" y2="20.3" gradientUnits="userSpaceOnUse"><stop stop-color="#638C64"/><stop offset=".49" stop-color="#B6C681"/><stop offset="1" stop-color="#54825B"/></linearGradient><linearGradient id="edtd3gvhl" x1="22" y1="21.83" x2="24" y2="21.83" gradientUnits="userSpaceOnUse"><stop stop-color="#638C64"/><stop offset=".49" stop-color="#B6C681"/><stop offset="1" stop-color="#54825B"/></linearGradient><linearGradient id="fdtd3gvhl" x1="20" y1="18.76" x2="18" y2="18.76" gradientUnits="userSpaceOnUse"><stop stop-color="#638C64"/><stop offset=".49" stop-color="#B6C681"/><stop offset="1" stop-color="#54825B"/></linearGradient><linearGradient id="gdtd3gvhl" x1="16" y1="19.03" x2="12.59" y2="22.23" gradientUnits="userSpaceOnUse"><stop offset=".5" stop-color="#96A468"/><stop offset="1" stop-color="#478538"/></linearGradient><linearGradient id="hdtd3gvhl" x1="9" y1="27.46" x2="12.9" y2="31.47" gradientUnits="userSpaceOnUse"><stop offset=".5" stop-color="#96A468"/><stop offset="1" stop-color="#478538"/></linearGradient><linearGradient id="idtd3gvhl" x1="23" y1="26.9" x2="18.63" y2="30.88" gradientUnits="userSpaceOnUse"><stop offset=".5" stop-color="#96A468"/><stop offset="1" stop-color="#478538"/></linearGradient><linearGradient id="jdtd3gvhl" x1="17" y1="19.6" x2="19.87" y2="21.95" gradientUnits="userSpaceOnUse"><stop offset=".5" stop-color="#96A468"/><stop offset="1" stop-color="#478538"/></linearGradient><linearGradient id="kdtd3gvhl" x1="20" y1="32.03" x2="23.41" y2="35.23" gradientUnits="userSpaceOnUse"><stop offset=".5" stop-color="#96A468"/><stop offset="1" stop-color="#478538"/></linearGradient><linearGradient id="ldtd3gvhl" x1="25" y1="21.6" x2="22.13" y2="23.95" gradientUnits="userSpaceOnUse"><stop offset=".5" stop-color="#96A468"/><stop offset="1" stop-color="#478538"/></linearGradient><linearGradient id="mdtd3gvhl" x1="16" y1="27.03" x2="13.38" y2="28.26" gradientUnits="userSpaceOnUse"><stop offset=".5" stop-color="#96A468"/><stop offset="1" stop-color="#478538"/></linearGradient><linearGradient id="ndtd3gvhl" x1="26" y1="29.03" x2="23.38" y2="30.26" gradientUnits="userSpaceOnUse"><stop offset=".5" stop-color="#96A468"/><stop offset="1" stop-color="#478538"/></linearGradient><linearGradient id="odtd3gvhl" x1="16" y1="27.03" x2="18.62" y2="28.26" gradientUnits="userSpaceOnUse"><stop offset=".5" stop-color="#96A468"/><stop offset="1" stop-color="#478538"/></linearGradient></defs></svg>