<!-- by TradingView --><svg width="56" height="56" viewBox="0 0 56 56" xmlns="http://www.w3.org/2000/svg"><path fill="#F0F3FA" d="M0 0h56v56H0z"/><path d="M36 22h3.5L37 32h5l-1 2h-8l3-12ZM5.5 32 5 34h24c2.5 0 3-2 3.5-4 .4-1.6-.83-2-1.5-2h-1.5c-.61 0-.85 0-.94-.12-.06-.07-.06-.19-.06-.38 0-.4.67-.5 1-.5H33l1-2h-5c-1 0-3.2.5-4 2.5-.8 2 .67 2.5 1.5 2.5H29c.17 0 .5.2.5 1s-1 1-1.5 1H5.5ZM25 25H7l-1 5h17.5l1.5-5Zm17 6h-3.5l1-3.5c.4-2 2.5-2.5 3.5-2.5h4.5l-1 2h-2c-1.2 0-1.83 1-2 1.5L42 31Zm0 3 .49-2h4.9l.48-2h-3.91l.98-2h3.9c.99 0 2.75.6 1.96 3l-.97 3H42Z" fill="#179D48"/></svg>