<!-- by TradingView --><svg width="56" height="56" viewBox="0 0 56 56" xmlns="http://www.w3.org/2000/svg"><path fill="#F0F3FA" d="M0 0h56v56H0z"/><path d="M7 29.31V32h5v-2.67c0-3.1 2-5.33 5-5.33 3.03 0 5 1.85 5 4.98l5 .02v-.02c0-5.7-4.48-9.98-10-9.98S7 23.62 7 29.31Z" fill="#555658"/><path d="M28 29.56c0 2.14-.69 3.44-3 3.44-2 0-3-1.5-3.01-3H17v.5c0 4.27 3.85 7.5 8 7.5 3.91 0 8-2.5 8-7v-1.43A5.4 5.4 0 0 1 38.5 24c3.08 0 5.51 2.4 5.5 5.56v2.42l5 .02v-2.42A10.72 10.72 0 0 0 38.5 19C32.84 19 28 22.5 28 29.56Z" fill="#4FA6DD"/></svg>