<!-- by TradingView --><svg width="18" height="18" viewBox="0 0 18 18" xmlns="http://www.w3.org/2000/svg"><path fill="#F0F3FA" d="M0 0h18v18H0z"/><path fill-rule="evenodd" d="M12.7 5a.42.42 0 0 0-.43.33l-.13.85a.78.78 0 0 0-.28-.06c-.18 0-.29.07-.35.2a.64.64 0 0 0-.25-.05c-.17 0-.27.1-.32.22a.53.53 0 0 0-.31-.08c-.38 0-.43.5-.43.72 0 .12.02.27.13.37-.13.13-.33.42-.33.75 0 .46.4.72.72.72.18 0 .36-.08.49-.18.16.12.27.21.5.21.76 0 1.04-.95 1.04-1.44a.82.82 0 0 0-.08-.39l.32-1.7c.03-.18 0-.47-.3-.47Zm-.1 2.56c0 .41-.23 1.32-.88 1.32-.21 0-.3-.1-.46-.21a.57.57 0 0 1-.06-.27c0-.36.52-.64.78-.96h-.37c-.24.02-.52.02-.63-.18.18-.1.68-.27.92-.3.38-.06.7.32.7.6Zm-.06-.5.3-1.61c.02-.1.03-.33-.14-.33a.28.28 0 0 0-.28.23l-.24 1.55.36.16Zm-.5-.23.08-.53a.63.63 0 0 0-.26-.06c-.15 0-.2.08-.24.2-.02.09-.03.28-.03.47.13-.04.33-.14.45-.08Zm-.6.13c0-.2 0-.4.03-.5a.49.49 0 0 0-.21-.07c-.16 0-.2.16-.22.26-.03.15-.04.3-.04.46.14-.06.29-.1.44-.15Zm-.6.1c.01-.18.03-.31.05-.42-.01-.03-.08-.1-.26-.1-.27 0-.28.46-.28.59 0 .1.02.32.19.32.26 0 .3-.2.3-.4Zm.08.35c-.08.12-.23.16-.38.16h-.09c-.11.11-.3.38-.3.68 0 .4.34.6.57.6a.7.7 0 0 0 .4-.15.7.7 0 0 1-.07-.3c0-.32.3-.58.57-.83-.02 0-.18.02-.33 0a.6.6 0 0 1-.37-.16Z"/><path d="M5.5 9h.91l.47 1.3L7.1 9H8l-.5 3h-.91v-.03l-.47-1.28L5.9 12H5l.5-3Z"/><path fill-rule="evenodd" d="M8.59 11.96c.5.15 1.1-.16 1.32-.7.23-.52 0-1.07-.5-1.22-.5-.15-1.1.16-1.32.7-.23.52 0 1.07.5 1.22Zm.3-.63c.18.02.37-.11.43-.3.05-.18-.04-.34-.22-.36-.17-.02-.36.11-.42.3-.05.18.04.34.22.36Z"/><path d="M10.2 9.59c-.1.31-.17.64-.2.74h.78l-.3 1.67h1.01L12 9h-.75c-.22.38-.63.59-1.06.59Z"/><path fill-rule="evenodd" d="M5.36 4a.56.56 0 0 0-.56.5L4 13.44c-.02.3.22.56.53.56h8.94c.31 0 .55-.26.53-.56l-.8-8.94a.55.55 0 0 0-.56-.5H5.36Zm0 .24a.3.3 0 0 0-.3.28l-.8 8.94c-.02.16.1.3.27.3h8.94c.16 0 .3-.14.28-.3l-.8-8.94a.3.3 0 0 0-.31-.28H5.36Z"/><path d="M7 14h4v.86c0 .08-.06.14-.14.14H7.14a.14.14 0 0 1-.14-.14V14ZM8 4h2v-.81c0-.1-.05-.19-.1-.19H8.1c-.05 0-.1.08-.1.19V4Z"/><path fill="#E60E7B" fill-opacity=".5" d="M5 7h5v2H5z"/></svg>