<!-- by TradingView --><svg width="18" height="18" viewBox="0 0 18 18" xmlns="http://www.w3.org/2000/svg"><path fill="#F0F3FA" d="M0 0h18v18H0z"/><path d="M10.08 4.12 9.92 3H8.08l-.16 1.12c-.56.12-1.1.34-1.6.66l-.91-.67-1.3 1.3.67.9c-.32.5-.54 1.05-.66 1.6L3 8.09v1.84l1.12.16c.12.56.34 1.1.66 1.6l-.67.91 1.3 1.3.9-.67c.5.32 1.05.54 1.6.66L8.09 15h1.84l.16-1.12c.56-.12 1.1-.34 1.6-.66l.91.67 1.3-1.3-.67-.9c.32-.5.54-1.05.66-1.6L15 9.91V8.08l-1.12-.16a4.97 4.97 0 0 0-.66-1.6l.67-.91-1.3-1.3-.9.67a4.97 4.97 0 0 0-1.6-.66ZM11.6 6.4a3.67 3.67 0 1 1-5.18 5.18A3.67 3.67 0 0 1 11.6 6.4Z"/><path d="M8 10.68C8 9.67 8.67 7.14 9 6c.33 1.14 1 3.67 1 4.68 0 1-.67 1.3-1 1.32-.33-.02-1-.31-1-1.32Z" fill="#1B95D2"/><path d="M8.33 10.88c0-.4.45-1.23.67-1.68.22.45.67 1.28.67 1.68 0 .53-.45.68-.67.7-.22-.02-.67-.17-.67-.7Z" fill="#FEFFFF"/></svg>