<!-- by TradingView --><svg width="18" height="18" viewBox="0 0 18 18" fill="none" xmlns="http://www.w3.org/2000/svg">
<rect width="18" height="18" fill="#F0F3FA"/>
<path opacity="0.3" d="M7.92435 10.7893L6.5 11.7697C6.69923 12.1798 7.43024 13 8.76049 13C10.4233 13 11.5 11.6294 11.5 10.6936C11.5 8.99349 10.0256 8.25742 9.31863 8.15871C8.61162 8.06 8.30985 7.78032 8.30985 7.48419C8.30985 7.18806 8.62024 6.79322 9.06604 6.79322C9.42268 6.79322 9.68768 7.18806 9.77559 7.38548L11.5 6.87548C10.8189 5.09871 9.61178 5 9.06604 5C8.52031 5 6.5 5.40306 6.5 7.48419C6.5 9.56532 8.63735 9.85858 9.06604 9.9456C9.49473 10.0326 9.63155 10.2632 9.63155 10.4982C9.63155 10.7331 9.36248 11.1813 8.76049 11.1813C8.2789 11.1813 8.0024 10.92 7.92435 10.7893Z" fill="black"/>
<path fill-rule="evenodd" clip-rule="evenodd" d="M13 4H5V14H13V4ZM12.5 4.5H5.5V13.5H12.5V4.5Z" fill="#1A1A1A"/>
</svg>
