<!-- by TradingView --><svg width="56" height="56" viewBox="0 0 56 56" fill="none" xmlns="http://www.w3.org/2000/svg">
<rect width="56" height="56" fill="#F0F3FA"/>
<path fill-rule="evenodd" clip-rule="evenodd" d="M40.8624 16.0595C33.0087 8.3431 20.3253 9.64585 14.0262 18.6521C13.9884 18.7052 13.9915 18.7558 14.0356 18.804L14.606 19.4285C14.6614 19.4878 14.7118 19.4841 14.7571 19.4174C20.3763 11.2117 31.6658 9.49389 39.3344 16.0799C39.6063 16.3122 39.8903 16.5389 40.1862 16.76C40.2253 16.7909 40.2624 16.7884 40.2977 16.7526L40.8643 16.1633C40.897 16.1275 40.8964 16.0929 40.8624 16.0595ZM24.8906 37.0759C23.6629 36.6015 22.2387 35.788 21.3963 34.7817C21.3157 34.6854 21.2194 34.5995 21.1073 34.5241C21.0762 34.503 21.0386 34.493 21.0008 34.4957C20.963 34.4984 20.9273 34.5136 20.8996 34.539L17.0842 37.9543C17.0099 38.021 17.0074 38.0902 17.0766 38.1618C23.6837 45.0221 34.4726 44.7164 40.6169 37.5262C40.6585 37.4768 40.6572 37.4286 40.6131 37.3817C37.5935 34.2165 34.6785 30.9624 31.8679 27.6194C31.8264 27.57 31.8226 27.5181 31.8566 27.4637C32.9974 25.6946 34.132 23.9211 35.2602 22.1434C35.5587 21.6727 35.9075 21.2378 36.3066 20.8388C37.455 19.6911 38.5889 18.5384 39.7084 17.3808C39.7262 17.3626 39.7361 17.3381 39.7357 17.3128C39.7353 17.2875 39.7249 17.2633 39.7065 17.2455C32.6291 10.2481 21.2018 11.4267 15.609 19.473C15.57 19.5298 15.5738 19.5836 15.6203 19.6342L21.9554 26.45C21.9664 26.4619 21.9742 26.4761 21.9784 26.4916C21.9826 26.507 21.983 26.5232 21.9794 26.5388C21.9759 26.5544 21.9687 26.569 21.9582 26.5813C21.9478 26.5935 21.9345 26.6032 21.9195 26.6094L17.0426 28.5404C17.0334 28.5437 17.0255 28.5498 17.0201 28.5579C17.0148 28.5659 17.0122 28.5755 17.0128 28.5851C17.0135 28.5947 17.0173 28.6038 17.0237 28.6112C17.0301 28.6185 17.0387 28.6235 17.0483 28.6256L24.4619 30.4269C24.5173 30.4405 24.5469 30.475 24.5507 30.5306L25.0021 36.9962C25.0084 37.0802 24.9712 37.1068 24.8906 37.0759ZM24.4732 18.8263C28.4284 17.3104 32.6518 17.9108 35.7456 20.9314C35.8325 21.0167 35.8193 21.0821 35.706 21.1279L28.7948 23.876C28.7658 23.888 28.7336 23.8904 28.703 23.8831C28.6724 23.8758 28.645 23.859 28.6248 23.8353L24.4373 18.9653C24.3832 18.9022 24.3951 18.8559 24.4732 18.8263ZM25.0764 26.2383C25.0831 26.2273 25.0862 26.2145 25.0852 26.2017L24.6848 20.7128C24.6842 20.7 24.6876 20.6875 24.6947 20.6768C24.7017 20.6661 24.712 20.6578 24.7241 20.6531C24.7361 20.6484 24.7494 20.6476 24.762 20.6506C24.7745 20.6537 24.7859 20.6605 24.7943 20.6701L28.4076 24.8767C28.4161 24.8863 28.4273 24.893 28.4399 24.896C28.4524 24.899 28.4655 24.8981 28.4775 24.8934L33.6755 22.8457C33.6878 22.8405 33.7014 22.8392 33.7144 22.8422C33.7274 22.8451 33.7391 22.8521 33.7478 22.8621C33.7565 22.872 33.7617 22.8845 33.7626 22.8975C33.7635 22.9106 33.7601 22.9236 33.753 22.9347L30.8007 27.5971C30.7939 27.6078 30.7906 27.6203 30.7912 27.6329C30.7919 27.6455 30.7966 27.6576 30.8045 27.6676L34.4348 31.8853C34.443 31.8952 34.4479 31.9073 34.4487 31.92C34.4495 31.9328 34.4463 31.9454 34.4394 31.9562C34.4325 31.967 34.4224 31.9755 34.4104 31.9804C34.3984 31.9853 34.3851 31.9864 34.3725 31.9835L28.91 30.64C28.8974 30.6367 28.884 30.6375 28.8718 30.6422C28.8596 30.6468 28.8492 30.6551 28.842 30.6659L25.8539 35.3469C25.847 35.3579 25.8367 35.3665 25.8245 35.3714C25.8123 35.3763 25.7988 35.3773 25.786 35.3742C25.7732 35.3711 25.7617 35.3641 25.7532 35.3542C25.7447 35.3443 25.7396 35.332 25.7387 35.3191L25.3458 29.832C25.345 29.819 25.34 29.8066 25.3315 29.7966C25.323 29.7866 25.3115 29.7795 25.2986 29.7764L19.8324 28.4533C19.82 28.45 19.8088 28.4431 19.8006 28.4334C19.7923 28.4237 19.7874 28.4117 19.7863 28.3991C19.7853 28.3865 19.7883 28.3739 19.7948 28.363C19.8014 28.3522 19.8112 28.3436 19.823 28.3384L25.0474 26.2629C25.0595 26.2579 25.0696 26.2493 25.0764 26.2383ZM31.8094 37.2371C29.6618 37.9339 27.8939 37.8227 25.7179 37.3705C25.7045 37.3678 25.6919 37.3619 25.6813 37.3534C25.6707 37.3449 25.6623 37.334 25.657 37.3216C25.6516 37.3092 25.6493 37.2957 25.6504 37.2823C25.6515 37.2689 25.6559 37.2559 25.6632 37.2445L28.1451 33.3252C28.1841 33.2646 28.2282 33.2603 28.2773 33.3122L31.8358 37.1389C31.8786 37.1846 31.8698 37.2174 31.8094 37.2371ZM25.8974 26.6946L25.6273 22.9994C25.6266 22.9861 25.6302 22.9728 25.6376 22.9615C25.6449 22.9503 25.6556 22.9415 25.6682 22.9364C25.6808 22.9313 25.6948 22.9302 25.708 22.9332C25.7213 22.9362 25.7334 22.9431 25.7425 22.9531L28.1753 25.7921C28.1845 25.8023 28.1967 25.8094 28.2103 25.8124C28.2239 25.8154 28.238 25.8141 28.2508 25.8088L31.7621 24.4152C31.7751 24.4099 31.7894 24.4089 31.8031 24.4121C31.8167 24.4154 31.8289 24.4228 31.838 24.4333C31.847 24.4439 31.8524 24.4569 31.8534 24.4707C31.8543 24.4844 31.8508 24.4981 31.8433 24.5097L29.8374 27.6489C29.8294 27.6605 29.8254 27.6744 29.8261 27.6885C29.8268 27.7025 29.8321 27.7159 29.8412 27.7268L32.291 30.575C32.3003 30.5854 32.306 30.5985 32.3072 30.6123C32.3084 30.6261 32.3051 30.6399 32.2977 30.6518C32.2903 30.6636 32.2792 30.6728 32.2661 30.6779C32.253 30.6831 32.2386 30.6841 32.2249 30.6806L28.5436 29.7726C28.5297 29.769 28.515 29.77 28.5017 29.7753C28.4884 29.7807 28.4773 29.7901 28.4699 29.8023L26.4659 32.9452C26.4583 32.9563 26.4474 32.9649 26.4347 32.9698C26.422 32.9746 26.408 32.9755 26.3948 32.9722C26.3815 32.969 26.3696 32.9618 26.3607 32.9516C26.3518 32.9415 26.3463 32.9289 26.345 32.9155L26.0919 29.2296C26.0911 29.2157 26.0856 29.2024 26.0764 29.1917C26.0673 29.181 26.0548 29.1735 26.0409 29.1703L22.3521 28.279C22.3381 28.2761 22.3254 28.2688 22.316 28.2582C22.3066 28.2476 22.301 28.2344 22.2999 28.2204C22.2988 28.2064 22.3024 28.1924 22.3101 28.1806C22.3178 28.1688 22.3292 28.1598 22.3426 28.1548L25.8558 26.7594C25.8689 26.7543 25.8799 26.7453 25.8874 26.7337C25.8949 26.722 25.8983 26.7083 25.8974 26.6946ZM41.2062 38.1376C34.4764 45.5983 23.3701 46.006 16.4004 38.638C16.3475 38.5811 16.2959 38.5824 16.2455 38.6417L15.6978 39.2847C15.66 39.3279 15.6613 39.3706 15.7016 39.4126C22.9924 47.0641 35.0581 46.8547 41.9731 38.7973C42.0108 38.7529 42.0089 38.7102 41.9674 38.6695L41.4196 38.1321C41.3466 38.0604 41.2755 38.0623 41.2062 38.1376Z" fill="#012D6F"/>
</svg>
