<!-- by TradingView --><svg width="18" height="18" viewBox="0 0 18 18" fill="none" xmlns="http://www.w3.org/2000/svg">
<rect width="18" height="18" fill="url(#paint0_linear_229_28956)"/>
<path d="M3 10.5436C3 9.8965 3.74636 9.59737 4.11954 9.5287C3.74636 9.45933 3 9.11717 3 8.30346C3 7.32328 3.9273 7.02608 4.39095 7H6.7889C7.32083 7 7.5717 7.37723 7.63065 7.56584C7.7891 7.17862 8.305 7.02727 8.54314 7H10.743C11.0995 7 11.4084 7.37723 11.5183 7.56584C11.524 7.37723 11.647 7 12.0941 7C12.7675 7 13.0561 7.74469 13.1111 8.11703V9.57143H14.7254C15.4387 9.57143 16 10.1276 16 10.5312C16 10.8541 15.6414 10.9783 15.4622 11H12.9615C12.1644 11 11.5183 10.3772 11.5183 9.60905V9.39386C11.3361 9.93925 10.695 10.1255 10.3973 10.1429H8.79676L8.40711 10.6187C8.29921 10.7458 8.00427 11 7.68776 11C7.37125 11 7.33533 10.7997 7.33333 10.6996V10.3645H7.28651C7.19059 10.8544 6.61273 10.9923 6.37495 11H3V10.5436Z" fill="#306398"/>
<path fill-rule="evenodd" clip-rule="evenodd" d="M3.93487 8.00001H6.17734C6.20461 8.00001 6.2317 7.99807 6.2584 7.99251C6.43717 7.95533 6.70043 7.85262 6.87255 7.65704C7.05498 7.44974 6.82212 7.20001 6.54598 7.20001H4.41893C4.39513 7.20001 4.37145 7.20154 4.348 7.20559C4.14012 7.24154 3.82527 7.34681 3.6249 7.55159C3.43177 7.74896 3.65873 8.00001 3.93487 8.00001ZM3.44132 8.62269C3.53 8.89042 3.78092 9.28572 4.34597 9.28572H5.91554C6.06303 9.28572 6.17804 9.34379 6.17804 9.49834V9.64512C6.17804 9.79967 6.06283 10 5.91534 10H4.34597C4.10622 10 3.73709 10.0556 3.50647 10.4746C3.4451 10.5861 3.53089 10.7143 3.65373 10.7143H5.95401C6.55638 10.7143 7.0447 10.2026 7.0447 9.57144C7.0447 8.94026 6.55638 8.42858 5.95401 8.42858H3.59208C3.48921 8.42858 3.40758 8.52085 3.44132 8.62269ZM7.62248 8.49361V10.6234C7.62248 10.6921 7.6919 10.7367 7.74941 10.7026C8.31265 10.3688 8.47955 9.91812 8.48915 9.72308V8.16678C8.48915 8.06415 8.56603 8.00646 8.66496 8.00646H10.2028C10.3512 8.00646 10.5114 8.10575 10.5114 8.2597V8.66981C10.5114 8.82376 10.3512 9.00001 10.2028 9.00001H9.85975C9.41518 9.00001 9.00942 9.21116 8.81396 9.62538L8.76478 9.72959C8.73565 9.79132 8.77898 9.85716 8.84523 9.85716H10.2341C10.8659 9.85716 11.378 9.16989 11.378 8.5145C11.378 7.85911 10.8659 7.28573 10.2341 7.28573H8.78684C8.14378 7.28573 7.62248 7.82652 7.62248 8.49361ZM12.0003 7.37537V9.60681C12.0003 10.2185 12.4957 10.7143 13.1068 10.7143H15.6676C15.7236 10.7143 15.7654 10.6627 15.7539 10.6079C15.6595 10.1588 15.2636 9.83732 14.8051 9.83732H13.0824C12.9806 9.83732 12.8669 9.75468 12.8669 9.65274V8.21847C12.8669 7.80252 12.5111 7.43139 12.1199 7.29106C12.0616 7.27015 12.0003 7.31339 12.0003 7.37537Z" fill="white"/>
<defs>
<linearGradient id="paint0_linear_229_28956" x1="3.34858" y1="3.12159" x2="21.9042" y2="24.4339" gradientUnits="userSpaceOnUse">
<stop stop-color="#1A1E21"/>
<stop offset="1" stop-color="#06060A"/>
</linearGradient>
</defs>
</svg>
