<!-- by TradingView --><svg width="18" height="18" viewBox="0 0 18 18" xmlns="http://www.w3.org/2000/svg"><path fill="#F0F3FA" d="M0 0h18v18H0z"/><path d="M9.93 14.71c.07-.17.16-.33.28-.47 1.87-2.4.38-5.66-1.2-7.73-.03-.05-.07-.05-.11-.01a6.7 6.7 0 0 0-2.05 5.39c.1 1.07.48 1.94 1.15 2.6.13.09.24.24.34.46a.1.1 0 0 0-.05 0 .07.07 0 0 1-.08 0l-.54-.52C5.34 12.28 5.74 9 7.08 6.46a17.5 17.5 0 0 1 2.36-3.44c.03-.03.05-.03.05.02a9 9 0 0 0 .05 1.2 9.18 9.18 0 0 0 1.32 3A8.4 8.4 0 0 1 11.9 9.7a4.93 4.93 0 0 1-1.97 5.01Z" fill="#FA8E20"/><path d="M9.93 14.71a.33.33 0 0 1-.28.1c1.42-1.89.97-4.03-.4-5.79A2 2 0 0 0 9 8.73c-.03-.02-.05-.02-.08 0a6.1 6.1 0 0 0-1.38 2.46c-.3 1.08-.01 2.3.59 3.42a3.96 3.96 0 0 1-1.27-2.72A6.7 6.7 0 0 1 8.9 6.5c.04-.04.08-.04.11 0 1.58 2.08 3.07 5.34 1.2 7.74-.12.14-.2.3-.28.47Z" fill="#FDE904"/><path d="M9.65 14.82a.37.37 0 0 1-.13.15.13.13 0 0 1-.08.03h-1c-.02 0-.04 0-.05-.03a.07.07 0 0 0-.05-.02c-.93-1.35-1.22-2.24-.8-3.76A6.1 6.1 0 0 1 8.9 8.74c.03-.03.05-.03.08 0a2 2 0 0 1 .26.28c1.37 1.76 1.82 3.9.4 5.8Z" fill="#0056A7"/></svg>