<!-- by TradingView --><svg width="56" height="56" viewBox="0 0 56 56" xmlns="http://www.w3.org/2000/svg"><path fill="#F0F3FA" d="M0 0h56v56H0z"/><path d="M26.75 11A12.77 12.77 0 0 0 14 23.8v8.3C14 39.15 19.7 45 26.75 45h2.5C36.29 45 42 39.16 42 32.1v-8.3C42 16.72 36.3 11 29.25 11h-2.5Zm-2.17 6.74c0-.65 1.1-2.74 3.42-2.74 2.31 0 3.42 2.09 3.42 2.74 3.62 0 3.1 2.67 2.9 3.64v.05c1.91 0 2.07 1.8 1.9 2.7A4.6 4.6 0 0 1 38 27.95c0 2.7-1.82 3.96-3.33 4.18 0 2.98-1.93 3.84-3.67 3.87a6.6 6.6 0 0 1-1.71-.26c.18.94.65 3.14 1.11 4.43A3.8 3.8 0 0 1 28 41a3.8 3.8 0 0 1-2.4-.83c.46-1.29.93-3.5 1.11-4.43A6.2 6.2 0 0 1 25 36c-1.74-.03-3.67-.89-3.67-3.87-1.5-.22-3.33-1.48-3.33-4.18a4.6 4.6 0 0 1 1.78-3.82c-.17-.9-.01-2.7 1.9-2.7v-.05c-.2-.97-.72-3.64 2.9-3.64ZM26 29.64c0-1.66 1.3-2.96 2-3.64.7.68 2 1.98 2 3.65 0 1.5-.4 2.3-.88 3.1-.2.3-.39.63-.55.99 1.48.3 1.83.17 2.97-1.79.8-1.39 1.2-1.93 1.8-1.95.23 0 .46.06.66.16-.66.4-.84 1.4-1.01 2.36l-.1.52c-.22 1.09-1 1.96-2.1 1.96-.87 0-1.84-.48-2.22-.7.22 1.45.71 4.5.96 5.09-.28.52-1.03.61-1.53.61s-1.24-.1-1.52-.61c.25-.6.74-3.64.96-5.09-.38.22-1.35.7-2.22.7-1.08 0-1.86-.87-2.08-1.96l-.08-.42c-.18-.99-.38-2.04-1.06-2.46.18-.1.38-.15.6-.16.6-.02 1.05.5 1.89 1.95 1.12 1.96 1.47 2.09 2.95 1.79-.16-.36-.36-.68-.55-1a5.3 5.3 0 0 1-.89-3.1Z" fill="#00A5E5"/></svg>