<!-- by TradingView --><svg width="56" height="56" viewBox="0 0 56 56" fill="none" xmlns="http://www.w3.org/2000/svg">
<rect width="56" height="56" fill="#F0F3FA"/>
<path fill-rule="evenodd" clip-rule="evenodd" d="M13 20.246V43H35.5522L43 35.754V13H20.4478L13 20.246ZM14 21.2667V39H37.527L42 34.7667V17H18.5082L14 21.2667ZM20.6218 38L28.3132 30.4206L23.4408 25.6191L30.1578 19H35.3434L27.0429 27.1796L32.2459 32.3069L26.4687 38H20.6218ZM15.4536 23.2494L22.5012 30.1061L23.6149 29.0226L19.2297 24.7562L25.1462 19H19.8214L15.4536 23.2494ZM33.6926 27L40.7402 33.7912L36.3724 38H31.0476L36.9641 32.2988L32.5789 28.0732L33.6926 27Z" fill="black"/>
</svg>
