<!-- by TradingView --><svg width="18" height="18" viewBox="0 0 18 18" xmlns="http://www.w3.org/2000/svg"><path fill="#F0F3FA" d="M0 0h18v18H0z"/><path d="M4.88 11.1c-.89 0-1.62-.21-1.88-.31V9.6c.83.74 2.54.56 2.54 0s-.47-.54-1.38-.9c-.74-.3-.9-1-.88-1.33A1.3 1.3 0 0 1 4.58 6h1.81v1H5.07c-.64 0-.54.41-.1.65.43.25 1.85.64 1.85 1.83 0 1.2-.83 1.61-1.94 1.61Z" fill="#00AEEF"/><path d="m9.56 7.1 1.99-1.6L15.5 9l-3.95 3.5-2.14-1.72h-.33L11.55 13 16 9l-4.45-4L9.2 7.1h.35Z" fill="#2E3192"/><path fill-rule="evenodd" d="M7.42 9.2c0-.47-.2-.89-.52-1.14L10.3 5l4.45 4-4.45 4-3.2-2.87c.2-.25.32-.58.32-.94Zm2.17-1.27c.26 0 .47-.18.47-.4 0-.22-.2-.4-.47-.4-.26 0-.47.18-.47.4 0 .22.21.4.47.4ZM7.93 9.62l.14-1.15h-.44l.1-.27h.37l.07-.53h.47l-.07.53h.54l-.14.27h-.43c-.05.36-.09.7-.09.8 0 .22.06.38.26.38.1 0 .26-.1.39-.2l.14-.98h.52l-.1.84c-.03.26.02.38.2.38.08 0 .18-.09.25-.18l.25-2.11h.52l-.2 1.86c-.02.28.04.4.2.4.07 0 .15-.05.21-.12a.93.93 0 0 1-.08-.26c0-1.01.9-1.08 1.12-1.08.2 0 .71.16.71.55 0 .4-.32.6-.68.6a1 1 0 0 1-.55-.14c-.1.24.08.46.34.46.08 0 .17-.02.26-.04.2-.04.39-.08.39.12 0 .23-.44.3-.65.32a.9.9 0 0 1-.74-.34.89.89 0 0 1-.68.34.4.4 0 0 1-.4-.27.9.9 0 0 1-.63.27c-.26 0-.37-.15-.41-.3-.16.14-.4.3-.7.3-.43 0-.49-.3-.46-.45Zm3.79-.79c.03-.1.16-.29.36-.29.23 0 .23.15.22.2v.02c0 .05-.23.33-.58.07Z" fill="#0A4595"/></svg>