<!-- by TradingView --><svg width="18" height="18" viewBox="0 0 18 18" xmlns="http://www.w3.org/2000/svg"><path fill="#F0F3FA" d="M0 0h18v18H0z"/><path fill-rule="evenodd" d="M9.18 3.57c.3-.26.68-.4 1.08-.44a6.02 6.02 0 0 0-2.16-.06c.35.09.69.26.99.5a.07.07 0 0 0 .09 0Zm-.12.83c.73-.73 1.43-1.12 2.52-.82a6 6 0 1 1-4.97-.09c1.03-.23 1.71.08 2.39.9.02.03.04.03.06 0Zm3.93 1.01c-.48-.5-1.37-.4-1.93-.06a.05.05 0 0 1-.05 0c-.75-.49-1.3-.47-2 .06L9 5.43c0 .02.01.03.03.04h.03c.72-.3 1.32-.18 1.8.35l.15.17h.04a1.6 1.6 0 0 1 1.92-.52c.02 0 .03-.02.03-.04v-.02Zm-5.9-.03c.5-.46 1.4-.4 1.9.02H9c0 .01 0 .02-.02.03h-.01c-.88-.3-1.41-.02-1.97.55h-.04c-.53-.66-1-.8-1.86-.54-.12.04-.13.02-.04-.06.6-.53 1.35-.5 1.96 0h.07Zm.74.86a1.58 1.58 0 0 0-1.77.14H6c-.61-.47-1.28-.5-1.99-.11v.03h.03c.89-.25 1.46.06 1.93.68.02.02.03.03.06 0 .58-.56.8-.7 1.75-.6.27.03.3-.02.05-.14Zm3.08 0c.07.03.1.08.09.14 0 .05-.03.06-.07.05-.55-.2-1-.02-1.31.52a.1.1 0 0 1-.09.05.1.1 0 0 1-.08-.06c-.23-.44-.55-.68-.98-.72-.1-.01-.18.02-.26.05l-.18.05c-.04.01-.04 0-.01-.03.46-.4 1.06-.4 1.47.1.01.02.03.03.05.03.02 0 .03 0 .05-.02.39-.43.83-.48 1.32-.17Zm1.65.09-.08.08h-.05c-.44-.48-.91-.5-1.41-.07a.07.07 0 0 0-.01.07c0 .02.03.04.05.03.58-.21 1.04-.03 1.36.53.02.02.03.03.05.03.02 0 .05 0 .06-.02l.1-.17c.04-.07.08-.14.13-.19.2-.23.46-.37.75-.4.16-.03.28.03.43.1l.02.02c.03.02.05-.03.03-.05-.36-.33-.76-.38-1.2-.15-.08.04-.15.12-.23.19Z" fill="#01114D"/><path d="M10 13.9c1.73-.33 3-1.5 3-2.9 0-1.66-1.8-3-4-3s-4 1.34-4 3c0 1.4 1.27 2.57 3 2.9V15h2v-1.1Z" fill="#F0F3FA" fill-opacity=".5"/></svg>