<!-- by TradingView --><svg width="18" height="18" viewBox="0 0 18 18" xmlns="http://www.w3.org/2000/svg"><path fill="#F0F3FA" d="M0 0h18v18H0z"/><path d="M7.4 4.04c.26.15.53.2.83.18.87-.09 1.72.02 2.54.04.61.02 1.23.05 1.84.1.36.02.7.1.93.4.3.65.33 1.58.43 2.31.03 1.38.04 2.44.02 3.2a.9.9 0 0 1-.1.31 9.3 9.3 0 0 0-.09 2.05c.05 1.04-1.31 1.08-2 1.14-.65.06-1.35.03-2.02.05-.67.02-1.26-.1-1.95.05-.49.13-1 .16-1.53.1-1.25-.28-1.98-.99-1.95-2.31.03-1.7-.03-3.38-.19-5.06-.01-.16-.08-.26-.13-.4A.63.63 0 0 1 4 5.9c.1-.11.16-.2.18-.29.08-.41.3-1 .68-1.21.41-.23 1.23-.26 1.7-.33.24-.08.52-.1.84-.03Z" fill="#1B1618"/><path d="m9.1 4.6.96.04c.73.01 1.46.04 2.19.08.28.01.52.12.73.3.04.05.02.13-.04.14-.22.03-.33-.23-.59-.05-.3.21-.5.92-.69 1.29a.06.06 0 0 1-.1.02c-.48-.5-.8-1.1-1.14-1.45-.1-.1-.22-.12-.36-.05a.1.1 0 0 0-.05.04c-.26.5-.36 1.26-.48 1.81-.04.14-.1.33-.28.25l-2.07-.96c-.64-.3-.36.62-.28.85a75 75 0 0 0 .87 2.25c.02.05-.02.12-.08.12H6.03c-.68.02-.84.51-.38 1.02.51.56.95 1.07 1.3 1.53.3.4-1.09 1.38-1.43 1.13-.14-.1-.27-.46-.32-.6a1.7 1.7 0 0 0-.45-.68c-.05-.04-.06-.14-.06-.2-.03-1.1 0-2.2-.07-3.32-.1-1.3-.33-3.11 1.31-3.54.13-.03.39-.05.78-.06.8-.02 1.6 0 2.39.05Z" fill="#D1EDF7"/><path d="M11.42 7.68c.18-.36.61-1.35.96-1.47l.06.01c.56.28.56.78.56 1.7 0 .04-.1.08-.14.08-.62 0-1.36 0-2.14.17-.48.25-1.19.81-1.48 1.24-.07.1-.14.28-.21.56-.25 1-.23 1.88-.18 2.9 0 .06-.04.1-.1.11l-.92.02c-.07 0-.1-.04-.1-.11-.01-.18.31-.39.43-.48a.12.12 0 0 0 .04-.05.78.78 0 0 0-.12-.8l-1.06-1.3a.12.12 0 0 1-.01-.11.11.11 0 0 1 .1-.06c.56.12 1.12.06 1.67-.16.1-.04.16-.13.11-.25-.3-.68-.62-1.36-.95-2.03a.55.55 0 0 1-.1-.31c0-.03.02-.05.04-.05h.02c.68.32 1.35.66 2 1.02.12.07.3.08.3-.11 0-.7-.04-1.42.07-2.12.01-.08.05-.1.1-.05.02 0 .04.04.07.08l.81 1.5c.03.05.11.18.17.07Z" fill="#FED734"/><path d="M13.55 8.76c.06 0 .12.06.12.13.03.44.02.9-.01 1.36-.03.37-.18.77-.2 1.2 0 .27.19.63.02.91a72.84 72.84 0 0 1-.57.87c-.62.21-1.6.13-2.2.12-.34 0-.54-.02-.6-.03-.46-.12-.68-.7-.74-1.12-.14-.81-.05-1.82.56-2.45.37-.38 1.63-1.08 2.2-1.06.46.01.93.04 1.42.07Z" fill="#FFFECA"/><path d="M5.35 6.99h-.06l-.18-.06c-.09-.03-.13-.12-.1-.24a.9.9 0 0 1 .22-.4l.79-.89c.13-.15.34-.35.62-.4l.16.01.18.07c.02 0 .03.03.01.04L5.36 6.99Zm2.82-1.98c.38-.09.67.37.82.84.03.08-.02.17-.08.14l-.69-.32c-.23-.1-.33-.59-.05-.66ZM7 8.97 6.9 9a.71.71 0 0 1-.52-.13.5.5 0 0 1-.12-.12l-.2-.31A.31.31 0 0 1 6 8.3c-.01-.1.05-.24.26-.28.02 0 .1-.04.12 0 .06.08.67.94.62.95Z" fill="#0788BE"/><path d="M10 11.6a2.6 2.6 0 0 1 1.77-2.58.24.24 0 0 1 .18 0c.02 0 .04.02.04.04.07.27-.38.41-.54.49-.92.45-1.14 1.3-1.21 2.38 0 .03-.02.05-.04.05l-.11.02c-.03 0-.04-.01-.04-.04 0-.13-.05-.25-.05-.37Zm1.17.4h-.03l-.06-.05a.26.26 0 0 1-.08-.25c.02-.1.08-.21.17-.31l.17-.18a.7.7 0 0 1 .32-.2c.11-.02.21-.01.28.04l.05.05v.03l-.82.86Z" fill="#FED734"/></svg>