<!-- by TradingView --><svg width="56" height="56" viewBox="0 0 56 56" xmlns="http://www.w3.org/2000/svg"><path fill="#F0F3FA" d="M0 0h56v56H0z"/><path d="M7.65 30c-1.04 0-1.9-.13-2.57-.4-.67-.27-1.03-.66-1.08-1.16h2.66c.03.17.12.3.28.37.16.08.37.12.62.12.23 0 .42-.03.56-.1.16-.06.23-.14.23-.25 0-.15-.12-.26-.37-.34a10.2 10.2 0 0 0-1.2-.26c-.58-.1-1.05-.2-1.42-.3-.35-.1-.67-.25-.94-.44a.9.9 0 0 1-.4-.75c0-.32.15-.58.44-.8a3 3 0 0 1 1.2-.52c.5-.11 1.08-.17 1.73-.17a6.4 6.4 0 0 1 2.49.4c.63.26.96.64 1 1.11h-2.7c-.01-.14-.1-.25-.26-.33a1.38 1.38 0 0 0-.6-.1c-.18 0-.34.02-.46.08s-.17.15-.17.26c0 .09.06.17.19.24.13.06.3.12.5.17.19.05.48.1.86.18.57.1 1.03.21 1.4.32.37.1.69.25.95.44.27.18.41.42.41.7 0 .3-.14.55-.4.78-.27.23-.66.42-1.17.55-.5.13-1.09.2-1.78.2ZM48.65 30c-1.04 0-1.9-.13-2.57-.4-.67-.27-1.03-.66-1.08-1.16h2.66c.03.17.12.3.28.37.16.08.37.12.62.12.23 0 .42-.03.56-.1.16-.06.23-.14.23-.25 0-.15-.12-.26-.37-.34a10.2 10.2 0 0 0-1.2-.26c-.58-.1-1.05-.2-1.42-.3-.35-.1-.67-.25-.94-.44a.9.9 0 0 1-.4-.75c0-.32.15-.58.44-.8a3 3 0 0 1 1.2-.52c.5-.11 1.08-.17 1.73-.17a6.4 6.4 0 0 1 2.49.4c.63.26.96.64 1 1.11h-2.7c-.01-.14-.1-.25-.26-.33a1.38 1.38 0 0 0-.6-.1c-.18 0-.34.02-.46.08s-.17.15-.17.26c0 .09.06.17.19.24.13.06.3.12.5.17.19.05.48.1.86.18.57.1 1.03.21 1.4.32.37.1.69.25.95.44.27.18.41.42.41.7 0 .3-.14.55-.4.78-.27.23-.66.42-1.17.55-.5.13-1.09.2-1.78.2ZM11 25v1h2.5v4h2v-4H18v-1h-7ZM20.5 25h-2l2.5 3v2h2v-2l2.5-3h-2L22 27l-1.5-2ZM28 25h-2v5h6v-1h-4v-4ZM37.5 25H32v5h5.5v-1H34v-1h3.5v-1H34v-1h3.5v-1ZM38 25h2v5h-2z" fill="#0047D3"/><path d="M42.5 25h-3v1h3c.5 0 .5.5.5 1 0 .4-.67.5-1 .5h-2.5v1H42l1 1.5h2l-1.5-2c.5 0 1.5-.3 1.5-1.5S43.33 25 42.5 25Z" fill="#0047D3"/></svg>