<!-- by TradingView --><svg width="18" height="18" viewBox="0 0 18 18" xmlns="http://www.w3.org/2000/svg"><path fill="#007B46" d="M0 0h18v18H0z"/><path fill-rule="evenodd" d="M9 4 3 7.05v3.3L6.23 12 9 10.65 11.77 12 15 10.34v-3.3L9 4Zm2.77 7.75 2.87-1.47L9 7.52l-5.64 2.76 2.87 1.47L9 10.4l2.77 1.35ZM3.23 10.1V7.18L9 4.25l5.77 2.93v2.92L9 7.27 3.23 10.1Z" fill="#fff"/><path d="m9 11 2 1-2 1-2-1 2-1Zm0 2 1 .5-1 .5-1-.5 1-.5ZM3.67 7.38H4v2.37h-.33zM6 6.03h.33V8.4H6l-1.32-.83V9.4h-.34V7.05h.35l1.32.8V6.02Z" fill="#fff"/><path fill-rule="evenodd" d="M6.67 6.06v2.05l1.61-.8a.9.9 0 0 0 .39-.75V5.9c-.02-.2-.14-.6-.53-.6-.22 0-1.08.5-1.47.75ZM7 6.2v1.37l1.08-.53a.6.6 0 0 0 .25-.51V6.1c0-.14-.09-.4-.35-.4-.15 0-.72.33-.98.5Z" fill="#fff"/><path d="M10.33 5.6 10 5.35v1.77c0 .32.17.61.45.76l.92.47c.3.15.63-.07.63-.41V6.38l-.33-.18v1.64c0 .12-.13.19-.22.13l-.9-.43a.46.46 0 0 1-.22-.4V5.6Zm2.9 1.27 1.02.62-.2.32-1.03-.63c-.07-.04-.27-.17-.37-.04-.08.12-.04.21 0 .25l1.19.7c.24.14.68.38.4.98-.21.47-.67.36-.88.24L12 8.54l.2-.35c.37.21 1.12.65 1.23.7.14.07.37.25.51 0 .11-.2-.09-.36-.2-.42l-.75-.45c-.5-.32-.96-.53-.68-1.05.21-.42.7-.24.92-.1Zm-7.18 3.88-.1-.2.48-.24.24.46a.8.8 0 0 1-.38.43.65.65 0 0 1-.34.07.53.53 0 0 1-.3-.11.81.81 0 0 1-.23-.28.78.78 0 0 1-.09-.35.57.57 0 0 1 .34-.52c.14-.08.26-.1.36-.08.11.02.2.08.28.17l-.2.16a.27.27 0 0 0-.34-.06.34.34 0 0 0-.18.22c-.03.1 0 .2.06.33.07.14.15.23.24.27.1.04.19.03.28-.02a.42.42 0 0 0 .13-.1.55.55 0 0 0 .08-.13l-.07-.15-.26.13Zm.9.19-.62-1.3.5-.28c.12-.07.22-.1.29-.11a.3.3 0 0 1 .2.04c.05.05.1.1.14.18.05.1.06.2.04.29a.45.45 0 0 1-.18.24c.07 0 .13.02.18.04l.24.14.26.17-.28.16-.3-.19a1.8 1.8 0 0 0-.22-.12.18.18 0 0 0-.1-.01.4.4 0 0 0-.12.05l-.05.02.26.55-.24.13Zm-.12-.88.17-.1c.12-.06.19-.1.2-.13a.16.16 0 0 0 .05-.1.2.2 0 0 0-.02-.1.17.17 0 0 0-.09-.1.15.15 0 0 0-.1 0l-.18.1-.19.1.16.33Zm.94-.52a.81.81 0 0 1-.1-.32c0-.08 0-.15.02-.22a.5.5 0 0 1 .1-.18.72.72 0 0 1 .23-.17c.17-.09.34-.1.5-.05a.7.7 0 0 1 .38.36c.1.18.12.36.08.51a.6.6 0 0 1-.33.37.63.63 0 0 1-.5.05.68.68 0 0 1-.38-.35ZM8 9.4a.5.5 0 0 0 .25.25c.1.03.19.03.28-.02.1-.05.16-.12.18-.22.03-.1 0-.21-.07-.34-.06-.14-.15-.22-.24-.25a.34.34 0 0 0-.28.02.33.33 0 0 0-.19.22c-.02.1 0 .2.07.34Zm1.7-.5.25.1-.27.6-.08.18c0 .05 0 .1.03.14.03.04.07.07.14.1.07.02.13.03.17.01a.19.19 0 0 0 .11-.07l.1-.19.27-.61.25.09-.27.58c-.06.13-.1.22-.14.27a.37.37 0 0 1-.14.12.44.44 0 0 1-.18.04.71.71 0 0 1-.25-.05.72.72 0 0 1-.24-.13.36.36 0 0 1-.1-.14.3.3 0 0 1-.01-.15c.01-.07.05-.17.1-.3l.27-.58Zm.63 1.6.54-1.26.39.15c.14.06.24.1.28.13.06.04.1.1.12.19.02.08 0 .17-.04.27a.48.48 0 0 1-.12.18.4.4 0 0 1-.3.1 1.4 1.4 0 0 1-.26-.08l-.16-.06-.2.48-.25-.1Zm.69-.95-.15.36.13.05.2.05c.04 0 .07-.01.1-.03a.2.2 0 0 0 .07-.1.18.18 0 0 0 .01-.12.17.17 0 0 0-.07-.1 1.16 1.16 0 0 0-.17-.07l-.12-.04Z" fill="#fff"/></svg>