<!-- by TradingView --><svg width="56" height="56" viewBox="0 0 56 56" xmlns="http://www.w3.org/2000/svg"><path fill="url(#a)" d="M0 0h56v56H0z"/><path d="M26.3 11.52c.22-.05.37-.19.34-.3-.03-.12-.23-.18-.44-.13-.2.05-.36.2-.33.31.03.12.23.17.44.12Z" fill="#50A144"/><path d="m29.68 12.36-.4-.12c-.08-.03-.12-.08-.1-.13a.9.9 0 0 1 .24-.44.21.21 0 0 1 .18-.06c.05 0 .14.03.28.07l.4.11c.08.04.12.09.1.14a.9.9 0 0 1-.24.44.21.21 0 0 1-.18.06c-.05 0-.15-.03-.28-.07Z" fill="#F2E63B"/><path d="M22.1 12.73c.32-.13.52-.38.44-.56-.07-.19-.39-.24-.7-.12-.32.13-.52.38-.45.56.08.19.4.24.71.12Z" fill="#0E7C6E"/><path d="M24.89 12.42c.24-.09.73.09.96.19.05.01.08.04.1.09.01.04.02.08 0 .13-.12.29-.3.55-.55.8l-.05.01a.22.22 0 0 1-.06.02 2.2 2.2 0 0 1-.94-.24.17.17 0 0 1-.08-.23c.12-.23.38-.68.62-.77Z" fill="#50A144"/><path d="m33.66 12.83-.74-.32a.24.24 0 0 0-.31.13l-.2.44c-.05.12 0 .26.13.31l.74.32c.12.05.26 0 .31-.12l.2-.45a.23.23 0 0 0-.13-.3ZM29.57 13.9l-.48.83a.26.26 0 0 1-.3.12l-1.1-.32a.27.27 0 0 1-.2-.27c0-.04.02-.08.04-.11l.48-.82a.27.27 0 0 1 .3-.12l1.1.3a.27.27 0 0 1 .18.16.26.26 0 0 1-.02.24ZM36.69 14.25l-.77-.4a.21.21 0 0 0-.3.08l-.24.47a.2.2 0 0 0 .09.28l.77.4c.1.06.23.02.29-.08l.25-.46a.2.2 0 0 0-.09-.29Z" fill="#F2E63B"/><path d="M19.43 14.96c.28-.7.74-.94 1.37-.7.07.03.1.08.07.15-.22.74-.67.99-1.36.74a.15.15 0 0 1-.1-.14l.02-.05Z" fill="#0E7C6E"/><path d="m32.77 14.77-1.05-.51a.28.28 0 0 0-.37.12l-.43.86c-.07.13-.01.3.12.36l1.05.52c.14.06.3 0 .37-.13l.43-.85a.27.27 0 0 0-.12-.37Z" fill="#F2E63B"/><path d="M18 14.89c.22-.13.33-.32.26-.42-.06-.11-.29-.1-.5.02-.2.13-.32.32-.25.43.07.1.3.1.5-.03Z" fill="#146A7D"/><path d="M23 16.03c-.33-.06-.6-.14-.8-.22-.13-.06-.16-.14-.1-.26.17-.36.35-.64.56-.83a.3.3 0 0 1 .18-.07c.1-.01.28 0 .55.06.33.06.6.13.8.22.13.05.16.14.1.26-.17.36-.36.63-.56.82a.29.29 0 0 1-.18.08c-.1 0-.28-.01-.55-.06Z" fill="#50A144"/><path d="m26.58 15.55 1.24.35a.3.3 0 0 1 .19.18.3.3 0 0 1-.02.25l-.55.95a.3.3 0 0 1-.34.13l-1.23-.35a.3.3 0 0 1-.2-.17.3.3 0 0 1 .02-.26l.55-.94a.3.3 0 0 1 .34-.14Z" fill="#CBCF35"/><path d="M38.88 16.55a4.1 4.1 0 0 1-.22-.17.18.18 0 0 1-.08-.17c.02-.15.06-.3.12-.45.03-.06.08-.09.14-.07a4 4 0 0 1 .65.41c.06.05.08.1.08.17-.01.15-.05.3-.12.46-.03.06-.07.08-.14.06-.07-.02-.21-.1-.43-.24ZM34.28 16.8l.38-.87a.28.28 0 0 1 .37-.14l1.08.48a.28.28 0 0 1 .14.36l-.39.87a.28.28 0 0 1-.36.14l-1.08-.48a.27.27 0 0 1-.14-.36Z" fill="#F2E63B"/><path d="M15.96 16.52c-.22.29-.32.58-.21.66.1.08.36-.09.58-.37.22-.28.32-.58.21-.66-.1-.08-.36.09-.58.37Z" fill="#146A7D"/><path d="M17.8 16.9c.3-.55.7-.63 1.28-.28a.2.2 0 0 1 .08.26l-.34.62c-.33.53-.72.62-1.3.26a.2.2 0 0 1-.07-.25c.06-.14.18-.34.35-.61Z" fill="#0E7C6E"/><path d="m31.53 17.34-1.2-.6a.34.34 0 0 0-.46.14l-.53 1.01a.34.34 0 0 0 .15.46l1.2.61c.17.09.37.02.46-.15l.53-1.01a.34.34 0 0 0-.15-.46Z" fill="#F2E63B"/><path d="M20.46 17.71c.2-.34.4-.64.8-.56.38.07.76.18 1.12.34a.25.25 0 0 1 .14.33c-.1.25-.24.52-.42.8-.2.35-.4.65-.8.57a5.77 5.77 0 0 1-1.12-.34.25.25 0 0 1-.14-.33c.1-.25.25-.52.42-.81Z" fill="#219446"/><path d="m39.28 18.42-.4.9a.25.25 0 0 1-.15.14h-.11a.26.26 0 0 1-.1-.03l-1.02-.57a.25.25 0 0 1-.1-.33l.4-.89a.25.25 0 0 1 .15-.14.26.26 0 0 1 .2.02l1.02.58a.25.25 0 0 1 .11.32Z" fill="#F2E63B"/><path d="M41.7 18.53c.07.21.23.35.34.3.12-.04.15-.24.07-.45-.08-.21-.23-.35-.35-.31-.11.04-.14.25-.07.46Z" fill="#50A144"/><path d="m25.03 20.78-1.27-.56a.43.43 0 0 1-.22-.57l.56-1.26c.05-.1.13-.19.24-.23.11-.04.23-.04.34 0l1.27.57a.43.43 0 0 1 .22.57l-.56 1.26a.44.44 0 0 1-.58.22Z" fill="#84B13D"/><path d="m35.11 18.9-1.25-.5a.34.34 0 0 0-.45.18l-.44 1.06c-.07.17 0 .37.18.44l1.26.51c.17.07.37 0 .44-.18l.45-1.06a.34.34 0 0 0-.19-.44Z" fill="#F2E63B"/><path d="m14.67 19.2-.18-.1a.27.27 0 0 0-.37.1l-.43.76c-.07.13-.03.3.1.36l.19.1c.13.08.3.03.37-.1l.43-.75a.27.27 0 0 0-.1-.36Z" fill="#146A7D"/><path d="m30.05 20.27-1.42-.67a.5.5 0 0 0-.65.23l-.67 1.4a.48.48 0 0 0 .23.65l1.42.67a.5.5 0 0 0 .65-.24l.67-1.4a.48.48 0 0 0-.23-.64Z" fill="#CBCF35"/><path d="M40.74 20.59c-.09-.25.1-.73.2-.96a.17.17 0 0 1 .24-.1c.3.13.56.32.79.58a.22.22 0 0 1 .04.1c-.03.35-.12.66-.28.94a.18.18 0 0 1-.23.07c-.23-.13-.68-.4-.76-.63Z" fill="#50A144"/><path d="m16.97 19.88-.55-.3a.4.4 0 0 0-.55.17l-.51.96a.4.4 0 0 0 .16.53l.56.3c.2.1.43.02.54-.17l.51-.96a.4.4 0 0 0-.16-.53Z" fill="#146A7D"/><path d="m38.62 21.29-.46 1.02a.28.28 0 0 1-.17.16.29.29 0 0 1-.23-.03l-1.14-.65a.28.28 0 0 1-.12-.36l.46-1.02a.28.28 0 0 1 .18-.15.29.29 0 0 1 .23.02l1.13.65a.28.28 0 0 1 .12.36Z" fill="#CBCF35"/><path d="m19.05 20.51 1.09.48c.1.05.2.14.23.25.05.1.04.23 0 .34l-.48 1.07c-.05.1-.14.2-.25.24a.46.46 0 0 1-.35-.01l-1.09-.48a.45.45 0 0 1-.27-.42c0-.06.02-.11.04-.17l.48-1.07a.45.45 0 0 1 .43-.27c.05 0 .11.02.17.04Z" fill="#0F8958"/><path d="m34 22.05-1.4-.64a.5.5 0 0 0-.66.24l-.65 1.37a.5.5 0 0 0 .24.66l1.39.65a.5.5 0 0 0 .67-.24l.65-1.37a.5.5 0 0 0-.24-.67Z" fill="#CBCF35"/><path d="M43.53 22.45c.08.31.3.53.49.49.19-.05.27-.35.18-.67-.08-.32-.3-.54-.49-.5-.19.06-.27.36-.18.68Z" fill="#0E7C6E"/><path d="m21.37 23.47.62-1.4a.42.42 0 0 1 .24-.22.43.43 0 0 1 .32.01l1.41.62a.42.42 0 0 1 .23.23.41.41 0 0 1-.01.32l-.63 1.4a.42.42 0 0 1-.23.22.43.43 0 0 1-.32 0l-1.42-.63a.42.42 0 0 1-.22-.23.41.41 0 0 1 0-.32Z" fill="#50A144"/><path d="M12.4 22.74c-.14.4-.07.8.15.87.21.07.5-.2.64-.62.13-.41.06-.8-.15-.87-.22-.07-.5.2-.64.62Z" fill="#155A86"/><path d="M41.18 22.8c.22.17.36.3.41.37a.3.3 0 0 1 .06.18c0 .28-.09.6-.25.97-.06.12-.14.16-.27.1a3.85 3.85 0 0 1-1.11-.83.3.3 0 0 1-.06-.18c0-.28.1-.6.25-.97.06-.12.15-.16.27-.1.2.1.44.25.7.46Z" fill="#50A144"/><path d="M15.43 23.2a.31.31 0 0 1 .2.29c0 .04-.01.08-.03.11l-.44 1.05a.41.41 0 0 1-.25.22.46.46 0 0 1-.34 0l-.48-.2a.47.47 0 0 1-.25-.25.42.42 0 0 1 0-.33l.45-1.04a.31.31 0 0 1 .29-.19l.12.03.73.3Z" fill="#146A7D"/><path d="M35.84 23.68a.44.44 0 0 1 .43-.24c.05 0 .11.01.16.04l1.15.56c.13.06.24.17.3.3.05.12.05.25 0 .36l-.59 1.18a.4.4 0 0 1-.12.15.48.48 0 0 1-.18.08.59.59 0 0 1-.2.01.66.66 0 0 1-.21-.06l-1.15-.55a.44.44 0 0 1-.25-.42c0-.06.02-.12.05-.17l.61-1.24ZM28.21 24.15l-1.57-.72a.49.49 0 0 0-.65.23l-.73 1.56c-.11.24 0 .52.23.64l1.58.72c.24.11.53.01.64-.23l.74-1.56a.48.48 0 0 0-.24-.64Z" fill="#84B13D"/><path d="m16.3 25.41.44-1a.49.49 0 0 1 .47-.3.5.5 0 0 1 .19.04l1.02.45a.48.48 0 0 1 .25.65l-.45 1a.5.5 0 0 1-.65.26l-1.02-.45a.5.5 0 0 1-.27-.27.48.48 0 0 1 .01-.38ZM43.02 24.52a.15.15 0 0 1 .15-.08l.05.02c.62.35.73.84.3 1.47-.03.06-.08.08-.15.04-.58-.31-.7-.8-.35-1.45Z" fill="#0E7C6E"/><path d="m32.34 26.03-1.5-.69a.52.52 0 0 0-.7.26l-.7 1.49c-.11.26 0 .57.26.69l1.51.68c.26.12.57 0 .7-.25l.69-1.5a.51.51 0 0 0-.26-.68Z" fill="#84B13D"/><path d="m38.8 26.76.5-1.12a.37.37 0 0 1 .23-.2.37.37 0 0 1 .3.04l.98.55a.37.37 0 0 1 .15.47l-.5 1.11a.37.37 0 0 1-.37.22.37.37 0 0 1-.15-.05l-.98-.56a.37.37 0 0 1-.15-.46Z" fill="#219446"/><path d="m19.63 27.21.58-1.32c.06-.1.15-.2.27-.24a.48.48 0 0 1 .36 0l1.33.59a.47.47 0 0 1 .24.62l-.59 1.32a.48.48 0 0 1-.62.24l-1.33-.59a.48.48 0 0 1-.25-.26.46.46 0 0 1 0-.36Z" fill="#0F8958"/><path d="M11.8 25.76h-.03a.2.2 0 0 0-.24.16l-.15.8a.2.2 0 0 0 .17.23h.02a.2.2 0 0 0 .24-.16l.15-.79a.2.2 0 0 0-.17-.24Z" fill="#155A86"/><path d="M44.98 27.32a.04.04 0 0 1-.05.04.4.4 0 0 1-.37-.25.38.38 0 0 1-.02-.16v-.06c0-.1.05-.2.13-.27a.4.4 0 0 1 .28-.1h.01a.04.04 0 0 1 .03 0v.02l.01.02-.02.76Z" fill="#0E7C6E"/><path d="M14.02 27.83c-.1.3-.18.53-.25.66a.2.2 0 0 1-.24.1c-.64-.2-.83-.56-.63-1.15.11-.3.2-.51.26-.64a.2.2 0 0 1 .25-.11c.64.2.83.56.61 1.14Z" fill="#155A86"/><path d="M42.02 28.04c.1-.3.18-.52.25-.66a.2.2 0 0 1 .24-.1c.65.2.84.55.64 1.14-.1.3-.2.52-.26.66a.2.2 0 0 1-.25.1c-.64-.2-.83-.55-.62-1.14Z" fill="#0E7C6E"/><path d="m26.37 28.12-1.6-.73a.47.47 0 0 0-.62.22l-.74 1.59c-.11.23 0 .5.23.61l1.6.74c.24.1.51 0 .62-.23l.74-1.59c.11-.23 0-.5-.23-.61Z" fill="#219446"/><path d="m33.62 29.03.62-1.39a.43.43 0 0 1 .56-.21l1.4.6c.1.05.19.14.23.24.04.1.04.22-.01.33l-.62 1.38a.43.43 0 0 1-.56.21l-1.4-.6a.43.43 0 0 1-.26-.4c0-.06.02-.11.04-.16Z" fill="#50A144"/><path d="M17.04 29.55c-.1.32-.22.6-.35.84a.26.26 0 0 1-.34.12 5.66 5.66 0 0 1-1-.62c-.32-.25-.22-.6-.1-.97.11-.33.23-.61.36-.85a.26.26 0 0 1 .34-.12c.36.18.69.38 1 .62.32.25.21.6.1.98ZM11.05 28.95c.03.26.13.45.23.44.1 0 .16-.22.13-.48-.03-.25-.13-.45-.23-.44-.1.01-.16.23-.13.48ZM44.53 28.96l-.04-.01a.22.22 0 0 0-.27.17l-.16.74c-.02.12.05.24.17.27h.05c.12.03.23-.05.26-.16l.16-.75a.22.22 0 0 0-.17-.26Z" fill="#146A7D"/><path d="m30.5 29.98-1.52-.69a.52.52 0 0 0-.69.26l-.7 1.5c-.11.27 0 .57.26.69l1.53.69c.26.12.57 0 .69-.26l.7-1.5a.51.51 0 0 0-.26-.69Z" fill="#219446"/><path d="m39.54 29.83-1.09-.5a.45.45 0 0 0-.59.21l-.5 1.08c-.1.22-.01.48.21.58l1.1.5c.21.1.48.01.58-.2l.5-1.09c.1-.22.01-.48-.21-.58Z" fill="#0F8958"/><path d="m20.78 30.94-.51 1.15a.5.5 0 0 1-.28.27.52.52 0 0 1-.4 0l-1.16-.51a.51.51 0 0 1-.3-.48.5.5 0 0 1 .04-.2l.51-1.14a.5.5 0 0 1 .29-.27.52.52 0 0 1 .39 0l1.16.52a.51.51 0 0 1 .27.28.5.5 0 0 1 0 .38Z" fill="#0E7C6E"/><path d="M12.46 29.93a.15.15 0 0 1 .15-.08l.05.02c.63.35.74.85.31 1.5-.04.05-.1.06-.15.03-.6-.32-.72-.8-.36-1.47Z" fill="#155A86"/><path d="m41.91 31.13-.53-.18a.43.43 0 0 0-.55.27l-.33 1c-.08.23.05.47.27.55l.53.17c.23.07.47-.05.55-.27l.33-1a.43.43 0 0 0-.27-.54Z" fill="#146A7D"/><path d="m33.46 34-1.37-.6a.45.45 0 0 1-.23-.6l.6-1.35a.45.45 0 0 1 .6-.23l1.37.6c.11.04.2.13.24.24.05.12.04.24 0 .35l-.61 1.35a.45.45 0 0 1-.6.23Z" fill="#0F8958"/><path d="M15.63 31.9c.22.17.36.3.42.37a.3.3 0 0 1 .06.19c0 .28-.09.61-.25.98-.06.13-.15.16-.27.1a3.9 3.9 0 0 1-1.14-.83.3.3 0 0 1-.06-.18c0-.29.1-.62.25-1 .06-.12.15-.15.27-.09.2.1.45.25.72.46Z" fill="#155A86"/><path d="m24.53 32.2-1.43-.69a.48.48 0 0 0-.64.22l-.69 1.41a.47.47 0 0 0 .23.63l1.42.69c.24.11.53.01.64-.22l.7-1.41a.47.47 0 0 0-.23-.64Z" fill="#0E7C6E"/><path d="M42.85 32.86c-.13.42-.07.82.15.88.21.07.5-.22.63-.64.13-.42.07-.82-.15-.89-.21-.06-.5.23-.63.65Z" fill="#146A7D"/><path d="M11.98 32.87c.62.27.77.64.46 1.1a.3.3 0 0 1-.25.14.3.3 0 0 1-.25-.14c-.19-.32-.21-.67-.06-1.06.02-.04.05-.06.1-.04Z" fill="#155A86"/><path d="m37.9 33.51-1.2-.56a.39.39 0 0 0-.5.18l-.57 1.17c-.09.2 0 .42.19.5l1.2.57c.2.09.42 0 .51-.18l.56-1.17a.38.38 0 0 0-.18-.51Z" fill="#0E7C6E"/><path d="m19.52 34.47-.41.92a.35.35 0 0 1-.22.2c-.05.01-.1.02-.15.01a.36.36 0 0 1-.14-.04l-1.03-.6a.36.36 0 0 1-.15-.44l.4-.92a.36.36 0 0 1 .23-.2c.04-.01.1-.02.14-.01.05 0 .1.02.15.04l1.03.6a.35.35 0 0 1 .15.44Z" fill="#146A7D"/><path d="m28.43 33.95-1.37-.61a.52.52 0 0 0-.68.25l-.62 1.37a.5.5 0 0 0 .26.67l1.37.6c.26.12.56.01.68-.25l.62-1.36a.5.5 0 0 0-.26-.67Z" fill="#0E7C6E"/><path d="m40.54 34.63-.6-.32a.38.38 0 0 0-.5.15l-.56 1c-.1.18-.03.4.15.5l.6.33c.18.1.4.03.5-.15l.56-1c.1-.18.03-.4-.15-.5Z" fill="#146A7D"/><path d="m15.31 35.25.01.05a2.2 2.2 0 0 1-.27.94.18.18 0 0 1-.24.07c-.23-.12-.68-.39-.77-.63-.08-.25.1-.74.21-.97a.18.18 0 0 1 .23-.09c.3.12.57.31.8.58l.03.05Z" fill="#155A86"/><path d="m31.3 37.68-1.2-.53a.5.5 0 0 1-.29-.45c0-.07.02-.13.04-.19l.53-1.19a.49.49 0 0 1 .46-.28.5.5 0 0 1 .2.04l1.2.52a.49.49 0 0 1 .28.46c0 .06-.01.12-.04.18l-.53 1.19a.48.48 0 0 1-.46.29.5.5 0 0 1-.19-.04Z" fill="#0E7C6E"/><path d="m22.85 35.75-1.19-.48a.4.4 0 0 0-.51.22l-.4.98c-.09.2.01.43.21.5l1.2.49a.4.4 0 0 0 .5-.22l.4-.98a.39.39 0 0 0-.2-.5Z" fill="#146A7D"/><path d="M42.33 35.59c.04.02.07.05.08.1 0 .03 0 .07-.02.11l-.37.64a.86.86 0 0 1-.3.31c-.1.06-.21.08-.3.03l-.05-.03a.22.22 0 0 1-.1-.1.4.4 0 0 1-.03-.17c0-.07.01-.14.03-.2a.97.97 0 0 1 .1-.22l.36-.63a.16.16 0 0 1 .22-.06l.38.22ZM17.42 36.37l.9.5c.3.18.37.41.23.72l-.22.5c-.12.27-.3.33-.56.19l-.88-.5c-.16-.1-.2-.22-.12-.38l.43-.96c.04-.1.12-.13.22-.07Z" fill="#155A86"/><path d="M33.93 37.22c.2-.34.4-.64.8-.56.38.07.76.19 1.12.35a.25.25 0 0 1 .14.33c-.1.25-.25.52-.43.8-.2.35-.4.65-.8.57-.39-.08-.76-.2-1.12-.35a.25.25 0 0 1-.14-.33c.1-.25.25-.52.43-.8ZM26.49 37.45l-1.01-.54a.46.46 0 0 0-.62.19l-.47.85c-.12.22-.04.5.18.62l1.01.53c.22.12.5.04.62-.18l.47-.86a.45.45 0 0 0-.18-.6Z" fill="#146A7D"/><path d="M13.96 37.52c.09.19.24.3.33.26.1-.05.1-.24.01-.42-.09-.19-.24-.3-.33-.26-.1.05-.1.23-.01.42ZM38.27 38.96c-.3.55-.69.65-1.28.32a.2.2 0 0 1-.08-.26l.3-.63c.32-.55.71-.65 1.3-.31a.2.2 0 0 1 .1.25l-.34.63ZM21.72 39.16l-.3.66a.4.4 0 0 1-.37.24.4.4 0 0 1-.15-.04l-.9-.39a.4.4 0 0 1-.23-.37c0-.05 0-.1.03-.15l.3-.66a.4.4 0 0 1 .22-.2.4.4 0 0 1 .3 0l.9.39a.4.4 0 0 1 .2.22.39.39 0 0 1 0 .3Z" fill="#155A86"/><path d="m28.01 39.64.42-.92c.11-.26.31-.35.59-.27l1.03.29c.28.08.37.25.27.52-.15.4-.37.74-.65 1a.22.22 0 0 1-.18.06 3.5 3.5 0 0 1-1.4-.46.17.17 0 0 1-.08-.22ZM39.7 38.99c-.22.27-.3.56-.2.65.11.09.38-.06.6-.33.22-.27.31-.56.2-.65-.11-.09-.38.06-.6.33Z" fill="#146A7D"/><path d="M17.25 40.1a.14.14 0 0 1-.2 0l-.34-.28a.9.9 0 0 1-.24-.31c-.05-.11-.04-.2 0-.26l.06-.07a.16.16 0 0 1 .1-.05l.15.01c.06.01.12.04.18.07.06.03.12.08.17.12l.34.3a.14.14 0 0 1 .02.18l-.24.28ZM32.68 41.17a4 4 0 0 1-.81-.23c-.13-.05-.16-.14-.1-.26.18-.37.37-.65.58-.84a.3.3 0 0 1 .18-.07 3.92 3.92 0 0 1 1.37.29c.13.05.16.14.1.26-.18.37-.37.64-.58.83a.3.3 0 0 1-.18.08c-.1 0-.28-.01-.56-.06ZM24.94 40.2l-1.02-.43a.33.33 0 0 0-.43.17l-.34.76c-.07.17 0 .36.17.43l1.02.44c.17.07.36 0 .44-.17l.33-.77a.32.32 0 0 0-.17-.43ZM36.62 40.92c-.27.7-.73.93-1.36.7-.07-.03-.1-.08-.07-.15.21-.74.66-.99 1.34-.74a.15.15 0 0 1 .09.07.14.14 0 0 1 0 .12ZM20.5 41.16l-.7-.35a.23.23 0 0 0-.31.1l-.2.42c-.06.11-.02.25.1.3l.7.34c.12.06.26.01.31-.1l.2-.41a.22.22 0 0 0-.1-.3ZM38.2 41.4c.26-.08.43-.24.4-.37-.04-.12-.28-.16-.53-.08-.25.07-.42.24-.38.36.03.12.27.16.52.09ZM28.51 41.72l-.46.8a.3.3 0 0 1-.34.13l-1.09-.31a.3.3 0 0 1-.19-.17.29.29 0 0 1 .02-.26l.46-.79a.3.3 0 0 1 .34-.13l1.09.3a.3.3 0 0 1 .19.18.29.29 0 0 1-.02.25ZM23.44 42.43l-.64-.25a.32.32 0 0 0-.42.19l-.12.3c-.06.17.02.36.18.42l.64.24c.17.07.36-.01.42-.18l.12-.31a.32.32 0 0 0-.18-.41ZM31.76 42.49c.03.06.01.14-.04.22-.14.23-.29.44-.43.64a.28.28 0 0 1-.28.12l-.73-.13c-.12-.03-.2-.07-.22-.13-.03-.06 0-.14.06-.25l.4-.6a.28.28 0 0 1 .29-.13c.24.04.5.08.76.14.1.02.16.06.2.12ZM34.62 43.33l-.2.42a.18.18 0 0 1-.17.12h-.62a.16.16 0 0 1-.16-.12v-.07c.05-.2.13-.37.26-.53.05-.05.1-.08.18-.08.26-.01.47.01.64.08.08.03.1.1.07.18ZM26.65 43.62l-.6-.18a.23.23 0 0 0-.28.16l-.05.16c-.04.12.03.25.15.29l.6.18c.12.03.25-.03.29-.16l.05-.16a.23.23 0 0 0-.16-.29ZM29.9 44.78c.17-.12.24-.31.16-.42-.08-.1-.28-.1-.45.03-.17.12-.25.31-.17.42.08.1.28.1.45-.03Z" fill="#155A86"/><defs><linearGradient id="a" x1="10.42" y1="9.71" x2="68.15" y2="76.02" gradientUnits="userSpaceOnUse"><stop stop-color="#1A1E21"/><stop offset="1" stop-color="#06060A"/></linearGradient></defs></svg>