<!-- by TradingView --><svg width="18" height="18" viewBox="0 0 18 18" fill="none" xmlns="http://www.w3.org/2000/svg">
<rect width="18" height="18" fill="#F0F3FA"/>
<path d="M12 7H11C11 5.50424 9.90397 5 8.5 5C7.09603 5 6 5.18572 6 6.59358C6 7.4492 7.09961 7.87734 9.80159 8.49231C12.5036 9.10728 13 10.6043 13 11.2727C13 11.9412 12.8146 14 9 14C5.94835 14 5 12.5261 5 11H6C6 11.8556 6.15745 13 9 13C10.8278 13 12 12.4781 12 11.2727C12 10.8184 11.4499 9.69867 9 9.33724C6.00728 8.89574 5 7.92291 5 6.59358C5 5.87065 5.35647 4 8.52353 4C11.448 4 11.947 6.01961 12 7Z" fill="#606978"/>
</svg>
