<!-- by TradingView --><svg width="18" height="18" viewBox="0 0 18 18" xmlns="http://www.w3.org/2000/svg"><path fill="#F0F3FA" d="M0 0h18v18H0z"/><path d="M14 4H4v10h10V4Zm-9.06.87 1.04.8h6.04l1.04-.8-.73.95v6.32l.73.95-.97-.76H5.91l-.97.76.73-.95V5.82l-.73-.95Z" fill="#BEBFC1"/><path fill-rule="evenodd" d="M12 6H6v6h6V6Zm-1.58 5.33c-1.2 0-1.45-1.56-1.42-2.35 0-2.02 1-2.31 1.42-2.31.26 0 .41.12.54.2.08.07.14.12.2.12.14 0 .15-.22.13-.32h.11v1.66h-.1c0-.95-.65-1.42-.83-1.42-.2 0-.8 0-.8 1.96 0 1.98.38 2.22.68 2.22.25 0 .44-.1.5-.15v-1.3a.2.2 0 0 0-.2-.2h-.18v-.1h1.2v.1h-.1a.2.2 0 0 0-.2.2V11c-.08.11-.39.33-.95.33ZM6.67 6.67V8h.08v-.39a.6.6 0 0 1 .6-.61h.1v3.89a.3.3 0 0 1-.28.3h-.1v.14h1.28v-.14h-.08c-.16 0-.27-.14-.27-.3V7h.15c.33 0 .6.26.6.61V8h.07V6.67H6.67Z" fill="#B3043B"/></svg>