<!-- by TradingView --><svg width="18" height="18" viewBox="0 0 18 18" xmlns="http://www.w3.org/2000/svg"><path fill="#F0F3FA" d="M0 0h18v18H0z"/><path d="M12 6.59v-1C11.1 5.22 10.05 5 8.93 5c-1.07 0-2.07.2-2.93.53v1c.82-.38 1.82-.6 2.93-.6 1.17 0 2.23.25 3.07.66Zm0 5.82v-1c-.7.35-1.57.58-2.52.65v.92a7.8 7.8 0 0 0 2.52-.57ZM9 13v-.92a8.48 8.48 0 0 1-1.5-.13v.93A8.5 8.5 0 0 0 9 13Z" fill="#2C3491"/><path d="M7.5 5.5H9v7H7.5v-7ZM9.5 7H11v5.38H9.5V7Z" fill="#2C3491"/><path d="M13.86 9c0 .8-.48 1.57-1.34 2.15-.77.52-1.83.87-3.02.93v.3c2.6-.13 4.64-1.6 4.64-3.38 0-1.87-2.24-3.38-5-3.38s-5 1.51-5 3.38c0 1.84 2.16 3.33 4.86 3.38v-.3a6.04 6.04 0 0 1-3.24-.93C4.91 10.57 4.43 9.8 4.43 9c0-.8.48-1.57 1.33-2.15a6.1 6.1 0 0 1 3.38-.94 6.1 6.1 0 0 1 3.38.94c.86.58 1.34 1.35 1.34 2.15Z" fill="#2C3491"/><path d="M14.71 9c0 .96-.58 1.87-1.62 2.57a7.28 7.28 0 0 1-3.59 1.1V13c3.08-.17 5.5-1.9 5.5-3.99 0-2.2-2.69-4-6-4S3 6.8 3 9s2.69 4 6 4v-.3a7.46 7.46 0 0 1-4.1-1.13C3.88 10.87 3.3 9.96 3.3 9c0-.96.58-1.87 1.62-2.57A7.46 7.46 0 0 1 9 5.31c1.61 0 3.06.43 4.1 1.12 1.03.7 1.61 1.61 1.61 2.57Z" fill="#2C3491"/></svg>