<!-- by TradingView --><svg width="18" height="18" viewBox="0 0 18 18" fill="none" xmlns="http://www.w3.org/2000/svg">
<rect width="18" height="18" fill="#F0F3FA"/>
<path d="M9.17746 4.64661C6.86057 4.5702 4.9374 6.21847 4.66186 8.53639C4.44792 10.3397 5.37535 12.147 6.67016 13.343C6.675 13.3476 6.67862 13.3534 6.68065 13.3598C6.68268 13.3661 6.68307 13.3729 6.68178 13.3794C6.68049 13.386 6.67756 13.392 6.67328 13.3971C6.66899 13.4021 6.66348 13.4059 6.65728 13.4082C6.63002 13.4179 6.59792 13.411 6.56095 13.3874C4.943 12.3599 3.94108 10.7588 4.00269 8.81672C4.03013 7.94371 4.22334 7.13699 4.67026 6.39375C6.00987 4.16797 8.42085 3.52641 10.8111 4.33594C10.8286 4.34156 10.8309 4.35111 10.8178 4.36459C9.76233 5.42524 8.70553 6.48532 7.64743 7.54484C7.34893 7.84371 6.62592 8.39538 6.72897 8.85829C6.79057 9.13356 7.25204 9.51614 7.46262 9.72175C8.09714 10.3425 8.38781 10.5105 9.14218 9.94253C9.40577 9.74441 9.6703 9.54891 9.93576 9.35603C10.031 9.28693 10.1133 9.20996 10.2275 9.17963C10.2392 9.1765 10.2516 9.17703 10.263 9.18115C10.2744 9.18527 10.2842 9.19279 10.2913 9.20269C10.2983 9.2126 10.3021 9.22441 10.3022 9.23656C10.3023 9.2487 10.2987 9.26059 10.2919 9.27064C10.243 9.34329 10.1885 9.40902 10.1284 9.46782C9.58853 9.99852 9.04735 10.5277 8.50485 11.0554C8.27188 11.2818 7.92521 11.4357 7.65695 11.1661C7.03941 10.5448 6.41982 9.92511 5.79818 9.30715C5.25662 8.76896 5.58536 8.34032 6.03675 7.88079C7.07358 6.82501 8.12757 5.76511 9.19874 4.7011C9.23384 4.66664 9.22675 4.64848 9.17746 4.64661Z" fill="#0453A1"/>
<path d="M8.66971 13.3481C11.8155 13.5127 14.0545 10.6571 13.1954 7.63024C12.8814 6.52502 12.3081 5.55913 11.4755 4.73256C11.4698 4.72691 11.4659 4.71962 11.4645 4.71169C11.4631 4.70375 11.4641 4.69555 11.4676 4.68819C11.471 4.68084 11.4766 4.67468 11.4836 4.67056C11.4907 4.66644 11.4988 4.66455 11.5069 4.66515C11.5479 4.66852 11.5909 4.68575 11.6357 4.71683C12.8991 5.59771 13.8058 6.88531 13.9699 8.45606C14.0948 9.65602 13.835 10.9037 13.1428 11.9015C11.7287 13.9413 9.30088 14.4615 7.07248 13.6037C7.03514 13.5891 7.03104 13.5681 7.06016 13.5407C8.32996 12.3501 9.57437 11.182 10.7934 10.0364C11.1753 9.67681 11.4934 9.34536 11.0572 8.85773C10.8391 8.61429 10.6166 8.37516 10.3896 8.14033C10.0077 7.74484 9.56522 7.5572 9.07798 7.90832C8.66617 8.20494 8.25024 8.49426 7.83021 8.77627C7.81769 8.78487 7.80265 8.78901 7.7875 8.78801C7.77236 8.78701 7.75798 8.78095 7.74668 8.77078C7.73538 8.76061 7.72782 8.74693 7.72519 8.73194C7.72257 8.71694 7.72504 8.70149 7.73221 8.68807C7.75909 8.63639 7.80165 8.57122 7.84813 8.52796C8.42759 7.9879 9.01227 7.45365 9.60218 6.9252C9.89116 6.66622 10.1846 6.6297 10.4669 6.92801C11.0616 7.5572 11.6531 8.18846 12.2411 8.82178C12.5928 9.20098 12.5038 9.67007 12.1481 10.0055C10.9997 11.0904 9.83441 12.1885 8.65235 13.2997C8.62024 13.3293 8.62603 13.3454 8.66971 13.3481Z" fill="#068A45"/>
</svg>
