<!-- by TradingView --><svg width="18" height="18" viewBox="0 0 18 18" xmlns="http://www.w3.org/2000/svg"><path fill="#F0F3FA" d="M0 0h18v18H0z"/><path d="M6.81 4.53A5.14 5.14 0 0 0 4.5 8.58c0 3.08 3.87 5 6 4.42-.94-.22-3.27-.77-4.5-2.66.14-.09.45-.34 1.04-.34.59 0 1.87.39 3.24 1.58.4.33 1.18.55 1.78.55.32 0 .71-.09 1-.23a4.94 4.94 0 0 1-4.1 2.1A4.93 4.93 0 0 1 4 9.1c0-2 1.19-3.84 2.81-4.57Z" fill="#49A740"/><path d="M5 8.23c0 .71.27 1.2.4 1.36.12-.12.67-.33 1.29-.33.61 0 1.74.33 2.92 1.13 1.18.8 2.2 1.27 2.67 1.27.48 0 .84-.2 1.05-.37-.5 0-1.19-.13-1.33-.2V9h-1.67V7.63L8.54 6v.69L7.5 6v.69L6 6v2.23a2.32 2.32 0 0 0-1 0Z" fill="#415091"/><path d="M12.76 5.87C11.77 4.47 9.84 4.04 9 4a6.54 6.54 0 0 1 2.86 1.44l-.8-.25 1.04.58h-1.27l1.27.21-.66.29.66-.07-1.04 1.06 1.19-.88-.1.97.32-.9.43 1.17-.14-1.17c1.17 1.65.95 2.2 1.23 3.55.04-1.71 0-2.37-1.23-4.13Z" fill="#DEA72C"/><path d="M9.08 5.42c-.14 0-.71-.28-.98-.42-.26 0 .05.33.21.5.17.16.45.12.5.12 0 .1-.52.22-.52.28 0 .06.12.1.26.1.38 0 .63-.42.97-.53.33-.1.53-.14.47-.19-.06-.04-.3.08-.4.1-.12.01-.02-.07-.19-.08-.16 0-.14.13-.32.13Zm2.15-1.62a.8.8 0 0 1-.6-.27c.03.16.04.47-.1.47-.18 0-.53-.35-.53-.58 0-.2.29-.16.43-.11a.84.84 0 0 1-.1-.38c0-.48.45-1.03.6-.92.15.12-.3.88-.23.92.06.03.2-.1.26-.18v.46l1.04.2c-.13.14-.47.4-.77.4Z" fill="#415091"/></svg>