<!-- by TradingView --><svg width="18" height="18" viewBox="0 0 18 18" xmlns="http://www.w3.org/2000/svg"><path fill="#F0F3FA" d="M0 0h18v18H0z"/><path d="M13.33 6.53A5 5 0 1 1 4.7 6.4a1.74 1.74 0 0 1-.68-1.43h.02a3.06 3.06 0 0 0 .98.98 4.99 4.99 0 0 1 8.02.08c.4-.25.68-.58.92-.95.03-.05.05-.05.04.01-.08.56-.21 1.03-.66 1.4v.03ZM5.5 6.25c.98.47 2.16.69 3.28.7.8.01 1.36 0 2.05-.12.63-.1 1.24-.29 1.81-.56l.3-.16v-.02a4.85 4.85 0 0 0-3.5-1.94 4.81 4.81 0 0 0-4.3 1.9l.36.2Zm7.49.52c-.45.25-.9.44-1.37.56a10.1 10.1 0 0 1-2.79.32 8.85 8.85 0 0 1-3.67-.9l-.33-.23H4.8l-.28.6a4.84 4.84 0 0 0 2.2 6.2 4.9 4.9 0 0 0 7-3 4.95 4.95 0 0 0-.46-3.73h-.02l-.25.18Z"/><path d="M12.59 6.29c-.57.27-1.18.46-1.82.57-.68.11-1.24.13-2.04.12a7.89 7.89 0 0 1-3.27-.71l.26-.32a4.44 4.44 0 0 1 6.87.34Z" fill="#743724"/><path d="M5.14 6.74a8.8 8.8 0 0 0 4.25.92 9.72 9.72 0 0 0 2.18-.33 5.8 5.8 0 0 0 1.37-.56 4.54 4.54 0 0 1-4.32 6.75 4.51 4.51 0 0 1-3.48-6.78Zm1.13 1.84c-.05.16-.1.27-.06.44.3 1.29.85 2.52 1.51 3.68.14.24.44.4.72.45.13.03.28.02.42.02h.02l.01-.01a.04.04 0 0 0 .01-.03c-.03-1.5-.06-3-.07-4.47 0-.16-.06-.2-.22-.26a5.8 5.8 0 0 0-.69-.2c-.26-.06-.87-.17-1.82-.34-.2-.04-.4-.1-.59-.17-.02-.01-.03 0-.02.02.12.32.34.57.66.76.05.03.09.06.11.09v.02Zm2.88 4.59c.48.08 1-.16 1.22-.57l.49-.95c.41-.84.69-1.72.96-2.61.04-.13-.02-.29-.06-.42-.03-.12.2-.2.28-.26.22-.15.38-.36.47-.63.01-.03 0-.04-.03-.03-.42.11-.85.22-1.28.31-.6.13-1.2.16-1.76.37-.17.07-.24.17-.24.34-.02.93-.02 2.06-.06 3.12v1.32h.01Z" fill="#743724"/></svg>