<!-- by TradingView --><svg width="18" height="18" viewBox="0 0 18 18" xmlns="http://www.w3.org/2000/svg"><path fill="#F0F3FA" d="M0 0h18v18H0z"/><path fill-rule="evenodd" d="M14 4H4v4.4c.88 0 1.35-.65 1.35-1.4h.23l-.04 1.4h1.15v.17H5.54v2.46c0 .28.14.98.58.98.43 0 .63-.48.74-.8l.22.11c-.2.5-.48.93-1.12.93-1.01 0-1.2-.66-1.2-1.4V8.57H4V14h10V4Zm0 4.73c0-.22-.15-.33-.46-.33-.22 0-.49.12-.79.35a2.18 2.18 0 0 0-1.06-.17c-.84 0-1.54.44-1.54 1.22 0 .4.21.76.56 1-.31.13-.75.38-.75.75 0 .6.8.7 1.35.7h.26c.65-.02 1.47-.04 1.47.7 0 .65-.93.9-1.5.9-.53 0-1.06-.29-1.06-.82v-.09c0-.12-.01-.24.06-.34.15-.14.32.06.38.18.07-.18.08-.53-.38-.53-.43 0-.79.52-.77.87.04.72 1 .88 1.6.88.94 0 2.26-.36 2.26-1.4 0-.7-.42-1.05-1.17-1.05h-1.34c-.59 0-.76-.5-.2-.67l.12.03c.21.06.42.12.64.12.97 0 1.56-.48 1.56-1.23 0-.33-.08-.72-.37-.91.09-.1.21-.14.37-.14.03 0 .1.06.2.17.1.1.19.16.27.16.2 0 .29-.12.29-.35Zm-4.04.5c0-.4-.18-.83-.67-.83-.52 0-.91.63-1.06 1.05V8.4c-.45.12-.83.18-1.15.18v.17c.29.01.38.18.38.35v2.8c0 .14-.25.2-.37.2v.15h1.53v-.15c-.38-.03-.38-.1-.39-.22v-1.9s.22-1.23.77-1.23c.16 0 .25.15.29.27-.17.13-.25.26-.25.4 0 .19.22.38.54.38.31 0 .38-.33.38-.57Zm2.5.57c0-.46-.17-1.05-.77-1.05-.64 0-.77.58-.77 1.05 0 .47.26 1.05.76 1.05.59 0 .78-.56.78-1.05Z" fill="#EB2127"/></svg>