<!-- by TradingView --><svg width="18" height="18" viewBox="0 0 18 18" fill="none" xmlns="http://www.w3.org/2000/svg">
<rect width="18" height="18" fill="#F0F3FA"/>
<path fill-rule="evenodd" clip-rule="evenodd" d="M4.00843 6C3.45149 6 3 6.4716 3 7.05335V9.94665C3 10.5284 3.45149 11 4.00843 11H13.9916C14.5485 11 15 10.5284 15 9.94665V7.05335C15 6.4716 14.5485 6 13.9916 6H4.00843ZM4.14855 6.5C3.7758 6.5 3.47363 6.81171 3.47363 7.19623V9.80377C3.47363 10.1883 3.7758 10.5 4.14854 10.5H13.8514C14.2241 10.5 14.5263 10.1883 14.5263 9.80377V7.19623C14.5263 6.81171 14.2241 6.5 13.8514 6.5H4.14855Z" fill="black"/>
<path fill-rule="evenodd" clip-rule="evenodd" d="M7.02671 8L9.00746 4L10.9442 8H7.02671ZM5.54115 11L4.55078 13H13.3651L12.3967 11H5.54115Z" fill="#00ADEF"/>
<rect opacity="0.5" x="4" y="9" width="10.0497" height="1" fill="black"/>
</svg>
