<!-- by TradingView --><svg width="18" height="18" viewBox="0 0 18 18" xmlns="http://www.w3.org/2000/svg"><path fill="#F0F3FA" d="M0 0h18v18H0z"/><path fill-rule="evenodd" d="M6.04 4C4.91 4 4 4.91 4 6.04v5.92C4 13.09 4.91 14 6.04 14h5.92c1.13 0 2.04-.91 2.04-2.04V6.04C14 4.91 13.09 4 11.96 4H6.04Zm.08.31c-1 0-1.8.81-1.8 1.81v5.76c0 1 .8 1.8 1.8 1.8h5.76c1 0 1.8-.8 1.8-1.8V6.12c0-1-.8-1.8-1.8-1.8H6.12Z" fill="#4E9445"/><path d="M10.8 6.46c-.01-.2.7-.98 1.13-1.42-.1-.03-.2-.04-.31-.04H6.38C5.62 5 5 5.62 5 6.38v4.25A16.13 16.13 0 0 1 8.58 6.5c.1.08.23.15.36.2.1.06.2.11.26.16 0 .2 0 .7-.12.98-.24.6-.68 1.06-1.04 1.43-.2.2-.37.37-.46.53-.26.44-1.26 2.26-1.5 2.86l.96-1.16c.13 0 .47 0 .82.12.26.08.37.13.4.14l.2.28-.53.96h3.69c.76 0 1.38-.62 1.38-1.38v-.43a4.72 4.72 0 0 1-.85-2.77c-.36.24-1.96 1.58-2.53 2.11.6-.78 1.87-2.44 2.3-2.78h.37l.3.75c-.07.4-.06 1.32.41 2.15v-4.3c-.57.58-1 .88-1.21.88a.59.59 0 0 1-.38-.13c.08.1.24.31.24.42 0 .26-.23.48-.44.7-.13.12-.25.24-.33.36-.22.35-.76.73-.94.73-.14 0-.12-.24-.1-.36a.71.71 0 0 1-.3.11c-.12 0-.54-.2-.54-.6 0-.4.66-1.3.8-1.44.14-.14.7-.39.82-.39.1 0 .28.1.36.14a.6.6 0 0 1-.18-.31ZM5 11.62v-.12c.96-1.82 2.74-3.6 3.18-4.04l.02-.02c-.05.6-.68 1.65-1.1 2.33l-.2.35c-.25.43-.9 1.76-1.32 2.62A1.38 1.38 0 0 1 5 11.62Zm3.96-2.93c.06.25.34.75.98.8l-.06.13c-.17.42-.56 1.4-1.3 1.88-.5-.17-.95-.32-1.12-.32-.05-.18-.18-1.24 1.5-2.5Z" fill="#4E9445"/></svg>