<!-- by TradingView --><svg width="18" height="18" viewBox="0 0 18 18" xmlns="http://www.w3.org/2000/svg"><path fill="#004A71" d="M0 0h18v18H0z"/><path fill-rule="evenodd" d="M9.59 12c2.69 0 4.48-.74 5.05-1.1-4.56 1.88-11.54.43-11.54-1.87 0-2.3 5.22-2.87 6.85-2.87 1.02 0 1.92.14 2.46.25.04.13.17.22.31.22.18 0 .33-.14.33-.31a.32.32 0 0 0-.33-.32.32.32 0 0 0-.32.31C11.9 6.16 10.93 6 9.22 6 6.15 6 2 6.99 2 9.03 2 11.06 6.22 12 9.59 12ZM5 8.16v1.25c0 .33.34.59.77.59h1.7c.42 0 .77-.26.77-.59V8.16c0-.09-.1-.16-.22-.16h-.08c-.12 0-.21.07-.21.16v1.22c0 .16-.17.3-.38.3H5.89c-.2 0-.38-.14-.38-.3V8.16c0-.09-.1-.16-.21-.16H5.2C5.1 8 5 8.07 5 8.16Zm4-.01v1.72c0 .07.08.13.18.13h2.34c.68 0 1.04-.28 1.04-.57a.5.5 0 0 0-.26-.42c.09-.07.26-.24.26-.41 0-.42-.53-.56-.8-.58H9.18c-.1 0-.18.06-.18.13Zm2.62.14h-2.1v.57h2.1c.22 0 .4-.12.4-.28 0-.16-.18-.29-.4-.29Zm0 .83h-2.1v.57h2.1c.22 0 .4-.13.4-.28 0-.16-.18-.29-.4-.29Zm1.38.36V8.13c0-.07.08-.13.17-.13h.17c.1 0 .17.06.17.13v1.3c0 .12.13.22.3.22h2.02c.1 0 .17.06.17.13v.09c0 .07-.08.13-.17.13h-2.15c-.37 0-.68-.23-.68-.52Z" fill="#fff"/></svg>