<!-- by TradingView --><svg width="18" height="18" viewBox="0 0 18 18" xmlns="http://www.w3.org/2000/svg"><path fill="#F0F3FA" d="M0 0h18v18H0z"/><path fill-rule="evenodd" d="M15 6H3v6h12V6ZM5.5 7.11V7h-2v.11c.37.03.5.16.5.53V9.5c0 .85.9 1.51 1.82 1.51.98 0 1.68-.71 1.68-1.59V7.87c0-.42.04-.7.5-.76V7H6.5v.11c.46.05.5.34.5.76v1.54c0 .68-.25 1.26-1.06 1.26-.72 0-.94-.53-.94-1.14V7.64c0-.37.13-.5.5-.53Zm2.9 3.78c.48-.03.6-.13.6-.55V7.66c0-.4-.13-.53-.6-.55V7h2.2v.11c-.47.02-.6.14-.6.55v2.68c0 .42.12.52.6.55V11H8.4v-.1Zm4.85-3.8c-.13-.04-.26-.09-.4-.09-.89 0-1.85.94-1.85 2.02 0 1.1.96 1.98 1.85 1.98.45 0 .88-.29 1.15-.74l-.08-.1a1.2 1.2 0 0 1-.98.5c-.73 0-.94-.8-.94-1.62 0-.8.14-1.7.9-1.7.53 0 .86.37 1 1h.1V7h-.1c-.02.13-.2.19-.28.19a1.1 1.1 0 0 1-.37-.1Z" fill="#0F1A5A"/><path d="M11 6.5 9 7V6l2 .5ZM14.5 8l.5 2h-1l.5-2Z" fill="#E17C08"/></svg>