<!-- by TradingView --><svg width="18" height="18" viewBox="0 0 18 18" xmlns="http://www.w3.org/2000/svg"><path fill="#F0F3FA" d="M0 0h18v18H0z"/><path d="M5.8 13.54a1.93 1.93 0 0 1 .95-.2 7.07 7.07 0 0 1-.3-1.15 2.9 2.9 0 0 0-1.34.03c.12.43.35.9.7 1.32ZM7.01 14.55c-.44-.23-.8-.54-1.1-.87a1.77 1.77 0 0 1 .91-.16 7 7 0 0 0 .44.92 1.3 1.3 0 0 0-.25.11ZM7.46 14.76a4.04 4.04 0 0 1-.26-.11l.15-.06.1.17ZM8.1 14.63c-.05.1-.08.2-.1.3l-.28-.07-.2-.3a1.13 1.13 0 0 1 .57.07ZM8.23 14.41l-.05.07a1.29 1.29 0 0 0-.75-.08c-.16-.27-.3-.56-.42-.85.51.1.95.42 1.22.86ZM8.63 14.1a.99.99 0 0 0-.2.11 5.67 5.67 0 0 1-.2-.83c.17.22.3.46.4.73ZM9.16 14.04a.98.98 0 0 0-.32 0c0-.37.06-.73.16-1.08.1.35.15.71.16 1.08ZM9.43 14.13a.93.93 0 0 0-.06-.02c.17-.45.44-.85.78-1.17-.02.22-.05.43-.09.64-.25.14-.46.33-.63.55ZM9.81 14.46c-.06-.1-.14-.17-.24-.24.13-.16.27-.3.44-.4-.05.22-.12.43-.2.64ZM10.62 14.84c-.2.07-.4.12-.62.16-.01-.12-.04-.24-.08-.35l.01-.03a1.13 1.13 0 0 1 .83.01l-.14.21ZM12.08 13.88c-.26.29-.58.55-.97.75a1.35 1.35 0 0 0-.1-.07 7 7 0 0 0 .48-.98c.21.06.41.16.59.3ZM12.91 12.23a3.8 3.8 0 0 1-.72 1.52c-.2-.15-.4-.26-.64-.33.15-.41.27-.84.35-1.28a2.92 2.92 0 0 1 1.01.09ZM13 9.71v1.79c0 .17-.02.36-.05.56a3.07 3.07 0 0 0-1.03-.1 7.22 7.22 0 0 0 0-2.07c.35-.1.7-.16 1.08-.18ZM13 6.97v2.57c-.38.01-.75.08-1.1.18-.13-.79-.4-1.53-.76-2.2.57-.3 1.2-.49 1.86-.55ZM13 4v2.8c-.7.06-1.35.26-1.95.56a8.02 8.02 0 0 0-1.88-2.15V4H13ZM5 4h4.17v1.2a8.02 8.02 0 0 0-1.89 2.16A5.31 5.31 0 0 0 5 6.77V4Z" fill="#0462B8"/><path d="M5 6.94c.79.03 1.53.23 2.2.57-.39.7-.66 1.49-.78 2.32A4.34 4.34 0 0 0 5 9.53V6.95ZM5 9.71c.49.02.96.12 1.4.3a7.24 7.24 0 0 0 .02 2 3.08 3.08 0 0 0-1.35.04A2.5 2.5 0 0 1 5 11.5V9.7ZM7.43 7.44a6.7 6.7 0 0 1 1.74-1.97 6.7 6.7 0 0 1 1.73 1.97c-.67.38-1.26.9-1.73 1.52a5.58 5.58 0 0 0-1.74-1.52ZM9.27 9.1A5.41 5.41 0 0 1 11 7.6c.36.66.62 1.4.75 2.17-.62.22-1.18.57-1.65 1.03a5.77 5.77 0 0 0-.82-1.7ZM10.14 10.98c.46-.46 1.01-.81 1.63-1.03a7.05 7.05 0 0 1-.02 2.03c-.52.07-1 .28-1.42.58a6.44 6.44 0 0 0-.19-1.58ZM10.33 12.78c.4-.32.87-.54 1.4-.62-.08.42-.2.83-.34 1.22a1.94 1.94 0 0 0-1.14.11c.04-.23.06-.47.08-.7ZM10.33 14.38c.19 0 .36.03.52.1.18-.3.34-.61.47-.94a1.78 1.78 0 0 0-1.11.16c-.06.25-.12.49-.2.72.1-.03.21-.04.32-.04ZM6.94 13.36c.52.07.98.36 1.3.76-.1-.32-.17-.65-.2-1a2.98 2.98 0 0 0-1.42-.88c.08.38.18.76.32 1.12ZM6.6 12.05c.53.14 1.02.42 1.41.8a6 6 0 0 1 .11-1.57 4.36 4.36 0 0 0-1.57-1.2 7.06 7.06 0 0 0 .04 1.97ZM6.57 9.9c.62.26 1.16.67 1.6 1.17.17-.72.48-1.39.9-1.97a5.41 5.41 0 0 0-1.73-1.5c-.38.7-.64 1.47-.77 2.3ZM9.17 9.25a5.6 5.6 0 0 0-.87 1.98c.29.36.53.77.7 1.2a4.7 4.7 0 0 1 .96-1.5 5.6 5.6 0 0 0-.8-1.68ZM8.91 12.68a4.54 4.54 0 0 0-.65-1.23 5.76 5.76 0 0 0-.06 1.6c.19.23.35.48.48.76.03-.4.11-.77.23-1.13ZM10 11.13c-.4.44-.7.97-.91 1.55.12.36.2.74.23 1.13.2-.43.49-.81.84-1.11a5.89 5.89 0 0 0-.15-1.57Z" fill="#0462B8"/></svg>