<!-- by TradingView --><svg width="18" height="18" viewBox="0 0 18 18" xmlns="http://www.w3.org/2000/svg"><path fill="#F0F3FA" d="M0 0h18v18H0z"/><path d="M6.77 3.5c.14.2.42.62.53-.5.1.88.39.86.55.46 0 .23.1.6.48.34-.02.18.04.55.52.62-.48.06-.54.44-.52.61-.37-.26-.47.12-.48.34-.1-.24-.23-.3-.33-.3v5.52c.2.3.82.94 1.5.94.96 0 1.27-1.17 1.31-1.75V8.77c0-.1.03-1.86 1.84-1.86 1.45 0 1.82 1.3 1.83 1.95v3.93a.2.2 0 0 1-.2.21.21.21 0 0 1-.23-.2V8.85c0-.41-.16-1.53-1.4-1.53-.99 0-1.36.82-1.43 1.23V9.9c0 1.15-.71 1.99-1.72 1.99-.8 0-1.5-.6-1.74-.9-.2.3-.87.9-1.8.9-1.16 0-1.57-1.23-1.63-1.84V6.28c0-.13.1-.28.25-.28.13 0 .24.15.24.28v3.78c0 .28.18 1.47 1.13 1.47.77 0 1.32-.63 1.53-.94v-5.5c-.1.08-.2.2-.25.28.08-.5-.29-.43-.48-.34.1-.44-.3-.6-.5-.61.2-.02.6-.18.5-.62.2.1.56.16.48-.34l.02.03ZM3.46 6.24v4.08c0 .73.58 2.19 1.87 2.19a2.8 2.8 0 0 0 1.93-.87c.21.23.86.87 1.8.87 1.17 0 2.1-1.14 2.1-2.41V8.68c0-.52.4-.95.94-.95.56 0 .9.43.9.95v4.09c0 .12-.13.23-.26.23a.24.24 0 0 1-.23-.23V8.7c0-.29-.11-.52-.41-.52s-.47.23-.47.52v1.4c-.04.9-.66 2.89-2.57 2.89-.68 0-1.42-.53-1.75-.76l-.05-.04-.05.04c-.36.23-1.15.76-1.88.76C4.36 13 3 11.97 3 10.19V6.25c0-.12.1-.25.23-.25.12 0 .23.13.23.25Zm1.2 3.47V6.23c0-.13.1-.23.2-.23.12 0 .22.1.22.23v3.49c-.02.28.06.85.47.85.4 0 .45-.57.45-.85v-3.5c0-.12.17-.22.28-.22.1 0 .2.1.2.23v3.49c0 .13-.05 1.28-.93 1.28-.7 0-.89-.85-.89-1.28Zm3.35-3.43v3.92c.01.3.24.93.98.93.92 0 .95-1 .95-1.25V8.6c.01-.71.5-2.14 2.33-2.14 2.24 0 2.24 2.14 2.23 2.4v3.91c0 .13.12.24.25.24.14 0 .25-.1.25-.24V8.6c-.03-.86-.61-2.6-2.73-2.6C9.6 6 9.5 8.45 9.5 8.65v1.62a.5.5 0 0 1-.51.49.5.5 0 0 1-.52-.49V6.3c0-.12-.1-.29-.23-.29s-.23.17-.23.3Z" fill="#00ACEE"/></svg>