<!-- by TradingView --><svg width="18" height="18" viewBox="0 0 18 18" fill="none" xmlns="http://www.w3.org/2000/svg">
<rect width="18" height="18" fill="#0194CA"/>
<path fill-rule="evenodd" clip-rule="evenodd" d="M4 7.1587V5.418L5.20056 6.13531C5.70175 6.43476 6.31388 6.42784 6.80903 6.11712L8.20999 5.238C8.71482 4.92122 9.34035 4.92063 9.8457 5.23646L11.2453 6.11117C11.7473 6.42495 12.3683 6.42655 12.8718 6.11535L14 5.418V7.1587L12.9213 7.85236C12.3925 8.19243 11.7288 8.1813 11.2102 7.82366L9.90632 6.92447C9.37141 6.55558 8.68385 6.55626 8.14958 6.9262L6.84364 7.83047C6.33205 8.18471 5.67762 8.20153 5.15069 7.87398L4 7.1587ZM4 9.57726V7.83655L5.20056 8.55386C5.70175 8.85331 6.31388 8.84639 6.80903 8.53568L8.20999 7.65656C8.71482 7.33977 9.34035 7.33918 9.8457 7.65502L11.2453 8.52972C11.7473 8.84351 12.3683 8.8451 12.8718 8.5339L14 7.83655V9.57726L12.9213 10.2709C12.3925 10.611 11.7288 10.5999 11.2102 10.2422L9.90632 9.34303C9.37141 8.97414 8.68385 8.97481 8.14958 9.34476L6.84364 10.249C6.33205 10.6033 5.67762 10.6201 5.15069 10.2925L4 9.57726ZM4 10.3096V12.0503L5.15069 12.7656C5.67762 13.0932 6.33205 13.0763 6.84364 12.7221L8.14958 11.8178C8.68385 11.4479 9.37141 11.4472 9.90632 11.8161L11.2102 12.7153C11.7288 13.0729 12.3925 13.0841 12.9213 12.744L14 12.0503V10.3096L12.8718 11.007C12.3683 11.3182 11.7473 11.3166 11.2453 11.0028L9.8457 10.1281C9.34035 9.81226 8.71482 9.81285 8.20999 10.1296L6.80903 11.0088C6.31388 11.3195 5.70175 11.3264 5.20056 11.0269L4 10.3096Z" fill="white"/>
</svg>
