<!-- by TradingView --><svg width="18" height="18" viewBox="0 0 18 18" xmlns="http://www.w3.org/2000/svg"><path fill="#FEF200" d="M0 0h18v18H0z"/><path fill-rule="evenodd" d="M8.69 9h-2.8c.03.28.1.66.23 1.07.72-.24 1.6-.43 2.57-.44V9Zm0 .94c-.94.02-1.78.2-2.47.43l.02.06c.23.6.58 1.2 1.07 1.63.4-.13.87-.23 1.38-.24V9.94Zm0 2.19a4.64 4.64 0 0 0-2.34.73l.05.04c.68.45 1.47.72 2.29.78v-1.55Zm-2.6.54c.2-.15.51-.33.9-.49a4.5 4.5 0 0 1-1.06-1.71c-.5.18-.9.38-1.16.55.3.64.76 1.2 1.31 1.65ZM4.37 10.9A5 5 0 0 0 9 14V9h5a5 5 0 1 0-9.62 1.9Zm.26-.18c.29-.17.7-.37 1.19-.56A6.31 6.31 0 0 1 5.58 9H4.3c0 .59.11 1.18.33 1.73Zm-.32-2.04h1.25c.01-.43.1-.83.22-1.2-.44-.15-.8-.3-1.05-.44a4.69 4.69 0 0 0-.42 1.64Zm.56-1.92c.24.13.6.28 1.02.43.3-.74.75-1.34 1.09-1.69-.3-.1-.53-.22-.71-.33a4.69 4.69 0 0 0-1.4 1.6ZM6.58 5a4.69 4.69 0 0 1 4.78-.04c-.19.12-.48.26-.84.38a5 5 0 0 1-1.67.23 5.5 5.5 0 0 1-2.27-.57Zm5.07.15c-.17.12-.45.27-.8.4.49.53.8 1.16 1 1.75.54-.17.98-.37 1.27-.52a4.68 4.68 0 0 0-1.47-1.63Zm1.61 1.91c-.3.16-.76.36-1.32.54.11.42.17.81.18 1.1h1.56a4.69 4.69 0 0 0-.42-1.64ZM11.81 8.7a5.02 5.02 0 0 0-.17-1.01A9.7 9.7 0 0 1 9 8.06v.63h2.8ZM6.19 7.3c.32-.77.8-1.37 1.13-1.68.4.12.86.22 1.37.25v1.87a9.64 9.64 0 0 1-2.5-.44ZM9 7.75V5.87c.58 0 1.1-.09 1.52-.21.51.5.83 1.13 1.03 1.72-.73.2-1.61.37-2.55.37Zm-2.92-.16c.73.24 1.64.43 2.6.47v.63h-2.8c.01-.39.1-.76.2-1.1Z" fill="#2E3192"/><path d="M12.5 12.16c0 .5.23.84.75.84.53 0 .75-.3.75-.83V12h-.5v.17c0 .31-.06.45-.25.45-.24 0-.25-.26-.25-.44V10.8c0-.27.04-.42.25-.42.19 0 .25.13.25.42V11h.5v-.22c0-.5-.26-.78-.75-.78-.55 0-.75.34-.75.88v1.28ZM10.5 13l-.5-3h.5l.25 2 .25-2h.5l.25 2 .25-2h.5l-.5 3h-.5l-.25-2-.25 2h-.5Z" fill="#EC1D23"/></svg>