<!-- by TradingView --><svg width="18" height="18" viewBox="0 0 18 18" xmlns="http://www.w3.org/2000/svg"><path fill="#F0F3FA" d="M0 0h18v18H0z"/><path d="M12.08 5.99a12.58 12.58 0 0 0-6.18-.13c-.55.12-.82-.54-.5-.98a.77.77 0 0 1 .37-.27 9.83 9.83 0 0 1 3.72-.6 7.82 7.82 0 0 1 3.06.78c.31.18.5.49.43.88-.07.38-.34.66-.61.9a391.42 391.42 0 0 1-1.52 1.32c.5 1 .25 2.22-.6 2.9a1.88 1.88 0 0 1-2.59-.19l-1.13.98c-.14.12-.3.35-.13.51a.5.5 0 0 0 .17.1c1.57.6 3.22.5 4.83.16l.7-.15c.68-.15.95.75.39 1.13l-.23.11c-.75.28-1.55.47-2.34.53-1.5.12-3-.15-4.4-.67-.53-.19-.64-.75-.4-1.24.12-.25.26-.4.48-.58a886.28 886.28 0 0 1 1.68-1.43 2.38 2.38 0 0 1 .7-2.96 1.89 1.89 0 0 1 2.5.26L12.08 6Zm-2.9-1.12.4.36v-.01l-.3-.44.31-.45-.4.33h-.01l-.4-.35h-.01l.31.45-.32.46.41-.35Zm-1.55 0-.32.45.4-.34h.02l.38.33c.03.04.04.03 0-.01l-.29-.41v-.02l.32-.44v-.01l-.4.35h-.02l-.4-.35.3.44v.02Zm2.85 0-.32.45c.03 0 .35-.3.4-.34h.02l.4.36H11l-.32-.45v-.01l.32-.46-.4.35h-.02l-.4-.35.3.44v.02Zm-4.06.32.31-.44v-.01l-.4.34h-.01l-.4-.35H5.9v.01a1482.03 1482.03 0 0 0 .31.45l-.31.44.4-.33h.01l.4.34-.3-.44v-.01Zm5.88-.39-.4.34-.4-.35h-.01l.31.44v.02l-.32.44.4-.34h.02l.4.35-.3-.44a.02.02 0 0 1 0-.02 51.7 51.7 0 0 1 .3-.44ZM8.82 8.95 7.78 10.1l1.24-.82h.02l1.02 1.13h.01l-.75-1.36v-.01l1.04-1.14-1.24.82a.01.01 0 0 1-.01 0L8.07 7.56l.75 1.38Z" fill="#0D1B48"/><path opacity=".3" d="M9.05 13.86a7.1 7.1 0 0 1-3.55-.85l.44-.8c.33.21 1.5.71 3.1.71 1.63 0 2.78-.4 3.11-.58l.38.84c-.46.25-1.74.68-3.48.68Z" fill="#fff"/></svg>